<svg width="635px" height="102px" version="1.1" xmlns="http://www.w3.org/2000/svg" xmlns:xlink="http://www.w3.org/1999/xlink" overflow="visible" id="pfnjo7e">
   <desc>Engraved by Verovio 5.7.0-7135340</desc>
   <defs>
      <g id="E050-pfnjo7e">
         <path transform="scale(1,-1)" d="M441 -245c-23 -4 -48 -6 -76 -6c-59 0 -102 7 -130 20c-88 42 -150 93 -187 154c-26 44 -43 103 -48 176c0 6 -1 13 -1 19c0 54 15 111 45 170c29 57 65 106 110 148s96 85 153 127c-3 16 -8 46 -13 92c-4 43 -5 73 -5 89c0 117 16 172 69 257c34 54 64 82 89 82 c21 0 43 -30 69 -92s39 -115 41 -159v-15c0 -109 -21 -162 -67 -241c-13 -20 -63 -90 -98 -118c-13 -9 -25 -19 -37 -29l31 -181c8 1 18 2 28 2c58 0 102 -12 133 -35c59 -43 92 -104 98 -184c1 -7 1 -15 1 -22c0 -123 -87 -209 -181 -248c8 -57 17 -110 25 -162 c5 -31 6 -58 6 -80c0 -30 -5 -53 -14 -70c-35 -64 -88 -99 -158 -103c-5 0 -11 -1 -16 -1c-37 0 -72 10 -108 27c-50 24 -77 59 -80 105v11c0 29 7 55 20 76c18 28 45 42 79 44h6c49 0 93 -42 97 -87v-9c0 -51 -34 -86 -105 -106c17 -24 51 -36 102 -36c62 0 116 43 140 85 c9 16 13 41 13 74c0 20 -1 42 -5 67c-8 53 -18 106 -26 159zM461 939c-95 0 -135 -175 -135 -286c0 -24 2 -48 5 -71c50 39 92 82 127 128c40 53 60 100 60 140v8c-4 53 -22 81 -55 81h-2zM406 119l54 -326c73 25 110 78 110 161c0 7 0 15 -1 23c-7 95 -57 142 -151 142h-12 zM382 117c-72 -2 -128 -47 -128 -120v-7c2 -46 43 -99 75 -115c-3 -2 -7 -5 -10 -10c-70 33 -116 88 -123 172v11c0 68 44 126 88 159c23 17 49 29 78 36l-29 170c-21 -13 -52 -37 -92 -73c-50 -44 -86 -84 -109 -119c-45 -69 -67 -130 -67 -182v-13c5 -68 35 -127 93 -176 s125 -73 203 -73c25 0 50 3 75 9c-19 111 -36 221 -54 331z" />
      </g>
      <g id="E083-pfnjo7e">
         <path transform="scale(1,-1)" d="M208 250c97 0 177 -52 177 -116c0 -69 -40 -111 -118 -125c56 -5 125 -44 125 -116c0 -31 -10 -57 -31 -78c-19 -21 -45 -38 -78 -49l-50 -11c-15 -3 -36 -7 -55 -7c-50 0 -86 16 -113 38c-16 10 -23 18 -34 34c-7 13 -11 25 -11 38c0 43 27 83 68 83l3 -2 c61 0 75 -42 75 -70c0 -19 -24 -42 -26 -57c7 -17 20 -25 37 -25c44 0 94 29 94 78c0 75 -34 125 -138 125v36c84 0 131 22 131 98c0 54 -37 88 -87 88c-26 0 -43 -7 -51 -22c15 -22 44 -16 44 -70c0 -37 -37 -62 -71 -62c-22 0 -69 15 -69 76c0 79 101 116 178 116z" />
      </g>
      <g id="E084-pfnjo7e">
         <path transform="scale(1,-1)" d="M20 -78c84 97 114 180 134 329h170c-13 -32 -82 -132 -99 -151l-84 -97c-33 -36 -59 -63 -80 -81h162v102l127 123v-225h57v-39h-57v-34c0 -43 19 -65 57 -65v-34h-244v36c48 0 60 26 60 70v27h-203v39z" />
      </g>
      <g id="E0A4-pfnjo7e">
         <path transform="scale(1,-1)" d="M0 -39c0 68 73 172 200 172c66 0 114 -37 114 -95c0 -84 -106 -171 -218 -171c-64 0 -96 30 -96 94z" />
      </g>
   </defs>
   <style type="text/css">#pfnjo7e g.page-margin {font-family:Times,serif;}#pfnjo7e g.ending, #pfnjo7e g.fing, #pfnjo7e g.reh, #pfnjo7e g.tempo {font-weight:bold;}#pfnjo7e g.dir, #pfnjo7e g.dynam, #pfnjo7e g.mNum {font-style:italic;}#pfnjo7e g.label {font-weight:normal;}#pfnjo7e ellipse, #pfnjo7e path, #pfnjo7e polygon, #pfnjo7e polyline, #pfnjo7e rect {stroke:currentColor}</style>
   <svg class="definition-scale" color="black" viewBox="0 0 14100 2250">
      <g class="page-margin" transform="translate(500, 500)">
         <g id="lcz237t" class="mdiv pageMilestone" />
         <g id="mwxt00x" class="score pageMilestone" />
         <g id="jo3qcsy" class="system">
            <g id="o1nwbnw5" class="section systemMilestone" />
            <g id="qmlovzj" class="measure">
               <g id="z16wv72r" class="staff">
                  <path d="M0 240 L5102 240" stroke-width="13" />
                  <path d="M0 420 L5102 420" stroke-width="13" />
                  <path d="M0 600 L5102 600" stroke-width="13" />
                  <path d="M0 780 L5102 780" stroke-width="13" />
                  <path d="M0 960 L5102 960" stroke-width="13" />
                  <g id="l1b9tw60" class="clef">
                     <use xlink:href="#E050-pfnjo7e" transform="translate(90, 780) scale(0.72, 0.72)" />
                  </g>
                  <g id="m13k1pa7" class="keySig" />
                  <g id="n1rpc8a2" class="meterSig">
                     <use xlink:href="#E083-pfnjo7e" transform="translate(727, 420) scale(0.72, 0.72)" />
                     <use xlink:href="#E084-pfnjo7e" transform="translate(721, 780) scale(0.72, 0.72)" />
                  </g>
                  <g class="ledgerLines below">
                     <path d="M1885 1140 L2171 1140" stroke-width="22" />
                     <path d="M2201 1140 L2487 1140" stroke-width="22" />
                     <path d="M3149 1140 L3435 1140" stroke-width="22" />
                     <path d="M3465 1140 L3751 1140" stroke-width="22" />
                     <path d="M4079 1140 L4401 1140" stroke-width="22" />
                     <path d="M4711 1140 L5033 1140" stroke-width="22" />
                  </g>
                  <g id="a1n0fw13" class="layer">
                     <g id="b37hn12" class="beam">
                        <polygon fill-opacity="1" points="1491,150 2457,150 2457,240 1491,240" />
                        <polygon fill-opacity="1" points="1491,285 1816,285 1816,375 1491,375" />
                        <polygon fill-opacity="1" points="1816,285 2132,285 2132,375 1816,375" />
                        <polygon fill-opacity="1" points="2132,285 2457,285 2457,375 2132,375" />
                        <g id="r4ks4fv" class="note">
                           <g class="notehead">
                              <use xlink:href="#E0A4-pfnjo7e" transform="translate(1283, 780) scale(0.72, 0.72)" />
                           </g>
                           <g id="pmwmthe" class="stem">
                              <path d="M1500 752 L1500 168" stroke-width="18" />
                           </g>
                        </g>
                        <g id="s147azdb" class="note">
                           <g class="notehead">
                              <use xlink:href="#E0A4-pfnjo7e" transform="translate(1599, 780) scale(0.72, 0.72)" />
                           </g>
                           <g id="q14fmeoc" class="stem">
                              <path d="M1816 752 L1816 168" stroke-width="18" />
                           </g>
                        </g>
                        <g id="t1kzq82m" class="note">
                           <g class="notehead">
                              <use xlink:href="#E0A4-pfnjo7e" transform="translate(1915, 1140) scale(0.72, 0.72)" />
                           </g>
                           <g id="rivwb27" class="stem">
                              <path d="M2132 1112 L2132 168" stroke-width="18" />
                           </g>
                        </g>
                        <g id="ushell2" class="note">
                           <g class="notehead">
                              <use xlink:href="#E0A4-pfnjo7e" transform="translate(2231, 1140) scale(0.72, 0.72)" />
                           </g>
                           <g id="s1f31sgl" class="stem">
                              <path d="M2448 1112 L2448 168" stroke-width="18" />
                           </g>
                        </g>
                     </g>
                     <g id="c1kyp1ws" class="beam">
                        <polygon fill-opacity="1" points="2755,150 3721,150 3721,240 2755,240" />
                        <polygon fill-opacity="1" points="2755,285 3080,285 3080,375 2755,375" />
                        <polygon fill-opacity="1" points="3080,285 3396,285 3396,375 3080,375" />
                        <polygon fill-opacity="1" points="3396,285 3721,285 3721,375 3396,375" />
                        <g id="va734np" class="note">
                           <g class="notehead">
                              <use xlink:href="#E0A4-pfnjo7e" transform="translate(2547, 780) scale(0.72, 0.72)" />
                           </g>
                           <g id="t1ajik95" class="stem">
                              <path d="M2764 752 L2764 168" stroke-width="18" />
                           </g>
                        </g>
                        <g id="w1cybpcc" class="note">
                           <g class="notehead">
                              <use xlink:href="#E0A4-pfnjo7e" transform="translate(2863, 780) scale(0.72, 0.72)" />
                           </g>
                           <g id="u6oscn4" class="stem">
                              <path d="M3080 752 L3080 168" stroke-width="18" />
                           </g>
                        </g>
                        <g id="x15wwqth" class="note">
                           <g class="notehead">
                              <use xlink:href="#E0A4-pfnjo7e" transform="translate(3179, 1140) scale(0.72, 0.72)" />
                           </g>
                           <g id="vyt4ad" class="stem">
                              <path d="M3396 1112 L3396 168" stroke-width="18" />
                           </g>
                        </g>
                        <g id="yv3lqdm" class="note">
                           <g class="notehead">
                              <use xlink:href="#E0A4-pfnjo7e" transform="translate(3495, 1140) scale(0.72, 0.72)" />
                           </g>
                           <g id="w19obtds" class="stem">
                              <path d="M3712 1112 L3712 168" stroke-width="18" />
                           </g>
                        </g>
                     </g>
                     <g id="d1eyoooy" class="beam">
                        <polygon fill-opacity="1" points="4019,195 4985,195 4985,285 4019,285" />
                        <polygon fill-opacity="1" points="4019,330 4344,330 4344,420 4019,420" />
                        <polygon fill-opacity="1" points="4344,330 4660,330 4660,420 4344,420" />
                        <polygon fill-opacity="1" points="4660,330 4985,330 4985,420 4660,420" />
                        <g id="z2gqwr3" class="note">
                           <g class="notehead">
                              <use xlink:href="#E0A4-pfnjo7e" transform="translate(3811, 780) scale(0.72, 0.72)" />
                           </g>
                           <g id="xm40ctx" class="stem">
                              <path d="M4028 752 L4028 213" stroke-width="18" />
                           </g>
                        </g>
                        <g id="a1pfogn4" class="note">
                           <g class="notehead">
                              <use xlink:href="#E0A4-pfnjo7e" transform="translate(4127, 1140) scale(0.72, 0.72)" />
                           </g>
                           <g id="yvzjjlx" class="stem">
                              <path d="M4344 1112 L4344 213" stroke-width="18" />
                           </g>
                        </g>
                        <g id="b8j2ung" class="note">
                           <g class="notehead">
                              <use xlink:href="#E0A4-pfnjo7e" transform="translate(4443, 780) scale(0.72, 0.72)" />
                           </g>
                           <g id="z4bj489" class="stem">
                              <path d="M4660 752 L4660 213" stroke-width="18" />
                           </g>
                        </g>
                        <g id="c1ahluu1" class="note">
                           <g class="notehead">
                              <use xlink:href="#E0A4-pfnjo7e" transform="translate(4759, 1140) scale(0.72, 0.72)" />
                           </g>
                           <g id="a1tqy1kq" class="stem">
                              <path d="M4976 1112 L4976 213" stroke-width="18" />
                           </g>
                        </g>
                     </g>
                  </g>
               </g>
               <g id="yhbsl03" class="barLine">
                  <path d="M5089 240 L5089 960" stroke-width="27" />
               </g>
            </g>
            <g id="zmyzslu" class="measure">
               <g id="b13viyd2" class="staff">
                  <path d="M5102 240 L9101 240" stroke-width="13" />
                  <path d="M5102 420 L9101 420" stroke-width="13" />
                  <path d="M5102 600 L9101 600" stroke-width="13" />
                  <path d="M5102 780 L9101 780" stroke-width="13" />
                  <path d="M5102 960 L9101 960" stroke-width="13" />
                  <g class="ledgerLines below">
                     <path d="M5884 1140 L6170 1140" stroke-width="22" />
                     <path d="M6200 1140 L6486 1140" stroke-width="22" />
                     <path d="M7148 1140 L7434 1140" stroke-width="22" />
                     <path d="M7464 1140 L7750 1140" stroke-width="22" />
                     <path d="M8078 1140 L8400 1140" stroke-width="22" />
                     <path d="M8710 1140 L9032 1140" stroke-width="22" />
                  </g>
                  <g id="c1yevvwh" class="layer">
                     <g id="ewtw03u" class="beam">
                        <polygon fill-opacity="1" points="5490,150 6456,150 6456,240 5490,240" />
                        <polygon fill-opacity="1" points="5490,285 5815,285 5815,375 5490,375" />
                        <polygon fill-opacity="1" points="5815,285 6131,285 6131,375 5815,375" />
                        <polygon fill-opacity="1" points="6131,285 6456,285 6456,375 6131,375" />
                        <g id="d1iiegxs" class="note">
                           <g class="notehead">
                              <use xlink:href="#E0A4-pfnjo7e" transform="translate(5282, 780) scale(0.72, 0.72)" />
                           </g>
                           <g id="bb8g0u0" class="stem">
                              <path d="M5499 752 L5499 168" stroke-width="18" />
                           </g>
                        </g>
                        <g id="erbcoh7" class="note">
                           <g class="notehead">
                              <use xlink:href="#E0A4-pfnjo7e" transform="translate(5598, 780) scale(0.72, 0.72)" />
                           </g>
                           <g id="cfjak8c" class="stem">
                              <path d="M5815 752 L5815 168" stroke-width="18" />
                           </g>
                        </g>
                        <g id="fmlv5y5" class="note">
                           <g class="notehead">
                              <use xlink:href="#E0A4-pfnjo7e" transform="translate(5914, 1140) scale(0.72, 0.72)" />
                           </g>
                           <g id="d16zdwlv" class="stem">
                              <path d="M6131 1112 L6131 168" stroke-width="18" />
                           </g>
                        </g>
                        <g id="g14xmp24" class="note">
                           <g class="notehead">
                              <use xlink:href="#E0A4-pfnjo7e" transform="translate(6230, 1140) scale(0.72, 0.72)" />
                           </g>
                           <g id="e11izfdo" class="stem">
                              <path d="M6447 1112 L6447 168" stroke-width="18" />
                           </g>
                        </g>
                     </g>
                     <g id="f12ecyql" class="beam">
                        <polygon fill-opacity="1" points="6754,150 7720,150 7720,240 6754,240" />
                        <polygon fill-opacity="1" points="6754,285 7079,285 7079,375 6754,375" />
                        <polygon fill-opacity="1" points="7079,285 7395,285 7395,375 7079,375" />
                        <polygon fill-opacity="1" points="7395,285 7720,285 7720,375 7395,375" />
                        <g id="hju2rxn" class="note">
                           <g class="notehead">
                              <use xlink:href="#E0A4-pfnjo7e" transform="translate(6546, 780) scale(0.72, 0.72)" />
                           </g>
                           <g id="fqn9gl2" class="stem">
                              <path d="M6763 752 L6763 168" stroke-width="18" />
                           </g>
                        </g>
                        <g id="izodm98" class="note">
                           <g class="notehead">
                              <use xlink:href="#E0A4-pfnjo7e" transform="translate(6862, 780) scale(0.72, 0.72)" />
                           </g>
                           <g id="goma0gm" class="stem">
                              <path d="M7079 752 L7079 168" stroke-width="18" />
                           </g>
                        </g>
                        <g id="j1mj6nxn" class="note">
                           <g class="notehead">
                              <use xlink:href="#E0A4-pfnjo7e" transform="translate(7178, 1140) scale(0.72, 0.72)" />
                           </g>
                           <g id="h1a2rmes" class="stem">
                              <path d="M7395 1112 L7395 168" stroke-width="18" />
                           </g>
                        </g>
                        <g id="k1d0qcvg" class="note">
                           <g class="notehead">
                              <use xlink:href="#E0A4-pfnjo7e" transform="translate(7494, 1140) scale(0.72, 0.72)" />
                           </g>
                           <g id="i4vs11m" class="stem">
                              <path d="M7711 1112 L7711 168" stroke-width="18" />
                           </g>
                        </g>
                     </g>
                     <g id="gjwwkjn" class="beam">
                        <polygon fill-opacity="1" points="8018,195 8984,195 8984,285 8018,285" />
                        <polygon fill-opacity="1" points="8018,330 8343,330 8343,420 8018,420" />
                        <polygon fill-opacity="1" points="8343,330 8659,330 8659,420 8343,420" />
                        <polygon fill-opacity="1" points="8659,330 8984,330 8984,420 8659,420" />
                        <g id="leeh8fz" class="note">
                           <g class="notehead">
                              <use xlink:href="#E0A4-pfnjo7e" transform="translate(7810, 780) scale(0.72, 0.72)" />
                           </g>
                           <g id="j1s8kxne" class="stem">
                              <path d="M8027 752 L8027 213" stroke-width="18" />
                           </g>
                        </g>
                        <g id="m5odh2d" class="note">
                           <g class="notehead">
                              <use xlink:href="#E0A4-pfnjo7e" transform="translate(8126, 1140) scale(0.72, 0.72)" />
                           </g>
                           <g id="k19a056m" class="stem">
                              <path d="M8343 1112 L8343 213" stroke-width="18" />
                           </g>
                        </g>
                        <g id="n16gprxv" class="note">
                           <g class="notehead">
                              <use xlink:href="#E0A4-pfnjo7e" transform="translate(8442, 780) scale(0.72, 0.72)" />
                           </g>
                           <g id="l1e7ub62" class="stem">
                              <path d="M8659 752 L8659 213" stroke-width="18" />
                           </g>
                        </g>
                        <g id="o1w2vfrn" class="note">
                           <g class="notehead">
                              <use xlink:href="#E0A4-pfnjo7e" transform="translate(8758, 1140) scale(0.72, 0.72)" />
                           </g>
                           <g id="mlwp7zq" class="stem">
                              <path d="M8975 1112 L8975 213" stroke-width="18" />
                           </g>
                        </g>
                     </g>
                  </g>
               </g>
               <g id="hmwwo00" class="barLine">
                  <path d="M9088 240 L9088 960" stroke-width="27" />
               </g>
            </g>
            <g id="i1s4ffnc" class="measure">
               <g id="d1sqgsul" class="staff">
                  <path d="M9101 240 L13100 240" stroke-width="13" />
                  <path d="M9101 420 L13100 420" stroke-width="13" />
                  <path d="M9101 600 L13100 600" stroke-width="13" />
                  <path d="M9101 780 L13100 780" stroke-width="13" />
                  <path d="M9101 960 L13100 960" stroke-width="13" />
                  <g class="ledgerLines below">
                     <path d="M9883 1140 L10169 1140" stroke-width="22" />
                     <path d="M10199 1140 L10485 1140" stroke-width="22" />
                     <path d="M11147 1140 L11433 1140" stroke-width="22" />
                     <path d="M11463 1140 L11749 1140" stroke-width="22" />
                     <path d="M12077 1140 L12399 1140" stroke-width="22" />
                     <path d="M12709 1140 L13031 1140" stroke-width="22" />
                  </g>
                  <g id="e11rutd2" class="layer">
                     <g id="hzub3xf" class="beam">
                        <polygon fill-opacity="1" points="9489,150 10455,150 10455,240 9489,240" />
                        <polygon fill-opacity="1" points="9489,285 9814,285 9814,375 9489,375" />
                        <polygon fill-opacity="1" points="9814,285 10130,285 10130,375 9814,375" />
                        <polygon fill-opacity="1" points="10130,285 10455,285 10455,375 10130,375" />
                        <g id="pk6xyvl" class="note">
                           <g class="notehead">
                              <use xlink:href="#E0A4-pfnjo7e" transform="translate(9281, 780) scale(0.72, 0.72)" />
                           </g>
                           <g id="nt9ronl" class="stem">
                              <path d="M9498 752 L9498 168" stroke-width="18" />
                           </g>
                        </g>
                        <g id="qhghzyb" class="note">
                           <g class="notehead">
                              <use xlink:href="#E0A4-pfnjo7e" transform="translate(9597, 780) scale(0.72, 0.72)" />
                           </g>
                           <g id="o1awc8ol" class="stem">
                              <path d="M9814 752 L9814 168" stroke-width="18" />
                           </g>
                        </g>
                        <g id="rgx8bjh" class="note">
                           <g class="notehead">
                              <use xlink:href="#E0A4-pfnjo7e" transform="translate(9913, 1140) scale(0.72, 0.72)" />
                           </g>
                           <g id="p1ufntge" class="stem">
                              <path d="M10130 1112 L10130 168" stroke-width="18" />
                           </g>
                        </g>
                        <g id="s82fpt" class="note">
                           <g class="notehead">
                              <use xlink:href="#E0A4-pfnjo7e" transform="translate(10229, 1140) scale(0.72, 0.72)" />
                           </g>
                           <g id="qg6e4o" class="stem">
                              <path d="M10446 1112 L10446 168" stroke-width="18" />
                           </g>
                        </g>
                     </g>
                     <g id="izv1mc9" class="beam">
                        <polygon fill-opacity="1" points="10753,150 11719,150 11719,240 10753,240" />
                        <polygon fill-opacity="1" points="10753,285 11078,285 11078,375 10753,375" />
                        <polygon fill-opacity="1" points="11078,285 11394,285 11394,375 11078,375" />
                        <polygon fill-opacity="1" points="11394,285 11719,285 11719,375 11394,375" />
                        <g id="t3elz0m" class="note">
                           <g class="notehead">
                              <use xlink:href="#E0A4-pfnjo7e" transform="translate(10545, 780) scale(0.72, 0.72)" />
                           </g>
                           <g id="rxq6cll" class="stem">
                              <path d="M10762 752 L10762 168" stroke-width="18" />
                           </g>
                        </g>
                        <g id="u1bb0tuc" class="note">
                           <g class="notehead">
                              <use xlink:href="#E0A4-pfnjo7e" transform="translate(10861, 780) scale(0.72, 0.72)" />
                           </g>
                           <g id="s1xjwapg" class="stem">
                              <path d="M11078 752 L11078 168" stroke-width="18" />
                           </g>
                        </g>
                        <g id="v6sh6uc" class="note">
                           <g class="notehead">
                              <use xlink:href="#E0A4-pfnjo7e" transform="translate(11177, 1140) scale(0.72, 0.72)" />
                           </g>
                           <g id="t16fzqxk" class="stem">
                              <path d="M11394 1112 L11394 168" stroke-width="18" />
                           </g>
                        </g>
                        <g id="wgj8qwy" class="note">
                           <g class="notehead">
                              <use xlink:href="#E0A4-pfnjo7e" transform="translate(11493, 1140) scale(0.72, 0.72)" />
                           </g>
                           <g id="ulubfbi" class="stem">
                              <path d="M11710 1112 L11710 168" stroke-width="18" />
                           </g>
                        </g>
                     </g>
                     <g id="j14qhuvu" class="beam">
                        <polygon fill-opacity="1" points="12017,195 12983,195 12983,285 12017,285" />
                        <polygon fill-opacity="1" points="12017,330 12342,330 12342,420 12017,420" />
                        <polygon fill-opacity="1" points="12342,330 12658,330 12658,420 12342,420" />
                        <polygon fill-opacity="1" points="12658,330 12983,330 12983,420 12658,420" />
                        <g id="xfggj11" class="note">
                           <g class="notehead">
                              <use xlink:href="#E0A4-pfnjo7e" transform="translate(11809, 780) scale(0.72, 0.72)" />
                           </g>
                           <g id="v1n4j8tk" class="stem">
                              <path d="M12026 752 L12026 213" stroke-width="18" />
                           </g>
                        </g>
                        <g id="y1waypqj" class="note">
                           <g class="notehead">
                              <use xlink:href="#E0A4-pfnjo7e" transform="translate(12125, 1140) scale(0.72, 0.72)" />
                           </g>
                           <g id="w1qijfro" class="stem">
                              <path d="M12342 1112 L12342 213" stroke-width="18" />
                           </g>
                        </g>
                        <g id="zfx25hn" class="note">
                           <g class="notehead">
                              <use xlink:href="#E0A4-pfnjo7e" transform="translate(12441, 780) scale(0.72, 0.72)" />
                           </g>
                           <g id="xpk0tft" class="stem">
                              <path d="M12658 752 L12658 213" stroke-width="18" />
                           </g>
                        </g>
                        <g id="a3ie8ud" class="note">
                           <g class="notehead">
                              <use xlink:href="#E0A4-pfnjo7e" transform="translate(12757, 1140) scale(0.72, 0.72)" />
                           </g>
                           <g id="y1ccvmbx" class="stem">
                              <path d="M12974 1112 L12974 213" stroke-width="18" />
                           </g>
                        </g>
                     </g>
                  </g>
               </g>
               <g id="qa56g6u" class="barLine">
                  <path d="M13087 240 L13087 960" stroke-width="27" />
               </g>
            </g>
            <g id="m1c77hfv" class="systemMilestoneEnd o1nwbnw5" />
         </g>
         <g id="n1p91bt0" class="pageMilestoneEnd mwxt00x" />
         <g id="o1hn97h8" class="pageMilestoneEnd lcz237t" />
      </g>
   </svg>
</svg>
