<svg width="635px" height="102px" version="1.1" xmlns="http://www.w3.org/2000/svg" xmlns:xlink="http://www.w3.org/1999/xlink" xmlns:mei="http://www.music-encoding.org/ns/mei" overflow="visible">
   <desc>Engraved by Verovio 4.4.0-66ab39c</desc>
   <defs>
      <symbol id="E083-1ccvmbx" viewBox="0 0 1000 1000" overflow="inherit">
         <path transform="scale(1,-1)" d="M208 250c97 0 177 -52 177 -116c0 -69 -40 -111 -118 -125c56 -5 125 -44 125 -116c0 -31 -10 -57 -31 -78c-19 -21 -45 -38 -78 -49l-50 -11c-15 -3 -36 -7 -55 -7c-50 0 -86 16 -113 38c-16 10 -23 18 -34 34c-7 13 -11 25 -11 38c0 43 27 83 68 83l3 -2 c61 0 75 -42 75 -70c0 -19 -24 -42 -26 -57c7 -17 20 -25 37 -25c44 0 94 29 94 78c0 75 -34 125 -138 125v36c84 0 131 22 131 98c0 54 -37 88 -87 88c-26 0 -43 -7 -51 -22c15 -22 44 -16 44 -70c0 -37 -37 -62 -71 -62c-22 0 -69 15 -69 76c0 79 101 116 178 116z" />
      </symbol>
      <symbol id="E084-1ccvmbx" viewBox="0 0 1000 1000" overflow="inherit">
         <path transform="scale(1,-1)" d="M20 -78c84 97 114 180 134 329h170c-13 -32 -82 -132 -99 -151l-84 -97c-33 -36 -59 -63 -80 -81h162v102l127 123v-225h57v-39h-57v-34c0 -43 19 -65 57 -65v-34h-244v36c48 0 60 26 60 70v27h-203v39z" />
      </symbol>
      <symbol id="E0A4-1ccvmbx" viewBox="0 0 1000 1000" overflow="inherit">
         <path transform="scale(1,-1)" d="M0 -39c0 68 73 172 200 172c66 0 114 -37 114 -95c0 -84 -106 -171 -218 -171c-64 0 -96 30 -96 94z" />
      </symbol>
      <symbol id="E050-1ccvmbx" viewBox="0 0 1000 1000" overflow="inherit">
         <path transform="scale(1,-1)" d="M441 -245c-23 -4 -48 -6 -76 -6c-59 0 -102 7 -130 20c-88 42 -150 93 -187 154c-26 44 -43 103 -48 176c0 6 -1 13 -1 19c0 54 15 111 45 170c29 57 65 106 110 148s96 85 153 127c-3 16 -8 46 -13 92c-4 43 -5 73 -5 89c0 117 16 172 69 257c34 54 64 82 89 82 c21 0 43 -30 69 -92s39 -115 41 -159v-15c0 -109 -21 -162 -67 -241c-13 -20 -63 -90 -98 -118c-13 -9 -25 -19 -37 -29l31 -181c8 1 18 2 28 2c58 0 102 -12 133 -35c59 -43 92 -104 98 -184c1 -7 1 -15 1 -22c0 -123 -87 -209 -181 -248c8 -57 17 -110 25 -162 c5 -31 6 -58 6 -80c0 -30 -5 -53 -14 -70c-35 -64 -88 -99 -158 -103c-5 0 -11 -1 -16 -1c-37 0 -72 10 -108 27c-50 24 -77 59 -80 105v11c0 29 7 55 20 76c18 28 45 42 79 44h6c49 0 93 -42 97 -87v-9c0 -51 -34 -86 -105 -106c17 -24 51 -36 102 -36c62 0 116 43 140 85 c9 16 13 41 13 74c0 20 -1 42 -5 67c-8 53 -18 106 -26 159zM461 939c-95 0 -135 -175 -135 -286c0 -24 2 -48 5 -71c50 39 92 82 127 128c40 53 60 100 60 140v8c-4 53 -22 81 -55 81h-2zM406 119l54 -326c73 25 110 78 110 161c0 7 0 15 -1 23c-7 95 -57 142 -151 142h-12 zM382 117c-72 -2 -128 -47 -128 -120v-7c2 -46 43 -99 75 -115c-3 -2 -7 -5 -10 -10c-70 33 -116 88 -123 172v11c0 68 44 126 88 159c23 17 49 29 78 36l-29 170c-21 -13 -52 -37 -92 -73c-50 -44 -86 -84 -109 -119c-45 -69 -67 -130 -67 -182v-13c5 -68 35 -127 93 -176 s125 -73 203 -73c25 0 50 3 75 9c-19 111 -36 221 -54 331z" />
      </symbol>
   </defs>
   <style type="text/css">g.page-margin{font-family:Times,serif;} g.ending, g.fing, g.reh, g.tempo{font-weight:bold;} g.dir, g.dynam, g.mNum{font-style:italic;} g.label{font-weight:normal;}</style>
   <svg class="definition-scale" color="black" viewBox="0 0 14100 2250">
      <g class="page-margin" transform="translate(500, 500)">
         <g id="m1dict13" class="mdiv pageMilestone" />
         <g id="scz237t" class="score pageMilestone" />
         <g id="s4s4uc4" class="system">
            <g id="sdvl5ld" class="section systemMilestone" />
            <g id="mfnjo7e" class="measure">
               <g id="s23h8om" class="staff">
                  <path d="M0 240 L5102 240" stroke="currentColor" stroke-width="13" />
                  <path d="M0 420 L5102 420" stroke="currentColor" stroke-width="13" />
                  <path d="M0 600 L5102 600" stroke="currentColor" stroke-width="13" />
                  <path d="M0 780 L5102 780" stroke="currentColor" stroke-width="13" />
                  <path d="M0 960 L5102 960" stroke="currentColor" stroke-width="13" />
                  <g id="c1b9tw60" class="clef">
                     <use xlink:href="#E050-1ccvmbx" x="90" y="780" height="720px" width="720px" />
                  </g>
                  <g id="k13k1pa7" class="keySig" />
                  <g id="m1rpc8a2" class="meterSig">
                     <use xlink:href="#E083-1ccvmbx" x="727" y="420" height="720px" width="720px" />
                     <use xlink:href="#E084-1ccvmbx" x="721" y="780" height="720px" width="720px" />
                  </g>
                  <g class="ledgerLines below">
                     <path d="M1885 1140 L2171 1140" stroke="currentColor" stroke-width="22" />
                     <path d="M2201 1140 L2487 1140" stroke="currentColor" stroke-width="22" />
                     <path d="M3149 1140 L3435 1140" stroke="currentColor" stroke-width="22" />
                     <path d="M3465 1140 L3751 1140" stroke="currentColor" stroke-width="22" />
                     <path d="M4079 1140 L4401 1140" stroke="currentColor" stroke-width="22" />
                     <path d="M4711 1140 L5033 1140" stroke="currentColor" stroke-width="22" />
                  </g>
                  <g id="l16wv72r" class="layer">
                     <g id="b3ie8ud" class="beam">
                        <polygon points="1491,150 2457,150 2457,240 1491,240" />
                        <polygon points="1491,285 1816,285 1816,375 1491,375" />
                        <polygon points="1816,285 2132,285 2132,375 1816,375" />
                        <polygon points="2132,285 2457,285 2457,375 2132,375" />
                        <g id="na56g6u" class="note">
                           <g class="notehead">
                              <use xlink:href="#E0A4-1ccvmbx" x="1283" y="780" height="720px" width="720px" />
                           </g>
                           <g id="s1hn97h8" class="stem">
                              <path d="M1500 752 L1500 168" stroke="currentColor" stroke-width="18" />
                           </g>
                        </g>
                        <g id="n4ks4fv" class="note">
                           <g class="notehead">
                              <use xlink:href="#E0A4-1ccvmbx" x="1599" y="780" height="720px" width="720px" />
                           </g>
                           <g id="smwmthe" class="stem">
                              <path d="M1816 752 L1816 168" stroke="currentColor" stroke-width="18" />
                           </g>
                        </g>
                        <g id="n147azdb" class="note">
                           <g class="notehead">
                              <use xlink:href="#E0A4-1ccvmbx" x="1915" y="1140" height="720px" width="720px" />
                           </g>
                           <g id="s14fmeoc" class="stem">
                              <path d="M2132 1112 L2132 168" stroke="currentColor" stroke-width="18" />
                           </g>
                        </g>
                        <g id="n1kzq82m" class="note">
                           <g class="notehead">
                              <use xlink:href="#E0A4-1ccvmbx" x="2231" y="1140" height="720px" width="720px" />
                           </g>
                           <g id="sivwb27" class="stem">
                              <path d="M2448 1112 L2448 168" stroke="currentColor" stroke-width="18" />
                           </g>
                        </g>
                     </g>
                     <g id="b37hn12" class="beam">
                        <polygon points="2755,150 3721,150 3721,240 2755,240" />
                        <polygon points="2755,285 3080,285 3080,375 2755,375" />
                        <polygon points="3080,285 3396,285 3396,375 3080,375" />
                        <polygon points="3396,285 3721,285 3721,375 3396,375" />
                        <g id="nshell2" class="note">
                           <g class="notehead">
                              <use xlink:href="#E0A4-1ccvmbx" x="2547" y="780" height="720px" width="720px" />
                           </g>
                           <g id="s1f31sgl" class="stem">
                              <path d="M2764 752 L2764 168" stroke="currentColor" stroke-width="18" />
                           </g>
                        </g>
                        <g id="na734np" class="note">
                           <g class="notehead">
                              <use xlink:href="#E0A4-1ccvmbx" x="2863" y="780" height="720px" width="720px" />
                           </g>
                           <g id="s1ajik95" class="stem">
                              <path d="M3080 752 L3080 168" stroke="currentColor" stroke-width="18" />
                           </g>
                        </g>
                        <g id="n1cybpcc" class="note">
                           <g class="notehead">
                              <use xlink:href="#E0A4-1ccvmbx" x="3179" y="1140" height="720px" width="720px" />
                           </g>
                           <g id="s6oscn4" class="stem">
                              <path d="M3396 1112 L3396 168" stroke="currentColor" stroke-width="18" />
                           </g>
                        </g>
                        <g id="n15wwqth" class="note">
                           <g class="notehead">
                              <use xlink:href="#E0A4-1ccvmbx" x="3495" y="1140" height="720px" width="720px" />
                           </g>
                           <g id="syt4ad" class="stem">
                              <path d="M3712 1112 L3712 168" stroke="currentColor" stroke-width="18" />
                           </g>
                        </g>
                     </g>
                     <g id="b1kyp1ws" class="beam">
                        <polygon points="4019,195 4985,195 4985,285 4019,285" />
                        <polygon points="4019,330 4344,330 4344,420 4019,420" />
                        <polygon points="4344,330 4660,330 4660,420 4344,420" />
                        <polygon points="4660,330 4985,330 4985,420 4660,420" />
                        <g id="nv3lqdm" class="note">
                           <g class="notehead">
                              <use xlink:href="#E0A4-1ccvmbx" x="3811" y="780" height="720px" width="720px" />
                           </g>
                           <g id="s19obtds" class="stem">
                              <path d="M4028 752 L4028 213" stroke="currentColor" stroke-width="18" />
                           </g>
                        </g>
                        <g id="n2gqwr3" class="note">
                           <g class="notehead">
                              <use xlink:href="#E0A4-1ccvmbx" x="4127" y="1140" height="720px" width="720px" />
                           </g>
                           <g id="sm40ctx" class="stem">
                              <path d="M4344 1112 L4344 213" stroke="currentColor" stroke-width="18" />
                           </g>
                        </g>
                        <g id="n1pfogn4" class="note">
                           <g class="notehead">
                              <use xlink:href="#E0A4-1ccvmbx" x="4443" y="780" height="720px" width="720px" />
                           </g>
                           <g id="svzjjlx" class="stem">
                              <path d="M4660 752 L4660 213" stroke="currentColor" stroke-width="18" />
                           </g>
                        </g>
                        <g id="n8j2ung" class="note">
                           <g class="notehead">
                              <use xlink:href="#E0A4-1ccvmbx" x="4759" y="1140" height="720px" width="720px" />
                           </g>
                           <g id="s4bj489" class="stem">
                              <path d="M4976 1112 L4976 213" stroke="currentColor" stroke-width="18" />
                           </g>
                        </g>
                     </g>
                  </g>
               </g>
               <g id="b14otqmf" class="barLine">
                  <path d="M5089 240 L5089 960" stroke="currentColor" stroke-width="27" />
               </g>
            </g>
            <g id="mhbsl03" class="measure">
               <g id="s1n0fw13" class="staff">
                  <path d="M5102 240 L9101 240" stroke="currentColor" stroke-width="13" />
                  <path d="M5102 420 L9101 420" stroke="currentColor" stroke-width="13" />
                  <path d="M5102 600 L9101 600" stroke="currentColor" stroke-width="13" />
                  <path d="M5102 780 L9101 780" stroke="currentColor" stroke-width="13" />
                  <path d="M5102 960 L9101 960" stroke="currentColor" stroke-width="13" />
                  <g class="ledgerLines below">
                     <path d="M5884 1140 L6170 1140" stroke="currentColor" stroke-width="22" />
                     <path d="M6200 1140 L6486 1140" stroke="currentColor" stroke-width="22" />
                     <path d="M7148 1140 L7434 1140" stroke="currentColor" stroke-width="22" />
                     <path d="M7464 1140 L7750 1140" stroke="currentColor" stroke-width="22" />
                     <path d="M8078 1140 L8400 1140" stroke="currentColor" stroke-width="22" />
                     <path d="M8710 1140 L9032 1140" stroke="currentColor" stroke-width="22" />
                  </g>
                  <g id="l13viyd2" class="layer">
                     <g id="b1eyoooy" class="beam">
                        <polygon points="5490,150 6456,150 6456,240 5490,240" />
                        <polygon points="5490,285 5815,285 5815,375 5490,375" />
                        <polygon points="5815,285 6131,285 6131,375 5815,375" />
                        <polygon points="6131,285 6456,285 6456,375 6131,375" />
                        <g id="n1ahluu1" class="note">
                           <g class="notehead">
                              <use xlink:href="#E0A4-1ccvmbx" x="5282" y="780" height="720px" width="720px" />
                           </g>
                           <g id="s1tqy1kq" class="stem">
                              <path d="M5499 752 L5499 168" stroke="currentColor" stroke-width="18" />
                           </g>
                        </g>
                        <g id="n1iiegxs" class="note">
                           <g class="notehead">
                              <use xlink:href="#E0A4-1ccvmbx" x="5598" y="780" height="720px" width="720px" />
                           </g>
                           <g id="sb8g0u0" class="stem">
                              <path d="M5815 752 L5815 168" stroke="currentColor" stroke-width="18" />
                           </g>
                        </g>
                        <g id="nrbcoh7" class="note">
                           <g class="notehead">
                              <use xlink:href="#E0A4-1ccvmbx" x="5914" y="1140" height="720px" width="720px" />
                           </g>
                           <g id="sfjak8c" class="stem">
                              <path d="M6131 1112 L6131 168" stroke="currentColor" stroke-width="18" />
                           </g>
                        </g>
                        <g id="nmlv5y5" class="note">
                           <g class="notehead">
                              <use xlink:href="#E0A4-1ccvmbx" x="6230" y="1140" height="720px" width="720px" />
                           </g>
                           <g id="s16zdwlv" class="stem">
                              <path d="M6447 1112 L6447 168" stroke="currentColor" stroke-width="18" />
                           </g>
                        </g>
                     </g>
                     <g id="bwtw03u" class="beam">
                        <polygon points="6754,150 7720,150 7720,240 6754,240" />
                        <polygon points="6754,285 7079,285 7079,375 6754,375" />
                        <polygon points="7079,285 7395,285 7395,375 7079,375" />
                        <polygon points="7395,285 7720,285 7720,375 7395,375" />
                        <g id="n14xmp24" class="note">
                           <g class="notehead">
                              <use xlink:href="#E0A4-1ccvmbx" x="6546" y="780" height="720px" width="720px" />
                           </g>
                           <g id="s11izfdo" class="stem">
                              <path d="M6763 752 L6763 168" stroke="currentColor" stroke-width="18" />
                           </g>
                        </g>
                        <g id="nju2rxn" class="note">
                           <g class="notehead">
                              <use xlink:href="#E0A4-1ccvmbx" x="6862" y="780" height="720px" width="720px" />
                           </g>
                           <g id="sqn9gl2" class="stem">
                              <path d="M7079 752 L7079 168" stroke="currentColor" stroke-width="18" />
                           </g>
                        </g>
                        <g id="nzodm98" class="note">
                           <g class="notehead">
                              <use xlink:href="#E0A4-1ccvmbx" x="7178" y="1140" height="720px" width="720px" />
                           </g>
                           <g id="soma0gm" class="stem">
                              <path d="M7395 1112 L7395 168" stroke="currentColor" stroke-width="18" />
                           </g>
                        </g>
                        <g id="n1mj6nxn" class="note">
                           <g class="notehead">
                              <use xlink:href="#E0A4-1ccvmbx" x="7494" y="1140" height="720px" width="720px" />
                           </g>
                           <g id="s1a2rmes" class="stem">
                              <path d="M7711 1112 L7711 168" stroke="currentColor" stroke-width="18" />
                           </g>
                        </g>
                     </g>
                     <g id="b12ecyql" class="beam">
                        <polygon points="8018,195 8984,195 8984,285 8018,285" />
                        <polygon points="8018,330 8343,330 8343,420 8018,420" />
                        <polygon points="8343,330 8659,330 8659,420 8343,420" />
                        <polygon points="8659,330 8984,330 8984,420 8659,420" />
                        <g id="n1d0qcvg" class="note">
                           <g class="notehead">
                              <use xlink:href="#E0A4-1ccvmbx" x="7810" y="780" height="720px" width="720px" />
                           </g>
                           <g id="s4vs11m" class="stem">
                              <path d="M8027 752 L8027 213" stroke="currentColor" stroke-width="18" />
                           </g>
                        </g>
                        <g id="neeh8fz" class="note">
                           <g class="notehead">
                              <use xlink:href="#E0A4-1ccvmbx" x="8126" y="1140" height="720px" width="720px" />
                           </g>
                           <g id="s1s8kxne" class="stem">
                              <path d="M8343 1112 L8343 213" stroke="currentColor" stroke-width="18" />
                           </g>
                        </g>
                        <g id="n5odh2d" class="note">
                           <g class="notehead">
                              <use xlink:href="#E0A4-1ccvmbx" x="8442" y="780" height="720px" width="720px" />
                           </g>
                           <g id="s19a056m" class="stem">
                              <path d="M8659 752 L8659 213" stroke="currentColor" stroke-width="18" />
                           </g>
                        </g>
                        <g id="n16gprxv" class="note">
                           <g class="notehead">
                              <use xlink:href="#E0A4-1ccvmbx" x="8758" y="1140" height="720px" width="720px" />
                           </g>
                           <g id="s1e7ub62" class="stem">
                              <path d="M8975 1112 L8975 213" stroke="currentColor" stroke-width="18" />
                           </g>
                        </g>
                     </g>
                  </g>
               </g>
               <g id="b2rcrlx" class="barLine">
                  <path d="M9088 240 L9088 960" stroke="currentColor" stroke-width="27" />
               </g>
            </g>
            <g id="mmwwo00" class="measure">
               <g id="s1yevvwh" class="staff">
                  <path d="M9101 240 L13100 240" stroke="currentColor" stroke-width="13" />
                  <path d="M9101 420 L13100 420" stroke="currentColor" stroke-width="13" />
                  <path d="M9101 600 L13100 600" stroke="currentColor" stroke-width="13" />
                  <path d="M9101 780 L13100 780" stroke="currentColor" stroke-width="13" />
                  <path d="M9101 960 L13100 960" stroke="currentColor" stroke-width="13" />
                  <g class="ledgerLines below">
                     <path d="M9883 1140 L10169 1140" stroke="currentColor" stroke-width="22" />
                     <path d="M10199 1140 L10485 1140" stroke="currentColor" stroke-width="22" />
                     <path d="M11147 1140 L11433 1140" stroke="currentColor" stroke-width="22" />
                     <path d="M11463 1140 L11749 1140" stroke="currentColor" stroke-width="22" />
                     <path d="M12077 1140 L12399 1140" stroke="currentColor" stroke-width="22" />
                     <path d="M12709 1140 L13031 1140" stroke="currentColor" stroke-width="22" />
                  </g>
                  <g id="l1sqgsul" class="layer">
                     <g id="bjwwkjn" class="beam">
                        <polygon points="9489,150 10455,150 10455,240 9489,240" />
                        <polygon points="9489,285 9814,285 9814,375 9489,375" />
                        <polygon points="9814,285 10130,285 10130,375 9814,375" />
                        <polygon points="10130,285 10455,285 10455,375 10130,375" />
                        <g id="n1w2vfrn" class="note">
                           <g class="notehead">
                              <use xlink:href="#E0A4-1ccvmbx" x="9281" y="780" height="720px" width="720px" />
                           </g>
                           <g id="slwp7zq" class="stem">
                              <path d="M9498 752 L9498 168" stroke="currentColor" stroke-width="18" />
                           </g>
                        </g>
                        <g id="nk6xyvl" class="note">
                           <g class="notehead">
                              <use xlink:href="#E0A4-1ccvmbx" x="9597" y="780" height="720px" width="720px" />
                           </g>
                           <g id="st9ronl" class="stem">
                              <path d="M9814 752 L9814 168" stroke="currentColor" stroke-width="18" />
                           </g>
                        </g>
                        <g id="nhghzyb" class="note">
                           <g class="notehead">
                              <use xlink:href="#E0A4-1ccvmbx" x="9913" y="1140" height="720px" width="720px" />
                           </g>
                           <g id="s1awc8ol" class="stem">
                              <path d="M10130 1112 L10130 168" stroke="currentColor" stroke-width="18" />
                           </g>
                        </g>
                        <g id="ngx8bjh" class="note">
                           <g class="notehead">
                              <use xlink:href="#E0A4-1ccvmbx" x="10229" y="1140" height="720px" width="720px" />
                           </g>
                           <g id="s1ufntge" class="stem">
                              <path d="M10446 1112 L10446 168" stroke="currentColor" stroke-width="18" />
                           </g>
                        </g>
                     </g>
                     <g id="bzub3xf" class="beam">
                        <polygon points="10753,150 11719,150 11719,240 10753,240" />
                        <polygon points="10753,285 11078,285 11078,375 10753,375" />
                        <polygon points="11078,285 11394,285 11394,375 11078,375" />
                        <polygon points="11394,285 11719,285 11719,375 11394,375" />
                        <g id="n82fpt" class="note">
                           <g class="notehead">
                              <use xlink:href="#E0A4-1ccvmbx" x="10545" y="780" height="720px" width="720px" />
                           </g>
                           <g id="sg6e4o" class="stem">
                              <path d="M10762 752 L10762 168" stroke="currentColor" stroke-width="18" />
                           </g>
                        </g>
                        <g id="n3elz0m" class="note">
                           <g class="notehead">
                              <use xlink:href="#E0A4-1ccvmbx" x="10861" y="780" height="720px" width="720px" />
                           </g>
                           <g id="sxq6cll" class="stem">
                              <path d="M11078 752 L11078 168" stroke="currentColor" stroke-width="18" />
                           </g>
                        </g>
                        <g id="n1bb0tuc" class="note">
                           <g class="notehead">
                              <use xlink:href="#E0A4-1ccvmbx" x="11177" y="1140" height="720px" width="720px" />
                           </g>
                           <g id="s1xjwapg" class="stem">
                              <path d="M11394 1112 L11394 168" stroke="currentColor" stroke-width="18" />
                           </g>
                        </g>
                        <g id="n6sh6uc" class="note">
                           <g class="notehead">
                              <use xlink:href="#E0A4-1ccvmbx" x="11493" y="1140" height="720px" width="720px" />
                           </g>
                           <g id="s16fzqxk" class="stem">
                              <path d="M11710 1112 L11710 168" stroke="currentColor" stroke-width="18" />
                           </g>
                        </g>
                     </g>
                     <g id="bzv1mc9" class="beam">
                        <polygon points="12017,195 12983,195 12983,285 12017,285" />
                        <polygon points="12017,330 12342,330 12342,420 12017,420" />
                        <polygon points="12342,330 12658,330 12658,420 12342,420" />
                        <polygon points="12658,330 12983,330 12983,420 12658,420" />
                        <g id="ngj8qwy" class="note">
                           <g class="notehead">
                              <use xlink:href="#E0A4-1ccvmbx" x="11809" y="780" height="720px" width="720px" />
                           </g>
                           <g id="slubfbi" class="stem">
                              <path d="M12026 752 L12026 213" stroke="currentColor" stroke-width="18" />
                           </g>
                        </g>
                        <g id="nfggj11" class="note">
                           <g class="notehead">
                              <use xlink:href="#E0A4-1ccvmbx" x="12125" y="1140" height="720px" width="720px" />
                           </g>
                           <g id="s1n4j8tk" class="stem">
                              <path d="M12342 1112 L12342 213" stroke="currentColor" stroke-width="18" />
                           </g>
                        </g>
                        <g id="n1waypqj" class="note">
                           <g class="notehead">
                              <use xlink:href="#E0A4-1ccvmbx" x="12441" y="780" height="720px" width="720px" />
                           </g>
                           <g id="s1qijfro" class="stem">
                              <path d="M12658 752 L12658 213" stroke="currentColor" stroke-width="18" />
                           </g>
                        </g>
                        <g id="nfx25hn" class="note">
                           <g class="notehead">
                              <use xlink:href="#E0A4-1ccvmbx" x="12757" y="1140" height="720px" width="720px" />
                           </g>
                           <g id="spk0tft" class="stem">
                              <path d="M12974 1112 L12974 213" stroke="currentColor" stroke-width="18" />
                           </g>
                        </g>
                     </g>
                  </g>
               </g>
               <g id="b36inxr" class="barLine">
                  <path d="M13087 240 L13087 960" stroke="currentColor" stroke-width="27" />
               </g>
            </g>
            <g id="s1wb3e2s" class="systemMilestoneEnd sdvl5ld" />
         </g>
         <g id="p1c77hfv" class="pageMilestoneEnd scz237t" />
         <g id="p1p91bt0" class="pageMilestoneEnd m1dict13" />
      </g>
   </svg>
</svg>
