<svg width="1800px" height="800px" version="1.1" xmlns="http://www.w3.org/2000/svg" xmlns:xlink="http://www.w3.org/1999/xlink" xmlns:mei="http://www.music-encoding.org/ns/mei" overflow="visible">
   <desc>Engraved by Verovio 3.13.1-010bd42</desc>
   <defs>
      <symbol id="E003-2jrbz3" viewBox="0 0 1000 1000" overflow="inherit">
         <path transform="scale(1,-1)" d="M0 -0v111c0 0 62 1 63 1c70 0 233 16 321 170c1 1 15 -5 15 -6c-5 -7 -57 -176 -263 -271c-24 -4 -53 -5 -83 -5h-53z" />
      </symbol>
      <symbol id="E004-2jrbz3" viewBox="0 0 1000 1000" overflow="inherit">
         <path transform="scale(1,-1)" d="M0 0h53c30 0 59 -1 83 -5c206 -95 258 -264 263 -271c0 -1 -14 -7 -15 -6c-88 154 -251 170 -321 170c-1 0 -63 1 -63 1v111z" />
      </symbol>
      <symbol id="E050-2jrbz3" viewBox="0 0 1000 1000" overflow="inherit">
         <path transform="scale(1,-1)" d="M441 -245c-23 -4 -48 -6 -76 -6c-59 0 -102 7 -130 20c-88 42 -150 93 -187 154c-26 44 -43 103 -48 176c0 6 -1 13 -1 19c0 54 15 111 45 170c29 57 65 106 110 148s96 85 153 127c-3 16 -8 46 -13 92c-4 43 -5 73 -5 89c0 117 16 172 69 257c34 54 64 82 89 82 c21 0 43 -30 69 -92s39 -115 41 -159v-15c0 -109 -21 -162 -67 -241c-13 -20 -63 -90 -98 -118c-13 -9 -25 -19 -37 -29l31 -181c8 1 18 2 28 2c58 0 102 -12 133 -35c59 -43 92 -104 98 -184c1 -7 1 -15 1 -22c0 -123 -87 -209 -181 -248c8 -57 17 -110 25 -162 c5 -31 6 -58 6 -80c0 -30 -5 -53 -14 -70c-35 -64 -88 -99 -158 -103c-5 0 -11 -1 -16 -1c-37 0 -72 10 -108 27c-50 24 -77 59 -80 105v11c0 29 7 55 20 76c18 28 45 42 79 44h6c49 0 93 -42 97 -87v-9c0 -51 -34 -86 -105 -106c17 -24 51 -36 102 -36c62 0 116 43 140 85 c9 16 13 41 13 74c0 20 -1 42 -5 67c-8 53 -18 106 -26 159zM461 939c-95 0 -135 -175 -135 -286c0 -24 2 -48 5 -71c50 39 92 82 127 128c40 53 60 100 60 140v8c-4 53 -22 81 -55 81h-2zM406 119l54 -326c73 25 110 78 110 161c0 7 0 15 -1 23c-7 95 -57 142 -151 142h-12 zM382 117c-72 -2 -128 -47 -128 -120v-7c2 -46 43 -99 75 -115c-3 -2 -7 -5 -10 -10c-70 33 -116 88 -123 172v11c0 68 44 126 88 159c23 17 49 29 78 36l-29 170c-21 -13 -52 -37 -92 -73c-50 -44 -86 -84 -109 -119c-45 -69 -67 -130 -67 -182v-13c5 -68 35 -127 93 -176 s125 -73 203 -73c25 0 50 3 75 9c-19 111 -36 221 -54 331z" />
      </symbol>
      <symbol id="E052-2jrbz3" viewBox="0 0 1000 1000" overflow="inherit">
         <path transform="scale(1,-1)" d="M382 117c-72 -2 -128 -47 -128 -120v-7c2 -46 43 -99 75 -115c-3 -2 -7 -5 -10 -10c-70 33 -116 88 -123 172v11c0 68 44 126 88 159c23 17 49 29 78 36l-29 170c-21 -13 -52 -37 -92 -73c-50 -44 -86 -84 -109 -119c-45 -69 -67 -130 -67 -182v-13 c5 -68 35 -127 93 -176s125 -73 203 -73c25 0 50 3 75 9c-19 111 -36 221 -54 331zM406 119l54 -326c73 25 110 78 110 161c0 7 0 15 -1 23c-7 95 -57 142 -151 142h-12zM461 939c-95 0 -135 -175 -135 -286c0 -24 2 -48 5 -71c50 39 92 82 127 128c40 53 60 100 60 140v8 c-4 53 -22 81 -55 81h-2zM441 -245c-23 -4 -48 -6 -76 -6c-59 0 -102 7 -130 20c-88 42 -150 93 -187 154c-26 44 -43 103 -48 176c0 6 -1 13 -1 19c0 54 15 111 45 170c29 57 65 106 110 148s96 85 153 127c-3 16 -8 46 -13 92c-4 43 -5 73 -5 89c0 117 16 172 69 257 c34 54 64 82 89 82c21 0 43 -30 69 -92s39 -115 41 -159v-15c0 -109 -21 -162 -67 -241c-13 -20 -63 -90 -98 -118c-13 -9 -25 -19 -37 -29l31 -181c8 1 18 2 28 2c58 0 102 -12 133 -35c59 -43 92 -104 98 -184c1 -7 1 -15 1 -22c0 -123 -87 -209 -181 -248 c8 -57 17 -110 25 -162c5 -31 6 -58 6 -80c0 -30 -5 -53 -14 -70c-25 -46 -59 -77 -102 -92c21 -1 85 -13 85 -60c0 -35 -22 -43 -31 -50c-6 -5 -8 -10 -8 -16s0 -11 4 -16c6 -11 9 -22 9 -34c0 -27 -18 -53 -46 -65c-11 -4 -27 -6 -41 -6c-34 0 -82 21 -90 58 c-1 5 -2 8 -2 12c0 28 25 57 51 66c4 1 6 2 6 5c0 2 -1 3 -2 3c-11 13 -16 27 -16 41c0 21 11 40 30 51h-5c-5 0 -11 -1 -16 -1c-37 0 -72 10 -108 27c-50 24 -77 59 -80 105v11c0 29 7 55 20 76c18 28 45 42 79 44h6c49 0 93 -42 97 -87v-9c0 -51 -34 -86 -105 -106 c17 -24 51 -36 102 -36c62 0 116 43 140 85c9 16 13 41 13 74c0 20 -1 42 -5 67c-8 53 -18 106 -26 159zM315 -781c-3 -2 -6 -5 -7 -8c-6 -8 -10 -19 -10 -30c0 -2 0 -4 1 -7c7 -32 34 -52 53 -52c20 0 37 20 37 36c0 5 -2 9 -4 14c-5 13 -14 24 -25 34c-6 5 -11 10 -17 14 c-4 2 -9 6 -14 6c-6 0 -11 -3 -14 -7zM349 -685c0 -14 10 -25 18 -34c8 -8 16 -18 26 -25c5 -2 10 -4 13 -4c17 0 22 30 23 48c0 9 -3 20 -9 26c-8 9 -23 14 -40 14c-15 -1 -29 -8 -31 -25z" />
      </symbol>
      <symbol id="E062-2jrbz3" viewBox="0 0 1000 1000" overflow="inherit">
         <path transform="scale(1,-1)" d="M582 -120c0 32 26 58 58 58s58 -26 58 -58s-26 -58 -58 -58s-58 26 -58 58zM582 120c0 32 26 58 58 58s58 -26 58 -58s-26 -58 -58 -58s-58 26 -58 58zM158 96c51 0 73 -14 88 -49l16 -39c0 -17 -2 -30 -7 -40c-3 -11 -10 -21 -19 -31c-17 -18 -49 -43 -84 -43 c-55 0 -77 13 -112 44c-24 21 -35 55 -35 100c0 46 14 81 32 112c30 52 71 79 137 93l36 6l26 2c154 0 235 -68 274 -182c11 -32 18 -68 18 -107c0 -103 -26 -182 -68 -250c-89 -145 -234 -230 -412 -288l-30 -5c-9 0 -14 3 -14 8c3 10 5 11 10 16c35 15 70 30 96 44l78 43 c96 57 162 136 197 258c9 33 17 60 22 100c3 22 5 35 6 39c-7 69 -16 115 -23 140s-4 22 -16 40c-8 12 -19 23 -31 34c-24 21 -62 44 -118 44c-48 0 -84 -8 -113 -28c-28 -19 -42 -44 -42 -73v-16c2 -5 3 -9 4 -11c24 22 52 39 84 39z" />
      </symbol>
      <symbol id="E08A-2jrbz3" viewBox="0 0 1000 1000" overflow="inherit">
         <path transform="scale(1,-1)" d="M340 179c-9 24 -56 41 -89 41c-46 0 -81 -28 -100 -58c-17 -28 -25 -78 -25 -150c0 -65 2 -111 8 -135c8 -31 18 -49 40 -67c20 -17 43 -25 70 -25c54 0 92 36 115 75c14 25 23 54 28 88h27c0 -63 -24 -105 -58 -141c-35 -38 -82 -56 -140 -56c-45 0 -83 13 -115 39 c-57 45 -101 130 -101 226c0 59 33 127 68 163c36 37 97 72 160 72c36 0 93 -21 121 -40c11 -8 23 -17 33 -30c19 -23 27 -48 27 -76c0 -51 -35 -88 -86 -88c-43 0 -76 27 -76 68c0 26 7 35 21 51c15 17 32 27 58 32c7 2 14 7 14 11z" />
      </symbol>
      <symbol id="E4E3-2jrbz3" viewBox="0 0 1000 1000" overflow="inherit">
         <path transform="scale(1,-1)" d="M0 -115v105c0 9 1 10 10 10h280c9 0 10 -1 10 -10v-105c0 -9 -1 -10 -10 -10h-280c-9 0 -10 1 -10 10z" />
      </symbol>
   </defs>
   <style type="text/css">g.page-margin{font-family:Times;} g.ending, g.fing, g.reh, g.tempo{font-weight:bold;} g.dir, g.dynam, g.mNum{font-style:italic;} g.label{font-weight:normal;}</style>
   <svg class="definition-scale" color="black" viewBox="0 0 18000 8000">
      <g class="page-margin" transform="translate(500, 500)">
         <g id="mtmdeed" class="mdiv pageMilestone" />
         <g id="s1ytwwdn" class="score pageMilestone" />
         <g id="s1qqixfo" class="system">
            <path d="M1726 540 L1726 6660" stroke="currentColor" stroke-width="27" />
            <g id="gf16ci6" class="grpSym">
               <use xlink:href="#E003-2jrbz3" x="1533" y="489" height="720px" width="720px" />
               <use xlink:href="#E004-2jrbz3" x="1533" y="6711" height="720px" width="720px" />
               <rect x="1533" y="483" height="6234" width="90" />
            </g>
            <g id="lsvil6y" class="label">
               <text x="1353" y="990" text-anchor="end" font-size="0px">
                  <tspan id="tpk2l13" class="text">
                     <tspan font-size="405px" class="text">Soprano</tspan>
                  </tspan>
               </text>
            </g>
            <g id="l13101p" class="label">
               <text x="1353" y="2790" text-anchor="end" font-size="0px">
                  <tspan id="t1esjeyo" class="text">
                     <tspan font-size="405px" class="text">Alto</tspan>
                  </tspan>
               </text>
            </g>
            <g id="ld84ca7" class="label">
               <text x="1353" y="4590" text-anchor="end" font-size="0px">
                  <tspan id="t6qsb05" class="text">
                     <tspan font-size="405px" class="text">Tenor</tspan>
                  </tspan>
               </text>
            </g>
            <g id="l1o432wt" class="label">
               <text x="1353" y="6390" text-anchor="end" font-size="0px">
                  <tspan id="t1xxio6" class="text">
                     <tspan font-size="405px" class="text">Bass</tspan>
                  </tspan>
               </text>
            </g>
            <g id="s1rjlykc" class="section systemMilestone" />
            <g id="m1mw7zrl" class="measure">
               <g id="s6zhf6m" class="staff">
                  <path d="M1713 540 L4914 540" stroke="currentColor" stroke-width="13" />
                  <path d="M1713 720 L4914 720" stroke="currentColor" stroke-width="13" />
                  <path d="M1713 900 L4914 900" stroke="currentColor" stroke-width="13" />
                  <path d="M1713 1080 L4914 1080" stroke="currentColor" stroke-width="13" />
                  <path d="M1713 1260 L4914 1260" stroke="currentColor" stroke-width="13" />
                  <g id="cz6fjgx" class="clef">
                     <use xlink:href="#E050-2jrbz3" x="1830" y="1080" height="720px" width="720px" />
                  </g>
                  <g id="k95bj0i" class="keySig" />
                  <g id="m1ra4rah" class="meterSig">
                     <use xlink:href="#E08A-2jrbz3" x="2511" y="900" height="720px" width="720px" />
                  </g>
                  <g id="l164j9s7" class="layer">
                     <g id="mtwti83" class="mRest">
                        <use xlink:href="#E4E3-2jrbz3" x="3785" y="720" height="720px" width="720px" />
                     </g>
                  </g>
               </g>
               <g id="s1bphtqe" class="staff">
                  <path d="M1713 2340 L4914 2340" stroke="currentColor" stroke-width="13" />
                  <path d="M1713 2520 L4914 2520" stroke="currentColor" stroke-width="13" />
                  <path d="M1713 2700 L4914 2700" stroke="currentColor" stroke-width="13" />
                  <path d="M1713 2880 L4914 2880" stroke="currentColor" stroke-width="13" />
                  <path d="M1713 3060 L4914 3060" stroke="currentColor" stroke-width="13" />
                  <g id="c18c5vvu" class="clef">
                     <use xlink:href="#E050-2jrbz3" x="1830" y="2880" height="720px" width="720px" />
                  </g>
                  <g id="kjm9rf6" class="keySig" />
                  <g id="m183c355" class="meterSig">
                     <use xlink:href="#E08A-2jrbz3" x="2511" y="2700" height="720px" width="720px" />
                  </g>
                  <g id="l1w1fj4l" class="layer">
                     <g id="mt8zkfl" class="mRest">
                        <use xlink:href="#E4E3-2jrbz3" x="3785" y="2520" height="720px" width="720px" />
                     </g>
                  </g>
               </g>
               <g id="s11vd3cp" class="staff">
                  <path d="M1713 4140 L4914 4140" stroke="currentColor" stroke-width="13" />
                  <path d="M1713 4320 L4914 4320" stroke="currentColor" stroke-width="13" />
                  <path d="M1713 4500 L4914 4500" stroke="currentColor" stroke-width="13" />
                  <path d="M1713 4680 L4914 4680" stroke="currentColor" stroke-width="13" />
                  <path d="M1713 4860 L4914 4860" stroke="currentColor" stroke-width="13" />
                  <g id="c12zkir" class="clef">
                     <use xlink:href="#E052-2jrbz3" x="1830" y="4680" height="720px" width="720px" />
                  </g>
                  <g id="k109pj5r" class="keySig" />
                  <g id="m4lxlyi" class="meterSig">
                     <use xlink:href="#E08A-2jrbz3" x="2511" y="4500" height="720px" width="720px" />
                  </g>
                  <g id="le15r7n" class="layer">
                     <g id="m1d57h6s" class="mRest">
                        <use xlink:href="#E4E3-2jrbz3" x="3785" y="4320" height="720px" width="720px" />
                     </g>
                  </g>
               </g>
               <g id="skkm5ug" class="staff">
                  <path d="M1713 5940 L4914 5940" stroke="currentColor" stroke-width="13" />
                  <path d="M1713 6120 L4914 6120" stroke="currentColor" stroke-width="13" />
                  <path d="M1713 6300 L4914 6300" stroke="currentColor" stroke-width="13" />
                  <path d="M1713 6480 L4914 6480" stroke="currentColor" stroke-width="13" />
                  <path d="M1713 6660 L4914 6660" stroke="currentColor" stroke-width="13" />
                  <g id="cew5gc7" class="clef">
                     <use xlink:href="#E062-2jrbz3" x="1830" y="6120" height="720px" width="720px" />
                  </g>
                  <g id="k1rwguuz" class="keySig" />
                  <g id="mlfira8" class="meterSig">
                     <use xlink:href="#E08A-2jrbz3" x="2511" y="6300" height="720px" width="720px" />
                  </g>
                  <g id="lmet4hd" class="layer">
                     <g id="ma3f0ob" class="mRest">
                        <use xlink:href="#E4E3-2jrbz3" x="3785" y="6120" height="720px" width="720px" />
                     </g>
                  </g>
               </g>
               <g id="b1bmm5zc" class="barLine">
                  <path d="M4901 540 L4901 1260" stroke="currentColor" stroke-width="27" />
                  <path d="M4901 2340 L4901 3060" stroke="currentColor" stroke-width="27" />
                  <path d="M4901 4140 L4901 4860" stroke="currentColor" stroke-width="27" />
                  <path d="M4901 5940 L4901 6660" stroke="currentColor" stroke-width="27" />
               </g>
            </g>
            <g id="m1crgkek" class="measure">
               <g id="s1axbio0" class="staff">
                  <path d="M4914 540 L6929 540" stroke="currentColor" stroke-width="13" />
                  <path d="M4914 720 L6929 720" stroke="currentColor" stroke-width="13" />
                  <path d="M4914 900 L6929 900" stroke="currentColor" stroke-width="13" />
                  <path d="M4914 1080 L6929 1080" stroke="currentColor" stroke-width="13" />
                  <path d="M4914 1260 L6929 1260" stroke="currentColor" stroke-width="13" />
                  <g id="l1h556f8" class="layer">
                     <g id="ml7aas9" class="mRest">
                        <use xlink:href="#E4E3-2jrbz3" x="5800" y="720" height="720px" width="720px" />
                     </g>
                  </g>
               </g>
               <g id="sjx4kfj" class="staff">
                  <path d="M4914 2340 L6929 2340" stroke="currentColor" stroke-width="13" />
                  <path d="M4914 2520 L6929 2520" stroke="currentColor" stroke-width="13" />
                  <path d="M4914 2700 L6929 2700" stroke="currentColor" stroke-width="13" />
                  <path d="M4914 2880 L6929 2880" stroke="currentColor" stroke-width="13" />
                  <path d="M4914 3060 L6929 3060" stroke="currentColor" stroke-width="13" />
                  <g id="lvotdr6" class="layer">
                     <g id="m1k29xw7" class="mRest">
                        <use xlink:href="#E4E3-2jrbz3" x="5800" y="2520" height="720px" width="720px" />
                     </g>
                  </g>
               </g>
               <g id="sfrzwqv" class="staff">
                  <path d="M4914 4140 L6929 4140" stroke="currentColor" stroke-width="13" />
                  <path d="M4914 4320 L6929 4320" stroke="currentColor" stroke-width="13" />
                  <path d="M4914 4500 L6929 4500" stroke="currentColor" stroke-width="13" />
                  <path d="M4914 4680 L6929 4680" stroke="currentColor" stroke-width="13" />
                  <path d="M4914 4860 L6929 4860" stroke="currentColor" stroke-width="13" />
                  <g id="l7bykuy" class="layer">
                     <g id="m57lm6x" class="mRest">
                        <use xlink:href="#E4E3-2jrbz3" x="5800" y="4320" height="720px" width="720px" />
                     </g>
                  </g>
               </g>
               <g id="svtbb6w" class="staff">
                  <path d="M4914 5940 L6929 5940" stroke="currentColor" stroke-width="13" />
                  <path d="M4914 6120 L6929 6120" stroke="currentColor" stroke-width="13" />
                  <path d="M4914 6300 L6929 6300" stroke="currentColor" stroke-width="13" />
                  <path d="M4914 6480 L6929 6480" stroke="currentColor" stroke-width="13" />
                  <path d="M4914 6660 L6929 6660" stroke="currentColor" stroke-width="13" />
                  <g id="lxbw8wm" class="layer">
                     <g id="m1sjdpu1" class="mRest">
                        <use xlink:href="#E4E3-2jrbz3" x="5800" y="6120" height="720px" width="720px" />
                     </g>
                  </g>
               </g>
               <g id="b1y8mnf3" class="barLine">
                  <path d="M6916 540 L6916 1260" stroke="currentColor" stroke-width="27" />
                  <path d="M6916 2340 L6916 3060" stroke="currentColor" stroke-width="27" />
                  <path d="M6916 4140 L6916 4860" stroke="currentColor" stroke-width="27" />
                  <path d="M6916 5940 L6916 6660" stroke="currentColor" stroke-width="27" />
               </g>
            </g>
            <g id="m6tx8lf" class="measure">
               <g id="s1c7ux5f" class="staff">
                  <path d="M6929 540 L8944 540" stroke="currentColor" stroke-width="13" />
                  <path d="M6929 720 L8944 720" stroke="currentColor" stroke-width="13" />
                  <path d="M6929 900 L8944 900" stroke="currentColor" stroke-width="13" />
                  <path d="M6929 1080 L8944 1080" stroke="currentColor" stroke-width="13" />
                  <path d="M6929 1260 L8944 1260" stroke="currentColor" stroke-width="13" />
                  <g id="l1t4imxy" class="layer">
                     <g id="mf15nd4" class="mRest">
                        <use xlink:href="#E4E3-2jrbz3" x="7815" y="720" height="720px" width="720px" />
                     </g>
                  </g>
               </g>
               <g id="s1so4aao" class="staff">
                  <path d="M6929 2340 L8944 2340" stroke="currentColor" stroke-width="13" />
                  <path d="M6929 2520 L8944 2520" stroke="currentColor" stroke-width="13" />
                  <path d="M6929 2700 L8944 2700" stroke="currentColor" stroke-width="13" />
                  <path d="M6929 2880 L8944 2880" stroke="currentColor" stroke-width="13" />
                  <path d="M6929 3060 L8944 3060" stroke="currentColor" stroke-width="13" />
                  <g id="liv16ea" class="layer">
                     <g id="ml8ebre" class="mRest">
                        <use xlink:href="#E4E3-2jrbz3" x="7815" y="2520" height="720px" width="720px" />
                     </g>
                  </g>
               </g>
               <g id="syx0aaf" class="staff">
                  <path d="M6929 4140 L8944 4140" stroke="currentColor" stroke-width="13" />
                  <path d="M6929 4320 L8944 4320" stroke="currentColor" stroke-width="13" />
                  <path d="M6929 4500 L8944 4500" stroke="currentColor" stroke-width="13" />
                  <path d="M6929 4680 L8944 4680" stroke="currentColor" stroke-width="13" />
                  <path d="M6929 4860 L8944 4860" stroke="currentColor" stroke-width="13" />
                  <g id="l15ick27" class="layer">
                     <g id="m3sgcfj" class="mRest">
                        <use xlink:href="#E4E3-2jrbz3" x="7815" y="4320" height="720px" width="720px" />
                     </g>
                  </g>
               </g>
               <g id="s1473mmv" class="staff">
                  <path d="M6929 5940 L8944 5940" stroke="currentColor" stroke-width="13" />
                  <path d="M6929 6120 L8944 6120" stroke="currentColor" stroke-width="13" />
                  <path d="M6929 6300 L8944 6300" stroke="currentColor" stroke-width="13" />
                  <path d="M6929 6480 L8944 6480" stroke="currentColor" stroke-width="13" />
                  <path d="M6929 6660 L8944 6660" stroke="currentColor" stroke-width="13" />
                  <g id="l14s302h" class="layer">
                     <g id="m17lwqmf" class="mRest">
                        <use xlink:href="#E4E3-2jrbz3" x="7815" y="6120" height="720px" width="720px" />
                     </g>
                  </g>
               </g>
               <g id="b5xu055" class="barLine">
                  <path d="M8931 540 L8931 1260" stroke="currentColor" stroke-width="27" />
                  <path d="M8931 2340 L8931 3060" stroke="currentColor" stroke-width="27" />
                  <path d="M8931 4140 L8931 4860" stroke="currentColor" stroke-width="27" />
                  <path d="M8931 5940 L8931 6660" stroke="currentColor" stroke-width="27" />
               </g>
            </g>
            <g id="maf794j" class="measure">
               <g id="s1vh3k1t" class="staff">
                  <path d="M8944 540 L10959 540" stroke="currentColor" stroke-width="13" />
                  <path d="M8944 720 L10959 720" stroke="currentColor" stroke-width="13" />
                  <path d="M8944 900 L10959 900" stroke="currentColor" stroke-width="13" />
                  <path d="M8944 1080 L10959 1080" stroke="currentColor" stroke-width="13" />
                  <path d="M8944 1260 L10959 1260" stroke="currentColor" stroke-width="13" />
                  <g id="l1dbnqlt" class="layer">
                     <g id="mz0t4ct" class="mRest">
                        <use xlink:href="#E4E3-2jrbz3" x="9830" y="720" height="720px" width="720px" />
                     </g>
                  </g>
               </g>
               <g id="stf3pj7" class="staff">
                  <path d="M8944 2340 L10959 2340" stroke="currentColor" stroke-width="13" />
                  <path d="M8944 2520 L10959 2520" stroke="currentColor" stroke-width="13" />
                  <path d="M8944 2700 L10959 2700" stroke="currentColor" stroke-width="13" />
                  <path d="M8944 2880 L10959 2880" stroke="currentColor" stroke-width="13" />
                  <path d="M8944 3060 L10959 3060" stroke="currentColor" stroke-width="13" />
                  <g id="l12edjsw" class="layer">
                     <g id="m3jqins" class="mRest">
                        <use xlink:href="#E4E3-2jrbz3" x="9830" y="2520" height="720px" width="720px" />
                     </g>
                  </g>
               </g>
               <g id="s1idfjel" class="staff">
                  <path d="M8944 4140 L10959 4140" stroke="currentColor" stroke-width="13" />
                  <path d="M8944 4320 L10959 4320" stroke="currentColor" stroke-width="13" />
                  <path d="M8944 4500 L10959 4500" stroke="currentColor" stroke-width="13" />
                  <path d="M8944 4680 L10959 4680" stroke="currentColor" stroke-width="13" />
                  <path d="M8944 4860 L10959 4860" stroke="currentColor" stroke-width="13" />
                  <g id="l122cibx" class="layer">
                     <g id="m37ycjq" class="mRest">
                        <use xlink:href="#E4E3-2jrbz3" x="9830" y="4320" height="720px" width="720px" />
                     </g>
                  </g>
               </g>
               <g id="s1b5ebec" class="staff">
                  <path d="M8944 5940 L10959 5940" stroke="currentColor" stroke-width="13" />
                  <path d="M8944 6120 L10959 6120" stroke="currentColor" stroke-width="13" />
                  <path d="M8944 6300 L10959 6300" stroke="currentColor" stroke-width="13" />
                  <path d="M8944 6480 L10959 6480" stroke="currentColor" stroke-width="13" />
                  <path d="M8944 6660 L10959 6660" stroke="currentColor" stroke-width="13" />
                  <g id="l9xwq8l" class="layer">
                     <g id="m10kmnra" class="mRest">
                        <use xlink:href="#E4E3-2jrbz3" x="9830" y="6120" height="720px" width="720px" />
                     </g>
                  </g>
               </g>
               <g id="btesczb" class="barLine">
                  <path d="M10946 540 L10946 1260" stroke="currentColor" stroke-width="27" />
                  <path d="M10946 2340 L10946 3060" stroke="currentColor" stroke-width="27" />
                  <path d="M10946 4140 L10946 4860" stroke="currentColor" stroke-width="27" />
                  <path d="M10946 5940 L10946 6660" stroke="currentColor" stroke-width="27" />
               </g>
            </g>
            <g id="m1ka9jpe" class="measure">
               <g id="s9w58b0" class="staff">
                  <path d="M10959 540 L12974 540" stroke="currentColor" stroke-width="13" />
                  <path d="M10959 720 L12974 720" stroke="currentColor" stroke-width="13" />
                  <path d="M10959 900 L12974 900" stroke="currentColor" stroke-width="13" />
                  <path d="M10959 1080 L12974 1080" stroke="currentColor" stroke-width="13" />
                  <path d="M10959 1260 L12974 1260" stroke="currentColor" stroke-width="13" />
                  <g id="l1rdaiaz" class="layer">
                     <g id="m1lcl990" class="mRest">
                        <use xlink:href="#E4E3-2jrbz3" x="11845" y="720" height="720px" width="720px" />
                     </g>
                  </g>
               </g>
               <g id="sqtixb2" class="staff">
                  <path d="M10959 2340 L12974 2340" stroke="currentColor" stroke-width="13" />
                  <path d="M10959 2520 L12974 2520" stroke="currentColor" stroke-width="13" />
                  <path d="M10959 2700 L12974 2700" stroke="currentColor" stroke-width="13" />
                  <path d="M10959 2880 L12974 2880" stroke="currentColor" stroke-width="13" />
                  <path d="M10959 3060 L12974 3060" stroke="currentColor" stroke-width="13" />
                  <g id="ls8wk6c" class="layer">
                     <g id="m128t947" class="mRest">
                        <use xlink:href="#E4E3-2jrbz3" x="11845" y="2520" height="720px" width="720px" />
                     </g>
                  </g>
               </g>
               <g id="sbqturr" class="staff">
                  <path d="M10959 4140 L12974 4140" stroke="currentColor" stroke-width="13" />
                  <path d="M10959 4320 L12974 4320" stroke="currentColor" stroke-width="13" />
                  <path d="M10959 4500 L12974 4500" stroke="currentColor" stroke-width="13" />
                  <path d="M10959 4680 L12974 4680" stroke="currentColor" stroke-width="13" />
                  <path d="M10959 4860 L12974 4860" stroke="currentColor" stroke-width="13" />
                  <g id="l1ac027h" class="layer">
                     <g id="m1tvqs3o" class="mRest">
                        <use xlink:href="#E4E3-2jrbz3" x="11845" y="4320" height="720px" width="720px" />
                     </g>
                  </g>
               </g>
               <g id="spns9ix" class="staff">
                  <path d="M10959 5940 L12974 5940" stroke="currentColor" stroke-width="13" />
                  <path d="M10959 6120 L12974 6120" stroke="currentColor" stroke-width="13" />
                  <path d="M10959 6300 L12974 6300" stroke="currentColor" stroke-width="13" />
                  <path d="M10959 6480 L12974 6480" stroke="currentColor" stroke-width="13" />
                  <path d="M10959 6660 L12974 6660" stroke="currentColor" stroke-width="13" />
                  <g id="lop9yb4" class="layer">
                     <g id="m14k4sn0" class="mRest">
                        <use xlink:href="#E4E3-2jrbz3" x="11845" y="6120" height="720px" width="720px" />
                     </g>
                  </g>
               </g>
               <g id="bvtjadn" class="barLine">
                  <path d="M12961 540 L12961 1260" stroke="currentColor" stroke-width="27" />
                  <path d="M12961 2340 L12961 3060" stroke="currentColor" stroke-width="27" />
                  <path d="M12961 4140 L12961 4860" stroke="currentColor" stroke-width="27" />
                  <path d="M12961 5940 L12961 6660" stroke="currentColor" stroke-width="27" />
               </g>
            </g>
            <g id="m1hbwssy" class="measure">
               <g id="sp528ig" class="staff">
                  <path d="M12974 540 L14989 540" stroke="currentColor" stroke-width="13" />
                  <path d="M12974 720 L14989 720" stroke="currentColor" stroke-width="13" />
                  <path d="M12974 900 L14989 900" stroke="currentColor" stroke-width="13" />
                  <path d="M12974 1080 L14989 1080" stroke="currentColor" stroke-width="13" />
                  <path d="M12974 1260 L14989 1260" stroke="currentColor" stroke-width="13" />
                  <g id="los67d6" class="layer">
                     <g id="m1i7o82k" class="mRest">
                        <use xlink:href="#E4E3-2jrbz3" x="13860" y="720" height="720px" width="720px" />
                     </g>
                  </g>
               </g>
               <g id="sj68hw4" class="staff">
                  <path d="M12974 2340 L14989 2340" stroke="currentColor" stroke-width="13" />
                  <path d="M12974 2520 L14989 2520" stroke="currentColor" stroke-width="13" />
                  <path d="M12974 2700 L14989 2700" stroke="currentColor" stroke-width="13" />
                  <path d="M12974 2880 L14989 2880" stroke="currentColor" stroke-width="13" />
                  <path d="M12974 3060 L14989 3060" stroke="currentColor" stroke-width="13" />
                  <g id="lpbowio" class="layer">
                     <g id="m1rmvr0s" class="mRest">
                        <use xlink:href="#E4E3-2jrbz3" x="13860" y="2520" height="720px" width="720px" />
                     </g>
                  </g>
               </g>
               <g id="s1hgyq4h" class="staff">
                  <path d="M12974 4140 L14989 4140" stroke="currentColor" stroke-width="13" />
                  <path d="M12974 4320 L14989 4320" stroke="currentColor" stroke-width="13" />
                  <path d="M12974 4500 L14989 4500" stroke="currentColor" stroke-width="13" />
                  <path d="M12974 4680 L14989 4680" stroke="currentColor" stroke-width="13" />
                  <path d="M12974 4860 L14989 4860" stroke="currentColor" stroke-width="13" />
                  <g id="lueodwe" class="layer">
                     <g id="m1qlounw" class="mRest">
                        <use xlink:href="#E4E3-2jrbz3" x="13860" y="4320" height="720px" width="720px" />
                     </g>
                  </g>
               </g>
               <g id="s1wj7d9l" class="staff">
                  <path d="M12974 5940 L14989 5940" stroke="currentColor" stroke-width="13" />
                  <path d="M12974 6120 L14989 6120" stroke="currentColor" stroke-width="13" />
                  <path d="M12974 6300 L14989 6300" stroke="currentColor" stroke-width="13" />
                  <path d="M12974 6480 L14989 6480" stroke="currentColor" stroke-width="13" />
                  <path d="M12974 6660 L14989 6660" stroke="currentColor" stroke-width="13" />
                  <g id="ltu7x4" class="layer">
                     <g id="m1b4ht1u" class="mRest">
                        <use xlink:href="#E4E3-2jrbz3" x="13860" y="6120" height="720px" width="720px" />
                     </g>
                  </g>
               </g>
               <g id="b1hc8sqh" class="barLine">
                  <path d="M14976 540 L14976 1260" stroke="currentColor" stroke-width="27" />
                  <path d="M14976 2340 L14976 3060" stroke="currentColor" stroke-width="27" />
                  <path d="M14976 4140 L14976 4860" stroke="currentColor" stroke-width="27" />
                  <path d="M14976 5940 L14976 6660" stroke="currentColor" stroke-width="27" />
               </g>
            </g>
            <g id="mzdpyer" class="measure">
               <g id="s15309k0" class="staff">
                  <path d="M14989 540 L17004 540" stroke="currentColor" stroke-width="13" />
                  <path d="M14989 720 L17004 720" stroke="currentColor" stroke-width="13" />
                  <path d="M14989 900 L17004 900" stroke="currentColor" stroke-width="13" />
                  <path d="M14989 1080 L17004 1080" stroke="currentColor" stroke-width="13" />
                  <path d="M14989 1260 L17004 1260" stroke="currentColor" stroke-width="13" />
                  <g id="l1uwdskp" class="layer">
                     <g id="mszngpe" class="mRest">
                        <use xlink:href="#E4E3-2jrbz3" x="15875" y="720" height="720px" width="720px" />
                     </g>
                  </g>
               </g>
               <g id="sqz76xi" class="staff">
                  <path d="M14989 2340 L17004 2340" stroke="currentColor" stroke-width="13" />
                  <path d="M14989 2520 L17004 2520" stroke="currentColor" stroke-width="13" />
                  <path d="M14989 2700 L17004 2700" stroke="currentColor" stroke-width="13" />
                  <path d="M14989 2880 L17004 2880" stroke="currentColor" stroke-width="13" />
                  <path d="M14989 3060 L17004 3060" stroke="currentColor" stroke-width="13" />
                  <g id="lgu3rnq" class="layer">
                     <g id="m1i6vete" class="mRest">
                        <use xlink:href="#E4E3-2jrbz3" x="15875" y="2520" height="720px" width="720px" />
                     </g>
                  </g>
               </g>
               <g id="s1s61jyf" class="staff">
                  <path d="M14989 4140 L17004 4140" stroke="currentColor" stroke-width="13" />
                  <path d="M14989 4320 L17004 4320" stroke="currentColor" stroke-width="13" />
                  <path d="M14989 4500 L17004 4500" stroke="currentColor" stroke-width="13" />
                  <path d="M14989 4680 L17004 4680" stroke="currentColor" stroke-width="13" />
                  <path d="M14989 4860 L17004 4860" stroke="currentColor" stroke-width="13" />
                  <g id="l1it1zon" class="layer">
                     <g id="m14qyo4w" class="mRest">
                        <use xlink:href="#E4E3-2jrbz3" x="15875" y="4320" height="720px" width="720px" />
                     </g>
                  </g>
               </g>
               <g id="slem246" class="staff">
                  <path d="M14989 5940 L17004 5940" stroke="currentColor" stroke-width="13" />
                  <path d="M14989 6120 L17004 6120" stroke="currentColor" stroke-width="13" />
                  <path d="M14989 6300 L17004 6300" stroke="currentColor" stroke-width="13" />
                  <path d="M14989 6480 L17004 6480" stroke="currentColor" stroke-width="13" />
                  <path d="M14989 6660 L17004 6660" stroke="currentColor" stroke-width="13" />
                  <g id="l7c8b3" class="layer">
                     <g id="m1ivzbet" class="mRest">
                        <use xlink:href="#E4E3-2jrbz3" x="15875" y="6120" height="720px" width="720px" />
                     </g>
                  </g>
               </g>
               <g id="bp8kgxi" class="barLine">
                  <path d="M16991 540 L16991 1260" stroke="currentColor" stroke-width="27" />
                  <path d="M16991 2340 L16991 3060" stroke="currentColor" stroke-width="27" />
                  <path d="M16991 4140 L16991 4860" stroke="currentColor" stroke-width="27" />
                  <path d="M16991 5940 L16991 6660" stroke="currentColor" stroke-width="27" />
               </g>
            </g>
         </g>
      </g>
   </svg>
</svg>
