<svg width="902px" height="152px" version="1.1" xmlns="http://www.w3.org/2000/svg" xmlns:xlink="http://www.w3.org/1999/xlink" xmlns:mei="http://www.music-encoding.org/ns/mei" overflow="visible">
   <desc>Engraved by Verovio 3.13.1-010bd42</desc>
   <defs>
      <symbol id="E050-1cbx1ok" viewBox="0 0 1000 1000" overflow="inherit">
         <path transform="scale(1,-1)" d="M364 -252c-245 0 -364 165 -364 339c0 202 153 345 297 464c12 10 11 12 9 24c-7 41 -14 106 -14 164c0 104 24 229 98 311c20 22 51 48 65 48c11 0 37 -28 52 -50c41 -60 65 -146 65 -233c0 -153 -82 -280 -190 -381c-6 -6 -8 -7 -6 -19l25 -145c3 -18 3 -18 29 -18 c147 0 241 -113 241 -241c0 -113 -67 -198 -168 -238c-14 -6 -15 -5 -13 -17c11 -62 29 -157 29 -214c0 -170 -130 -200 -197 -200c-151 0 -190 98 -190 163c0 62 40 115 107 115c61 0 96 -47 96 -102c0 -58 -36 -85 -67 -94c-23 -7 -32 -10 -32 -17c0 -13 26 -29 80 -29 c59 0 159 18 159 166c0 47 -15 134 -27 201c-2 12 -4 11 -15 9c-20 -4 -46 -6 -69 -6zM80 20c0 -139 113 -236 288 -236c20 0 40 2 56 5c15 3 16 3 14 14l-50 298c-2 11 -4 12 -20 8c-61 -17 -100 -60 -100 -117c0 -46 30 -89 72 -107c7 -3 15 -6 15 -13 c0 -6 -4 -11 -12 -11c-7 0 -19 3 -27 6c-68 23 -115 87 -115 177c0 85 57 164 145 194c18 6 18 5 15 24l-21 128c-2 11 -4 12 -14 4c-47 -38 -93 -75 -153 -142c-83 -94 -93 -173 -93 -232zM470 943c-61 0 -133 -96 -133 -252c0 -32 2 -66 6 -92c2 -13 6 -14 13 -8 c79 69 174 159 174 270c0 55 -27 82 -60 82zM441 117c-12 1 -13 -2 -11 -14l49 -285c2 -12 4 -12 16 -6c56 28 94 79 94 142c0 88 -67 156 -148 163z" />
      </symbol>
      <symbol id="E0A4-1cbx1ok" viewBox="0 0 1000 1000" overflow="inherit">
         <path transform="scale(1,-1)" d="M0 -42c0 86 88 167 198 167c57 0 97 -32 97 -83c0 -85 -109 -167 -198 -167c-54 0 -97 31 -97 83z" />
      </symbol>
      <symbol id="E5E5-1cbx1ok" viewBox="0 0 1000 1000" overflow="inherit">
         <path transform="scale(1,-1)" d="M0 152h120v120h32v-120h120v-32h-120v-120h-32v120h-120v32z" />
      </symbol>
      <symbol id="E5E7-1cbx1ok" viewBox="0 0 1000 1000" overflow="inherit">
         <path transform="scale(1,-1)" d="M0 152c0 84 68 152 152 152s152 -68 152 -152s-68 -152 -152 -152s-152 68 -152 152zM152 272c-66 0 -120 -54 -120 -120s54 -120 120 -120s120 54 120 120s-54 120 -120 120z" />
      </symbol>
      <symbol id="E610-1cbx1ok" viewBox="0 0 1000 1000" overflow="inherit">
         <path transform="scale(1,-1)" d="M12 0c-6 0 -12 5 -12 12v280c0 14 12 26 26 26h260c14 0 26 -12 26 -26v-280c0 -7 -6 -12 -12 -12h-13c-7 0 -13 5 -13 12v164c0 11 -59 17 -118 17s-118 -6 -118 -17v-164c0 -7 -6 -12 -12 -12h-14z" />
      </symbol>
      <symbol id="E612-1cbx1ok" viewBox="0 0 1000 1000" overflow="inherit">
         <path transform="scale(1,-1)" d="M1 479c0 7 6 14 14 16h4c8 0 15 -5 18 -13l88 -385l89 385c2 8 9 13 17 13h4c9 -2 14 -9 14 -17v-4l-106 -459c-2 -8 -9 -14 -17 -14c-10 0 -17 6 -19 14l-105 459c-1 2 -1 3 -1 5z" />
      </symbol>
      <symbol id="E614-1cbx1ok" viewBox="0 0 1000 1000" overflow="inherit">
         <path transform="scale(1,-1)" d="M100 0c-55 0 -100 45 -100 100c0 56 45 100 100 100s100 -44 100 -100c0 -55 -45 -100 -100 -100zM27 100c0 -40 33 -73 73 -73c41 0 73 33 73 73c0 41 -32 73 -73 73c-40 0 -73 -32 -73 -73z" />
      </symbol>
      <symbol id="E631-1cbx1ok" viewBox="0 0 1000 1000" overflow="inherit">
         <path transform="scale(1,-1)" d="M100 0c-55 0 -100 44 -100 100c0 49 36 91 84 98v102h32v-102c47 -7 84 -49 84 -98c0 -56 -45 -100 -100 -100zM27 100c0 -41 32 -73 73 -73c40 0 73 32 73 73c0 34 -25 64 -57 71v-71h-32v71c-33 -7 -57 -37 -57 -71z" />
      </symbol>
      <symbol id="E633-1cbx1ok" viewBox="0 0 1000 1000" overflow="inherit">
         <path transform="scale(1,-1)" d="M0 152h120v120h32v-120h120v-32h-120v-120h-32v120h-120v32z" />
      </symbol>
      <symbol id="E4A1-1cbx1ok" viewBox="0 0 1000 1000" overflow="inherit">
         <path transform="scale(1,-1)" d="M0 -24c0 3 1 6 2 10c3 8 6 14 15 14c1 0 5 -1 9 -2l300 -102c13 -4 13 -10 13 -18s0 -15 -13 -18l-306 -103c-1 -1 -3 -1 -4 -1c-7 0 -11 8 -14 15c-1 3 -2 6 -2 9c0 5 3 10 14 15c0 0 214 73 225 76c6 2 8 4 8 7s-2 6 -7 7c-10 4 -226 77 -226 77c-11 4 -14 9 -14 14z " />
      </symbol>
      <symbol id="E4A3-1cbx1ok" viewBox="0 0 1000 1000" overflow="inherit">
         <path transform="scale(1,-1)" d="M42 -84c-23 0 -42 19 -42 42s19 42 42 42s42 -19 42 -42s-19 -42 -42 -42z" />
      </symbol>
      <symbol id="E4A5-1cbx1ok" viewBox="0 0 1000 1000" overflow="inherit">
         <path transform="scale(1,-1)" d="M23 -48c-24 0 -24 11 -24 24s0 24 24 24h291c24 0 24 -11 24 -24s-1 -24 -24 -24h-291z" />
      </symbol>
      <symbol id="E4A7-1cbx1ok" viewBox="0 0 1000 1000" overflow="inherit">
         <path transform="scale(1,-1)" d="M1 -273c0 15 26 273 49 273c25 0 50 -249 50 -272c0 -15 -23 -23 -50 -23c-26 0 -48 9 -49 22z" />
      </symbol>
      <symbol id="E4A9-1cbx1ok" viewBox="0 0 1000 1000" overflow="inherit">
         <path transform="scale(1,-1)" d="M1 -287c17 42 35 185 37 284c0 3 6 3 7 3s7 0 7 -3c2 -98 20 -241 37 -284c0 -1 0 -3 -2 -3c-1 0 -22 4 -42 4c-21 0 -41 -4 -42 -4c-2 0 -2 1 -2 3z" />
      </symbol>
      <symbol id="E4AB-1cbx1ok" viewBox="0 0 1000 1000" overflow="inherit">
         <path transform="scale(1,-1)" d="M0 -9c0 5 4 9 9 9h30c5 0 9 -4 9 -9v-272c0 -5 -4 -9 -9 -9h-30c-5 0 -9 4 -9 9v272z" />
      </symbol>
      <symbol id="E4AC-1cbx1ok" viewBox="0 0 1000 1000" overflow="inherit">
         <path transform="scale(1,-1)" d="M-1 11c0 2 0 3 1 5l106 231s3 6 10 6c4 0 7 -2 10 -6l108 -231c1 -1 1 -3 1 -5c0 -6 -4 -10 -11 -11h-68c-4 0 -8 2 -11 6c0 0 -56 119 -57 123c-2 2 -4 3 -6 3s-3 -1 -4 -3c-2 -4 -56 -123 -56 -123c-2 -5 -7 -7 -11 -7c-1 0 -4 0 -5 1c-5 1 -7 6 -7 11z" />
      </symbol>
      <symbol id="ED41-1cbx1ok" viewBox="0 0 1000 1000" overflow="inherit">
         <path transform="scale(1,-1)" d="M369 -25c0 3 1 6 2 10c3 8 6 14 15 14c1 0 5 -1 9 -2l300 -102c13 -4 13 -10 13 -18s0 -15 -13 -18l-306 -103c-1 -1 -3 -1 -4 -1c-7 0 -11 8 -14 15c-1 3 -2 6 -2 9c0 5 3 10 14 15c0 0 214 73 225 76c6 2 8 4 8 7s-2 6 -7 7c-10 4 -226 77 -226 77c-11 4 -14 9 -14 14z M0 -123c0 8 0 14 13 18l300 102c4 1 8 2 9 2c9 0 12 -6 15 -14c1 -4 2 -7 2 -10c0 -5 -3 -10 -14 -14c0 0 -216 -73 -226 -77c-5 -1 -7 -4 -7 -7s2 -5 8 -7c11 -3 225 -76 225 -76c11 -5 14 -10 14 -15c0 -3 -1 -6 -2 -9c-3 -7 -7 -15 -14 -15c-1 0 -3 0 -4 1l-306 103 c-13 3 -13 10 -13 18z" />
      </symbol>
   </defs>
   <style type="text/css">g.page-margin{font-family:Times;} g.ending, g.fing, g.reh, g.tempo{font-weight:bold;} g.dir, g.dynam, g.mNum{font-style:italic;} g.label{font-weight:normal;}</style>
   <svg class="definition-scale" color="black" viewBox="0 0 15030 2520">
      <g class="page-margin" transform="translate(500, 500)">
         <g id="m1qda4tq" class="mdiv pageMilestone" />
         <g id="s1omibc2" class="score pageMilestone" />
         <g id="s1wfll8" class="system">
            <g id="s127g9kq" class="section systemMilestone" />
            <g id="m9iaaov" class="measure">
               <g id="s11usakg" class="staff">
                  <path d="M0 512 L3616 512" stroke="currentColor" stroke-width="13" />
                  <path d="M0 692 L3616 692" stroke="currentColor" stroke-width="13" />
                  <path d="M0 872 L3616 872" stroke="currentColor" stroke-width="13" />
                  <path d="M0 1052 L3616 1052" stroke="currentColor" stroke-width="13" />
                  <path d="M0 1232 L3616 1232" stroke="currentColor" stroke-width="13" />
                  <g id="c149ch9a" class="clef">
                     <use xlink:href="#E050-1cbx1ok" x="90" y="1052" height="720px" width="720px" />
                  </g>
                  <g id="k69bbhv" class="keySig" />
                  <g id="l5mwqng" class="layer">
                     <g id="nge3m1a" class="note">
                        <g class="notehead">
                           <use xlink:href="#E0A4-1cbx1ok" x="843" y="1052" height="720px" width="720px" />
                        </g>
                        <g id="s1nojk28" class="stem">
                           <rect x="1037" y="422" height="600" width="18" />
                        </g>
                        <g id="a1n0as5r" class="artic">
                           <use xlink:href="#E4A1-1cbx1ok" x="827" y="1299" height="720px" width="720px" />
                        </g>
                     </g>
                     <g id="nelke3l" class="note">
                        <g class="notehead">
                           <use xlink:href="#E0A4-1cbx1ok" x="1533" y="1052" height="720px" width="720px" />
                        </g>
                        <g id="sfcwenu" class="stem">
                           <rect x="1727" y="422" height="600" width="18" />
                        </g>
                        <g id="ayi0jax" class="artic">
                           <use xlink:href="#ED41-1cbx1ok" x="1385" y="1299" height="720px" width="720px" />
                        </g>
                     </g>
                     <g id="n1b3zaiw" class="note">
                        <g class="notehead">
                           <use xlink:href="#E0A4-1cbx1ok" x="2223" y="1052" height="720px" width="720px" />
                        </g>
                        <g id="spf3zzi" class="stem">
                           <rect x="2417" y="422" height="600" width="18" />
                        </g>
                        <g id="aizv7h8" class="artic">
                           <use xlink:href="#E4A5-1cbx1ok" x="2207" y="1192" height="720px" width="720px" />
                        </g>
                     </g>
                     <g id="n175s915" class="note">
                        <g class="notehead">
                           <use xlink:href="#E0A4-1cbx1ok" x="2913" y="1052" height="720px" width="720px" />
                        </g>
                        <g id="s1e86g89" class="stem">
                           <rect x="3107" y="422" height="600" width="18" />
                        </g>
                        <g id="aejm7so" class="artic">
                           <use xlink:href="#E4A9-1cbx1ok" x="2988" y="1209" height="720px" width="720px" />
                        </g>
                     </g>
                  </g>
               </g>
               <g id="b14gfkbo" class="barLine">
                  <path d="M3603 512 L3603 1232" stroke="currentColor" stroke-width="27" />
               </g>
            </g>
            <g id="mup8wry" class="measure">
               <g id="srug9hm" class="staff">
                  <path d="M3616 512 L6569 512" stroke="currentColor" stroke-width="13" />
                  <path d="M3616 692 L6569 692" stroke="currentColor" stroke-width="13" />
                  <path d="M3616 872 L6569 872" stroke="currentColor" stroke-width="13" />
                  <path d="M3616 1052 L6569 1052" stroke="currentColor" stroke-width="13" />
                  <path d="M3616 1232 L6569 1232" stroke="currentColor" stroke-width="13" />
                  <g id="l1wxdnlv" class="layer">
                     <g id="nx198fm" class="note">
                        <g class="notehead">
                           <use xlink:href="#E0A4-1cbx1ok" x="3796" y="1052" height="720px" width="720px" />
                        </g>
                        <g id="svmflbw" class="stem">
                           <rect x="3990" y="422" height="600" width="18" />
                        </g>
                        <g id="a29loyx" class="artic">
                           <use xlink:href="#E4AC-1cbx1ok" x="3818" y="355" height="720px" width="720px" />
                        </g>
                     </g>
                     <g id="n1owtukg" class="note">
                        <g class="notehead">
                           <use xlink:href="#E0A4-1cbx1ok" x="4486" y="1052" height="720px" width="720px" />
                        </g>
                        <g id="s1oj7msc" class="stem">
                           <rect x="4680" y="422" height="600" width="18" />
                        </g>
                        <g id="a156avqy" class="artic">
                           <use xlink:href="#E4A3-1cbx1ok" x="4562" y="1179" height="720px" width="720px" />
                        </g>
                     </g>
                     <g id="n1qijt1z" class="note">
                        <g class="notehead">
                           <use xlink:href="#E0A4-1cbx1ok" x="5176" y="1052" height="720px" width="720px" />
                        </g>
                        <g id="s14q175p" class="stem">
                           <rect x="5370" y="422" height="600" width="18" />
                        </g>
                        <g id="adl0rge" class="artic">
                           <use xlink:href="#E4A7-1cbx1ok" x="5247" y="1209" height="720px" width="720px" />
                        </g>
                     </g>
                     <g id="ncdbalz" class="note">
                        <g class="notehead">
                           <use xlink:href="#E0A4-1cbx1ok" x="5866" y="1052" height="720px" width="720px" />
                        </g>
                        <g id="s2w6g85" class="stem">
                           <rect x="6060" y="422" height="600" width="18" />
                        </g>
                        <g id="alyewlw" class="artic">
                           <use xlink:href="#E4A5-1cbx1ok" x="5850" y="1192" height="720px" width="720px" />
                        </g>
                     </g>
                  </g>
               </g>
               <g id="bf41ryp" class="barLine">
                  <path d="M6556 512 L6556 1232" stroke="currentColor" stroke-width="27" />
               </g>
            </g>
            <g id="s1lld83b" class="systemMilestoneEnd s127g9kq" />
            <g id="seky64o" class="section systemMilestone" />
            <g id="m1tmyrta" class="measure">
               <g id="s11mtmog" class="staff">
                  <path d="M6569 512 L10212 512" stroke="currentColor" stroke-width="13" />
                  <path d="M6569 692 L10212 692" stroke="currentColor" stroke-width="13" />
                  <path d="M6569 872 L10212 872" stroke="currentColor" stroke-width="13" />
                  <path d="M6569 1052 L10212 1052" stroke="currentColor" stroke-width="13" />
                  <path d="M6569 1232 L10212 1232" stroke="currentColor" stroke-width="13" />
                  <g id="l1bjt0nt" class="layer">
                     <g id="n1i3nw6g" class="note">
                        <g class="notehead">
                           <use xlink:href="#E0A4-1cbx1ok" x="6749" y="1052" height="720px" width="720px" />
                        </g>
                        <g id="s1g0g5i6" class="stem">
                           <rect x="6943" y="422" height="600" width="18" />
                        </g>
                        <g id="a1yh8jam" class="artic">
                           <use xlink:href="#E610-1cbx1ok" x="6743" y="355" height="720px" width="720px" />
                        </g>
                     </g>
                     <g id="ng6l1m1" class="note">
                        <g class="notehead">
                           <use xlink:href="#E0A4-1cbx1ok" x="7439" y="1052" height="720px" width="720px" />
                        </g>
                        <g id="s1ah9dky" class="stem">
                           <rect x="7633" y="422" height="600" width="18" />
                        </g>
                        <g id="abvxmhx" class="artic">
                           <use xlink:href="#E612-1cbx1ok" x="7456" y="355" height="720px" width="720px" />
                        </g>
                     </g>
                     <g id="nxngoal" class="note">
                        <g class="notehead">
                           <use xlink:href="#E0A4-1cbx1ok" x="8129" y="1052" height="720px" width="720px" />
                        </g>
                        <g id="s1uclqzm" class="stem">
                           <rect x="8323" y="422" height="600" width="18" />
                        </g>
                        <g id="a1vcxsk9" class="artic">
                           <use xlink:href="#E614-1cbx1ok" x="8163" y="355" height="720px" width="720px" />
                        </g>
                     </g>
                     <g id="nyzq8rd" class="note">
                        <g class="notehead">
                           <use xlink:href="#E0A4-1cbx1ok" x="8819" y="1052" height="720px" width="720px" />
                        </g>
                        <g id="s1ul4ics" class="stem">
                           <rect x="9013" y="422" height="600" width="18" />
                        </g>
                        <g id="a1s8g0z0" class="artic">
                           <use xlink:href="#E631-1cbx1ok" x="8853" y="355" height="720px" width="720px" />
                        </g>
                     </g>
                     <g id="n1h2qik8" class="note">
                        <g class="notehead">
                           <use xlink:href="#E0A4-1cbx1ok" x="9509" y="1052" height="720px" width="720px" />
                        </g>
                        <g id="s1g3k5g" class="stem">
                           <rect x="9703" y="422" height="600" width="18" />
                        </g>
                        <g id="a1cmw3al" class="artic">
                           <use xlink:href="#E633-1cbx1ok" x="9518" y="355" height="720px" width="720px" />
                        </g>
                     </g>
                  </g>
               </g>
               <g id="b1ws4hbt" class="barLine">
                  <path d="M10199 512 L10199 1232" stroke="currentColor" stroke-width="27" />
               </g>
            </g>
            <g id="skvjtg" class="systemMilestoneEnd seky64o" />
            <g id="sn2fspf" class="section systemMilestone" />
            <g id="m1tig1xj" class="measure">
               <g id="s11xqajt" class="staff">
                  <path d="M10212 512 L11785 512" stroke="currentColor" stroke-width="13" />
                  <path d="M10212 692 L11785 692" stroke="currentColor" stroke-width="13" />
                  <path d="M10212 872 L11785 872" stroke="currentColor" stroke-width="13" />
                  <path d="M10212 1052 L11785 1052" stroke="currentColor" stroke-width="13" />
                  <path d="M10212 1232 L11785 1232" stroke="currentColor" stroke-width="13" />
                  <g id="lq68od6" class="layer">
                     <g id="nepjvth" class="note">
                        <g class="notehead">
                           <use xlink:href="#E0A4-1cbx1ok" x="10392" y="1052" height="720px" width="720px" />
                        </g>
                        <g id="sjmu5z0" class="stem">
                           <rect x="10586" y="422" height="600" width="18" />
                        </g>
                        <g id="a1hfnm0w" class="artic">
                           <use xlink:href="#E5E7-1cbx1ok" x="10389" y="355" height="720px" width="720px" />
                        </g>
                     </g>
                     <g id="nw94pej" class="note">
                        <g class="notehead">
                           <use xlink:href="#E0A4-1cbx1ok" x="11082" y="1052" height="720px" width="720px" />
                        </g>
                        <g id="s14e8bep" class="stem">
                           <rect x="11276" y="422" height="600" width="18" />
                        </g>
                        <g id="at5ji4x" class="artic">
                           <use xlink:href="#E5E5-1cbx1ok" x="11091" y="355" height="720px" width="720px" />
                        </g>
                     </g>
                  </g>
               </g>
               <g id="b1k05iho" class="barLine">
                  <path d="M11772 512 L11772 1232" stroke="currentColor" stroke-width="27" />
               </g>
            </g>
            <g id="sxc9y4z" class="systemMilestoneEnd sn2fspf" />
            <g id="skbrrr0" class="section systemMilestone" />
            <g id="m16tuz7s" class="measure">
               <g id="sayjkif" class="staff">
                  <path d="M11785 512 L14035 512" stroke="currentColor" stroke-width="13" />
                  <path d="M11785 692 L14035 692" stroke="currentColor" stroke-width="13" />
                  <path d="M11785 872 L14035 872" stroke="currentColor" stroke-width="13" />
                  <path d="M11785 1052 L14035 1052" stroke="currentColor" stroke-width="13" />
                  <path d="M11785 1232 L14035 1232" stroke="currentColor" stroke-width="13" />
                  <g id="lj7lerr" class="layer">
                     <g id="nt51qzd" class="note">
                        <g class="notehead">
                           <use xlink:href="#E0A4-1cbx1ok" x="11965" y="1052" height="720px" width="720px" />
                        </g>
                        <g id="st8v8r8" class="stem">
                           <rect x="12159" y="422" height="600" width="18" />
                        </g>
                        <g id="ac6mx8y" class="artic">
                           <use xlink:href="#E4A3-1cbx1ok" x="12041" y="1209" height="720px" width="720px" />
                        </g>
                     </g>
                     <g id="n13bx3nh" class="note">
                        <g class="notehead">
                           <use xlink:href="#E0A4-1cbx1ok" x="12655" y="1052" height="720px" width="720px" />
                        </g>
                        <g id="scchu3" class="stem">
                           <rect x="12849" y="422" height="600" width="18" />
                        </g>
                        <g id="a1bxaj9n" class="artic">
                           <use xlink:href="#E4AB-1cbx1ok" x="12744" y="1209" height="720px" width="720px" />
                        </g>
                     </g>
                     <g id="n9le4g2" class="note">
                        <g class="notehead">
                           <use xlink:href="#E0A4-1cbx1ok" x="13345" y="1052" height="720px" width="720px" />
                        </g>
                        <g id="s4iqwns" class="stem">
                           <rect x="13539" y="422" height="600" width="18" />
                        </g>
                        <g id="a1tuktpx" class="artic">
                           <use xlink:href="#ED41-1cbx1ok" x="13197" y="1299" height="720px" width="720px" />
                        </g>
                     </g>
                  </g>
               </g>
               <g id="b14an4ec" class="barLine" />
            </g>
            <g id="s1jl7ivf" class="systemMilestoneEnd skbrrr0" />
         </g>
         <g id="p1ln68m2" class="pageMilestoneEnd s1omibc2" />
         <g id="p1sb00vz" class="pageMilestoneEnd m1qda4tq" />
      </g>
   </svg>
</svg>
