<svg width="355px" height="272px" version="1.1" xmlns="http://www.w3.org/2000/svg" xmlns:xlink="http://www.w3.org/1999/xlink" xmlns:mei="http://www.music-encoding.org/ns/mei" overflow="visible">
   <desc>Engraved by Verovio 4.4.0-66ab39c</desc>
   <defs>
      <symbol id="E52B-1topo03" viewBox="0 0 1000 1000" overflow="inherit">
         <path transform="scale(1,-1)" d="M497 201c-12 -21 -22 -45 -29 -72c-7 -30 -10 -51 -10 -62c0 -24 7 -36 22 -36c13 0 23 2 31 7s15 11 21 20c10 17 15 26 16 28c5 11 8 26 10 44s3 31 4 39c0 7 -1 13 -2 18s-3 9 -6 14c-5 9 -15 14 -28 14c-14 0 -24 -5 -29 -14zM197 201c-12 -21 -22 -45 -29 -72 c-7 -30 -10 -51 -10 -62c0 -24 7 -36 22 -36c13 0 23 2 31 7s15 11 21 20c10 17 15 26 16 28c5 11 8 26 10 44s3 31 4 39c0 7 -1 13 -2 18s-3 9 -6 14c-5 9 -15 14 -28 14c-14 0 -24 -5 -29 -14zM23 124h-23c22 43 43 76 62 101s45 37 76 38c6 0 12 -4 18 -13 c7 -7 10 -16 10 -27l24 14l25 13c12 5 24 7 37 7c24 0 43 -9 58 -28c10 -13 18 -30 21 -50c11 18 21 33 31 46c19 25 45 37 76 38c6 0 12 -4 18 -13c7 -7 10 -16 10 -27l24 14l25 13c12 5 24 7 37 7c24 0 43 -9 58 -28s22 -44 23 -77c0 -14 -1 -27 -3 -38s-5 -21 -10 -29 s-11 -17 -19 -27c-14 -18 -30 -32 -47 -42s-35 -15 -54 -15c-9 0 -20 3 -33 10c-5 3 -10 7 -15 10s-9 8 -13 14l-56 -158l-3 -4c3 -7 7 -10 12 -11h32v-29h-173v29h21c4 0 9 2 14 5c4 4 7 9 9 14l119 331v6l-3 10l-6 3c-9 0 -17 -4 -25 -12s-16 -18 -23 -31l-11 -17l-10 -20 l-3 -6c0 -11 -1 -22 -3 -31c-2 -11 -5 -21 -10 -29s-11 -17 -19 -27c-14 -18 -30 -32 -47 -42s-35 -15 -54 -15c-9 0 -20 3 -33 10c-5 3 -10 7 -15 10s-9 8 -13 14l-56 -158l-3 -4c3 -7 7 -10 12 -11h32v-29h-173v29h21c4 0 9 2 14 5c4 4 7 9 9 14l119 331v6l-3 10l-6 3 c-9 0 -17 -4 -25 -12s-16 -18 -23 -31l-11 -17l-10 -20z" />
      </symbol>
      <symbol id="E4A2-1topo03" viewBox="0 0 1000 1000" overflow="inherit">
         <path transform="scale(1,-1)" d="M0 48c0 26 22 48 48 48s48 -22 48 -48s-22 -48 -48 -48s-48 22 -48 48z" />
      </symbol>
      <symbol id="E4E4-1topo03" viewBox="0 0 1000 1000" overflow="inherit">
         <path transform="scale(1,-1)" d="M0 10v105c0 9 1 10 10 10h280c9 0 10 -1 10 -10v-105c0 -9 -1 -10 -10 -10h-280c-9 0 -10 1 -10 10z" />
      </symbol>
      <symbol id="E084-1topo03" viewBox="0 0 1000 1000" overflow="inherit">
         <path transform="scale(1,-1)" d="M20 -78c84 97 114 180 134 329h170c-13 -32 -82 -132 -99 -151l-84 -97c-33 -36 -59 -63 -80 -81h162v102l127 123v-225h57v-39h-57v-34c0 -43 19 -65 57 -65v-34h-244v36c48 0 60 26 60 70v27h-203v39z" />
      </symbol>
      <symbol id="E0A4-1topo03" viewBox="0 0 1000 1000" overflow="inherit">
         <path transform="scale(1,-1)" d="M0 -39c0 68 73 172 200 172c66 0 114 -37 114 -95c0 -84 -106 -171 -218 -171c-64 0 -96 30 -96 94z" />
      </symbol>
      <symbol id="E050-1topo03" viewBox="0 0 1000 1000" overflow="inherit">
         <path transform="scale(1,-1)" d="M441 -245c-23 -4 -48 -6 -76 -6c-59 0 -102 7 -130 20c-88 42 -150 93 -187 154c-26 44 -43 103 -48 176c0 6 -1 13 -1 19c0 54 15 111 45 170c29 57 65 106 110 148s96 85 153 127c-3 16 -8 46 -13 92c-4 43 -5 73 -5 89c0 117 16 172 69 257c34 54 64 82 89 82 c21 0 43 -30 69 -92s39 -115 41 -159v-15c0 -109 -21 -162 -67 -241c-13 -20 -63 -90 -98 -118c-13 -9 -25 -19 -37 -29l31 -181c8 1 18 2 28 2c58 0 102 -12 133 -35c59 -43 92 -104 98 -184c1 -7 1 -15 1 -22c0 -123 -87 -209 -181 -248c8 -57 17 -110 25 -162 c5 -31 6 -58 6 -80c0 -30 -5 -53 -14 -70c-35 -64 -88 -99 -158 -103c-5 0 -11 -1 -16 -1c-37 0 -72 10 -108 27c-50 24 -77 59 -80 105v11c0 29 7 55 20 76c18 28 45 42 79 44h6c49 0 93 -42 97 -87v-9c0 -51 -34 -86 -105 -106c17 -24 51 -36 102 -36c62 0 116 43 140 85 c9 16 13 41 13 74c0 20 -1 42 -5 67c-8 53 -18 106 -26 159zM461 939c-95 0 -135 -175 -135 -286c0 -24 2 -48 5 -71c50 39 92 82 127 128c40 53 60 100 60 140v8c-4 53 -22 81 -55 81h-2zM406 119l54 -326c73 25 110 78 110 161c0 7 0 15 -1 23c-7 95 -57 142 -151 142h-12 zM382 117c-72 -2 -128 -47 -128 -120v-7c2 -46 43 -99 75 -115c-3 -2 -7 -5 -10 -10c-70 33 -116 88 -123 172v11c0 68 44 126 88 159c23 17 49 29 78 36l-29 170c-21 -13 -52 -37 -92 -73c-50 -44 -86 -84 -109 -119c-45 -69 -67 -130 -67 -182v-13c5 -68 35 -127 93 -176 s125 -73 203 -73c25 0 50 3 75 9c-19 111 -36 221 -54 331z" />
      </symbol>
      <symbol id="E062-1topo03" viewBox="0 0 1000 1000" overflow="inherit">
         <path transform="scale(1,-1)" d="M582 -120c0 32 26 58 58 58s58 -26 58 -58s-26 -58 -58 -58s-58 26 -58 58zM582 120c0 32 26 58 58 58s58 -26 58 -58s-26 -58 -58 -58s-58 26 -58 58zM158 96c51 0 73 -14 88 -49l16 -39c0 -17 -2 -30 -7 -40c-3 -11 -10 -21 -19 -31c-17 -18 -49 -43 -84 -43 c-55 0 -77 13 -112 44c-24 21 -35 55 -35 100c0 46 14 81 32 112c30 52 71 79 137 93l36 6l26 2c154 0 235 -68 274 -182c11 -32 18 -68 18 -107c0 -103 -26 -182 -68 -250c-89 -145 -234 -230 -412 -288l-30 -5c-9 0 -14 3 -14 8c3 10 5 11 10 16c35 15 70 30 96 44l78 43 c96 57 162 136 197 258c9 33 17 60 22 100c3 22 5 35 6 39c-7 69 -16 115 -23 140s-4 22 -16 40c-8 12 -19 23 -31 34c-24 21 -62 44 -118 44c-48 0 -84 -8 -113 -28c-28 -19 -42 -44 -42 -73v-16c2 -5 3 -9 4 -11c24 22 52 39 84 39z" />
      </symbol>
      <symbol id="E262-1topo03" viewBox="0 0 1000 1000" overflow="inherit">
         <path transform="scale(1,-1)" d="M136 186v169h17v-164l44 14v-91l-44 -14v-165l44 12v-91l-44 -13v-155h-17v150l-76 -22v-155h-17v149l-43 -13v90l43 14v167l-43 -14v92l43 13v169h17v-163zM60 73v-167l76 22v168z" />
      </symbol>
      <symbol id="E4E5-1topo03" viewBox="0 0 1000 1000" overflow="inherit">
         <path transform="scale(1,-1)" d="M107 292c-13 24 -30 49 -52 71c-1 1 0 2 0 3l-2 2c3 3 4 4 6 4c12 0 26 -7 40 -20s44 -40 89 -81c26 -24 28 -29 46 -47c4 -4 8 -9 10 -14c6 -8 8 -16 8 -27c0 -19 -12 -40 -36 -61c-28 -23 -49 -38 -61 -73c-4 -11 -7 -27 -10 -50c13 -43 34 -83 59 -121 c31 -47 59 -79 101 -129c-8 0 -26 7 -54 20l-62 29l-21 6l-23 1c-25 0 -45 -10 -60 -30l-4 -14l-1 -12c0 -33 20 -56 39 -78c8 -9 17 -18 26 -26c17 -15 27 -24 28 -30l-3 -3c-11 5 -19 10 -25 15c-9 3 -37 21 -45 26c-24 14 -45 32 -63 51c-19 21 -37 44 -37 71 c0 63 27 95 80 95c41 0 86 -18 136 -52c-19 26 -37 48 -55 66c-23 23 -48 44 -73 65c-28 23 -47 40 -58 53s-17 26 -18 39c75 64 113 125 113 183c0 27 -7 48 -18 68z" />
      </symbol>
      <symbol id="E4E6-1topo03" viewBox="0 0 1000 1000" overflow="inherit">
         <path transform="scale(1,-1)" d="M0 123c7 34 33 56 69 60c29 -3 43 -9 53 -29c4 -8 7 -15 10 -22c0 -21 -1 -25 -11 -35c-5 -8 -18 -14 -40 -20l12 -3l15 -1c44 0 97 26 122 56c10 11 18 26 24 42c7 1 15 2 22 3l-140 -424h-36l111 330c-10 -6 -27 -12 -53 -16l-52 -8h-10l-20 1c-1 0 -8 3 -21 6 c-37 9 -55 28 -55 60z" />
      </symbol>
      <symbol id="E520-1topo03" viewBox="0 0 1000 1000" overflow="inherit">
         <path transform="scale(1,-1)" d="M23 124h-23c22 43 43 76 62 101s45 37 76 38c6 0 12 -4 18 -13c7 -7 10 -16 10 -27l24 14l25 13c12 5 24 7 37 7c24 0 43 -9 58 -28s22 -44 23 -77c0 -14 -1 -27 -3 -38s-5 -21 -10 -29s-11 -17 -19 -27c-14 -18 -30 -32 -47 -42s-35 -15 -54 -15c-9 0 -20 3 -33 10 c-5 3 -10 7 -15 10s-9 8 -13 14l-56 -158l-3 -4c3 -7 7 -10 12 -11h32v-29h-173v29h21c4 0 9 2 14 5c4 4 7 9 9 14l119 331v6l-3 10l-6 3c-9 0 -17 -4 -25 -12s-16 -18 -23 -31l-11 -17l-10 -20zM197 201c-12 -21 -22 -45 -29 -72c-7 -30 -10 -51 -10 -62 c0 -24 7 -36 22 -36c13 0 23 2 31 7s15 11 21 20c10 17 15 26 16 28c5 11 8 26 10 44s3 31 4 39c0 7 -1 13 -2 18s-3 9 -6 14c-5 9 -15 14 -28 14c-14 0 -24 -5 -29 -14z" />
      </symbol>
   </defs>
   <style type="text/css">g.page-margin{font-family:Times,serif;} g.ending, g.fing, g.reh, g.tempo{font-weight:bold;} g.dir, g.dynam, g.mNum{font-style:italic;} g.label{font-weight:normal;}</style>
   <svg class="definition-scale" color="black" viewBox="0 0 7880 6030">
      <g class="page-margin" transform="translate(500, 500)">
         <g id="m1jdqlaf" class="mdiv pageMilestone" />
         <g id="sjnlh7l" class="score pageMilestone" />
         <g id="s1iore29" class="system">
            <path d="M13 332 L13 4130" stroke="currentColor" stroke-width="27" />
            <g id="g1rp2kni" class="grpSym">
               <path d="M-72,4112 C-432,3572 18,3047 -252,2867 C81,3047 -369,3572 -72,4112" stroke="currentColor" stroke-linecap="round" stroke-linejoin="round" stroke-width="18" />
               <path d="M-72,1622 C-369,2162 81,2687 -252,2867 C18,2687 -432,2162 -72,1622" stroke="currentColor" stroke-linecap="round" stroke-linejoin="round" stroke-width="18" />
            </g>
            <g id="s1cdjyzn" class="section systemMilestone" />
            <g id="mzqelxk" class="measure upbeat">
               <g id="sbuxvix" class="staff">
                  <path d="M0 332 L2633 332" stroke="currentColor" stroke-width="10" />
                  <path d="M0 467 L2633 467" stroke="currentColor" stroke-width="10" />
                  <path d="M0 602 L2633 602" stroke="currentColor" stroke-width="10" />
                  <path d="M0 737 L2633 737" stroke="currentColor" stroke-width="10" />
                  <path d="M0 872 L2633 872" stroke="currentColor" stroke-width="10" />
                  <g id="c1ocxokv" class="clef">
                     <use xlink:href="#E050-1topo03" x="117" y="737" height="540px" width="540px" />
                  </g>
                  <g id="k1d4hk7c" class="keySig">
                     <g id="k1xoexuf" class="keyAccid">
                        <use xlink:href="#E262-1topo03" x="798" y="332" height="540px" width="540px" />
                     </g>
                  </g>
                  <g id="mechs4r" class="meterSig">
                     <use xlink:href="#E084-1topo03" x="1105" y="465" height="540px" width="540px" />
                     <use xlink:href="#E084-1topo03" x="1105" y="735" height="540px" width="540px" />
                  </g>
                  <g id="li279of" class="layer">
                     <g id="b1xr0twi" class="beam">
                        <polygon points="1824,399 2339,332 2339,399 1824,466" />
                        <g id="note-0000000827838925" class="note">
                           <g class="notehead">
                              <use xlink:href="#E0A4-1topo03" x="1667" y="868" height="540px" width="540px" />
                           </g>
                           <g id="s1glwyh6" class="stem">
                              <path d="M1830 847 L1830 412" stroke="currentColor" stroke-width="13" />
                           </g>
                           <g id="vweeaav" class="verse">
                              <g id="s17k4h2g" class="syl">
                                 <text x="1600" y="1239" font-size="0px">
                                    <tspan id="tuxm5ez" class="text">
                                       <tspan font-size="303px">Die</tspan>
                                    </tspan>
                                 </text>
                              </g>
                           </g>
                        </g>
                        <g id="note-0000000349216146" class="note">
                           <g class="notehead">
                              <use xlink:href="#E0A4-1topo03" x="2170" y="801" height="540px" width="540px" />
                           </g>
                           <g id="swv9qsv" class="stem">
                              <path d="M2333 780 L2333 345" stroke="currentColor" stroke-width="13" />
                           </g>
                           <g id="a2qxb4b" class="accid" />
                           <g id="vl89vn4" class="verse">
                              <g id="s1hacij4" class="syl">
                                 <text x="2103" y="1239" font-size="0px">
                                    <tspan id="t1ku7643" class="text">
                                       <tspan font-size="303px">zwei</tspan>
                                    </tspan>
                                 </text>
                              </g>
                           </g>
                        </g>
                     </g>
                  </g>
               </g>
               <g id="s8eje1i" class="staff">
                  <path d="M0 1604 L2633 1604" stroke="currentColor" stroke-width="13" />
                  <path d="M0 1784 L2633 1784" stroke="currentColor" stroke-width="13" />
                  <path d="M0 1964 L2633 1964" stroke="currentColor" stroke-width="13" />
                  <path d="M0 2144 L2633 2144" stroke="currentColor" stroke-width="13" />
                  <path d="M0 2324 L2633 2324" stroke="currentColor" stroke-width="13" />
                  <g id="c1ujwd7e" class="clef">
                     <use xlink:href="#E050-1topo03" x="117" y="2144" height="720px" width="720px" />
                  </g>
                  <g id="k1gfnez7" class="keySig">
                     <g id="k5k17vo" class="keyAccid">
                        <use xlink:href="#E262-1topo03" x="798" y="1604" height="720px" width="720px" />
                     </g>
                  </g>
                  <g id="m1gkla70" class="meterSig">
                     <use xlink:href="#E084-1topo03" x="1105" y="1784" height="720px" width="720px" />
                     <use xlink:href="#E084-1topo03" x="1105" y="2144" height="720px" width="720px" />
                  </g>
                  <g class="ledgerLines below">
                     <path d="M1619 2504 L1941 2504" stroke="currentColor" stroke-width="22" />
                     <path d="M2122 2504 L2444 2504" stroke="currentColor" stroke-width="22" />
                     <path d="M1619 2684 L1941 2684" stroke="currentColor" stroke-width="22" />
                  </g>
                  <g id="l6mwdu" class="layer">
                     <g id="b8c7gdp" class="beam">
                        <polygon points="1875,1604 2396,1559 2396,1649 1875,1694" />
                        <g id="c1myrdeu" class="chord">
                           <g id="s1nx6jjt" class="stem">
                              <path d="M1884 2746 L1884 1622" stroke="currentColor" stroke-width="18" />
                           </g>
                           <g id="d1e284" class="note">
                              <g class="notehead">
                                 <use xlink:href="#E0A4-1topo03" x="1667" y="2774" height="720px" width="720px" />
                              </g>
                           </g>
                           <g id="n1qs9dou" class="note">
                              <g class="notehead">
                                 <use xlink:href="#E0A4-1topo03" x="1667" y="2324" height="720px" width="720px" />
                              </g>
                           </g>
                        </g>
                        <g id="cjwqt27" class="chord">
                           <g id="s8pfj8o" class="stem">
                              <path d="M2387 2566 L2387 1577" stroke="currentColor" stroke-width="18" />
                           </g>
                           <g id="d1e323" class="note">
                              <g class="notehead">
                                 <use xlink:href="#E0A4-1topo03" x="2170" y="2594" height="720px" width="720px" />
                              </g>
                           </g>
                           <g id="no5y5nn" class="note">
                              <g class="notehead">
                                 <use xlink:href="#E0A4-1topo03" x="2170" y="2234" height="720px" width="720px" />
                              </g>
                              <g id="ago3h69" class="accid" />
                           </g>
                        </g>
                     </g>
                  </g>
               </g>
               <g id="s1qt6nwq" class="staff">
                  <path d="M0 3410 L2633 3410" stroke="currentColor" stroke-width="13" />
                  <path d="M0 3590 L2633 3590" stroke="currentColor" stroke-width="13" />
                  <path d="M0 3770 L2633 3770" stroke="currentColor" stroke-width="13" />
                  <path d="M0 3950 L2633 3950" stroke="currentColor" stroke-width="13" />
                  <path d="M0 4130 L2633 4130" stroke="currentColor" stroke-width="13" />
                  <g id="c1o909vm" class="clef">
                     <use xlink:href="#E062-1topo03" x="117" y="3590" height="720px" width="720px" />
                  </g>
                  <g id="k107a40y" class="keySig">
                     <g id="kj784vu" class="keyAccid">
                        <use xlink:href="#E262-1topo03" x="798" y="3590" height="720px" width="720px" />
                     </g>
                  </g>
                  <g id="m17vxzgl" class="meterSig">
                     <use xlink:href="#E084-1topo03" x="1105" y="3590" height="720px" width="720px" />
                     <use xlink:href="#E084-1topo03" x="1105" y="3950" height="720px" width="720px" />
                  </g>
                  <g id="lv4cyic" class="layer">
                     <g id="r19fq213" class="rest">
                        <use xlink:href="#E4E5-1topo03" x="1667" y="3770" height="720px" width="720px" />
                     </g>
                  </g>
               </g>
               <g id="d12t8ngg" class="dynam">
                  <use xlink:href="#E52B-1topo03" x="1667" y="209" height="540px" width="540px" />
               </g>
               <g id="drab8ej" class="dynam">
                  <use xlink:href="#E52B-1topo03" x="1667" y="3245" height="720px" width="720px" />
               </g>
               <g id="s1whqsf0" class="slur">
                  <path d="M1780,2976 C1909,3012 2202,2906 2281,2796 C2247,2953 1904,3076 1780,2976" stroke="currentColor" stroke-linecap="round" stroke-linejoin="round" stroke-width="9" />
               </g>
               <g id="bxzhn2c" class="barLine">
                  <path d="M2620 332 L2620 868" stroke="currentColor" stroke-width="27" />
                  <path d="M2620 1604 L2620 2324" stroke="currentColor" stroke-width="27" />
                  <path d="M2620 3410 L2620 4130" stroke="currentColor" stroke-width="27" />
               </g>
            </g>
            <g id="m1wxek4l" class="measure">
               <g id="s79zvou" class="staff">
                  <path d="M2633 332 L6881 332" stroke="currentColor" stroke-width="10" />
                  <path d="M2633 467 L6881 467" stroke="currentColor" stroke-width="10" />
                  <path d="M2633 602 L6881 602" stroke="currentColor" stroke-width="10" />
                  <path d="M2633 737 L6881 737" stroke="currentColor" stroke-width="10" />
                  <path d="M2633 872 L6881 872" stroke="currentColor" stroke-width="10" />
                  <g id="l1lepy4" class="layer">
                     <g id="b10s6akm" class="beam">
                        <polygon points="2970,299 3684,299 3684,366 2970,366" />
                        <polygon points="3515,399 3684,399 3684,466 3515,466" />
                        <g id="d1e379" class="note">
                           <g class="notehead">
                              <use xlink:href="#E0A4-1topo03" x="2813" y="734" height="540px" width="540px" />
                           </g>
                           <g id="d13dvxyd" class="dots">
                              <ellipse cx="3048" cy="671" rx="27" ry="27" />
                           </g>
                           <g id="ssrupqb" class="stem">
                              <path d="M2976 713 L2976 312" stroke="currentColor" stroke-width="13" />
                           </g>
                           <g id="v14nsv79" class="verse">
                              <g id="s1wl6y4h" class="syl">
                                 <text x="2743" y="1239" font-size="0px">
                                    <tspan id="t1kmgtzr" class="text">
                                       <tspan font-size="303px">blau-</tspan>
                                    </tspan>
                                 </text>
                              </g>
                           </g>
                        </g>
                        <g id="d1e401" class="note">
                           <g class="notehead">
                              <use xlink:href="#E0A4-1topo03" x="3515" y="734" height="540px" width="540px" />
                           </g>
                           <g id="s1s2ayys" class="stem">
                              <path d="M3678 713 L3678 312" stroke="currentColor" stroke-width="13" />
                           </g>
                           <g id="v1gi2viz" class="verse">
                              <g id="s1sbq9ih" class="syl">
                                 <text x="3448" y="1239" font-size="0px">
                                    <tspan id="t18587b4" class="text">
                                       <tspan font-size="303px">en</tspan>
                                    </tspan>
                                 </text>
                              </g>
                           </g>
                        </g>
                     </g>
                     <g id="bcm5q6d" class="beam">
                        <polygon points="4039,299 4594,299 4594,366 4039,366" />
                        <g id="d1e424" class="note">
                           <g class="notehead">
                              <use xlink:href="#E0A4-1topo03" x="3882" y="734" height="540px" width="540px" />
                           </g>
                           <g id="skinkxw" class="stem">
                              <path d="M4045 713 L4045 312" stroke="currentColor" stroke-width="13" />
                           </g>
                           <g id="v4q35cf" class="verse">
                              <g id="s1c1zr4" class="syl">
                                 <text x="3815" y="1239" font-size="0px">
                                    <tspan id="t1q5t655" class="text">
                                       <tspan font-size="303px">Au-</tspan>
                                    </tspan>
                                 </text>
                              </g>
                           </g>
                        </g>
                        <g id="d1e445" class="note">
                           <g class="notehead">
                              <use xlink:href="#E0A4-1topo03" x="4425" y="734" height="540px" width="540px" />
                           </g>
                           <g id="s15wby21" class="stem">
                              <path d="M4588 713 L4588 312" stroke="currentColor" stroke-width="13" />
                           </g>
                           <g id="v1mt8skb" class="verse">
                              <g id="slpmfj9" class="syl">
                                 <text x="4358" y="1239" font-size="0px">
                                    <tspan id="tgp0jgc" class="text">
                                       <tspan font-size="303px">gen</tspan>
                                    </tspan>
                                 </text>
                              </g>
                           </g>
                        </g>
                     </g>
                     <g id="rd3qtqi" class="rest">
                        <use xlink:href="#E4E6-1topo03" x="4875" y="600" height="540px" width="540px" />
                     </g>
                     <g id="bjx11bh" class="beam">
                        <polygon points="5482,265 6581,332 6581,399 5482,332" />
                        <g id="d1e474" class="note">
                           <g class="notehead">
                              <use xlink:href="#E0A4-1topo03" x="5325" y="734" height="540px" width="540px" />
                           </g>
                           <g id="splhgxd" class="stem">
                              <path d="M5488 713 L5488 278" stroke="currentColor" stroke-width="13" />
                           </g>
                           <g id="v1ylxhj4" class="verse">
                              <g id="s19ne0q3" class="syl">
                                 <text x="5172" y="1239" font-size="0px">
                                    <tspan id="tlsta6f" class="text">
                                       <tspan font-size="303px">von</tspan>
                                    </tspan>
                                 </text>
                              </g>
                           </g>
                        </g>
                        <g id="d1e495" class="note">
                           <g class="notehead">
                              <use xlink:href="#E0A4-1topo03" x="5775" y="868" height="540px" width="540px" />
                           </g>
                           <g id="sskywyv" class="stem">
                              <path d="M5938 847 L5938 306" stroke="currentColor" stroke-width="13" />
                           </g>
                           <g id="vdiyr08" class="verse">
                              <g id="s1hkohbm" class="syl">
                                 <text x="5708" y="1239" font-size="0px">
                                    <tspan id="tqxnitl" class="text">
                                       <tspan font-size="303px">mei-</tspan>
                                    </tspan>
                                 </text>
                              </g>
                           </g>
                        </g>
                        <g id="d1e516" class="note">
                           <g class="notehead">
                              <use xlink:href="#E0A4-1topo03" x="6412" y="801" height="540px" width="540px" />
                           </g>
                           <g id="suh3idi" class="stem">
                              <path d="M6575 780 L6575 345" stroke="currentColor" stroke-width="13" />
                           </g>
                           <g id="a8s4wh5" class="accid" />
                           <g id="v1mpviq3" class="verse">
                              <g id="s5o8y5p" class="syl">
                                 <text x="6345" y="1239" font-size="0px">
                                    <tspan id="t1o39aju" class="text">
                                       <tspan font-size="303px">nem</tspan>
                                    </tspan>
                                 </text>
                              </g>
                           </g>
                        </g>
                     </g>
                  </g>
               </g>
               <g id="sebbgr" class="staff">
                  <path d="M2633 1604 L6881 1604" stroke="currentColor" stroke-width="13" />
                  <path d="M2633 1784 L6881 1784" stroke="currentColor" stroke-width="13" />
                  <path d="M2633 1964 L6881 1964" stroke="currentColor" stroke-width="13" />
                  <path d="M2633 2144 L6881 2144" stroke="currentColor" stroke-width="13" />
                  <path d="M2633 2324 L6881 2324" stroke="currentColor" stroke-width="13" />
                  <g class="ledgerLines below">
                     <path d="M2765 2504 L3087 2504" stroke="currentColor" stroke-width="22" />
                     <path d="M3469 2504 L3787 2504" stroke="currentColor" stroke-width="22" />
                     <path d="M3836 2504 L4154 2504" stroke="currentColor" stroke-width="22" />
                     <path d="M5727 2504 L6049 2504" stroke="currentColor" stroke-width="22" />
                     <path d="M6364 2504 L6686 2504" stroke="currentColor" stroke-width="22" />
                  </g>
                  <g id="lb51lac" class="layer">
                     <g id="br01zcn" class="beam">
                        <polygon points="3021,1559 3741,1559 3741,1649 3021,1649" />
                        <polygon points="3515,1694 3741,1694 3741,1784 3515,1784" />
                        <g id="c1laekih" class="chord">
                           <g id="ddror71" class="dots">
                              <ellipse cx="3129" cy="2594" rx="36" ry="36" />
                              <ellipse cx="3129" cy="2234" rx="36" ry="36" />
                              <ellipse cx="3129" cy="2054" rx="36" ry="36" />
                           </g>
                           <g id="sn88phu" class="stem">
                              <path d="M3030 2566 L3030 1577" stroke="currentColor" stroke-width="18" />
                           </g>
                           <g id="abhv8ue" class="artic">
                              <use xlink:href="#E4A2-1topo03" x="2996" y="1526" height="720px" width="720px" />
                           </g>
                           <g id="d1e540" class="note">
                              <g class="notehead">
                                 <use xlink:href="#E0A4-1topo03" x="2813" y="2594" height="720px" width="720px" />
                              </g>
                           </g>
                           <g id="n1oifurz" class="note">
                              <g class="notehead">
                                 <use xlink:href="#E0A4-1topo03" x="2813" y="2324" height="720px" width="720px" />
                              </g>
                           </g>
                           <g id="n1rs740v" class="note">
                              <g class="notehead">
                                 <use xlink:href="#E0A4-1topo03" x="2813" y="2144" height="720px" width="720px" />
                              </g>
                           </g>
                        </g>
                        <g id="c15dqnde" class="chord">
                           <g id="sn7a5vy" class="stem">
                              <path d="M3732 2566 L3732 1577" stroke="currentColor" stroke-width="18" />
                           </g>
                           <g id="a1fa9l8c" class="artic">
                              <use xlink:href="#E4A2-1topo03" x="3698" y="1526" height="720px" width="720px" />
                           </g>
                           <g id="n1w6ixg6" class="note">
                              <g class="notehead">
                                 <use xlink:href="#E0A4-1topo03" x="3515" y="2594" height="720px" width="720px" />
                              </g>
                           </g>
                           <g id="ndmoxdw" class="note">
                              <g class="notehead">
                                 <use xlink:href="#E0A4-1topo03" x="3515" y="2324" height="720px" width="720px" />
                              </g>
                           </g>
                           <g id="ndot8e3" class="note">
                              <g class="notehead">
                                 <use xlink:href="#E0A4-1topo03" x="3515" y="2144" height="720px" width="720px" />
                              </g>
                           </g>
                        </g>
                     </g>
                     <g id="c1tgbc8" class="chord">
                        <g id="s7bo40k" class="stem">
                           <path d="M4099 2566 L4099 1514" stroke="currentColor" stroke-width="18" />
                        </g>
                        <g id="agbfjzq" class="artic">
                           <use xlink:href="#E4A2-1topo03" x="4065" y="1481" height="720px" width="720px" />
                        </g>
                        <g id="d1e656" class="note">
                           <g class="notehead">
                              <use xlink:href="#E0A4-1topo03" x="3882" y="2594" height="720px" width="720px" />
                           </g>
                        </g>
                        <g id="n5gnadw" class="note">
                           <g class="notehead">
                              <use xlink:href="#E0A4-1topo03" x="3882" y="2324" height="720px" width="720px" />
                           </g>
                        </g>
                        <g id="nxj5xvy" class="note">
                           <g class="notehead">
                              <use xlink:href="#E0A4-1topo03" x="3882" y="2144" height="720px" width="720px" />
                           </g>
                        </g>
                     </g>
                     <g id="r13bm87l" class="rest">
                        <use xlink:href="#E4E5-1topo03" x="4875" y="1964" height="720px" width="720px" />
                     </g>
                     <g id="b180et00" class="beam">
                        <polygon points="5983,1694 6638,1604 6638,1694 5983,1784" />
                        <g id="c1ryjjh1" class="chord">
                           <g id="s12fa89r" class="stem">
                              <path d="M5992 2476 L5992 1712" stroke="currentColor" stroke-width="18" />
                           </g>
                           <g id="a15yobv4" class="artic">
                              <use xlink:href="#E4A2-1topo03" x="5958" y="1548" height="720px" width="720px" />
                           </g>
                           <g id="d1e720" class="note">
                              <g class="notehead">
                                 <use xlink:href="#E0A4-1topo03" x="5775" y="2504" height="720px" width="720px" />
                              </g>
                           </g>
                           <g id="navxh3s" class="note">
                              <g class="notehead">
                                 <use xlink:href="#E0A4-1topo03" x="5775" y="2324" height="720px" width="720px" />
                              </g>
                           </g>
                        </g>
                        <g id="clsphhv" class="chord">
                           <g id="s1v7de6x" class="stem">
                              <path d="M6629 2566 L6629 1622" stroke="currentColor" stroke-width="18" />
                           </g>
                           <g id="avd9i6e" class="artic">
                              <use xlink:href="#E4A2-1topo03" x="6595" y="1526" height="720px" width="720px" />
                           </g>
                           <g id="d1e760" class="note">
                              <g class="notehead">
                                 <use xlink:href="#E0A4-1topo03" x="6412" y="2594" height="720px" width="720px" />
                              </g>
                           </g>
                           <g id="n1erysqx" class="note">
                              <g class="notehead">
                                 <use xlink:href="#E0A4-1topo03" x="6412" y="2234" height="720px" width="720px" />
                              </g>
                              <g id="ackukv1" class="accid" />
                           </g>
                        </g>
                     </g>
                  </g>
               </g>
               <g id="s1nhyy7g" class="staff">
                  <path d="M2633 3410 L6881 3410" stroke="currentColor" stroke-width="13" />
                  <path d="M2633 3590 L6881 3590" stroke="currentColor" stroke-width="13" />
                  <path d="M2633 3770 L6881 3770" stroke="currentColor" stroke-width="13" />
                  <path d="M2633 3950 L6881 3950" stroke="currentColor" stroke-width="13" />
                  <path d="M2633 4130 L6881 4130" stroke="currentColor" stroke-width="13" />
                  <g class="ledgerLines below">
                     <path d="M2825 4310 L3027 4310" stroke="currentColor" stroke-width="22" />
                     <path d="M2765 4310 L3087 4310" stroke="currentColor" stroke-width="22" />
                     <path d="M2825 4490 L3027 4490" stroke="currentColor" stroke-width="22" />
                     <path d="M2825 4670 L3027 4670" stroke="currentColor" stroke-width="22" />
                     <path d="M2825 4850 L3027 4850" stroke="currentColor" stroke-width="22" />
                  </g>
                  <g id="lsxy9jf" class="layer">
                     <g id="cbaianq" class="chord">
                        <g id="s1awkw3h" class="stem">
                           <path d="M3030 4912 L3030 3680" stroke="currentColor" stroke-width="18" />
                        </g>
                        <g id="n1qv9tg9" class="note">
                           <g class="notehead">
                              <use xlink:href="#E0A4-1topo03" x="2813" y="4940" height="720px" width="720px" />
                           </g>
                        </g>
                        <g id="n336opj" class="note">
                           <g class="notehead">
                              <use xlink:href="#E0A4-1topo03" x="2813" y="4310" height="720px" width="720px" />
                           </g>
                        </g>
                     </g>
                     <g id="cadlgy" class="chord">
                        <g id="s1iuvlwj" class="stem">
                           <path d="M3891 3528 L3891 4490" stroke="currentColor" stroke-width="18" />
                        </g>
                        <g id="n13gsmb5" class="note">
                           <g class="notehead">
                              <use xlink:href="#E0A4-1topo03" x="3882" y="3950" height="720px" width="720px" />
                           </g>
                        </g>
                        <g id="n1r1h8kg" class="note">
                           <g class="notehead">
                              <use xlink:href="#E0A4-1topo03" x="3882" y="3680" height="720px" width="720px" />
                           </g>
                        </g>
                        <g id="nbpi02x" class="note">
                           <g class="notehead">
                              <use xlink:href="#E0A4-1topo03" x="3882" y="3500" height="720px" width="720px" />
                           </g>
                        </g>
                     </g>
                     <g id="r1j94ch2" class="rest">
                        <use xlink:href="#E4E4-1topo03" x="4875" y="3770" height="720px" width="720px" />
                        <g class="ledgerLines" />
                     </g>
                  </g>
               </g>
               <g id="d18ajpl5" class="dynam">
                  <use xlink:href="#E520-1topo03" x="5325" y="142" height="540px" width="540px" />
               </g>
               <g id="dvesllk" class="dynam">
                  <use xlink:href="#E520-1topo03" x="5775" y="3047" height="720px" width="720px" />
               </g>
               <g id="sewlq7z" class="slur">
                  <path d="M2926,2796 C3177,2981 3743,2981 3995,2796 C3764,3038 3156,3038 2926,2796" stroke="currentColor" stroke-linecap="round" stroke-linejoin="round" stroke-width="9" />
               </g>
               <g id="s1t575kx" class="slur">
                  <path d="M5888,2706 C6007,2823 6373,2875 6523,2794 C6390,2935 5974,2877 5888,2706" stroke="currentColor" stroke-linecap="round" stroke-linejoin="round" stroke-width="9" />
               </g>
               <g id="b1pic1od" class="barLine">
                  <path d="M6868 332 L6868 868" stroke="currentColor" stroke-width="27" />
                  <path d="M6868 1604 L6868 2324" stroke="currentColor" stroke-width="27" />
                  <path d="M6868 3410 L6868 4130" stroke="currentColor" stroke-width="27" />
               </g>
            </g>
            <g id="sm6ar55" class="systemMilestoneEnd s1cdjyzn" />
         </g>
         <g id="pwulxtt" class="pageMilestoneEnd sjnlh7l" />
         <g id="p15rv1bk" class="pageMilestoneEnd m1jdqlaf" />
      </g>
   </svg>
</svg>
