<svg width="901px" height="145px" version="1.1" xmlns="http://www.w3.org/2000/svg" xmlns:xlink="http://www.w3.org/1999/xlink" xmlns:mei="http://www.music-encoding.org/ns/mei" overflow="visible">
   <desc>Engraved by Verovio 4.4.0-66ab39c</desc>
   <defs>
      <symbol id="E4A9-9z3koy" viewBox="0 0 1000 1000" overflow="inherit">
         <path transform="scale(1,-1)" d="M153 -224h-37c-10 4 -19 14 -26 30c-3 7 -8 12 -14 14c-4 -1 -11 -10 -20 -26c-5 -9 -11 -15 -20 -18h-36l76 224z" />
      </symbol>
      <symbol id="E4AB-9z3koy" viewBox="0 0 1000 1000" overflow="inherit">
         <path transform="scale(1,-1)" d="M0 0h33v-240h-33v240z" />
      </symbol>
      <symbol id="E4AC-9z3koy" viewBox="0 0 1000 1000" overflow="inherit">
         <path transform="scale(1,-1)" d="M273 0h-82l-84 154l-78 -154h-29l137 265z" />
      </symbol>
      <symbol id="E4A3-9z3koy" viewBox="0 0 1000 1000" overflow="inherit">
         <path transform="scale(1,-1)" d="M0 -48c0 26 22 48 48 48s48 -22 48 -48s-22 -48 -48 -48s-48 22 -48 48z" />
      </symbol>
      <symbol id="E4A5-9z3koy" viewBox="0 0 1000 1000" overflow="inherit">
         <path transform="scale(1,-1)" d="M8 0h330c8 0 8 -4 8 -12v-12c0 -8 0 -12 -8 -12h-330c-8 0 -8 4 -8 12v12c0 8 0 12 8 12z" />
      </symbol>
      <symbol id="E4A7-9z3koy" viewBox="0 0 1000 1000" overflow="inherit">
         <path transform="scale(1,-1)" d="M110 -224v-5c3 -4 -7 -6 -19 -10c-14 -5 -24 -4 -35 -5c-14 2 -28 3 -42 7c-10 3 -11 3 -14 8v5l55 224z" />
      </symbol>
      <symbol id="E610-9z3koy" viewBox="0 0 1000 1000" overflow="inherit">
         <path transform="scale(1,-1)" d="M0 240h310v-240h-33v116h-244v-116h-33v240z" />
      </symbol>
      <symbol id="E612-9z3koy" viewBox="0 0 1000 1000" overflow="inherit">
         <path transform="scale(1,-1)" d="M283 338l-141 -338l-142 338h38l104 -248l104 248h37z" />
      </symbol>
      <symbol id="E614-9z3koy" viewBox="0 0 1000 1000" overflow="inherit">
         <path transform="scale(1,-1)" d="M0 103c0 57 46 103 103 103s103 -46 103 -103s-46 -103 -103 -103s-103 46 -103 103zM28 103c0 -41 34 -75 75 -75s75 34 75 75s-34 75 -75 75s-75 -34 -75 -75z" />
      </symbol>
      <symbol id="E631-9z3koy" viewBox="0 0 1000 1000" overflow="inherit">
         <path transform="scale(1,-1)" d="M0 103c0 53 39 96 90 102v61h26v-61c51 -6 90 -49 90 -102c0 -57 -46 -103 -103 -103s-103 46 -103 103zM116 177v-81h-26v81c-35 -6 -62 -37 -62 -74c0 -41 34 -75 75 -75s75 34 75 75c0 37 -27 68 -62 74z" />
      </symbol>
      <symbol id="E633-9z3koy" viewBox="0 0 1000 1000" overflow="inherit">
         <path transform="scale(1,-1)" d="M152 152h-152v26h152v152h26v-152h152v-26h-152v-152h-26v152z" />
      </symbol>
      <symbol id="ED41-9z3koy" viewBox="0 0 1000 1000" overflow="inherit">
         <path transform="scale(1,-1)" d="M347 -236l-347 119l347 117v-33l-252 -84l252 -86v-33zM373 -236v33l252 86l-252 84v33l347 -117z" />
      </symbol>
      <symbol id="E5E5-9z3koy" viewBox="0 0 1000 1000" overflow="inherit">
         <path transform="scale(1,-1)" d="M152 152h-152v26h152v152h26v-152h152v-26h-152v-152h-26v152z" />
      </symbol>
      <symbol id="E5E7-9z3koy" viewBox="0 0 1000 1000" overflow="inherit">
         <path transform="scale(1,-1)" d="M0 165c0 106 59 165 165 165s165 -59 165 -165s-59 -165 -165 -165s-165 59 -165 165zM28 165c0 -90 47 -137 137 -137s137 47 137 137s-47 137 -137 137s-137 -47 -137 -137z" />
      </symbol>
      <symbol id="E0A4-9z3koy" viewBox="0 0 1000 1000" overflow="inherit">
         <path transform="scale(1,-1)" d="M0 -39c0 68 73 172 200 172c66 0 114 -37 114 -95c0 -84 -106 -171 -218 -171c-64 0 -96 30 -96 94z" />
      </symbol>
      <symbol id="E050-9z3koy" viewBox="0 0 1000 1000" overflow="inherit">
         <path transform="scale(1,-1)" d="M441 -245c-23 -4 -48 -6 -76 -6c-59 0 -102 7 -130 20c-88 42 -150 93 -187 154c-26 44 -43 103 -48 176c0 6 -1 13 -1 19c0 54 15 111 45 170c29 57 65 106 110 148s96 85 153 127c-3 16 -8 46 -13 92c-4 43 -5 73 -5 89c0 117 16 172 69 257c34 54 64 82 89 82 c21 0 43 -30 69 -92s39 -115 41 -159v-15c0 -109 -21 -162 -67 -241c-13 -20 -63 -90 -98 -118c-13 -9 -25 -19 -37 -29l31 -181c8 1 18 2 28 2c58 0 102 -12 133 -35c59 -43 92 -104 98 -184c1 -7 1 -15 1 -22c0 -123 -87 -209 -181 -248c8 -57 17 -110 25 -162 c5 -31 6 -58 6 -80c0 -30 -5 -53 -14 -70c-35 -64 -88 -99 -158 -103c-5 0 -11 -1 -16 -1c-37 0 -72 10 -108 27c-50 24 -77 59 -80 105v11c0 29 7 55 20 76c18 28 45 42 79 44h6c49 0 93 -42 97 -87v-9c0 -51 -34 -86 -105 -106c17 -24 51 -36 102 -36c62 0 116 43 140 85 c9 16 13 41 13 74c0 20 -1 42 -5 67c-8 53 -18 106 -26 159zM461 939c-95 0 -135 -175 -135 -286c0 -24 2 -48 5 -71c50 39 92 82 127 128c40 53 60 100 60 140v8c-4 53 -22 81 -55 81h-2zM406 119l54 -326c73 25 110 78 110 161c0 7 0 15 -1 23c-7 95 -57 142 -151 142h-12 zM382 117c-72 -2 -128 -47 -128 -120v-7c2 -46 43 -99 75 -115c-3 -2 -7 -5 -10 -10c-70 33 -116 88 -123 172v11c0 68 44 126 88 159c23 17 49 29 78 36l-29 170c-21 -13 -52 -37 -92 -73c-50 -44 -86 -84 -109 -119c-45 -69 -67 -130 -67 -182v-13c5 -68 35 -127 93 -176 s125 -73 203 -73c25 0 50 3 75 9c-19 111 -36 221 -54 331z" />
      </symbol>
      <symbol id="E4A1-9z3koy" viewBox="0 0 1000 1000" overflow="inherit">
         <path transform="scale(1,-1)" d="M0 -236v33l252 86l-252 84v33l347 -117z" />
      </symbol>
   </defs>
   <style type="text/css">g.page-margin{font-family:Times,serif;} g.ending, g.fing, g.reh, g.tempo{font-weight:bold;} g.dir, g.dynam, g.mNum{font-style:italic;} g.label{font-weight:normal;}</style>
   <svg class="definition-scale" color="black" viewBox="0 0 15010 2410">
      <g class="page-margin" transform="translate(500, 500)">
         <g id="m1kok6l2" class="mdiv pageMilestone" />
         <g id="swo7lvl" class="score pageMilestone" />
         <g id="sxyp0o8" class="system">
            <g id="sh5trnf" class="section systemMilestone" />
            <g id="m1658i64" class="measure">
               <g id="s1c1j1x4" class="staff">
                  <path d="M0 400 L3598 400" stroke="currentColor" stroke-width="13" />
                  <path d="M0 580 L3598 580" stroke="currentColor" stroke-width="13" />
                  <path d="M0 760 L3598 760" stroke="currentColor" stroke-width="13" />
                  <path d="M0 940 L3598 940" stroke="currentColor" stroke-width="13" />
                  <path d="M0 1120 L3598 1120" stroke="currentColor" stroke-width="13" />
                  <g id="cd4cg8u" class="clef">
                     <use xlink:href="#E050-9z3koy" x="90" y="940" height="720px" width="720px" />
                  </g>
                  <g id="ky4x2uk" class="keySig" />
                  <g id="l18mf2h4" class="layer">
                     <g id="n1nmwihw" class="note">
                        <g class="notehead">
                           <use xlink:href="#E0A4-9z3koy" x="825" y="940" height="720px" width="720px" />
                        </g>
                        <g id="s1384fwz" class="stem">
                           <path d="M1042 912 L1042 310" stroke="currentColor" stroke-width="18" />
                        </g>
                        <g id="ak8zdd2" class="artic">
                           <use xlink:href="#E4A1-9z3koy" x="814" y="1187" height="720px" width="720px" />
                        </g>
                     </g>
                     <g id="np05k7c" class="note">
                        <g class="notehead">
                           <use xlink:href="#E0A4-9z3koy" x="1515" y="940" height="720px" width="720px" />
                        </g>
                        <g id="s8y4h4s" class="stem">
                           <path d="M1732 912 L1732 310" stroke="currentColor" stroke-width="18" />
                        </g>
                        <g id="ahloe6q" class="artic">
                           <use xlink:href="#ED41-9z3koy" x="1369" y="1187" height="720px" width="720px" />
                        </g>
                     </g>
                     <g id="n1abasa0" class="note">
                        <g class="notehead">
                           <use xlink:href="#E0A4-9z3koy" x="2205" y="940" height="720px" width="720px" />
                        </g>
                        <g id="s1tcswu0" class="stem">
                           <path d="M2422 912 L2422 310" stroke="currentColor" stroke-width="18" />
                        </g>
                        <g id="a1l9fs9j" class="artic">
                           <use xlink:href="#E4A5-9z3koy" x="2194" y="1198" height="720px" width="720px" />
                        </g>
                     </g>
                     <g id="n1bcmqip" class="note">
                        <g class="notehead">
                           <use xlink:href="#E0A4-9z3koy" x="2895" y="940" height="720px" width="720px" />
                        </g>
                        <g id="s55apfs" class="stem">
                           <path d="M3112 912 L3112 310" stroke="currentColor" stroke-width="18" />
                        </g>
                        <g id="afpxi89" class="artic">
                           <use xlink:href="#E4A9-9z3koy" x="2953" y="1210" height="720px" width="720px" />
                        </g>
                     </g>
                  </g>
               </g>
               <g id="b1jjyye1" class="barLine">
                  <path d="M3585 400 L3585 1120" stroke="currentColor" stroke-width="27" />
               </g>
            </g>
            <g id="m10cpe5j" class="measure">
               <g id="suks9q8" class="staff">
                  <path d="M3598 400 L6551 400" stroke="currentColor" stroke-width="13" />
                  <path d="M3598 580 L6551 580" stroke="currentColor" stroke-width="13" />
                  <path d="M3598 760 L6551 760" stroke="currentColor" stroke-width="13" />
                  <path d="M3598 940 L6551 940" stroke="currentColor" stroke-width="13" />
                  <path d="M3598 1120 L6551 1120" stroke="currentColor" stroke-width="13" />
                  <g id="lf1le8q" class="layer">
                     <g id="n1xmt2zm" class="note">
                        <g class="notehead">
                           <use xlink:href="#E0A4-9z3koy" x="3778" y="940" height="720px" width="720px" />
                        </g>
                        <g id="s95xnka" class="stem">
                           <path d="M3995 912 L3995 310" stroke="currentColor" stroke-width="18" />
                        </g>
                        <g id="adkkxtg" class="artic">
                           <use xlink:href="#E4AC-9z3koy" x="3793" y="243" height="720px" width="720px" />
                        </g>
                     </g>
                     <g id="n1xguosr" class="note">
                        <g class="notehead">
                           <use xlink:href="#E0A4-9z3koy" x="4468" y="940" height="720px" width="720px" />
                        </g>
                        <g id="s9eqgh8" class="stem">
                           <path d="M4685 912 L4685 310" stroke="currentColor" stroke-width="18" />
                        </g>
                        <g id="a3lh6e2" class="artic">
                           <use xlink:href="#E4A3-9z3koy" x="4547" y="1176" height="720px" width="720px" />
                        </g>
                     </g>
                     <g id="nmm7ssg" class="note">
                        <g class="notehead">
                           <use xlink:href="#E0A4-9z3koy" x="5158" y="940" height="720px" width="720px" />
                        </g>
                        <g id="sqscrkn" class="stem">
                           <path d="M5375 912 L5375 310" stroke="currentColor" stroke-width="18" />
                        </g>
                        <g id="a1483ysi" class="artic">
                           <use xlink:href="#E4A7-9z3koy" x="5232" y="1210" height="720px" width="720px" />
                        </g>
                     </g>
                     <g id="nc54cit" class="note">
                        <g class="notehead">
                           <use xlink:href="#E0A4-9z3koy" x="5848" y="940" height="720px" width="720px" />
                        </g>
                        <g id="s7oly0b" class="stem">
                           <path d="M6065 912 L6065 310" stroke="currentColor" stroke-width="18" />
                        </g>
                        <g id="a1ior292" class="artic">
                           <use xlink:href="#E4A5-9z3koy" x="5837" y="1198" height="720px" width="720px" />
                        </g>
                     </g>
                  </g>
               </g>
               <g id="b3obl8j" class="barLine">
                  <path d="M6538 400 L6538 1120" stroke="currentColor" stroke-width="27" />
               </g>
            </g>
            <g id="s1j9ols7" class="systemMilestoneEnd sh5trnf" />
            <g id="s1gvrff2" class="section systemMilestone" />
            <g id="my1aa9v" class="measure">
               <g id="sckp1ov" class="staff">
                  <path d="M6551 400 L10194 400" stroke="currentColor" stroke-width="13" />
                  <path d="M6551 580 L10194 580" stroke="currentColor" stroke-width="13" />
                  <path d="M6551 760 L10194 760" stroke="currentColor" stroke-width="13" />
                  <path d="M6551 940 L10194 940" stroke="currentColor" stroke-width="13" />
                  <path d="M6551 1120 L10194 1120" stroke="currentColor" stroke-width="13" />
                  <g id="lxtnib7" class="layer">
                     <g id="n94yjws" class="note">
                        <g class="notehead">
                           <use xlink:href="#E0A4-9z3koy" x="6731" y="940" height="720px" width="720px" />
                        </g>
                        <g id="s1emrxry" class="stem">
                           <path d="M6948 912 L6948 310" stroke="currentColor" stroke-width="18" />
                        </g>
                        <g id="a1vjpxq7" class="artic">
                           <use xlink:href="#E610-9z3koy" x="6733" y="243" height="720px" width="720px" />
                        </g>
                     </g>
                     <g id="n18n44pt" class="note">
                        <g class="notehead">
                           <use xlink:href="#E0A4-9z3koy" x="7421" y="940" height="720px" width="720px" />
                        </g>
                        <g id="speetzt" class="stem">
                           <path d="M7638 912 L7638 310" stroke="currentColor" stroke-width="18" />
                        </g>
                        <g id="akoy5fc" class="artic">
                           <use xlink:href="#E612-9z3koy" x="7433" y="243" height="720px" width="720px" />
                        </g>
                     </g>
                     <g id="nklnisk" class="note">
                        <g class="notehead">
                           <use xlink:href="#E0A4-9z3koy" x="8111" y="940" height="720px" width="720px" />
                        </g>
                        <g id="sk3aerx" class="stem">
                           <path d="M8328 912 L8328 310" stroke="currentColor" stroke-width="18" />
                        </g>
                        <g id="a1x74fbz" class="artic">
                           <use xlink:href="#E614-9z3koy" x="8150" y="243" height="720px" width="720px" />
                        </g>
                     </g>
                     <g id="n1asl1w2" class="note">
                        <g class="notehead">
                           <use xlink:href="#E0A4-9z3koy" x="8801" y="940" height="720px" width="720px" />
                        </g>
                        <g id="s14odt3d" class="stem">
                           <path d="M9018 912 L9018 310" stroke="currentColor" stroke-width="18" />
                        </g>
                        <g id="a10h9uqo" class="artic">
                           <use xlink:href="#E631-9z3koy" x="8840" y="243" height="720px" width="720px" />
                        </g>
                     </g>
                     <g id="n18sj2iu" class="note">
                        <g class="notehead">
                           <use xlink:href="#E0A4-9z3koy" x="9491" y="940" height="720px" width="720px" />
                        </g>
                        <g id="ss16cqe" class="stem">
                           <path d="M9708 912 L9708 310" stroke="currentColor" stroke-width="18" />
                        </g>
                        <g id="ai57o4z" class="artic">
                           <use xlink:href="#E633-9z3koy" x="9486" y="243" height="720px" width="720px" />
                        </g>
                     </g>
                  </g>
               </g>
               <g id="b1iivoyg" class="barLine">
                  <path d="M10181 400 L10181 1120" stroke="currentColor" stroke-width="27" />
               </g>
            </g>
            <g id="s55ceqn" class="systemMilestoneEnd s1gvrff2" />
            <g id="s69yvye" class="section systemMilestone" />
            <g id="mlgvq2x" class="measure">
               <g id="s14yl3l9" class="staff">
                  <path d="M10194 400 L11767 400" stroke="currentColor" stroke-width="13" />
                  <path d="M10194 580 L11767 580" stroke="currentColor" stroke-width="13" />
                  <path d="M10194 760 L11767 760" stroke="currentColor" stroke-width="13" />
                  <path d="M10194 940 L11767 940" stroke="currentColor" stroke-width="13" />
                  <path d="M10194 1120 L11767 1120" stroke="currentColor" stroke-width="13" />
                  <g id="l1cwz4b2" class="layer">
                     <g id="n8qypwq" class="note">
                        <g class="notehead">
                           <use xlink:href="#E0A4-9z3koy" x="10374" y="940" height="720px" width="720px" />
                        </g>
                        <g id="s1nwoerp" class="stem">
                           <path d="M10591 912 L10591 310" stroke="currentColor" stroke-width="18" />
                        </g>
                        <g id="a16a2a7z" class="artic">
                           <use xlink:href="#E5E7-9z3koy" x="10369" y="243" height="720px" width="720px" />
                        </g>
                     </g>
                     <g id="n1dxc7o4" class="note">
                        <g class="notehead">
                           <use xlink:href="#E0A4-9z3koy" x="11064" y="940" height="720px" width="720px" />
                        </g>
                        <g id="sdyb060" class="stem">
                           <path d="M11281 912 L11281 310" stroke="currentColor" stroke-width="18" />
                        </g>
                        <g id="ary5c1e" class="artic">
                           <use xlink:href="#E5E5-9z3koy" x="11059" y="243" height="720px" width="720px" />
                        </g>
                     </g>
                  </g>
               </g>
               <g id="bjn0fdp" class="barLine">
                  <path d="M11754 400 L11754 1120" stroke="currentColor" stroke-width="27" />
               </g>
            </g>
            <g id="s4k1tuw" class="systemMilestoneEnd s69yvye" />
            <g id="sv39tsi" class="section systemMilestone" />
            <g id="m1gjuat" class="measure">
               <g id="s1qfnwtm" class="staff">
                  <path d="M11767 400 L14017 400" stroke="currentColor" stroke-width="13" />
                  <path d="M11767 580 L14017 580" stroke="currentColor" stroke-width="13" />
                  <path d="M11767 760 L14017 760" stroke="currentColor" stroke-width="13" />
                  <path d="M11767 940 L14017 940" stroke="currentColor" stroke-width="13" />
                  <path d="M11767 1120 L14017 1120" stroke="currentColor" stroke-width="13" />
                  <g id="lvzebw2" class="layer">
                     <g id="n1vcwj2r" class="note">
                        <g class="notehead">
                           <use xlink:href="#E0A4-9z3koy" x="11947" y="940" height="720px" width="720px" />
                        </g>
                        <g id="s22bxog" class="stem">
                           <path d="M12164 912 L12164 310" stroke="currentColor" stroke-width="18" />
                        </g>
                        <g id="a1i5fns4" class="artic">
                           <use xlink:href="#E4A3-9z3koy" x="12026" y="1210" height="720px" width="720px" />
                        </g>
                     </g>
                     <g id="n1dzmx0v" class="note">
                        <g class="notehead">
                           <use xlink:href="#E0A4-9z3koy" x="12637" y="940" height="720px" width="720px" />
                        </g>
                        <g id="s1cfwojs" class="stem">
                           <path d="M12854 912 L12854 310" stroke="currentColor" stroke-width="18" />
                        </g>
                        <g id="a59prt0" class="artic">
                           <use xlink:href="#E4AB-9z3koy" x="12739" y="1210" height="720px" width="720px" />
                        </g>
                     </g>
                     <g id="nio2whx" class="note">
                        <g class="notehead">
                           <use xlink:href="#E0A4-9z3koy" x="13327" y="940" height="720px" width="720px" />
                        </g>
                        <g id="s1dwb4n8" class="stem">
                           <path d="M13544 912 L13544 310" stroke="currentColor" stroke-width="18" />
                        </g>
                        <g id="adp4bh7" class="artic">
                           <use xlink:href="#ED41-9z3koy" x="13181" y="1187" height="720px" width="720px" />
                        </g>
                     </g>
                  </g>
               </g>
               <g id="bbvydkg" class="barLine" />
            </g>
            <g id="saw8196" class="systemMilestoneEnd sv39tsi" />
         </g>
         <g id="p1ewtqny" class="pageMilestoneEnd swo7lvl" />
         <g id="p1kjgt4h" class="pageMilestoneEnd m1kok6l2" />
      </g>
   </svg>
</svg>
