<svg width="901px" height="145px" version="1.1" xmlns="http://www.w3.org/2000/svg" xmlns:xlink="http://www.w3.org/1999/xlink" overflow="visible" id="l19nj5e9">
   <desc>Engraved by Verovio 5.3.0-5d8be2e</desc>
   <defs>
      <g id="E0A4-l19nj5e9">
         <path transform="scale(1,-1)" d="M0 -39c0 68 73 172 200 172c66 0 114 -37 114 -95c0 -84 -106 -171 -218 -171c-64 0 -96 30 -96 94z" />
      </g>
      <g id="E050-l19nj5e9">
         <path transform="scale(1,-1)" d="M441 -245c-23 -4 -48 -6 -76 -6c-59 0 -102 7 -130 20c-88 42 -150 93 -187 154c-26 44 -43 103 -48 176c0 6 -1 13 -1 19c0 54 15 111 45 170c29 57 65 106 110 148s96 85 153 127c-3 16 -8 46 -13 92c-4 43 -5 73 -5 89c0 117 16 172 69 257c34 54 64 82 89 82 c21 0 43 -30 69 -92s39 -115 41 -159v-15c0 -109 -21 -162 -67 -241c-13 -20 -63 -90 -98 -118c-13 -9 -25 -19 -37 -29l31 -181c8 1 18 2 28 2c58 0 102 -12 133 -35c59 -43 92 -104 98 -184c1 -7 1 -15 1 -22c0 -123 -87 -209 -181 -248c8 -57 17 -110 25 -162 c5 -31 6 -58 6 -80c0 -30 -5 -53 -14 -70c-35 -64 -88 -99 -158 -103c-5 0 -11 -1 -16 -1c-37 0 -72 10 -108 27c-50 24 -77 59 -80 105v11c0 29 7 55 20 76c18 28 45 42 79 44h6c49 0 93 -42 97 -87v-9c0 -51 -34 -86 -105 -106c17 -24 51 -36 102 -36c62 0 116 43 140 85 c9 16 13 41 13 74c0 20 -1 42 -5 67c-8 53 -18 106 -26 159zM461 939c-95 0 -135 -175 -135 -286c0 -24 2 -48 5 -71c50 39 92 82 127 128c40 53 60 100 60 140v8c-4 53 -22 81 -55 81h-2zM406 119l54 -326c73 25 110 78 110 161c0 7 0 15 -1 23c-7 95 -57 142 -151 142h-12 zM382 117c-72 -2 -128 -47 -128 -120v-7c2 -46 43 -99 75 -115c-3 -2 -7 -5 -10 -10c-70 33 -116 88 -123 172v11c0 68 44 126 88 159c23 17 49 29 78 36l-29 170c-21 -13 -52 -37 -92 -73c-50 -44 -86 -84 -109 -119c-45 -69 -67 -130 -67 -182v-13c5 -68 35 -127 93 -176 s125 -73 203 -73c25 0 50 3 75 9c-19 111 -36 221 -54 331z" />
      </g>
      <g id="E631-l19nj5e9">
         <path transform="scale(1,-1)" d="M0 103c0 53 39 96 90 102v61h26v-61c51 -6 90 -49 90 -102c0 -57 -46 -103 -103 -103s-103 46 -103 103zM116 177v-81h-26v81c-35 -6 -62 -37 -62 -74c0 -41 34 -75 75 -75s75 34 75 75c0 37 -27 68 -62 74z" />
      </g>
      <g id="E633-l19nj5e9">
         <path transform="scale(1,-1)" d="M152 152h-152v26h152v152h26v-152h152v-26h-152v-152h-26v152z" />
      </g>
      <g id="ED41-l19nj5e9">
         <path transform="scale(1,-1)" d="M347 -236l-347 119l347 117v-33l-252 -84l252 -86v-33zM373 -236v33l252 86l-252 84v33l347 -117z" />
      </g>
      <g id="E5E5-l19nj5e9">
         <path transform="scale(1,-1)" d="M152 152h-152v26h152v152h26v-152h152v-26h-152v-152h-26v152z" />
      </g>
      <g id="E5E7-l19nj5e9">
         <path transform="scale(1,-1)" d="M0 165c0 106 59 165 165 165s165 -59 165 -165s-59 -165 -165 -165s-165 59 -165 165zM28 165c0 -90 47 -137 137 -137s137 47 137 137s-47 137 -137 137s-137 -47 -137 -137z" />
      </g>
      <g id="E4A3-l19nj5e9">
         <path transform="scale(1,-1)" d="M0 -48c0 26 22 48 48 48s48 -22 48 -48s-22 -48 -48 -48s-48 22 -48 48z" />
      </g>
      <g id="E4A5-l19nj5e9">
         <path transform="scale(1,-1)" d="M8 0h330c8 0 8 -4 8 -12v-12c0 -8 0 -12 -8 -12h-330c-8 0 -8 4 -8 12v12c0 8 0 12 8 12z" />
      </g>
      <g id="E4A7-l19nj5e9">
         <path transform="scale(1,-1)" d="M110 -224v-5c3 -4 -7 -6 -19 -10c-14 -5 -24 -4 -35 -5c-14 2 -28 3 -42 7c-10 3 -11 3 -14 8v5l55 224z" />
      </g>
      <g id="E610-l19nj5e9">
         <path transform="scale(1,-1)" d="M0 240h310v-240h-33v116h-244v-116h-33v240z" />
      </g>
      <g id="E612-l19nj5e9">
         <path transform="scale(1,-1)" d="M283 338l-141 -338l-142 338h38l104 -248l104 248h37z" />
      </g>
      <g id="E614-l19nj5e9">
         <path transform="scale(1,-1)" d="M0 103c0 57 46 103 103 103s103 -46 103 -103s-46 -103 -103 -103s-103 46 -103 103zM28 103c0 -41 34 -75 75 -75s75 34 75 75s-34 75 -75 75s-75 -34 -75 -75z" />
      </g>
      <g id="E4A1-l19nj5e9">
         <path transform="scale(1,-1)" d="M0 -236v33l252 86l-252 84v33l347 -117z" />
      </g>
      <g id="E4A9-l19nj5e9">
         <path transform="scale(1,-1)" d="M153 -224h-37c-10 4 -19 14 -26 30c-3 7 -8 12 -14 14c-4 -1 -11 -10 -20 -26c-5 -9 -11 -15 -20 -18h-36l76 224z" />
      </g>
      <g id="E4AB-l19nj5e9">
         <path transform="scale(1,-1)" d="M0 0h33v-240h-33v240z" />
      </g>
      <g id="E4AC-l19nj5e9">
         <path transform="scale(1,-1)" d="M273 0h-82l-84 154l-78 -154h-29l137 265z" />
      </g>
   </defs>
   <style type="text/css">#l19nj5e9 g.page-margin {font-family:Times,serif;}#l19nj5e9 g.ending, #l19nj5e9 g.fing, #l19nj5e9 g.reh, #l19nj5e9 g.tempo {font-weight:bold;}#l19nj5e9 g.dir, #l19nj5e9 g.dynam, #l19nj5e9 g.mNum {font-style:italic;}#l19nj5e9 g.label {font-weight:normal;}#l19nj5e9 path {stroke:currentColor}</style>
   <svg class="definition-scale" color="black" viewBox="0 0 15010 2410">
      <g class="page-margin" transform="translate(500, 500)">
         <g id="moqsi69" class="mdiv pageMilestone" />
         <g id="njft1g2" class="score pageMilestone" />
         <g id="vyt4ad" class="system">
            <g id="a6ug31v" class="section systemMilestone" />
            <g id="b1bcu6sn" class="measure">
               <g id="k1ffvwuh" class="staff">
                  <path d="M0 400 L3598 400" stroke-width="13" />
                  <path d="M0 580 L3598 580" stroke-width="13" />
                  <path d="M0 760 L3598 760" stroke-width="13" />
                  <path d="M0 940 L3598 940" stroke-width="13" />
                  <path d="M0 1120 L3598 1120" stroke-width="13" />
                  <g id="z18z7271" class="clef">
                     <use xlink:href="#E050-l19nj5e9" transform="translate(90, 940) scale(0.72, 0.72)" />
                  </g>
                  <g id="a85g2or" class="keySig" />
                  <g id="lzosgrv" class="layer">
                     <g id="m1q84ocf" class="note">
                        <g class="notehead">
                           <use xlink:href="#E0A4-l19nj5e9" transform="translate(825, 940) scale(0.72, 0.72)" />
                        </g>
                        <g id="e11izfdo" class="stem">
                           <path d="M1042 912 L1042 310" stroke-width="18" />
                        </g>
                        <g id="n1gzuhvg" class="artic">
                           <use xlink:href="#E4A1-l19nj5e9" transform="translate(814, 1187) scale(0.72, 0.72)" />
                        </g>
                     </g>
                     <g id="o1vw1hrc" class="note">
                        <g class="notehead">
                           <use xlink:href="#E0A4-l19nj5e9" transform="translate(1515, 940) scale(0.72, 0.72)" />
                        </g>
                        <g id="fqn9gl2" class="stem">
                           <path d="M1732 912 L1732 310" stroke-width="18" />
                        </g>
                        <g id="p36inxr" class="artic">
                           <use xlink:href="#ED41-l19nj5e9" transform="translate(1369, 1187) scale(0.72, 0.72)" />
                        </g>
                     </g>
                     <g id="qa56g6u" class="note">
                        <g class="notehead">
                           <use xlink:href="#E0A4-l19nj5e9" transform="translate(2205, 940) scale(0.72, 0.72)" />
                        </g>
                        <g id="goma0gm" class="stem">
                           <path d="M2422 912 L2422 310" stroke-width="18" />
                        </g>
                        <g id="r4ks4fv" class="artic">
                           <use xlink:href="#E4A5-l19nj5e9" transform="translate(2194, 1198) scale(0.72, 0.72)" />
                        </g>
                     </g>
                     <g id="s147azdb" class="note">
                        <g class="notehead">
                           <use xlink:href="#E0A4-l19nj5e9" transform="translate(2895, 940) scale(0.72, 0.72)" />
                        </g>
                        <g id="h1a2rmes" class="stem">
                           <path d="M3112 912 L3112 310" stroke-width="18" />
                        </g>
                        <g id="t1kzq82m" class="artic">
                           <use xlink:href="#E4A9-l19nj5e9" transform="translate(2953, 1210) scale(0.72, 0.72)" />
                        </g>
                     </g>
                  </g>
               </g>
               <g id="j9ixwzy" class="barLine">
                  <path d="M3585 400 L3585 1120" stroke-width="27" />
               </g>
            </g>
            <g id="ushell2" class="measure">
               <g id="d1iiegxs" class="staff">
                  <path d="M3598 400 L6551 400" stroke-width="13" />
                  <path d="M3598 580 L6551 580" stroke-width="13" />
                  <path d="M3598 760 L6551 760" stroke-width="13" />
                  <path d="M3598 940 L6551 940" stroke-width="13" />
                  <path d="M3598 1120 L6551 1120" stroke-width="13" />
                  <g id="erbcoh7" class="layer">
                     <g id="fmlv5y5" class="note">
                        <g class="notehead">
                           <use xlink:href="#E0A4-l19nj5e9" transform="translate(3778, 940) scale(0.72, 0.72)" />
                        </g>
                        <g id="i4vs11m" class="stem">
                           <path d="M3995 912 L3995 310" stroke-width="18" />
                        </g>
                        <g id="g14xmp24" class="artic">
                           <use xlink:href="#E4AC-l19nj5e9" transform="translate(3793, 243) scale(0.72, 0.72)" />
                        </g>
                     </g>
                     <g id="hju2rxn" class="note">
                        <g class="notehead">
                           <use xlink:href="#E0A4-l19nj5e9" transform="translate(4468, 940) scale(0.72, 0.72)" />
                        </g>
                        <g id="j1s8kxne" class="stem">
                           <path d="M4685 912 L4685 310" stroke-width="18" />
                        </g>
                        <g id="izodm98" class="artic">
                           <use xlink:href="#E4A3-l19nj5e9" transform="translate(4547, 1176) scale(0.72, 0.72)" />
                        </g>
                     </g>
                     <g id="j1mj6nxn" class="note">
                        <g class="notehead">
                           <use xlink:href="#E0A4-l19nj5e9" transform="translate(5158, 940) scale(0.72, 0.72)" />
                        </g>
                        <g id="k19a056m" class="stem">
                           <path d="M5375 912 L5375 310" stroke-width="18" />
                        </g>
                        <g id="k1d0qcvg" class="artic">
                           <use xlink:href="#E4A7-l19nj5e9" transform="translate(5232, 1210) scale(0.72, 0.72)" />
                        </g>
                     </g>
                     <g id="leeh8fz" class="note">
                        <g class="notehead">
                           <use xlink:href="#E0A4-l19nj5e9" transform="translate(5848, 940) scale(0.72, 0.72)" />
                        </g>
                        <g id="l1e7ub62" class="stem">
                           <path d="M6065 912 L6065 310" stroke-width="18" />
                        </g>
                        <g id="m5odh2d" class="artic">
                           <use xlink:href="#E4A5-l19nj5e9" transform="translate(5837, 1198) scale(0.72, 0.72)" />
                        </g>
                     </g>
                  </g>
               </g>
               <g id="c1ahluu1" class="barLine">
                  <path d="M6538 400 L6538 1120" stroke-width="27" />
               </g>
            </g>
            <g id="yvzjjlx" class="systemMilestoneEnd a6ug31v" />
            <g id="n16gprxv" class="section systemMilestone" />
            <g id="o1w2vfrn" class="measure">
               <g id="xfggj11" class="staff">
                  <path d="M6551 400 L10194 400" stroke-width="13" />
                  <path d="M6551 580 L10194 580" stroke-width="13" />
                  <path d="M6551 760 L10194 760" stroke-width="13" />
                  <path d="M6551 940 L10194 940" stroke-width="13" />
                  <path d="M6551 1120 L10194 1120" stroke-width="13" />
                  <g id="y1waypqj" class="layer">
                     <g id="zfx25hn" class="note">
                        <g class="notehead">
                           <use xlink:href="#E0A4-l19nj5e9" transform="translate(6731, 940) scale(0.72, 0.72)" />
                        </g>
                        <g id="mlwp7zq" class="stem">
                           <path d="M6948 912 L6948 310" stroke-width="18" />
                        </g>
                        <g id="a3ie8ud" class="artic">
                           <use xlink:href="#E610-l19nj5e9" transform="translate(6733, 243) scale(0.72, 0.72)" />
                        </g>
                     </g>
                     <g id="b37hn12" class="note">
                        <g class="notehead">
                           <use xlink:href="#E0A4-l19nj5e9" transform="translate(7421, 940) scale(0.72, 0.72)" />
                        </g>
                        <g id="nt9ronl" class="stem">
                           <path d="M7638 912 L7638 310" stroke-width="18" />
                        </g>
                        <g id="c1kyp1ws" class="artic">
                           <use xlink:href="#E612-l19nj5e9" transform="translate(7433, 243) scale(0.72, 0.72)" />
                        </g>
                     </g>
                     <g id="d1eyoooy" class="note">
                        <g class="notehead">
                           <use xlink:href="#E0A4-l19nj5e9" transform="translate(8111, 940) scale(0.72, 0.72)" />
                        </g>
                        <g id="o1awc8ol" class="stem">
                           <path d="M8328 912 L8328 310" stroke-width="18" />
                        </g>
                        <g id="ewtw03u" class="artic">
                           <use xlink:href="#E614-l19nj5e9" transform="translate(8150, 243) scale(0.72, 0.72)" />
                        </g>
                     </g>
                     <g id="f12ecyql" class="note">
                        <g class="notehead">
                           <use xlink:href="#E0A4-l19nj5e9" transform="translate(8801, 940) scale(0.72, 0.72)" />
                        </g>
                        <g id="p1ufntge" class="stem">
                           <path d="M9018 912 L9018 310" stroke-width="18" />
                        </g>
                        <g id="gjwwkjn" class="artic">
                           <use xlink:href="#E631-l19nj5e9" transform="translate(8840, 243) scale(0.72, 0.72)" />
                        </g>
                     </g>
                     <g id="hzub3xf" class="note">
                        <g class="notehead">
                           <use xlink:href="#E0A4-l19nj5e9" transform="translate(9491, 940) scale(0.72, 0.72)" />
                        </g>
                        <g id="qg6e4o" class="stem">
                           <path d="M9708 912 L9708 310" stroke-width="18" />
                        </g>
                        <g id="izv1mc9" class="artic">
                           <use xlink:href="#E633-l19nj5e9" transform="translate(9486, 243) scale(0.72, 0.72)" />
                        </g>
                     </g>
                  </g>
               </g>
               <g id="wgj8qwy" class="barLine">
                  <path d="M10181 400 L10181 1120" stroke-width="27" />
               </g>
            </g>
            <g id="z4bj489" class="systemMilestoneEnd n16gprxv" />
            <g id="j14qhuvu" class="section systemMilestone" />
            <g id="k1dict13" class="measure">
               <g id="tmeaduc" class="staff">
                  <path d="M10194 400 L11767 400" stroke-width="13" />
                  <path d="M10194 580 L11767 580" stroke-width="13" />
                  <path d="M10194 760 L11767 760" stroke-width="13" />
                  <path d="M10194 940 L11767 940" stroke-width="13" />
                  <path d="M10194 1120 L11767 1120" stroke-width="13" />
                  <g id="u4oqxce" class="layer">
                     <g id="v1bpmbr1" class="note">
                        <g class="notehead">
                           <use xlink:href="#E0A4-l19nj5e9" transform="translate(10374, 940) scale(0.72, 0.72)" />
                        </g>
                        <g id="rxq6cll" class="stem">
                           <path d="M10591 912 L10591 310" stroke-width="18" />
                        </g>
                        <g id="w1m11mph" class="artic">
                           <use xlink:href="#E5E7-l19nj5e9" transform="translate(10369, 243) scale(0.72, 0.72)" />
                        </g>
                     </g>
                     <g id="x1oxd4nf" class="note">
                        <g class="notehead">
                           <use xlink:href="#E0A4-l19nj5e9" transform="translate(11064, 940) scale(0.72, 0.72)" />
                        </g>
                        <g id="s1xjwapg" class="stem">
                           <path d="M11281 912 L11281 310" stroke-width="18" />
                        </g>
                        <g id="y23h8om" class="artic">
                           <use xlink:href="#E5E5-l19nj5e9" transform="translate(11059, 243) scale(0.72, 0.72)" />
                        </g>
                     </g>
                  </g>
               </g>
               <g id="sqqgytg" class="barLine">
                  <path d="M11754 400 L11754 1120" stroke-width="27" />
               </g>
            </g>
            <g id="a1tqy1kq" class="systemMilestoneEnd j14qhuvu" />
            <g id="z16wv72r" class="section systemMilestone" />
            <g id="a1n0fw13" class="measure">
               <g id="jo3qcsy" class="staff">
                  <path d="M11767 400 L14017 400" stroke-width="13" />
                  <path d="M11767 580 L14017 580" stroke-width="13" />
                  <path d="M11767 760 L14017 760" stroke-width="13" />
                  <path d="M11767 940 L14017 940" stroke-width="13" />
                  <path d="M11767 1120 L14017 1120" stroke-width="13" />
                  <g id="kgtp1zt" class="layer">
                     <g id="l1wb3e2s" class="note">
                        <g class="notehead">
                           <use xlink:href="#E0A4-l19nj5e9" transform="translate(11947, 940) scale(0.72, 0.72)" />
                        </g>
                        <g id="t16fzqxk" class="stem">
                           <path d="M12164 912 L12164 310" stroke-width="18" />
                        </g>
                        <g id="m1c77hfv" class="artic">
                           <use xlink:href="#E4A3-l19nj5e9" transform="translate(12026, 1210) scale(0.72, 0.72)" />
                        </g>
                     </g>
                     <g id="n1p91bt0" class="note">
                        <g class="notehead">
                           <use xlink:href="#E0A4-l19nj5e9" transform="translate(12637, 940) scale(0.72, 0.72)" />
                        </g>
                        <g id="ulubfbi" class="stem">
                           <path d="M12854 912 L12854 310" stroke-width="18" />
                        </g>
                        <g id="o1hn97h8" class="artic">
                           <use xlink:href="#E4AB-l19nj5e9" transform="translate(12739, 1210) scale(0.72, 0.72)" />
                        </g>
                     </g>
                     <g id="pmwmthe" class="note">
                        <g class="notehead">
                           <use xlink:href="#E0A4-l19nj5e9" transform="translate(13327, 940) scale(0.72, 0.72)" />
                        </g>
                        <g id="v1n4j8tk" class="stem">
                           <path d="M13544 912 L13544 310" stroke-width="18" />
                        </g>
                        <g id="q14fmeoc" class="artic">
                           <use xlink:href="#ED41-l19nj5e9" transform="translate(13181, 1187) scale(0.72, 0.72)" />
                        </g>
                     </g>
                  </g>
               </g>
               <g id="i4s4uc4" class="barLine" />
            </g>
            <g id="bb8g0u0" class="systemMilestoneEnd z16wv72r" />
         </g>
         <g id="cfjak8c" class="pageMilestoneEnd njft1g2" />
         <g id="d16zdwlv" class="pageMilestoneEnd moqsi69" />
      </g>
   </svg>
</svg>
