<svg width="263px" height="108px" version="1.1" xmlns="http://www.w3.org/2000/svg" xmlns:xlink="http://www.w3.org/1999/xlink" overflow="visible" id="l19nj5e9">
   <desc>Engraved by Verovio 6.0.0-9dac18a</desc>
   <defs>
      <g id="E050-l19nj5e9">
         <path transform="scale(1,-1)" d="M441 -245c-23 -4 -48 -6 -76 -6c-59 0 -102 7 -130 20c-88 42 -150 93 -187 154c-26 44 -43 103 -48 176c0 6 -1 13 -1 19c0 54 15 111 45 170c29 57 65 106 110 148s96 85 153 127c-3 16 -8 46 -13 92c-4 43 -5 73 -5 89c0 117 16 172 69 257c34 54 64 82 89 82 c21 0 43 -30 69 -92s39 -115 41 -159v-15c0 -109 -21 -162 -67 -241c-13 -20 -63 -90 -98 -118c-13 -9 -25 -19 -37 -29l31 -181c8 1 18 2 28 2c58 0 102 -12 133 -35c59 -43 92 -104 98 -184c1 -7 1 -15 1 -22c0 -123 -87 -209 -181 -248c8 -57 17 -110 25 -162 c5 -31 6 -58 6 -80c0 -30 -5 -53 -14 -70c-35 -64 -88 -99 -158 -103c-5 0 -11 -1 -16 -1c-37 0 -72 10 -108 27c-50 24 -77 59 -80 105v11c0 29 7 55 20 76c18 28 45 42 79 44h6c49 0 93 -42 97 -87v-9c0 -51 -34 -86 -105 -106c17 -24 51 -36 102 -36c62 0 116 43 140 85 c9 16 13 41 13 74c0 20 -1 42 -5 67c-8 53 -18 106 -26 159zM461 939c-95 0 -135 -175 -135 -286c0 -24 2 -48 5 -71c50 39 92 82 127 128c40 53 60 100 60 140v8c-4 53 -22 81 -55 81h-2zM406 119l54 -326c73 25 110 78 110 161c0 7 0 15 -1 23c-7 95 -57 142 -151 142h-12 zM382 117c-72 -2 -128 -47 -128 -120v-7c2 -46 43 -99 75 -115c-3 -2 -7 -5 -10 -10c-70 33 -116 88 -123 172v11c0 68 44 126 88 159c23 17 49 29 78 36l-29 170c-21 -13 -52 -37 -92 -73c-50 -44 -86 -84 -109 -119c-45 -69 -67 -130 -67 -182v-13c5 -68 35 -127 93 -176 s125 -73 203 -73c25 0 50 3 75 9c-19 111 -36 221 -54 331z" />
      </g>
      <g id="E085-l19nj5e9">
         <path transform="scale(1,-1)" d="M161 38c-14 0 -56 -5 -92 -51h-32l5 263c55 -11 108 -18 158 -18c40 0 85 6 134 17c-8 -52 -39 -114 -159 -114l-50 2c-19 2 -31 4 -49 10l-5 -111c38 26 81 39 129 39c94 0 177 -64 177 -159c0 -100 -98 -166 -211 -166c-88 0 -146 53 -146 115c0 53 39 83 75 83 c37 0 69 -32 69 -72c0 -4 -1 -10 -4 -18l-27 -37c-2 -3 -3 -8 -3 -14c0 -15 12 -23 36 -23c74 0 92 77 92 132s-35 122 -97 122z" />
      </g>
      <g id="E084-l19nj5e9">
         <path transform="scale(1,-1)" d="M20 -78c84 97 114 180 134 329h170c-13 -32 -82 -132 -99 -151l-84 -97c-33 -36 -59 -63 -80 -81h162v102l127 123v-225h57v-39h-57v-34c0 -43 19 -65 57 -65v-34h-244v36c48 0 60 26 60 70v27h-203v39z" />
      </g>
      <g id="E0A4-l19nj5e9">
         <path transform="scale(1,-1)" d="M0 -39c0 68 73 172 200 172c66 0 114 -37 114 -95c0 -84 -106 -171 -218 -171c-64 0 -96 30 -96 94z" />
      </g>
      <g id="E568-l19nj5e9">
         <path transform="scale(1,-1)" d="M468 126v-5c0 -22 -4 -42 -12 -58c-15 -31 -42 -62 -85 -62c-30 2 -58 16 -58 44c2 20 13 37 32 37c9 0 15 -1 18 -4l18 -13c6 -4 11 -7 17 -9c27 0 39 27 39 55c0 34 -18 70 -55 70c-11 0 -24 -4 -37 -11l-22 -16l-10 -9l-65 -67c-8 -9 -24 -24 -33 -31l-18 -15 c-3 -2 -9 -6 -18 -11c-24 -14 -49 -21 -75 -21c-19 2 -37 10 -55 25c-28 27 -49 64 -49 114c0 43 22 83 55 97c14 8 18 8 36 8h5c31 -1 58 -20 58 -54c-5 -19 -16 -28 -33 -28c-10 0 -18 4 -24 8l-7 7l-11 9l-9 2c-27 0 -40 -14 -40 -43v-8c0 -3 2 -10 5 -19l12 -26 c9 -14 17 -28 37 -28c11 1 23 5 37 13s29 19 45 33c23 23 46 46 69 70c19 17 43 36 64 49c19 10 40 15 63 15c68 -2 106 -49 106 -118z" />
      </g>
      <g id="E567-l19nj5e9">
         <path transform="scale(1,-1)" d="M468 118c0 -69 -38 -116 -106 -118c-23 0 -44 5 -63 15c-21 13 -45 32 -64 49c-23 24 -46 47 -69 70c-16 14 -31 25 -45 33s-26 12 -37 13c-20 0 -28 -14 -37 -28l-12 -26c-3 -9 -5 -16 -5 -19v-8c0 -29 13 -43 40 -43l9 2l11 9l7 7c6 4 14 8 24 8c17 0 28 -9 33 -28 c0 -34 -27 -53 -58 -54h-5c-18 0 -22 0 -36 8c-33 14 -55 54 -55 97c0 50 21 87 49 114c18 15 36 23 55 25c26 0 51 -7 75 -21c9 -5 15 -9 18 -11l18 -15c9 -7 25 -22 33 -31l65 -67l10 -9l22 -16c13 -7 26 -11 37 -11c37 0 55 36 55 70c0 28 -12 55 -39 55 c-6 -2 -11 -5 -17 -9l-18 -13c-3 -3 -9 -4 -18 -4c-19 0 -30 17 -32 37c0 28 28 42 58 44c43 0 70 -31 85 -62c8 -16 12 -36 12 -58v-5z" />
      </g>
      <g id="E56B-l19nj5e9">
         <path transform="scale(1,-1)" d="M118 468h5c23 0 42 -4 58 -12c31 -15 62 -42 62 -85c-2 -30 -16 -58 -44 -58c-20 2 -37 13 -37 32c0 9 1 15 4 18l13 18c4 6 7 11 9 17c0 27 -27 39 -55 39c-34 0 -70 -18 -70 -55c0 -11 4 -24 11 -37l16 -22l9 -10l67 -65c9 -8 24 -24 31 -33l15 -18c2 -3 6 -9 11 -18 c14 -24 21 -49 21 -75c-2 -19 -10 -37 -25 -55c-27 -28 -64 -49 -114 -49c-43 0 -83 22 -97 55c-8 15 -8 18 -8 41c1 31 20 58 54 58c19 -5 28 -16 28 -33c0 -10 -4 -18 -8 -24l-7 -7l-9 -11l-2 -9c0 -27 14 -40 43 -40h8c3 0 10 2 19 5l26 12c14 9 28 17 28 37 c-1 11 -5 23 -13 37s-19 29 -33 45c-23 23 -46 46 -70 69c-17 19 -36 43 -49 64c-10 19 -15 40 -15 63c2 68 49 106 118 106z" />
      </g>
      <g id="E56A-l19nj5e9">
         <path transform="scale(1,-1)" d="M126 468c69 0 116 -38 118 -106c0 -23 -5 -44 -15 -63c-13 -21 -32 -45 -49 -64c-24 -23 -47 -46 -70 -69c-14 -16 -25 -31 -33 -45s-12 -26 -13 -37c0 -20 14 -28 28 -37l26 -12c9 -3 16 -5 19 -5h8c29 0 43 13 43 40l-2 9l-9 11l-7 7c-4 6 -8 14 -8 24c0 17 9 28 28 33 c34 0 53 -27 54 -58c0 -23 0 -26 -8 -41c-14 -33 -54 -55 -97 -55c-50 0 -87 21 -114 49c-15 18 -23 36 -25 55c0 26 7 51 21 75c5 9 9 15 11 18l15 18c7 9 22 25 31 33l67 65l9 10l16 22c7 13 11 26 11 37c0 37 -36 55 -70 55c-28 0 -55 -12 -55 -39c2 -6 5 -11 9 -17 l13 -18c3 -3 4 -9 4 -18c0 -19 -17 -30 -37 -32c-28 0 -42 28 -44 58c0 43 31 70 62 85c16 8 35 12 58 12h5z" />
      </g>
      <g id="E569-l19nj5e9">
         <path transform="scale(1,-1)" d="M468 118c0 -69 -38 -116 -106 -118c-23 0 -44 5 -63 15c-16 10 -34 23 -50 37v-133h-30v162l-53 53c-16 14 -31 25 -45 33s-26 12 -37 13c-20 0 -28 -14 -37 -28l-12 -26c-3 -9 -5 -16 -5 -19v-8c0 -29 13 -43 40 -43l9 2l11 9l7 7c6 4 14 8 24 8c17 0 28 -9 33 -28 c0 -34 -27 -53 -58 -54h-5c-18 0 -22 0 -36 8c-33 14 -55 54 -55 97c0 50 21 87 49 114c18 15 36 23 55 25c26 0 51 -7 75 -21c9 -5 15 -9 18 -11l18 -15c1 -1 3 -2 4 -3v125h30v-154l64 -66l10 -9l22 -16c13 -7 26 -11 37 -11c37 0 55 36 55 70c0 28 -12 55 -39 55 c-6 -2 -11 -5 -17 -9l-18 -13c-3 -3 -9 -4 -18 -4c-19 0 -30 17 -32 37c0 28 28 42 58 44c43 0 70 -31 85 -62c8 -16 12 -36 12 -58v-5z" />
      </g>
   </defs>
   <style type="text/css">g.ending, g.fing, g.reh, g.tempo {font-weight:bold;} g.dir, g.dynam, g.mNum {font-style:italic;}g.label {font-weight:normal;} ellipse, path, polygon, polyline, rect {stroke:currentColor} </style>
   <svg class="definition-scale" color="black" font-family="Times, serif" viewBox="0 0 5840 2390">
      <g class="page-margin" transform="translate(500, 500)">
         <g id="moqsi69" class="mdiv pageMilestone" />
         <g id="njft1g2" class="score pageMilestone" />
         <g id="c1ahluu1" class="system">
            <g id="c1k4iy3e" class="section systemMilestone" />
            <g id="d1blotdo" class="measure">
               <g id="m1q84ocf" class="staff">
                  <path d="M0 381 L4845 381" stroke-width="13" />
                  <path d="M0 561 L4845 561" stroke-width="13" />
                  <path d="M0 741 L4845 741" stroke-width="13" />
                  <path d="M0 921 L4845 921" stroke-width="13" />
                  <path d="M0 1101 L4845 1101" stroke-width="13" />
                  <g id="i4vs11m" class="clef">
                     <use xlink:href="#E050-l19nj5e9" transform="translate(90, 921) scale(0.72, 0.72)" />
                  </g>
                  <g id="j1s8kxne" class="keySig" />
                  <g id="k19a056m" class="meterSig">
                     <use xlink:href="#E085-l19nj5e9" transform="translate(732, 561) scale(0.72, 0.72)" />
                     <use xlink:href="#E084-l19nj5e9" transform="translate(721, 921) scale(0.72, 0.72)" />
                  </g>
                  <g id="n1gzuhvg" class="layer">
                     <g id="ex_0026251991" class="note">
                        <g class="notehead">
                           <use xlink:href="#E0A4-l19nj5e9" transform="translate(1283, 1011) scale(0.72, 0.72)" />
                        </g>
                        <g id="k1d0qcvg" class="stem">
                           <path d="M1500 983 L1500 381" stroke-width="18" />
                        </g>
                     </g>
                     <g id="ex_1783472943" class="note">
                        <g class="notehead">
                           <use xlink:href="#E0A4-l19nj5e9" transform="translate(1973, 1011) scale(0.72, 0.72)" />
                        </g>
                        <g id="leeh8fz" class="stem">
                           <path d="M2190 983 L2190 381" stroke-width="18" />
                        </g>
                     </g>
                     <g id="ex_0290776165" class="note">
                        <g class="notehead">
                           <use xlink:href="#E0A4-l19nj5e9" transform="translate(2663, 1011) scale(0.72, 0.72)" />
                        </g>
                        <g id="m5odh2d" class="stem">
                           <path d="M2880 983 L2880 381" stroke-width="18" />
                        </g>
                     </g>
                     <g id="ex_1264550794" class="note">
                        <g class="notehead">
                           <use xlink:href="#E0A4-l19nj5e9" transform="translate(3353, 1011) scale(0.72, 0.72)" />
                        </g>
                        <g id="n16gprxv" class="stem">
                           <path d="M3570 983 L3570 381" stroke-width="18" />
                        </g>
                     </g>
                     <g id="ex_0939405248" class="note">
                        <g class="notehead">
                           <use xlink:href="#E0A4-l19nj5e9" transform="translate(4043, 1011) scale(0.72, 0.72)" />
                        </g>
                        <g id="o1w2vfrn" class="stem">
                           <path d="M4260 983 L4260 381" stroke-width="18" />
                        </g>
                     </g>
                  </g>
               </g>
               <g id="t1kzq82m" class="turn">
                  <use xlink:href="#E568-l19nj5e9" transform="translate(1228, 327) scale(0.72, 0.72)" />
               </g>
               <g id="ushell2" class="turn">
                  <use xlink:href="#E567-l19nj5e9" transform="translate(1918, 327) scale(0.72, 0.72)" />
               </g>
               <g id="va734np" class="turn vertical">
                  <use xlink:href="#E56B-l19nj5e9" transform="translate(2688, 336) scale(0.72, 0.72)" />
               </g>
               <g id="w1cybpcc" class="turn vertical">
                  <use xlink:href="#E56A-l19nj5e9" transform="translate(3378, 336) scale(0.72, 0.72)" />
               </g>
               <g id="x15wwqth" class="turn slashed">
                  <use xlink:href="#E569-l19nj5e9" transform="translate(3988, 269) scale(0.72, 0.72)" />
               </g>
               <g id="lzosgrv" class="barLine">
                  <path d="M4733 381 L4733 1101" stroke-width="27" />
                  <path d="M4832 381 L4832 1101" stroke-width="27" />
               </g>
            </g>
            <g id="fmlv5y5" class="systemMilestoneEnd c1k4iy3e" />
         </g>
         <g id="g14xmp24" class="pageMilestoneEnd njft1g2" />
         <g id="hju2rxn" class="pageMilestoneEnd moqsi69" />
      </g>
   </svg>
</svg>
