<svg width="900px" height="800px" version="1.1" xmlns="http://www.w3.org/2000/svg" xmlns:xlink="http://www.w3.org/1999/xlink" xmlns:mei="http://www.music-encoding.org/ns/mei" overflow="visible">
   <desc>Engraved by Verovio 4.4.0-66ab39c</desc>
   <defs>
      <symbol id="E4E3-3xkn84" viewBox="0 0 1000 1000" overflow="inherit">
         <path transform="scale(1,-1)" d="M0 -115v105c0 9 1 10 10 10h280c9 0 10 -1 10 -10v-105c0 -9 -1 -10 -10 -10h-280c-9 0 -10 1 -10 10z" />
      </symbol>
      <symbol id="E050-3xkn84" viewBox="0 0 1000 1000" overflow="inherit">
         <path transform="scale(1,-1)" d="M441 -245c-23 -4 -48 -6 -76 -6c-59 0 -102 7 -130 20c-88 42 -150 93 -187 154c-26 44 -43 103 -48 176c0 6 -1 13 -1 19c0 54 15 111 45 170c29 57 65 106 110 148s96 85 153 127c-3 16 -8 46 -13 92c-4 43 -5 73 -5 89c0 117 16 172 69 257c34 54 64 82 89 82 c21 0 43 -30 69 -92s39 -115 41 -159v-15c0 -109 -21 -162 -67 -241c-13 -20 -63 -90 -98 -118c-13 -9 -25 -19 -37 -29l31 -181c8 1 18 2 28 2c58 0 102 -12 133 -35c59 -43 92 -104 98 -184c1 -7 1 -15 1 -22c0 -123 -87 -209 -181 -248c8 -57 17 -110 25 -162 c5 -31 6 -58 6 -80c0 -30 -5 -53 -14 -70c-35 -64 -88 -99 -158 -103c-5 0 -11 -1 -16 -1c-37 0 -72 10 -108 27c-50 24 -77 59 -80 105v11c0 29 7 55 20 76c18 28 45 42 79 44h6c49 0 93 -42 97 -87v-9c0 -51 -34 -86 -105 -106c17 -24 51 -36 102 -36c62 0 116 43 140 85 c9 16 13 41 13 74c0 20 -1 42 -5 67c-8 53 -18 106 -26 159zM461 939c-95 0 -135 -175 -135 -286c0 -24 2 -48 5 -71c50 39 92 82 127 128c40 53 60 100 60 140v8c-4 53 -22 81 -55 81h-2zM406 119l54 -326c73 25 110 78 110 161c0 7 0 15 -1 23c-7 95 -57 142 -151 142h-12 zM382 117c-72 -2 -128 -47 -128 -120v-7c2 -46 43 -99 75 -115c-3 -2 -7 -5 -10 -10c-70 33 -116 88 -123 172v11c0 68 44 126 88 159c23 17 49 29 78 36l-29 170c-21 -13 -52 -37 -92 -73c-50 -44 -86 -84 -109 -119c-45 -69 -67 -130 -67 -182v-13c5 -68 35 -127 93 -176 s125 -73 203 -73c25 0 50 3 75 9c-19 111 -36 221 -54 331z" />
      </symbol>
      <symbol id="E052-3xkn84" viewBox="0 0 1000 1000" overflow="inherit">
         <path transform="scale(1,-1)" d="M382 117c-72 -2 -128 -47 -128 -120v-7c2 -46 43 -99 75 -115c-3 -2 -7 -5 -10 -10c-70 33 -116 88 -123 172v11c0 68 44 126 88 159c23 17 49 29 78 36l-29 170c-21 -13 -52 -37 -92 -73c-50 -44 -86 -84 -109 -119c-45 -69 -67 -130 -67 -182v-13 c5 -68 35 -127 93 -176s125 -73 203 -73c25 0 50 3 75 9c-19 111 -36 221 -54 331zM406 119l54 -326c73 25 110 78 110 161c0 7 0 15 -1 23c-7 95 -57 142 -151 142h-12zM461 939c-95 0 -135 -175 -135 -286c0 -24 2 -48 5 -71c50 39 92 82 127 128c40 53 60 100 60 140v8 c-4 53 -22 81 -55 81h-2zM441 -245c-23 -4 -48 -6 -76 -6c-59 0 -102 7 -130 20c-88 42 -150 93 -187 154c-26 44 -43 103 -48 176c0 6 -1 13 -1 19c0 54 15 111 45 170c29 57 65 106 110 148s96 85 153 127c-3 16 -8 46 -13 92c-4 43 -5 73 -5 89c0 117 16 172 69 257 c34 54 64 82 89 82c21 0 43 -30 69 -92s39 -115 41 -159v-15c0 -109 -21 -162 -67 -241c-13 -20 -63 -90 -98 -118c-13 -9 -25 -19 -37 -29l31 -181c8 1 18 2 28 2c58 0 102 -12 133 -35c59 -43 92 -104 98 -184c1 -7 1 -15 1 -22c0 -123 -87 -209 -181 -248 c8 -57 17 -110 25 -162c5 -31 6 -58 6 -80c0 -30 -5 -53 -14 -70c-25 -46 -59 -77 -102 -92c21 -1 85 -13 85 -60c0 -35 -22 -43 -31 -50c-6 -5 -8 -10 -8 -16s0 -11 4 -16c6 -11 9 -22 9 -34c0 -27 -18 -53 -46 -65c-11 -4 -27 -6 -41 -6c-34 0 -82 21 -90 58 c-1 5 -2 8 -2 12c0 28 25 57 51 66c4 1 6 2 6 5c0 2 -1 3 -2 3c-11 13 -16 27 -16 41c0 21 11 40 30 51h-5c-5 0 -11 -1 -16 -1c-37 0 -72 10 -108 27c-50 24 -77 59 -80 105v11c0 29 7 55 20 76c18 28 45 42 79 44h6c49 0 93 -42 97 -87v-9c0 -51 -34 -86 -105 -106 c17 -24 51 -36 102 -36c62 0 116 43 140 85c9 16 13 41 13 74c0 20 -1 42 -5 67c-8 53 -18 106 -26 159zM315 -781c-3 -2 -6 -5 -7 -8c-6 -8 -10 -19 -10 -30c0 -2 0 -4 1 -7c7 -32 34 -52 53 -52c20 0 37 20 37 36c0 5 -2 9 -4 14c-5 13 -14 24 -25 34c-6 5 -11 10 -17 14 c-4 2 -9 6 -14 6c-6 0 -11 -3 -14 -7zM349 -685c0 -14 10 -25 18 -34c8 -8 16 -18 26 -25c5 -2 10 -4 13 -4c17 0 22 30 23 48c0 9 -3 20 -9 26c-8 9 -23 14 -40 14c-15 -1 -29 -8 -31 -25z" />
      </symbol>
      <symbol id="E062-3xkn84" viewBox="0 0 1000 1000" overflow="inherit">
         <path transform="scale(1,-1)" d="M582 -120c0 32 26 58 58 58s58 -26 58 -58s-26 -58 -58 -58s-58 26 -58 58zM582 120c0 32 26 58 58 58s58 -26 58 -58s-26 -58 -58 -58s-58 26 -58 58zM158 96c51 0 73 -14 88 -49l16 -39c0 -17 -2 -30 -7 -40c-3 -11 -10 -21 -19 -31c-17 -18 -49 -43 -84 -43 c-55 0 -77 13 -112 44c-24 21 -35 55 -35 100c0 46 14 81 32 112c30 52 71 79 137 93l36 6l26 2c154 0 235 -68 274 -182c11 -32 18 -68 18 -107c0 -103 -26 -182 -68 -250c-89 -145 -234 -230 -412 -288l-30 -5c-9 0 -14 3 -14 8c3 10 5 11 10 16c35 15 70 30 96 44l78 43 c96 57 162 136 197 258c9 33 17 60 22 100c3 22 5 35 6 39c-7 69 -16 115 -23 140s-4 22 -16 40c-8 12 -19 23 -31 34c-24 21 -62 44 -118 44c-48 0 -84 -8 -113 -28c-28 -19 -42 -44 -42 -73v-16c2 -5 3 -9 4 -11c24 22 52 39 84 39z" />
      </symbol>
      <symbol id="E08A-3xkn84" viewBox="0 0 1000 1000" overflow="inherit">
         <path transform="scale(1,-1)" d="M340 179c-9 24 -56 41 -89 41c-46 0 -81 -28 -100 -58c-17 -28 -25 -78 -25 -150c0 -65 2 -111 8 -135c8 -31 18 -49 40 -67c20 -17 43 -25 70 -25c54 0 92 36 115 75c14 25 23 54 28 88h27c0 -63 -24 -105 -58 -141c-35 -38 -82 -56 -140 -56c-45 0 -83 13 -115 39 c-57 45 -101 130 -101 226c0 59 33 127 68 163c36 37 97 72 160 72c36 0 93 -21 121 -40c11 -8 23 -17 33 -30c19 -23 27 -48 27 -76c0 -51 -35 -88 -86 -88c-43 0 -76 27 -76 68c0 26 7 35 21 51c15 17 32 27 58 32c7 2 14 7 14 11z" />
      </symbol>
      <symbol id="E004-3xkn84" viewBox="0 0 1000 1000" overflow="inherit">
         <path transform="scale(1,-1)" d="M0 0h53c30 0 59 -1 83 -5c206 -95 258 -264 263 -271c0 -1 -14 -7 -15 -6c-88 154 -251 170 -321 170c-1 0 -63 1 -63 1v111z" />
      </symbol>
      <symbol id="E003-3xkn84" viewBox="0 0 1000 1000" overflow="inherit">
         <path transform="scale(1,-1)" d="M0 -0v111c0 0 62 1 63 1c70 0 233 16 321 170c1 1 15 -5 15 -6c-5 -7 -57 -176 -263 -271c-24 -4 -53 -5 -83 -5h-53z" />
      </symbol>
   </defs>
   <style type="text/css">g.page-margin{font-family:Times,serif;} g.ending, g.fing, g.reh, g.tempo{font-weight:bold;} g.dir, g.dynam, g.mNum{font-style:italic;} g.label{font-weight:normal;}</style>
   <svg class="definition-scale" color="black" viewBox="0 0 9000 8000">
      <g class="page-margin" transform="translate(500, 500)">
         <g id="m19nj5e9" class="mdiv pageMilestone" />
         <g id="soqsi69" class="score pageMilestone" />
         <g id="s9vu36v" class="system">
            <path d="M1726 540 L1726 6660" stroke="currentColor" stroke-width="27" />
            <g id="gbjej86" class="grpSym">
               <use xlink:href="#E003-3xkn84" x="1533" y="489" height="720px" width="720px" />
               <use xlink:href="#E004-3xkn84" x="1533" y="6711" height="720px" width="720px" />
               <rect x="1533" y="483" height="6234" width="90" />
            </g>
            <g id="lqli010" class="label">
               <text x="1353" y="990" text-anchor="end" font-size="0px">
                  <tspan id="tmvwtxt" class="text">
                     <tspan font-size="405px">Soprano</tspan>
                  </tspan>
               </text>
            </g>
            <g id="lsusei5" class="label">
               <text x="1353" y="2790" text-anchor="end" font-size="0px">
                  <tspan id="t1es3gvx" class="text">
                     <tspan font-size="405px">Alto</tspan>
                  </tspan>
               </text>
            </g>
            <g id="loa20nh" class="label">
               <text x="1353" y="4590" text-anchor="end" font-size="0px">
                  <tspan id="t1va7imb" class="text">
                     <tspan font-size="405px">Tenor</tspan>
                  </tspan>
               </text>
            </g>
            <g id="l1nk2mx9" class="label">
               <text x="1353" y="6390" text-anchor="end" font-size="0px">
                  <tspan id="t1mnmgx6" class="text">
                     <tspan font-size="405px">Bass</tspan>
                  </tspan>
               </text>
            </g>
            <g id="s16gprxv" class="section systemMilestone" />
            <g id="m1w2vfrn" class="measure">
               <g id="sfggj11" class="staff">
                  <path d="M1713 540 L5450 540" stroke="currentColor" stroke-width="13" />
                  <path d="M1713 720 L5450 720" stroke="currentColor" stroke-width="13" />
                  <path d="M1713 900 L5450 900" stroke="currentColor" stroke-width="13" />
                  <path d="M1713 1080 L5450 1080" stroke="currentColor" stroke-width="13" />
                  <path d="M1713 1260 L5450 1260" stroke="currentColor" stroke-width="13" />
                  <g id="cm8z2jn" class="clef">
                     <use xlink:href="#E050-3xkn84" x="1830" y="1080" height="720px" width="720px" />
                  </g>
                  <g id="k12wg6fg" class="keySig" />
                  <g id="m1nnhqvy" class="meterSig">
                     <use xlink:href="#E08A-3xkn84" x="2511" y="900" height="720px" width="720px" />
                  </g>
                  <g id="l1waypqj" class="layer">
                     <g id="mfx25hn" class="mRest">
                        <use xlink:href="#E4E3-3xkn84" x="4053" y="720" height="720px" width="720px" />
                     </g>
                  </g>
               </g>
               <g id="s3ie8ud" class="staff">
                  <path d="M1713 2340 L5450 2340" stroke="currentColor" stroke-width="13" />
                  <path d="M1713 2520 L5450 2520" stroke="currentColor" stroke-width="13" />
                  <path d="M1713 2700 L5450 2700" stroke="currentColor" stroke-width="13" />
                  <path d="M1713 2880 L5450 2880" stroke="currentColor" stroke-width="13" />
                  <path d="M1713 3060 L5450 3060" stroke="currentColor" stroke-width="13" />
                  <g id="c1413ow4" class="clef">
                     <use xlink:href="#E050-3xkn84" x="1830" y="2880" height="720px" width="720px" />
                  </g>
                  <g id="kektyuk" class="keySig" />
                  <g id="m1qf5vtj" class="meterSig">
                     <use xlink:href="#E08A-3xkn84" x="2511" y="2700" height="720px" width="720px" />
                  </g>
                  <g id="l37hn12" class="layer">
                     <g id="m1kyp1ws" class="mRest">
                        <use xlink:href="#E4E3-3xkn84" x="4053" y="2520" height="720px" width="720px" />
                     </g>
                  </g>
               </g>
               <g id="s1eyoooy" class="staff">
                  <path d="M1713 4140 L5450 4140" stroke="currentColor" stroke-width="13" />
                  <path d="M1713 4320 L5450 4320" stroke="currentColor" stroke-width="13" />
                  <path d="M1713 4500 L5450 4500" stroke="currentColor" stroke-width="13" />
                  <path d="M1713 4680 L5450 4680" stroke="currentColor" stroke-width="13" />
                  <path d="M1713 4860 L5450 4860" stroke="currentColor" stroke-width="13" />
                  <g id="cztth80" class="clef">
                     <use xlink:href="#E052-3xkn84" x="1830" y="4680" height="720px" width="720px" />
                  </g>
                  <g id="kuv69om" class="keySig" />
                  <g id="m1yh4yt3" class="meterSig">
                     <use xlink:href="#E08A-3xkn84" x="2511" y="4500" height="720px" width="720px" />
                  </g>
                  <g id="lwtw03u" class="layer">
                     <g id="m12ecyql" class="mRest">
                        <use xlink:href="#E4E3-3xkn84" x="4053" y="4320" height="720px" width="720px" />
                     </g>
                  </g>
               </g>
               <g id="sjwwkjn" class="staff">
                  <path d="M1713 5940 L5450 5940" stroke="currentColor" stroke-width="13" />
                  <path d="M1713 6120 L5450 6120" stroke="currentColor" stroke-width="13" />
                  <path d="M1713 6300 L5450 6300" stroke="currentColor" stroke-width="13" />
                  <path d="M1713 6480 L5450 6480" stroke="currentColor" stroke-width="13" />
                  <path d="M1713 6660 L5450 6660" stroke="currentColor" stroke-width="13" />
                  <g id="c12tci30" class="clef">
                     <use xlink:href="#E062-3xkn84" x="1830" y="6120" height="720px" width="720px" />
                  </g>
                  <g id="kxydkwy" class="keySig" />
                  <g id="mlqxvvf" class="meterSig">
                     <use xlink:href="#E08A-3xkn84" x="2511" y="6300" height="720px" width="720px" />
                  </g>
                  <g id="lzub3xf" class="layer">
                     <g id="mzv1mc9" class="mRest">
                        <use xlink:href="#E4E3-3xkn84" x="4053" y="6120" height="720px" width="720px" />
                     </g>
                  </g>
               </g>
               <g id="bgj8qwy" class="barLine">
                  <path d="M5437 540 L5437 1260" stroke="currentColor" stroke-width="27" />
                  <path d="M5437 2340 L5437 3060" stroke="currentColor" stroke-width="27" />
                  <path d="M5437 4140 L5437 4860" stroke="currentColor" stroke-width="27" />
                  <path d="M5437 5940 L5437 6660" stroke="currentColor" stroke-width="27" />
               </g>
            </g>
            <g id="m14qhuvu" class="measure">
               <g id="sqqgytg" class="staff">
                  <path d="M5450 540 L8001 540" stroke="currentColor" stroke-width="13" />
                  <path d="M5450 720 L8001 720" stroke="currentColor" stroke-width="13" />
                  <path d="M5450 900 L8001 900" stroke="currentColor" stroke-width="13" />
                  <path d="M5450 1080 L8001 1080" stroke="currentColor" stroke-width="13" />
                  <path d="M5450 1260 L8001 1260" stroke="currentColor" stroke-width="13" />
                  <g id="lmeaduc" class="layer">
                     <g id="m4oqxce" class="mRest">
                        <use xlink:href="#E4E3-3xkn84" x="6604" y="720" height="720px" width="720px" />
                     </g>
                  </g>
               </g>
               <g id="s1bpmbr1" class="staff">
                  <path d="M5450 2340 L8001 2340" stroke="currentColor" stroke-width="13" />
                  <path d="M5450 2520 L8001 2520" stroke="currentColor" stroke-width="13" />
                  <path d="M5450 2700 L8001 2700" stroke="currentColor" stroke-width="13" />
                  <path d="M5450 2880 L8001 2880" stroke="currentColor" stroke-width="13" />
                  <path d="M5450 3060 L8001 3060" stroke="currentColor" stroke-width="13" />
                  <g id="l1m11mph" class="layer">
                     <g id="m1oxd4nf" class="mRest">
                        <use xlink:href="#E4E3-3xkn84" x="6604" y="2520" height="720px" width="720px" />
                     </g>
                  </g>
               </g>
               <g id="s23h8om" class="staff">
                  <path d="M5450 4140 L8001 4140" stroke="currentColor" stroke-width="13" />
                  <path d="M5450 4320 L8001 4320" stroke="currentColor" stroke-width="13" />
                  <path d="M5450 4500 L8001 4500" stroke="currentColor" stroke-width="13" />
                  <path d="M5450 4680 L8001 4680" stroke="currentColor" stroke-width="13" />
                  <path d="M5450 4860 L8001 4860" stroke="currentColor" stroke-width="13" />
                  <g id="l16wv72r" class="layer">
                     <g id="m1n0fw13" class="mRest">
                        <use xlink:href="#E4E3-3xkn84" x="6604" y="4320" height="720px" width="720px" />
                     </g>
                  </g>
               </g>
               <g id="s13viyd2" class="staff">
                  <path d="M5450 5940 L8001 5940" stroke="currentColor" stroke-width="13" />
                  <path d="M5450 6120 L8001 6120" stroke="currentColor" stroke-width="13" />
                  <path d="M5450 6300 L8001 6300" stroke="currentColor" stroke-width="13" />
                  <path d="M5450 6480 L8001 6480" stroke="currentColor" stroke-width="13" />
                  <path d="M5450 6660 L8001 6660" stroke="currentColor" stroke-width="13" />
                  <g id="l1yevvwh" class="layer">
                     <g id="m1sqgsul" class="mRest">
                        <use xlink:href="#E4E3-3xkn84" x="6604" y="6120" height="720px" width="720px" />
                     </g>
                  </g>
               </g>
               <g id="b1y47wy7" class="barLine">
                  <path d="M7988 540 L7988 1260" stroke="currentColor" stroke-width="27" />
                  <path d="M7988 2340 L7988 3060" stroke="currentColor" stroke-width="27" />
                  <path d="M7988 4140 L7988 4860" stroke="currentColor" stroke-width="27" />
                  <path d="M7988 5940 L7988 6660" stroke="currentColor" stroke-width="27" />
               </g>
            </g>
         </g>
      </g>
   </svg>
</svg>
