<svg width="865.8px" height="151.8px" version="1.1" xmlns="http://www.w3.org/2000/svg" xmlns:xlink="http://www.w3.org/1999/xlink" xmlns:mei="http://www.music-encoding.org/ns/mei" overflow="visible">
   <desc>Engraved by Verovio 3.12.0-77bd079</desc>
   <defs>
      <symbol id="E050-98689q" viewBox="0 0 1000 1000" overflow="inherit">
         <path transform="scale(1,-1)" d="M364 -252c-245 0 -364 165 -364 339c0 202 153 345 297 464c12 10 11 12 9 24c-7 41 -14 106 -14 164c0 104 24 229 98 311c20 22 51 48 65 48c11 0 37 -28 52 -50c41 -60 65 -146 65 -233c0 -153 -82 -280 -190 -381c-6 -6 -8 -7 -6 -19l25 -145c3 -18 3 -18 29 -18 c147 0 241 -113 241 -241c0 -113 -67 -198 -168 -238c-14 -6 -15 -5 -13 -17c11 -62 29 -157 29 -214c0 -170 -130 -200 -197 -200c-151 0 -190 98 -190 163c0 62 40 115 107 115c61 0 96 -47 96 -102c0 -58 -36 -85 -67 -94c-23 -7 -32 -10 -32 -17c0 -13 26 -29 80 -29 c59 0 159 18 159 166c0 47 -15 134 -27 201c-2 12 -4 11 -15 9c-20 -4 -46 -6 -69 -6zM80 20c0 -139 113 -236 288 -236c20 0 40 2 56 5c15 3 16 3 14 14l-50 298c-2 11 -4 12 -20 8c-61 -17 -100 -60 -100 -117c0 -46 30 -89 72 -107c7 -3 15 -6 15 -13 c0 -6 -4 -11 -12 -11c-7 0 -19 3 -27 6c-68 23 -115 87 -115 177c0 85 57 164 145 194c18 6 18 5 15 24l-21 128c-2 11 -4 12 -14 4c-47 -38 -93 -75 -153 -142c-83 -94 -93 -173 -93 -232zM470 943c-61 0 -133 -96 -133 -252c0 -32 2 -66 6 -92c2 -13 6 -14 13 -8 c79 69 174 159 174 270c0 55 -27 82 -60 82zM441 117c-12 1 -13 -2 -11 -14l49 -285c2 -12 4 -12 16 -6c56 28 94 79 94 142c0 88 -67 156 -148 163z" />
      </symbol>
      <symbol id="E0A4-98689q" viewBox="0 0 1000 1000" overflow="inherit">
         <path transform="scale(1,-1)" d="M0 -42c0 86 88 167 198 167c57 0 97 -32 97 -83c0 -85 -109 -167 -198 -167c-54 0 -97 31 -97 83z" />
      </symbol>
      <symbol id="ED41-98689q" viewBox="0 0 1000 1000" overflow="inherit">
         <path transform="scale(1,-1)" d="M369 -25c0 3 1 6 2 10c3 8 6 14 15 14c1 0 5 -1 9 -2l300 -102c13 -4 13 -10 13 -18s0 -15 -13 -18l-306 -103c-1 -1 -3 -1 -4 -1c-7 0 -11 8 -14 15c-1 3 -2 6 -2 9c0 5 3 10 14 15c0 0 214 73 225 76c6 2 8 4 8 7s-2 6 -7 7c-10 4 -226 77 -226 77c-11 4 -14 9 -14 14z M0 -123c0 8 0 14 13 18l300 102c4 1 8 2 9 2c9 0 12 -6 15 -14c1 -4 2 -7 2 -10c0 -5 -3 -10 -14 -14c0 0 -216 -73 -226 -77c-5 -1 -7 -4 -7 -7s2 -5 8 -7c11 -3 225 -76 225 -76c11 -5 14 -10 14 -15c0 -3 -1 -6 -2 -9c-3 -7 -7 -15 -14 -15c-1 0 -3 0 -4 1l-306 103 c-13 3 -13 10 -13 18z" />
      </symbol>
      <symbol id="E5E5-98689q" viewBox="0 0 1000 1000" overflow="inherit">
         <path transform="scale(1,-1)" d="M0 152h120v120h32v-120h120v-32h-120v-120h-32v120h-120v32z" />
      </symbol>
      <symbol id="E5E7-98689q" viewBox="0 0 1000 1000" overflow="inherit">
         <path transform="scale(1,-1)" d="M0 152c0 84 68 152 152 152s152 -68 152 -152s-68 -152 -152 -152s-152 68 -152 152zM152 272c-66 0 -120 -54 -120 -120s54 -120 120 -120s120 54 120 120s-54 120 -120 120z" />
      </symbol>
      <symbol id="E610-98689q" viewBox="0 0 1000 1000" overflow="inherit">
         <path transform="scale(1,-1)" d="M12 0c-6 0 -12 5 -12 12v280c0 14 12 26 26 26h260c14 0 26 -12 26 -26v-280c0 -7 -6 -12 -12 -12h-13c-7 0 -13 5 -13 12v164c0 11 -59 17 -118 17s-118 -6 -118 -17v-164c0 -7 -6 -12 -12 -12h-14z" />
      </symbol>
      <symbol id="E612-98689q" viewBox="0 0 1000 1000" overflow="inherit">
         <path transform="scale(1,-1)" d="M1 479c0 7 6 14 14 16h4c8 0 15 -5 18 -13l88 -385l89 385c2 8 9 13 17 13h4c9 -2 14 -9 14 -17v-4l-106 -459c-2 -8 -9 -14 -17 -14c-10 0 -17 6 -19 14l-105 459c-1 2 -1 3 -1 5z" />
      </symbol>
      <symbol id="E614-98689q" viewBox="0 0 1000 1000" overflow="inherit">
         <path transform="scale(1,-1)" d="M100 0c-55 0 -100 45 -100 100c0 56 45 100 100 100s100 -44 100 -100c0 -55 -45 -100 -100 -100zM27 100c0 -40 33 -73 73 -73c41 0 73 33 73 73c0 41 -32 73 -73 73c-40 0 -73 -32 -73 -73z" />
      </symbol>
      <symbol id="E631-98689q" viewBox="0 0 1000 1000" overflow="inherit">
         <path transform="scale(1,-1)" d="M100 0c-55 0 -100 44 -100 100c0 49 36 91 84 98v102h32v-102c47 -7 84 -49 84 -98c0 -56 -45 -100 -100 -100zM27 100c0 -41 32 -73 73 -73c40 0 73 32 73 73c0 34 -25 64 -57 71v-71h-32v71c-33 -7 -57 -37 -57 -71z" />
      </symbol>
      <symbol id="E633-98689q" viewBox="0 0 1000 1000" overflow="inherit">
         <path transform="scale(1,-1)" d="M0 152h120v120h32v-120h120v-32h-120v-120h-32v120h-120v32z" />
      </symbol>
      <symbol id="E4A1-98689q" viewBox="0 0 1000 1000" overflow="inherit">
         <path transform="scale(1,-1)" d="M0 -24c0 3 1 6 2 10c3 8 6 14 15 14c1 0 5 -1 9 -2l300 -102c13 -4 13 -10 13 -18s0 -15 -13 -18l-306 -103c-1 -1 -3 -1 -4 -1c-7 0 -11 8 -14 15c-1 3 -2 6 -2 9c0 5 3 10 14 15c0 0 214 73 225 76c6 2 8 4 8 7s-2 6 -7 7c-10 4 -226 77 -226 77c-11 4 -14 9 -14 14z " />
      </symbol>
      <symbol id="E4A3-98689q" viewBox="0 0 1000 1000" overflow="inherit">
         <path transform="scale(1,-1)" d="M42 -84c-23 0 -42 19 -42 42s19 42 42 42s42 -19 42 -42s-19 -42 -42 -42z" />
      </symbol>
      <symbol id="E4A5-98689q" viewBox="0 0 1000 1000" overflow="inherit">
         <path transform="scale(1,-1)" d="M23 -48c-24 0 -24 11 -24 24s0 24 24 24h291c24 0 24 -11 24 -24s-1 -24 -24 -24h-291z" />
      </symbol>
      <symbol id="E4A7-98689q" viewBox="0 0 1000 1000" overflow="inherit">
         <path transform="scale(1,-1)" d="M1 -273c0 15 26 273 49 273c25 0 50 -249 50 -272c0 -15 -23 -23 -50 -23c-26 0 -48 9 -49 22z" />
      </symbol>
      <symbol id="E4A9-98689q" viewBox="0 0 1000 1000" overflow="inherit">
         <path transform="scale(1,-1)" d="M1 -287c17 42 35 185 37 284c0 3 6 3 7 3s7 0 7 -3c2 -98 20 -241 37 -284c0 -1 0 -3 -2 -3c-1 0 -22 4 -42 4c-21 0 -41 -4 -42 -4c-2 0 -2 1 -2 3z" />
      </symbol>
      <symbol id="E4AB-98689q" viewBox="0 0 1000 1000" overflow="inherit">
         <path transform="scale(1,-1)" d="M0 -9c0 5 4 9 9 9h30c5 0 9 -4 9 -9v-272c0 -5 -4 -9 -9 -9h-30c-5 0 -9 4 -9 9v272z" />
      </symbol>
      <symbol id="E4AC-98689q" viewBox="0 0 1000 1000" overflow="inherit">
         <path transform="scale(1,-1)" d="M-1 11c0 2 0 3 1 5l106 231s3 6 10 6c4 0 7 -2 10 -6l108 -231c1 -1 1 -3 1 -5c0 -6 -4 -10 -11 -11h-68c-4 0 -8 2 -11 6c0 0 -56 119 -57 123c-2 2 -4 3 -6 3s-3 -1 -4 -3c-2 -4 -56 -123 -56 -123c-2 -5 -7 -7 -11 -7c-1 0 -4 0 -5 1c-5 1 -7 6 -7 11z" />
      </symbol>
   </defs>
   <style type="text/css">g.page-margin{font-family:Times;} g.ending, g.fing, g.reh, g.tempo{font-weight:bold;} g.dir, g.dynam, g.mNum{font-style:italic;} g.label{font-weight:normal;}</style>
   <svg class="definition-scale" color="black" viewBox="0 0 14430 2530">
      <g class="page-margin" transform="translate(500, 500)">
         <g id="m1tw4wzv" class="mdiv pageMilestone" />
         <g id="sp697ga" class="score pageMilestone" />
         <g id="sg4zd6w" class="system">
            <g id="s1dta1h5" class="section systemMilestone" />
            <g id="mjnqnir" class="measure">
               <g id="s1dylou4" class="staff">
                  <path d="M0 512 L3706 512" stroke="currentColor" stroke-width="13" />
                  <path d="M0 692 L3706 692" stroke="currentColor" stroke-width="13" />
                  <path d="M0 872 L3706 872" stroke="currentColor" stroke-width="13" />
                  <path d="M0 1052 L3706 1052" stroke="currentColor" stroke-width="13" />
                  <path d="M0 1232 L3706 1232" stroke="currentColor" stroke-width="13" />
                  <g id="c1hej374" class="clef">
                     <use xlink:href="#E050-98689q" x="90" y="1052" height="720px" width="720px" />
                  </g>
                  <g id="lytmwh" class="layer">
                     <g id="n7i09vg" class="note">
                        <g class="notehead">
                           <use xlink:href="#E0A4-98689q" x="933" y="1052" height="720px" width="720px" />
                        </g>
                        <g id="s5uu9hg" class="stem">
                           <rect x="1127" y="422" height="600" width="18" />
                        </g>
                        <g id="aix1gun" class="artic">
                           <use xlink:href="#E4A1-98689q" x="917" y="1299" height="720px" width="720px" />
                        </g>
                     </g>
                     <g id="nyn9e6b" class="note">
                        <g class="notehead">
                           <use xlink:href="#E0A4-98689q" x="1623" y="1052" height="720px" width="720px" />
                        </g>
                        <g id="slrvsi3" class="stem">
                           <rect x="1817" y="422" height="600" width="18" />
                        </g>
                        <g id="a2xzin1" class="artic">
                           <use xlink:href="#ED41-98689q" x="1475" y="1322" height="720px" width="720px" />
                        </g>
                     </g>
                     <g id="nkuyk71" class="note">
                        <g class="notehead">
                           <use xlink:href="#E0A4-98689q" x="2313" y="1052" height="720px" width="720px" />
                        </g>
                        <g id="s899b9a" class="stem">
                           <rect x="2507" y="422" height="600" width="18" />
                        </g>
                        <g id="abxbv3h" class="artic">
                           <use xlink:href="#E4A5-98689q" x="2297" y="1305" height="720px" width="720px" />
                        </g>
                     </g>
                     <g id="nu0fv7t" class="note">
                        <g class="notehead">
                           <use xlink:href="#E0A4-98689q" x="3003" y="1052" height="720px" width="720px" />
                        </g>
                        <g id="sgc1dkb" class="stem">
                           <rect x="3197" y="422" height="600" width="18" />
                        </g>
                        <g id="a1yl65yv" class="artic">
                           <use xlink:href="#E4A9-98689q" x="3078" y="1322" height="720px" width="720px" />
                        </g>
                     </g>
                  </g>
               </g>
               <g id="b14je0vy" class="barLine">
                  <path d="M3693 512 L3693 1232" stroke="currentColor" stroke-width="27" />
               </g>
            </g>
            <g id="msm4xho" class="measure">
               <g id="sbxux7u" class="staff">
                  <path d="M3706 512 L6659 512" stroke="currentColor" stroke-width="13" />
                  <path d="M3706 692 L6659 692" stroke="currentColor" stroke-width="13" />
                  <path d="M3706 872 L6659 872" stroke="currentColor" stroke-width="13" />
                  <path d="M3706 1052 L6659 1052" stroke="currentColor" stroke-width="13" />
                  <path d="M3706 1232 L6659 1232" stroke="currentColor" stroke-width="13" />
                  <g id="lilmhuo" class="layer">
                     <g id="n4n0t2w" class="note">
                        <g class="notehead">
                           <use xlink:href="#E0A4-98689q" x="3886" y="1052" height="720px" width="720px" />
                        </g>
                        <g id="s1jbrjp6" class="stem">
                           <rect x="4080" y="422" height="600" width="18" />
                        </g>
                        <g id="ai3zv7g" class="artic">
                           <use xlink:href="#E4AC-98689q" x="3908" y="355" height="720px" width="720px" />
                        </g>
                     </g>
                     <g id="n1l4pem5" class="note">
                        <g class="notehead">
                           <use xlink:href="#E0A4-98689q" x="4576" y="1052" height="720px" width="720px" />
                        </g>
                        <g id="s92yf7g" class="stem">
                           <rect x="4770" y="422" height="600" width="18" />
                        </g>
                        <g id="aehmx63" class="artic">
                           <use xlink:href="#E4A3-98689q" x="4652" y="1292" height="720px" width="720px" />
                        </g>
                     </g>
                     <g id="n1d3c51p" class="note">
                        <g class="notehead">
                           <use xlink:href="#E0A4-98689q" x="5266" y="1052" height="720px" width="720px" />
                        </g>
                        <g id="sv51a32" class="stem">
                           <rect x="5460" y="422" height="600" width="18" />
                        </g>
                        <g id="a1yrm4nc" class="artic">
                           <use xlink:href="#E4A7-98689q" x="5337" y="1322" height="720px" width="720px" />
                        </g>
                     </g>
                     <g id="n1g3x927" class="note">
                        <g class="notehead">
                           <use xlink:href="#E0A4-98689q" x="5956" y="1052" height="720px" width="720px" />
                        </g>
                        <g id="scltp9d" class="stem">
                           <rect x="6150" y="422" height="600" width="18" />
                        </g>
                        <g id="ac5vwuj" class="artic">
                           <use xlink:href="#E4A5-98689q" x="5940" y="1305" height="720px" width="720px" />
                        </g>
                     </g>
                  </g>
               </g>
               <g id="bws15nx" class="barLine">
                  <path d="M6646 512 L6646 1232" stroke="currentColor" stroke-width="27" />
               </g>
            </g>
            <g id="sg4nhxd" class="systemMilestoneEnd s1dta1h5" />
            <g id="su3vep8" class="section systemMilestone" />
            <g id="mu1jfzg" class="measure">
               <g id="sbsbq05" class="staff">
                  <path d="M6659 512 L10302 512" stroke="currentColor" stroke-width="13" />
                  <path d="M6659 692 L10302 692" stroke="currentColor" stroke-width="13" />
                  <path d="M6659 872 L10302 872" stroke="currentColor" stroke-width="13" />
                  <path d="M6659 1052 L10302 1052" stroke="currentColor" stroke-width="13" />
                  <path d="M6659 1232 L10302 1232" stroke="currentColor" stroke-width="13" />
                  <g id="l1qmuw9o" class="layer">
                     <g id="n48qzur" class="note">
                        <g class="notehead">
                           <use xlink:href="#E0A4-98689q" x="6839" y="1052" height="720px" width="720px" />
                        </g>
                        <g id="sn3rq54" class="stem">
                           <rect x="7033" y="422" height="600" width="18" />
                        </g>
                        <g id="a1k3u9kq" class="artic">
                           <use xlink:href="#E610-98689q" x="6833" y="355" height="720px" width="720px" />
                        </g>
                     </g>
                     <g id="n1k6ddvv" class="note">
                        <g class="notehead">
                           <use xlink:href="#E0A4-98689q" x="7529" y="1052" height="720px" width="720px" />
                        </g>
                        <g id="srawxcb" class="stem">
                           <rect x="7723" y="422" height="600" width="18" />
                        </g>
                        <g id="aemlv8x" class="artic">
                           <use xlink:href="#E612-98689q" x="7546" y="355" height="720px" width="720px" />
                        </g>
                     </g>
                     <g id="nk6mz6d" class="note">
                        <g class="notehead">
                           <use xlink:href="#E0A4-98689q" x="8219" y="1052" height="720px" width="720px" />
                        </g>
                        <g id="sqa9nix" class="stem">
                           <rect x="8413" y="422" height="600" width="18" />
                        </g>
                        <g id="aktca60" class="artic">
                           <use xlink:href="#E614-98689q" x="8253" y="355" height="720px" width="720px" />
                        </g>
                     </g>
                     <g id="nu85pms" class="note">
                        <g class="notehead">
                           <use xlink:href="#E0A4-98689q" x="8909" y="1052" height="720px" width="720px" />
                        </g>
                        <g id="sn95n8" class="stem">
                           <rect x="9103" y="422" height="600" width="18" />
                        </g>
                        <g id="a1j2dcaq" class="artic">
                           <use xlink:href="#E631-98689q" x="8943" y="355" height="720px" width="720px" />
                        </g>
                     </g>
                     <g id="n1qhrp3o" class="note">
                        <g class="notehead">
                           <use xlink:href="#E0A4-98689q" x="9599" y="1052" height="720px" width="720px" />
                        </g>
                        <g id="sztdc3h" class="stem">
                           <rect x="9793" y="422" height="600" width="18" />
                        </g>
                        <g id="a1t3x28u" class="artic">
                           <use xlink:href="#E633-98689q" x="9608" y="355" height="720px" width="720px" />
                        </g>
                     </g>
                  </g>
               </g>
               <g id="brjnpna" class="barLine">
                  <path d="M10289 512 L10289 1232" stroke="currentColor" stroke-width="27" />
               </g>
            </g>
            <g id="s1qo5epx" class="systemMilestoneEnd su3vep8" />
            <g id="sokiv8z" class="section systemMilestone" />
            <g id="mwtmulo" class="measure">
               <g id="s1oi7pag" class="staff">
                  <path d="M10302 512 L11875 512" stroke="currentColor" stroke-width="13" />
                  <path d="M10302 692 L11875 692" stroke="currentColor" stroke-width="13" />
                  <path d="M10302 872 L11875 872" stroke="currentColor" stroke-width="13" />
                  <path d="M10302 1052 L11875 1052" stroke="currentColor" stroke-width="13" />
                  <path d="M10302 1232 L11875 1232" stroke="currentColor" stroke-width="13" />
                  <g id="lvvhl8n" class="layer">
                     <g id="n12rooau" class="note">
                        <g class="notehead">
                           <use xlink:href="#E0A4-98689q" x="10482" y="1052" height="720px" width="720px" />
                        </g>
                        <g id="s13f52jf" class="stem">
                           <rect x="10676" y="422" height="600" width="18" />
                        </g>
                        <g id="a1elw8f0" class="artic">
                           <use xlink:href="#E5E7-98689q" x="10479" y="355" height="720px" width="720px" />
                        </g>
                     </g>
                     <g id="n17iyheb" class="note">
                        <g class="notehead">
                           <use xlink:href="#E0A4-98689q" x="11172" y="1052" height="720px" width="720px" />
                        </g>
                        <g id="s1kovwmv" class="stem">
                           <rect x="11366" y="422" height="600" width="18" />
                        </g>
                        <g id="a19luv03" class="artic">
                           <use xlink:href="#E5E5-98689q" x="11181" y="355" height="720px" width="720px" />
                        </g>
                     </g>
                  </g>
               </g>
               <g id="b16gcffg" class="barLine">
                  <path d="M11862 512 L11862 1232" stroke="currentColor" stroke-width="27" />
               </g>
            </g>
            <g id="s1g23m74" class="systemMilestoneEnd sokiv8z" />
            <g id="s1odguoj" class="section systemMilestone" />
            <g id="mqsshzj" class="measure">
               <g id="sl2pye6" class="staff">
                  <path d="M11875 512 L13435 512" stroke="currentColor" stroke-width="13" />
                  <path d="M11875 692 L13435 692" stroke="currentColor" stroke-width="13" />
                  <path d="M11875 872 L13435 872" stroke="currentColor" stroke-width="13" />
                  <path d="M11875 1052 L13435 1052" stroke="currentColor" stroke-width="13" />
                  <path d="M11875 1232 L13435 1232" stroke="currentColor" stroke-width="13" />
                  <g id="lwpab2i" class="layer">
                     <g id="n4n8vbt" class="note">
                        <g class="notehead">
                           <use xlink:href="#E0A4-98689q" x="12055" y="1052" height="720px" width="720px" />
                        </g>
                        <g id="sixdaho" class="stem">
                           <rect x="12249" y="422" height="600" width="18" />
                        </g>
                        <g id="aumz9ip" class="artic">
                           <use xlink:href="#E4A3-98689q" x="12131" y="1322" height="720px" width="720px" />
                        </g>
                     </g>
                     <g id="n1rg4vbo" class="note">
                        <g class="notehead">
                           <use xlink:href="#E0A4-98689q" x="12745" y="1052" height="720px" width="720px" />
                        </g>
                        <g id="seivk2" class="stem">
                           <rect x="12939" y="422" height="600" width="18" />
                        </g>
                        <g id="a2alzj5" class="artic">
                           <use xlink:href="#E4AB-98689q" x="12834" y="1322" height="720px" width="720px" />
                        </g>
                     </g>
                  </g>
               </g>
               <g id="b1xqa7a1" class="barLine" />
            </g>
            <g id="swntacx" class="systemMilestoneEnd s1odguoj" />
         </g>
         <g id="p18bwvu4" class="pageMilestoneEnd sp697ga" />
         <g id="p1a4pt7s" class="pageMilestoneEnd m1tw4wzv" />
      </g>
   </svg>
</svg>
