<svg width="394px" height="303px" version="1.1" xmlns="http://www.w3.org/2000/svg" xmlns:xlink="http://www.w3.org/1999/xlink" xmlns:mei="http://www.music-encoding.org/ns/mei" overflow="visible">
   <desc>Engraved by Verovio 3.12.0-77bd079</desc>
   <defs>
      <symbol id="E050-1u2cuq6" viewBox="0 0 1000 1000" overflow="inherit">
         <path transform="scale(1,-1)" d="M441 -245c-23 -4 -48 -6 -76 -6c-59 0 -102 7 -130 20c-88 42 -150 93 -187 154c-26 44 -43 103 -48 176c0 6 -1 13 -1 19c0 54 15 111 45 170c29 57 65 106 110 148s96 85 153 127c-3 16 -8 46 -13 92c-4 43 -5 73 -5 89c0 117 16 172 69 257c34 54 64 82 89 82 c21 0 43 -30 69 -92s39 -115 41 -159v-15c0 -109 -21 -162 -67 -241c-13 -20 -63 -90 -98 -118c-13 -9 -25 -19 -37 -29l31 -181c8 1 18 2 28 2c58 0 102 -12 133 -35c59 -43 92 -104 98 -184c1 -7 1 -15 1 -22c0 -123 -87 -209 -181 -248c8 -57 17 -110 25 -162 c5 -31 6 -58 6 -80c0 -30 -5 -53 -14 -70c-35 -64 -88 -99 -158 -103c-5 0 -11 -1 -16 -1c-37 0 -72 10 -108 27c-50 24 -77 59 -80 105v11c0 29 7 55 20 76c18 28 45 42 79 44h6c49 0 93 -42 97 -87v-9c0 -51 -34 -86 -105 -106c17 -24 51 -36 102 -36c62 0 116 43 140 85 c9 16 13 41 13 74c0 20 -1 42 -5 67c-8 53 -18 106 -26 159zM461 939c-95 0 -135 -175 -135 -286c0 -24 2 -48 5 -71c50 39 92 82 127 128c40 53 60 100 60 140v8c-4 53 -22 81 -55 81h-2zM406 119l54 -326c73 25 110 78 110 161c0 7 0 15 -1 23c-7 95 -57 142 -151 142h-12 zM382 117c-72 -2 -128 -47 -128 -120v-7c2 -46 43 -99 75 -115c-3 -2 -7 -5 -10 -10c-70 33 -116 88 -123 172v11c0 68 44 126 88 159c23 17 49 29 78 36l-29 170c-21 -13 -52 -37 -92 -73c-50 -44 -86 -84 -109 -119c-45 -69 -67 -130 -67 -182v-13c5 -68 35 -127 93 -176 s125 -73 203 -73c25 0 50 3 75 9c-19 111 -36 221 -54 331z" />
      </symbol>
      <symbol id="E062-1u2cuq6" viewBox="0 0 1000 1000" overflow="inherit">
         <path transform="scale(1,-1)" d="M582 -120c0 32 26 58 58 58s58 -26 58 -58s-26 -58 -58 -58s-58 26 -58 58zM582 120c0 32 26 58 58 58s58 -26 58 -58s-26 -58 -58 -58s-58 26 -58 58zM158 96c51 0 73 -14 88 -49l16 -39c0 -17 -2 -30 -7 -40c-3 -11 -10 -21 -19 -31c-17 -18 -49 -43 -84 -43 c-55 0 -77 13 -112 44c-24 21 -35 55 -35 100c0 46 14 81 32 112c30 52 71 79 137 93l36 6l26 2c154 0 235 -68 274 -182c11 -32 18 -68 18 -107c0 -103 -26 -182 -68 -250c-89 -145 -234 -230 -412 -288l-30 -5c-9 0 -14 3 -14 8c3 10 5 11 10 16c35 15 70 30 96 44l78 43 c96 57 162 136 197 258c9 33 17 60 22 100c3 22 5 35 6 39c-7 69 -16 115 -23 140s-4 22 -16 40c-8 12 -19 23 -31 34c-24 21 -62 44 -118 44c-48 0 -84 -8 -113 -28c-28 -19 -42 -44 -42 -73v-16c2 -5 3 -9 4 -11c24 22 52 39 84 39z" />
      </symbol>
      <symbol id="E084-1u2cuq6" viewBox="0 0 1000 1000" overflow="inherit">
         <path transform="scale(1,-1)" d="M20 -78c84 97 114 180 134 329h170c-13 -32 -82 -132 -99 -151l-84 -97c-33 -36 -59 -63 -80 -81h162v102l127 123v-225h57v-39h-57v-34c0 -43 19 -65 57 -65v-34h-244v36c48 0 60 26 60 70v27h-203v39z" />
      </symbol>
      <symbol id="E0A4-1u2cuq6" viewBox="0 0 1000 1000" overflow="inherit">
         <path transform="scale(1,-1)" d="M0 -39c0 68 73 172 200 172c66 0 114 -37 114 -95c0 -84 -106 -171 -218 -171c-64 0 -96 30 -96 94z" />
      </symbol>
      <symbol id="E4E5-1u2cuq6" viewBox="0 0 1000 1000" overflow="inherit">
         <path transform="scale(1,-1)" d="M107 292c-13 24 -30 49 -52 71c-1 1 0 2 0 3l-2 2c3 3 4 4 6 4c12 0 26 -7 40 -20s44 -40 89 -81c26 -24 28 -29 46 -47c4 -4 8 -9 10 -14c6 -8 8 -16 8 -27c0 -19 -12 -40 -36 -61c-28 -23 -49 -38 -61 -73c-4 -11 -7 -27 -10 -50c13 -43 34 -83 59 -121 c31 -47 59 -79 101 -129c-8 0 -26 7 -54 20l-62 29l-21 6l-23 1c-25 0 -45 -10 -60 -30l-4 -14l-1 -12c0 -33 20 -56 39 -78c8 -9 17 -18 26 -26c17 -15 27 -24 28 -30l-3 -3c-11 5 -19 10 -25 15c-9 3 -37 21 -45 26c-24 14 -45 32 -63 51c-19 21 -37 44 -37 71 c0 63 27 95 80 95c41 0 86 -18 136 -52c-19 26 -37 48 -55 66c-23 23 -48 44 -73 65c-28 23 -47 40 -58 53s-17 26 -18 39c75 64 113 125 113 183c0 27 -7 48 -18 68z" />
      </symbol>
      <symbol id="E4E6-1u2cuq6" viewBox="0 0 1000 1000" overflow="inherit">
         <path transform="scale(1,-1)" d="M0 123c7 34 33 56 69 60c29 -3 43 -9 53 -29c4 -8 7 -15 10 -22c0 -21 -1 -25 -11 -35c-5 -8 -18 -14 -40 -20l12 -3l15 -1c44 0 97 26 122 56c10 11 18 26 24 42c7 1 15 2 22 3l-140 -424h-36l111 330c-10 -6 -27 -12 -53 -16l-52 -8h-10l-20 1c-1 0 -8 3 -21 6 c-37 9 -55 28 -55 60z" />
      </symbol>
      <symbol id="E520-1u2cuq6" viewBox="0 0 1000 1000" overflow="inherit">
         <path transform="scale(1,-1)" d="M23 124h-23c22 43 43 76 62 101s45 37 76 38c6 0 12 -4 18 -13c7 -7 10 -16 10 -27l24 14l25 13c12 5 24 7 37 7c24 0 43 -9 58 -28s22 -44 23 -77c0 -14 -1 -27 -3 -38s-5 -21 -10 -29s-11 -17 -19 -27c-14 -18 -30 -32 -47 -42s-35 -15 -54 -15c-9 0 -20 3 -33 10 c-5 3 -10 7 -15 10s-9 8 -13 14l-56 -158l-3 -4c3 -7 7 -10 12 -11h32v-29h-173v29h21c4 0 9 2 14 5c4 4 7 9 9 14l119 331v6l-3 10l-6 3c-9 0 -17 -4 -25 -12s-16 -18 -23 -31l-11 -17l-10 -20zM197 201c-12 -21 -22 -45 -29 -72c-7 -30 -10 -51 -10 -62 c0 -24 7 -36 22 -36c13 0 23 2 31 7s15 11 21 20c10 17 15 26 16 28c5 11 8 26 10 44s3 31 4 39c0 7 -1 13 -2 18s-3 9 -6 14c-5 9 -15 14 -28 14c-14 0 -24 -5 -29 -14z" />
      </symbol>
      <symbol id="E52B-1u2cuq6" viewBox="0 0 1000 1000" overflow="inherit">
         <path transform="scale(1,-1)" d="M497 201c-12 -21 -22 -45 -29 -72c-7 -30 -10 -51 -10 -62c0 -24 7 -36 22 -36c13 0 23 2 31 7s15 11 21 20c10 17 15 26 16 28c5 11 8 26 10 44s3 31 4 39c0 7 -1 13 -2 18s-3 9 -6 14c-5 9 -15 14 -28 14c-14 0 -24 -5 -29 -14zM197 201c-12 -21 -22 -45 -29 -72 c-7 -30 -10 -51 -10 -62c0 -24 7 -36 22 -36c13 0 23 2 31 7s15 11 21 20c10 17 15 26 16 28c5 11 8 26 10 44s3 31 4 39c0 7 -1 13 -2 18s-3 9 -6 14c-5 9 -15 14 -28 14c-14 0 -24 -5 -29 -14zM23 124h-23c22 43 43 76 62 101s45 37 76 38c6 0 12 -4 18 -13 c7 -7 10 -16 10 -27l24 14l25 13c12 5 24 7 37 7c24 0 43 -9 58 -28c10 -13 18 -30 21 -50c11 18 21 33 31 46c19 25 45 37 76 38c6 0 12 -4 18 -13c7 -7 10 -16 10 -27l24 14l25 13c12 5 24 7 37 7c24 0 43 -9 58 -28s22 -44 23 -77c0 -14 -1 -27 -3 -38s-5 -21 -10 -29 s-11 -17 -19 -27c-14 -18 -30 -32 -47 -42s-35 -15 -54 -15c-9 0 -20 3 -33 10c-5 3 -10 7 -15 10s-9 8 -13 14l-56 -158l-3 -4c3 -7 7 -10 12 -11h32v-29h-173v29h21c4 0 9 2 14 5c4 4 7 9 9 14l119 331v6l-3 10l-6 3c-9 0 -17 -4 -25 -12s-16 -18 -23 -31l-11 -17l-10 -20 l-3 -6c0 -11 -1 -22 -3 -31c-2 -11 -5 -21 -10 -29s-11 -17 -19 -27c-14 -18 -30 -32 -47 -42s-35 -15 -54 -15c-9 0 -20 3 -33 10c-5 3 -10 7 -15 10s-9 8 -13 14l-56 -158l-3 -4c3 -7 7 -10 12 -11h32v-29h-173v29h21c4 0 9 2 14 5c4 4 7 9 9 14l119 331v6l-3 10l-6 3 c-9 0 -17 -4 -25 -12s-16 -18 -23 -31l-11 -17l-10 -20z" />
      </symbol>
      <symbol id="E262-1u2cuq6" viewBox="0 0 1000 1000" overflow="inherit">
         <path transform="scale(1,-1)" d="M136 186v169h17v-164l44 14v-91l-44 -14v-165l44 12v-91l-44 -13v-155h-17v150l-76 -22v-155h-17v149l-43 -13v90l43 14v167l-43 -14v92l43 13v169h17v-163zM60 73v-167l76 22v168z" />
      </symbol>
      <symbol id="E4A2-1u2cuq6" viewBox="0 0 1000 1000" overflow="inherit">
         <path transform="scale(1,-1)" d="M0 48c0 26 22 48 48 48s48 -22 48 -48s-22 -48 -48 -48s-48 22 -48 48z" />
      </symbol>
      <symbol id="E4E4-1u2cuq6" viewBox="0 0 1000 1000" overflow="inherit">
         <path transform="scale(1,-1)" d="M0 10v105c0 9 1 10 10 10h280c9 0 10 -1 10 -10v-105c0 -9 -1 -10 -10 -10h-280c-9 0 -10 1 -10 10z" />
      </symbol>
   </defs>
   <style type="text/css">g.page-margin{font-family:Times;} g.ending, g.fing, g.reh, g.tempo{font-weight:bold;} g.dir, g.dynam, g.mNum{font-style:italic;} g.label{font-weight:normal;}</style>
   <svg class="definition-scale" color="black" viewBox="0 0 7880 6060">
      <g class="page-margin" transform="translate(500, 500)">
         <g id="mxpq47s" class="mdiv pageMilestone" />
         <g id="s1a5656c" class="score pageMilestone" />
         <g id="sab0hpu" class="system">
            <path d="M13 319 L13 4162" stroke="currentColor" stroke-width="27" />
            <g id="g1fgnerf" class="grpSym">
               <path d="M-72,4144 C-432,3604 18,3057 -252,2877 C81,3057 -369,3604 -72,4144" stroke="currentColor" stroke-linecap="round" stroke-linejoin="round" stroke-width="18" />
               <path d="M-72,1609 C-369,2149 81,2697 -252,2877 C18,2697 -432,2149 -72,1609" stroke="currentColor" stroke-linecap="round" stroke-linejoin="round" stroke-width="18" />
            </g>
            <g id="s1lv7468" class="section systemMilestone" />
            <g id="mq5nw14" class="measure upbeat">
               <g id="s4x0b7h" class="staff">
                  <path d="M0 319 L2633 319" stroke="currentColor" stroke-width="10" />
                  <path d="M0 454 L2633 454" stroke="currentColor" stroke-width="10" />
                  <path d="M0 589 L2633 589" stroke="currentColor" stroke-width="10" />
                  <path d="M0 724 L2633 724" stroke="currentColor" stroke-width="10" />
                  <path d="M0 859 L2633 859" stroke="currentColor" stroke-width="10" />
                  <g id="c1jslm7" class="clef">
                     <use xlink:href="#E050-1u2cuq6" x="117" y="724" height="540px" width="540px" />
                  </g>
                  <g id="k197d0wa" class="keySig">
                     <g id="kvr18hx" class="keyAccid">
                        <use xlink:href="#E262-1u2cuq6" x="798" y="319" height="540px" width="540px" />
                     </g>
                  </g>
                  <g id="m1obkqk4" class="meterSig">
                     <use xlink:href="#E084-1u2cuq6" x="1105" y="452" height="540px" width="540px" />
                     <use xlink:href="#E084-1u2cuq6" x="1105" y="722" height="540px" width="540px" />
                  </g>
                  <g id="lv9czic" class="layer">
                     <g id="bsowiky" class="beam">
                        <polygon points="1823,386 2338,319 2338,386 1823,453" />
                        <g id="note-0000000827838925" class="note">
                           <g class="notehead">
                              <use xlink:href="#E0A4-1u2cuq6" x="1667" y="855" height="540px" width="540px" />
                           </g>
                           <g id="sqsukzp" class="stem">
                              <rect x="1823" y="399" height="435" width="12" />
                           </g>
                           <g id="vchiym5" class="verse">
                              <g id="s131b0k3" class="syl">
                                 <text x="1600" y="1226" font-size="0px">
                                    <tspan id="txgg32z" class="text">
                                       <tspan font-size="303px" class="text">Die</tspan>
                                    </tspan>
                                 </text>
                              </g>
                           </g>
                        </g>
                        <g id="note-0000000349216146" class="note">
                           <g class="notehead">
                              <use xlink:href="#E0A4-1u2cuq6" x="2170" y="788" height="540px" width="540px" />
                           </g>
                           <g id="smwsdrq" class="stem">
                              <rect x="2326" y="332" height="435" width="12" />
                           </g>
                           <g id="aaybppe" class="accid" />
                           <g id="v1853997" class="verse">
                              <g id="s19mc6ri" class="syl">
                                 <text x="2103" y="1226" font-size="0px">
                                    <tspan id="t1w6i45f" class="text">
                                       <tspan font-size="303px" class="text">zwei</tspan>
                                    </tspan>
                                 </text>
                              </g>
                           </g>
                        </g>
                     </g>
                  </g>
               </g>
               <g id="s13nbhce" class="staff">
                  <path d="M0 1591 L2633 1591" stroke="currentColor" stroke-width="13" />
                  <path d="M0 1771 L2633 1771" stroke="currentColor" stroke-width="13" />
                  <path d="M0 1951 L2633 1951" stroke="currentColor" stroke-width="13" />
                  <path d="M0 2131 L2633 2131" stroke="currentColor" stroke-width="13" />
                  <path d="M0 2311 L2633 2311" stroke="currentColor" stroke-width="13" />
                  <g id="c4ujrso" class="clef">
                     <use xlink:href="#E050-1u2cuq6" x="117" y="2131" height="720px" width="720px" />
                  </g>
                  <g id="k16xlk3t" class="keySig">
                     <g id="k263nc9" class="keyAccid">
                        <use xlink:href="#E262-1u2cuq6" x="798" y="1591" height="720px" width="720px" />
                     </g>
                  </g>
                  <g id="mut8f33" class="meterSig">
                     <use xlink:href="#E084-1u2cuq6" x="1105" y="1771" height="720px" width="720px" />
                     <use xlink:href="#E084-1u2cuq6" x="1105" y="2131" height="720px" width="720px" />
                  </g>
                  <g class="ledgerLines below">
                     <path d="M1619 2491 L1941 2491" stroke="currentColor" stroke-width="22" />
                     <path d="M2122 2491 L2444 2491" stroke="currentColor" stroke-width="22" />
                     <path d="M1619 2671 L1941 2671" stroke="currentColor" stroke-width="22" />
                  </g>
                  <g id="l1i2a6sb" class="layer">
                     <g id="bowxxxg" class="beam">
                        <polygon points="1875,1591 2396,1546 2396,1636 1875,1681" />
                        <g id="c19gle7u" class="chord">
                           <g id="sybx6fp" class="stem">
                              <rect x="1875" y="1609" height="1124" width="18" />
                           </g>
                           <g id="d1e284" class="note">
                              <g class="notehead">
                                 <use xlink:href="#E0A4-1u2cuq6" x="1667" y="2761" height="720px" width="720px" />
                              </g>
                           </g>
                           <g id="nlgo9sm" class="note">
                              <g class="notehead">
                                 <use xlink:href="#E0A4-1u2cuq6" x="1667" y="2311" height="720px" width="720px" />
                              </g>
                           </g>
                        </g>
                        <g id="c1r0a964" class="chord">
                           <g id="s2q3egg" class="stem">
                              <rect x="2378" y="1564" height="989" width="18" />
                           </g>
                           <g id="d1e323" class="note">
                              <g class="notehead">
                                 <use xlink:href="#E0A4-1u2cuq6" x="2170" y="2581" height="720px" width="720px" />
                              </g>
                           </g>
                           <g id="n1fozttc" class="note">
                              <g class="notehead">
                                 <use xlink:href="#E0A4-1u2cuq6" x="2170" y="2221" height="720px" width="720px" />
                              </g>
                              <g id="a11e7a3e" class="accid" />
                           </g>
                        </g>
                     </g>
                  </g>
               </g>
               <g id="s1i6z1y" class="staff">
                  <path d="M0 3442 L2633 3442" stroke="currentColor" stroke-width="13" />
                  <path d="M0 3622 L2633 3622" stroke="currentColor" stroke-width="13" />
                  <path d="M0 3802 L2633 3802" stroke="currentColor" stroke-width="13" />
                  <path d="M0 3982 L2633 3982" stroke="currentColor" stroke-width="13" />
                  <path d="M0 4162 L2633 4162" stroke="currentColor" stroke-width="13" />
                  <g id="c11wln0m" class="clef">
                     <use xlink:href="#E062-1u2cuq6" x="117" y="3622" height="720px" width="720px" />
                  </g>
                  <g id="ku6zrmo" class="keySig">
                     <g id="k6r5dmy" class="keyAccid">
                        <use xlink:href="#E262-1u2cuq6" x="798" y="3622" height="720px" width="720px" />
                     </g>
                  </g>
                  <g id="mkcqmk7" class="meterSig">
                     <use xlink:href="#E084-1u2cuq6" x="1105" y="3622" height="720px" width="720px" />
                     <use xlink:href="#E084-1u2cuq6" x="1105" y="3982" height="720px" width="720px" />
                  </g>
                  <g id="lf484us" class="layer">
                     <g id="r1hrp4g7" class="rest">
                        <use xlink:href="#E4E5-1u2cuq6" x="1667" y="3802" height="720px" width="720px" />
                     </g>
                  </g>
               </g>
               <g id="dj2uint" class="dynam">
                  <use xlink:href="#E52B-1u2cuq6" x="1667" y="196" height="540px" width="540px" />
               </g>
               <g id="d7ilyh" class="dynam">
                  <use xlink:href="#E52B-1u2cuq6" x="1667" y="3277" height="720px" width="720px" />
               </g>
               <g id="s9u8lnf" class="slur">
                  <path d="M1780,2963 C1909,2999 2202,2893 2281,2783 C2247,2940 1904,3063 1780,2963" stroke="currentColor" stroke-linecap="round" stroke-linejoin="round" stroke-width="9" />
               </g>
               <g id="b1fqvwxu" class="barLine">
                  <path d="M2620 319 L2620 855" stroke="currentColor" stroke-width="27" />
                  <path d="M2620 1591 L2620 2311" stroke="currentColor" stroke-width="27" />
                  <path d="M2620 3442 L2620 4162" stroke="currentColor" stroke-width="27" />
               </g>
            </g>
            <g id="m1qnce9k" class="measure">
               <g id="swr7l4y" class="staff">
                  <path d="M2633 319 L6881 319" stroke="currentColor" stroke-width="10" />
                  <path d="M2633 454 L6881 454" stroke="currentColor" stroke-width="10" />
                  <path d="M2633 589 L6881 589" stroke="currentColor" stroke-width="10" />
                  <path d="M2633 724 L6881 724" stroke="currentColor" stroke-width="10" />
                  <path d="M2633 859 L6881 859" stroke="currentColor" stroke-width="10" />
                  <g id="lacnlp0" class="layer">
                     <g id="b1sbiwpo" class="beam">
                        <polygon points="3027,286 3683,286 3683,353 3027,353" />
                        <polygon points="3514,386 3683,386 3683,453 3514,453" />
                        <g id="d1e379" class="note">
                           <g class="notehead">
                              <use xlink:href="#E0A4-1u2cuq6" x="2871" y="721" height="540px" width="540px" />
                           </g>
                           <g id="d14xwequ" class="dots">
                              <ellipse cx="3106" cy="658" rx="27" ry="27" />
                           </g>
                           <g id="sh3rw8p" class="stem">
                              <rect x="3027" y="299" height="401" width="12" />
                           </g>
                           <g id="vaaj689" class="verse">
                              <g id="swu2ila" class="syl">
                                 <text x="2743" y="1226" font-size="0px">
                                    <tspan id="ty57tf4" class="text">
                                       <tspan font-size="303px" class="text">blau-</tspan>
                                    </tspan>
                                 </text>
                              </g>
                           </g>
                        </g>
                        <g id="d1e401" class="note">
                           <g class="notehead">
                              <use xlink:href="#E0A4-1u2cuq6" x="3515" y="721" height="540px" width="540px" />
                           </g>
                           <g id="s1yzo7m8" class="stem">
                              <rect x="3671" y="299" height="401" width="12" />
                           </g>
                           <g id="v1vb20cc" class="verse">
                              <g id="s86wsxz" class="syl">
                                 <text x="3448" y="1226" font-size="0px">
                                    <tspan id="t16xnnjv" class="text">
                                       <tspan font-size="303px" class="text">en</tspan>
                                    </tspan>
                                 </text>
                              </g>
                           </g>
                        </g>
                     </g>
                     <g id="b1p2dlhq" class="beam">
                        <polygon points="4038,286 4593,286 4593,353 4038,353" />
                        <g id="d1e424" class="note">
                           <g class="notehead">
                              <use xlink:href="#E0A4-1u2cuq6" x="3882" y="721" height="540px" width="540px" />
                           </g>
                           <g id="s1wfl2uo" class="stem">
                              <rect x="4038" y="299" height="401" width="12" />
                           </g>
                           <g id="v218ugk" class="verse">
                              <g id="seylqe7" class="syl">
                                 <text x="3815" y="1226" font-size="0px">
                                    <tspan id="tnpf96t" class="text">
                                       <tspan font-size="303px" class="text">Au-</tspan>
                                    </tspan>
                                 </text>
                              </g>
                           </g>
                        </g>
                        <g id="d1e445" class="note">
                           <g class="notehead">
                              <use xlink:href="#E0A4-1u2cuq6" x="4425" y="721" height="540px" width="540px" />
                           </g>
                           <g id="s1by13il" class="stem">
                              <rect x="4581" y="299" height="401" width="12" />
                           </g>
                           <g id="vqdkfkf" class="verse">
                              <g id="sykjfl" class="syl">
                                 <text x="4358" y="1226" font-size="0px">
                                    <tspan id="t1bzsf3a" class="text">
                                       <tspan font-size="303px" class="text">gen</tspan>
                                    </tspan>
                                 </text>
                              </g>
                           </g>
                        </g>
                     </g>
                     <g id="rs3109" class="rest">
                        <use xlink:href="#E4E6-1u2cuq6" x="4817" y="587" height="540px" width="540px" />
                     </g>
                     <g id="ba34ikp" class="beam">
                        <polygon points="5481,252 6580,319 6580,386 5481,319" />
                        <g id="d1e474" class="note">
                           <g class="notehead">
                              <use xlink:href="#E0A4-1u2cuq6" x="5325" y="721" height="540px" width="540px" />
                           </g>
                           <g id="s127rrty" class="stem">
                              <rect x="5481" y="265" height="435" width="12" />
                           </g>
                           <g id="vbq3xs5" class="verse">
                              <g id="sv33lz4" class="syl">
                                 <text x="5172" y="1226" font-size="0px">
                                    <tspan id="t1an97b6" class="text">
                                       <tspan font-size="303px" class="text">von</tspan>
                                    </tspan>
                                 </text>
                              </g>
                           </g>
                        </g>
                        <g id="d1e495" class="note">
                           <g class="notehead">
                              <use xlink:href="#E0A4-1u2cuq6" x="5775" y="855" height="540px" width="540px" />
                           </g>
                           <g id="s1amct7j" class="stem">
                              <rect x="5931" y="293" height="541" width="12" />
                           </g>
                           <g id="vrxlt51" class="verse">
                              <g id="s146fows" class="syl">
                                 <text x="5708" y="1226" font-size="0px">
                                    <tspan id="t1dtsabx" class="text">
                                       <tspan font-size="303px" class="text">mei-</tspan>
                                    </tspan>
                                 </text>
                              </g>
                           </g>
                        </g>
                        <g id="d1e516" class="note">
                           <g class="notehead">
                              <use xlink:href="#E0A4-1u2cuq6" x="6412" y="788" height="540px" width="540px" />
                           </g>
                           <g id="s18h387y" class="stem">
                              <rect x="6568" y="332" height="435" width="12" />
                           </g>
                           <g id="aadnaz7" class="accid" />
                           <g id="v6q5iof" class="verse">
                              <g id="s6ypcyx" class="syl">
                                 <text x="6345" y="1226" font-size="0px">
                                    <tspan id="tbd7tdt" class="text">
                                       <tspan font-size="303px" class="text">nem</tspan>
                                    </tspan>
                                 </text>
                              </g>
                           </g>
                        </g>
                     </g>
                  </g>
               </g>
               <g id="s1vazr60" class="staff">
                  <path d="M2633 1591 L6881 1591" stroke="currentColor" stroke-width="13" />
                  <path d="M2633 1771 L6881 1771" stroke="currentColor" stroke-width="13" />
                  <path d="M2633 1951 L6881 1951" stroke="currentColor" stroke-width="13" />
                  <path d="M2633 2131 L6881 2131" stroke="currentColor" stroke-width="13" />
                  <path d="M2633 2311 L6881 2311" stroke="currentColor" stroke-width="13" />
                  <g class="ledgerLines below">
                     <path d="M2765 2491 L3087 2491" stroke="currentColor" stroke-width="22" />
                     <path d="M3411 2491 L3729 2491" stroke="currentColor" stroke-width="22" />
                     <path d="M3778 2491 L4096 2491" stroke="currentColor" stroke-width="22" />
                     <path d="M5669 2491 L5991 2491" stroke="currentColor" stroke-width="22" />
                     <path d="M6306 2491 L6628 2491" stroke="currentColor" stroke-width="22" />
                  </g>
                  <g id="l16lfvi7" class="layer">
                     <g id="b9y1jfu" class="beam">
                        <polygon points="3021,1546 3683,1546 3683,1636 3021,1636" />
                        <polygon points="3457,1681 3683,1681 3683,1771 3457,1771" />
                        <g id="cnnkf4z" class="chord">
                           <g id="d1cuxv3r" class="dots">
                              <ellipse cx="3129" cy="2581" rx="36" ry="36" />
                              <ellipse cx="3129" cy="2221" rx="36" ry="36" />
                              <ellipse cx="3129" cy="2041" rx="36" ry="36" />
                           </g>
                           <g id="s1ck7btf" class="stem">
                              <rect x="3021" y="1564" height="989" width="18" />
                           </g>
                           <g id="a1kwj5gk" class="artic">
                              <use xlink:href="#E4A2-1u2cuq6" x="2996" y="1513" height="720px" width="720px" />
                           </g>
                           <g id="d1e540" class="note">
                              <g class="notehead">
                                 <use xlink:href="#E0A4-1u2cuq6" x="2813" y="2581" height="720px" width="720px" />
                              </g>
                           </g>
                           <g id="n4kdcw6" class="note">
                              <g class="notehead">
                                 <use xlink:href="#E0A4-1u2cuq6" x="2813" y="2311" height="720px" width="720px" />
                              </g>
                           </g>
                           <g id="n1xfophj" class="note">
                              <g class="notehead">
                                 <use xlink:href="#E0A4-1u2cuq6" x="2813" y="2131" height="720px" width="720px" />
                              </g>
                           </g>
                        </g>
                        <g id="c1dcki6z" class="chord">
                           <g id="s9x7s1q" class="stem">
                              <rect x="3665" y="1564" height="989" width="18" />
                           </g>
                           <g id="ayoeks3" class="artic">
                              <use xlink:href="#E4A2-1u2cuq6" x="3640" y="1513" height="720px" width="720px" />
                           </g>
                           <g id="n15m9yu0" class="note">
                              <g class="notehead">
                                 <use xlink:href="#E0A4-1u2cuq6" x="3457" y="2581" height="720px" width="720px" />
                              </g>
                           </g>
                           <g id="n1p03vsy" class="note">
                              <g class="notehead">
                                 <use xlink:href="#E0A4-1u2cuq6" x="3457" y="2311" height="720px" width="720px" />
                              </g>
                           </g>
                           <g id="n1fprcxj" class="note">
                              <g class="notehead">
                                 <use xlink:href="#E0A4-1u2cuq6" x="3457" y="2131" height="720px" width="720px" />
                              </g>
                           </g>
                        </g>
                     </g>
                     <g id="c1qjbdg9" class="chord">
                        <g id="s1nmm1ob" class="stem">
                           <rect x="4032" y="1501" height="1052" width="18" />
                        </g>
                        <g id="aqvm9jx" class="artic">
                           <use xlink:href="#E4A2-1u2cuq6" x="4007" y="1468" height="720px" width="720px" />
                        </g>
                        <g id="d1e656" class="note">
                           <g class="notehead">
                              <use xlink:href="#E0A4-1u2cuq6" x="3824" y="2581" height="720px" width="720px" />
                           </g>
                        </g>
                        <g id="nfrjbim" class="note">
                           <g class="notehead">
                              <use xlink:href="#E0A4-1u2cuq6" x="3824" y="2311" height="720px" width="720px" />
                           </g>
                        </g>
                        <g id="ntlzd8y" class="note">
                           <g class="notehead">
                              <use xlink:href="#E0A4-1u2cuq6" x="3824" y="2131" height="720px" width="720px" />
                           </g>
                        </g>
                     </g>
                     <g id="rxiwc9a" class="rest">
                        <use xlink:href="#E4E5-1u2cuq6" x="4817" y="1951" height="720px" width="720px" />
                     </g>
                     <g id="bap12pb" class="beam">
                        <polygon points="5925,1681 6580,1591 6580,1681 5925,1771" />
                        <g id="cceztrw" class="chord">
                           <g id="s1lhryf7" class="stem">
                              <rect x="5925" y="1699" height="764" width="18" />
                           </g>
                           <g id="aoj2fbj" class="artic">
                              <use xlink:href="#E4A2-1u2cuq6" x="5900" y="1625" height="720px" width="720px" />
                           </g>
                           <g id="d1e720" class="note">
                              <g class="notehead">
                                 <use xlink:href="#E0A4-1u2cuq6" x="5717" y="2491" height="720px" width="720px" />
                              </g>
                           </g>
                           <g id="n1mcs061" class="note">
                              <g class="notehead">
                                 <use xlink:href="#E0A4-1u2cuq6" x="5717" y="2311" height="720px" width="720px" />
                              </g>
                           </g>
                        </g>
                        <g id="c195eyks" class="chord">
                           <g id="sil8d39" class="stem">
                              <rect x="6562" y="1609" height="944" width="18" />
                           </g>
                           <g id="a74dk8n" class="artic">
                              <use xlink:href="#E4A2-1u2cuq6" x="6537" y="1558" height="720px" width="720px" />
                           </g>
                           <g id="d1e760" class="note">
                              <g class="notehead">
                                 <use xlink:href="#E0A4-1u2cuq6" x="6354" y="2581" height="720px" width="720px" />
                              </g>
                           </g>
                           <g id="nnzq7v5" class="note">
                              <g class="notehead">
                                 <use xlink:href="#E0A4-1u2cuq6" x="6354" y="2221" height="720px" width="720px" />
                              </g>
                              <g id="a1nxqr8r" class="accid" />
                           </g>
                        </g>
                     </g>
                  </g>
               </g>
               <g id="sbvrfvv" class="staff">
                  <path d="M2633 3442 L6881 3442" stroke="currentColor" stroke-width="13" />
                  <path d="M2633 3622 L6881 3622" stroke="currentColor" stroke-width="13" />
                  <path d="M2633 3802 L6881 3802" stroke="currentColor" stroke-width="13" />
                  <path d="M2633 3982 L6881 3982" stroke="currentColor" stroke-width="13" />
                  <path d="M2633 4162 L6881 4162" stroke="currentColor" stroke-width="13" />
                  <g class="ledgerLines below">
                     <path d="M2765 4342 L3087 4342" stroke="currentColor" stroke-width="22" />
                     <path d="M2765 4522 L3087 4522" stroke="currentColor" stroke-width="22" />
                     <path d="M2765 4702 L3087 4702" stroke="currentColor" stroke-width="22" />
                     <path d="M2765 4882 L3087 4882" stroke="currentColor" stroke-width="22" />
                  </g>
                  <g id="l10rfg4x" class="layer">
                     <g id="c1jg0cui" class="chord">
                        <g id="s1ob0utp" class="stem">
                           <rect x="3021" y="3712" height="1232" width="18" />
                        </g>
                        <g id="nxvpe50" class="note">
                           <g class="notehead">
                              <use xlink:href="#E0A4-1u2cuq6" x="2813" y="4972" height="720px" width="720px" />
                           </g>
                        </g>
                        <g id="nga0tl6" class="note">
                           <g class="notehead">
                              <use xlink:href="#E0A4-1u2cuq6" x="2813" y="4342" height="720px" width="720px" />
                           </g>
                        </g>
                     </g>
                     <g id="cbdue0" class="chord">
                        <g id="shn1iaz" class="stem">
                           <rect x="3824" y="3560" height="962" width="18" />
                        </g>
                        <g id="n14ldvz1" class="note">
                           <g class="notehead">
                              <use xlink:href="#E0A4-1u2cuq6" x="3824" y="3982" height="720px" width="720px" />
                           </g>
                        </g>
                        <g id="n1drbmze" class="note">
                           <g class="notehead">
                              <use xlink:href="#E0A4-1u2cuq6" x="3824" y="3712" height="720px" width="720px" />
                           </g>
                        </g>
                        <g id="n1hq7e7t" class="note">
                           <g class="notehead">
                              <use xlink:href="#E0A4-1u2cuq6" x="3824" y="3532" height="720px" width="720px" />
                           </g>
                        </g>
                     </g>
                     <g id="rqckek3" class="rest">
                        <use xlink:href="#E4E4-1u2cuq6" x="4817" y="3802" height="720px" width="720px" />
                        <g class="ledgerLines" />
                     </g>
                  </g>
               </g>
               <g id="d1wwmbcy" class="dynam">
                  <use xlink:href="#E520-1u2cuq6" x="5267" y="142" height="540px" width="540px" />
               </g>
               <g id="d1muroqs" class="dynam">
                  <use xlink:href="#E520-1u2cuq6" x="5717" y="3079" height="720px" width="720px" />
               </g>
               <g id="s17sd03b" class="slur">
                  <path d="M2926,2783 C3161,2957 3701,2957 3937,2783 C3724,3015 3138,3015 2926,2783" stroke="currentColor" stroke-linecap="round" stroke-linejoin="round" stroke-width="9" />
               </g>
               <g id="s1dpi33q" class="slur">
                  <path d="M5830,2693 C5949,2810 6315,2862 6465,2781 C6332,2922 5916,2864 5830,2693" stroke="currentColor" stroke-linecap="round" stroke-linejoin="round" stroke-width="9" />
               </g>
               <g id="b8phg6z" class="barLine">
                  <path d="M6868 319 L6868 855" stroke="currentColor" stroke-width="27" />
                  <path d="M6868 1591 L6868 2311" stroke="currentColor" stroke-width="27" />
                  <path d="M6868 3442 L6868 4162" stroke="currentColor" stroke-width="27" />
               </g>
            </g>
            <g id="s1j0vms3" class="systemMilestoneEnd s1lv7468" />
         </g>
         <g id="p83oa7g" class="pageMilestoneEnd s1a5656c" />
         <g id="p18d53nn" class="pageMilestoneEnd mxpq47s" />
      </g>
   </svg>
</svg>
