<svg width="395.5px" height="305.5px" version="1.1" xmlns="http://www.w3.org/2000/svg" xmlns:xlink="http://www.w3.org/1999/xlink" xmlns:mei="http://www.music-encoding.org/ns/mei" overflow="visible">
   <desc>Engraved by Verovio 3.4.1-8f65a58</desc>
   <defs>
      <symbol id="E050-0000001683594809" viewBox="0 0 1000 1000" overflow="inherit">
         <path transform="scale(1,-1)" d="M364 -252c-245 0 -364 165 -364 339c0 202 153 345 297 464c12 10 11 12 9 24c-7 41 -14 106 -14 164c0 104 24 229 98 311c20 22 51 48 65 48c11 0 37 -28 52 -50c41 -60 65 -146 65 -233c0 -153 -82 -280 -190 -381c-6 -6 -8 -7 -6 -19l25 -145c3 -18 3 -18 29 -18 c147 0 241 -113 241 -241c0 -113 -67 -198 -168 -238c-14 -6 -15 -5 -13 -17c11 -62 29 -157 29 -214c0 -170 -130 -200 -197 -200c-151 0 -190 98 -190 163c0 62 40 115 107 115c61 0 96 -47 96 -102c0 -58 -36 -85 -67 -94c-23 -7 -32 -10 -32 -17c0 -13 26 -29 80 -29 c59 0 159 18 159 166c0 47 -15 134 -27 201c-2 12 -4 11 -15 9c-20 -4 -46 -6 -69 -6zM80 20c0 -139 113 -236 288 -236c20 0 40 2 56 5c15 3 16 3 14 14l-50 298c-2 11 -4 12 -20 8c-61 -17 -100 -60 -100 -117c0 -46 30 -89 72 -107c7 -3 15 -6 15 -13 c0 -6 -4 -11 -12 -11c-7 0 -19 3 -27 6c-68 23 -115 87 -115 177c0 85 57 164 145 194c18 6 18 5 15 24l-21 128c-2 11 -4 12 -14 4c-47 -38 -93 -75 -153 -142c-83 -94 -93 -173 -93 -232zM470 943c-61 0 -133 -96 -133 -252c0 -32 2 -66 6 -92c2 -13 6 -14 13 -8 c79 69 174 159 174 270c0 55 -27 82 -60 82zM441 117c-12 1 -13 -2 -11 -14l49 -285c2 -12 4 -12 16 -6c56 28 94 79 94 142c0 88 -67 156 -148 163z" />
      </symbol>
      <symbol id="E062-0000001683594809" viewBox="0 0 1000 1000" overflow="inherit">
         <path transform="scale(1,-1)" d="M8 -635c-9 0 -13 6 -13 12c0 8 6 13 15 18c233 133 371 289 371 568c0 157 -46 261 -152 261c-102 0 -162 -73 -162 -113c0 -10 3 -18 16 -18s23 7 50 7c49 0 96 -40 96 -104c0 -62 -43 -106 -106 -106c-81 0 -123 69 -123 149c0 96 78 223 252 223 c173 0 279 -116 279 -290c0 -304 -260 -482 -506 -602c-6 -3 -12 -5 -17 -5zM629 70c-31 0 -55 24 -55 55s24 55 55 55s55 -24 55 -55s-24 -55 -55 -55zM630 -179c-31 0 -54 23 -54 54s23 54 54 54s54 -23 54 -54s-23 -54 -54 -54z" />
      </symbol>
      <symbol id="E084-0000001683594809" viewBox="0 0 1000 1000" overflow="inherit">
         <path transform="scale(1,-1)" d="M40 -112c-12 0 -20 7 -20 17c0 3 1 7 3 11c0 1 1 2 1 3l6 8c30 42 128 181 128 305c0 16 14 19 23 19c8 0 53 -2 71 -2s59 2 68 2c8 0 15 -6 15 -14c0 -2 -1 -3 -1 -5c-3 -11 -163 -238 -243 -306h135v84c0 12 5 18 9 23l95 115c6 7 11 9 20 9c11 0 12 -9 12 -17v-214h73 c11 0 15 -7 15 -19s-5 -19 -15 -19h-73v-59c0 -32 21 -38 31 -38s22 -6 22 -20s-10 -21 -20 -21h-213c-15 0 -19 11 -19 21s7 19 23 19c18 0 40 8 40 35v63h-186z" />
      </symbol>
      <symbol id="E0A4-0000001683594809" viewBox="0 0 1000 1000" overflow="inherit">
         <path transform="scale(1,-1)" d="M0 -42c0 86 88 167 198 167c57 0 97 -32 97 -83c0 -85 -109 -167 -198 -167c-54 0 -97 31 -97 83z" />
      </symbol>
      <symbol id="E262-0000001683594809" viewBox="0 0 1000 1000" overflow="inherit">
         <path transform="scale(1,-1)" d="M8 26c-5 0 -8 3 -8 9v71c0 6 5 14 12 16c0 0 20 8 26 11s12 13 12 27v135c0 6 6 11 16 11c7 0 14 -5 14 -11v-120c0 -8 3 -20 12 -20c17 4 51 18 63 25c9 6 12 19 13 29v130c0 6 6 11 16 11c8 0 14 -5 14 -11v-122c0 -8 7 -13 14 -13c5 1 25 9 25 9c2 1 3 1 5 1 c4 0 7 -3 7 -8v-71c0 -6 -5 -14 -12 -17l-26 -10c-8 -3 -13 -22 -13 -29v-93c0 -12 7 -18 13 -18l26 10c2 1 3 1 5 1c4 0 7 -3 7 -8v-71c0 -6 -5 -14 -12 -17c0 0 -21 -8 -28 -11s-11 -15 -11 -23v-142c0 -6 -6 -11 -17 -11c-7 0 -13 5 -13 11v125c0 6 -5 18 -13 18 c-1 0 -3 -1 -4 -1l-61 -25c-5 -2 -10 -9 -10 -22v-139c0 -6 -7 -11 -17 -11c-7 0 -13 5 -13 11v123c0 5 -5 16 -12 16c-1 0 -2 0 -3 -1c-9 -3 -23 -9 -23 -9c-1 0 -3 -1 -4 -1c-5 0 -8 3 -8 9v71c0 6 5 14 12 16c0 0 21 9 27 11c6 3 11 12 11 23v99c0 8 -6 18 -13 18 c-1 0 -2 -1 -3 -1c-3 -2 -22 -11 -26 -11zM77 -30c0 -24 1 -46 3 -50c1 -3 6 -5 12 -5c23 0 70 20 76 40c2 9 4 37 4 64s-2 52 -4 57c-2 4 -8 6 -15 6c-25 0 -71 -21 -73 -38c-2 -8 -3 -43 -3 -74z" />
      </symbol>
      <symbol id="E4A2-0000001683594809" viewBox="0 0 1000 1000" overflow="inherit">
         <path transform="scale(1,-1)" d="M42 0c-23 0 -42 19 -42 42s19 42 42 42s42 -19 42 -42s-19 -42 -42 -42z" />
      </symbol>
      <symbol id="E4E4-0000001683594809" viewBox="0 0 1000 1000" overflow="inherit">
         <path transform="scale(1,-1)" d="M26 -2c-15 0 -26 12 -26 26v92c0 15 11 26 26 26h230c14 0 26 -11 26 -26v-92c0 -14 -12 -26 -26 -26h-230z" />
      </symbol>
      <symbol id="E4E5-0000001683594809" viewBox="0 0 1000 1000" overflow="inherit">
         <path transform="scale(1,-1)" d="M117 -366c-73 56 -116 105 -116 155c0 53 39 96 82 96c5 0 11 -3 16 -3c4 -1 12 -3 16 -3c5 0 9 1 11 5c1 1 1 3 1 4c0 2 -4 10 -6 14c-13 21 -27 40 -43 60l-49 60s-10 10 -10 24c0 8 4 19 14 29c45 47 60 90 60 127c0 72 -57 123 -61 134c-3 6 -4 11 -4 16 c0 14 10 21 20 21c6 0 13 -3 18 -8c17 -17 165 -193 165 -193s4 -9 4 -19c0 -5 -1 -10 -4 -15c-26 -41 -62 -89 -66 -147c0 -4 -1 -9 -1 -13c0 -56 31 -93 69 -139c11 -12 37 -45 37 -57c0 -3 -2 -4 -5 -4c-2 0 -4 0 -7 1c-1 0 -2 1 -3 1c-16 6 -49 17 -78 17 c-42 0 -63 -32 -63 -73c0 -9 1 -18 4 -26c2 -9 13 -36 26 -36c8 -7 16 -15 16 -24c0 -2 -1 -4 -2 -7c-1 -4 -8 -6 -15 -6c-8 0 -18 3 -26 9z" />
      </symbol>
      <symbol id="E4E6-0000001683594809" viewBox="0 0 1000 1000" overflow="inherit">
         <path transform="scale(1,-1)" d="M27 56c-15 12 -27 30 -27 51c0 37 30 67 67 67s67 -30 67 -67v-10c33 0 83 60 90 66c6 4 9 4 11 4c2 -1 12 -6 12 -16c-1 -5 -6 -21 -10 -39c0 0 -98 -351 -101 -353c-10 -8 -24 -10 -35 -10c-6 0 -29 1 -29 13c18 66 90 265 93 280c1 4 1 8 1 11c0 5 -1 9 -5 9 c-1 0 -3 0 -5 -1c-13 -7 -22 -11 -36 -15c-11 -4 -25 -7 -39 -7c-19 0 -38 6 -54 17z" />
      </symbol>
      <symbol id="E520-0000001683594809" viewBox="0 0 1000 1000" overflow="inherit">
         <path transform="scale(1,-1)" d="M-89 -130c0 9 4 13 13 13h31c10 0 12 2 15 10l123 305c3 7 6 17 6 25c0 7 -3 12 -11 12c-18 0 -38 -26 -67 -76c-5 -9 -9 -15 -16 -15c-6 0 -11 4 -11 11c0 5 2 10 7 19c31 57 63 99 122 99c26 0 41 -9 48 -21c9 -17 6 -24 11 -24c4 0 7 8 21 20c18 16 40 26 71 26 c56 0 92 -31 92 -89c0 -95 -78 -195 -174 -195c-17 0 -30 2 -44 9c-16 8 -19 18 -24 18s-7 -7 -9 -12l-45 -112c-1 -3 -2 -6 -2 -7c0 -3 3 -3 9 -3h40c8 0 12 -4 12 -12c0 -9 -4 -13 -13 -13h-193c-8 0 -12 4 -12 12zM144 56c0 -21 8 -32 25 -32c48 0 101 127 101 176 c0 22 -6 37 -23 37c-24 0 -50 -29 -64 -63l-20 -49c-11 -28 -19 -48 -19 -69z" />
      </symbol>
      <symbol id="E52B-0000001683594809" viewBox="0 0 1000 1000" overflow="inherit">
         <path transform="scale(1,-1)" d="M-70 -142c-8 0 -12 4 -12 12c0 9 4 13 13 13h31c10 0 12 2 15 10l123 305c3 7 6 17 6 25c0 7 -3 12 -11 12c-18 0 -38 -26 -67 -76c-5 -9 -9 -15 -16 -15c-6 0 -11 4 -11 11c0 5 2 10 7 19c31 57 63 99 122 99c26 0 41 -9 48 -21c9 -17 6 -24 11 -24c4 0 7 8 21 20 c18 16 40 26 71 26c56 0 92 -31 92 -89c0 -95 -78 -195 -174 -195c-17 0 -30 2 -44 9c-16 8 -19 18 -24 18s-7 -7 -9 -12l-45 -112c-1 -3 -2 -6 -2 -7c0 -3 3 -3 9 -3h40c8 0 12 -4 12 -12c0 -9 -4 -13 -13 -13h-193zM285 -142c-8 0 -12 4 -12 12c0 9 4 13 13 13h31 c10 0 12 2 15 10l123 305c3 7 6 17 6 25c0 7 -3 12 -11 12c-15 0 -28 -17 -38 -30c-2 -2 -4 -6 -4 -6c-5 -7 -9 -12 -16 -12c-6 0 -11 3 -11 10c0 5 2 10 8 19c22 31 48 57 96 57c26 0 41 -9 48 -21c9 -17 6 -24 11 -24c4 0 7 8 21 20c18 16 40 26 71 26c56 0 92 -31 92 -89 c0 -95 -78 -195 -174 -195c-17 0 -30 2 -44 9c-16 8 -19 18 -24 18s-7 -7 -9 -12l-45 -112c-1 -3 -2 -6 -2 -7c0 -3 3 -3 9 -3h40c8 0 12 -4 12 -12c0 -9 -4 -13 -13 -13h-193zM506 56c0 -21 8 -32 25 -32c48 0 101 127 101 176c0 22 -6 37 -23 37c-24 0 -50 -29 -64 -63 l-20 -49c-11 -28 -19 -48 -19 -69zM151 56c0 -21 8 -32 25 -32c48 0 101 127 101 176c0 22 -6 37 -23 37c-24 0 -50 -29 -64 -63l-20 -49c-11 -28 -19 -48 -19 -69z" />
      </symbol>
   </defs>
   <style type="text/css">g.page-margin{font-family:Times;} g.ending, g.reh, g.tempo{font-weight:bold;} g.dir, g.dynam, g.mNum{font-style:italic;} g.label{font-weight:normal;}</style>
   <svg class="definition-scale" color="black" viewBox="0 0 7910 6110">
      <g class="page-margin" transform="translate(500, 500)">
         <g id="system-0000000118615017" class="system">
            <path d="M13 324 L13 4172" stroke="currentColor" stroke-width="27" />
            <g id="grpsym-0000000054657152" class="grpSym">
               <path d="M-72,4154 C-432,3614 18,3063 -252,2883 C81,3063 -369,3614 -72,4154" stroke="currentColor" stroke-linecap="round" stroke-linejoin="round" stroke-width="18" />
               <path d="M-72,1611 C-369,2151 81,2703 -252,2883 C18,2703 -432,2151 -72,1611" stroke="currentColor" stroke-linecap="round" stroke-linejoin="round" stroke-width="18" />
            </g>
            <g id="section-0000001530720204" class="section boundaryStart" />
            <g id="measure-0000002107861215" class="measure upbeat">
               <g id="staff-0000000755687536" class="staff">
                  <path d="M0 324 L2670 324" stroke="currentColor" stroke-width="10" />
                  <path d="M0 459 L2670 459" stroke="currentColor" stroke-width="10" />
                  <path d="M0 594 L2670 594" stroke="currentColor" stroke-width="10" />
                  <path d="M0 729 L2670 729" stroke="currentColor" stroke-width="10" />
                  <path d="M0 864 L2670 864" stroke="currentColor" stroke-width="10" />
                  <g id="clef-0000001065843883" class="clef">
                     <use xlink:href="#E050-0000001683594809" x="93" y="729" height="540px" width="540px" />
                  </g>
                  <g id="keysig-0000001477041954" class="keySig">
                     <use xlink:href="#E262-0000001683594809" x="766" y="324" height="540px" width="540px" />
                  </g>
                  <g id="msig-0000001880645205" class="meterSig">
                     <use xlink:href="#E084-0000001683594809" x="1111" y="457" height="540px" width="540px" />
                     <use xlink:href="#E084-0000001683594809" x="1111" y="727" height="540px" width="540px" />
                  </g>
                  <g id="layer-0000000622129194" class="layer">
                     <g id="beam-0000000027486315" class="beam">
                        <polygon points="1851,391 2366,324 2366,391 1851,458 " />
                        <g id="note-0000000827838925" class="note">
                           <g class="notehead">
                              <use xlink:href="#E0A4-0000001683594809" x="1704" y="860" height="540px" width="540px" />
                           </g>
                           <g id="stem-0000000947029545" class="stem">
                              <rect x="1851" y="404" height="434" width="12" />
                           </g>
                           <g id="verse-0000000170309052" class="verse">
                              <g id="syl-0000001936019160" class="syl">
                                 <text x="1637" y="1231" font-size="0px">
                                    <tspan id="text-0000000001802776" class="text">
                                       <tspan font-size="303px" class="text">Die</tspan>
                                    </tspan>
                                 </text>
                              </g>
                           </g>
                        </g>
                        <g id="note-0000000349216146" class="note">
                           <g class="notehead">
                              <use xlink:href="#E0A4-0000001683594809" x="2207" y="793" height="540px" width="540px" />
                           </g>
                           <g id="stem-0000001724254898" class="stem">
                              <rect x="2354" y="337" height="434" width="12" />
                           </g>
                           <g id="accid-0000000359827173" class="accid" />
                           <g id="verse-0000000301346659" class="verse">
                              <g id="syl-0000000966858187" class="syl">
                                 <text x="2140" y="1231" font-size="0px">
                                    <tspan id="text-0000002124275707" class="text">
                                       <tspan font-size="303px" class="text">zwei</tspan>
                                    </tspan>
                                 </text>
                              </g>
                           </g>
                        </g>
                     </g>
                  </g>
               </g>
               <g id="staff-0000000786176174" class="staff">
                  <path d="M0 1593 L2670 1593" stroke="currentColor" stroke-width="13" />
                  <path d="M0 1773 L2670 1773" stroke="currentColor" stroke-width="13" />
                  <path d="M0 1953 L2670 1953" stroke="currentColor" stroke-width="13" />
                  <path d="M0 2133 L2670 2133" stroke="currentColor" stroke-width="13" />
                  <path d="M0 2313 L2670 2313" stroke="currentColor" stroke-width="13" />
                  <g id="clef-0000001339643889" class="clef">
                     <use xlink:href="#E050-0000001683594809" x="93" y="2133" height="720px" width="720px" />
                  </g>
                  <g id="keysig-0000001176287275" class="keySig">
                     <use xlink:href="#E262-0000001683594809" x="766" y="1593" height="720px" width="720px" />
                  </g>
                  <g id="msig-0000000125776643" class="meterSig">
                     <use xlink:href="#E084-0000001683594809" x="1111" y="1773" height="720px" width="720px" />
                     <use xlink:href="#E084-0000001683594809" x="1111" y="2133" height="720px" width="720px" />
                  </g>
                  <g class="ledgerLines below">
                     <path d="M1671 2493 L1940 2493" stroke="currentColor" stroke-width="22" />
                     <path d="M2174 2493 L2443 2493" stroke="currentColor" stroke-width="22" />
                     <path d="M1671 2673 L1940 2673" stroke="currentColor" stroke-width="22" />
                  </g>
                  <g id="layer-0000001943560074" class="layer">
                     <g id="beam-0000000040409201" class="beam">
                        <polygon points="1898,1593 2419,1548 2419,1638 1898,1683 " />
                        <g id="chord-0000000552608755" class="chord">
                           <g id="stem-0000001407738068" class="stem">
                              <rect x="1898" y="1611" height="1122" width="18" />
                           </g>
                           <g id="d1e284" class="note">
                              <g class="notehead">
                                 <use xlink:href="#E0A4-0000001683594809" x="1704" y="2763" height="720px" width="720px" />
                              </g>
                           </g>
                           <g id="note-0000000732826344" class="note">
                              <g class="notehead">
                                 <use xlink:href="#E0A4-0000001683594809" x="1704" y="2313" height="720px" width="720px" />
                              </g>
                           </g>
                        </g>
                        <g id="chord-0000000793648063" class="chord">
                           <g id="stem-0000001026369877" class="stem">
                              <rect x="2401" y="1566" height="987" width="18" />
                           </g>
                           <g id="d1e323" class="note">
                              <g class="notehead">
                                 <use xlink:href="#E0A4-0000001683594809" x="2207" y="2583" height="720px" width="720px" />
                              </g>
                           </g>
                           <g id="note-0000001655985317" class="note">
                              <g class="notehead">
                                 <use xlink:href="#E0A4-0000001683594809" x="2207" y="2223" height="720px" width="720px" />
                              </g>
                              <g id="accid-0000000757157699" class="accid" />
                           </g>
                        </g>
                     </g>
                  </g>
               </g>
               <g id="staff-0000001708838618" class="staff">
                  <path d="M0 3452 L2670 3452" stroke="currentColor" stroke-width="13" />
                  <path d="M0 3632 L2670 3632" stroke="currentColor" stroke-width="13" />
                  <path d="M0 3812 L2670 3812" stroke="currentColor" stroke-width="13" />
                  <path d="M0 3992 L2670 3992" stroke="currentColor" stroke-width="13" />
                  <path d="M0 4172 L2670 4172" stroke="currentColor" stroke-width="13" />
                  <g id="clef-0000000804130253" class="clef">
                     <use xlink:href="#E062-0000001683594809" x="93" y="3632" height="720px" width="720px" />
                  </g>
                  <g id="keysig-0000000902571600" class="keySig">
                     <use xlink:href="#E262-0000001683594809" x="766" y="3632" height="720px" width="720px" />
                  </g>
                  <g id="msig-0000001843882439" class="meterSig">
                     <use xlink:href="#E084-0000001683594809" x="1111" y="3632" height="720px" width="720px" />
                     <use xlink:href="#E084-0000001683594809" x="1111" y="3992" height="720px" width="720px" />
                  </g>
                  <g id="layer-0000000004357748" class="layer">
                     <g id="rest-0000000226226638" class="rest">
                        <use xlink:href="#E4E5-0000001683594809" x="1704" y="3812" height="720px" width="720px" />
                     </g>
                  </g>
               </g>
               <g id="dynam-0000001145049676" class="dynam">
                  <use xlink:href="#E52B-0000001683594809" x="1704" y="215" height="540px" width="540px" />
               </g>
               <g id="dynam-0000001492692577" class="dynam">
                  <use xlink:href="#E52B-0000001683594809" x="1704" y="3305" height="720px" width="720px" />
               </g>
               <g id="slur-0000002053644760" class="slur">
                  <path d="M1810,2965 C1947,3035 2247,2926 2309,2784 C2268,2983 1968,3092 1810,2965" stroke="currentColor" stroke-linecap="round" stroke-linejoin="round" stroke-width="9" />
               </g>
               <g id="bline-0000001972862688" class="barLineAttr">
                  <path d="M2657 864 L2657 324" stroke="currentColor" stroke-width="27" />
                  <path d="M2657 2313 L2657 1593" stroke="currentColor" stroke-width="27" />
                  <path d="M2657 4172 L2657 3452" stroke="currentColor" stroke-width="27" />
               </g>
            </g>
            <g id="measure-0000001250306736" class="measure">
               <g id="staff-0000002057516791" class="staff">
                  <path d="M2670 324 L6918 324" stroke="currentColor" stroke-width="10" />
                  <path d="M2670 459 L6918 459" stroke="currentColor" stroke-width="10" />
                  <path d="M2670 594 L6918 594" stroke="currentColor" stroke-width="10" />
                  <path d="M2670 729 L6918 729" stroke="currentColor" stroke-width="10" />
                  <path d="M2670 864 L6918 864" stroke="currentColor" stroke-width="10" />
                  <g id="layer-0000001903022343" class="layer">
                     <g id="beam-0000001622564030" class="beam">
                        <polygon points="2997,291 3711,291 3711,358 2997,358 " />
                        <polygon points="3552,391 3711,391 3711,458 3552,458 " />
                        <g id="d1e379" class="note">
                           <g class="notehead">
                              <use xlink:href="#E0A4-0000001683594809" x="2850" y="726" height="540px" width="540px" />
                           </g>
                           <g id="dots-0000000939209692" class="dots">
                              <ellipse cx="3075" cy="663" rx="27" ry="27" />
                           </g>
                           <g id="stem-0000001609870035" class="stem">
                              <rect x="2997" y="304" height="400" width="12" />
                           </g>
                           <g id="verse-0000001346175969" class="verse">
                              <g id="syl-0000001439289838" class="syl">
                                 <text x="2780" y="1231" font-size="0px">
                                    <tspan id="text-0000000888507458" class="text">
                                       <tspan font-size="303px" class="text">blau-</tspan>
                                    </tspan>
                                 </text>
                              </g>
                           </g>
                        </g>
                        <g id="d1e401" class="note">
                           <g class="notehead">
                              <use xlink:href="#E0A4-0000001683594809" x="3552" y="726" height="540px" width="540px" />
                           </g>
                           <g id="stem-0000001292487994" class="stem">
                              <rect x="3699" y="304" height="400" width="12" />
                           </g>
                           <g id="verse-0000001662210707" class="verse">
                              <g id="syl-0000000160588726" class="syl">
                                 <text x="3485" y="1231" font-size="0px">
                                    <tspan id="text-0000001775257250" class="text">
                                       <tspan font-size="303px" class="text">en</tspan>
                                    </tspan>
                                 </text>
                              </g>
                           </g>
                        </g>
                     </g>
                     <g id="beam-0000001758292979" class="beam">
                        <polygon points="4066,291 4621,291 4621,358 4066,358 " />
                        <g id="d1e424" class="note">
                           <g class="notehead">
                              <use xlink:href="#E0A4-0000001683594809" x="3919" y="726" height="540px" width="540px" />
                           </g>
                           <g id="stem-0000001048625753" class="stem">
                              <rect x="4066" y="304" height="400" width="12" />
                           </g>
                           <g id="verse-0000000784515828" class="verse">
                              <g id="syl-0000001955412263" class="syl">
                                 <text x="3852" y="1231" font-size="0px">
                                    <tspan id="text-0000001671654200" class="text">
                                       <tspan font-size="303px" class="text">Au-</tspan>
                                    </tspan>
                                 </text>
                              </g>
                           </g>
                        </g>
                        <g id="d1e445" class="note">
                           <g class="notehead">
                              <use xlink:href="#E0A4-0000001683594809" x="4462" y="726" height="540px" width="540px" />
                           </g>
                           <g id="stem-0000002002223389" class="stem">
                              <rect x="4609" y="304" height="400" width="12" />
                           </g>
                           <g id="verse-0000000017682488" class="verse">
                              <g id="syl-0000000836832530" class="syl">
                                 <text x="4395" y="1231" font-size="0px">
                                    <tspan id="text-0000000773927507" class="text">
                                       <tspan font-size="303px" class="text">gen</tspan>
                                    </tspan>
                                 </text>
                              </g>
                           </g>
                        </g>
                     </g>
                     <g id="rest-0000000091160270" class="rest">
                        <use xlink:href="#E4E6-0000001683594809" x="4912" y="592" height="540px" width="540px" />
                     </g>
                     <g id="beam-0000000974817579" class="beam">
                        <polygon points="5509,257 6608,324 6608,391 5509,324 " />
                        <g id="d1e474" class="note">
                           <g class="notehead">
                              <use xlink:href="#E0A4-0000001683594809" x="5362" y="726" height="540px" width="540px" />
                           </g>
                           <g id="stem-0000000299750433" class="stem">
                              <rect x="5509" y="270" height="434" width="12" />
                           </g>
                           <g id="verse-0000000396718015" class="verse">
                              <g id="syl-0000001850437817" class="syl">
                                 <text x="5209" y="1231" font-size="0px">
                                    <tspan id="text-0000000450214465" class="text">
                                       <tspan font-size="303px" class="text">von</tspan>
                                    </tspan>
                                 </text>
                              </g>
                           </g>
                        </g>
                        <g id="d1e495" class="note">
                           <g class="notehead">
                              <use xlink:href="#E0A4-0000001683594809" x="5812" y="860" height="540px" width="540px" />
                           </g>
                           <g id="stem-0000002056375216" class="stem">
                              <rect x="5959" y="298" height="540" width="12" />
                           </g>
                           <g id="verse-0000001967436327" class="verse">
                              <g id="syl-0000001896635030" class="syl">
                                 <text x="5745" y="1231" font-size="0px">
                                    <tspan id="text-0000001645176789" class="text">
                                       <tspan font-size="303px" class="text">mei-</tspan>
                                    </tspan>
                                 </text>
                              </g>
                           </g>
                        </g>
                        <g id="d1e516" class="note">
                           <g class="notehead">
                              <use xlink:href="#E0A4-0000001683594809" x="6449" y="793" height="540px" width="540px" />
                           </g>
                           <g id="stem-0000002043924141" class="stem">
                              <rect x="6596" y="337" height="434" width="12" />
                           </g>
                           <g id="accid-0000001996164456" class="accid" />
                           <g id="verse-0000001546478558" class="verse">
                              <g id="syl-0000000670544665" class="syl">
                                 <text x="6382" y="1231" font-size="0px">
                                    <tspan id="text-0000001997488846" class="text">
                                       <tspan font-size="303px" class="text">nem</tspan>
                                    </tspan>
                                 </text>
                              </g>
                           </g>
                        </g>
                     </g>
                  </g>
               </g>
               <g id="staff-0000000183181171" class="staff">
                  <path d="M2670 1593 L6918 1593" stroke="currentColor" stroke-width="13" />
                  <path d="M2670 1773 L6918 1773" stroke="currentColor" stroke-width="13" />
                  <path d="M2670 1953 L6918 1953" stroke="currentColor" stroke-width="13" />
                  <path d="M2670 2133 L6918 2133" stroke="currentColor" stroke-width="13" />
                  <path d="M2670 2313 L6918 2313" stroke="currentColor" stroke-width="13" />
                  <g class="ledgerLines below">
                     <path d="M2817 2493 L3086 2493" stroke="currentColor" stroke-width="22" />
                     <path d="M3519 2493 L3788 2493" stroke="currentColor" stroke-width="22" />
                     <path d="M3871 2493 L4179 2493" stroke="currentColor" stroke-width="22" />
                     <path d="M5779 2493 L6048 2493" stroke="currentColor" stroke-width="22" />
                     <path d="M6416 2493 L6685 2493" stroke="currentColor" stroke-width="22" />
                  </g>
                  <g id="layer-0000001381874846" class="layer">
                     <g id="beam-0000000134894417" class="beam">
                        <polygon points="3044,1548 3764,1548 3764,1638 3044,1638 " />
                        <polygon points="3552,1683 3764,1683 3764,1773 3552,1773 " />
                        <g id="chord-0000001575218934" class="chord">
                           <g id="dots-0000001373446889" class="dots">
                              <ellipse cx="3152" cy="2583" rx="36" ry="36" />
                              <ellipse cx="3152" cy="2223" rx="36" ry="36" />
                              <ellipse cx="3152" cy="2043" rx="36" ry="36" />
                           </g>
                           <g id="stem-0000001084620375" class="stem">
                              <rect x="3044" y="1566" height="987" width="18" />
                           </g>
                           <g id="artic-0000000526223522" class="artic">
                              <use xlink:href="#E4A2-0000001683594809" x="2934" y="1521" height="540px" width="540px" />
                           </g>
                           <g id="d1e540" class="note">
                              <g class="notehead">
                                 <use xlink:href="#E0A4-0000001683594809" x="2850" y="2583" height="720px" width="720px" />
                              </g>
                           </g>
                           <g id="note-0000000328107112" class="note">
                              <g class="notehead">
                                 <use xlink:href="#E0A4-0000001683594809" x="2850" y="2313" height="720px" width="720px" />
                              </g>
                           </g>
                           <g id="note-0000001905709535" class="note">
                              <g class="notehead">
                                 <use xlink:href="#E0A4-0000001683594809" x="2850" y="2133" height="720px" width="720px" />
                              </g>
                           </g>
                        </g>
                        <g id="chord-0000001689043387" class="chord">
                           <g id="stem-0000000220141820" class="stem">
                              <rect x="3746" y="1566" height="987" width="18" />
                           </g>
                           <g id="artic-0000000165875616" class="artic">
                              <use xlink:href="#E4A2-0000001683594809" x="3636" y="1521" height="540px" width="540px" />
                           </g>
                           <g id="note-0000000437704306" class="note">
                              <g class="notehead">
                                 <use xlink:href="#E0A4-0000001683594809" x="3552" y="2583" height="720px" width="720px" />
                              </g>
                           </g>
                           <g id="note-0000001364779967" class="note">
                              <g class="notehead">
                                 <use xlink:href="#E0A4-0000001683594809" x="3552" y="2313" height="720px" width="720px" />
                              </g>
                           </g>
                           <g id="note-0000000584071762" class="note">
                              <g class="notehead">
                                 <use xlink:href="#E0A4-0000001683594809" x="3552" y="2133" height="720px" width="720px" />
                              </g>
                           </g>
                        </g>
                     </g>
                     <g id="chord-0000000346353497" class="chord">
                        <g id="stem-0000001956728606" class="stem">
                           <rect x="4113" y="1503" height="1050" width="18" />
                        </g>
                        <g id="artic-0000001482540709" class="artic">
                           <use xlink:href="#E4A2-0000001683594809" x="4003" y="1458" height="540px" width="540px" />
                        </g>
                        <g id="d1e656" class="note">
                           <g class="notehead">
                              <use xlink:href="#E0A4-0000001683594809" x="3919" y="2583" height="720px" width="720px" />
                           </g>
                        </g>
                        <g id="note-0000001490485666" class="note">
                           <g class="notehead">
                              <use xlink:href="#E0A4-0000001683594809" x="3919" y="2313" height="720px" width="720px" />
                           </g>
                        </g>
                        <g id="note-0000000195846207" class="note">
                           <g class="notehead">
                              <use xlink:href="#E0A4-0000001683594809" x="3919" y="2133" height="720px" width="720px" />
                           </g>
                        </g>
                     </g>
                     <g id="rest-0000001642253845" class="rest">
                        <use xlink:href="#E4E5-0000001683594809" x="4912" y="1953" height="720px" width="720px" />
                     </g>
                     <g id="beam-0000001900541671" class="beam">
                        <polygon points="6006,1683 6661,1593 6661,1683 6006,1773 " />
                        <g id="chord-0000000732099019" class="chord">
                           <g id="stem-0000000173110884" class="stem">
                              <rect x="6006" y="1701" height="762" width="18" />
                           </g>
                           <g id="artic-0000001454398670" class="artic">
                              <use xlink:href="#E4A2-0000001683594809" x="5896" y="1525" height="540px" width="540px" />
                           </g>
                           <g id="d1e720" class="note">
                              <g class="notehead">
                                 <use xlink:href="#E0A4-0000001683594809" x="5812" y="2493" height="720px" width="720px" />
                              </g>
                           </g>
                           <g id="note-0000000279522382" class="note">
                              <g class="notehead">
                                 <use xlink:href="#E0A4-0000001683594809" x="5812" y="2313" height="720px" width="720px" />
                              </g>
                           </g>
                        </g>
                        <g id="chord-0000001385938285" class="chord">
                           <g id="stem-0000001781769350" class="stem">
                              <rect x="6643" y="1611" height="942" width="18" />
                           </g>
                           <g id="artic-0000001857120633" class="artic">
                              <use xlink:href="#E4A2-0000001683594809" x="6533" y="1521" height="540px" width="540px" />
                           </g>
                           <g id="d1e760" class="note">
                              <g class="notehead">
                                 <use xlink:href="#E0A4-0000001683594809" x="6449" y="2583" height="720px" width="720px" />
                              </g>
                           </g>
                           <g id="note-0000000815736237" class="note">
                              <g class="notehead">
                                 <use xlink:href="#E0A4-0000001683594809" x="6449" y="2223" height="720px" width="720px" />
                              </g>
                              <g id="accid-0000000543332811" class="accid" />
                           </g>
                        </g>
                     </g>
                  </g>
               </g>
               <g id="staff-0000000694087433" class="staff">
                  <path d="M2670 3452 L6918 3452" stroke="currentColor" stroke-width="13" />
                  <path d="M2670 3632 L6918 3632" stroke="currentColor" stroke-width="13" />
                  <path d="M2670 3812 L6918 3812" stroke="currentColor" stroke-width="13" />
                  <path d="M2670 3992 L6918 3992" stroke="currentColor" stroke-width="13" />
                  <path d="M2670 4172 L6918 4172" stroke="currentColor" stroke-width="13" />
                  <g class="ledgerLines below">
                     <path d="M2802 4352 L3110 4352" stroke="currentColor" stroke-width="22" />
                     <path d="M2802 4532 L3110 4532" stroke="currentColor" stroke-width="22" />
                     <path d="M2802 4712 L3110 4712" stroke="currentColor" stroke-width="22" />
                     <path d="M2802 4892 L3110 4892" stroke="currentColor" stroke-width="22" />
                  </g>
                  <g id="layer-0000000396315927" class="layer">
                     <g id="chord-0000001534995742" class="chord">
                        <g id="stem-0000001685491682" class="stem">
                           <rect x="3044" y="3722" height="1230" width="18" />
                        </g>
                        <g id="note-0000000952384383" class="note">
                           <g class="notehead">
                              <use xlink:href="#E0A4-0000001683594809" x="2850" y="4982" height="720px" width="720px" />
                           </g>
                        </g>
                        <g id="note-0000001528703990" class="note">
                           <g class="notehead">
                              <use xlink:href="#E0A4-0000001683594809" x="2850" y="4352" height="720px" width="720px" />
                           </g>
                        </g>
                     </g>
                     <g id="chord-0000000433607222" class="chord">
                        <g id="stem-0000000601911797" class="stem">
                           <rect x="3919" y="3572" height="960" width="18" />
                        </g>
                        <g id="note-0000001224565883" class="note">
                           <g class="notehead">
                              <use xlink:href="#E0A4-0000001683594809" x="3919" y="3992" height="720px" width="720px" />
                           </g>
                        </g>
                        <g id="note-0000001943006380" class="note">
                           <g class="notehead">
                              <use xlink:href="#E0A4-0000001683594809" x="3919" y="3722" height="720px" width="720px" />
                           </g>
                        </g>
                        <g id="note-0000001471892378" class="note">
                           <g class="notehead">
                              <use xlink:href="#E0A4-0000001683594809" x="3919" y="3542" height="720px" width="720px" />
                           </g>
                        </g>
                     </g>
                     <g id="rest-0000001231067253" class="rest">
                        <use xlink:href="#E4E4-0000001683594809" x="4912" y="3812" height="720px" width="720px" />
                     </g>
                  </g>
               </g>
               <g id="dynam-0000001689865973" class="dynam">
                  <use xlink:href="#E520-0000001683594809" x="5362" y="148" height="540px" width="540px" />
               </g>
               <g id="dynam-0000000744789173" class="dynam">
                  <use xlink:href="#E520-0000001683594809" x="5812" y="3107" height="720px" width="720px" />
               </g>
               <g id="slur-0000000965074837" class="slur">
                  <path d="M2956,2785 C3169,3039 3812,3039 4025,2785 C3812,3099 3169,3099 2956,2785" stroke="currentColor" stroke-linecap="round" stroke-linejoin="round" stroke-width="9" />
               </g>
               <g id="slur-0000000068799668" class="slur">
                  <path d="M5918,2695 C6024,2849 6406,2902 6551,2781 C6397,2961 6015,2908 5918,2695" stroke="currentColor" stroke-linecap="round" stroke-linejoin="round" stroke-width="9" />
               </g>
               <g id="bline-0000000715524392" class="barLineAttr">
                  <path d="M6905 864 L6905 324" stroke="currentColor" stroke-width="27" />
                  <path d="M6905 2313 L6905 1593" stroke="currentColor" stroke-width="27" />
                  <path d="M6905 4172 L6905 3452" stroke="currentColor" stroke-width="27" />
               </g>
            </g>
            <g id="bdend-0000000295180955" class="boundaryEnd section-0000001530720204" />
         </g>
      </g>
   </svg>
</svg>
