<svg width="392.5px" height="307px" version="1.1" xmlns="http://www.w3.org/2000/svg" xmlns:xlink="http://www.w3.org/1999/xlink" xmlns:mei="http://www.music-encoding.org/ns/mei" overflow="visible">
   <desc>Engraved by Verovio 3.4.1-8f65a58</desc>
   <defs>
      <symbol id="E050-0000001289335735" viewBox="0 0 1000 1000" overflow="inherit">
         <path transform="scale(1,-1)" d="M441 -245c-23 -4 -48 -6 -76 -6c-59 0 -102 7 -130 20c-88 42 -150 93 -187 154c-26 44 -43 103 -48 176c0 6 -1 13 -1 19c0 54 15 111 45 170c29 57 65 106 110 148s96 85 153 127c-3 16 -8 46 -13 92c-4 43 -5 73 -5 89c0 117 16 172 69 257c34 54 64 82 89 82 c21 0 43 -30 69 -92s39 -115 41 -159v-15c0 -109 -21 -162 -67 -241c-13 -20 -63 -90 -98 -118c-13 -9 -25 -19 -37 -29l31 -181c8 1 18 2 28 2c58 0 102 -12 133 -35c59 -43 92 -104 98 -184c1 -7 1 -15 1 -22c0 -123 -87 -209 -181 -248c8 -57 17 -110 25 -162 c5 -31 6 -58 6 -80c0 -30 -5 -53 -14 -70c-35 -64 -88 -99 -158 -103c-5 0 -11 -1 -16 -1c-37 0 -72 10 -108 27c-50 24 -77 59 -80 105v11c0 29 7 55 20 76c18 28 45 42 79 44h6c49 0 93 -42 97 -87v-9c0 -51 -34 -86 -105 -106c17 -24 51 -36 102 -36c62 0 116 43 140 85 c9 16 13 41 13 74c0 20 -1 42 -5 67c-8 53 -18 106 -26 159zM461 939c-95 0 -135 -175 -135 -286c0 -24 2 -48 5 -71c50 39 92 82 127 128c40 53 60 100 60 140v8c-4 53 -22 81 -55 81h-2zM406 119l54 -326c73 25 110 78 110 161c0 7 0 15 -1 23c-7 95 -57 142 -151 142h-12 zM382 117c-72 -2 -128 -47 -128 -120v-7c2 -46 43 -99 75 -115c-3 -2 -7 -5 -10 -10c-70 33 -116 88 -123 172v11c0 68 44 126 88 159c23 17 49 29 78 36l-29 170c-21 -13 -52 -37 -92 -73c-50 -44 -86 -84 -109 -119c-45 -69 -67 -130 -67 -182v-13c5 -68 35 -127 93 -176 s125 -73 203 -73c25 0 50 3 75 9c-19 111 -36 221 -54 331z" />
      </symbol>
      <symbol id="E062-0000001289335735" viewBox="0 0 1000 1000" overflow="inherit">
         <path transform="scale(1,-1)" d="M158 96c51 0 73 -14 88 -49l16 -39c0 -17 -2 -30 -7 -40c-3 -11 -10 -21 -19 -31c-17 -18 -49 -43 -84 -43c-55 0 -77 13 -112 44c-24 21 -35 55 -35 100c0 46 14 81 32 112c30 52 71 79 137 93l36 6l26 2c154 0 235 -68 274 -182c11 -32 18 -68 18 -107 c0 -103 -26 -182 -68 -250c-89 -145 -234 -230 -412 -288l-30 -5c-9 0 -14 3 -14 8c3 10 5 11 10 16c35 15 70 30 96 44l78 43c96 57 162 136 197 258c9 33 17 60 22 100c3 22 5 35 6 39c-7 69 -16 115 -23 140s-4 22 -16 40c-8 12 -19 23 -31 34c-24 21 -62 44 -118 44 c-48 0 -84 -8 -113 -28c-28 -19 -42 -44 -42 -73v-16c2 -5 3 -9 4 -11c24 22 52 39 84 39zM585 -118c0 32 23 58 57 58c18 0 33 -6 40 -18c9 -15 16 -18 16 -40c0 -9 -2 -16 -5 -21c-6 -19 -27 -37 -51 -37c-34 0 -57 26 -57 58zM642 177c31 0 56 -27 56 -58 c0 -30 -25 -58 -56 -58l-23 3c-19 7 -34 32 -34 55l3 23c9 20 28 35 54 35z" />
      </symbol>
      <symbol id="E084-0000001289335735" viewBox="0 0 1000 1000" overflow="inherit">
         <path transform="scale(1,-1)" d="M0 -78c84 97 114 180 134 329h170c-13 -32 -82 -132 -99 -151l-84 -97c-33 -36 -59 -63 -80 -81h162v102l127 123v-225h57v-39h-57v-34c0 -43 19 -65 57 -65v-34h-244v36c48 0 60 26 60 70v27h-203v39z" />
      </symbol>
      <symbol id="E0A4-0000001289335735" viewBox="0 0 1000 1000" overflow="inherit">
         <path transform="scale(1,-1)" d="M0 -39c0 68 73 172 200 172c66 0 114 -37 114 -95c0 -84 -106 -171 -218 -171c-64 0 -96 30 -96 94z" />
      </symbol>
      <symbol id="E262-0000001289335735" viewBox="0 0 1000 1000" overflow="inherit">
         <path transform="scale(1,-1)" d="M136 186v169h17v-164l44 14v-91l-44 -14v-165l44 12v-91l-44 -13v-155h-17v150l-76 -22v-155h-17v149l-43 -13v90l43 14v167l-43 -14v92l43 13v169h17v-163zM60 73v-167l76 22v168z" />
      </symbol>
      <symbol id="E4A2-0000001289335735" viewBox="0 0 1000 1000" overflow="inherit">
         <path transform="scale(1,-1)" d="M0 45c0 13 4 25 13 34s19 14 32 15c14 0 26 -4 35 -12s14 -19 15 -33c0 -13 -4 -25 -13 -34s-19 -14 -32 -15c-14 0 -26 4 -35 12s-14 19 -15 33z" />
      </symbol>
      <symbol id="E4E4-0000001289335735" viewBox="0 0 1000 1000" overflow="inherit">
         <path transform="scale(1,-1)" d="M0 10v105c0 9 1 10 10 10h280c9 0 10 -1 10 -10v-105c0 -9 -1 -10 -10 -10h-280c-9 0 -10 1 -10 10z" />
      </symbol>
      <symbol id="E4E5-0000001289335735" viewBox="0 0 1000 1000" overflow="inherit">
         <path transform="scale(1,-1)" d="M107 292c-13 24 -30 49 -52 71c-1 1 0 2 0 3l-2 2c3 3 4 4 6 4c12 0 26 -7 40 -20s44 -40 89 -81c26 -24 28 -29 46 -47c4 -4 8 -9 10 -14c6 -8 8 -16 8 -27c0 -19 -12 -40 -36 -61c-28 -23 -49 -38 -61 -73c-4 -11 -7 -27 -10 -50c13 -43 34 -83 59 -121 c31 -47 59 -79 101 -129c-8 0 -26 7 -54 20l-62 29l-21 6l-23 1c-25 0 -45 -10 -60 -30l-4 -14l-1 -12c0 -33 20 -56 39 -78c8 -9 17 -18 26 -26c17 -15 27 -24 28 -30l-3 -3c-11 5 -19 10 -25 15c-9 3 -37 21 -45 26c-24 14 -45 32 -63 51c-19 21 -37 44 -37 71 c0 63 27 95 80 95c41 0 86 -18 136 -52c-19 26 -37 48 -55 66c-23 23 -48 44 -73 65c-28 23 -47 40 -58 53s-17 26 -18 39c75 64 113 125 113 183c0 27 -7 48 -18 68z" />
      </symbol>
      <symbol id="E4E6-0000001289335735" viewBox="0 0 1000 1000" overflow="inherit">
         <path transform="scale(1,-1)" d="M0 123c7 34 33 56 69 60c29 -3 43 -9 53 -29c4 -8 7 -15 10 -22c0 -21 -1 -25 -11 -35c-5 -8 -18 -14 -40 -20l12 -3l15 -1c44 0 97 26 122 56c10 11 18 26 24 42c7 1 15 2 22 3l-140 -424h-36l111 330c-10 -6 -27 -12 -53 -16l-52 -8h-10l-20 1c-1 0 -8 3 -21 6 c-37 9 -55 28 -55 60z" />
      </symbol>
      <symbol id="E520-0000001289335735" viewBox="0 0 1000 1000" overflow="inherit">
         <path transform="scale(1,-1)" d="M23 124h-23c22 43 43 76 62 101s45 37 76 38c6 0 12 -4 18 -13c7 -7 10 -16 10 -27l24 14l25 13c12 5 24 7 37 7c24 0 43 -9 58 -28s22 -44 23 -77c0 -14 -1 -27 -3 -38s-5 -21 -10 -29s-11 -17 -19 -27c-14 -18 -30 -32 -47 -42s-35 -15 -54 -15c-9 0 -20 3 -33 10 c-5 3 -10 7 -15 10s-9 8 -13 14l-56 -158l-3 -4c3 -7 7 -10 12 -11h32v-29h-173v29h21c4 0 9 2 14 5c4 4 7 9 9 14l119 331v6l-3 10l-6 3c-9 0 -17 -4 -25 -12s-16 -18 -23 -31l-11 -17l-10 -20zM197 201c-12 -21 -22 -45 -29 -72c-7 -30 -10 -51 -10 -62 c0 -24 7 -36 22 -36c13 0 23 2 31 7s15 11 21 20c10 17 15 26 16 28c5 11 8 26 10 44s3 31 4 39c0 7 -1 13 -2 18s-3 9 -6 14c-5 9 -15 14 -28 14c-14 0 -24 -5 -29 -14z" />
      </symbol>
      <symbol id="E52B-0000001289335735" viewBox="0 0 1000 1000" overflow="inherit">
         <path transform="scale(1,-1)" d="M497 201c-12 -21 -22 -45 -29 -72c-7 -30 -10 -51 -10 -62c0 -24 7 -36 22 -36c13 0 23 2 31 7s15 11 21 20c10 17 15 26 16 28c5 11 8 26 10 44s3 31 4 39c0 7 -1 13 -2 18s-3 9 -6 14c-5 9 -15 14 -28 14c-14 0 -24 -5 -29 -14zM197 201c-12 -21 -22 -45 -29 -72 c-7 -30 -10 -51 -10 -62c0 -24 7 -36 22 -36c13 0 23 2 31 7s15 11 21 20c10 17 15 26 16 28c5 11 8 26 10 44s3 31 4 39c0 7 -1 13 -2 18s-3 9 -6 14c-5 9 -15 14 -28 14c-14 0 -24 -5 -29 -14zM23 124h-23c22 43 43 76 62 101s45 37 76 38c6 0 12 -4 18 -13 c7 -7 10 -16 10 -27l24 14l25 13c12 5 24 7 37 7c24 0 43 -9 58 -28c10 -13 18 -30 21 -50c11 18 21 33 31 46c19 25 45 37 76 38c6 0 12 -4 18 -13c7 -7 10 -16 10 -27l24 14l25 13c12 5 24 7 37 7c24 0 43 -9 58 -28s22 -44 23 -77c0 -14 -1 -27 -3 -38s-5 -21 -10 -29 s-11 -17 -19 -27c-14 -18 -30 -32 -47 -42s-35 -15 -54 -15c-9 0 -20 3 -33 10c-5 3 -10 7 -15 10s-9 8 -13 14l-56 -158l-3 -4c3 -7 7 -10 12 -11h32v-29h-173v29h21c4 0 9 2 14 5c4 4 7 9 9 14l119 331v6l-3 10l-6 3c-9 0 -17 -4 -25 -12s-16 -18 -23 -31l-11 -17l-10 -20 l-3 -6c0 -11 -1 -22 -3 -31c-2 -11 -5 -21 -10 -29s-11 -17 -19 -27c-14 -18 -30 -32 -47 -42s-35 -15 -54 -15c-9 0 -20 3 -33 10c-5 3 -10 7 -15 10s-9 8 -13 14l-56 -158l-3 -4c3 -7 7 -10 12 -11h32v-29h-173v29h21c4 0 9 2 14 5c4 4 7 9 9 14l119 331v6l-3 10l-6 3 c-9 0 -17 -4 -25 -12s-16 -18 -23 -31l-11 -17l-10 -20z" />
      </symbol>
   </defs>
   <style type="text/css">g.page-margin{font-family:Times;} g.ending, g.reh, g.tempo{font-weight:bold;} g.dir, g.dynam, g.mNum{font-style:italic;} g.label{font-weight:normal;}</style>
   <svg class="definition-scale" color="black" viewBox="0 0 7850 6140">
      <g class="page-margin" transform="translate(500, 500)">
         <g id="system-0000001023129506" class="system">
            <path d="M13 332 L13 4193" stroke="currentColor" stroke-width="27" />
            <g id="grpsym-0000000074243042" class="grpSym">
               <path d="M-72,4175 C-432,3635 18,3079 -252,2899 C81,3079 -369,3635 -72,4175" stroke="currentColor" stroke-linecap="round" stroke-linejoin="round" stroke-width="18" />
               <path d="M-72,1622 C-369,2162 81,2719 -252,2899 C18,2719 -432,2162 -72,1622" stroke="currentColor" stroke-linecap="round" stroke-linejoin="round" stroke-width="18" />
            </g>
            <g id="section-0000000893351816" class="section boundaryStart" />
            <g id="measure-0000001505795335" class="measure upbeat">
               <g id="staff-0000002128236579" class="staff">
                  <path d="M0 332 L2606 332" stroke="currentColor" stroke-width="10" />
                  <path d="M0 467 L2606 467" stroke="currentColor" stroke-width="10" />
                  <path d="M0 602 L2606 602" stroke="currentColor" stroke-width="10" />
                  <path d="M0 737 L2606 737" stroke="currentColor" stroke-width="10" />
                  <path d="M0 872 L2606 872" stroke="currentColor" stroke-width="10" />
                  <g id="clef-0000000307187357" class="clef">
                     <use xlink:href="#E050-0000001289335735" x="90" y="737" height="540px" width="540px" />
                  </g>
                  <g id="keysig-0000000347221711" class="keySig">
                     <use xlink:href="#E262-0000001289335735" x="771" y="332" height="540px" width="540px" />
                  </g>
                  <g id="msig-0000001042227878" class="meterSig">
                     <use xlink:href="#E084-0000001289335735" x="1092" y="465" height="540px" width="540px" />
                     <use xlink:href="#E084-0000001289335735" x="1092" y="735" height="540px" width="540px" />
                  </g>
                  <g id="layer-0000000784558821" class="layer">
                     <g id="beam-0000000530511967" class="beam">
                        <polygon points="1797,399 2312,332 2312,399 1797,466 " />
                        <g id="note-0000000827838925" class="note">
                           <g class="notehead">
                              <use xlink:href="#E0A4-0000001289335735" x="1640" y="868" height="540px" width="540px" />
                           </g>
                           <g id="stem-0000000197941363" class="stem">
                              <rect x="1797" y="412" height="435" width="12" />
                           </g>
                           <g id="verse-0000001551901393" class="verse">
                              <g id="syl-0000001617819336" class="syl">
                                 <text x="1573" y="1239" font-size="0px">
                                    <tspan id="text-0000001399125485" class="text">
                                       <tspan font-size="303px" class="text">Die</tspan>
                                    </tspan>
                                 </text>
                              </g>
                           </g>
                        </g>
                        <g id="note-0000000349216146" class="note">
                           <g class="notehead">
                              <use xlink:href="#E0A4-0000001289335735" x="2143" y="801" height="540px" width="540px" />
                           </g>
                           <g id="stem-0000000348318738" class="stem">
                              <rect x="2300" y="345" height="435" width="12" />
                           </g>
                           <g id="accid-0000001356425228" class="accid" />
                           <g id="verse-0000001899894091" class="verse">
                              <g id="syl-0000000585640194" class="syl">
                                 <text x="2076" y="1239" font-size="0px">
                                    <tspan id="text-0000000937186357" class="text">
                                       <tspan font-size="303px" class="text">zwei</tspan>
                                    </tspan>
                                 </text>
                              </g>
                           </g>
                        </g>
                     </g>
                  </g>
               </g>
               <g id="staff-0000001646035001" class="staff">
                  <path d="M0 1604 L2606 1604" stroke="currentColor" stroke-width="13" />
                  <path d="M0 1784 L2606 1784" stroke="currentColor" stroke-width="13" />
                  <path d="M0 1964 L2606 1964" stroke="currentColor" stroke-width="13" />
                  <path d="M0 2144 L2606 2144" stroke="currentColor" stroke-width="13" />
                  <path d="M0 2324 L2606 2324" stroke="currentColor" stroke-width="13" />
                  <g id="clef-0000001847320614" class="clef">
                     <use xlink:href="#E050-0000001289335735" x="90" y="2144" height="720px" width="720px" />
                  </g>
                  <g id="keysig-0000001746474819" class="keySig">
                     <use xlink:href="#E262-0000001289335735" x="771" y="1604" height="720px" width="720px" />
                  </g>
                  <g id="msig-0000001195795737" class="meterSig">
                     <use xlink:href="#E084-0000001289335735" x="1092" y="1784" height="720px" width="720px" />
                     <use xlink:href="#E084-0000001289335735" x="1092" y="2144" height="720px" width="720px" />
                  </g>
                  <g class="ledgerLines below">
                     <path d="M1607 2504 L1890 2504" stroke="currentColor" stroke-width="22" />
                     <path d="M2110 2504 L2393 2504" stroke="currentColor" stroke-width="22" />
                     <path d="M1607 2684 L1890 2684" stroke="currentColor" stroke-width="22" />
                  </g>
                  <g id="layer-0000001025921153" class="layer">
                     <g id="beam-0000000510616708" class="beam">
                        <polygon points="1848,1604 2369,1559 2369,1649 1848,1694 " />
                        <g id="chord-0000000590357944" class="chord">
                           <g id="stem-0000000152607844" class="stem">
                              <rect x="1848" y="1622" height="1124" width="18" />
                           </g>
                           <g id="d1e284" class="note">
                              <g class="notehead">
                                 <use xlink:href="#E0A4-0000001289335735" x="1640" y="2774" height="720px" width="720px" />
                              </g>
                           </g>
                           <g id="note-0000000357571490" class="note">
                              <g class="notehead">
                                 <use xlink:href="#E0A4-0000001289335735" x="1640" y="2324" height="720px" width="720px" />
                              </g>
                           </g>
                        </g>
                        <g id="chord-0000001044788124" class="chord">
                           <g id="stem-0000000784559590" class="stem">
                              <rect x="2351" y="1577" height="989" width="18" />
                           </g>
                           <g id="d1e323" class="note">
                              <g class="notehead">
                                 <use xlink:href="#E0A4-0000001289335735" x="2143" y="2594" height="720px" width="720px" />
                              </g>
                           </g>
                           <g id="note-0000001952509530" class="note">
                              <g class="notehead">
                                 <use xlink:href="#E0A4-0000001289335735" x="2143" y="2234" height="720px" width="720px" />
                              </g>
                              <g id="accid-0000000130060903" class="accid" />
                           </g>
                        </g>
                     </g>
                  </g>
               </g>
               <g id="staff-0000001942727722" class="staff">
                  <path d="M0 3473 L2606 3473" stroke="currentColor" stroke-width="13" />
                  <path d="M0 3653 L2606 3653" stroke="currentColor" stroke-width="13" />
                  <path d="M0 3833 L2606 3833" stroke="currentColor" stroke-width="13" />
                  <path d="M0 4013 L2606 4013" stroke="currentColor" stroke-width="13" />
                  <path d="M0 4193 L2606 4193" stroke="currentColor" stroke-width="13" />
                  <g id="clef-0000001586983133" class="clef">
                     <use xlink:href="#E062-0000001289335735" x="90" y="3653" height="720px" width="720px" />
                  </g>
                  <g id="keysig-0000000678620591" class="keySig">
                     <use xlink:href="#E262-0000001289335735" x="771" y="3653" height="720px" width="720px" />
                  </g>
                  <g id="msig-0000000290623720" class="meterSig">
                     <use xlink:href="#E084-0000001289335735" x="1092" y="3653" height="720px" width="720px" />
                     <use xlink:href="#E084-0000001289335735" x="1092" y="4013" height="720px" width="720px" />
                  </g>
                  <g id="layer-0000001083454666" class="layer">
                     <g id="rest-0000001108728549" class="rest">
                        <use xlink:href="#E4E5-0000001289335735" x="1640" y="3833" height="720px" width="720px" />
                     </g>
                  </g>
               </g>
               <g id="dynam-0000000685118024" class="dynam">
                  <use xlink:href="#E52B-0000001289335735" x="1640" y="209" height="540px" width="540px" />
               </g>
               <g id="dynam-0000001060806853" class="dynam">
                  <use xlink:href="#E52B-0000001289335735" x="1640" y="3308" height="720px" width="720px" />
               </g>
               <g id="slur-0000000194847408" class="slur">
                  <path d="M1753,2976 C1890,3046 2190,2937 2252,2795 C2211,2994 1911,3103 1753,2976" stroke="currentColor" stroke-linecap="round" stroke-linejoin="round" stroke-width="9" />
               </g>
               <g id="bline-0000001624379149" class="barLineAttr">
                  <path d="M2593 872 L2593 332" stroke="currentColor" stroke-width="27" />
                  <path d="M2593 2324 L2593 1604" stroke="currentColor" stroke-width="27" />
                  <path d="M2593 4193 L2593 3473" stroke="currentColor" stroke-width="27" />
               </g>
            </g>
            <g id="measure-0000002035308228" class="measure">
               <g id="staff-0000000107554536" class="staff">
                  <path d="M2606 332 L6854 332" stroke="currentColor" stroke-width="10" />
                  <path d="M2606 467 L6854 467" stroke="currentColor" stroke-width="10" />
                  <path d="M2606 602 L6854 602" stroke="currentColor" stroke-width="10" />
                  <path d="M2606 737 L6854 737" stroke="currentColor" stroke-width="10" />
                  <path d="M2606 872 L6854 872" stroke="currentColor" stroke-width="10" />
                  <g id="layer-0000001635339425" class="layer">
                     <g id="beam-0000001654001669" class="beam">
                        <polygon points="2943,299 3657,299 3657,366 2943,366 " />
                        <polygon points="3488,399 3657,399 3657,466 3488,466 " />
                        <g id="d1e379" class="note">
                           <g class="notehead">
                              <use xlink:href="#E0A4-0000001289335735" x="2786" y="734" height="540px" width="540px" />
                           </g>
                           <g id="dots-0000000290145159" class="dots">
                              <ellipse cx="3021" cy="671" rx="27" ry="27" />
                           </g>
                           <g id="stem-0000000543436550" class="stem">
                              <rect x="2943" y="312" height="401" width="12" />
                           </g>
                           <g id="verse-0000000269220094" class="verse">
                              <g id="syl-0000000034075629" class="syl">
                                 <text x="2716" y="1239" font-size="0px">
                                    <tspan id="text-0000001478446501" class="text">
                                       <tspan font-size="303px" class="text">blau-</tspan>
                                    </tspan>
                                 </text>
                              </g>
                           </g>
                        </g>
                        <g id="d1e401" class="note">
                           <g class="notehead">
                              <use xlink:href="#E0A4-0000001289335735" x="3488" y="734" height="540px" width="540px" />
                           </g>
                           <g id="stem-0000001681808623" class="stem">
                              <rect x="3645" y="312" height="401" width="12" />
                           </g>
                           <g id="verse-0000001351934195" class="verse">
                              <g id="syl-0000001581030105" class="syl">
                                 <text x="3421" y="1239" font-size="0px">
                                    <tspan id="text-0000001557810404" class="text">
                                       <tspan font-size="303px" class="text">en</tspan>
                                    </tspan>
                                 </text>
                              </g>
                           </g>
                        </g>
                     </g>
                     <g id="beam-0000002146319451" class="beam">
                        <polygon points="4012,299 4567,299 4567,366 4012,366 " />
                        <g id="d1e424" class="note">
                           <g class="notehead">
                              <use xlink:href="#E0A4-0000001289335735" x="3855" y="734" height="540px" width="540px" />
                           </g>
                           <g id="stem-0000000977764947" class="stem">
                              <rect x="4012" y="312" height="401" width="12" />
                           </g>
                           <g id="verse-0000000500782188" class="verse">
                              <g id="syl-0000000657821123" class="syl">
                                 <text x="3788" y="1239" font-size="0px">
                                    <tspan id="text-0000000753799505" class="text">
                                       <tspan font-size="303px" class="text">Au-</tspan>
                                    </tspan>
                                 </text>
                              </g>
                           </g>
                        </g>
                        <g id="d1e445" class="note">
                           <g class="notehead">
                              <use xlink:href="#E0A4-0000001289335735" x="4398" y="734" height="540px" width="540px" />
                           </g>
                           <g id="stem-0000000750597385" class="stem">
                              <rect x="4555" y="312" height="401" width="12" />
                           </g>
                           <g id="verse-0000001269406752" class="verse">
                              <g id="syl-0000001816731566" class="syl">
                                 <text x="4331" y="1239" font-size="0px">
                                    <tspan id="text-0000000884936716" class="text">
                                       <tspan font-size="303px" class="text">gen</tspan>
                                    </tspan>
                                 </text>
                              </g>
                           </g>
                        </g>
                     </g>
                     <g id="rest-0000001807130337" class="rest">
                        <use xlink:href="#E4E6-0000001289335735" x="4848" y="600" height="540px" width="540px" />
                     </g>
                     <g id="beam-0000000578354438" class="beam">
                        <polygon points="5455,265 6554,332 6554,399 5455,332 " />
                        <g id="d1e474" class="note">
                           <g class="notehead">
                              <use xlink:href="#E0A4-0000001289335735" x="5298" y="734" height="540px" width="540px" />
                           </g>
                           <g id="stem-0000000971307217" class="stem">
                              <rect x="5455" y="278" height="435" width="12" />
                           </g>
                           <g id="verse-0000001153851501" class="verse">
                              <g id="syl-0000001004844897" class="syl">
                                 <text x="5145" y="1239" font-size="0px">
                                    <tspan id="text-0000000616783871" class="text">
                                       <tspan font-size="303px" class="text">von</tspan>
                                    </tspan>
                                 </text>
                              </g>
                           </g>
                        </g>
                        <g id="d1e495" class="note">
                           <g class="notehead">
                              <use xlink:href="#E0A4-0000001289335735" x="5748" y="868" height="540px" width="540px" />
                           </g>
                           <g id="stem-0000001737195272" class="stem">
                              <rect x="5905" y="306" height="541" width="12" />
                           </g>
                           <g id="verse-0000000330111137" class="verse">
                              <g id="syl-0000001227619358" class="syl">
                                 <text x="5681" y="1239" font-size="0px">
                                    <tspan id="text-0000001723153177" class="text">
                                       <tspan font-size="303px" class="text">mei-</tspan>
                                    </tspan>
                                 </text>
                              </g>
                           </g>
                        </g>
                        <g id="d1e516" class="note">
                           <g class="notehead">
                              <use xlink:href="#E0A4-0000001289335735" x="6385" y="801" height="540px" width="540px" />
                           </g>
                           <g id="stem-0000002000755539" class="stem">
                              <rect x="6542" y="345" height="435" width="12" />
                           </g>
                           <g id="accid-0000001147722294" class="accid" />
                           <g id="verse-0000001070477904" class="verse">
                              <g id="syl-0000002051621609" class="syl">
                                 <text x="6318" y="1239" font-size="0px">
                                    <tspan id="text-0000001606946231" class="text">
                                       <tspan font-size="303px" class="text">nem</tspan>
                                    </tspan>
                                 </text>
                              </g>
                           </g>
                        </g>
                     </g>
                  </g>
               </g>
               <g id="staff-0000001190959745" class="staff">
                  <path d="M2606 1604 L6854 1604" stroke="currentColor" stroke-width="13" />
                  <path d="M2606 1784 L6854 1784" stroke="currentColor" stroke-width="13" />
                  <path d="M2606 1964 L6854 1964" stroke="currentColor" stroke-width="13" />
                  <path d="M2606 2144 L6854 2144" stroke="currentColor" stroke-width="13" />
                  <path d="M2606 2324 L6854 2324" stroke="currentColor" stroke-width="13" />
                  <g class="ledgerLines below">
                     <path d="M2753 2504 L3036 2504" stroke="currentColor" stroke-width="22" />
                     <path d="M3455 2504 L3738 2504" stroke="currentColor" stroke-width="22" />
                     <path d="M3807 2504 L4129 2504" stroke="currentColor" stroke-width="22" />
                     <path d="M5715 2504 L5998 2504" stroke="currentColor" stroke-width="22" />
                     <path d="M6352 2504 L6635 2504" stroke="currentColor" stroke-width="22" />
                  </g>
                  <g id="layer-0000001912844175" class="layer">
                     <g id="beam-0000001341853635" class="beam">
                        <polygon points="2994,1559 3714,1559 3714,1649 2994,1649 " />
                        <polygon points="3488,1694 3714,1694 3714,1784 3488,1784 " />
                        <g id="chord-0000001808266298" class="chord">
                           <g id="dots-0000000462242385" class="dots">
                              <ellipse cx="3102" cy="2594" rx="36" ry="36" />
                              <ellipse cx="3102" cy="2234" rx="36" ry="36" />
                              <ellipse cx="3102" cy="2054" rx="36" ry="36" />
                           </g>
                           <g id="stem-0000001399399247" class="stem">
                              <rect x="2994" y="1577" height="989" width="18" />
                           </g>
                           <g id="artic-0000000343098142" class="artic">
                              <use xlink:href="#E4A2-0000001289335735" x="2874" y="1535" height="540px" width="540px" />
                           </g>
                           <g id="d1e540" class="note">
                              <g class="notehead">
                                 <use xlink:href="#E0A4-0000001289335735" x="2786" y="2594" height="720px" width="720px" />
                              </g>
                           </g>
                           <g id="note-0000001534827968" class="note">
                              <g class="notehead">
                                 <use xlink:href="#E0A4-0000001289335735" x="2786" y="2324" height="720px" width="720px" />
                              </g>
                           </g>
                           <g id="note-0000000280090412" class="note">
                              <g class="notehead">
                                 <use xlink:href="#E0A4-0000001289335735" x="2786" y="2144" height="720px" width="720px" />
                              </g>
                           </g>
                        </g>
                        <g id="chord-0000000195400260" class="chord">
                           <g id="stem-0000001459413496" class="stem">
                              <rect x="3696" y="1577" height="989" width="18" />
                           </g>
                           <g id="artic-0000000589673557" class="artic">
                              <use xlink:href="#E4A2-0000001289335735" x="3576" y="1535" height="540px" width="540px" />
                           </g>
                           <g id="note-0000000006441594" class="note">
                              <g class="notehead">
                                 <use xlink:href="#E0A4-0000001289335735" x="3488" y="2594" height="720px" width="720px" />
                              </g>
                           </g>
                           <g id="note-0000000889688008" class="note">
                              <g class="notehead">
                                 <use xlink:href="#E0A4-0000001289335735" x="3488" y="2324" height="720px" width="720px" />
                              </g>
                           </g>
                           <g id="note-0000000057716395" class="note">
                              <g class="notehead">
                                 <use xlink:href="#E0A4-0000001289335735" x="3488" y="2144" height="720px" width="720px" />
                              </g>
                           </g>
                        </g>
                     </g>
                     <g id="chord-0000001524325968" class="chord">
                        <g id="stem-0000001951894885" class="stem">
                           <rect x="4063" y="1514" height="1052" width="18" />
                        </g>
                        <g id="artic-0000002014119113" class="artic">
                           <use xlink:href="#E4A2-0000001289335735" x="3943" y="1472" height="540px" width="540px" />
                        </g>
                        <g id="d1e656" class="note">
                           <g class="notehead">
                              <use xlink:href="#E0A4-0000001289335735" x="3855" y="2594" height="720px" width="720px" />
                           </g>
                        </g>
                        <g id="note-0000000388471006" class="note">
                           <g class="notehead">
                              <use xlink:href="#E0A4-0000001289335735" x="3855" y="2324" height="720px" width="720px" />
                           </g>
                        </g>
                        <g id="note-0000000681910962" class="note">
                           <g class="notehead">
                              <use xlink:href="#E0A4-0000001289335735" x="3855" y="2144" height="720px" width="720px" />
                           </g>
                        </g>
                     </g>
                     <g id="rest-0000001904797942" class="rest">
                        <use xlink:href="#E4E5-0000001289335735" x="4848" y="1964" height="720px" width="720px" />
                     </g>
                     <g id="beam-0000001400285365" class="beam">
                        <polygon points="5956,1694 6611,1604 6611,1694 5956,1784 " />
                        <g id="chord-0000000322842082" class="chord">
                           <g id="stem-0000000537140623" class="stem">
                              <rect x="5956" y="1712" height="764" width="18" />
                           </g>
                           <g id="artic-0000001463179852" class="artic">
                              <use xlink:href="#E4A2-0000001289335735" x="5836" y="1539" height="540px" width="540px" />
                           </g>
                           <g id="d1e720" class="note">
                              <g class="notehead">
                                 <use xlink:href="#E0A4-0000001289335735" x="5748" y="2504" height="720px" width="720px" />
                              </g>
                           </g>
                           <g id="note-0000000832633821" class="note">
                              <g class="notehead">
                                 <use xlink:href="#E0A4-0000001289335735" x="5748" y="2324" height="720px" width="720px" />
                              </g>
                           </g>
                        </g>
                        <g id="chord-0000001073185695" class="chord">
                           <g id="stem-0000001848682420" class="stem">
                              <rect x="6593" y="1622" height="944" width="18" />
                           </g>
                           <g id="artic-0000000316824712" class="artic">
                              <use xlink:href="#E4A2-0000001289335735" x="6473" y="1535" height="540px" width="540px" />
                           </g>
                           <g id="d1e760" class="note">
                              <g class="notehead">
                                 <use xlink:href="#E0A4-0000001289335735" x="6385" y="2594" height="720px" width="720px" />
                              </g>
                           </g>
                           <g id="note-0000001815859901" class="note">
                              <g class="notehead">
                                 <use xlink:href="#E0A4-0000001289335735" x="6385" y="2234" height="720px" width="720px" />
                              </g>
                              <g id="accid-0000001267248590" class="accid" />
                           </g>
                        </g>
                     </g>
                  </g>
               </g>
               <g id="staff-0000002051724831" class="staff">
                  <path d="M2606 3473 L6854 3473" stroke="currentColor" stroke-width="13" />
                  <path d="M2606 3653 L6854 3653" stroke="currentColor" stroke-width="13" />
                  <path d="M2606 3833 L6854 3833" stroke="currentColor" stroke-width="13" />
                  <path d="M2606 4013 L6854 4013" stroke="currentColor" stroke-width="13" />
                  <path d="M2606 4193 L6854 4193" stroke="currentColor" stroke-width="13" />
                  <g class="ledgerLines below">
                     <path d="M2738 4373 L3060 4373" stroke="currentColor" stroke-width="22" />
                     <path d="M2738 4553 L3060 4553" stroke="currentColor" stroke-width="22" />
                     <path d="M2738 4733 L3060 4733" stroke="currentColor" stroke-width="22" />
                     <path d="M2738 4913 L3060 4913" stroke="currentColor" stroke-width="22" />
                  </g>
                  <g id="layer-0000001194314738" class="layer">
                     <g id="chord-0000000318153057" class="chord">
                        <g id="stem-0000001012028144" class="stem">
                           <rect x="2994" y="3743" height="1232" width="18" />
                        </g>
                        <g id="note-0000002111631616" class="note">
                           <g class="notehead">
                              <use xlink:href="#E0A4-0000001289335735" x="2786" y="5003" height="720px" width="720px" />
                           </g>
                        </g>
                        <g id="note-0000000877819790" class="note">
                           <g class="notehead">
                              <use xlink:href="#E0A4-0000001289335735" x="2786" y="4373" height="720px" width="720px" />
                           </g>
                        </g>
                     </g>
                     <g id="chord-0000000304555640" class="chord">
                        <g id="stem-0000001086531968" class="stem">
                           <rect x="3855" y="3591" height="962" width="18" />
                        </g>
                        <g id="note-0000001213110679" class="note">
                           <g class="notehead">
                              <use xlink:href="#E0A4-0000001289335735" x="3855" y="4013" height="720px" width="720px" />
                           </g>
                        </g>
                        <g id="note-0000000541437335" class="note">
                           <g class="notehead">
                              <use xlink:href="#E0A4-0000001289335735" x="3855" y="3743" height="720px" width="720px" />
                           </g>
                        </g>
                        <g id="note-0000001049077006" class="note">
                           <g class="notehead">
                              <use xlink:href="#E0A4-0000001289335735" x="3855" y="3563" height="720px" width="720px" />
                           </g>
                        </g>
                     </g>
                     <g id="rest-0000000996497972" class="rest">
                        <use xlink:href="#E4E4-0000001289335735" x="4848" y="3833" height="720px" width="720px" />
                     </g>
                  </g>
               </g>
               <g id="dynam-0000002063936098" class="dynam">
                  <use xlink:href="#E520-0000001289335735" x="5298" y="142" height="540px" width="540px" />
               </g>
               <g id="dynam-0000000428975319" class="dynam">
                  <use xlink:href="#E520-0000001289335735" x="5748" y="3091" height="720px" width="720px" />
               </g>
               <g id="slur-0000001351345223" class="slur">
                  <path d="M2899,2796 C3112,3050 3755,3050 3968,2796 C3755,3110 3112,3110 2899,2796" stroke="currentColor" stroke-linecap="round" stroke-linejoin="round" stroke-width="9" />
               </g>
               <g id="slur-0000000272112289" class="slur">
                  <path d="M5861,2706 C5967,2860 6349,2913 6494,2792 C6340,2972 5958,2919 5861,2706" stroke="currentColor" stroke-linecap="round" stroke-linejoin="round" stroke-width="9" />
               </g>
               <g id="bline-0000002020739063" class="barLineAttr">
                  <path d="M6841 872 L6841 332" stroke="currentColor" stroke-width="27" />
                  <path d="M6841 2324 L6841 1604" stroke="currentColor" stroke-width="27" />
                  <path d="M6841 4193 L6841 3473" stroke="currentColor" stroke-width="27" />
               </g>
            </g>
            <g id="bdend-0000000060935238" class="boundaryEnd section-0000000893351816" />
         </g>
      </g>
   </svg>
</svg>
