<svg width="232px" height="127px" version="1.1" xmlns="http://www.w3.org/2000/svg" xmlns:xlink="http://www.w3.org/1999/xlink" xmlns:mei="http://www.music-encoding.org/ns/mei" overflow="visible">
   <desc>Engraved by Verovio 3.12.0-77bd079</desc>
   <defs>
      <symbol id="E050-nluf5v" viewBox="0 0 1000 1000" overflow="inherit">
         <path transform="scale(1,-1)" d="M441 -245c-23 -4 -48 -6 -76 -6c-59 0 -102 7 -130 20c-88 42 -150 93 -187 154c-26 44 -43 103 -48 176c0 6 -1 13 -1 19c0 54 15 111 45 170c29 57 65 106 110 148s96 85 153 127c-3 16 -8 46 -13 92c-4 43 -5 73 -5 89c0 117 16 172 69 257c34 54 64 82 89 82 c21 0 43 -30 69 -92s39 -115 41 -159v-15c0 -109 -21 -162 -67 -241c-13 -20 -63 -90 -98 -118c-13 -9 -25 -19 -37 -29l31 -181c8 1 18 2 28 2c58 0 102 -12 133 -35c59 -43 92 -104 98 -184c1 -7 1 -15 1 -22c0 -123 -87 -209 -181 -248c8 -57 17 -110 25 -162 c5 -31 6 -58 6 -80c0 -30 -5 -53 -14 -70c-35 -64 -88 -99 -158 -103c-5 0 -11 -1 -16 -1c-37 0 -72 10 -108 27c-50 24 -77 59 -80 105v11c0 29 7 55 20 76c18 28 45 42 79 44h6c49 0 93 -42 97 -87v-9c0 -51 -34 -86 -105 -106c17 -24 51 -36 102 -36c62 0 116 43 140 85 c9 16 13 41 13 74c0 20 -1 42 -5 67c-8 53 -18 106 -26 159zM461 939c-95 0 -135 -175 -135 -286c0 -24 2 -48 5 -71c50 39 92 82 127 128c40 53 60 100 60 140v8c-4 53 -22 81 -55 81h-2zM406 119l54 -326c73 25 110 78 110 161c0 7 0 15 -1 23c-7 95 -57 142 -151 142h-12 zM382 117c-72 -2 -128 -47 -128 -120v-7c2 -46 43 -99 75 -115c-3 -2 -7 -5 -10 -10c-70 33 -116 88 -123 172v11c0 68 44 126 88 159c23 17 49 29 78 36l-29 170c-21 -13 -52 -37 -92 -73c-50 -44 -86 -84 -109 -119c-45 -69 -67 -130 -67 -182v-13c5 -68 35 -127 93 -176 s125 -73 203 -73c25 0 50 3 75 9c-19 111 -36 221 -54 331z" />
      </symbol>
      <symbol id="E08A-nluf5v" viewBox="0 0 1000 1000" overflow="inherit">
         <path transform="scale(1,-1)" d="M340 179c-9 24 -56 41 -89 41c-46 0 -81 -28 -100 -58c-17 -28 -25 -78 -25 -150c0 -65 2 -111 8 -135c8 -31 18 -49 40 -67c20 -17 43 -25 70 -25c54 0 92 36 115 75c14 25 23 54 28 88h27c0 -63 -24 -105 -58 -141c-35 -38 -82 -56 -140 -56c-45 0 -83 13 -115 39 c-57 45 -101 130 -101 226c0 59 33 127 68 163c36 37 97 72 160 72c36 0 93 -21 121 -40c11 -8 23 -17 33 -30c19 -23 27 -48 27 -76c0 -51 -35 -88 -86 -88c-43 0 -76 27 -76 68c0 26 7 35 21 51c15 17 32 27 58 32c7 2 14 7 14 11z" />
      </symbol>
      <symbol id="E0A4-nluf5v" viewBox="0 0 1000 1000" overflow="inherit">
         <path transform="scale(1,-1)" d="M0 -39c0 68 73 172 200 172c66 0 114 -37 114 -95c0 -84 -106 -171 -218 -171c-64 0 -96 30 -96 94z" />
      </symbol>
   </defs>
   <style type="text/css">g.page-margin{font-family:Times;} g.ending, g.fing, g.reh, g.tempo{font-weight:bold;} g.dir, g.dynam, g.mNum{font-style:italic;} g.label{font-weight:normal;}</style>
   <svg class="definition-scale" color="black" viewBox="0 0 4640 2540">
      <g class="page-margin" transform="translate(500, 500)">
         <g id="mhb293o" class="mdiv pageMilestone" />
         <g id="sf3b2e7" class="score pageMilestone" />
         <g id="skv3f6m" class="system">
            <g id="s14n7aln" class="section systemMilestone" />
            <g id="mhjbx3c" class="measure">
               <g id="sz1bv0c" class="staff">
                  <path d="M0 240 L3649 240" stroke="currentColor" stroke-width="13" />
                  <path d="M0 420 L3649 420" stroke="currentColor" stroke-width="13" />
                  <path d="M0 600 L3649 600" stroke="currentColor" stroke-width="13" />
                  <path d="M0 780 L3649 780" stroke="currentColor" stroke-width="13" />
                  <path d="M0 960 L3649 960" stroke="currentColor" stroke-width="13" />
                  <g id="c1sn3mfd" class="clef">
                     <use xlink:href="#E050-nluf5v" x="90" y="780" height="720px" width="720px" />
                  </g>
                  <g id="m10ge4gs" class="meterSig">
                     <use xlink:href="#E08A-nluf5v" x="825" y="600" height="720px" width="720px" />
                  </g>
                  <g id="l1k1z1wq" class="layer">
                     <g id="note-0000000417436802" class="note">
                        <g class="notehead">
                           <use xlink:href="#E0A4-nluf5v" x="1393" y="510" height="720px" width="720px" />
                        </g>
                        <g id="s1hlysj1" class="stem">
                           <rect x="1393" y="538" height="602" width="18" />
                        </g>
                        <g id="vlj21rc" class="verse">
                           <g id="smguq40" class="syl">
                              <text x="1303" y="1452" font-size="0px">
                                 <tspan id="tsiwjod" class="text">
                                    <tspan font-size="405px" class="text">a</tspan>
                                 </tspan>
                                 <tspan font-family="Leipzig" font-size="720px" class="text"></tspan>
                              </text>
                           </g>
                           <g id="snhg5n6" class="syl">
                              <text x="1728" y="1452" font-size="0px">
                                 <tspan id="ttvy1zi" class="text">
                                    <tspan font-size="405px" class="text">b</tspan>
                                 </tspan>
                                 <tspan font-family="Leipzig" font-size="720px" class="text"></tspan>
                              </text>
                           </g>
                           <g id="s19805v9" class="syl">
                              <text x="2176" y="1452" font-size="0px">
                                 <tspan id="t1q1dwbb" class="text">
                                    <tspan font-size="405px" class="text">c</tspan>
                                 </tspan>
                              </text>
                           </g>
                        </g>
                     </g>
                     <g id="note-0000000859308104" class="note">
                        <g class="notehead">
                           <use xlink:href="#E0A4-nluf5v" x="2554" y="510" height="720px" width="720px" />
                        </g>
                        <g id="s1nh6tcm" class="stem">
                           <rect x="2554" y="538" height="602" width="18" />
                        </g>
                        <g id="vcacj3r" class="verse">
                           <g id="sfmm4kh" class="syl">
                              <text x="2464" y="1452" font-size="0px">
                                 <tspan id="t1avxg84" class="text">
                                    <tspan font-size="405px" class="text">d</tspan>
                                    <tspan font-family="Leipzig" font-size="720px" class="text"></tspan>
                                    <tspan font-size="405px" class="text">e</tspan>
                                    <tspan font-family="Leipzig" font-size="720px" class="text"></tspan>
                                    <tspan font-size="405px" class="text">f</tspan>
                                 </tspan>
                              </text>
                           </g>
                        </g>
                     </g>
                  </g>
               </g>
               <g id="b1rvj7jz" class="barLine">
                  <path d="M3474 240 L3474 960" stroke="currentColor" stroke-width="27" />
                  <path d="M3604 240 L3604 960" stroke="currentColor" stroke-width="90" />
               </g>
            </g>
            <g id="sppeh9d" class="systemMilestoneEnd s14n7aln" />
         </g>
         <g id="p1lwekll" class="pageMilestoneEnd sf3b2e7" />
         <g id="p176rlwh" class="pageMilestoneEnd mhb293o" />
      </g>
   </svg>
</svg>
