<svg width="505px" height="205.5px" version="1.1" xmlns="http://www.w3.org/2000/svg" xmlns:xlink="http://www.w3.org/1999/xlink" xmlns:mei="http://www.music-encoding.org/ns/mei" overflow="visible">
   <desc>Engraved by Verovio 3.12.0-77bd079</desc>
   <defs>
      <symbol id="E050-17oiq0" viewBox="0 0 1000 1000" overflow="inherit">
         <path transform="scale(1,-1)" d="M441 -245c-23 -4 -48 -6 -76 -6c-59 0 -102 7 -130 20c-88 42 -150 93 -187 154c-26 44 -43 103 -48 176c0 6 -1 13 -1 19c0 54 15 111 45 170c29 57 65 106 110 148s96 85 153 127c-3 16 -8 46 -13 92c-4 43 -5 73 -5 89c0 117 16 172 69 257c34 54 64 82 89 82 c21 0 43 -30 69 -92s39 -115 41 -159v-15c0 -109 -21 -162 -67 -241c-13 -20 -63 -90 -98 -118c-13 -9 -25 -19 -37 -29l31 -181c8 1 18 2 28 2c58 0 102 -12 133 -35c59 -43 92 -104 98 -184c1 -7 1 -15 1 -22c0 -123 -87 -209 -181 -248c8 -57 17 -110 25 -162 c5 -31 6 -58 6 -80c0 -30 -5 -53 -14 -70c-35 -64 -88 -99 -158 -103c-5 0 -11 -1 -16 -1c-37 0 -72 10 -108 27c-50 24 -77 59 -80 105v11c0 29 7 55 20 76c18 28 45 42 79 44h6c49 0 93 -42 97 -87v-9c0 -51 -34 -86 -105 -106c17 -24 51 -36 102 -36c62 0 116 43 140 85 c9 16 13 41 13 74c0 20 -1 42 -5 67c-8 53 -18 106 -26 159zM461 939c-95 0 -135 -175 -135 -286c0 -24 2 -48 5 -71c50 39 92 82 127 128c40 53 60 100 60 140v8c-4 53 -22 81 -55 81h-2zM406 119l54 -326c73 25 110 78 110 161c0 7 0 15 -1 23c-7 95 -57 142 -151 142h-12 zM382 117c-72 -2 -128 -47 -128 -120v-7c2 -46 43 -99 75 -115c-3 -2 -7 -5 -10 -10c-70 33 -116 88 -123 172v11c0 68 44 126 88 159c23 17 49 29 78 36l-29 170c-21 -13 -52 -37 -92 -73c-50 -44 -86 -84 -109 -119c-45 -69 -67 -130 -67 -182v-13c5 -68 35 -127 93 -176 s125 -73 203 -73c25 0 50 3 75 9c-19 111 -36 221 -54 331z" />
      </symbol>
      <symbol id="E084-17oiq0" viewBox="0 0 1000 1000" overflow="inherit">
         <path transform="scale(1,-1)" d="M20 -78c84 97 114 180 134 329h170c-13 -32 -82 -132 -99 -151l-84 -97c-33 -36 -59 -63 -80 -81h162v102l127 123v-225h57v-39h-57v-34c0 -43 19 -65 57 -65v-34h-244v36c48 0 60 26 60 70v27h-203v39z" />
      </symbol>
      <symbol id="E0A4-17oiq0" viewBox="0 0 1000 1000" overflow="inherit">
         <path transform="scale(1,-1)" d="M0 -39c0 68 73 172 200 172c66 0 114 -37 114 -95c0 -84 -106 -171 -218 -171c-64 0 -96 30 -96 94z" />
      </symbol>
      <symbol id="E260-17oiq0" viewBox="0 0 1000 1000" overflow="inherit">
         <path transform="scale(1,-1)" d="M20 110c32 16 54 27 93 27c26 0 35 -3 54 -13c13 -7 24 -20 27 -38l4 -25c0 -28 -16 -57 -45 -89c-23 -25 -39 -44 -65 -68l-88 -79v644h20v-359zM90 106c-32 0 -48 -10 -70 -29v-194c31 31 54 59 71 84c21 32 32 59 32 84c0 9 1 16 1 20c0 14 -3 21 -11 30l-8 3z" />
      </symbol>
   </defs>
   <style type="text/css">g.page-margin{font-family:Times;} g.ending, g.fing, g.reh, g.tempo{font-weight:bold;} g.dir, g.dynam, g.mNum{font-style:italic;} g.label{font-weight:normal;}</style>
   <svg class="definition-scale" color="black" viewBox="0 0 10100 4110">
      <g class="page-margin" transform="translate(500, 500)">
         <g id="mppnbms" class="mdiv pageMilestone" />
         <g id="s1c4pkoh" class="score pageMilestone" />
         <g id="s1sb3m3w" class="system">
            <g id="s5c686a" class="section systemMilestone" />
            <g id="m8d5wt3" class="measure">
               <g id="sfli8sz" class="staff">
                  <path d="M0 247 L9104 247" stroke="currentColor" stroke-width="13" />
                  <path d="M0 427 L9104 427" stroke="currentColor" stroke-width="13" />
                  <path d="M0 607 L9104 607" stroke="currentColor" stroke-width="13" />
                  <path d="M0 787 L9104 787" stroke="currentColor" stroke-width="13" />
                  <path d="M0 967 L9104 967" stroke="currentColor" stroke-width="13" />
                  <g id="c1ger9om" class="clef">
                     <use xlink:href="#E050-17oiq0" x="90" y="787" height="720px" width="720px" />
                  </g>
                  <g id="knclb8x" class="keySig">
                     <g id="k13eznd5" class="keyAccid">
                        <use xlink:href="#E260-17oiq0" x="735" y="607" height="720px" width="720px" />
                     </g>
                     <g id="kxrbn8d" class="keyAccid">
                        <use xlink:href="#E260-17oiq0" x="915" y="337" height="720px" width="720px" />
                     </g>
                     <g id="khtkkcp" class="keyAccid">
                        <use xlink:href="#E260-17oiq0" x="1095" y="697" height="720px" width="720px" />
                     </g>
                  </g>
                  <g id="m1sqd5lc" class="meterSig">
                     <use xlink:href="#E084-17oiq0" x="1403" y="427" height="720px" width="720px" />
                     <use xlink:href="#E084-17oiq0" x="1403" y="787" height="720px" width="720px" />
                  </g>
                  <g id="l274gx1" class="layer">
                     <g id="n181y7mw" class="note">
                        <g class="notehead">
                           <use xlink:href="#E0A4-17oiq0" x="1965" y="877" height="720px" width="720px" />
                        </g>
                        <g id="s1jkvvaf" class="stem">
                           <rect x="2173" y="247" height="602" width="18" />
                        </g>
                     </g>
                     <g id="n1mgqojg" class="note">
                        <g class="notehead">
                           <use xlink:href="#E0A4-17oiq0" x="2655" y="877" height="720px" width="720px" />
                        </g>
                        <g id="sjr2dro" class="stem">
                           <rect x="2863" y="247" height="602" width="18" />
                        </g>
                     </g>
                     <g id="n12x38te" class="note">
                        <g class="notehead">
                           <use xlink:href="#E0A4-17oiq0" x="3345" y="877" height="720px" width="720px" />
                        </g>
                        <g id="s26eq0d" class="stem">
                           <rect x="3553" y="247" height="602" width="18" />
                        </g>
                     </g>
                  </g>
               </g>
               <g id="d193pens" class="dynam">
                  <text x="1965" y="1331" font-size="0px">
                     <tspan id="t1umtrfl" class="text">
                        <tspan font-family="Leipzig" font-size="720px" font-style="normal" class="text"></tspan>
                        <tspan font-size="405px" class="text"> e senza sordini ma non </tspan>
                        <tspan font-family="Leipzig" font-size="720px" font-style="normal" class="text"></tspan>
                     </tspan>
                  </text>
               </g>
               <g id="d1m8sgqe" class="dynam">
                  <text x="2655" y="1814" font-size="0px">
                     <tspan id="r1s84phw" class="rend">
                        <tspan id="t40yq7h" class="text">
                           <tspan font-size="405px" class="text">sempre pp e senza sordini</tspan>
                        </tspan>
                     </tspan>
                  </text>
               </g>
               <g id="d1y6xnrw" class="dynam">
                  <text x="3345" y="2268" font-size="0px">
                     <tspan id="t1xvid0c" class="text">
                        <tspan font-size="405px" class="text">sempre </tspan>
                        <tspan font-family="Leipzig" font-size="720px" font-style="normal" class="text"></tspan>
                        <tspan font-size="405px" class="text"> </tspan>
                        <tspan font-family="Leipzig" font-size="720px" font-style="normal" class="text"></tspan>
                        <tspan font-size="405px" class="text"> e poi</tspan>
                     </tspan>
                     <tspan id="l1brglf8" class="lb" />
                     <tspan id="t1oghvy8" class="text" x="3345" y="2658">
                        <tspan font-size="405px" class="text">poco </tspan>
                     </tspan>
                     <tspan id="r130go4o" class="rend" font-style="normal" font-weight="bold">
                        <tspan id="t5eucmn" class="text">
                           <tspan font-size="405px" font-style="normal" class="text">a</tspan>
                        </tspan>
                     </tspan>
                     <tspan id="trsnw7o" class="text">
                        <tspan font-size="405px" class="text"> poco crescendo ma non </tspan>
                        <tspan font-family="Leipzig" font-size="720px" font-style="normal" class="text"></tspan>
                     </tspan>
                     <tspan id="l1k99cgw" class="lb" />
                     <tspan id="tttdho8" class="text" x="3345" y="3048">
                        <tspan font-size="405px" class="text">troppo</tspan>
                     </tspan>
                  </text>
               </g>
               <g id="b14awur4" class="barLine">
                  <path d="M9091 247 L9091 967" stroke="currentColor" stroke-width="27" />
               </g>
            </g>
            <g id="s1ihdrnz" class="systemMilestoneEnd s5c686a" />
         </g>
         <g id="pv287vq" class="pageMilestoneEnd s1c4pkoh" />
         <g id="pt98j46" class="pageMilestoneEnd mppnbms" />
      </g>
   </svg>
</svg>
