<svg width="397px" height="302.5px" version="1.1" xmlns="http://www.w3.org/2000/svg" xmlns:xlink="http://www.w3.org/1999/xlink" xmlns:mei="http://www.music-encoding.org/ns/mei" overflow="visible">
   <desc>Engraved by Verovio 3.12.0-77bd079</desc>
   <defs>
      <symbol id="E050-g7rq47" viewBox="0 0 1000 1000" overflow="inherit">
         <path transform="scale(1,-1)" d="M364 -252c-245 0 -364 165 -364 339c0 202 153 345 297 464c12 10 11 12 9 24c-7 41 -14 106 -14 164c0 104 24 229 98 311c20 22 51 48 65 48c11 0 37 -28 52 -50c41 -60 65 -146 65 -233c0 -153 -82 -280 -190 -381c-6 -6 -8 -7 -6 -19l25 -145c3 -18 3 -18 29 -18 c147 0 241 -113 241 -241c0 -113 -67 -198 -168 -238c-14 -6 -15 -5 -13 -17c11 -62 29 -157 29 -214c0 -170 -130 -200 -197 -200c-151 0 -190 98 -190 163c0 62 40 115 107 115c61 0 96 -47 96 -102c0 -58 -36 -85 -67 -94c-23 -7 -32 -10 -32 -17c0 -13 26 -29 80 -29 c59 0 159 18 159 166c0 47 -15 134 -27 201c-2 12 -4 11 -15 9c-20 -4 -46 -6 -69 -6zM80 20c0 -139 113 -236 288 -236c20 0 40 2 56 5c15 3 16 3 14 14l-50 298c-2 11 -4 12 -20 8c-61 -17 -100 -60 -100 -117c0 -46 30 -89 72 -107c7 -3 15 -6 15 -13 c0 -6 -4 -11 -12 -11c-7 0 -19 3 -27 6c-68 23 -115 87 -115 177c0 85 57 164 145 194c18 6 18 5 15 24l-21 128c-2 11 -4 12 -14 4c-47 -38 -93 -75 -153 -142c-83 -94 -93 -173 -93 -232zM470 943c-61 0 -133 -96 -133 -252c0 -32 2 -66 6 -92c2 -13 6 -14 13 -8 c79 69 174 159 174 270c0 55 -27 82 -60 82zM441 117c-12 1 -13 -2 -11 -14l49 -285c2 -12 4 -12 16 -6c56 28 94 79 94 142c0 88 -67 156 -148 163z" />
      </symbol>
      <symbol id="E062-g7rq47" viewBox="0 0 1000 1000" overflow="inherit">
         <path transform="scale(1,-1)" d="M8 -635c-9 0 -13 6 -13 12c0 8 6 13 15 18c233 133 371 289 371 568c0 157 -46 261 -152 261c-102 0 -162 -73 -162 -113c0 -10 3 -18 16 -18s23 7 50 7c49 0 96 -40 96 -104c0 -62 -43 -106 -106 -106c-81 0 -123 69 -123 149c0 96 78 223 252 223 c173 0 279 -116 279 -290c0 -304 -260 -482 -506 -602c-6 -3 -12 -5 -17 -5zM629 70c-31 0 -55 24 -55 55s24 55 55 55s55 -24 55 -55s-24 -55 -55 -55zM630 -179c-31 0 -54 23 -54 54s23 54 54 54s54 -23 54 -54s-23 -54 -54 -54z" />
      </symbol>
      <symbol id="E084-g7rq47" viewBox="0 0 1000 1000" overflow="inherit">
         <path transform="scale(1,-1)" d="M40 -112c-12 0 -20 7 -20 17c0 3 1 7 3 11c0 1 1 2 1 3l6 8c30 42 128 181 128 305c0 16 14 19 23 19c8 0 53 -2 71 -2s59 2 68 2c8 0 15 -6 15 -14c0 -2 -1 -3 -1 -5c-3 -11 -163 -238 -243 -306h135v84c0 12 5 18 9 23l95 115c6 7 11 9 20 9c11 0 12 -9 12 -17v-214h73 c11 0 15 -7 15 -19s-5 -19 -15 -19h-73v-59c0 -32 21 -38 31 -38s22 -6 22 -20s-10 -21 -20 -21h-213c-15 0 -19 11 -19 21s7 19 23 19c18 0 40 8 40 35v63h-186z" />
      </symbol>
      <symbol id="E0A4-g7rq47" viewBox="0 0 1000 1000" overflow="inherit">
         <path transform="scale(1,-1)" d="M0 -42c0 86 88 167 198 167c57 0 97 -32 97 -83c0 -85 -109 -167 -198 -167c-54 0 -97 31 -97 83z" />
      </symbol>
      <symbol id="E4E5-g7rq47" viewBox="0 0 1000 1000" overflow="inherit">
         <path transform="scale(1,-1)" d="M117 -366c-73 56 -116 105 -116 155c0 53 39 96 82 96c5 0 11 -3 16 -3c4 -1 12 -3 16 -3c5 0 9 1 11 5c1 1 1 3 1 4c0 2 -4 10 -6 14c-13 21 -27 40 -43 60l-49 60s-10 10 -10 24c0 8 4 19 14 29c45 47 60 90 60 127c0 72 -57 123 -61 134c-3 6 -4 11 -4 16 c0 14 10 21 20 21c6 0 13 -3 18 -8c17 -17 165 -193 165 -193s4 -9 4 -19c0 -5 -1 -10 -4 -15c-26 -41 -62 -89 -66 -147c0 -4 -1 -9 -1 -13c0 -56 31 -93 69 -139c11 -12 37 -45 37 -57c0 -3 -2 -4 -5 -4c-2 0 -4 0 -7 1c-1 0 -2 1 -3 1c-16 6 -49 17 -78 17 c-42 0 -63 -32 -63 -73c0 -9 1 -18 4 -26c2 -9 13 -36 26 -36c8 -7 16 -15 16 -24c0 -2 -1 -4 -2 -7c-1 -4 -8 -6 -15 -6c-8 0 -18 3 -26 9z" />
      </symbol>
      <symbol id="E4E6-g7rq47" viewBox="0 0 1000 1000" overflow="inherit">
         <path transform="scale(1,-1)" d="M27 56c-15 12 -27 30 -27 51c0 37 30 67 67 67s67 -30 67 -67v-10c33 0 83 60 90 66c6 4 9 4 11 4c2 -1 12 -6 12 -16c-1 -5 -6 -21 -10 -39c0 0 -98 -351 -101 -353c-10 -8 -24 -10 -35 -10c-6 0 -29 1 -29 13c18 66 90 265 93 280c1 4 1 8 1 11c0 5 -1 9 -5 9 c-1 0 -3 0 -5 -1c-13 -7 -22 -11 -36 -15c-11 -4 -25 -7 -39 -7c-19 0 -38 6 -54 17z" />
      </symbol>
      <symbol id="E520-g7rq47" viewBox="0 0 1000 1000" overflow="inherit">
         <path transform="scale(1,-1)" d="M-89 -130c0 9 4 13 13 13h31c10 0 12 2 15 10l123 305c3 7 6 17 6 25c0 7 -3 12 -11 12c-18 0 -38 -26 -67 -76c-5 -9 -9 -15 -16 -15c-6 0 -11 4 -11 11c0 5 2 10 7 19c31 57 63 99 122 99c26 0 41 -9 48 -21c9 -17 6 -24 11 -24c4 0 7 8 21 20c18 16 40 26 71 26 c56 0 92 -31 92 -89c0 -95 -78 -195 -174 -195c-17 0 -30 2 -44 9c-16 8 -19 18 -24 18s-7 -7 -9 -12l-45 -112c-1 -3 -2 -6 -2 -7c0 -3 3 -3 9 -3h40c8 0 12 -4 12 -12c0 -9 -4 -13 -13 -13h-193c-8 0 -12 4 -12 12zM144 56c0 -21 8 -32 25 -32c48 0 101 127 101 176 c0 22 -6 37 -23 37c-24 0 -50 -29 -64 -63l-20 -49c-11 -28 -19 -48 -19 -69z" />
      </symbol>
      <symbol id="E52B-g7rq47" viewBox="0 0 1000 1000" overflow="inherit">
         <path transform="scale(1,-1)" d="M-70 -142c-8 0 -12 4 -12 12c0 9 4 13 13 13h31c10 0 12 2 15 10l123 305c3 7 6 17 6 25c0 7 -3 12 -11 12c-18 0 -38 -26 -67 -76c-5 -9 -9 -15 -16 -15c-6 0 -11 4 -11 11c0 5 2 10 7 19c31 57 63 99 122 99c26 0 41 -9 48 -21c9 -17 6 -24 11 -24c4 0 7 8 21 20 c18 16 40 26 71 26c56 0 92 -31 92 -89c0 -95 -78 -195 -174 -195c-17 0 -30 2 -44 9c-16 8 -19 18 -24 18s-7 -7 -9 -12l-45 -112c-1 -3 -2 -6 -2 -7c0 -3 3 -3 9 -3h40c8 0 12 -4 12 -12c0 -9 -4 -13 -13 -13h-193zM285 -142c-8 0 -12 4 -12 12c0 9 4 13 13 13h31 c10 0 12 2 15 10l123 305c3 7 6 17 6 25c0 7 -3 12 -11 12c-15 0 -28 -17 -38 -30c-2 -2 -4 -6 -4 -6c-5 -7 -9 -12 -16 -12c-6 0 -11 3 -11 10c0 5 2 10 8 19c22 31 48 57 96 57c26 0 41 -9 48 -21c9 -17 6 -24 11 -24c4 0 7 8 21 20c18 16 40 26 71 26c56 0 92 -31 92 -89 c0 -95 -78 -195 -174 -195c-17 0 -30 2 -44 9c-16 8 -19 18 -24 18s-7 -7 -9 -12l-45 -112c-1 -3 -2 -6 -2 -7c0 -3 3 -3 9 -3h40c8 0 12 -4 12 -12c0 -9 -4 -13 -13 -13h-193zM506 56c0 -21 8 -32 25 -32c48 0 101 127 101 176c0 22 -6 37 -23 37c-24 0 -50 -29 -64 -63 l-20 -49c-11 -28 -19 -48 -19 -69zM151 56c0 -21 8 -32 25 -32c48 0 101 127 101 176c0 22 -6 37 -23 37c-24 0 -50 -29 -64 -63l-20 -49c-11 -28 -19 -48 -19 -69z" />
      </symbol>
      <symbol id="E262-g7rq47" viewBox="0 0 1000 1000" overflow="inherit">
         <path transform="scale(1,-1)" d="M8 26c-5 0 -8 3 -8 9v71c0 6 5 14 12 16c0 0 20 8 26 11s12 13 12 27v135c0 6 6 11 16 11c7 0 14 -5 14 -11v-120c0 -8 3 -20 12 -20c17 4 51 18 63 25c9 6 12 19 13 29v130c0 6 6 11 16 11c8 0 14 -5 14 -11v-122c0 -8 7 -13 14 -13c5 1 25 9 25 9c2 1 3 1 5 1 c4 0 7 -3 7 -8v-71c0 -6 -5 -14 -12 -17l-26 -10c-8 -3 -13 -22 -13 -29v-93c0 -12 7 -18 13 -18l26 10c2 1 3 1 5 1c4 0 7 -3 7 -8v-71c0 -6 -5 -14 -12 -17c0 0 -21 -8 -28 -11s-11 -15 -11 -23v-142c0 -6 -6 -11 -17 -11c-7 0 -13 5 -13 11v125c0 6 -5 18 -13 18 c-1 0 -3 -1 -4 -1l-61 -25c-5 -2 -10 -9 -10 -22v-139c0 -6 -7 -11 -17 -11c-7 0 -13 5 -13 11v123c0 5 -5 16 -12 16c-1 0 -2 0 -3 -1c-9 -3 -23 -9 -23 -9c-1 0 -3 -1 -4 -1c-5 0 -8 3 -8 9v71c0 6 5 14 12 16c0 0 21 9 27 11c6 3 11 12 11 23v99c0 8 -6 18 -13 18 c-1 0 -2 -1 -3 -1c-3 -2 -22 -11 -26 -11zM77 -30c0 -24 1 -46 3 -50c1 -3 6 -5 12 -5c23 0 70 20 76 40c2 9 4 37 4 64s-2 52 -4 57c-2 4 -8 6 -15 6c-25 0 -71 -21 -73 -38c-2 -8 -3 -43 -3 -74z" />
      </symbol>
      <symbol id="E4A2-g7rq47" viewBox="0 0 1000 1000" overflow="inherit">
         <path transform="scale(1,-1)" d="M42 0c-23 0 -42 19 -42 42s19 42 42 42s42 -19 42 -42s-19 -42 -42 -42z" />
      </symbol>
      <symbol id="E4E4-g7rq47" viewBox="0 0 1000 1000" overflow="inherit">
         <path transform="scale(1,-1)" d="M26 -2c-15 0 -26 12 -26 26v92c0 15 11 26 26 26h230c14 0 26 -11 26 -26v-92c0 -14 -12 -26 -26 -26h-230z" />
      </symbol>
   </defs>
   <style type="text/css">g.page-margin{font-family:Times;} g.ending, g.fing, g.reh, g.tempo{font-weight:bold;} g.dir, g.dynam, g.mNum{font-style:italic;} g.label{font-weight:normal;}</style>
   <svg class="definition-scale" color="black" viewBox="0 0 7940 6050">
      <g class="page-margin" transform="translate(500, 500)">
         <g id="m1xtcmx1" class="mdiv pageMilestone" />
         <g id="s1wsfv3" class="score pageMilestone" />
         <g id="s1nt3u8v" class="system">
            <path d="M13 324 L13 4154" stroke="currentColor" stroke-width="27" />
            <g id="gxzgr3a" class="grpSym">
               <path d="M-72,4136 C-432,3596 18,3054 -252,2874 C81,3054 -369,3596 -72,4136" stroke="currentColor" stroke-linecap="round" stroke-linejoin="round" stroke-width="18" />
               <path d="M-72,1611 C-369,2151 81,2694 -252,2874 C18,2694 -432,2151 -72,1611" stroke="currentColor" stroke-linecap="round" stroke-linejoin="round" stroke-width="18" />
            </g>
            <g id="s1alpd65" class="section systemMilestone" />
            <g id="m1agzn53" class="measure upbeat">
               <g id="s1vab6en" class="staff">
                  <path d="M0 324 L2697 324" stroke="currentColor" stroke-width="10" />
                  <path d="M0 459 L2697 459" stroke="currentColor" stroke-width="10" />
                  <path d="M0 594 L2697 594" stroke="currentColor" stroke-width="10" />
                  <path d="M0 729 L2697 729" stroke="currentColor" stroke-width="10" />
                  <path d="M0 864 L2697 864" stroke="currentColor" stroke-width="10" />
                  <g id="c17yrxmn" class="clef">
                     <use xlink:href="#E050-g7rq47" x="120" y="729" height="540px" width="540px" />
                  </g>
                  <g id="k1mnf29g" class="keySig">
                     <g id="k193ymh5" class="keyAccid">
                        <use xlink:href="#E262-g7rq47" x="793" y="324" height="540px" width="540px" />
                     </g>
                  </g>
                  <g id="m1yhhqjt" class="meterSig">
                     <use xlink:href="#E084-g7rq47" x="1138" y="457" height="540px" width="540px" />
                     <use xlink:href="#E084-g7rq47" x="1138" y="727" height="540px" width="540px" />
                  </g>
                  <g id="l1nomjtk" class="layer">
                     <g id="b1vdvqwn" class="beam">
                        <polygon points="1877,391 2392,324 2392,391 1877,458" />
                        <g id="note-0000000827838925" class="note">
                           <g class="notehead">
                              <use xlink:href="#E0A4-g7rq47" x="1731" y="860" height="540px" width="540px" />
                           </g>
                           <g id="s1bf6ifw" class="stem">
                              <rect x="1877" y="404" height="434" width="12" />
                           </g>
                           <g id="v1hwigtj" class="verse">
                              <g id="s1l7ctaf" class="syl">
                                 <text x="1664" y="1231" font-size="0px">
                                    <tspan id="t180qesz" class="text">
                                       <tspan font-size="303px" class="text">Die</tspan>
                                    </tspan>
                                 </text>
                              </g>
                           </g>
                        </g>
                        <g id="note-0000000349216146" class="note">
                           <g class="notehead">
                              <use xlink:href="#E0A4-g7rq47" x="2234" y="793" height="540px" width="540px" />
                           </g>
                           <g id="samv99a" class="stem">
                              <rect x="2380" y="337" height="434" width="12" />
                           </g>
                           <g id="a4jb696" class="accid" />
                           <g id="v1l9mjpt" class="verse">
                              <g id="sjdkaun" class="syl">
                                 <text x="2167" y="1231" font-size="0px">
                                    <tspan id="tbgfrws" class="text">
                                       <tspan font-size="303px" class="text">zwei</tspan>
                                    </tspan>
                                 </text>
                              </g>
                           </g>
                        </g>
                     </g>
                  </g>
               </g>
               <g id="s1b7e7sd" class="staff">
                  <path d="M0 1593 L2697 1593" stroke="currentColor" stroke-width="13" />
                  <path d="M0 1773 L2697 1773" stroke="currentColor" stroke-width="13" />
                  <path d="M0 1953 L2697 1953" stroke="currentColor" stroke-width="13" />
                  <path d="M0 2133 L2697 2133" stroke="currentColor" stroke-width="13" />
                  <path d="M0 2313 L2697 2313" stroke="currentColor" stroke-width="13" />
                  <g id="c13pgzo8" class="clef">
                     <use xlink:href="#E050-g7rq47" x="120" y="2133" height="720px" width="720px" />
                  </g>
                  <g id="k1bb7tgc" class="keySig">
                     <g id="k1o1zfyr" class="keyAccid">
                        <use xlink:href="#E262-g7rq47" x="793" y="1593" height="720px" width="720px" />
                     </g>
                  </g>
                  <g id="m1rxsb2k" class="meterSig">
                     <use xlink:href="#E084-g7rq47" x="1138" y="1773" height="720px" width="720px" />
                     <use xlink:href="#E084-g7rq47" x="1138" y="2133" height="720px" width="720px" />
                  </g>
                  <g class="ledgerLines below">
                     <path d="M1683 2493 L1991 2493" stroke="currentColor" stroke-width="22" />
                     <path d="M2186 2493 L2494 2493" stroke="currentColor" stroke-width="22" />
                     <path d="M1683 2673 L1991 2673" stroke="currentColor" stroke-width="22" />
                  </g>
                  <g id="l1gycj53" class="layer">
                     <g id="bul23cu" class="beam">
                        <polygon points="1925,1593 2446,1548 2446,1638 1925,1683" />
                        <g id="c1ryxz2b" class="chord">
                           <g id="se9n5mm" class="stem">
                              <rect x="1925" y="1611" height="1122" width="18" />
                           </g>
                           <g id="d1e284" class="note">
                              <g class="notehead">
                                 <use xlink:href="#E0A4-g7rq47" x="1731" y="2763" height="720px" width="720px" />
                              </g>
                           </g>
                           <g id="n1at5cxb" class="note">
                              <g class="notehead">
                                 <use xlink:href="#E0A4-g7rq47" x="1731" y="2313" height="720px" width="720px" />
                              </g>
                           </g>
                        </g>
                        <g id="c1h7hedy" class="chord">
                           <g id="s1546pm3" class="stem">
                              <rect x="2428" y="1566" height="987" width="18" />
                           </g>
                           <g id="d1e323" class="note">
                              <g class="notehead">
                                 <use xlink:href="#E0A4-g7rq47" x="2234" y="2583" height="720px" width="720px" />
                              </g>
                           </g>
                           <g id="n37trt9" class="note">
                              <g class="notehead">
                                 <use xlink:href="#E0A4-g7rq47" x="2234" y="2223" height="720px" width="720px" />
                              </g>
                              <g id="a14xqfna" class="accid" />
                           </g>
                        </g>
                     </g>
                  </g>
               </g>
               <g id="sczht00" class="staff">
                  <path d="M0 3434 L2697 3434" stroke="currentColor" stroke-width="13" />
                  <path d="M0 3614 L2697 3614" stroke="currentColor" stroke-width="13" />
                  <path d="M0 3794 L2697 3794" stroke="currentColor" stroke-width="13" />
                  <path d="M0 3974 L2697 3974" stroke="currentColor" stroke-width="13" />
                  <path d="M0 4154 L2697 4154" stroke="currentColor" stroke-width="13" />
                  <g id="c1ay9gmd" class="clef">
                     <use xlink:href="#E062-g7rq47" x="120" y="3614" height="720px" width="720px" />
                  </g>
                  <g id="k1x7fn07" class="keySig">
                     <g id="k1r3k9dq" class="keyAccid">
                        <use xlink:href="#E262-g7rq47" x="793" y="3614" height="720px" width="720px" />
                     </g>
                  </g>
                  <g id="muhuh0b" class="meterSig">
                     <use xlink:href="#E084-g7rq47" x="1138" y="3614" height="720px" width="720px" />
                     <use xlink:href="#E084-g7rq47" x="1138" y="3974" height="720px" width="720px" />
                  </g>
                  <g id="l139o2zy" class="layer">
                     <g id="rl3jrhk" class="rest">
                        <use xlink:href="#E4E5-g7rq47" x="1731" y="3794" height="720px" width="720px" />
                     </g>
                  </g>
               </g>
               <g id="d1jbiiz6" class="dynam">
                  <use xlink:href="#E52B-g7rq47" x="1731" y="215" height="540px" width="540px" />
               </g>
               <g id="ddp3url" class="dynam">
                  <use xlink:href="#E52B-g7rq47" x="1731" y="3287" height="720px" width="720px" />
               </g>
               <g id="sxjrii0" class="slur">
                  <path d="M1837,2965 C1966,3001 2259,2895 2338,2785 C2304,2942 1961,3065 1837,2965" stroke="currentColor" stroke-linecap="round" stroke-linejoin="round" stroke-width="9" />
               </g>
               <g id="b1u0ybdv" class="barLine">
                  <path d="M2684 324 L2684 860" stroke="currentColor" stroke-width="27" />
                  <path d="M2684 1593 L2684 2313" stroke="currentColor" stroke-width="27" />
                  <path d="M2684 3434 L2684 4154" stroke="currentColor" stroke-width="27" />
               </g>
            </g>
            <g id="m1ljooll" class="measure">
               <g id="s6529n" class="staff">
                  <path d="M2697 324 L6945 324" stroke="currentColor" stroke-width="10" />
                  <path d="M2697 459 L6945 459" stroke="currentColor" stroke-width="10" />
                  <path d="M2697 594 L6945 594" stroke="currentColor" stroke-width="10" />
                  <path d="M2697 729 L6945 729" stroke="currentColor" stroke-width="10" />
                  <path d="M2697 864 L6945 864" stroke="currentColor" stroke-width="10" />
                  <g id="lenofwr" class="layer">
                     <g id="bzxk98u" class="beam">
                        <polygon points="3077,291 3737,291 3737,358 3077,358" />
                        <polygon points="3578,391 3737,391 3737,458 3578,458" />
                        <g id="d1e379" class="note">
                           <g class="notehead">
                              <use xlink:href="#E0A4-g7rq47" x="2931" y="726" height="540px" width="540px" />
                           </g>
                           <g id="dc3u5ep" class="dots">
                              <ellipse cx="3156" cy="663" rx="27" ry="27" />
                           </g>
                           <g id="sfq5pku" class="stem">
                              <rect x="3077" y="304" height="400" width="12" />
                           </g>
                           <g id="v1keg7t3" class="verse">
                              <g id="s11vlu1e" class="syl">
                                 <text x="2807" y="1231" font-size="0px">
                                    <tspan id="t1jcfyjv" class="text">
                                       <tspan font-size="303px" class="text">blau-</tspan>
                                    </tspan>
                                 </text>
                              </g>
                           </g>
                        </g>
                        <g id="d1e401" class="note">
                           <g class="notehead">
                              <use xlink:href="#E0A4-g7rq47" x="3579" y="726" height="540px" width="540px" />
                           </g>
                           <g id="sg3sq2a" class="stem">
                              <rect x="3725" y="304" height="400" width="12" />
                           </g>
                           <g id="vaklaf0" class="verse">
                              <g id="s13aq40m" class="syl">
                                 <text x="3512" y="1231" font-size="0px">
                                    <tspan id="teol0dv" class="text">
                                       <tspan font-size="303px" class="text">en</tspan>
                                    </tspan>
                                 </text>
                              </g>
                           </g>
                        </g>
                     </g>
                     <g id="b5745j2" class="beam">
                        <polygon points="4092,291 4647,291 4647,358 4092,358" />
                        <g id="d1e424" class="note">
                           <g class="notehead">
                              <use xlink:href="#E0A4-g7rq47" x="3946" y="726" height="540px" width="540px" />
                           </g>
                           <g id="s5nv1q8" class="stem">
                              <rect x="4092" y="304" height="400" width="12" />
                           </g>
                           <g id="vcq4q1k" class="verse">
                              <g id="s1e0idix" class="syl">
                                 <text x="3879" y="1231" font-size="0px">
                                    <tspan id="t1nmzr8l" class="text">
                                       <tspan font-size="303px" class="text">Au-</tspan>
                                    </tspan>
                                 </text>
                              </g>
                           </g>
                        </g>
                        <g id="d1e445" class="note">
                           <g class="notehead">
                              <use xlink:href="#E0A4-g7rq47" x="4489" y="726" height="540px" width="540px" />
                           </g>
                           <g id="srd1yre" class="stem">
                              <rect x="4635" y="304" height="400" width="12" />
                           </g>
                           <g id="v1iaz7xx" class="verse">
                              <g id="sswpd0i" class="syl">
                                 <text x="4422" y="1231" font-size="0px">
                                    <tspan id="t1rjzdxr" class="text">
                                       <tspan font-size="303px" class="text">gen</tspan>
                                    </tspan>
                                 </text>
                              </g>
                           </g>
                        </g>
                     </g>
                     <g id="rgiojgc" class="rest">
                        <use xlink:href="#E4E6-g7rq47" x="4885" y="592" height="540px" width="540px" />
                     </g>
                     <g id="ba6onps" class="beam">
                        <polygon points="5535,257 6634,324 6634,391 5535,324" />
                        <g id="d1e474" class="note">
                           <g class="notehead">
                              <use xlink:href="#E0A4-g7rq47" x="5389" y="726" height="540px" width="540px" />
                           </g>
                           <g id="s1gfjwf5" class="stem">
                              <rect x="5535" y="270" height="434" width="12" />
                           </g>
                           <g id="v1j87en7" class="verse">
                              <g id="s1lycmp7" class="syl">
                                 <text x="5236" y="1231" font-size="0px">
                                    <tspan id="t1ctu40z" class="text">
                                       <tspan font-size="303px" class="text">von</tspan>
                                    </tspan>
                                 </text>
                              </g>
                           </g>
                        </g>
                        <g id="d1e495" class="note">
                           <g class="notehead">
                              <use xlink:href="#E0A4-g7rq47" x="5839" y="860" height="540px" width="540px" />
                           </g>
                           <g id="s1pqiijo" class="stem">
                              <rect x="5985" y="298" height="540" width="12" />
                           </g>
                           <g id="vt7sn7k" class="verse">
                              <g id="svzopyb" class="syl">
                                 <text x="5772" y="1231" font-size="0px">
                                    <tspan id="tu1hqn" class="text">
                                       <tspan font-size="303px" class="text">mei-</tspan>
                                    </tspan>
                                 </text>
                              </g>
                           </g>
                        </g>
                        <g id="d1e516" class="note">
                           <g class="notehead">
                              <use xlink:href="#E0A4-g7rq47" x="6476" y="793" height="540px" width="540px" />
                           </g>
                           <g id="saulwia" class="stem">
                              <rect x="6622" y="337" height="434" width="12" />
                           </g>
                           <g id="a1uqm2s1" class="accid" />
                           <g id="varkvjf" class="verse">
                              <g id="szsp84m" class="syl">
                                 <text x="6409" y="1231" font-size="0px">
                                    <tspan id="t1au8rch" class="text">
                                       <tspan font-size="303px" class="text">nem</tspan>
                                    </tspan>
                                 </text>
                              </g>
                           </g>
                        </g>
                     </g>
                  </g>
               </g>
               <g id="s1lzaob2" class="staff">
                  <path d="M2697 1593 L6945 1593" stroke="currentColor" stroke-width="13" />
                  <path d="M2697 1773 L6945 1773" stroke="currentColor" stroke-width="13" />
                  <path d="M2697 1953 L6945 1953" stroke="currentColor" stroke-width="13" />
                  <path d="M2697 2133 L6945 2133" stroke="currentColor" stroke-width="13" />
                  <path d="M2697 2313 L6945 2313" stroke="currentColor" stroke-width="13" />
                  <g class="ledgerLines below">
                     <path d="M2829 2493 L3137 2493" stroke="currentColor" stroke-width="22" />
                     <path d="M3477 2493 L3785 2493" stroke="currentColor" stroke-width="22" />
                     <path d="M3844 2493 L4152 2493" stroke="currentColor" stroke-width="22" />
                     <path d="M5737 2493 L6045 2493" stroke="currentColor" stroke-width="22" />
                     <path d="M6374 2493 L6682 2493" stroke="currentColor" stroke-width="22" />
                  </g>
                  <g id="l1fxg9jo" class="layer">
                     <g id="b1s0sc9c" class="beam">
                        <polygon points="3071,1548 3737,1548 3737,1638 3071,1638" />
                        <polygon points="3525,1683 3737,1683 3737,1773 3525,1773" />
                        <g id="c1x1fnbr" class="chord">
                           <g id="d1y6tvir" class="dots">
                              <ellipse cx="3179" cy="2583" rx="36" ry="36" />
                              <ellipse cx="3179" cy="2223" rx="36" ry="36" />
                              <ellipse cx="3179" cy="2043" rx="36" ry="36" />
                           </g>
                           <g id="s17ekowp" class="stem">
                              <rect x="3071" y="1566" height="987" width="18" />
                           </g>
                           <g id="a1g68yz4" class="artic">
                              <use xlink:href="#E4A2-g7rq47" x="3050" y="1511" height="720px" width="720px" />
                           </g>
                           <g id="d1e540" class="note">
                              <g class="notehead">
                                 <use xlink:href="#E0A4-g7rq47" x="2877" y="2583" height="720px" width="720px" />
                              </g>
                           </g>
                           <g id="n3nkrsa" class="note">
                              <g class="notehead">
                                 <use xlink:href="#E0A4-g7rq47" x="2877" y="2313" height="720px" width="720px" />
                              </g>
                           </g>
                           <g id="n134rvw" class="note">
                              <g class="notehead">
                                 <use xlink:href="#E0A4-g7rq47" x="2877" y="2133" height="720px" width="720px" />
                              </g>
                           </g>
                        </g>
                        <g id="c2bqxwe" class="chord">
                           <g id="s1w17b4s" class="stem">
                              <rect x="3719" y="1566" height="987" width="18" />
                           </g>
                           <g id="a1u5i6ma" class="artic">
                              <use xlink:href="#E4A2-g7rq47" x="3698" y="1511" height="720px" width="720px" />
                           </g>
                           <g id="n77dyhw" class="note">
                              <g class="notehead">
                                 <use xlink:href="#E0A4-g7rq47" x="3525" y="2583" height="720px" width="720px" />
                              </g>
                           </g>
                           <g id="n1npkntg" class="note">
                              <g class="notehead">
                                 <use xlink:href="#E0A4-g7rq47" x="3525" y="2313" height="720px" width="720px" />
                              </g>
                           </g>
                           <g id="n1o2d449" class="note">
                              <g class="notehead">
                                 <use xlink:href="#E0A4-g7rq47" x="3525" y="2133" height="720px" width="720px" />
                              </g>
                           </g>
                        </g>
                     </g>
                     <g id="c110zeh5" class="chord">
                        <g id="s1lankms" class="stem">
                           <rect x="4086" y="1503" height="1050" width="18" />
                        </g>
                        <g id="a1blpht5" class="artic">
                           <use xlink:href="#E4A2-g7rq47" x="4065" y="1466" height="720px" width="720px" />
                        </g>
                        <g id="d1e656" class="note">
                           <g class="notehead">
                              <use xlink:href="#E0A4-g7rq47" x="3892" y="2583" height="720px" width="720px" />
                           </g>
                        </g>
                        <g id="n1p7ti3t" class="note">
                           <g class="notehead">
                              <use xlink:href="#E0A4-g7rq47" x="3892" y="2313" height="720px" width="720px" />
                           </g>
                        </g>
                        <g id="n8ofnb8" class="note">
                           <g class="notehead">
                              <use xlink:href="#E0A4-g7rq47" x="3892" y="2133" height="720px" width="720px" />
                           </g>
                        </g>
                     </g>
                     <g id="rhfbxov" class="rest">
                        <use xlink:href="#E4E5-g7rq47" x="4885" y="1953" height="720px" width="720px" />
                     </g>
                     <g id="b1pw2ji7" class="beam">
                        <polygon points="5979,1683 6634,1593 6634,1683 5979,1773" />
                        <g id="c11pwerw" class="chord">
                           <g id="s44bzjj" class="stem">
                              <rect x="5979" y="1701" height="762" width="18" />
                           </g>
                           <g id="a1ipawu6" class="artic">
                              <use xlink:href="#E4A2-g7rq47" x="5958" y="1623" height="720px" width="720px" />
                           </g>
                           <g id="d1e720" class="note">
                              <g class="notehead">
                                 <use xlink:href="#E0A4-g7rq47" x="5785" y="2493" height="720px" width="720px" />
                              </g>
                           </g>
                           <g id="n9lwoqj" class="note">
                              <g class="notehead">
                                 <use xlink:href="#E0A4-g7rq47" x="5785" y="2313" height="720px" width="720px" />
                              </g>
                           </g>
                        </g>
                        <g id="c1wbdyuy" class="chord">
                           <g id="s122fuda" class="stem">
                              <rect x="6616" y="1611" height="942" width="18" />
                           </g>
                           <g id="a1a6c7h3" class="artic">
                              <use xlink:href="#E4A2-g7rq47" x="6595" y="1556" height="720px" width="720px" />
                           </g>
                           <g id="d1e760" class="note">
                              <g class="notehead">
                                 <use xlink:href="#E0A4-g7rq47" x="6422" y="2583" height="720px" width="720px" />
                              </g>
                           </g>
                           <g id="noyfft8" class="note">
                              <g class="notehead">
                                 <use xlink:href="#E0A4-g7rq47" x="6422" y="2223" height="720px" width="720px" />
                              </g>
                              <g id="aytijg7" class="accid" />
                           </g>
                        </g>
                     </g>
                  </g>
               </g>
               <g id="s1qwdyca" class="staff">
                  <path d="M2697 3434 L6945 3434" stroke="currentColor" stroke-width="13" />
                  <path d="M2697 3614 L6945 3614" stroke="currentColor" stroke-width="13" />
                  <path d="M2697 3794 L6945 3794" stroke="currentColor" stroke-width="13" />
                  <path d="M2697 3974 L6945 3974" stroke="currentColor" stroke-width="13" />
                  <path d="M2697 4154 L6945 4154" stroke="currentColor" stroke-width="13" />
                  <g class="ledgerLines below">
                     <path d="M2829 4334 L3137 4334" stroke="currentColor" stroke-width="22" />
                     <path d="M2829 4514 L3137 4514" stroke="currentColor" stroke-width="22" />
                     <path d="M2829 4694 L3137 4694" stroke="currentColor" stroke-width="22" />
                     <path d="M2829 4874 L3137 4874" stroke="currentColor" stroke-width="22" />
                  </g>
                  <g id="l1wm8ko1" class="layer">
                     <g id="ci67x93" class="chord">
                        <g id="s3j5f1w" class="stem">
                           <rect x="3071" y="3704" height="1230" width="18" />
                        </g>
                        <g id="nwk244f" class="note">
                           <g class="notehead">
                              <use xlink:href="#E0A4-g7rq47" x="2877" y="4964" height="720px" width="720px" />
                           </g>
                        </g>
                        <g id="n7hnpul" class="note">
                           <g class="notehead">
                              <use xlink:href="#E0A4-g7rq47" x="2877" y="4334" height="720px" width="720px" />
                           </g>
                        </g>
                     </g>
                     <g id="c4vhmub" class="chord">
                        <g id="s1sl66vp" class="stem">
                           <rect x="3892" y="3554" height="960" width="18" />
                        </g>
                        <g id="n1bgjdxe" class="note">
                           <g class="notehead">
                              <use xlink:href="#E0A4-g7rq47" x="3892" y="3974" height="720px" width="720px" />
                           </g>
                        </g>
                        <g id="n1ymc6ho" class="note">
                           <g class="notehead">
                              <use xlink:href="#E0A4-g7rq47" x="3892" y="3704" height="720px" width="720px" />
                           </g>
                        </g>
                        <g id="n1qmjher" class="note">
                           <g class="notehead">
                              <use xlink:href="#E0A4-g7rq47" x="3892" y="3524" height="720px" width="720px" />
                           </g>
                        </g>
                     </g>
                     <g id="r12eyuwn" class="rest">
                        <use xlink:href="#E4E4-g7rq47" x="4885" y="3794" height="720px" width="720px" />
                        <g class="ledgerLines" />
                     </g>
                  </g>
               </g>
               <g id="d2gjfaq" class="dynam">
                  <use xlink:href="#E520-g7rq47" x="5335" y="148" height="540px" width="540px" />
               </g>
               <g id="d135hn10" class="dynam">
                  <use xlink:href="#E520-g7rq47" x="5785" y="3102" height="720px" width="720px" />
               </g>
               <g id="s1u8969l" class="slur">
                  <path d="M2983,2785 C3219,2960 3761,2960 3998,2785 C3784,3018 3196,3018 2983,2785" stroke="currentColor" stroke-linecap="round" stroke-linejoin="round" stroke-width="9" />
               </g>
               <g id="s15jmkgj" class="slur">
                  <path d="M5891,2695 C6010,2812 6376,2864 6526,2783 C6393,2924 5977,2866 5891,2695" stroke="currentColor" stroke-linecap="round" stroke-linejoin="round" stroke-width="9" />
               </g>
               <g id="b1ar4hdq" class="barLine">
                  <path d="M6932 324 L6932 860" stroke="currentColor" stroke-width="27" />
                  <path d="M6932 1593 L6932 2313" stroke="currentColor" stroke-width="27" />
                  <path d="M6932 3434 L6932 4154" stroke="currentColor" stroke-width="27" />
               </g>
            </g>
            <g id="s14hj4ip" class="systemMilestoneEnd s1alpd65" />
         </g>
         <g id="pgbjb5c" class="pageMilestoneEnd s1wsfv3" />
         <g id="pkzahgt" class="pageMilestoneEnd m1xtcmx1" />
      </g>
   </svg>
</svg>
