<svg width="395px" height="306px" version="1.1" xmlns="http://www.w3.org/2000/svg" xmlns:xlink="http://www.w3.org/1999/xlink" xmlns:mei="http://www.music-encoding.org/ns/mei" overflow="visible">
   <desc>Engraved by Verovio 3.4.1-8f65a58</desc>
   <defs>
      <symbol id="E050-0000001289335735" viewBox="0 0 1000 1000" overflow="inherit">
         <path transform="scale(1,-1)" d="M633.5 58.6992c14.2998 -63 4.90039 -124 -28 -181.399c-37.7002 -58.5 -79.2998 -94.2002 -136.8 -113.4c6.59961 -37.5996 12 -67.8994 15.5996 -88.7998c14 -80.7002 17.9004 -139.8 12.2998 -186.2c-6.7998 -56.2998 -28 -96.0996 -64.5996 -121.8 c-35.7002 -22.0996 -79.7002 -34.0996 -124 -34.0996c-8.5 0 -17 0.399414 -25.5 1.2998c-54.2998 5.7998 -100.5 28.8994 -130.1 65.0996c-31.3008 38.4004 -35.9004 95.7002 -11.3008 142.7c10.5 20 25.5 36.4004 43.6006 47.2002c20 12 42.7002 17.0996 67.5996 15.0996 c56.2002 -4.5 81.2998 -34 92.4004 -57.8994c18.3994 -39.4004 9.7002 -85.6006 -8.2998 -110.801c-23.6006 -33 -59.3008 -45.2998 -78.5 -49.6992h-0.200195c-0.100586 0 -3.60059 -0.5 -3.5 -2.30078c0.0996094 -2 3 -2.7998 3 -2.7998h0.0996094 c14.2998 -4.09961 36.9004 -8.7998 62.7998 -7.59961c31 1.5 59.1006 11 83.4004 28.2998c39 27.7002 55.5 67.4004 55.0996 132.5c-0.399414 53.4004 -11.7998 123.7 -30.0996 219.7c-23.9004 -4.5 -50.2002 -6.90039 -79.7002 -7.60059 c-70.5996 -1.59961 -176.5 30.5 -253.8 106c-29.2998 28.7002 -52.2998 61.5 -68.2002 97.5c-17.7998 40.1006 -26.7998 84.3008 -26.7998 131.301c0 191.5 127.9 314.699 212.4 396.1c10 9.7002 19.5 18.7998 28.0996 27.4004 c13.7998 13.7998 25.7002 25.1992 36.0996 35.1992c2.5 2.40039 4.90039 4.60059 7.2002 6.90039c-4.5 25.7002 -7.09961 40.7002 -7.2998 41.5996c-0.0996094 0.5 -11.2002 57.4004 -15 130.101c-3.5 67.2002 -1.40039 162.1 28.5996 232.7 c25.6006 60.0996 58.3008 99 81.3008 121c28.8994 27.6992 54 40.0996 66.1992 40.0996c10.4004 0 20.9004 -7.2998 31.2002 -21.5996c23.5 -32.5 44.4004 -99.6006 54.5 -175.101c11 -82.0996 7.40039 -159.1 -9.7998 -211.2c-0.5 -2 -12 -47.7998 -46.7002 -113.6 c-22.7998 -43 -59 -101 -113.5 -162.7c9.10059 -54.5 19.1006 -113.3 29.5 -173.399c24.2002 1.7998 54.2002 0.699219 85.2998 -8.2002c46.9004 -13.5 87 -42 118.9 -84.7002c7.7998 -10.4004 34.2002 -48.5996 46.5 -102.9zM291.4 -203.2 c42.0996 -11.1006 85.5996 -12 129.399 -2.7002c-1.2998 6.7002 -2.7002 13.4004 -4 20.2998c-16.3994 83.6006 -37 195.101 -57.3994 307.5c-23.8008 -6.39941 -44.2002 -17.3994 -60.9004 -32.8994c-18.4004 -17 -31.2002 -38.6006 -37 -62.6006 c-10.7002 -43.7998 3.7998 -88.2998 37 -113.2c7.2998 -5.2998 14 -9.5 20 -13.1992c15.5996 -9.60059 25.7998 -16 20.7002 -27.7002c-1.40039 -3.2998 -4.10059 -5.5 -7.7998 -6.7002c-18.4004 -5.7998 -59.7002 15.5 -69 21.0996 c-34.6006 20.9004 -59.9004 58.5 -69.3008 103.101c-7.2998 34.7998 -8.69922 90 26.7002 155.7c31.1006 56.5 78.6006 88 117.101 100.699c-8.80078 48.8008 -17.1006 95.7002 -24.7002 138.301c-12.9004 -12.8008 -26.6006 -25.6006 -41.1006 -38.4004 c-60.5996 -53.2998 -106.199 -108.6 -135.399 -164.4c-25.1006 -47.8994 -38.2002 -96.0996 -38.9004 -143c-0.5 -35.8994 6.10059 -70.1992 19.7998 -101.8c14.7002 -33.8994 33.4004 -55.5996 46.5 -67.8994c37.6006 -35 81.9004 -60 128.301 -72.2002zM404.6 128.6 c19.6006 -112.5 39 -222.4 54.4004 -310.1c0.799805 -4.30078 1.59961 -8.60059 2.2998 -12.8008c51.2998 20.6006 75.9004 61.3008 87.6006 93.1006c15.3994 42.0996 15.5 86.5 10.7998 111.8c-8.90039 48.2998 -51.6006 122.7 -155.101 118zM331.4 838 c-18.8008 -60.5 -22 -133.2 -9.5 -216.101c1.5 -9.7998 3.09961 -20.2998 4.7998 -31.3994c88 96.0996 117.2 152.3 133.5 206.3c13.3994 44.3994 20.7998 111.5 -2.2998 154.399c-4.7002 8.7002 -10 14.4004 -14.6006 15.8008c-1 0.299805 -2.2002 0.5 -3.59961 0.5 c-9.2002 0 -25.7002 -7.10059 -43.2002 -22.3008c-19.9004 -17.2998 -47.2998 -49.7998 -65.0996 -107.199zM-20 2z" />
      </symbol>
      <symbol id="E062-0000001289335735" viewBox="0 0 1000 1000" overflow="inherit">
         <path transform="scale(1,-1)" d="M254 251c93 0 164 -29 211 -85c41 -49 63 -118 63 -201c0 -67 -25 -145 -69 -220c-25 -42 -56 -84 -92 -123c-40 -43 -86 -83 -137 -120c-91 -71 -205 -118 -206 -118s-4 -1 -5 -1c-6 0 -15 2 -18 12c-4 15 11 24 11 24c1 0 99 45 203 140c39 35 83 98 116 164 c30 59 65 148 65 241c0 168 -50 250 -152 250c-35 0 -67 -6 -92 -20c-17 -9 -39 -29 -50 -45s-23 -45 -26 -64c8 7 25 17 35 21c9 3 20 5 32 5c17 0 37 -4 58 -18c30 -19 48 -51 48 -86c0 -39 -19 -75 -50 -92c-19 -11 -42 -17 -64 -17c-13 0 -26 2 -38 6 c-30 10 -53 29 -65 56c-9 19 -13 41 -13 65c0 17 2 35 7 53c9 35 32 86 90 129c1 0 62 44 138 44zM568 124c0 28 22 51 48 51s48 -23 48 -51s-22 -50 -48 -50s-48 22 -48 50zM568 -123c0 28 22 51 48 51s48 -23 48 -51s-22 -51 -48 -51s-48 23 -48 51z" />
      </symbol>
      <symbol id="E084-0000001289335735" viewBox="0 0 1000 1000" overflow="inherit">
         <path transform="scale(1,-1)" d="M35.9004 -126.5c-8.5 0 -11.0996 5.2998 -11.0996 5.2998s-6.30078 10.9004 -9.80078 18.4004c-3.59961 7.39941 1.80078 17.2998 1.80078 17.2998c26.5996 36.2998 56 86.0996 82 167.3c26 81.2998 31.3994 154.9 31.3994 154.9 c0.700195 6.2002 6.10059 12.3994 13.2998 12.2002c7.2002 -0.200195 142.7 0 148.7 0c3.7002 0 7.2998 -1.5 10 -4.10059l21.7002 -22.0996c1.90039 -1.90039 6.90039 -12.4004 -1.7998 -23.9004c-118.4 -157.7 -229.601 -278 -229.601 -278h115.101v82.2998 c0 4 1.7002 7.7002 4.59961 10.4004l90.5 83.2002c4.2998 4 10.6006 4.89941 15.9004 2.2998l12.0996 -6c4.7998 -2.40039 7.7998 -7.2002 7.7998 -12.5996v-159.601h89.4004c7.7998 0 14.0996 -6.2998 14.0996 -14.0996v-19.1006 c0 -7.7998 -6.2998 -14.0996 -14.0996 -14.0996h-89.4004v-74.2002h89.4004c7.7998 0 14.0996 -6.2998 14.0996 -14.0996v-19.1006c0 -7.7998 -6.2998 -14.0996 -14.0996 -14.0996h-302.5c-7.7998 0 -14.0996 6.2998 -14.0996 14.0996v19.1006 c0 7.7998 6.2998 14.0996 14.0996 14.0996h82.2998v74.2002h-171.8z" />
      </symbol>
      <symbol id="E0A4-0000001289335735" viewBox="0 0 1000 1000" overflow="inherit">
         <path transform="scale(1,-1)" d="M315 81c7 -13 10 -27 10 -41c0 -51 -40 -110 -106 -145c-36 -19 -73 -28 -107 -28c-46 0 -84 17 -102 50c-7 13 -10 27 -10 41c0 51 40 110 106 145c36 19 73 29 107 29c46 0 84 -18 102 -51z" />
      </symbol>
      <symbol id="E262-0000001289335735" viewBox="0 0 1000 1000" overflow="inherit">
         <path transform="scale(1,-1)" d="M233 106l-38 -7v-165l33 7h2c8 0 14 -6 14 -14v-59c0 -6 -5 -13 -11 -14l-38 -7v-147h-28v141l-89 -18v-155h-28v149l-33 -7h-3c-8 0 -14 6 -14 14v58c0 6 5 13 11 14l39 8v165l-33 -7h-3c-8 0 -14 6 -14 14v-2v58v2c0 6 5 13 11 14l39 8v147h28v-141l89 18v155h28v-149 l33 7h2c8 0 14 -6 14 -14v-59c0 -6 -5 -13 -11 -14zM78 -91l89 19v165l-89 -18v-166z" />
      </symbol>
      <symbol id="E4A2-0000001289335735" viewBox="0 0 1000 1000" overflow="inherit">
         <path transform="scale(1,-1)" d="M11.4229 11.3359c-15.2305 15.2305 -15.2305 39.9238 0 55.1543s39.9238 15.2305 55.1543 0s15.2305 -39.9238 0 -55.1543s-39.9238 -15.2305 -55.1543 0z" />
      </symbol>
      <symbol id="E4E4-0000001289335735" viewBox="0 0 1000 1000" overflow="inherit">
         <path transform="scale(1,-1)" d="M0 118c0 14 0 14 14 14h297c14 0 14 0 14 -14v-108c0 -14 0 -14 -14 -14h-297c-14 0 -14 0 -14 14v108z" />
      </symbol>
      <symbol id="E4E5-0000001289335735" viewBox="0 0 1000 1000" overflow="inherit">
         <path transform="scale(1,-1)" d="M232 -169c3 -5 5 -9 0 -17c-6 -9 -18 -3 -18 -3l-39 25c-8 5 -19 9 -32 9s-27 -4 -39 -16c-13 -13 -17 -29 -17 -42c0 -18 7 -32 7 -32s32 -58 35 -63s5 -14 -4 -21s-18 4 -18 4s-75 95 -96 127c-8 11 -11 25 -11 39c0 25 12 53 34 73c18 16 40 20 57 20 c12 0 21 -2 25 -3l-112 139c-2 2 -3 5 -3 8v9c0 2 1 6 2 8l101 154c4 6 4 18 0 24l-76 104s-8 13 2 21c10 9 18 -3 18 -3l162 -219c2 -2 3 -5 3 -8v-9c0 -2 -1 -5 -2 -7l-102 -154c-2 -4 -3 -12 0 -15l115 -142c3 -4 5 -6 6 -7z" />
      </symbol>
      <symbol id="E4E6-0000001289335735" viewBox="0 0 1000 1000" overflow="inherit">
         <path transform="scale(1,-1)" d="M267.3 202.6c7.39941 -2.90039 10.2998 -9.7998 8 -17.0996l-140.7 -440.9l-26.4004 8.5l113.9 356.3c-10.7998 -12.5996 -22.7998 -24.5 -35.4004 -33.7998c-27.0996 -19.9004 -58.1992 -28.2002 -86.6992 -28.2002c-20.5 0 -39.6006 4.40039 -54.9004 11.7002 c-26.4004 10.5 -45.0996 36.2998 -45.0996 66.4004c0 39.5 32 71.5 71.5 71.5s71.5 -32 71.5 -71.5c0 -18.2002 -6.80078 -34.8008 -18 -47.4004c15.6992 3.2998 31.5 9.7002 45.3994 19.9004c44.2998 32.5996 76.1006 91.8994 79.4004 98 c3.2998 6.09961 10.0996 9.39941 17.5 6.59961z" />
      </symbol>
      <symbol id="E520-0000001289335735" viewBox="0 0 1000 1000" overflow="inherit">
         <path transform="scale(1,-1)" d="M-95 -163v20h61l99 276c5 10 23 54 23 78c0 7 -1 12 -5 15c-3 2 -7 3 -12 2c-9 -2 -21 -10 -27 -19c-12 -16 -22 -48 -26 -61l-18 9c29 83 63 106 96 106c4 0 7 -1 11 -1c35 -5 56 -43 56 -43l2 -4l3 3c17 17 48 43 79 43c4 0 9 -1 13 -2c15 -4 57 -21 57 -88 c0 -16 -2 -34 -8 -56c-21 -81 -76 -137 -131 -137c-6 0 -13 0 -19 2c-34 9 -44 31 -44 31l-3 7l-58 -161h75v-20h-224zM157 12c3 0 8 0 11 2c25 12 50 59 63 98c6 18 16 54 16 81c0 9 -1 17 -4 23c-2 4 -6 8 -10 9c-8 2 -17 1 -27 -5c-26 -15 -55 -57 -64 -95 c-1 -2 -12 -38 -12 -69c0 -19 4 -37 19 -43c2 -1 6 -1 8 -1z" />
      </symbol>
      <symbol id="E52B-0000001289335735" viewBox="0 0 1000 1000" overflow="inherit">
         <path transform="scale(1,-1)" d="M584 259c15 -4 57 -21 57 -88c0 -16 -2 -34 -8 -56c-21 -81 -77 -137 -132 -137c-6 0 -13 0 -19 2c-34 9 -43 31 -43 31l-3 7l-58 -161h75v-20h-225v20h62l99 276c12 32 23 58 23 75c0 10 -4 18 -14 21c-3 1 -5 1 -8 1c-16 0 -35 -13 -43 -26c-10 -17 -23 -40 -38 -90 c-21 -80 -76 -136 -131 -136c-6 0 -13 0 -19 2c-34 9 -44 31 -44 31l-3 7l-58 -161h75v-20h-224v20h61l99 276c5 10 23 54 23 78c0 7 -1 12 -5 15c-3 2 -7 3 -12 2c-9 -2 -20 -10 -26 -19c-12 -16 -23 -48 -27 -61l-18 9c29 83 63 106 96 106c4 0 7 -1 11 -1 c35 -5 56 -43 56 -43l2 -4l3 3c17 17 48 43 79 43c4 0 9 -1 13 -2c13 -3 46 -16 55 -63c23 54 67 67 101 67c5 0 10 0 15 -1c35 -5 56 -43 56 -43l2 -4l3 3c17 17 48 43 79 43c4 0 9 -1 13 -2zM231 112c6 18 16 54 16 81c0 9 -1 17 -4 23c-2 4 -6 8 -10 9c-8 2 -17 1 -27 -5 c-26 -15 -55 -57 -64 -95c-1 -2 -12 -38 -12 -69c0 -19 4 -37 19 -43c2 -1 6 -1 8 -1c3 0 8 0 11 2c25 12 50 59 63 98zM555 112c6 18 16 54 16 81c0 9 -1 17 -4 23c-2 4 -6 8 -10 9c-8 2 -17 1 -27 -5c-26 -15 -55 -57 -64 -95c-1 -2 -12 -38 -12 -69c0 -19 4 -37 19 -43 c2 -1 6 -1 8 -1c3 0 8 0 11 2c25 12 50 59 63 98z" />
      </symbol>
   </defs>
   <style type="text/css">g.page-margin{font-family:Times;} g.ending, g.reh, g.tempo{font-weight:bold;} g.dir, g.dynam, g.mNum{font-style:italic;} g.label{font-weight:normal;}</style>
   <svg class="definition-scale" color="black" viewBox="0 0 7900 6120">
      <g class="page-margin" transform="translate(500, 500)">
         <g id="system-0000001023129506" class="system">
            <path d="M13 330 L13 4174" stroke="currentColor" stroke-width="27" />
            <g id="grpsym-0000000074243042" class="grpSym">
               <path d="M-72,4156 C-432,3616 18,3061 -252,2881 C81,3061 -369,3616 -72,4156" stroke="currentColor" stroke-linecap="round" stroke-linejoin="round" stroke-width="18" />
               <path d="M-72,1606 C-369,2146 81,2701 -252,2881 C18,2701 -432,2146 -72,1606" stroke="currentColor" stroke-linecap="round" stroke-linejoin="round" stroke-width="18" />
            </g>
            <g id="section-0000000893351816" class="section boundaryStart" />
            <g id="measure-0000001505795335" class="measure upbeat">
               <g id="staff-0000002128236579" class="staff">
                  <path d="M0 330 L2660 330" stroke="currentColor" stroke-width="10" />
                  <path d="M0 465 L2660 465" stroke="currentColor" stroke-width="10" />
                  <path d="M0 600 L2660 600" stroke="currentColor" stroke-width="10" />
                  <path d="M0 735 L2660 735" stroke="currentColor" stroke-width="10" />
                  <path d="M0 870 L2660 870" stroke="currentColor" stroke-width="10" />
                  <g id="clef-0000000307187357" class="clef">
                     <use xlink:href="#E050-0000001289335735" x="104" y="735" height="540px" width="540px" />
                  </g>
                  <g id="keysig-0000000347221711" class="keySig">
                     <use xlink:href="#E262-0000001289335735" x="761" y="330" height="540px" width="540px" />
                  </g>
                  <g id="msig-0000001042227878" class="meterSig">
                     <use xlink:href="#E084-0000001289335735" x="1107" y="463" height="540px" width="540px" />
                     <use xlink:href="#E084-0000001289335735" x="1107" y="733" height="540px" width="540px" />
                  </g>
                  <g id="layer-0000000784558821" class="layer">
                     <g id="beam-0000000530511967" class="beam">
                        <polygon points="1857,397 2372,330 2372,397 1857,464 " />
                        <g id="note-0000000827838925" class="note">
                           <g class="notehead">
                              <use xlink:href="#E0A4-0000001289335735" x="1694" y="866" height="540px" width="540px" />
                           </g>
                           <g id="stem-0000000197941363" class="stem">
                              <rect x="1857" y="410" height="434" width="12" />
                           </g>
                           <g id="verse-0000001551901393" class="verse">
                              <g id="syl-0000001617819336" class="syl">
                                 <text x="1627" y="1237" font-size="0px">
                                    <tspan id="text-0000001399125485" class="text">
                                       <tspan font-size="303px" class="text">Die</tspan>
                                    </tspan>
                                 </text>
                              </g>
                           </g>
                        </g>
                        <g id="note-0000000349216146" class="note">
                           <g class="notehead">
                              <use xlink:href="#E0A4-0000001289335735" x="2197" y="799" height="540px" width="540px" />
                           </g>
                           <g id="stem-0000000348318738" class="stem">
                              <rect x="2360" y="343" height="434" width="12" />
                           </g>
                           <g id="accid-0000001356425228" class="accid" />
                           <g id="verse-0000001899894091" class="verse">
                              <g id="syl-0000000585640194" class="syl">
                                 <text x="2130" y="1237" font-size="0px">
                                    <tspan id="text-0000000937186357" class="text">
                                       <tspan font-size="303px" class="text">zwei</tspan>
                                    </tspan>
                                 </text>
                              </g>
                           </g>
                        </g>
                     </g>
                  </g>
               </g>
               <g id="staff-0000001646035001" class="staff">
                  <path d="M0 1588 L2660 1588" stroke="currentColor" stroke-width="13" />
                  <path d="M0 1768 L2660 1768" stroke="currentColor" stroke-width="13" />
                  <path d="M0 1948 L2660 1948" stroke="currentColor" stroke-width="13" />
                  <path d="M0 2128 L2660 2128" stroke="currentColor" stroke-width="13" />
                  <path d="M0 2308 L2660 2308" stroke="currentColor" stroke-width="13" />
                  <g id="clef-0000001847320614" class="clef">
                     <use xlink:href="#E050-0000001289335735" x="104" y="2128" height="720px" width="720px" />
                  </g>
                  <g id="keysig-0000001746474819" class="keySig">
                     <use xlink:href="#E262-0000001289335735" x="761" y="1588" height="720px" width="720px" />
                  </g>
                  <g id="msig-0000001195795737" class="meterSig">
                     <use xlink:href="#E084-0000001289335735" x="1107" y="1768" height="720px" width="720px" />
                     <use xlink:href="#E084-0000001289335735" x="1107" y="2128" height="720px" width="720px" />
                  </g>
                  <g class="ledgerLines below">
                     <path d="M1661 2488 L1952 2488" stroke="currentColor" stroke-width="22" />
                     <path d="M2164 2488 L2455 2488" stroke="currentColor" stroke-width="22" />
                     <path d="M1661 2668 L1952 2668" stroke="currentColor" stroke-width="22" />
                  </g>
                  <g id="layer-0000001025921153" class="layer">
                     <g id="beam-0000000510616708" class="beam">
                        <polygon points="1910,1588 2431,1543 2431,1633 1910,1678 " />
                        <g id="chord-0000000590357944" class="chord">
                           <g id="stem-0000000152607844" class="stem">
                              <rect x="1910" y="1606" height="1122" width="18" />
                           </g>
                           <g id="d1e284" class="note">
                              <g class="notehead">
                                 <use xlink:href="#E0A4-0000001289335735" x="1694" y="2758" height="720px" width="720px" />
                              </g>
                           </g>
                           <g id="note-0000000357571490" class="note">
                              <g class="notehead">
                                 <use xlink:href="#E0A4-0000001289335735" x="1694" y="2308" height="720px" width="720px" />
                              </g>
                           </g>
                        </g>
                        <g id="chord-0000001044788124" class="chord">
                           <g id="stem-0000000784559590" class="stem">
                              <rect x="2413" y="1561" height="987" width="18" />
                           </g>
                           <g id="d1e323" class="note">
                              <g class="notehead">
                                 <use xlink:href="#E0A4-0000001289335735" x="2197" y="2578" height="720px" width="720px" />
                              </g>
                           </g>
                           <g id="note-0000001952509530" class="note">
                              <g class="notehead">
                                 <use xlink:href="#E0A4-0000001289335735" x="2197" y="2218" height="720px" width="720px" />
                              </g>
                              <g id="accid-0000000130060903" class="accid" />
                           </g>
                        </g>
                     </g>
                  </g>
               </g>
               <g id="staff-0000001942727722" class="staff">
                  <path d="M0 3454 L2660 3454" stroke="currentColor" stroke-width="13" />
                  <path d="M0 3634 L2660 3634" stroke="currentColor" stroke-width="13" />
                  <path d="M0 3814 L2660 3814" stroke="currentColor" stroke-width="13" />
                  <path d="M0 3994 L2660 3994" stroke="currentColor" stroke-width="13" />
                  <path d="M0 4174 L2660 4174" stroke="currentColor" stroke-width="13" />
                  <g id="clef-0000001586983133" class="clef">
                     <use xlink:href="#E062-0000001289335735" x="104" y="3634" height="720px" width="720px" />
                  </g>
                  <g id="keysig-0000000678620591" class="keySig">
                     <use xlink:href="#E262-0000001289335735" x="761" y="3634" height="720px" width="720px" />
                  </g>
                  <g id="msig-0000000290623720" class="meterSig">
                     <use xlink:href="#E084-0000001289335735" x="1107" y="3634" height="720px" width="720px" />
                     <use xlink:href="#E084-0000001289335735" x="1107" y="3994" height="720px" width="720px" />
                  </g>
                  <g id="layer-0000001083454666" class="layer">
                     <g id="rest-0000001108728549" class="rest">
                        <use xlink:href="#E4E5-0000001289335735" x="1694" y="3814" height="720px" width="720px" />
                     </g>
                  </g>
               </g>
               <g id="dynam-0000000685118024" class="dynam">
                  <use xlink:href="#E52B-0000001289335735" x="1694" y="209" height="540px" width="540px" />
               </g>
               <g id="dynam-0000001060806853" class="dynam">
                  <use xlink:href="#E52B-0000001289335735" x="1694" y="3292" height="720px" width="720px" />
               </g>
               <g id="slur-0000000194847408" class="slur">
                  <path d="M1811,2960 C1948,3030 2248,2921 2310,2779 C2269,2978 1969,3087 1811,2960" stroke="currentColor" stroke-linecap="round" stroke-linejoin="round" stroke-width="9" />
               </g>
               <g id="bline-0000001624379149" class="barLineAttr">
                  <path d="M2647 870 L2647 330" stroke="currentColor" stroke-width="27" />
                  <path d="M2647 2308 L2647 1588" stroke="currentColor" stroke-width="27" />
                  <path d="M2647 4174 L2647 3454" stroke="currentColor" stroke-width="27" />
               </g>
            </g>
            <g id="measure-0000002035308228" class="measure">
               <g id="staff-0000000107554536" class="staff">
                  <path d="M2660 330 L6908 330" stroke="currentColor" stroke-width="10" />
                  <path d="M2660 465 L6908 465" stroke="currentColor" stroke-width="10" />
                  <path d="M2660 600 L6908 600" stroke="currentColor" stroke-width="10" />
                  <path d="M2660 735 L6908 735" stroke="currentColor" stroke-width="10" />
                  <path d="M2660 870 L6908 870" stroke="currentColor" stroke-width="10" />
                  <g id="layer-0000001635339425" class="layer">
                     <g id="beam-0000001654001669" class="beam">
                        <polygon points="3003,297 3717,297 3717,364 3003,364 " />
                        <polygon points="3542,397 3717,397 3717,464 3542,464 " />
                        <g id="d1e379" class="note">
                           <g class="notehead">
                              <use xlink:href="#E0A4-0000001289335735" x="2840" y="732" height="540px" width="540px" />
                           </g>
                           <g id="dots-0000000290145159" class="dots">
                              <ellipse cx="3081" cy="669" rx="27" ry="27" />
                           </g>
                           <g id="stem-0000000543436550" class="stem">
                              <rect x="3003" y="310" height="400" width="12" />
                           </g>
                           <g id="verse-0000000269220094" class="verse">
                              <g id="syl-0000000034075629" class="syl">
                                 <text x="2770" y="1237" font-size="0px">
                                    <tspan id="text-0000001478446501" class="text">
                                       <tspan font-size="303px" class="text">blau-</tspan>
                                    </tspan>
                                 </text>
                              </g>
                           </g>
                        </g>
                        <g id="d1e401" class="note">
                           <g class="notehead">
                              <use xlink:href="#E0A4-0000001289335735" x="3542" y="732" height="540px" width="540px" />
                           </g>
                           <g id="stem-0000001681808623" class="stem">
                              <rect x="3705" y="310" height="400" width="12" />
                           </g>
                           <g id="verse-0000001351934195" class="verse">
                              <g id="syl-0000001581030105" class="syl">
                                 <text x="3475" y="1237" font-size="0px">
                                    <tspan id="text-0000001557810404" class="text">
                                       <tspan font-size="303px" class="text">en</tspan>
                                    </tspan>
                                 </text>
                              </g>
                           </g>
                        </g>
                     </g>
                     <g id="beam-0000002146319451" class="beam">
                        <polygon points="4072,297 4627,297 4627,364 4072,364 " />
                        <g id="d1e424" class="note">
                           <g class="notehead">
                              <use xlink:href="#E0A4-0000001289335735" x="3909" y="732" height="540px" width="540px" />
                           </g>
                           <g id="stem-0000000977764947" class="stem">
                              <rect x="4072" y="310" height="400" width="12" />
                           </g>
                           <g id="verse-0000000500782188" class="verse">
                              <g id="syl-0000000657821123" class="syl">
                                 <text x="3842" y="1237" font-size="0px">
                                    <tspan id="text-0000000753799505" class="text">
                                       <tspan font-size="303px" class="text">Au-</tspan>
                                    </tspan>
                                 </text>
                              </g>
                           </g>
                        </g>
                        <g id="d1e445" class="note">
                           <g class="notehead">
                              <use xlink:href="#E0A4-0000001289335735" x="4452" y="732" height="540px" width="540px" />
                           </g>
                           <g id="stem-0000000750597385" class="stem">
                              <rect x="4615" y="310" height="400" width="12" />
                           </g>
                           <g id="verse-0000001269406752" class="verse">
                              <g id="syl-0000001816731566" class="syl">
                                 <text x="4385" y="1237" font-size="0px">
                                    <tspan id="text-0000000884936716" class="text">
                                       <tspan font-size="303px" class="text">gen</tspan>
                                    </tspan>
                                 </text>
                              </g>
                           </g>
                        </g>
                     </g>
                     <g id="rest-0000001807130337" class="rest">
                        <use xlink:href="#E4E6-0000001289335735" x="4902" y="598" height="540px" width="540px" />
                     </g>
                     <g id="beam-0000000578354438" class="beam">
                        <polygon points="5515,263 6614,330 6614,397 5515,330 " />
                        <g id="d1e474" class="note">
                           <g class="notehead">
                              <use xlink:href="#E0A4-0000001289335735" x="5352" y="732" height="540px" width="540px" />
                           </g>
                           <g id="stem-0000000971307217" class="stem">
                              <rect x="5515" y="276" height="434" width="12" />
                           </g>
                           <g id="verse-0000001153851501" class="verse">
                              <g id="syl-0000001004844897" class="syl">
                                 <text x="5199" y="1237" font-size="0px">
                                    <tspan id="text-0000000616783871" class="text">
                                       <tspan font-size="303px" class="text">von</tspan>
                                    </tspan>
                                 </text>
                              </g>
                           </g>
                        </g>
                        <g id="d1e495" class="note">
                           <g class="notehead">
                              <use xlink:href="#E0A4-0000001289335735" x="5802" y="866" height="540px" width="540px" />
                           </g>
                           <g id="stem-0000001737195272" class="stem">
                              <rect x="5965" y="304" height="540" width="12" />
                           </g>
                           <g id="verse-0000000330111137" class="verse">
                              <g id="syl-0000001227619358" class="syl">
                                 <text x="5735" y="1237" font-size="0px">
                                    <tspan id="text-0000001723153177" class="text">
                                       <tspan font-size="303px" class="text">mei-</tspan>
                                    </tspan>
                                 </text>
                              </g>
                           </g>
                        </g>
                        <g id="d1e516" class="note">
                           <g class="notehead">
                              <use xlink:href="#E0A4-0000001289335735" x="6439" y="799" height="540px" width="540px" />
                           </g>
                           <g id="stem-0000002000755539" class="stem">
                              <rect x="6602" y="343" height="434" width="12" />
                           </g>
                           <g id="accid-0000001147722294" class="accid" />
                           <g id="verse-0000001070477904" class="verse">
                              <g id="syl-0000002051621609" class="syl">
                                 <text x="6372" y="1237" font-size="0px">
                                    <tspan id="text-0000001606946231" class="text">
                                       <tspan font-size="303px" class="text">nem</tspan>
                                    </tspan>
                                 </text>
                              </g>
                           </g>
                        </g>
                     </g>
                  </g>
               </g>
               <g id="staff-0000001190959745" class="staff">
                  <path d="M2660 1588 L6908 1588" stroke="currentColor" stroke-width="13" />
                  <path d="M2660 1768 L6908 1768" stroke="currentColor" stroke-width="13" />
                  <path d="M2660 1948 L6908 1948" stroke="currentColor" stroke-width="13" />
                  <path d="M2660 2128 L6908 2128" stroke="currentColor" stroke-width="13" />
                  <path d="M2660 2308 L6908 2308" stroke="currentColor" stroke-width="13" />
                  <g class="ledgerLines below">
                     <path d="M2807 2488 L3098 2488" stroke="currentColor" stroke-width="22" />
                     <path d="M3509 2488 L3800 2488" stroke="currentColor" stroke-width="22" />
                     <path d="M3861 2488 L4191 2488" stroke="currentColor" stroke-width="22" />
                     <path d="M5769 2488 L6060 2488" stroke="currentColor" stroke-width="22" />
                     <path d="M6406 2488 L6697 2488" stroke="currentColor" stroke-width="22" />
                  </g>
                  <g id="layer-0000001912844175" class="layer">
                     <g id="beam-0000001341853635" class="beam">
                        <polygon points="3056,1543 3776,1543 3776,1633 3056,1633 " />
                        <polygon points="3542,1678 3776,1678 3776,1768 3542,1768 " />
                        <g id="chord-0000001808266298" class="chord">
                           <g id="dots-0000000462242385" class="dots">
                              <ellipse cx="3164" cy="2578" rx="36" ry="36" />
                              <ellipse cx="3164" cy="2218" rx="36" ry="36" />
                              <ellipse cx="3164" cy="2038" rx="36" ry="36" />
                           </g>
                           <g id="stem-0000001399399247" class="stem">
                              <rect x="3056" y="1561" height="987" width="18" />
                           </g>
                           <g id="artic-0000000343098142" class="artic">
                              <use xlink:href="#E4A2-0000001289335735" x="2936" y="1515" height="540px" width="540px" />
                           </g>
                           <g id="d1e540" class="note">
                              <g class="notehead">
                                 <use xlink:href="#E0A4-0000001289335735" x="2840" y="2578" height="720px" width="720px" />
                              </g>
                           </g>
                           <g id="note-0000001534827968" class="note">
                              <g class="notehead">
                                 <use xlink:href="#E0A4-0000001289335735" x="2840" y="2308" height="720px" width="720px" />
                              </g>
                           </g>
                           <g id="note-0000000280090412" class="note">
                              <g class="notehead">
                                 <use xlink:href="#E0A4-0000001289335735" x="2840" y="2128" height="720px" width="720px" />
                              </g>
                           </g>
                        </g>
                        <g id="chord-0000000195400260" class="chord">
                           <g id="stem-0000001459413496" class="stem">
                              <rect x="3758" y="1561" height="987" width="18" />
                           </g>
                           <g id="artic-0000000589673557" class="artic">
                              <use xlink:href="#E4A2-0000001289335735" x="3638" y="1515" height="540px" width="540px" />
                           </g>
                           <g id="note-0000000006441594" class="note">
                              <g class="notehead">
                                 <use xlink:href="#E0A4-0000001289335735" x="3542" y="2578" height="720px" width="720px" />
                              </g>
                           </g>
                           <g id="note-0000000889688008" class="note">
                              <g class="notehead">
                                 <use xlink:href="#E0A4-0000001289335735" x="3542" y="2308" height="720px" width="720px" />
                              </g>
                           </g>
                           <g id="note-0000000057716395" class="note">
                              <g class="notehead">
                                 <use xlink:href="#E0A4-0000001289335735" x="3542" y="2128" height="720px" width="720px" />
                              </g>
                           </g>
                        </g>
                     </g>
                     <g id="chord-0000001524325968" class="chord">
                        <g id="stem-0000001951894885" class="stem">
                           <rect x="4125" y="1498" height="1050" width="18" />
                        </g>
                        <g id="artic-0000002014119113" class="artic">
                           <use xlink:href="#E4A2-0000001289335735" x="4005" y="1452" height="540px" width="540px" />
                        </g>
                        <g id="d1e656" class="note">
                           <g class="notehead">
                              <use xlink:href="#E0A4-0000001289335735" x="3909" y="2578" height="720px" width="720px" />
                           </g>
                        </g>
                        <g id="note-0000000388471006" class="note">
                           <g class="notehead">
                              <use xlink:href="#E0A4-0000001289335735" x="3909" y="2308" height="720px" width="720px" />
                           </g>
                        </g>
                        <g id="note-0000000681910962" class="note">
                           <g class="notehead">
                              <use xlink:href="#E0A4-0000001289335735" x="3909" y="2128" height="720px" width="720px" />
                           </g>
                        </g>
                     </g>
                     <g id="rest-0000001904797942" class="rest">
                        <use xlink:href="#E4E5-0000001289335735" x="4902" y="1948" height="720px" width="720px" />
                     </g>
                     <g id="beam-0000001400285365" class="beam">
                        <polygon points="6018,1678 6673,1588 6673,1678 6018,1768 " />
                        <g id="chord-0000000322842082" class="chord">
                           <g id="stem-0000000537140623" class="stem">
                              <rect x="6018" y="1696" height="762" width="18" />
                           </g>
                           <g id="artic-0000001463179852" class="artic">
                              <use xlink:href="#E4A2-0000001289335735" x="5898" y="1519" height="540px" width="540px" />
                           </g>
                           <g id="d1e720" class="note">
                              <g class="notehead">
                                 <use xlink:href="#E0A4-0000001289335735" x="5802" y="2488" height="720px" width="720px" />
                              </g>
                           </g>
                           <g id="note-0000000832633821" class="note">
                              <g class="notehead">
                                 <use xlink:href="#E0A4-0000001289335735" x="5802" y="2308" height="720px" width="720px" />
                              </g>
                           </g>
                        </g>
                        <g id="chord-0000001073185695" class="chord">
                           <g id="stem-0000001848682420" class="stem">
                              <rect x="6655" y="1606" height="942" width="18" />
                           </g>
                           <g id="artic-0000000316824712" class="artic">
                              <use xlink:href="#E4A2-0000001289335735" x="6535" y="1515" height="540px" width="540px" />
                           </g>
                           <g id="d1e760" class="note">
                              <g class="notehead">
                                 <use xlink:href="#E0A4-0000001289335735" x="6439" y="2578" height="720px" width="720px" />
                              </g>
                           </g>
                           <g id="note-0000001815859901" class="note">
                              <g class="notehead">
                                 <use xlink:href="#E0A4-0000001289335735" x="6439" y="2218" height="720px" width="720px" />
                              </g>
                              <g id="accid-0000001267248590" class="accid" />
                           </g>
                        </g>
                     </g>
                  </g>
               </g>
               <g id="staff-0000002051724831" class="staff">
                  <path d="M2660 3454 L6908 3454" stroke="currentColor" stroke-width="13" />
                  <path d="M2660 3634 L6908 3634" stroke="currentColor" stroke-width="13" />
                  <path d="M2660 3814 L6908 3814" stroke="currentColor" stroke-width="13" />
                  <path d="M2660 3994 L6908 3994" stroke="currentColor" stroke-width="13" />
                  <path d="M2660 4174 L6908 4174" stroke="currentColor" stroke-width="13" />
                  <g class="ledgerLines below">
                     <path d="M2792 4354 L3122 4354" stroke="currentColor" stroke-width="22" />
                     <path d="M2792 4534 L3122 4534" stroke="currentColor" stroke-width="22" />
                     <path d="M2792 4714 L3122 4714" stroke="currentColor" stroke-width="22" />
                     <path d="M2792 4894 L3122 4894" stroke="currentColor" stroke-width="22" />
                  </g>
                  <g id="layer-0000001194314738" class="layer">
                     <g id="chord-0000000318153057" class="chord">
                        <g id="stem-0000001012028144" class="stem">
                           <rect x="3056" y="3724" height="1230" width="18" />
                        </g>
                        <g id="note-0000002111631616" class="note">
                           <g class="notehead">
                              <use xlink:href="#E0A4-0000001289335735" x="2840" y="4984" height="720px" width="720px" />
                           </g>
                        </g>
                        <g id="note-0000000877819790" class="note">
                           <g class="notehead">
                              <use xlink:href="#E0A4-0000001289335735" x="2840" y="4354" height="720px" width="720px" />
                           </g>
                        </g>
                     </g>
                     <g id="chord-0000000304555640" class="chord">
                        <g id="stem-0000001086531968" class="stem">
                           <rect x="3909" y="3575" height="959" width="18" />
                        </g>
                        <g id="note-0000001213110679" class="note">
                           <g class="notehead">
                              <use xlink:href="#E0A4-0000001289335735" x="3909" y="3994" height="720px" width="720px" />
                           </g>
                        </g>
                        <g id="note-0000000541437335" class="note">
                           <g class="notehead">
                              <use xlink:href="#E0A4-0000001289335735" x="3909" y="3724" height="720px" width="720px" />
                           </g>
                        </g>
                        <g id="note-0000001049077006" class="note">
                           <g class="notehead">
                              <use xlink:href="#E0A4-0000001289335735" x="3909" y="3544" height="720px" width="720px" />
                           </g>
                        </g>
                     </g>
                     <g id="rest-0000000996497972" class="rest">
                        <use xlink:href="#E4E4-0000001289335735" x="4902" y="3814" height="720px" width="720px" />
                     </g>
                  </g>
               </g>
               <g id="dynam-0000002063936098" class="dynam">
                  <use xlink:href="#E520-0000001289335735" x="5352" y="142" height="540px" width="540px" />
               </g>
               <g id="dynam-0000000428975319" class="dynam">
                  <use xlink:href="#E520-0000001289335735" x="5802" y="3064" height="720px" width="720px" />
               </g>
               <g id="slur-0000001351345223" class="slur">
                  <path d="M2957,2780 C3170,3034 3813,3034 4026,2780 C3813,3094 3170,3094 2957,2780" stroke="currentColor" stroke-linecap="round" stroke-linejoin="round" stroke-width="9" />
               </g>
               <g id="slur-0000000272112289" class="slur">
                  <path d="M5919,2690 C6025,2844 6407,2897 6552,2776 C6398,2956 6016,2903 5919,2690" stroke="currentColor" stroke-linecap="round" stroke-linejoin="round" stroke-width="9" />
               </g>
               <g id="bline-0000002020739063" class="barLineAttr">
                  <path d="M6895 870 L6895 330" stroke="currentColor" stroke-width="27" />
                  <path d="M6895 2308 L6895 1588" stroke="currentColor" stroke-width="27" />
                  <path d="M6895 4174 L6895 3454" stroke="currentColor" stroke-width="27" />
               </g>
            </g>
            <g id="bdend-0000000060935238" class="boundaryEnd section-0000000893351816" />
         </g>
      </g>
   </svg>
</svg>
