<svg width="864.6px" height="144.6px" version="1.1" xmlns="http://www.w3.org/2000/svg" xmlns:xlink="http://www.w3.org/1999/xlink" xmlns:mei="http://www.music-encoding.org/ns/mei" overflow="visible">
   <desc>Engraved by Verovio 3.12.0-77bd079</desc>
   <defs>
      <symbol id="E050-cycfzc" viewBox="0 0 1000 1000" overflow="inherit">
         <path transform="scale(1,-1)" d="M441 -245c-23 -4 -48 -6 -76 -6c-59 0 -102 7 -130 20c-88 42 -150 93 -187 154c-26 44 -43 103 -48 176c0 6 -1 13 -1 19c0 54 15 111 45 170c29 57 65 106 110 148s96 85 153 127c-3 16 -8 46 -13 92c-4 43 -5 73 -5 89c0 117 16 172 69 257c34 54 64 82 89 82 c21 0 43 -30 69 -92s39 -115 41 -159v-15c0 -109 -21 -162 -67 -241c-13 -20 -63 -90 -98 -118c-13 -9 -25 -19 -37 -29l31 -181c8 1 18 2 28 2c58 0 102 -12 133 -35c59 -43 92 -104 98 -184c1 -7 1 -15 1 -22c0 -123 -87 -209 -181 -248c8 -57 17 -110 25 -162 c5 -31 6 -58 6 -80c0 -30 -5 -53 -14 -70c-35 -64 -88 -99 -158 -103c-5 0 -11 -1 -16 -1c-37 0 -72 10 -108 27c-50 24 -77 59 -80 105v11c0 29 7 55 20 76c18 28 45 42 79 44h6c49 0 93 -42 97 -87v-9c0 -51 -34 -86 -105 -106c17 -24 51 -36 102 -36c62 0 116 43 140 85 c9 16 13 41 13 74c0 20 -1 42 -5 67c-8 53 -18 106 -26 159zM461 939c-95 0 -135 -175 -135 -286c0 -24 2 -48 5 -71c50 39 92 82 127 128c40 53 60 100 60 140v8c-4 53 -22 81 -55 81h-2zM406 119l54 -326c73 25 110 78 110 161c0 7 0 15 -1 23c-7 95 -57 142 -151 142h-12 zM382 117c-72 -2 -128 -47 -128 -120v-7c2 -46 43 -99 75 -115c-3 -2 -7 -5 -10 -10c-70 33 -116 88 -123 172v11c0 68 44 126 88 159c23 17 49 29 78 36l-29 170c-21 -13 -52 -37 -92 -73c-50 -44 -86 -84 -109 -119c-45 -69 -67 -130 -67 -182v-13c5 -68 35 -127 93 -176 s125 -73 203 -73c25 0 50 3 75 9c-19 111 -36 221 -54 331z" />
      </symbol>
      <symbol id="E0A4-cycfzc" viewBox="0 0 1000 1000" overflow="inherit">
         <path transform="scale(1,-1)" d="M0 -39c0 68 73 172 200 172c66 0 114 -37 114 -95c0 -84 -106 -171 -218 -171c-64 0 -96 30 -96 94z" />
      </symbol>
      <symbol id="ED41-cycfzc" viewBox="0 0 1000 1000" overflow="inherit">
         <path transform="scale(1,-1)" d="M347 -236l-347 119l347 117v-33l-252 -84l252 -86v-33zM373 -236v33l252 86l-252 84v33l347 -117z" />
      </symbol>
      <symbol id="E5E5-cycfzc" viewBox="0 0 1000 1000" overflow="inherit">
         <path transform="scale(1,-1)" d="M152 152h-152v26h152v152h26v-152h152v-26h-152v-152h-26v152z" />
      </symbol>
      <symbol id="E5E7-cycfzc" viewBox="0 0 1000 1000" overflow="inherit">
         <path transform="scale(1,-1)" d="M0 165c0 106 59 165 165 165s165 -59 165 -165s-59 -165 -165 -165s-165 59 -165 165zM28 165c0 -90 47 -137 137 -137s137 47 137 137s-47 137 -137 137s-137 -47 -137 -137z" />
      </symbol>
      <symbol id="E610-cycfzc" viewBox="0 0 1000 1000" overflow="inherit">
         <path transform="scale(1,-1)" d="M0 240h310v-240h-33v116h-244v-116h-33v240z" />
      </symbol>
      <symbol id="E612-cycfzc" viewBox="0 0 1000 1000" overflow="inherit">
         <path transform="scale(1,-1)" d="M283 338l-141 -338l-142 338h38l104 -248l104 248h37z" />
      </symbol>
      <symbol id="E614-cycfzc" viewBox="0 0 1000 1000" overflow="inherit">
         <path transform="scale(1,-1)" d="M0 103c0 57 46 103 103 103s103 -46 103 -103s-46 -103 -103 -103s-103 46 -103 103zM28 103c0 -41 34 -75 75 -75s75 34 75 75s-34 75 -75 75s-75 -34 -75 -75z" />
      </symbol>
      <symbol id="E631-cycfzc" viewBox="0 0 1000 1000" overflow="inherit">
         <path transform="scale(1,-1)" d="M0 103c0 53 39 96 90 102v61h26v-61c51 -6 90 -49 90 -102c0 -57 -46 -103 -103 -103s-103 46 -103 103zM116 177v-81h-26v81c-35 -6 -62 -37 -62 -74c0 -41 34 -75 75 -75s75 34 75 75c0 37 -27 68 -62 74z" />
      </symbol>
      <symbol id="E633-cycfzc" viewBox="0 0 1000 1000" overflow="inherit">
         <path transform="scale(1,-1)" d="M152 152h-152v26h152v152h26v-152h152v-26h-152v-152h-26v152z" />
      </symbol>
      <symbol id="E4A1-cycfzc" viewBox="0 0 1000 1000" overflow="inherit">
         <path transform="scale(1,-1)" d="M0 -236v33l252 86l-252 84v33l347 -117z" />
      </symbol>
      <symbol id="E4A3-cycfzc" viewBox="0 0 1000 1000" overflow="inherit">
         <path transform="scale(1,-1)" d="M0 -48c0 26 22 48 48 48s48 -22 48 -48s-22 -48 -48 -48s-48 22 -48 48z" />
      </symbol>
      <symbol id="E4A5-cycfzc" viewBox="0 0 1000 1000" overflow="inherit">
         <path transform="scale(1,-1)" d="M8 0h330c8 0 8 -4 8 -12v-12c0 -8 0 -12 -8 -12h-330c-8 0 -8 4 -8 12v12c0 8 0 12 8 12z" />
      </symbol>
      <symbol id="E4A7-cycfzc" viewBox="0 0 1000 1000" overflow="inherit">
         <path transform="scale(1,-1)" d="M110 -224v-5c3 -4 -7 -6 -19 -10c-14 -5 -24 -4 -35 -5c-14 2 -28 3 -42 7c-10 3 -11 3 -14 8v5l55 224z" />
      </symbol>
      <symbol id="E4A9-cycfzc" viewBox="0 0 1000 1000" overflow="inherit">
         <path transform="scale(1,-1)" d="M153 -224h-37c-10 4 -19 14 -26 30c-3 7 -8 12 -14 14c-4 -1 -11 -10 -20 -26c-5 -9 -11 -15 -20 -18h-36l76 224z" />
      </symbol>
      <symbol id="E4AB-cycfzc" viewBox="0 0 1000 1000" overflow="inherit">
         <path transform="scale(1,-1)" d="M0 0h33v-240h-33v240z" />
      </symbol>
      <symbol id="E4AC-cycfzc" viewBox="0 0 1000 1000" overflow="inherit">
         <path transform="scale(1,-1)" d="M273 0h-82l-84 154l-78 -154h-29l137 265z" />
      </symbol>
   </defs>
   <style type="text/css">g.page-margin{font-family:Times;} g.ending, g.fing, g.reh, g.tempo{font-weight:bold;} g.dir, g.dynam, g.mNum{font-style:italic;} g.label{font-weight:normal;}</style>
   <svg class="definition-scale" color="black" viewBox="0 0 14410 2410">
      <g class="page-margin" transform="translate(500, 500)">
         <g id="m11c1264" class="mdiv pageMilestone" />
         <g id="s6xd970" class="score pageMilestone" />
         <g id="stb2vsj" class="system">
            <g id="scw3v2d" class="section systemMilestone" />
            <g id="m757ab0" class="measure">
               <g id="s19ers0y" class="staff">
                  <path d="M0 400 L3688 400" stroke="currentColor" stroke-width="13" />
                  <path d="M0 580 L3688 580" stroke="currentColor" stroke-width="13" />
                  <path d="M0 760 L3688 760" stroke="currentColor" stroke-width="13" />
                  <path d="M0 940 L3688 940" stroke="currentColor" stroke-width="13" />
                  <path d="M0 1120 L3688 1120" stroke="currentColor" stroke-width="13" />
                  <g id="cxpv7zn" class="clef">
                     <use xlink:href="#E050-cycfzc" x="90" y="940" height="720px" width="720px" />
                  </g>
                  <g id="l6zovw7" class="layer">
                     <g id="n15nsddv" class="note">
                        <g class="notehead">
                           <use xlink:href="#E0A4-cycfzc" x="915" y="940" height="720px" width="720px" />
                        </g>
                        <g id="s1mkg2am" class="stem">
                           <rect x="1123" y="310" height="602" width="18" />
                        </g>
                        <g id="a1f4gary" class="artic">
                           <use xlink:href="#E4A1-cycfzc" x="904" y="1187" height="720px" width="720px" />
                        </g>
                     </g>
                     <g id="nd1k9on" class="note">
                        <g class="notehead">
                           <use xlink:href="#E0A4-cycfzc" x="1605" y="940" height="720px" width="720px" />
                        </g>
                        <g id="sxhte03" class="stem">
                           <rect x="1813" y="310" height="602" width="18" />
                        </g>
                        <g id="a1qj2sbc" class="artic">
                           <use xlink:href="#ED41-cycfzc" x="1459" y="1210" height="720px" width="720px" />
                        </g>
                     </g>
                     <g id="np2knml" class="note">
                        <g class="notehead">
                           <use xlink:href="#E0A4-cycfzc" x="2295" y="940" height="720px" width="720px" />
                        </g>
                        <g id="s5wxgyf" class="stem">
                           <rect x="2503" y="310" height="602" width="18" />
                        </g>
                        <g id="a1jhfuyh" class="artic">
                           <use xlink:href="#E4A5-cycfzc" x="2284" y="1198" height="720px" width="720px" />
                        </g>
                     </g>
                     <g id="ndmlnyt" class="note">
                        <g class="notehead">
                           <use xlink:href="#E0A4-cycfzc" x="2985" y="940" height="720px" width="720px" />
                        </g>
                        <g id="s4pfdxw" class="stem">
                           <rect x="3193" y="310" height="602" width="18" />
                        </g>
                        <g id="aehx6u5" class="artic">
                           <use xlink:href="#E4A9-cycfzc" x="3043" y="1210" height="720px" width="720px" />
                        </g>
                     </g>
                  </g>
               </g>
               <g id="bqkikz5" class="barLine">
                  <path d="M3675 400 L3675 1120" stroke="currentColor" stroke-width="27" />
               </g>
            </g>
            <g id="m10qlk3s" class="measure">
               <g id="s27j3w" class="staff">
                  <path d="M3688 400 L6641 400" stroke="currentColor" stroke-width="13" />
                  <path d="M3688 580 L6641 580" stroke="currentColor" stroke-width="13" />
                  <path d="M3688 760 L6641 760" stroke="currentColor" stroke-width="13" />
                  <path d="M3688 940 L6641 940" stroke="currentColor" stroke-width="13" />
                  <path d="M3688 1120 L6641 1120" stroke="currentColor" stroke-width="13" />
                  <g id="lha4ce5" class="layer">
                     <g id="n1422ml2" class="note">
                        <g class="notehead">
                           <use xlink:href="#E0A4-cycfzc" x="3868" y="940" height="720px" width="720px" />
                        </g>
                        <g id="sofm3zl" class="stem">
                           <rect x="4076" y="310" height="602" width="18" />
                        </g>
                        <g id="as73o6x" class="artic">
                           <use xlink:href="#E4AC-cycfzc" x="3883" y="243" height="720px" width="720px" />
                        </g>
                     </g>
                     <g id="nayk0d9" class="note">
                        <g class="notehead">
                           <use xlink:href="#E0A4-cycfzc" x="4558" y="940" height="720px" width="720px" />
                        </g>
                        <g id="s1ek6c18" class="stem">
                           <rect x="4766" y="310" height="602" width="18" />
                        </g>
                        <g id="a1qv10y3" class="artic">
                           <use xlink:href="#E4A3-cycfzc" x="4637" y="1176" height="720px" width="720px" />
                        </g>
                     </g>
                     <g id="n1qah7gh" class="note">
                        <g class="notehead">
                           <use xlink:href="#E0A4-cycfzc" x="5248" y="940" height="720px" width="720px" />
                        </g>
                        <g id="s1d72m1v" class="stem">
                           <rect x="5456" y="310" height="602" width="18" />
                        </g>
                        <g id="a1cyjmae" class="artic">
                           <use xlink:href="#E4A7-cycfzc" x="5322" y="1210" height="720px" width="720px" />
                        </g>
                     </g>
                     <g id="n1qbpa47" class="note">
                        <g class="notehead">
                           <use xlink:href="#E0A4-cycfzc" x="5938" y="940" height="720px" width="720px" />
                        </g>
                        <g id="s1a1gh6u" class="stem">
                           <rect x="6146" y="310" height="602" width="18" />
                        </g>
                        <g id="a1shey4g" class="artic">
                           <use xlink:href="#E4A5-cycfzc" x="5927" y="1198" height="720px" width="720px" />
                        </g>
                     </g>
                  </g>
               </g>
               <g id="b16n7846" class="barLine">
                  <path d="M6628 400 L6628 1120" stroke="currentColor" stroke-width="27" />
               </g>
            </g>
            <g id="s8momwo" class="systemMilestoneEnd scw3v2d" />
            <g id="sgskctq" class="section systemMilestone" />
            <g id="mppytt4" class="measure">
               <g id="s1vpbl8g" class="staff">
                  <path d="M6641 400 L10284 400" stroke="currentColor" stroke-width="13" />
                  <path d="M6641 580 L10284 580" stroke="currentColor" stroke-width="13" />
                  <path d="M6641 760 L10284 760" stroke="currentColor" stroke-width="13" />
                  <path d="M6641 940 L10284 940" stroke="currentColor" stroke-width="13" />
                  <path d="M6641 1120 L10284 1120" stroke="currentColor" stroke-width="13" />
                  <g id="lbfyfiv" class="layer">
                     <g id="nhmk4c4" class="note">
                        <g class="notehead">
                           <use xlink:href="#E0A4-cycfzc" x="6821" y="940" height="720px" width="720px" />
                        </g>
                        <g id="sa6rjga" class="stem">
                           <rect x="7029" y="310" height="602" width="18" />
                        </g>
                        <g id="a343lkx" class="artic">
                           <use xlink:href="#E610-cycfzc" x="6823" y="243" height="720px" width="720px" />
                        </g>
                     </g>
                     <g id="n13u7cfo" class="note">
                        <g class="notehead">
                           <use xlink:href="#E0A4-cycfzc" x="7511" y="940" height="720px" width="720px" />
                        </g>
                        <g id="syhenrb" class="stem">
                           <rect x="7719" y="310" height="602" width="18" />
                        </g>
                        <g id="a11xrqlt" class="artic">
                           <use xlink:href="#E612-cycfzc" x="7523" y="243" height="720px" width="720px" />
                        </g>
                     </g>
                     <g id="n7wjquw" class="note">
                        <g class="notehead">
                           <use xlink:href="#E0A4-cycfzc" x="8201" y="940" height="720px" width="720px" />
                        </g>
                        <g id="s19dr4ix" class="stem">
                           <rect x="8409" y="310" height="602" width="18" />
                        </g>
                        <g id="adpvgmr" class="artic">
                           <use xlink:href="#E614-cycfzc" x="8240" y="243" height="720px" width="720px" />
                        </g>
                     </g>
                     <g id="n104aphu" class="note">
                        <g class="notehead">
                           <use xlink:href="#E0A4-cycfzc" x="8891" y="940" height="720px" width="720px" />
                        </g>
                        <g id="s189svge" class="stem">
                           <rect x="9099" y="310" height="602" width="18" />
                        </g>
                        <g id="aunez6e" class="artic">
                           <use xlink:href="#E631-cycfzc" x="8930" y="243" height="720px" width="720px" />
                        </g>
                     </g>
                     <g id="n4ionqn" class="note">
                        <g class="notehead">
                           <use xlink:href="#E0A4-cycfzc" x="9581" y="940" height="720px" width="720px" />
                        </g>
                        <g id="s1sh84k2" class="stem">
                           <rect x="9789" y="310" height="602" width="18" />
                        </g>
                        <g id="a8ewxm5" class="artic">
                           <use xlink:href="#E633-cycfzc" x="9576" y="243" height="720px" width="720px" />
                        </g>
                     </g>
                  </g>
               </g>
               <g id="b1yg135o" class="barLine">
                  <path d="M10271 400 L10271 1120" stroke="currentColor" stroke-width="27" />
               </g>
            </g>
            <g id="s1szkyq0" class="systemMilestoneEnd sgskctq" />
            <g id="s1mclqka" class="section systemMilestone" />
            <g id="m1u5d5j8" class="measure">
               <g id="s1qnpeox" class="staff">
                  <path d="M10284 400 L11857 400" stroke="currentColor" stroke-width="13" />
                  <path d="M10284 580 L11857 580" stroke="currentColor" stroke-width="13" />
                  <path d="M10284 760 L11857 760" stroke="currentColor" stroke-width="13" />
                  <path d="M10284 940 L11857 940" stroke="currentColor" stroke-width="13" />
                  <path d="M10284 1120 L11857 1120" stroke="currentColor" stroke-width="13" />
                  <g id="ltgmcwe" class="layer">
                     <g id="n1k2giro" class="note">
                        <g class="notehead">
                           <use xlink:href="#E0A4-cycfzc" x="10464" y="940" height="720px" width="720px" />
                        </g>
                        <g id="s16q3gpa" class="stem">
                           <rect x="10672" y="310" height="602" width="18" />
                        </g>
                        <g id="a1pa52jp" class="artic">
                           <use xlink:href="#E5E7-cycfzc" x="10459" y="243" height="720px" width="720px" />
                        </g>
                     </g>
                     <g id="nhwpmyi" class="note">
                        <g class="notehead">
                           <use xlink:href="#E0A4-cycfzc" x="11154" y="940" height="720px" width="720px" />
                        </g>
                        <g id="sof8xnh" class="stem">
                           <rect x="11362" y="310" height="602" width="18" />
                        </g>
                        <g id="a1knxaav" class="artic">
                           <use xlink:href="#E5E5-cycfzc" x="11149" y="243" height="720px" width="720px" />
                        </g>
                     </g>
                  </g>
               </g>
               <g id="b5ymj8j" class="barLine">
                  <path d="M11844 400 L11844 1120" stroke="currentColor" stroke-width="27" />
               </g>
            </g>
            <g id="sfqwhnl" class="systemMilestoneEnd s1mclqka" />
            <g id="s1f41z1z" class="section systemMilestone" />
            <g id="m1owdhgx" class="measure">
               <g id="sn4me1i" class="staff">
                  <path d="M11857 400 L13417 400" stroke="currentColor" stroke-width="13" />
                  <path d="M11857 580 L13417 580" stroke="currentColor" stroke-width="13" />
                  <path d="M11857 760 L13417 760" stroke="currentColor" stroke-width="13" />
                  <path d="M11857 940 L13417 940" stroke="currentColor" stroke-width="13" />
                  <path d="M11857 1120 L13417 1120" stroke="currentColor" stroke-width="13" />
                  <g id="l17k5e8c" class="layer">
                     <g id="n1e09i0" class="note">
                        <g class="notehead">
                           <use xlink:href="#E0A4-cycfzc" x="12037" y="940" height="720px" width="720px" />
                        </g>
                        <g id="s1hvswm8" class="stem">
                           <rect x="12245" y="310" height="602" width="18" />
                        </g>
                        <g id="a1lrfqi3" class="artic">
                           <use xlink:href="#E4A3-cycfzc" x="12116" y="1210" height="720px" width="720px" />
                        </g>
                     </g>
                     <g id="n38mall" class="note">
                        <g class="notehead">
                           <use xlink:href="#E0A4-cycfzc" x="12727" y="940" height="720px" width="720px" />
                        </g>
                        <g id="s15na5cf" class="stem">
                           <rect x="12935" y="310" height="602" width="18" />
                        </g>
                        <g id="ajf2j0v" class="artic">
                           <use xlink:href="#E4AB-cycfzc" x="12829" y="1210" height="720px" width="720px" />
                        </g>
                     </g>
                  </g>
               </g>
               <g id="b1wuw9zc" class="barLine" />
            </g>
            <g id="s129ep06" class="systemMilestoneEnd s1f41z1z" />
         </g>
         <g id="pshndyz" class="pageMilestoneEnd s6xd970" />
         <g id="p107k3ga" class="pageMilestoneEnd m11c1264" />
      </g>
   </svg>
</svg>
