<svg width="394px" height="306px" version="1.1" xmlns="http://www.w3.org/2000/svg" xmlns:xlink="http://www.w3.org/1999/xlink" xmlns:mei="http://www.music-encoding.org/ns/mei" overflow="visible">
   <desc>Engraved by Verovio 3.13.0-26db431</desc>
   <defs>
      <symbol id="E520-9evn69" viewBox="0 0 1000 1000" overflow="inherit">
         <path transform="scale(1,-1)" d="M-72 -167c0 8 7 13 31 13c22 0 28 19 28 19l102 338s5 17 5 23c0 7 -3 11 -11 11c-22 0 -47 -37 -57 -59s-13 -24 -18 -24s-8 3 -8 8s1 10 13 35s41 75 99 75s66 -47 66 -47s33 43 88 43c43 0 80 -40 80 -96c0 -104 -63 -192 -146 -192c-37 0 -60 17 -71 47 c0 -1 -50 -166 -50 -166s-1 -3 -1 -5c0 -4 5 -10 23 -10c24 0 31 -5 31 -13s-7 -13 -31 -13h-142c-24 0 -31 5 -31 13zM139 61c0 -21 15 -34 33 -34c71 0 98 90 98 151c0 23 -12 44 -32 44c-15 0 -36 -1 -61 -35z" />
      </symbol>
      <symbol id="E52B-9evn69" viewBox="0 0 1000 1000" overflow="inherit">
         <path transform="scale(1,-1)" d="M-72 -167c0 8 7 13 31 13c22 0 28 19 28 19l102 338s5 17 5 23c0 7 -3 11 -11 11c-22 0 -47 -37 -57 -59s-13 -24 -18 -24s-8 3 -8 8s1 10 13 35s41 75 99 75s66 -47 66 -47s33 43 88 43c43 0 80 -40 80 -96c0 -104 -63 -192 -146 -192c-37 0 -60 17 -71 47 c0 -1 -50 -166 -50 -166s-1 -3 -1 -5c0 -4 5 -10 23 -10c24 0 31 -5 31 -13s-7 -13 -31 -13h-142c-24 0 -31 5 -31 13zM139 61c0 -21 15 -34 33 -34c71 0 98 90 98 151c0 23 -12 44 -32 44c-15 0 -36 -1 -61 -35zM274 -167c0 8 7 13 31 13c22 0 28 19 28 19l102 338 s5 17 5 23c0 7 -3 11 -11 11c-22 0 -47 -37 -57 -59s-13 -24 -18 -24s-8 3 -8 8s1 10 13 35s41 75 99 75s66 -47 66 -47s33 43 88 43c43 0 80 -40 80 -96c0 -104 -63 -192 -146 -192c-37 0 -60 17 -71 47c0 -1 -50 -166 -50 -166s-1 -3 -1 -5c0 -4 5 -10 23 -10 c24 0 31 -5 31 -13s-7 -13 -31 -13h-142c-24 0 -31 5 -31 13zM485 61c0 -21 15 -34 33 -34c71 0 98 90 98 151c0 23 -12 44 -32 44c-15 0 -36 -1 -61 -35z" />
      </symbol>
      <symbol id="E050-9evn69" viewBox="0 0 1000 1000" overflow="inherit">
         <path transform="scale(1,-1)" d="M0 102c0 177 136 324 260 434c0 0 -43 178 -43 246c0 88 33 172 69 220s66 78 78 78c9 0 22 -8 37 -26c65 -78 98 -183 98 -279c0 -150 -83 -254 -181 -348l37 -174c11 2 22 2 33 2c138 0 238 -114 238 -240c0 -105 -68 -199 -170 -240c0 0 32 -146 32 -191 c0 -121 -82 -217 -204 -217c-73 0 -182 41 -182 151c0 56 45 101 101 101s101 -45 101 -101c0 -53 -40 -97 -92 -101c14 -12 49 -17 72 -17c97 0 171 74 171 184c0 49 -31 180 -31 180c-25 -7 -52 -10 -80 -10c-187 0 -344 162 -344 348zM94 49c0 -157 121 -269 250 -269 c26 0 51 3 74 10l-74 351c-58 -20 -96 -72 -96 -124c0 -41 19 -87 57 -110c5 -3 9 -8 9 -14c0 -8 -7 -15 -15 -15c-3 0 -8 2 -8 2c-66 29 -113 87 -113 173c0 81 55 164 144 192l-33 155c-153 -148 -195 -273 -195 -351zM262 723c0 -44 27 -160 27 -160 c80 78 159 190 159 296c0 43 -8 77 -49 77c-81 0 -137 -123 -137 -213zM377 149l73 -346c63 30 112 105 112 182c0 90 -62 165 -165 165c-7 0 -13 0 -20 -1z" />
      </symbol>
      <symbol id="E062-9evn69" viewBox="0 0 1000 1000" overflow="inherit">
         <path transform="scale(1,-1)" d="M0 -531c0 6 3 10 9 13c236 101 410 282 410 516c0 128 -53 224 -177 224c-67 0 -130 -22 -169 -73c11 4 22 6 34 6c56 0 101 -45 101 -101s-45 -101 -101 -101s-101 45 -101 101c0 110 103 200 236 200c173 0 306 -101 306 -256c0 -297 -274 -491 -525 -543 c0 0 -5 -1 -8 -1c-8 0 -15 7 -15 15zM588 119c0 21 17 38 38 38s38 -17 38 -38s-17 -38 -38 -38s-38 17 -38 38zM588 -119c0 21 17 38 38 38s38 -17 38 -38s-17 -38 -38 -38s-38 17 -38 38z" />
      </symbol>
      <symbol id="E084-9evn69" viewBox="0 0 1000 1000" overflow="inherit">
         <path transform="scale(1,-1)" d="M0 -106c0 3 0 9 9 19c72 78 126 214 126 308c0 14 1 22 9 22h174c7 0 9 -6 9 -12c0 -3 -2 -8 -5 -11l-272 -307h149v104c0 12 12 25 36 51l59 66s8 10 16 10c3 0 9 -1 9 -10v-221h39s13 -1 13 -17s-13 -17 -13 -17h-39v-28c0 -35 22 -58 41 -58c8 0 24 -1 24 -18 c0 -14 -11 -18 -24 -18h-202c-13 0 -24 4 -24 18c0 17 16 18 24 18c19 0 41 23 41 58v28h-180c-9 0 -19 6 -19 15z" />
      </symbol>
      <symbol id="E0A4-9evn69" viewBox="0 0 1000 1000" overflow="inherit">
         <path transform="scale(1,-1)" d="M0 -37c0 92 97 172 201 172c67 0 115 -40 115 -98c0 -92 -97 -172 -201 -172c-67 0 -115 40 -115 98z" />
      </symbol>
      <symbol id="E262-9evn69" viewBox="0 0 1000 1000" overflow="inherit">
         <path transform="scale(1,-1)" d="M0 64v65c0 13 15 18 15 18l39 10v181s0 14 15 14s15 -14 15 -14v-174l68 17v181s0 14 15 14s15 -14 15 -14v-174s36 10 39 10c6 0 12 -1 15 -10v-65c0 -13 -15 -18 -15 -18l-39 -10v-159s36 10 39 10c6 0 12 -1 15 -10v-65c0 -13 -15 -18 -15 -18l-39 -10v-181 s0 -14 -15 -14s-15 14 -15 14v174l-68 -17v-181s0 -14 -15 -14s-15 14 -15 14v174s-36 -10 -39 -10c-6 0 -12 1 -15 10v65c0 13 15 18 15 18l39 10v159s-36 -10 -39 -10c-6 0 -12 1 -15 10zM84 71v-159l68 17v159z" />
      </symbol>
      <symbol id="E4A2-9evn69" viewBox="0 0 1000 1000" overflow="inherit">
         <path transform="scale(1,-1)" d="M0 50c0 28 22 50 50 50s50 -22 50 -50s-22 -50 -50 -50s-50 22 -50 50z" />
      </symbol>
      <symbol id="E4E4-9evn69" viewBox="0 0 1000 1000" overflow="inherit">
         <path transform="scale(1,-1)" d="M0 10v105c0 6 4 10 10 10h310c6 0 10 -4 10 -10v-105c0 -6 -4 -10 -10 -10h-310c-6 0 -10 4 -10 10z" />
      </symbol>
      <symbol id="E4E5-9evn69" viewBox="0 0 1000 1000" overflow="inherit">
         <path transform="scale(1,-1)" d="M0 -188c0 58 52 87 110 87c14 0 48 -6 48 -6s-145 124 -145 135c0 4 0 6 7 13c46 50 61 117 61 175c0 50 -15 95 -47 127c-4 4 -6 8 -6 12c0 5 4 10 12 10c12 0 176 -110 176 -155c0 -19 -12 -52 -29 -85s-32 -71 -32 -98c0 -58 20 -115 43 -135s24 -24 24 -29 c0 -7 -5 -13 -13 -13c-5 0 -13 2 -16 3s-11 2 -17 2c-18 0 -32 -5 -46 -14c-31 -21 -45 -52 -45 -85s14 -67 43 -96c6 -6 8 -9 8 -14s-5 -9 -10 -9s-8 1 -14 5c-69 46 -112 106 -112 170z" />
      </symbol>
      <symbol id="E4E6-9evn69" viewBox="0 0 1000 1000" overflow="inherit">
         <path transform="scale(1,-1)" d="M0 124c0 42 34 76 76 76s76 -34 76 -76c0 -19 -7 -37 -19 -50c43 12 75 42 93 86c3 8 9 11 16 11s14 -6 14 -15c0 0 0 -3 -1 -6l-107 -363c-3 -8 -9 -11 -16 -11s-14 6 -14 15c0 0 0 3 1 6l82 278c-31 -20 -62 -36 -97 -36c-56 0 -104 34 -104 85z" />
      </symbol>
   </defs>
   <style type="text/css">g.page-margin{font-family:Times;} g.ending, g.fing, g.reh, g.tempo{font-weight:bold;} g.dir, g.dynam, g.mNum{font-style:italic;} g.label{font-weight:normal;}</style>
   <svg class="definition-scale" color="black" viewBox="0 0 7880 6120">
      <g class="page-margin" transform="translate(500, 500)">
         <g id="m1os05hz" class="mdiv pageMilestone" />
         <g id="sl8193z" class="score pageMilestone" />
         <g id="sll9oud" class="system">
            <path d="M13 344 L13 4219" stroke="currentColor" stroke-width="27" />
            <g id="ghv3g97" class="grpSym">
               <path d="M-72,4201 C-432,3661 18,3106 -252,2926 C81,3106 -369,3661 -72,4201" stroke="currentColor" stroke-linecap="round" stroke-linejoin="round" stroke-width="18" />
               <path d="M-72,1650 C-369,2190 81,2746 -252,2926 C18,2746 -432,2190 -72,1650" stroke="currentColor" stroke-linecap="round" stroke-linejoin="round" stroke-width="18" />
            </g>
            <g id="s1dydsrc" class="section systemMilestone" />
            <g id="mfeuu8" class="measure upbeat">
               <g id="s1mp1c2s" class="staff">
                  <path d="M0 344 L2636 344" stroke="currentColor" stroke-width="10" />
                  <path d="M0 479 L2636 479" stroke="currentColor" stroke-width="10" />
                  <path d="M0 614 L2636 614" stroke="currentColor" stroke-width="10" />
                  <path d="M0 749 L2636 749" stroke="currentColor" stroke-width="10" />
                  <path d="M0 884 L2636 884" stroke="currentColor" stroke-width="10" />
                  <g id="cjr4vl" class="clef">
                     <use xlink:href="#E050-9evn69" x="117" y="749" height="540px" width="540px" />
                  </g>
                  <g id="k7a3n4z" class="keySig">
                     <g id="kd8ysr2" class="keyAccid">
                        <use xlink:href="#E262-9evn69" x="775" y="344" height="540px" width="540px" />
                     </g>
                  </g>
                  <g id="mz0zjma" class="meterSig">
                     <use xlink:href="#E084-9evn69" x="1124" y="477" height="540px" width="540px" />
                     <use xlink:href="#E084-9evn69" x="1124" y="747" height="540px" width="540px" />
                  </g>
                  <g id="l1ocb86z" class="layer">
                     <g id="bxbhdy5" class="beam">
                        <polygon points="1828,411 2343,344 2343,411 1828,478" />
                        <g id="note-0000000827838925" class="note">
                           <g class="notehead">
                              <use xlink:href="#E0A4-9evn69" x="1670" y="880" height="540px" width="540px" />
                           </g>
                           <g id="shu4yyh" class="stem">
                              <rect x="1828" y="424" height="434" width="12" />
                           </g>
                           <g id="v1wlwtpc" class="verse">
                              <g id="s1nnibn1" class="syl">
                                 <text x="1603" y="1251" font-size="0px">
                                    <tspan id="tlgv2j5" class="text">
                                       <tspan font-size="303px" class="text">Die</tspan>
                                    </tspan>
                                 </text>
                              </g>
                           </g>
                        </g>
                        <g id="note-0000000349216146" class="note">
                           <g class="notehead">
                              <use xlink:href="#E0A4-9evn69" x="2173" y="813" height="540px" width="540px" />
                           </g>
                           <g id="s1dy5r4g" class="stem">
                              <rect x="2331" y="357" height="434" width="12" />
                           </g>
                           <g id="ayuribg" class="accid" />
                           <g id="v1vk8fxo" class="verse">
                              <g id="sck92uo" class="syl">
                                 <text x="2106" y="1251" font-size="0px">
                                    <tspan id="t18l500f" class="text">
                                       <tspan font-size="303px" class="text">zwei</tspan>
                                    </tspan>
                                 </text>
                              </g>
                           </g>
                        </g>
                     </g>
                  </g>
               </g>
               <g id="sb5waop" class="staff">
                  <path d="M0 1632 L2636 1632" stroke="currentColor" stroke-width="13" />
                  <path d="M0 1812 L2636 1812" stroke="currentColor" stroke-width="13" />
                  <path d="M0 1992 L2636 1992" stroke="currentColor" stroke-width="13" />
                  <path d="M0 2172 L2636 2172" stroke="currentColor" stroke-width="13" />
                  <path d="M0 2352 L2636 2352" stroke="currentColor" stroke-width="13" />
                  <g id="c1lrxkk6" class="clef">
                     <use xlink:href="#E050-9evn69" x="117" y="2172" height="720px" width="720px" />
                  </g>
                  <g id="k1dt8lme" class="keySig">
                     <g id="k261xza" class="keyAccid">
                        <use xlink:href="#E262-9evn69" x="775" y="1632" height="720px" width="720px" />
                     </g>
                  </g>
                  <g id="mq8ct5a" class="meterSig">
                     <use xlink:href="#E084-9evn69" x="1124" y="1812" height="720px" width="720px" />
                     <use xlink:href="#E084-9evn69" x="1124" y="2172" height="720px" width="720px" />
                  </g>
                  <g class="ledgerLines below">
                     <path d="M1622 2532 L1944 2532" stroke="currentColor" stroke-width="22" />
                     <path d="M2125 2532 L2447 2532" stroke="currentColor" stroke-width="22" />
                     <path d="M1622 2712 L1944 2712" stroke="currentColor" stroke-width="22" />
                  </g>
                  <g id="l1c1ylul" class="layer">
                     <g id="b6n4yvw" class="beam">
                        <polygon points="1878,1632 2399,1587 2399,1677 1878,1722" />
                        <g id="c9mqe48" class="chord">
                           <g id="sg1o2gq" class="stem">
                              <rect x="1878" y="1650" height="1122" width="18" />
                           </g>
                           <g id="d1e284" class="note">
                              <g class="notehead">
                                 <use xlink:href="#E0A4-9evn69" x="1670" y="2802" height="720px" width="720px" />
                              </g>
                           </g>
                           <g id="n1ao086g" class="note">
                              <g class="notehead">
                                 <use xlink:href="#E0A4-9evn69" x="1670" y="2352" height="720px" width="720px" />
                              </g>
                           </g>
                        </g>
                        <g id="c19podz1" class="chord">
                           <g id="s113mqv6" class="stem">
                              <rect x="2381" y="1605" height="987" width="18" />
                           </g>
                           <g id="d1e323" class="note">
                              <g class="notehead">
                                 <use xlink:href="#E0A4-9evn69" x="2173" y="2622" height="720px" width="720px" />
                              </g>
                           </g>
                           <g id="nborlc1" class="note">
                              <g class="notehead">
                                 <use xlink:href="#E0A4-9evn69" x="2173" y="2262" height="720px" width="720px" />
                              </g>
                              <g id="a2cdph3" class="accid" />
                           </g>
                        </g>
                     </g>
                  </g>
               </g>
               <g id="s7bzql8" class="staff">
                  <path d="M0 3499 L2636 3499" stroke="currentColor" stroke-width="13" />
                  <path d="M0 3679 L2636 3679" stroke="currentColor" stroke-width="13" />
                  <path d="M0 3859 L2636 3859" stroke="currentColor" stroke-width="13" />
                  <path d="M0 4039 L2636 4039" stroke="currentColor" stroke-width="13" />
                  <path d="M0 4219 L2636 4219" stroke="currentColor" stroke-width="13" />
                  <g id="c1jhnp0w" class="clef">
                     <use xlink:href="#E062-9evn69" x="117" y="3679" height="720px" width="720px" />
                  </g>
                  <g id="k13uysja" class="keySig">
                     <g id="k1qe6pfl" class="keyAccid">
                        <use xlink:href="#E262-9evn69" x="775" y="3679" height="720px" width="720px" />
                     </g>
                  </g>
                  <g id="m1q15qs5" class="meterSig">
                     <use xlink:href="#E084-9evn69" x="1124" y="3679" height="720px" width="720px" />
                     <use xlink:href="#E084-9evn69" x="1124" y="4039" height="720px" width="720px" />
                  </g>
                  <g id="l1fksaq0" class="layer">
                     <g id="r1p8a246" class="rest">
                        <use xlink:href="#E4E5-9evn69" x="1670" y="3859" height="720px" width="720px" />
                     </g>
                  </g>
               </g>
               <g id="d1u76sft" class="dynam">
                  <use xlink:href="#E52B-9evn69" x="1670" y="214" height="540px" width="540px" />
               </g>
               <g id="d120g1t1" class="dynam">
                  <use xlink:href="#E52B-9evn69" x="1670" y="3325" height="720px" width="720px" />
               </g>
               <g id="s4z3z8o" class="slur">
                  <path d="M1783,3004 C1912,3040 2205,2934 2284,2824 C2250,2981 1907,3104 1783,3004" stroke="currentColor" stroke-linecap="round" stroke-linejoin="round" stroke-width="9" />
               </g>
               <g id="b1fkgs38" class="barLine">
                  <path d="M2623 344 L2623 880" stroke="currentColor" stroke-width="27" />
                  <path d="M2623 1632 L2623 2352" stroke="currentColor" stroke-width="27" />
                  <path d="M2623 3499 L2623 4219" stroke="currentColor" stroke-width="27" />
               </g>
            </g>
            <g id="mlpb1jw" class="measure">
               <g id="svi8kuu" class="staff">
                  <path d="M2636 344 L6884 344" stroke="currentColor" stroke-width="10" />
                  <path d="M2636 479 L6884 479" stroke="currentColor" stroke-width="10" />
                  <path d="M2636 614 L6884 614" stroke="currentColor" stroke-width="10" />
                  <path d="M2636 749 L6884 749" stroke="currentColor" stroke-width="10" />
                  <path d="M2636 884 L6884 884" stroke="currentColor" stroke-width="10" />
                  <g id="l15m49nd" class="layer">
                     <g id="bjm0xe9" class="beam">
                        <polygon points="3030,311 3688,311 3688,378 3030,378" />
                        <polygon points="3518,411 3688,411 3688,478 3518,478" />
                        <g id="d1e379" class="note">
                           <g class="notehead">
                              <use xlink:href="#E0A4-9evn69" x="2872" y="746" height="540px" width="540px" />
                           </g>
                           <g id="dsgklxl" class="dots">
                              <ellipse cx="3109" cy="683" rx="27" ry="27" />
                           </g>
                           <g id="sm84uz0" class="stem">
                              <rect x="3030" y="324" height="400" width="12" />
                           </g>
                           <g id="v141ipn5" class="verse">
                              <g id="s1amulpp" class="syl">
                                 <text x="2746" y="1251" font-size="0px">
                                    <tspan id="thr2zdx" class="text">
                                       <tspan font-size="303px" class="text">blau-</tspan>
                                    </tspan>
                                 </text>
                              </g>
                           </g>
                        </g>
                        <g id="d1e401" class="note">
                           <g class="notehead">
                              <use xlink:href="#E0A4-9evn69" x="3518" y="746" height="540px" width="540px" />
                           </g>
                           <g id="swiofy3" class="stem">
                              <rect x="3676" y="324" height="400" width="12" />
                           </g>
                           <g id="vp6yz3u" class="verse">
                              <g id="s1cxt41" class="syl">
                                 <text x="3451" y="1251" font-size="0px">
                                    <tspan id="t8rtgpl" class="text">
                                       <tspan font-size="303px" class="text">en</tspan>
                                    </tspan>
                                 </text>
                              </g>
                           </g>
                        </g>
                     </g>
                     <g id="btvat1b" class="beam">
                        <polygon points="4043,311 4598,311 4598,378 4043,378" />
                        <g id="d1e424" class="note">
                           <g class="notehead">
                              <use xlink:href="#E0A4-9evn69" x="3885" y="746" height="540px" width="540px" />
                           </g>
                           <g id="sh019c4" class="stem">
                              <rect x="4043" y="324" height="400" width="12" />
                           </g>
                           <g id="v15l0w03" class="verse">
                              <g id="s1jwzeuv" class="syl">
                                 <text x="3818" y="1251" font-size="0px">
                                    <tspan id="t1wmt0hc" class="text">
                                       <tspan font-size="303px" class="text">Au-</tspan>
                                    </tspan>
                                 </text>
                              </g>
                           </g>
                        </g>
                        <g id="d1e445" class="note">
                           <g class="notehead">
                              <use xlink:href="#E0A4-9evn69" x="4428" y="746" height="540px" width="540px" />
                           </g>
                           <g id="sc7u27o" class="stem">
                              <rect x="4586" y="324" height="400" width="12" />
                           </g>
                           <g id="v179qf1a" class="verse">
                              <g id="s1t8rcs9" class="syl">
                                 <text x="4361" y="1251" font-size="0px">
                                    <tspan id="t1fqbfjk" class="text">
                                       <tspan font-size="303px" class="text">gen</tspan>
                                    </tspan>
                                 </text>
                              </g>
                           </g>
                        </g>
                     </g>
                     <g id="r1f7ptly" class="rest">
                        <use xlink:href="#E4E6-9evn69" x="4822" y="612" height="540px" width="540px" />
                     </g>
                     <g id="b2skfd4" class="beam">
                        <polygon points="5486,277 6585,344 6585,411 5486,344" />
                        <g id="d1e474" class="note">
                           <g class="notehead">
                              <use xlink:href="#E0A4-9evn69" x="5328" y="746" height="540px" width="540px" />
                           </g>
                           <g id="s1e1eubz" class="stem">
                              <rect x="5486" y="290" height="434" width="12" />
                           </g>
                           <g id="v1c0pq3p" class="verse">
                              <g id="s1ujx7pf" class="syl">
                                 <text x="5175" y="1251" font-size="0px">
                                    <tspan id="ts5e8q" class="text">
                                       <tspan font-size="303px" class="text">von</tspan>
                                    </tspan>
                                 </text>
                              </g>
                           </g>
                        </g>
                        <g id="d1e495" class="note">
                           <g class="notehead">
                              <use xlink:href="#E0A4-9evn69" x="5778" y="880" height="540px" width="540px" />
                           </g>
                           <g id="s1whvf2d" class="stem">
                              <rect x="5936" y="318" height="540" width="12" />
                           </g>
                           <g id="vxhlaa4" class="verse">
                              <g id="s10kij4w" class="syl">
                                 <text x="5711" y="1251" font-size="0px">
                                    <tspan id="t19bi3md" class="text">
                                       <tspan font-size="303px" class="text">mei-</tspan>
                                    </tspan>
                                 </text>
                              </g>
                           </g>
                        </g>
                        <g id="d1e516" class="note">
                           <g class="notehead">
                              <use xlink:href="#E0A4-9evn69" x="6415" y="813" height="540px" width="540px" />
                           </g>
                           <g id="scsm88n" class="stem">
                              <rect x="6573" y="357" height="434" width="12" />
                           </g>
                           <g id="ag97w3l" class="accid" />
                           <g id="vxgon3r" class="verse">
                              <g id="swtv5bo" class="syl">
                                 <text x="6348" y="1251" font-size="0px">
                                    <tspan id="tqo8gjs" class="text">
                                       <tspan font-size="303px" class="text">nem</tspan>
                                    </tspan>
                                 </text>
                              </g>
                           </g>
                        </g>
                     </g>
                  </g>
               </g>
               <g id="sqnhy7k" class="staff">
                  <path d="M2636 1632 L6884 1632" stroke="currentColor" stroke-width="13" />
                  <path d="M2636 1812 L6884 1812" stroke="currentColor" stroke-width="13" />
                  <path d="M2636 1992 L6884 1992" stroke="currentColor" stroke-width="13" />
                  <path d="M2636 2172 L6884 2172" stroke="currentColor" stroke-width="13" />
                  <path d="M2636 2352 L6884 2352" stroke="currentColor" stroke-width="13" />
                  <g class="ledgerLines below">
                     <path d="M2768 2532 L3090 2532" stroke="currentColor" stroke-width="22" />
                     <path d="M3415 2532 L3735 2532" stroke="currentColor" stroke-width="22" />
                     <path d="M3783 2532 L4103 2532" stroke="currentColor" stroke-width="22" />
                     <path d="M5674 2532 L5996 2532" stroke="currentColor" stroke-width="22" />
                     <path d="M6311 2532 L6633 2532" stroke="currentColor" stroke-width="22" />
                  </g>
                  <g id="l1jh5xtw" class="layer">
                     <g id="b1ca0rdg" class="beam">
                        <polygon points="3024,1587 3688,1587 3688,1677 3024,1677" />
                        <polygon points="3461,1722 3688,1722 3688,1812 3461,1812" />
                        <g id="cffbc3l" class="chord">
                           <g id="d1t269ii" class="dots">
                              <ellipse cx="3132" cy="2622" rx="36" ry="36" />
                              <ellipse cx="3132" cy="2262" rx="36" ry="36" />
                              <ellipse cx="3132" cy="2082" rx="36" ry="36" />
                           </g>
                           <g id="s157b88b" class="stem">
                              <rect x="3024" y="1605" height="987" width="18" />
                           </g>
                           <g id="ao8ov1u" class="artic">
                              <use xlink:href="#E4A2-9evn69" x="2997" y="1556" height="720px" width="720px" />
                           </g>
                           <g id="d1e540" class="note">
                              <g class="notehead">
                                 <use xlink:href="#E0A4-9evn69" x="2816" y="2622" height="720px" width="720px" />
                              </g>
                           </g>
                           <g id="nyzi7hn" class="note">
                              <g class="notehead">
                                 <use xlink:href="#E0A4-9evn69" x="2816" y="2352" height="720px" width="720px" />
                              </g>
                           </g>
                           <g id="n1c00j8w" class="note">
                              <g class="notehead">
                                 <use xlink:href="#E0A4-9evn69" x="2816" y="2172" height="720px" width="720px" />
                              </g>
                           </g>
                        </g>
                        <g id="c175jsln" class="chord">
                           <g id="sxgzkq4" class="stem">
                              <rect x="3670" y="1605" height="987" width="18" />
                           </g>
                           <g id="a15xzksy" class="artic">
                              <use xlink:href="#E4A2-9evn69" x="3643" y="1556" height="720px" width="720px" />
                           </g>
                           <g id="n189kgm" class="note">
                              <g class="notehead">
                                 <use xlink:href="#E0A4-9evn69" x="3462" y="2622" height="720px" width="720px" />
                              </g>
                           </g>
                           <g id="n1ljzzkm" class="note">
                              <g class="notehead">
                                 <use xlink:href="#E0A4-9evn69" x="3462" y="2352" height="720px" width="720px" />
                              </g>
                           </g>
                           <g id="nupqigj" class="note">
                              <g class="notehead">
                                 <use xlink:href="#E0A4-9evn69" x="3462" y="2172" height="720px" width="720px" />
                              </g>
                           </g>
                        </g>
                     </g>
                     <g id="c1yws267" class="chord">
                        <g id="s14e5atv" class="stem">
                           <rect x="4023" y="1542" height="1050" width="18" />
                        </g>
                        <g id="afcr7ay" class="artic">
                           <use xlink:href="#E4A2-9evn69" x="4010" y="1511" height="720px" width="720px" />
                        </g>
                        <g id="d1e656" class="note">
                           <g class="notehead">
                              <use xlink:href="#E0A4-9evn69" x="3830" y="2622" height="720px" width="720px" />
                           </g>
                        </g>
                        <g id="n1pcna8p" class="note">
                           <g class="notehead">
                              <use xlink:href="#E0A4-9evn69" x="3830" y="2352" height="720px" width="720px" />
                           </g>
                        </g>
                        <g id="n10jtsso" class="note">
                           <g class="notehead">
                              <use xlink:href="#E0A4-9evn69" x="3830" y="2172" height="720px" width="720px" />
                           </g>
                        </g>
                     </g>
                     <g id="r1759r7s" class="rest">
                        <use xlink:href="#E4E5-9evn69" x="4822" y="1992" height="720px" width="720px" />
                     </g>
                     <g id="b1gjfemt" class="beam">
                        <polygon points="5930,1722 6585,1632 6585,1722 5930,1812" />
                        <g id="cndj7xn" class="chord">
                           <g id="s10d7y2t" class="stem">
                              <rect x="5930" y="1740" height="762" width="18" />
                           </g>
                           <g id="a9va5sx" class="artic">
                              <use xlink:href="#E4A2-9evn69" x="5903" y="1668" height="720px" width="720px" />
                           </g>
                           <g id="d1e720" class="note">
                              <g class="notehead">
                                 <use xlink:href="#E0A4-9evn69" x="5722" y="2532" height="720px" width="720px" />
                              </g>
                           </g>
                           <g id="n9xtxcu" class="note">
                              <g class="notehead">
                                 <use xlink:href="#E0A4-9evn69" x="5722" y="2352" height="720px" width="720px" />
                              </g>
                           </g>
                        </g>
                        <g id="c57i8oy" class="chord">
                           <g id="sqwdkc8" class="stem">
                              <rect x="6567" y="1650" height="942" width="18" />
                           </g>
                           <g id="a1hlauqy" class="artic">
                              <use xlink:href="#E4A2-9evn69" x="6540" y="1601" height="720px" width="720px" />
                           </g>
                           <g id="d1e760" class="note">
                              <g class="notehead">
                                 <use xlink:href="#E0A4-9evn69" x="6359" y="2622" height="720px" width="720px" />
                              </g>
                           </g>
                           <g id="n1xdjfae" class="note">
                              <g class="notehead">
                                 <use xlink:href="#E0A4-9evn69" x="6359" y="2262" height="720px" width="720px" />
                              </g>
                              <g id="amnr4n5" class="accid" />
                           </g>
                        </g>
                     </g>
                  </g>
               </g>
               <g id="s1h2xx8v" class="staff">
                  <path d="M2636 3499 L6884 3499" stroke="currentColor" stroke-width="13" />
                  <path d="M2636 3679 L6884 3679" stroke="currentColor" stroke-width="13" />
                  <path d="M2636 3859 L6884 3859" stroke="currentColor" stroke-width="13" />
                  <path d="M2636 4039 L6884 4039" stroke="currentColor" stroke-width="13" />
                  <path d="M2636 4219 L6884 4219" stroke="currentColor" stroke-width="13" />
                  <g class="ledgerLines below">
                     <path d="M2769 4399 L3091 4399" stroke="currentColor" stroke-width="22" />
                     <path d="M2769 4579 L3091 4579" stroke="currentColor" stroke-width="22" />
                     <path d="M2769 4759 L3091 4759" stroke="currentColor" stroke-width="22" />
                     <path d="M2769 4939 L3091 4939" stroke="currentColor" stroke-width="22" />
                  </g>
                  <g id="l3xn8m4" class="layer">
                     <g id="c1c5eh7w" class="chord">
                        <g id="s19aonn5" class="stem">
                           <rect x="3010" y="3769" height="1230" width="18" />
                        </g>
                        <g id="npdmhzv" class="note">
                           <g class="notehead">
                              <use xlink:href="#E0A4-9evn69" x="2817" y="5029" height="720px" width="720px" />
                           </g>
                        </g>
                        <g id="nmx5c3g" class="note">
                           <g class="notehead">
                              <use xlink:href="#E0A4-9evn69" x="2817" y="4399" height="720px" width="720px" />
                           </g>
                        </g>
                     </g>
                     <g id="c1q88p8f" class="chord">
                        <g id="s1qrazrf" class="stem">
                           <rect x="3829" y="3619" height="960" width="18" />
                        </g>
                        <g id="n12z7hde" class="note">
                           <g class="notehead">
                              <use xlink:href="#E0A4-9evn69" x="3829" y="4039" height="720px" width="720px" />
                           </g>
                        </g>
                        <g id="n1xts08a" class="note">
                           <g class="notehead">
                              <use xlink:href="#E0A4-9evn69" x="3829" y="3769" height="720px" width="720px" />
                           </g>
                        </g>
                        <g id="ncvm0xy" class="note">
                           <g class="notehead">
                              <use xlink:href="#E0A4-9evn69" x="3829" y="3589" height="720px" width="720px" />
                           </g>
                        </g>
                     </g>
                     <g id="rmvjmef" class="rest">
                        <use xlink:href="#E4E4-9evn69" x="4822" y="3859" height="720px" width="720px" />
                        <g class="ledgerLines" />
                     </g>
                  </g>
               </g>
               <g id="d1bq7qp1" class="dynam">
                  <use xlink:href="#E520-9evn69" x="5272" y="147" height="540px" width="540px" />
               </g>
               <g id="d1pse3km" class="dynam">
                  <use xlink:href="#E520-9evn69" x="5722" y="3131" height="720px" width="720px" />
               </g>
               <g id="s1jf9ktm" class="slur">
                  <path d="M2929,2824 C3165,2998 3706,2998 3943,2824 C3729,3056 3142,3056 2929,2824" stroke="currentColor" stroke-linecap="round" stroke-linejoin="round" stroke-width="9" />
               </g>
               <g id="s1yvnmuj" class="slur">
                  <path d="M5835,2734 C5954,2851 6320,2903 6470,2822 C6337,2963 5921,2905 5835,2734" stroke="currentColor" stroke-linecap="round" stroke-linejoin="round" stroke-width="9" />
               </g>
               <g id="byk2a5j" class="barLine">
                  <path d="M6871 344 L6871 880" stroke="currentColor" stroke-width="27" />
                  <path d="M6871 1632 L6871 2352" stroke="currentColor" stroke-width="27" />
                  <path d="M6871 3499 L6871 4219" stroke="currentColor" stroke-width="27" />
               </g>
            </g>
            <g id="sntgogu" class="systemMilestoneEnd s1dydsrc" />
         </g>
         <g id="pmxbamm" class="pageMilestoneEnd sl8193z" />
         <g id="p122iwxh" class="pageMilestoneEnd m1os05hz" />
      </g>
   </svg>
</svg>
