<svg width="357px" height="272px" version="1.1" xmlns="http://www.w3.org/2000/svg" xmlns:xlink="http://www.w3.org/1999/xlink" xmlns:mei="http://www.music-encoding.org/ns/mei" overflow="visible">
   <desc>Engraved by Verovio 3.13.1-010bd42</desc>
   <defs>
      <symbol id="E050-e7qsx7" viewBox="0 0 1000 1000" overflow="inherit">
         <path transform="scale(1,-1)" d="M123 -513c0 66 44 123 114 123c75 0 116 -57 116 -111c0 -64 -47 -104 -94 -112c-3 0 -5 -1 -5 -3c0 -1 2 -2 3 -3c2 0 23 -5 47 -5c101 0 155 55 155 159c0 53 -12 123 -31 219c-23 -4 -50 -7 -79 -7c-186 0 -349 147 -349 334c0 200 126 322 217 406c21 17 73 70 74 71 c-17 112 -22 161 -22 215c0 84 18 212 82 288c33 39 64 51 71 51c18 0 47 -35 71 -86c16 -36 44 -110 44 -201c0 -159 -73 -284 -178 -395c8 -56 18 -115 28 -175c146 0 253 -102 253 -253c0 -103 -73 -205 -171 -237c6 -39 12 -69 15 -89c10 -57 16 -102 16 -141 c0 -63 -14 -129 -68 -167c-36 -22 -77 -34 -124 -34c-135 0 -185 87 -185 153zM332 822c-8 -31 -11 -65 -11 -102c0 -42 5 -81 11 -121c69 68 146 146 146 250c0 70 -24 118 -39 118c-52 0 -98 -105 -107 -145zM420 -206l-58 329c-58 -14 -104 -63 -104 -124 c0 -49 22 -75 61 -99c12 -8 22 -13 22 -22s-9 -13 -17 -13c-80 0 -135 96 -135 166c0 94 62 190 153 217c-7 41 -14 88 -23 142c-15 -15 -31 -29 -48 -44c-88 -76 -174 -185 -174 -307c0 -151 122 -251 265 -251c19 0 38 2 58 6zM562 -21c0 89 -65 150 -155 150 c7 -44 34 -203 55 -323c71 29 100 102 100 173z" />
      </symbol>
      <symbol id="E062-e7qsx7" viewBox="0 0 1000 1000" overflow="inherit">
         <path transform="scale(1,-1)" d="M254 251c180 0 274 -112 274 -286c0 -184 -158 -362 -298 -463c-91 -71 -205 -118 -207 -118l-3 -1c-7 0 -16 2 -19 12c0 2 -1 3 -1 5c0 12 12 19 12 19c1 0 99 45 203 140c98 88 181 275 181 405c0 168 -50 250 -152 250c-35 0 -67 -6 -92 -20c-39 -21 -69 -65 -76 -109 c8 7 25 17 35 21c9 3 20 5 32 5c56 0 106 -47 106 -104c0 -66 -50 -109 -114 -109c-74 0 -116 54 -116 127s38 139 97 182c1 0 62 44 138 44zM568 124c0 28 22 51 48 51s48 -23 48 -51s-22 -50 -48 -50s-48 22 -48 50zM568 -123c0 28 22 51 48 51s48 -23 48 -51 s-22 -51 -48 -51s-48 23 -48 51z" />
      </symbol>
      <symbol id="E084-e7qsx7" viewBox="0 0 1000 1000" overflow="inherit">
         <path transform="scale(1,-1)" d="M208 -127h-172c-9 0 -11 6 -11 6s-6 11 -10 18c-1 2 -1 4 -1 6c0 6 3 11 3 11c26 37 56 87 82 168s31 155 31 155c1 6 6 12 14 12h148c4 0 8 -2 10 -4l22 -22c1 -1 3 -5 3 -10c0 -4 -1 -9 -5 -14c-118 -158 -229 -278 -229 -278h115v82c0 4 1 8 4 11l91 83c2 2 6 3 9 4 c2 0 5 -1 7 -2l12 -6c5 -2 8 -7 8 -13v-159h89c8 0 14 -7 14 -14v-19c0 -8 -6 -15 -14 -15h-89v-74h89c8 0 14 -6 14 -14v-19c0 -8 -6 -14 -14 -14h-303c-7 0 -14 6 -14 14v19c0 8 7 14 14 14h83v74z" />
      </symbol>
      <symbol id="E0A4-e7qsx7" viewBox="0 0 1000 1000" overflow="inherit">
         <path transform="scale(1,-1)" d="M0 -42c0 92 116 174 213 174c62 0 112 -33 112 -92c0 -88 -109 -173 -213 -173c-81 0 -112 48 -112 91z" />
      </symbol>
      <symbol id="E262-e7qsx7" viewBox="0 0 1000 1000" overflow="inherit">
         <path transform="scale(1,-1)" d="M233 105l-38 -7v-165l33 7c9 0 16 -4 16 -14v-59c0 -6 -5 -13 -11 -14l-38 -7v-147h-28v141l-89 -18v-155h-28v149l-33 -7c-9 0 -17 3 -17 14v58c0 6 5 13 11 14l39 8v165l-33 -7c-9 0 -17 3 -17 14v58c0 6 5 13 11 14l39 8v147h28v-141l89 18v155h28v-149l33 7 c9 0 16 -4 16 -14v-59c0 -6 -5 -13 -11 -14zM78 74v-166l89 19v165z" />
      </symbol>
      <symbol id="E4A2-e7qsx7" viewBox="0 0 1000 1000" overflow="inherit">
         <path transform="scale(1,-1)" d="M11 11c-15 16 -15 40 0 56c8 8 18 11 28 11s20 -3 28 -11c15 -16 15 -40 0 -56c-8 -7 -18 -11 -28 -11s-20 4 -28 11z" />
      </symbol>
      <symbol id="E4E4-e7qsx7" viewBox="0 0 1000 1000" overflow="inherit">
         <path transform="scale(1,-1)" d="M0 10v108c0 14 0 14 14 14h297c14 0 14 0 14 -14v-108c0 -14 0 -14 -14 -14h-297c-14 0 -14 0 -14 14z" />
      </symbol>
      <symbol id="E4E5-e7qsx7" viewBox="0 0 1000 1000" overflow="inherit">
         <path transform="scale(1,-1)" d="M230 -166l2 -3c2 -3 3 -5 3 -8s-1 -6 -3 -9c-3 -4 -6 -5 -10 -5s-8 2 -8 2l-39 25c-8 5 -19 9 -32 9c-32 0 -56 -26 -56 -58c0 -18 7 -32 7 -32s32 -58 35 -63c1 -2 3 -5 3 -9s-2 -8 -7 -12c-2 -2 -4 -2 -6 -2c-7 0 -12 6 -12 6s-75 95 -96 127c-8 11 -11 25 -11 39 c0 51 40 93 91 93c12 0 21 -2 25 -3l-112 139c-2 2 -3 5 -3 8v9c0 2 1 6 2 8l101 154c2 3 3 8 3 12c0 5 -1 9 -3 12l-76 104s-3 5 -3 11c0 3 1 7 5 10c3 3 5 3 8 3c6 0 10 -6 10 -6l162 -219c2 -2 3 -5 3 -8v-9c0 -2 -1 -5 -2 -7l-102 -154c-1 -2 -2 -6 -2 -9 c0 -2 1 -5 2 -6l115 -142c3 -4 5 -6 6 -7z" />
      </symbol>
      <symbol id="E4E6-e7qsx7" viewBox="0 0 1000 1000" overflow="inherit">
         <path transform="scale(1,-1)" d="M267 203c6 -3 9 -7 9 -12c0 -2 0 -4 -1 -5l-140 -441l-27 8l114 356c-34 -37 -69 -62 -122 -62c-47 0 -100 25 -100 79c0 39 32 71 72 71c39 0 71 -32 71 -71c0 -19 -7 -35 -18 -48c54 10 102 72 125 118c2 5 7 8 13 8c1 0 3 -1 4 -1z" />
      </symbol>
      <symbol id="E520-e7qsx7" viewBox="0 0 1000 1000" overflow="inherit">
         <path transform="scale(1,-1)" d="M129 -163h-224v20h61l99 276c5 10 23 54 23 78c0 7 -1 12 -5 15c-2 2 -5 2 -8 2h-4c-9 -2 -21 -10 -27 -19c-12 -16 -22 -48 -26 -61l-18 9c16 46 42 106 99 106l5 -1h3c35 -5 56 -43 56 -43l2 -4l3 3c17 17 48 43 79 43c46 0 70 -49 70 -90c0 -76 -54 -193 -139 -193 c-6 0 -13 0 -19 2c-34 9 -44 31 -44 31l-3 7l-58 -161h75v-20zM157 12c3 0 8 0 11 2c44 21 79 131 79 179c0 10 -2 29 -14 32c-2 1 -5 1 -7 1c-39 0 -77 -70 -84 -101c-1 -2 -12 -38 -12 -69c0 -19 4 -37 19 -43c2 -1 6 -1 8 -1z" />
      </symbol>
      <symbol id="E52B-e7qsx7" viewBox="0 0 1000 1000" overflow="inherit">
         <path transform="scale(1,-1)" d="M571 261c46 0 70 -49 70 -90c0 -76 -55 -193 -140 -193c-6 0 -13 0 -19 2c-34 9 -43 31 -43 31l-3 7l-58 -161h75v-20h-225v20h62l99 276c12 32 23 58 23 75c0 14 -8 22 -22 22c-16 0 -35 -13 -43 -26c-10 -17 -23 -40 -38 -90c-21 -80 -76 -136 -131 -136 c-6 0 -13 0 -19 2c-34 9 -44 31 -44 31l-3 7l-58 -161h75v-20h-224v20h61l99 276c5 10 23 54 23 78c0 7 -1 12 -5 15c-2 2 -5 2 -8 2h-4c-9 -2 -20 -10 -26 -19c-12 -16 -23 -48 -27 -61l-18 9c16 46 42 106 99 106l5 -1h3c35 -5 56 -43 56 -43l2 -4l3 3c17 17 48 43 79 43 c36 0 62 -32 68 -65c23 54 67 67 101 67c5 0 10 0 15 -1c35 -5 56 -43 56 -43l2 -4l3 3c17 17 48 43 79 43zM168 14c44 21 79 131 79 179c0 10 -2 29 -14 32c-2 1 -5 1 -7 1c-39 0 -77 -70 -84 -101c-1 -2 -12 -38 -12 -69c0 -19 4 -37 19 -43c2 -1 6 -1 8 -1c3 0 8 0 11 2z M492 14c44 21 79 131 79 179c0 10 -2 29 -14 32c-2 1 -5 1 -7 1c-39 0 -77 -70 -84 -101c-1 -2 -12 -38 -12 -69c0 -19 4 -37 19 -43c2 -1 6 -1 8 -1c3 0 8 0 11 2z" />
      </symbol>
   </defs>
   <style type="text/css">g.page-margin{font-family:Times;} g.ending, g.fing, g.reh, g.tempo{font-weight:bold;} g.dir, g.dynam, g.mNum{font-style:italic;} g.label{font-weight:normal;}</style>
   <svg class="definition-scale" color="black" viewBox="0 0 7920 6040">
      <g class="page-margin" transform="translate(500, 500)">
         <g id="mxwj41y" class="mdiv pageMilestone" />
         <g id="s1m9so61" class="score pageMilestone" />
         <g id="sbjbc3h" class="system">
            <path d="M13 317 L13 4143" stroke="currentColor" stroke-width="27" />
            <g id="gcpnxy5" class="grpSym">
               <path d="M-72,4125 C-432,3585 18,3039 -252,2859 C81,3039 -369,3585 -72,4125" stroke="currentColor" stroke-linecap="round" stroke-linejoin="round" stroke-width="18" />
               <path d="M-72,1593 C-369,2133 81,2679 -252,2859 C18,2679 -432,2133 -72,1593" stroke="currentColor" stroke-linecap="round" stroke-linejoin="round" stroke-width="18" />
            </g>
            <g id="sfpztea" class="section systemMilestone" />
            <g id="m381oze" class="measure upbeat">
               <g id="s1tpl9mi" class="staff">
                  <path d="M0 317 L2674 317" stroke="currentColor" stroke-width="10" />
                  <path d="M0 452 L2674 452" stroke="currentColor" stroke-width="10" />
                  <path d="M0 587 L2674 587" stroke="currentColor" stroke-width="10" />
                  <path d="M0 722 L2674 722" stroke="currentColor" stroke-width="10" />
                  <path d="M0 857 L2674 857" stroke="currentColor" stroke-width="10" />
                  <g id="cszwasv" class="clef">
                     <use xlink:href="#E050-e7qsx7" x="117" y="722" height="540px" width="540px" />
                  </g>
                  <g id="k1utfdzu" class="keySig">
                     <g id="k1av1q7u" class="keyAccid">
                        <use xlink:href="#E262-e7qsx7" x="775" y="317" height="540px" width="540px" />
                     </g>
                  </g>
                  <g id="m1gnn4uw" class="meterSig">
                     <use xlink:href="#E084-e7qsx7" x="1120" y="450" height="540px" width="540px" />
                     <use xlink:href="#E084-e7qsx7" x="1120" y="720" height="540px" width="540px" />
                  </g>
                  <g id="l1w2qktb" class="layer">
                     <g id="b1uom9pu" class="beam">
                        <polygon points="1870,384 2385,317 2385,384 1870,451" />
                        <g id="note-0000000827838925" class="note">
                           <g class="notehead">
                              <use xlink:href="#E0A4-e7qsx7" x="1708" y="853" height="540px" width="540px" />
                           </g>
                           <g id="s12thvk" class="stem">
                              <rect x="1870" y="397" height="435" width="12" />
                           </g>
                           <g id="v18waknr" class="verse">
                              <g id="snb5b27" class="syl">
                                 <text x="1641" y="1224" font-size="0px">
                                    <tspan id="t14fbpar" class="text">
                                       <tspan font-size="303px" class="text">Die</tspan>
                                    </tspan>
                                 </text>
                              </g>
                           </g>
                        </g>
                        <g id="note-0000000349216146" class="note">
                           <g class="notehead">
                              <use xlink:href="#E0A4-e7qsx7" x="2211" y="786" height="540px" width="540px" />
                           </g>
                           <g id="sxxxsxy" class="stem">
                              <rect x="2373" y="330" height="435" width="12" />
                           </g>
                           <g id="a1oy4wlr" class="accid" />
                           <g id="v10y1k7a" class="verse">
                              <g id="sao5ryr" class="syl">
                                 <text x="2144" y="1224" font-size="0px">
                                    <tspan id="tl4bkv0" class="text">
                                       <tspan font-size="303px" class="text">zwei</tspan>
                                    </tspan>
                                 </text>
                              </g>
                           </g>
                        </g>
                     </g>
                  </g>
               </g>
               <g id="s12fta29" class="staff">
                  <path d="M0 1575 L2674 1575" stroke="currentColor" stroke-width="13" />
                  <path d="M0 1755 L2674 1755" stroke="currentColor" stroke-width="13" />
                  <path d="M0 1935 L2674 1935" stroke="currentColor" stroke-width="13" />
                  <path d="M0 2115 L2674 2115" stroke="currentColor" stroke-width="13" />
                  <path d="M0 2295 L2674 2295" stroke="currentColor" stroke-width="13" />
                  <g id="c14r25tj" class="clef">
                     <use xlink:href="#E050-e7qsx7" x="117" y="2115" height="720px" width="720px" />
                  </g>
                  <g id="khqrwpp" class="keySig">
                     <g id="k1gn5ire" class="keyAccid">
                        <use xlink:href="#E262-e7qsx7" x="775" y="1575" height="720px" width="720px" />
                     </g>
                  </g>
                  <g id="m1ixqios" class="meterSig">
                     <use xlink:href="#E084-e7qsx7" x="1120" y="1755" height="720px" width="720px" />
                     <use xlink:href="#E084-e7qsx7" x="1120" y="2115" height="720px" width="720px" />
                  </g>
                  <g class="ledgerLines below">
                     <path d="M1660 2475 L1990 2475" stroke="currentColor" stroke-width="22" />
                     <path d="M2163 2475 L2493 2475" stroke="currentColor" stroke-width="22" />
                     <path d="M1660 2655 L1990 2655" stroke="currentColor" stroke-width="22" />
                  </g>
                  <g id="l1sha1a1" class="layer">
                     <g id="b72pmmc" class="beam">
                        <polygon points="1924,1575 2445,1530 2445,1620 1924,1665" />
                        <g id="c1gi08lu" class="chord">
                           <g id="sh5ib6n" class="stem">
                              <rect x="1924" y="1593" height="1124" width="18" />
                           </g>
                           <g id="d1e284" class="note">
                              <g class="notehead">
                                 <use xlink:href="#E0A4-e7qsx7" x="1708" y="2745" height="720px" width="720px" />
                              </g>
                           </g>
                           <g id="n1d4yfip" class="note">
                              <g class="notehead">
                                 <use xlink:href="#E0A4-e7qsx7" x="1708" y="2295" height="720px" width="720px" />
                              </g>
                           </g>
                        </g>
                        <g id="c1gh0ge3" class="chord">
                           <g id="s1c5ieu2" class="stem">
                              <rect x="2427" y="1548" height="989" width="18" />
                           </g>
                           <g id="d1e323" class="note">
                              <g class="notehead">
                                 <use xlink:href="#E0A4-e7qsx7" x="2211" y="2565" height="720px" width="720px" />
                              </g>
                           </g>
                           <g id="n7ahhwv" class="note">
                              <g class="notehead">
                                 <use xlink:href="#E0A4-e7qsx7" x="2211" y="2205" height="720px" width="720px" />
                              </g>
                              <g id="a18qhnv3" class="accid" />
                           </g>
                        </g>
                     </g>
                  </g>
               </g>
               <g id="sgb6kac" class="staff">
                  <path d="M0 3423 L2674 3423" stroke="currentColor" stroke-width="13" />
                  <path d="M0 3603 L2674 3603" stroke="currentColor" stroke-width="13" />
                  <path d="M0 3783 L2674 3783" stroke="currentColor" stroke-width="13" />
                  <path d="M0 3963 L2674 3963" stroke="currentColor" stroke-width="13" />
                  <path d="M0 4143 L2674 4143" stroke="currentColor" stroke-width="13" />
                  <g id="c1uacz5x" class="clef">
                     <use xlink:href="#E062-e7qsx7" x="117" y="3603" height="720px" width="720px" />
                  </g>
                  <g id="k1s63dim" class="keySig">
                     <g id="kw4d5av" class="keyAccid">
                        <use xlink:href="#E262-e7qsx7" x="775" y="3603" height="720px" width="720px" />
                     </g>
                  </g>
                  <g id="m185qj9l" class="meterSig">
                     <use xlink:href="#E084-e7qsx7" x="1120" y="3603" height="720px" width="720px" />
                     <use xlink:href="#E084-e7qsx7" x="1120" y="3963" height="720px" width="720px" />
                  </g>
                  <g id="l1vad0m9" class="layer">
                     <g id="rbahiyf" class="rest">
                        <use xlink:href="#E4E5-e7qsx7" x="1708" y="3783" height="720px" width="720px" />
                     </g>
                  </g>
               </g>
               <g id="dpzmewo" class="dynam">
                  <use xlink:href="#E52B-e7qsx7" x="1708" y="196" height="540px" width="540px" />
               </g>
               <g id="dbm5stv" class="dynam">
                  <use xlink:href="#E52B-e7qsx7" x="1708" y="3261" height="720px" width="720px" />
               </g>
               <g id="sn1rmz9" class="slur">
                  <path d="M1825,2947 C1954,2983 2247,2877 2326,2767 C2292,2924 1949,3047 1825,2947" stroke="currentColor" stroke-linecap="round" stroke-linejoin="round" stroke-width="9" />
               </g>
               <g id="bxf9v0q" class="barLine">
                  <path d="M2661 317 L2661 853" stroke="currentColor" stroke-width="27" />
                  <path d="M2661 1575 L2661 2295" stroke="currentColor" stroke-width="27" />
                  <path d="M2661 3423 L2661 4143" stroke="currentColor" stroke-width="27" />
               </g>
            </g>
            <g id="mhlhkru" class="measure">
               <g id="sf6fbz7" class="staff">
                  <path d="M2674 317 L6922 317" stroke="currentColor" stroke-width="10" />
                  <path d="M2674 452 L6922 452" stroke="currentColor" stroke-width="10" />
                  <path d="M2674 587 L6922 587" stroke="currentColor" stroke-width="10" />
                  <path d="M2674 722 L6922 722" stroke="currentColor" stroke-width="10" />
                  <path d="M2674 857 L6922 857" stroke="currentColor" stroke-width="10" />
                  <g id="l1ahc9re" class="layer">
                     <g id="b16nvptx" class="beam">
                        <polygon points="3076,284 3730,284 3730,351 3076,351" />
                        <polygon points="3555,384 3730,384 3730,451 3555,451" />
                        <g id="d1e379" class="note">
                           <g class="notehead">
                              <use xlink:href="#E0A4-e7qsx7" x="2914" y="719" height="540px" width="540px" />
                           </g>
                           <g id="dztrzf1" class="dots">
                              <ellipse cx="3155" cy="656" rx="27" ry="27" />
                           </g>
                           <g id="s13k26mq" class="stem">
                              <rect x="3076" y="297" height="401" width="12" />
                           </g>
                           <g id="vj0k70k" class="verse">
                              <g id="s1c39es8" class="syl">
                                 <text x="2784" y="1224" font-size="0px">
                                    <tspan id="t14tqbwt" class="text">
                                       <tspan font-size="303px" class="text">blau-</tspan>
                                    </tspan>
                                 </text>
                              </g>
                           </g>
                        </g>
                        <g id="d1e401" class="note">
                           <g class="notehead">
                              <use xlink:href="#E0A4-e7qsx7" x="3556" y="719" height="540px" width="540px" />
                           </g>
                           <g id="s80khn1" class="stem">
                              <rect x="3718" y="297" height="401" width="12" />
                           </g>
                           <g id="v145a59k" class="verse">
                              <g id="s1wmrfcr" class="syl">
                                 <text x="3489" y="1224" font-size="0px">
                                    <tspan id="tnhy9mg" class="text">
                                       <tspan font-size="303px" class="text">en</tspan>
                                    </tspan>
                                 </text>
                              </g>
                           </g>
                        </g>
                     </g>
                     <g id="blo44py" class="beam">
                        <polygon points="4085,284 4640,284 4640,351 4085,351" />
                        <g id="d1e424" class="note">
                           <g class="notehead">
                              <use xlink:href="#E0A4-e7qsx7" x="3923" y="719" height="540px" width="540px" />
                           </g>
                           <g id="s1wgdoll" class="stem">
                              <rect x="4085" y="297" height="401" width="12" />
                           </g>
                           <g id="v3kp4pw" class="verse">
                              <g id="scq8com" class="syl">
                                 <text x="3856" y="1224" font-size="0px">
                                    <tspan id="tryh20h" class="text">
                                       <tspan font-size="303px" class="text">Au-</tspan>
                                    </tspan>
                                 </text>
                              </g>
                           </g>
                        </g>
                        <g id="d1e445" class="note">
                           <g class="notehead">
                              <use xlink:href="#E0A4-e7qsx7" x="4466" y="719" height="540px" width="540px" />
                           </g>
                           <g id="s131qdjr" class="stem">
                              <rect x="4628" y="297" height="401" width="12" />
                           </g>
                           <g id="vkm803u" class="verse">
                              <g id="sgmg809" class="syl">
                                 <text x="4399" y="1224" font-size="0px">
                                    <tspan id="tuutdk6" class="text">
                                       <tspan font-size="303px" class="text">gen</tspan>
                                    </tspan>
                                 </text>
                              </g>
                           </g>
                        </g>
                     </g>
                     <g id="r1knrkhf" class="rest">
                        <use xlink:href="#E4E6-e7qsx7" x="4856" y="585" height="540px" width="540px" />
                     </g>
                     <g id="bgcudwj" class="beam">
                        <polygon points="5528,250 6627,317 6627,384 5528,317" />
                        <g id="d1e474" class="note">
                           <g class="notehead">
                              <use xlink:href="#E0A4-e7qsx7" x="5366" y="719" height="540px" width="540px" />
                           </g>
                           <g id="s4ummz3" class="stem">
                              <rect x="5528" y="263" height="435" width="12" />
                           </g>
                           <g id="v1mwjskr" class="verse">
                              <g id="sqvm2qc" class="syl">
                                 <text x="5213" y="1224" font-size="0px">
                                    <tspan id="txt9po0" class="text">
                                       <tspan font-size="303px" class="text">von</tspan>
                                    </tspan>
                                 </text>
                              </g>
                           </g>
                        </g>
                        <g id="d1e495" class="note">
                           <g class="notehead">
                              <use xlink:href="#E0A4-e7qsx7" x="5816" y="853" height="540px" width="540px" />
                           </g>
                           <g id="stnadin" class="stem">
                              <rect x="5978" y="291" height="541" width="12" />
                           </g>
                           <g id="v7lahdc" class="verse">
                              <g id="sjizrj5" class="syl">
                                 <text x="5749" y="1224" font-size="0px">
                                    <tspan id="t1v45rqw" class="text">
                                       <tspan font-size="303px" class="text">mei-</tspan>
                                    </tspan>
                                 </text>
                              </g>
                           </g>
                        </g>
                        <g id="d1e516" class="note">
                           <g class="notehead">
                              <use xlink:href="#E0A4-e7qsx7" x="6453" y="786" height="540px" width="540px" />
                           </g>
                           <g id="s1dcudhx" class="stem">
                              <rect x="6615" y="330" height="435" width="12" />
                           </g>
                           <g id="a1cxsfrx" class="accid" />
                           <g id="v1azyz2c" class="verse">
                              <g id="s1tzbfh8" class="syl">
                                 <text x="6386" y="1224" font-size="0px">
                                    <tspan id="tiri7yw" class="text">
                                       <tspan font-size="303px" class="text">nem</tspan>
                                    </tspan>
                                 </text>
                              </g>
                           </g>
                        </g>
                     </g>
                  </g>
               </g>
               <g id="s1kmusob" class="staff">
                  <path d="M2674 1575 L6922 1575" stroke="currentColor" stroke-width="13" />
                  <path d="M2674 1755 L6922 1755" stroke="currentColor" stroke-width="13" />
                  <path d="M2674 1935 L6922 1935" stroke="currentColor" stroke-width="13" />
                  <path d="M2674 2115 L6922 2115" stroke="currentColor" stroke-width="13" />
                  <path d="M2674 2295 L6922 2295" stroke="currentColor" stroke-width="13" />
                  <g class="ledgerLines below">
                     <path d="M2806 2475 L3136 2475" stroke="currentColor" stroke-width="22" />
                     <path d="M3452 2475 L3774 2475" stroke="currentColor" stroke-width="22" />
                     <path d="M3819 2475 L4141 2475" stroke="currentColor" stroke-width="22" />
                     <path d="M5708 2475 L6038 2475" stroke="currentColor" stroke-width="22" />
                     <path d="M6345 2475 L6675 2475" stroke="currentColor" stroke-width="22" />
                  </g>
                  <g id="lzmxwtt" class="layer">
                     <g id="btim9k6" class="beam">
                        <polygon points="3070,1530 3730,1530 3730,1620 3070,1620" />
                        <polygon points="3496,1665 3730,1665 3730,1755 3496,1755" />
                        <g id="ccfkz7h" class="chord">
                           <g id="diojrqf" class="dots">
                              <ellipse cx="3178" cy="2565" rx="36" ry="36" />
                              <ellipse cx="3178" cy="2205" rx="36" ry="36" />
                              <ellipse cx="3178" cy="2025" rx="36" ry="36" />
                           </g>
                           <g id="ssbr5q4" class="stem">
                              <rect x="3070" y="1548" height="989" width="18" />
                           </g>
                           <g id="a16liv0n" class="artic">
                              <use xlink:href="#E4A2-e7qsx7" x="3051" y="1491" height="720px" width="720px" />
                           </g>
                           <g id="d1e540" class="note">
                              <g class="notehead">
                                 <use xlink:href="#E0A4-e7qsx7" x="2854" y="2565" height="720px" width="720px" />
                              </g>
                           </g>
                           <g id="n11jixjf" class="note">
                              <g class="notehead">
                                 <use xlink:href="#E0A4-e7qsx7" x="2854" y="2295" height="720px" width="720px" />
                              </g>
                           </g>
                           <g id="ndd5fic" class="note">
                              <g class="notehead">
                                 <use xlink:href="#E0A4-e7qsx7" x="2854" y="2115" height="720px" width="720px" />
                              </g>
                           </g>
                        </g>
                        <g id="chbn9t2" class="chord">
                           <g id="s12bhb78" class="stem">
                              <rect x="3712" y="1548" height="989" width="18" />
                           </g>
                           <g id="a1cvfyk0" class="artic">
                              <use xlink:href="#E4A2-e7qsx7" x="3693" y="1491" height="720px" width="720px" />
                           </g>
                           <g id="n1oeuu1c" class="note">
                              <g class="notehead">
                                 <use xlink:href="#E0A4-e7qsx7" x="3496" y="2565" height="720px" width="720px" />
                              </g>
                           </g>
                           <g id="n15hbjta" class="note">
                              <g class="notehead">
                                 <use xlink:href="#E0A4-e7qsx7" x="3496" y="2295" height="720px" width="720px" />
                              </g>
                           </g>
                           <g id="nlncbh" class="note">
                              <g class="notehead">
                                 <use xlink:href="#E0A4-e7qsx7" x="3496" y="2115" height="720px" width="720px" />
                              </g>
                           </g>
                        </g>
                     </g>
                     <g id="c8a7ums" class="chord">
                        <g id="sdj3dzy" class="stem">
                           <rect x="4078" y="1485" height="1052" width="18" />
                        </g>
                        <g id="a1u1cjge" class="artic">
                           <use xlink:href="#E4A2-e7qsx7" x="4060" y="1446" height="720px" width="720px" />
                        </g>
                        <g id="d1e656" class="note">
                           <g class="notehead">
                              <use xlink:href="#E0A4-e7qsx7" x="3863" y="2565" height="720px" width="720px" />
                           </g>
                        </g>
                        <g id="n1jalai9" class="note">
                           <g class="notehead">
                              <use xlink:href="#E0A4-e7qsx7" x="3863" y="2295" height="720px" width="720px" />
                           </g>
                        </g>
                        <g id="nf6axys" class="note">
                           <g class="notehead">
                              <use xlink:href="#E0A4-e7qsx7" x="3863" y="2115" height="720px" width="720px" />
                           </g>
                        </g>
                     </g>
                     <g id="r1q3sq1b" class="rest">
                        <use xlink:href="#E4E5-e7qsx7" x="4856" y="1935" height="720px" width="720px" />
                     </g>
                     <g id="bia4cu6" class="beam">
                        <polygon points="5972,1665 6627,1575 6627,1665 5972,1755" />
                        <g id="cz7y05y" class="chord">
                           <g id="s629gri" class="stem">
                              <rect x="5972" y="1683" height="764" width="18" />
                           </g>
                           <g id="a1mppfq1" class="artic">
                              <use xlink:href="#E4A2-e7qsx7" x="5953" y="1603" height="720px" width="720px" />
                           </g>
                           <g id="d1e720" class="note">
                              <g class="notehead">
                                 <use xlink:href="#E0A4-e7qsx7" x="5756" y="2475" height="720px" width="720px" />
                              </g>
                           </g>
                           <g id="nio44wa" class="note">
                              <g class="notehead">
                                 <use xlink:href="#E0A4-e7qsx7" x="5756" y="2295" height="720px" width="720px" />
                              </g>
                           </g>
                        </g>
                        <g id="c7a6hkm" class="chord">
                           <g id="sys3abc" class="stem">
                              <rect x="6609" y="1593" height="944" width="18" />
                           </g>
                           <g id="a1e2kx8" class="artic">
                              <use xlink:href="#E4A2-e7qsx7" x="6590" y="1536" height="720px" width="720px" />
                           </g>
                           <g id="d1e760" class="note">
                              <g class="notehead">
                                 <use xlink:href="#E0A4-e7qsx7" x="6393" y="2565" height="720px" width="720px" />
                              </g>
                           </g>
                           <g id="n1ckz1xe" class="note">
                              <g class="notehead">
                                 <use xlink:href="#E0A4-e7qsx7" x="6393" y="2205" height="720px" width="720px" />
                              </g>
                              <g id="ayp6h0l" class="accid" />
                           </g>
                        </g>
                     </g>
                  </g>
               </g>
               <g id="snz8z60" class="staff">
                  <path d="M2674 3423 L6922 3423" stroke="currentColor" stroke-width="13" />
                  <path d="M2674 3603 L6922 3603" stroke="currentColor" stroke-width="13" />
                  <path d="M2674 3783 L6922 3783" stroke="currentColor" stroke-width="13" />
                  <path d="M2674 3963 L6922 3963" stroke="currentColor" stroke-width="13" />
                  <path d="M2674 4143 L6922 4143" stroke="currentColor" stroke-width="13" />
                  <g class="ledgerLines below">
                     <path d="M2806 4323 L3136 4323" stroke="currentColor" stroke-width="22" />
                     <path d="M2806 4503 L3136 4503" stroke="currentColor" stroke-width="22" />
                     <path d="M2806 4683 L3136 4683" stroke="currentColor" stroke-width="22" />
                     <path d="M2806 4863 L3136 4863" stroke="currentColor" stroke-width="22" />
                  </g>
                  <g id="l1tisgtp" class="layer">
                     <g id="c1hs5fwp" class="chord">
                        <g id="s14ud040" class="stem">
                           <rect x="3069" y="3693" height="1232" width="18" />
                        </g>
                        <g id="n1t081fj" class="note">
                           <g class="notehead">
                              <use xlink:href="#E0A4-e7qsx7" x="2854" y="4953" height="720px" width="720px" />
                           </g>
                        </g>
                        <g id="nd7ulin" class="note">
                           <g class="notehead">
                              <use xlink:href="#E0A4-e7qsx7" x="2854" y="4323" height="720px" width="720px" />
                           </g>
                        </g>
                     </g>
                     <g id="c1kxp9eg" class="chord">
                        <g id="shtim9r" class="stem">
                           <rect x="3863" y="3543" height="960" width="18" />
                        </g>
                        <g id="n1bjozpp" class="note">
                           <g class="notehead">
                              <use xlink:href="#E0A4-e7qsx7" x="3863" y="3963" height="720px" width="720px" />
                           </g>
                        </g>
                        <g id="n1mgzq7l" class="note">
                           <g class="notehead">
                              <use xlink:href="#E0A4-e7qsx7" x="3863" y="3693" height="720px" width="720px" />
                           </g>
                        </g>
                        <g id="n1nt7kji" class="note">
                           <g class="notehead">
                              <use xlink:href="#E0A4-e7qsx7" x="3863" y="3513" height="720px" width="720px" />
                           </g>
                        </g>
                     </g>
                     <g id="r1mfy6ad" class="rest">
                        <use xlink:href="#E4E4-e7qsx7" x="4856" y="3783" height="720px" width="720px" />
                        <g class="ledgerLines" />
                     </g>
                  </g>
               </g>
               <g id="d32fjl8" class="dynam">
                  <use xlink:href="#E520-e7qsx7" x="5306" y="142" height="540px" width="540px" />
               </g>
               <g id="d118mux2" class="dynam">
                  <use xlink:href="#E520-e7qsx7" x="5756" y="3055" height="720px" width="720px" />
               </g>
               <g id="s1nox38w" class="slur">
                  <path d="M2971,2767 C3205,2940 3745,2940 3980,2767 C3768,2997 3182,2997 2971,2767" stroke="currentColor" stroke-linecap="round" stroke-linejoin="round" stroke-width="9" />
               </g>
               <g id="s1y6slu0" class="slur">
                  <path d="M5873,2677 C5992,2794 6358,2846 6508,2765 C6375,2906 5959,2848 5873,2677" stroke="currentColor" stroke-linecap="round" stroke-linejoin="round" stroke-width="9" />
               </g>
               <g id="b1upowru" class="barLine">
                  <path d="M6909 317 L6909 853" stroke="currentColor" stroke-width="27" />
                  <path d="M6909 1575 L6909 2295" stroke="currentColor" stroke-width="27" />
                  <path d="M6909 3423 L6909 4143" stroke="currentColor" stroke-width="27" />
               </g>
            </g>
            <g id="szx59m8" class="systemMilestoneEnd sfpztea" />
         </g>
         <g id="p1m0r4hc" class="pageMilestoneEnd s1m9so61" />
         <g id="p19kfa8b" class="pageMilestoneEnd mxwj41y" />
      </g>
   </svg>
</svg>
