<svg width="321px" height="168.5px" version="1.1" xmlns="http://www.w3.org/2000/svg" xmlns:xlink="http://www.w3.org/1999/xlink" xmlns:mei="http://www.music-encoding.org/ns/mei" overflow="visible">
   <desc>Engraved by Verovio 3.12.0-77bd079</desc>
   <defs>
      <symbol id="E050-6qoacs" viewBox="0 0 1000 1000" overflow="inherit">
         <path transform="scale(1,-1)" d="M441 -245c-23 -4 -48 -6 -76 -6c-59 0 -102 7 -130 20c-88 42 -150 93 -187 154c-26 44 -43 103 -48 176c0 6 -1 13 -1 19c0 54 15 111 45 170c29 57 65 106 110 148s96 85 153 127c-3 16 -8 46 -13 92c-4 43 -5 73 -5 89c0 117 16 172 69 257c34 54 64 82 89 82 c21 0 43 -30 69 -92s39 -115 41 -159v-15c0 -109 -21 -162 -67 -241c-13 -20 -63 -90 -98 -118c-13 -9 -25 -19 -37 -29l31 -181c8 1 18 2 28 2c58 0 102 -12 133 -35c59 -43 92 -104 98 -184c1 -7 1 -15 1 -22c0 -123 -87 -209 -181 -248c8 -57 17 -110 25 -162 c5 -31 6 -58 6 -80c0 -30 -5 -53 -14 -70c-35 -64 -88 -99 -158 -103c-5 0 -11 -1 -16 -1c-37 0 -72 10 -108 27c-50 24 -77 59 -80 105v11c0 29 7 55 20 76c18 28 45 42 79 44h6c49 0 93 -42 97 -87v-9c0 -51 -34 -86 -105 -106c17 -24 51 -36 102 -36c62 0 116 43 140 85 c9 16 13 41 13 74c0 20 -1 42 -5 67c-8 53 -18 106 -26 159zM461 939c-95 0 -135 -175 -135 -286c0 -24 2 -48 5 -71c50 39 92 82 127 128c40 53 60 100 60 140v8c-4 53 -22 81 -55 81h-2zM406 119l54 -326c73 25 110 78 110 161c0 7 0 15 -1 23c-7 95 -57 142 -151 142h-12 zM382 117c-72 -2 -128 -47 -128 -120v-7c2 -46 43 -99 75 -115c-3 -2 -7 -5 -10 -10c-70 33 -116 88 -123 172v11c0 68 44 126 88 159c23 17 49 29 78 36l-29 170c-21 -13 -52 -37 -92 -73c-50 -44 -86 -84 -109 -119c-45 -69 -67 -130 -67 -182v-13c5 -68 35 -127 93 -176 s125 -73 203 -73c25 0 50 3 75 9c-19 111 -36 221 -54 331z" />
      </symbol>
      <symbol id="E08B-6qoacs" viewBox="0 0 1000 1000" overflow="inherit">
         <path transform="scale(1,-1)" d="M188 200c-42 -22 -63 -69 -63 -141v-119c0 -39 7 -70 19 -94s26 -40 44 -48v402zM0 -0c0 127 80 220 186 246v72h32l-6 -72c33 0 71 0 101 -11c54 -20 102 -65 102 -135c0 -16 -4 -30 -13 -43s-20 -24 -32 -29l-20 -8l-23 -3c-22 2 -41 8 -55 21s-21 31 -26 51 c0 38 45 80 79 80c12 0 19 3 19 10c0 6 -6 12 -15 18c-19 13 -47 24 -79 24c-10 0 -20 -1 -32 -5v-431c15 -3 12 -4 30 -4c57 0 100 51 121 93l17 39c3 13 5 25 5 35h26c-6 -70 -28 -121 -66 -152s-82 -47 -133 -47v-68h-30v72c-57 10 -122 54 -153 109c-7 12 -13 26 -19 42 c-11 29 -16 61 -16 96z" />
      </symbol>
      <symbol id="E0A4-6qoacs" viewBox="0 0 1000 1000" overflow="inherit">
         <path transform="scale(1,-1)" d="M0 -39c0 68 73 172 200 172c66 0 114 -37 114 -95c0 -84 -106 -171 -218 -171c-64 0 -96 30 -96 94z" />
      </symbol>
      <symbol id="E241-6qoacs" viewBox="0 0 1000 1000" overflow="inherit">
         <path transform="scale(1,-1)" d="M179 646c-4 8 -17 30 -18 33l-4 10c0 3 2 5 5 5s7 -2 13 -7c23 -33 46 -81 66 -132c22 -57 35 -125 35 -163c0 -104 -60 -183 -122 -241c-63 -59 -57 -53 -61 -56c-38 -34 -63 -95 -71 -95h-22v190c40 7 69 11 87 16c88 27 168 95 168 200c0 30 -12 89 -30 138 c-17 47 -31 73 -46 102z" />
      </symbol>
   </defs>
   <style type="text/css">g.page-margin{font-family:Times;} g.ending, g.fing, g.reh, g.tempo{font-weight:bold;} g.dir, g.dynam, g.mNum{font-style:italic;} g.label{font-weight:normal;}</style>
   <svg class="definition-scale" color="black" viewBox="0 0 6420 3370">
      <g class="page-margin" transform="translate(500, 500)">
         <g id="m1tqdivd" class="mdiv pageMilestone" />
         <g id="schc7r5" class="score pageMilestone" />
         <g id="sio6vq3" class="system">
            <g id="sp24d25" class="section systemMilestone" />
            <g id="m158j6nm" class="measure upbeat">
               <g id="s1el9cvv" class="staff">
                  <path d="M0 1366 L2308 1366" stroke="currentColor" stroke-width="13" />
                  <path d="M0 1546 L2308 1546" stroke="currentColor" stroke-width="13" />
                  <path d="M0 1726 L2308 1726" stroke="currentColor" stroke-width="13" />
                  <path d="M0 1906 L2308 1906" stroke="currentColor" stroke-width="13" />
                  <path d="M0 2086 L2308 2086" stroke="currentColor" stroke-width="13" />
                  <g id="c1jk0sti" class="clef">
                     <use xlink:href="#E050-6qoacs" x="90" y="1906" height="720px" width="720px" />
                  </g>
                  <g id="m1w83qes" class="meterSig">
                     <use xlink:href="#E08B-6qoacs" x="825" y="1726" height="720px" width="720px" />
                  </g>
                  <g id="l1yymf01" class="layer">
                     <g id="bncv7xz" class="beam">
                        <polygon points="1395,2131 1863,2086 1863,1996 1395,2041" />
                        <g id="m0_s2_e1" class="note">
                           <g class="notehead">
                              <use xlink:href="#E0A4-6qoacs" x="1395" y="1456" height="720px" width="720px" />
                           </g>
                           <g id="sh16ll6" class="stem">
                              <rect x="1395" y="1484" height="629" width="18" />
                           </g>
                        </g>
                        <g id="m0_s2_e2" class="note">
                           <g class="notehead">
                              <use xlink:href="#E0A4-6qoacs" x="1845" y="1366" height="720px" width="720px" />
                           </g>
                           <g id="s32a5ha" class="stem">
                              <rect x="1845" y="1394" height="674" width="18" />
                           </g>
                        </g>
                     </g>
                  </g>
               </g>
               <g id="tdppoyh" class="tempo">
                  <text x="825" y="605" font-size="0px">
                     <tspan id="t1sspztf" class="text">
                        <tspan font-size="405px" class="text">Andante con moto </tspan>
                     </tspan>
                     <tspan id="rhkalye" class="rend">
                        <tspan id="tmgc6wn" class="text">
                           <tspan font-family="Leipzig" font-size="720px" class="text"></tspan>
                        </tspan>
                     </tspan>
                     <tspan id="thcjbuv" class="text">
                        <tspan font-size="405px" class="text"> = 70</tspan>
                     </tspan>
                  </text>
               </g>
               <g id="s1yoa757" class="slur">
                  <path d="M1508,1253 C1544,1107 1863,1044 1956,1166 C1845,1108 1585,1160 1508,1253" stroke="currentColor" stroke-linecap="round" stroke-linejoin="round" stroke-width="9" />
               </g>
               <g id="b1ydktw3" class="barLine">
                  <path d="M2295 1366 L2295 2086" stroke="currentColor" stroke-width="27" />
               </g>
            </g>
            <g id="m13x4tj0" class="measure">
               <g id="s12frs9m" class="staff">
                  <path d="M2308 1366 L5421 1366" stroke="currentColor" stroke-width="13" />
                  <path d="M2308 1546 L5421 1546" stroke="currentColor" stroke-width="13" />
                  <path d="M2308 1726 L5421 1726" stroke="currentColor" stroke-width="13" />
                  <path d="M2308 1906 L5421 1906" stroke="currentColor" stroke-width="13" />
                  <path d="M2308 2086 L5421 2086" stroke="currentColor" stroke-width="13" />
                  <g class="ledgerLines above">
                     <path d="M4910 1186 L5232 1186" stroke="currentColor" stroke-width="22" />
                     <path d="M4910 1006 L5232 1006" stroke="currentColor" stroke-width="22" />
                  </g>
                  <g id="l19aq22b" class="layer">
                     <g id="n9c8kig" class="note">
                        <g class="notehead">
                           <use xlink:href="#E0A4-6qoacs" x="2488" y="1276" height="720px" width="720px" />
                        </g>
                        <g id="d19kuphx" class="dots">
                           <ellipse cx="2804" cy="1276" rx="36" ry="36" />
                        </g>
                        <g id="sa2iywl" class="stem">
                           <rect x="2488" y="1304" height="602" width="18" />
                        </g>
                     </g>
                     <g id="n1shs4l6" class="note">
                        <g class="notehead">
                           <use xlink:href="#E0A4-6qoacs" x="3368" y="1276" height="720px" width="720px" />
                        </g>
                        <g id="s1hw4vxb" class="stem">
                           <rect x="3368" y="1304" height="602" width="18" />
                           <g id="fe0ipsh" class="flag">
                              <use xlink:href="#E241-6qoacs" x="3368" y="1906" height="720px" width="720px" />
                           </g>
                        </g>
                     </g>
                     <g id="n1m1oys1" class="note">
                        <g class="notehead">
                           <use xlink:href="#E0A4-6qoacs" x="3818" y="1276" height="720px" width="720px" />
                        </g>
                        <g id="s1tyvams" class="stem">
                           <rect x="3818" y="1304" height="602" width="18" />
                        </g>
                     </g>
                     <g id="b1ny0cax" class="beam">
                        <polygon points="4508,1951 4976,1906 4976,1816 4508,1861" />
                        <g id="m1_s2_e4" class="note">
                           <g class="notehead">
                              <use xlink:href="#E0A4-6qoacs" x="4508" y="1276" height="720px" width="720px" />
                           </g>
                           <g id="s1d0msyw" class="stem">
                              <rect x="4508" y="1304" height="629" width="18" />
                           </g>
                        </g>
                        <g id="m1_s2_e5" class="note">
                           <g class="notehead">
                              <use xlink:href="#E0A4-6qoacs" x="4958" y="1006" height="720px" width="720px" />
                           </g>
                           <g id="s1134ec3" class="stem">
                              <rect x="4958" y="1034" height="854" width="18" />
                           </g>
                        </g>
                     </g>
                  </g>
               </g>
               <g id="s1pjdyky" class="slur">
                  <path d="M4621,1074 C4618,916 4928,733 5069,807 C4935,797 4672,953 4621,1074" stroke="currentColor" stroke-linecap="round" stroke-linejoin="round" stroke-width="9" />
               </g>
               <g id="b1bs7hfh" class="barLine">
                  <path d="M5408 1366 L5408 2086" stroke="currentColor" stroke-width="27" />
               </g>
            </g>
            <g id="soumouw" class="systemMilestoneEnd sp24d25" />
         </g>
         <g id="p1cr462p" class="pageMilestoneEnd schc7r5" />
         <g id="p14oqfh6" class="pageMilestoneEnd m1tqdivd" />
      </g>
   </svg>
</svg>
