<svg width="355px" height="276px" version="1.1" xmlns="http://www.w3.org/2000/svg" xmlns:xlink="http://www.w3.org/1999/xlink" xmlns:mei="http://www.music-encoding.org/ns/mei" overflow="visible">
   <desc>Engraved by Verovio 3.13.1-010bd42</desc>
   <defs>
      <symbol id="E050-1tmlnms" viewBox="0 0 1000 1000" overflow="inherit">
         <path transform="scale(1,-1)" d="M0 102c0 177 136 324 260 434c0 0 -43 178 -43 246c0 88 33 172 69 220s66 78 78 78c9 0 22 -8 37 -26c65 -78 98 -183 98 -279c0 -150 -83 -254 -181 -348l37 -174c11 2 22 2 33 2c138 0 238 -114 238 -240c0 -105 -68 -199 -170 -240c0 0 32 -146 32 -191 c0 -121 -82 -217 -204 -217c-73 0 -182 41 -182 151c0 56 45 101 101 101s101 -45 101 -101c0 -53 -40 -97 -92 -101c14 -12 49 -17 72 -17c97 0 171 74 171 184c0 49 -31 180 -31 180c-25 -7 -52 -10 -80 -10c-187 0 -344 162 -344 348zM94 49c0 -157 121 -269 250 -269 c26 0 51 3 74 10l-74 351c-58 -20 -96 -72 -96 -124c0 -41 19 -87 57 -110c5 -3 9 -8 9 -14c0 -8 -7 -15 -15 -15c-3 0 -8 2 -8 2c-66 29 -113 87 -113 173c0 81 55 164 144 192l-33 155c-153 -148 -195 -273 -195 -351zM262 723c0 -44 27 -160 27 -160 c80 78 159 190 159 296c0 43 -8 77 -49 77c-81 0 -137 -123 -137 -213zM377 149l73 -346c63 30 112 105 112 182c0 90 -62 165 -165 165c-7 0 -13 0 -20 -1z" />
      </symbol>
      <symbol id="E062-1tmlnms" viewBox="0 0 1000 1000" overflow="inherit">
         <path transform="scale(1,-1)" d="M0 -531c0 6 3 10 9 13c236 101 410 282 410 516c0 128 -53 224 -177 224c-67 0 -130 -22 -169 -73c11 4 22 6 34 6c56 0 101 -45 101 -101s-45 -101 -101 -101s-101 45 -101 101c0 110 103 200 236 200c173 0 306 -101 306 -256c0 -297 -274 -491 -525 -543 c0 0 -5 -1 -8 -1c-8 0 -15 7 -15 15zM588 119c0 21 17 38 38 38s38 -17 38 -38s-17 -38 -38 -38s-38 17 -38 38zM588 -119c0 21 17 38 38 38s38 -17 38 -38s-17 -38 -38 -38s-38 17 -38 38z" />
      </symbol>
      <symbol id="E084-1tmlnms" viewBox="0 0 1000 1000" overflow="inherit">
         <path transform="scale(1,-1)" d="M0 -106c0 3 0 9 9 19c72 78 126 214 126 308c0 14 1 22 9 22h174c7 0 9 -6 9 -12c0 -3 -2 -8 -5 -11l-272 -307h149v104c0 12 12 25 36 51l59 66s8 10 16 10c3 0 9 -1 9 -10v-221h39s13 -1 13 -17s-13 -17 -13 -17h-39v-28c0 -35 22 -58 41 -58c8 0 24 -1 24 -18 c0 -14 -11 -18 -24 -18h-202c-13 0 -24 4 -24 18c0 17 16 18 24 18c19 0 41 23 41 58v28h-180c-9 0 -19 6 -19 15z" />
      </symbol>
      <symbol id="E0A4-1tmlnms" viewBox="0 0 1000 1000" overflow="inherit">
         <path transform="scale(1,-1)" d="M0 -37c0 92 97 172 201 172c67 0 115 -40 115 -98c0 -92 -97 -172 -201 -172c-67 0 -115 40 -115 98z" />
      </symbol>
      <symbol id="E520-1tmlnms" viewBox="0 0 1000 1000" overflow="inherit">
         <path transform="scale(1,-1)" d="M-72 -167c0 8 7 13 31 13c22 0 28 19 28 19l102 338s5 17 5 23c0 7 -3 11 -11 11c-22 0 -47 -37 -57 -59s-13 -24 -18 -24s-8 3 -8 8s1 10 13 35s41 75 99 75s66 -47 66 -47s33 43 88 43c43 0 80 -40 80 -96c0 -104 -63 -192 -146 -192c-37 0 -60 17 -71 47 c0 -1 -50 -166 -50 -166s-1 -3 -1 -5c0 -4 5 -10 23 -10c24 0 31 -5 31 -13s-7 -13 -31 -13h-142c-24 0 -31 5 -31 13zM139 61c0 -21 15 -34 33 -34c71 0 98 90 98 151c0 23 -12 44 -32 44c-15 0 -36 -1 -61 -35z" />
      </symbol>
      <symbol id="E52B-1tmlnms" viewBox="0 0 1000 1000" overflow="inherit">
         <path transform="scale(1,-1)" d="M-72 -167c0 8 7 13 31 13c22 0 28 19 28 19l102 338s5 17 5 23c0 7 -3 11 -11 11c-22 0 -47 -37 -57 -59s-13 -24 -18 -24s-8 3 -8 8s1 10 13 35s41 75 99 75s66 -47 66 -47s33 43 88 43c43 0 80 -40 80 -96c0 -104 -63 -192 -146 -192c-37 0 -60 17 -71 47 c0 -1 -50 -166 -50 -166s-1 -3 -1 -5c0 -4 5 -10 23 -10c24 0 31 -5 31 -13s-7 -13 -31 -13h-142c-24 0 -31 5 -31 13zM139 61c0 -21 15 -34 33 -34c71 0 98 90 98 151c0 23 -12 44 -32 44c-15 0 -36 -1 -61 -35zM274 -167c0 8 7 13 31 13c22 0 28 19 28 19l102 338 s5 17 5 23c0 7 -3 11 -11 11c-22 0 -47 -37 -57 -59s-13 -24 -18 -24s-8 3 -8 8s1 10 13 35s41 75 99 75s66 -47 66 -47s33 43 88 43c43 0 80 -40 80 -96c0 -104 -63 -192 -146 -192c-37 0 -60 17 -71 47c0 -1 -50 -166 -50 -166s-1 -3 -1 -5c0 -4 5 -10 23 -10 c24 0 31 -5 31 -13s-7 -13 -31 -13h-142c-24 0 -31 5 -31 13zM485 61c0 -21 15 -34 33 -34c71 0 98 90 98 151c0 23 -12 44 -32 44c-15 0 -36 -1 -61 -35z" />
      </symbol>
      <symbol id="E262-1tmlnms" viewBox="0 0 1000 1000" overflow="inherit">
         <path transform="scale(1,-1)" d="M0 64v65c0 13 15 18 15 18l39 10v181s0 14 15 14s15 -14 15 -14v-174l68 17v181s0 14 15 14s15 -14 15 -14v-174s36 10 39 10c6 0 12 -1 15 -10v-65c0 -13 -15 -18 -15 -18l-39 -10v-159s36 10 39 10c6 0 12 -1 15 -10v-65c0 -13 -15 -18 -15 -18l-39 -10v-181 s0 -14 -15 -14s-15 14 -15 14v174l-68 -17v-181s0 -14 -15 -14s-15 14 -15 14v174s-36 -10 -39 -10c-6 0 -12 1 -15 10v65c0 13 15 18 15 18l39 10v159s-36 -10 -39 -10c-6 0 -12 1 -15 10zM84 71v-159l68 17v159z" />
      </symbol>
      <symbol id="E4A2-1tmlnms" viewBox="0 0 1000 1000" overflow="inherit">
         <path transform="scale(1,-1)" d="M0 50c0 28 22 50 50 50s50 -22 50 -50s-22 -50 -50 -50s-50 22 -50 50z" />
      </symbol>
      <symbol id="E4E4-1tmlnms" viewBox="0 0 1000 1000" overflow="inherit">
         <path transform="scale(1,-1)" d="M0 10v105c0 6 4 10 10 10h310c6 0 10 -4 10 -10v-105c0 -6 -4 -10 -10 -10h-310c-6 0 -10 4 -10 10z" />
      </symbol>
      <symbol id="E4E5-1tmlnms" viewBox="0 0 1000 1000" overflow="inherit">
         <path transform="scale(1,-1)" d="M0 -188c0 58 52 87 110 87c14 0 48 -6 48 -6s-145 124 -145 135c0 4 0 6 7 13c46 50 61 117 61 175c0 50 -15 95 -47 127c-4 4 -6 8 -6 12c0 5 4 10 12 10c12 0 176 -110 176 -155c0 -19 -12 -52 -29 -85s-32 -71 -32 -98c0 -58 20 -115 43 -135s24 -24 24 -29 c0 -7 -5 -13 -13 -13c-5 0 -13 2 -16 3s-11 2 -17 2c-18 0 -32 -5 -46 -14c-31 -21 -45 -52 -45 -85s14 -67 43 -96c6 -6 8 -9 8 -14s-5 -9 -10 -9s-8 1 -14 5c-69 46 -112 106 -112 170z" />
      </symbol>
      <symbol id="E4E6-1tmlnms" viewBox="0 0 1000 1000" overflow="inherit">
         <path transform="scale(1,-1)" d="M0 124c0 42 34 76 76 76s76 -34 76 -76c0 -19 -7 -37 -19 -50c43 12 75 42 93 86c3 8 9 11 16 11s14 -6 14 -15c0 0 0 -3 -1 -6l-107 -363c-3 -8 -9 -11 -16 -11s-14 6 -14 15c0 0 0 3 1 6l82 278c-31 -20 -62 -36 -97 -36c-56 0 -104 34 -104 85z" />
      </symbol>
   </defs>
   <style type="text/css">g.page-margin{font-family:Times;} g.ending, g.fing, g.reh, g.tempo{font-weight:bold;} g.dir, g.dynam, g.mNum{font-style:italic;} g.label{font-weight:normal;}</style>
   <svg class="definition-scale" color="black" viewBox="0 0 7880 6120">
      <g class="page-margin" transform="translate(500, 500)">
         <g id="mofeave" class="mdiv pageMilestone" />
         <g id="s1iyp7q4" class="score pageMilestone" />
         <g id="s1st3n43" class="system">
            <path d="M13 344 L13 4219" stroke="currentColor" stroke-width="27" />
            <g id="g1clxbda" class="grpSym">
               <path d="M-72,4201 C-432,3661 18,3106 -252,2926 C81,3106 -369,3661 -72,4201" stroke="currentColor" stroke-linecap="round" stroke-linejoin="round" stroke-width="18" />
               <path d="M-72,1650 C-369,2190 81,2746 -252,2926 C18,2746 -432,2190 -72,1650" stroke="currentColor" stroke-linecap="round" stroke-linejoin="round" stroke-width="18" />
            </g>
            <g id="sgu5oqx" class="section systemMilestone" />
            <g id="m14wfeyo" class="measure upbeat">
               <g id="s1bdcyhd" class="staff">
                  <path d="M0 344 L2636 344" stroke="currentColor" stroke-width="10" />
                  <path d="M0 479 L2636 479" stroke="currentColor" stroke-width="10" />
                  <path d="M0 614 L2636 614" stroke="currentColor" stroke-width="10" />
                  <path d="M0 749 L2636 749" stroke="currentColor" stroke-width="10" />
                  <path d="M0 884 L2636 884" stroke="currentColor" stroke-width="10" />
                  <g id="cgmxpr4" class="clef">
                     <use xlink:href="#E050-1tmlnms" x="117" y="749" height="540px" width="540px" />
                  </g>
                  <g id="k1vwvu7x" class="keySig">
                     <g id="k12ngdt0" class="keyAccid">
                        <use xlink:href="#E262-1tmlnms" x="775" y="344" height="540px" width="540px" />
                     </g>
                  </g>
                  <g id="m1vfc1y2" class="meterSig">
                     <use xlink:href="#E084-1tmlnms" x="1124" y="477" height="540px" width="540px" />
                     <use xlink:href="#E084-1tmlnms" x="1124" y="747" height="540px" width="540px" />
                  </g>
                  <g id="l1rat1db" class="layer">
                     <g id="b98jkv0" class="beam">
                        <polygon points="1828,411 2343,344 2343,411 1828,478" />
                        <g id="note-0000000827838925" class="note">
                           <g class="notehead">
                              <use xlink:href="#E0A4-1tmlnms" x="1670" y="880" height="540px" width="540px" />
                           </g>
                           <g id="sxdlbbv" class="stem">
                              <rect x="1828" y="424" height="434" width="12" />
                           </g>
                           <g id="vgasdi" class="verse">
                              <g id="ssf3yhn" class="syl">
                                 <text x="1603" y="1251" font-size="0px">
                                    <tspan id="t1izqxrx" class="text">
                                       <tspan font-size="303px" class="text">Die</tspan>
                                    </tspan>
                                 </text>
                              </g>
                           </g>
                        </g>
                        <g id="note-0000000349216146" class="note">
                           <g class="notehead">
                              <use xlink:href="#E0A4-1tmlnms" x="2173" y="813" height="540px" width="540px" />
                           </g>
                           <g id="sf4gv8" class="stem">
                              <rect x="2331" y="357" height="434" width="12" />
                           </g>
                           <g id="axr2pab" class="accid" />
                           <g id="v1bsvfwi" class="verse">
                              <g id="s14x8zye" class="syl">
                                 <text x="2106" y="1251" font-size="0px">
                                    <tspan id="tgy9adu" class="text">
                                       <tspan font-size="303px" class="text">zwei</tspan>
                                    </tspan>
                                 </text>
                              </g>
                           </g>
                        </g>
                     </g>
                  </g>
               </g>
               <g id="s1mqtxaf" class="staff">
                  <path d="M0 1632 L2636 1632" stroke="currentColor" stroke-width="13" />
                  <path d="M0 1812 L2636 1812" stroke="currentColor" stroke-width="13" />
                  <path d="M0 1992 L2636 1992" stroke="currentColor" stroke-width="13" />
                  <path d="M0 2172 L2636 2172" stroke="currentColor" stroke-width="13" />
                  <path d="M0 2352 L2636 2352" stroke="currentColor" stroke-width="13" />
                  <g id="c1gyy5pq" class="clef">
                     <use xlink:href="#E050-1tmlnms" x="117" y="2172" height="720px" width="720px" />
                  </g>
                  <g id="k1dpmn21" class="keySig">
                     <g id="kry208m" class="keyAccid">
                        <use xlink:href="#E262-1tmlnms" x="775" y="1632" height="720px" width="720px" />
                     </g>
                  </g>
                  <g id="m15yi9vo" class="meterSig">
                     <use xlink:href="#E084-1tmlnms" x="1124" y="1812" height="720px" width="720px" />
                     <use xlink:href="#E084-1tmlnms" x="1124" y="2172" height="720px" width="720px" />
                  </g>
                  <g class="ledgerLines below">
                     <path d="M1622 2532 L1944 2532" stroke="currentColor" stroke-width="22" />
                     <path d="M2125 2532 L2447 2532" stroke="currentColor" stroke-width="22" />
                     <path d="M1622 2712 L1944 2712" stroke="currentColor" stroke-width="22" />
                  </g>
                  <g id="l1cnlkgx" class="layer">
                     <g id="b1nggog2" class="beam">
                        <polygon points="1878,1632 2399,1587 2399,1677 1878,1722" />
                        <g id="csczvxs" class="chord">
                           <g id="s15c8ys" class="stem">
                              <rect x="1878" y="1650" height="1122" width="18" />
                           </g>
                           <g id="d1e284" class="note">
                              <g class="notehead">
                                 <use xlink:href="#E0A4-1tmlnms" x="1670" y="2802" height="720px" width="720px" />
                              </g>
                           </g>
                           <g id="n17z5882" class="note">
                              <g class="notehead">
                                 <use xlink:href="#E0A4-1tmlnms" x="1670" y="2352" height="720px" width="720px" />
                              </g>
                           </g>
                        </g>
                        <g id="c6f4w53" class="chord">
                           <g id="s1lauu5n" class="stem">
                              <rect x="2381" y="1605" height="987" width="18" />
                           </g>
                           <g id="d1e323" class="note">
                              <g class="notehead">
                                 <use xlink:href="#E0A4-1tmlnms" x="2173" y="2622" height="720px" width="720px" />
                              </g>
                           </g>
                           <g id="n1pqy0ah" class="note">
                              <g class="notehead">
                                 <use xlink:href="#E0A4-1tmlnms" x="2173" y="2262" height="720px" width="720px" />
                              </g>
                              <g id="aksi0ee" class="accid" />
                           </g>
                        </g>
                     </g>
                  </g>
               </g>
               <g id="s1ooq9rr" class="staff">
                  <path d="M0 3499 L2636 3499" stroke="currentColor" stroke-width="13" />
                  <path d="M0 3679 L2636 3679" stroke="currentColor" stroke-width="13" />
                  <path d="M0 3859 L2636 3859" stroke="currentColor" stroke-width="13" />
                  <path d="M0 4039 L2636 4039" stroke="currentColor" stroke-width="13" />
                  <path d="M0 4219 L2636 4219" stroke="currentColor" stroke-width="13" />
                  <g id="csgjzd3" class="clef">
                     <use xlink:href="#E062-1tmlnms" x="117" y="3679" height="720px" width="720px" />
                  </g>
                  <g id="k1c2ag19" class="keySig">
                     <g id="k1wmkh46" class="keyAccid">
                        <use xlink:href="#E262-1tmlnms" x="775" y="3679" height="720px" width="720px" />
                     </g>
                  </g>
                  <g id="mfxodwm" class="meterSig">
                     <use xlink:href="#E084-1tmlnms" x="1124" y="3679" height="720px" width="720px" />
                     <use xlink:href="#E084-1tmlnms" x="1124" y="4039" height="720px" width="720px" />
                  </g>
                  <g id="lq5805k" class="layer">
                     <g id="rt6ic1v" class="rest">
                        <use xlink:href="#E4E5-1tmlnms" x="1670" y="3859" height="720px" width="720px" />
                     </g>
                  </g>
               </g>
               <g id="dklwiu7" class="dynam">
                  <use xlink:href="#E52B-1tmlnms" x="1670" y="214" height="540px" width="540px" />
               </g>
               <g id="d16kt0gd" class="dynam">
                  <use xlink:href="#E52B-1tmlnms" x="1670" y="3325" height="720px" width="720px" />
               </g>
               <g id="s1tyxbl2" class="slur">
                  <path d="M1783,3004 C1912,3040 2205,2934 2284,2824 C2250,2981 1907,3104 1783,3004" stroke="currentColor" stroke-linecap="round" stroke-linejoin="round" stroke-width="9" />
               </g>
               <g id="bac1hyg" class="barLine">
                  <path d="M2623 344 L2623 880" stroke="currentColor" stroke-width="27" />
                  <path d="M2623 1632 L2623 2352" stroke="currentColor" stroke-width="27" />
                  <path d="M2623 3499 L2623 4219" stroke="currentColor" stroke-width="27" />
               </g>
            </g>
            <g id="mnn7dnl" class="measure">
               <g id="s119xcda" class="staff">
                  <path d="M2636 344 L6884 344" stroke="currentColor" stroke-width="10" />
                  <path d="M2636 479 L6884 479" stroke="currentColor" stroke-width="10" />
                  <path d="M2636 614 L6884 614" stroke="currentColor" stroke-width="10" />
                  <path d="M2636 749 L6884 749" stroke="currentColor" stroke-width="10" />
                  <path d="M2636 884 L6884 884" stroke="currentColor" stroke-width="10" />
                  <g id="l139y94b" class="layer">
                     <g id="bq10l1g" class="beam">
                        <polygon points="3030,311 3688,311 3688,378 3030,378" />
                        <polygon points="3518,411 3688,411 3688,478 3518,478" />
                        <g id="d1e379" class="note">
                           <g class="notehead">
                              <use xlink:href="#E0A4-1tmlnms" x="2872" y="746" height="540px" width="540px" />
                           </g>
                           <g id="d1wi7iqu" class="dots">
                              <ellipse cx="3109" cy="683" rx="27" ry="27" />
                           </g>
                           <g id="sxhj860" class="stem">
                              <rect x="3030" y="324" height="400" width="12" />
                           </g>
                           <g id="v121jl3y" class="verse">
                              <g id="sg93si7" class="syl">
                                 <text x="2746" y="1251" font-size="0px">
                                    <tspan id="t1lg4s5s" class="text">
                                       <tspan font-size="303px" class="text">blau-</tspan>
                                    </tspan>
                                 </text>
                              </g>
                           </g>
                        </g>
                        <g id="d1e401" class="note">
                           <g class="notehead">
                              <use xlink:href="#E0A4-1tmlnms" x="3518" y="746" height="540px" width="540px" />
                           </g>
                           <g id="sua5nsa" class="stem">
                              <rect x="3676" y="324" height="400" width="12" />
                           </g>
                           <g id="v1n4w1ah" class="verse">
                              <g id="s1cfx5yx" class="syl">
                                 <text x="3451" y="1251" font-size="0px">
                                    <tspan id="t1rhgueb" class="text">
                                       <tspan font-size="303px" class="text">en</tspan>
                                    </tspan>
                                 </text>
                              </g>
                           </g>
                        </g>
                     </g>
                     <g id="b1wzfbeu" class="beam">
                        <polygon points="4043,311 4598,311 4598,378 4043,378" />
                        <g id="d1e424" class="note">
                           <g class="notehead">
                              <use xlink:href="#E0A4-1tmlnms" x="3885" y="746" height="540px" width="540px" />
                           </g>
                           <g id="siftuch" class="stem">
                              <rect x="4043" y="324" height="400" width="12" />
                           </g>
                           <g id="v1ojoeo3" class="verse">
                              <g id="sd5arr7" class="syl">
                                 <text x="3818" y="1251" font-size="0px">
                                    <tspan id="t1h096w" class="text">
                                       <tspan font-size="303px" class="text">Au-</tspan>
                                    </tspan>
                                 </text>
                              </g>
                           </g>
                        </g>
                        <g id="d1e445" class="note">
                           <g class="notehead">
                              <use xlink:href="#E0A4-1tmlnms" x="4428" y="746" height="540px" width="540px" />
                           </g>
                           <g id="s1ftaw50" class="stem">
                              <rect x="4586" y="324" height="400" width="12" />
                           </g>
                           <g id="vrsqe2h" class="verse">
                              <g id="sw9wnwe" class="syl">
                                 <text x="4361" y="1251" font-size="0px">
                                    <tspan id="tztg62o" class="text">
                                       <tspan font-size="303px" class="text">gen</tspan>
                                    </tspan>
                                 </text>
                              </g>
                           </g>
                        </g>
                     </g>
                     <g id="r1ccv3ns" class="rest">
                        <use xlink:href="#E4E6-1tmlnms" x="4822" y="612" height="540px" width="540px" />
                     </g>
                     <g id="bo17tus" class="beam">
                        <polygon points="5486,277 6585,344 6585,411 5486,344" />
                        <g id="d1e474" class="note">
                           <g class="notehead">
                              <use xlink:href="#E0A4-1tmlnms" x="5328" y="746" height="540px" width="540px" />
                           </g>
                           <g id="s81ugbw" class="stem">
                              <rect x="5486" y="290" height="434" width="12" />
                           </g>
                           <g id="v1ywc6zn" class="verse">
                              <g id="s1dz2926" class="syl">
                                 <text x="5175" y="1251" font-size="0px">
                                    <tspan id="tk5mgq5" class="text">
                                       <tspan font-size="303px" class="text">von</tspan>
                                    </tspan>
                                 </text>
                              </g>
                           </g>
                        </g>
                        <g id="d1e495" class="note">
                           <g class="notehead">
                              <use xlink:href="#E0A4-1tmlnms" x="5778" y="880" height="540px" width="540px" />
                           </g>
                           <g id="s101r7zc" class="stem">
                              <rect x="5936" y="318" height="540" width="12" />
                           </g>
                           <g id="v1awaq6x" class="verse">
                              <g id="s17x6uex" class="syl">
                                 <text x="5711" y="1251" font-size="0px">
                                    <tspan id="t1iw9lto" class="text">
                                       <tspan font-size="303px" class="text">mei-</tspan>
                                    </tspan>
                                 </text>
                              </g>
                           </g>
                        </g>
                        <g id="d1e516" class="note">
                           <g class="notehead">
                              <use xlink:href="#E0A4-1tmlnms" x="6415" y="813" height="540px" width="540px" />
                           </g>
                           <g id="sakp5ii" class="stem">
                              <rect x="6573" y="357" height="434" width="12" />
                           </g>
                           <g id="a1hzelb6" class="accid" />
                           <g id="vl0z2fa" class="verse">
                              <g id="siykde3" class="syl">
                                 <text x="6348" y="1251" font-size="0px">
                                    <tspan id="t1ollcgz" class="text">
                                       <tspan font-size="303px" class="text">nem</tspan>
                                    </tspan>
                                 </text>
                              </g>
                           </g>
                        </g>
                     </g>
                  </g>
               </g>
               <g id="s1v9dx81" class="staff">
                  <path d="M2636 1632 L6884 1632" stroke="currentColor" stroke-width="13" />
                  <path d="M2636 1812 L6884 1812" stroke="currentColor" stroke-width="13" />
                  <path d="M2636 1992 L6884 1992" stroke="currentColor" stroke-width="13" />
                  <path d="M2636 2172 L6884 2172" stroke="currentColor" stroke-width="13" />
                  <path d="M2636 2352 L6884 2352" stroke="currentColor" stroke-width="13" />
                  <g class="ledgerLines below">
                     <path d="M2768 2532 L3090 2532" stroke="currentColor" stroke-width="22" />
                     <path d="M3415 2532 L3735 2532" stroke="currentColor" stroke-width="22" />
                     <path d="M3783 2532 L4103 2532" stroke="currentColor" stroke-width="22" />
                     <path d="M5674 2532 L5996 2532" stroke="currentColor" stroke-width="22" />
                     <path d="M6311 2532 L6633 2532" stroke="currentColor" stroke-width="22" />
                  </g>
                  <g id="llf153h" class="layer">
                     <g id="bel7myc" class="beam">
                        <polygon points="3024,1587 3688,1587 3688,1677 3024,1677" />
                        <polygon points="3461,1722 3688,1722 3688,1812 3461,1812" />
                        <g id="c10w7hnc" class="chord">
                           <g id="d1f5pj7w" class="dots">
                              <ellipse cx="3132" cy="2622" rx="36" ry="36" />
                              <ellipse cx="3132" cy="2262" rx="36" ry="36" />
                              <ellipse cx="3132" cy="2082" rx="36" ry="36" />
                           </g>
                           <g id="s1056jli" class="stem">
                              <rect x="3024" y="1605" height="987" width="18" />
                           </g>
                           <g id="ahdswft" class="artic">
                              <use xlink:href="#E4A2-1tmlnms" x="2997" y="1556" height="720px" width="720px" />
                           </g>
                           <g id="d1e540" class="note">
                              <g class="notehead">
                                 <use xlink:href="#E0A4-1tmlnms" x="2816" y="2622" height="720px" width="720px" />
                              </g>
                           </g>
                           <g id="nldtpoz" class="note">
                              <g class="notehead">
                                 <use xlink:href="#E0A4-1tmlnms" x="2816" y="2352" height="720px" width="720px" />
                              </g>
                           </g>
                           <g id="n1ghkt4n" class="note">
                              <g class="notehead">
                                 <use xlink:href="#E0A4-1tmlnms" x="2816" y="2172" height="720px" width="720px" />
                              </g>
                           </g>
                        </g>
                        <g id="cq6j790" class="chord">
                           <g id="swlqfev" class="stem">
                              <rect x="3670" y="1605" height="987" width="18" />
                           </g>
                           <g id="a1lzsm52" class="artic">
                              <use xlink:href="#E4A2-1tmlnms" x="3643" y="1556" height="720px" width="720px" />
                           </g>
                           <g id="n7sbbn3" class="note">
                              <g class="notehead">
                                 <use xlink:href="#E0A4-1tmlnms" x="3462" y="2622" height="720px" width="720px" />
                              </g>
                           </g>
                           <g id="nkbpljh" class="note">
                              <g class="notehead">
                                 <use xlink:href="#E0A4-1tmlnms" x="3462" y="2352" height="720px" width="720px" />
                              </g>
                           </g>
                           <g id="n103dvdx" class="note">
                              <g class="notehead">
                                 <use xlink:href="#E0A4-1tmlnms" x="3462" y="2172" height="720px" width="720px" />
                              </g>
                           </g>
                        </g>
                     </g>
                     <g id="cmpk8uc" class="chord">
                        <g id="s3mft1a" class="stem">
                           <rect x="4023" y="1542" height="1050" width="18" />
                        </g>
                        <g id="a14z1cyp" class="artic">
                           <use xlink:href="#E4A2-1tmlnms" x="4010" y="1511" height="720px" width="720px" />
                        </g>
                        <g id="d1e656" class="note">
                           <g class="notehead">
                              <use xlink:href="#E0A4-1tmlnms" x="3830" y="2622" height="720px" width="720px" />
                           </g>
                        </g>
                        <g id="n1m56sg8" class="note">
                           <g class="notehead">
                              <use xlink:href="#E0A4-1tmlnms" x="3830" y="2352" height="720px" width="720px" />
                           </g>
                        </g>
                        <g id="n2bsxkr" class="note">
                           <g class="notehead">
                              <use xlink:href="#E0A4-1tmlnms" x="3830" y="2172" height="720px" width="720px" />
                           </g>
                        </g>
                     </g>
                     <g id="rnjbi3t" class="rest">
                        <use xlink:href="#E4E5-1tmlnms" x="4822" y="1992" height="720px" width="720px" />
                     </g>
                     <g id="b1ehqiui" class="beam">
                        <polygon points="5930,1722 6585,1632 6585,1722 5930,1812" />
                        <g id="c1ttwpdv" class="chord">
                           <g id="szp62ag" class="stem">
                              <rect x="5930" y="1740" height="762" width="18" />
                           </g>
                           <g id="a1y4vnu5" class="artic">
                              <use xlink:href="#E4A2-1tmlnms" x="5903" y="1668" height="720px" width="720px" />
                           </g>
                           <g id="d1e720" class="note">
                              <g class="notehead">
                                 <use xlink:href="#E0A4-1tmlnms" x="5722" y="2532" height="720px" width="720px" />
                              </g>
                           </g>
                           <g id="nz3zxje" class="note">
                              <g class="notehead">
                                 <use xlink:href="#E0A4-1tmlnms" x="5722" y="2352" height="720px" width="720px" />
                              </g>
                           </g>
                        </g>
                        <g id="c1ymybtg" class="chord">
                           <g id="s10rfdq6" class="stem">
                              <rect x="6567" y="1650" height="942" width="18" />
                           </g>
                           <g id="a1amv6lc" class="artic">
                              <use xlink:href="#E4A2-1tmlnms" x="6540" y="1601" height="720px" width="720px" />
                           </g>
                           <g id="d1e760" class="note">
                              <g class="notehead">
                                 <use xlink:href="#E0A4-1tmlnms" x="6359" y="2622" height="720px" width="720px" />
                              </g>
                           </g>
                           <g id="n1tqs5k1" class="note">
                              <g class="notehead">
                                 <use xlink:href="#E0A4-1tmlnms" x="6359" y="2262" height="720px" width="720px" />
                              </g>
                              <g id="afvjwk8" class="accid" />
                           </g>
                        </g>
                     </g>
                  </g>
               </g>
               <g id="s2gz99e" class="staff">
                  <path d="M2636 3499 L6884 3499" stroke="currentColor" stroke-width="13" />
                  <path d="M2636 3679 L6884 3679" stroke="currentColor" stroke-width="13" />
                  <path d="M2636 3859 L6884 3859" stroke="currentColor" stroke-width="13" />
                  <path d="M2636 4039 L6884 4039" stroke="currentColor" stroke-width="13" />
                  <path d="M2636 4219 L6884 4219" stroke="currentColor" stroke-width="13" />
                  <g class="ledgerLines below">
                     <path d="M2769 4399 L3091 4399" stroke="currentColor" stroke-width="22" />
                     <path d="M2769 4579 L3091 4579" stroke="currentColor" stroke-width="22" />
                     <path d="M2769 4759 L3091 4759" stroke="currentColor" stroke-width="22" />
                     <path d="M2769 4939 L3091 4939" stroke="currentColor" stroke-width="22" />
                  </g>
                  <g id="l4lpgnw" class="layer">
                     <g id="clj6mu4" class="chord">
                        <g id="s12jgkii" class="stem">
                           <rect x="3010" y="3769" height="1230" width="18" />
                        </g>
                        <g id="n1sz1pqp" class="note">
                           <g class="notehead">
                              <use xlink:href="#E0A4-1tmlnms" x="2817" y="5029" height="720px" width="720px" />
                           </g>
                        </g>
                        <g id="neswspi" class="note">
                           <g class="notehead">
                              <use xlink:href="#E0A4-1tmlnms" x="2817" y="4399" height="720px" width="720px" />
                           </g>
                        </g>
                     </g>
                     <g id="czo6rky" class="chord">
                        <g id="s1a71h8d" class="stem">
                           <rect x="3829" y="3619" height="960" width="18" />
                        </g>
                        <g id="n4lzrg7" class="note">
                           <g class="notehead">
                              <use xlink:href="#E0A4-1tmlnms" x="3829" y="4039" height="720px" width="720px" />
                           </g>
                        </g>
                        <g id="n8sexjs" class="note">
                           <g class="notehead">
                              <use xlink:href="#E0A4-1tmlnms" x="3829" y="3769" height="720px" width="720px" />
                           </g>
                        </g>
                        <g id="n1i1r7gn" class="note">
                           <g class="notehead">
                              <use xlink:href="#E0A4-1tmlnms" x="3829" y="3589" height="720px" width="720px" />
                           </g>
                        </g>
                     </g>
                     <g id="r113s2l4" class="rest">
                        <use xlink:href="#E4E4-1tmlnms" x="4822" y="3859" height="720px" width="720px" />
                        <g class="ledgerLines" />
                     </g>
                  </g>
               </g>
               <g id="dhz45d2" class="dynam">
                  <use xlink:href="#E520-1tmlnms" x="5272" y="147" height="540px" width="540px" />
               </g>
               <g id="d1qe4yq5" class="dynam">
                  <use xlink:href="#E520-1tmlnms" x="5722" y="3131" height="720px" width="720px" />
               </g>
               <g id="s11uqvvd" class="slur">
                  <path d="M2929,2824 C3165,2998 3706,2998 3943,2824 C3729,3056 3142,3056 2929,2824" stroke="currentColor" stroke-linecap="round" stroke-linejoin="round" stroke-width="9" />
               </g>
               <g id="spabx3h" class="slur">
                  <path d="M5835,2734 C5954,2851 6320,2903 6470,2822 C6337,2963 5921,2905 5835,2734" stroke="currentColor" stroke-linecap="round" stroke-linejoin="round" stroke-width="9" />
               </g>
               <g id="b1cspprd" class="barLine">
                  <path d="M6871 344 L6871 880" stroke="currentColor" stroke-width="27" />
                  <path d="M6871 1632 L6871 2352" stroke="currentColor" stroke-width="27" />
                  <path d="M6871 3499 L6871 4219" stroke="currentColor" stroke-width="27" />
               </g>
            </g>
            <g id="s1mbayo8" class="systemMilestoneEnd sgu5oqx" />
         </g>
         <g id="p1h6gmlp" class="pageMilestoneEnd s1iyp7q4" />
         <g id="p151d2be" class="pageMilestoneEnd mofeave" />
      </g>
   </svg>
</svg>
