<svg width="902px" height="152px" version="1.1" xmlns="http://www.w3.org/2000/svg" xmlns:xlink="http://www.w3.org/1999/xlink" overflow="visible" id="l19nj5e9">
   <desc>Engraved by Verovio 6.0.0-9dac18a</desc>
   <defs>
      <g id="E050-l19nj5e9">
         <path transform="scale(1,-1)" d="M376 415l25 -145c3 -18 3 -18 29 -18c147 0 241 -113 241 -241c0 -113 -67 -198 -168 -238c-14 -6 -15 -5 -13 -17c11 -62 29 -157 29 -214c0 -170 -130 -200 -197 -200c-151 0 -190 98 -190 163c0 62 40 115 107 115c61 0 96 -47 96 -102c0 -58 -36 -85 -67 -94 c-23 -7 -32 -10 -32 -17c0 -13 26 -29 80 -29c59 0 159 18 159 166c0 47 -15 134 -27 201c-2 12 -4 11 -15 9c-20 -4 -46 -6 -69 -6c-245 0 -364 165 -364 339c0 202 153 345 297 464c12 10 11 12 9 24c-7 41 -14 106 -14 164c0 104 24 229 98 311c20 22 51 48 65 48 c11 0 37 -28 52 -50c41 -60 65 -146 65 -233c0 -153 -82 -280 -190 -381c-6 -6 -8 -7 -6 -19zM470 943c-61 0 -133 -96 -133 -252c0 -32 2 -66 6 -92c2 -13 6 -14 13 -8c79 69 174 159 174 270c0 55 -27 82 -60 82zM361 262l-21 128c-2 11 -4 12 -14 4 c-47 -38 -93 -75 -153 -142c-83 -94 -93 -173 -93 -232c0 -139 113 -236 288 -236c20 0 40 2 56 5c15 3 16 3 14 14l-50 298c-2 11 -4 12 -20 8c-61 -17 -100 -60 -100 -117c0 -46 30 -89 72 -107c7 -3 15 -6 15 -13c0 -6 -4 -11 -12 -11c-7 0 -19 3 -27 6 c-68 23 -115 87 -115 177c0 85 57 164 145 194c18 6 18 5 15 24zM430 103l49 -285c2 -12 4 -12 16 -6c56 28 94 79 94 142c0 88 -67 156 -148 163c-12 1 -13 -2 -11 -14z" />
      </g>
      <g id="E0A4-l19nj5e9">
         <path transform="scale(1,-1)" d="M97 -125c-54 0 -97 31 -97 83c0 86 88 167 198 167c57 0 97 -32 97 -83c0 -85 -109 -167 -198 -167z" />
      </g>
      <g id="E4A1-l19nj5e9">
         <path transform="scale(1,-1)" d="M326 -140l-306 -103c-1 -1 -3 -1 -4 -1c-7 0 -11 8 -14 15c-1 3 -2 6 -2 9c0 5 3 10 14 15c0 0 214 73 225 76c6 2 8 4 8 7s-2 6 -7 7c-10 4 -226 77 -226 77c-11 4 -14 9 -14 14c0 3 1 6 2 10c3 8 6 14 15 14c1 0 5 -1 9 -2l300 -102c13 -4 13 -10 13 -18s0 -15 -13 -18 z" />
      </g>
      <g id="ED41-l19nj5e9">
         <path transform="scale(1,-1)" d="M695 -141l-306 -103c-1 -1 -3 -1 -4 -1c-7 0 -11 8 -14 15c-1 3 -2 6 -2 9c0 5 3 10 14 15c0 0 214 73 225 76c6 2 8 4 8 7s-2 6 -7 7c-10 4 -226 77 -226 77c-11 4 -14 9 -14 14c0 3 1 6 2 10c3 8 6 14 15 14c1 0 5 -1 9 -2l300 -102c13 -4 13 -10 13 -18s0 -15 -13 -18 zM319 -244l-306 103c-13 3 -13 10 -13 18s0 14 13 18l300 102c4 1 8 2 9 2c9 0 12 -6 15 -14c1 -4 2 -7 2 -10c0 -5 -3 -10 -14 -14c0 0 -216 -73 -226 -77c-5 -1 -7 -4 -7 -7s2 -5 8 -7c11 -3 225 -76 225 -76c11 -5 14 -10 14 -15c0 -3 -1 -6 -2 -9c-3 -7 -7 -15 -14 -15 c-1 0 -3 0 -4 1z" />
      </g>
      <g id="E4A5-l19nj5e9">
         <path transform="scale(1,-1)" d="M314 -48h-291c-24 0 -24 11 -24 24s0 24 24 24h291c24 0 24 -11 24 -24s-1 -24 -24 -24z" />
      </g>
      <g id="E4A9-l19nj5e9">
         <path transform="scale(1,-1)" d="M1 -287c17 42 35 185 37 284c0 3 6 3 7 3s7 0 7 -3c2 -98 20 -241 37 -284c0 -1 0 -3 -2 -3c-1 0 -22 4 -42 4c-21 0 -41 -4 -42 -4c-2 0 -2 1 -2 3z" />
      </g>
      <g id="E4AC-l19nj5e9">
         <path transform="scale(1,-1)" d="M126 247l108 -231c1 -1 1 -3 1 -5c0 -6 -4 -10 -11 -11h-68c-4 0 -8 2 -11 6c0 0 -56 119 -57 123c-2 2 -4 3 -6 3s-3 -1 -4 -3c-2 -4 -56 -123 -56 -123c-2 -5 -7 -7 -11 -7c-1 0 -4 0 -5 1c-5 1 -7 6 -7 11c0 2 0 3 1 5l106 231s3 6 10 6c4 0 7 -2 10 -6z" />
      </g>
      <g id="E4A3-l19nj5e9">
         <path transform="scale(1,-1)" d="M84 -42c0 -23 -19 -42 -42 -42s-42 19 -42 42s19 42 42 42s42 -19 42 -42z" />
      </g>
      <g id="E4A7-l19nj5e9">
         <path transform="scale(1,-1)" d="M50 -295c-26 0 -48 9 -49 22c0 15 26 273 49 273c25 0 50 -249 50 -272c0 -15 -23 -23 -50 -23z" />
      </g>
      <g id="E610-l19nj5e9">
         <path transform="scale(1,-1)" d="M26 318h260c14 0 26 -12 26 -26v-280c0 -7 -6 -12 -12 -12h-13c-7 0 -13 5 -13 12v164c0 11 -59 17 -118 17s-118 -6 -118 -17v-164c0 -7 -6 -12 -12 -12h-14c-6 0 -12 5 -12 12v280c0 14 12 26 26 26z" />
      </g>
      <g id="E612-l19nj5e9">
         <path transform="scale(1,-1)" d="M126 1c-10 0 -17 6 -19 14l-105 459c-1 2 -1 3 -1 5c0 7 6 14 14 16h4c8 0 15 -5 18 -13l88 -385l89 385c2 8 9 13 17 13h4c9 -2 14 -9 14 -17v-4l-106 -459c-2 -8 -9 -14 -17 -14z" />
      </g>
      <g id="E614-l19nj5e9">
         <path transform="scale(1,-1)" d="M200 100c0 -55 -45 -100 -100 -100s-100 45 -100 100c0 56 45 100 100 100s100 -44 100 -100zM100 173c-40 0 -73 -32 -73 -73c0 -40 33 -73 73 -73c41 0 73 33 73 73c0 41 -32 73 -73 73z" />
      </g>
      <g id="E631-l19nj5e9">
         <path transform="scale(1,-1)" d="M0 100c0 49 36 91 84 98v102h32v-102c47 -7 84 -49 84 -98c0 -56 -45 -100 -100 -100s-100 44 -100 100zM84 171c-33 -7 -57 -37 -57 -71c0 -41 32 -73 73 -73c40 0 73 32 73 73c0 34 -25 64 -57 71v-71h-32v71z" />
      </g>
      <g id="E633-l19nj5e9">
         <path transform="scale(1,-1)" d="M272 152v-32h-120v-120h-32v120h-120v32h120v120h32v-120h120z" />
      </g>
      <g id="E5E7-l19nj5e9">
         <path transform="scale(1,-1)" d="M152 0c-84 0 -152 68 -152 152s68 152 152 152s152 -68 152 -152s-68 -152 -152 -152zM152 272c-66 0 -120 -54 -120 -120s54 -120 120 -120s120 54 120 120s-54 120 -120 120z" />
      </g>
      <g id="E5E5-l19nj5e9">
         <path transform="scale(1,-1)" d="M272 152v-32h-120v-120h-32v120h-120v32h120v120h32v-120h120z" />
      </g>
      <g id="E4AB-l19nj5e9">
         <path transform="scale(1,-1)" d="M48 -9v-272c0 -5 -4 -9 -9 -9h-30c-5 0 -9 4 -9 9v272c0 5 4 9 9 9h30c5 0 9 -4 9 -9z" />
      </g>
   </defs>
   <style type="text/css">g.ending, g.fing, g.reh, g.tempo {font-weight:bold;} g.dir, g.dynam, g.mNum {font-style:italic;}g.label {font-weight:normal;} ellipse, path, polygon, polyline, rect {stroke:currentColor} </style>
   <svg class="definition-scale" color="black" font-family="Times, serif" viewBox="0 0 15030 2530">
      <g class="page-margin" transform="translate(500, 500)">
         <g id="moqsi69" class="mdiv pageMilestone" />
         <g id="njft1g2" class="score pageMilestone" />
         <g id="vyt4ad" class="system">
            <g id="a6ug31v" class="section systemMilestone" />
            <g id="b1bcu6sn" class="measure">
               <g id="k1ffvwuh" class="staff">
                  <path d="M0 512 L3616 512" stroke-width="13" />
                  <path d="M0 692 L3616 692" stroke-width="13" />
                  <path d="M0 872 L3616 872" stroke-width="13" />
                  <path d="M0 1052 L3616 1052" stroke-width="13" />
                  <path d="M0 1232 L3616 1232" stroke-width="13" />
                  <g id="z18z7271" class="clef">
                     <use xlink:href="#E050-l19nj5e9" transform="translate(90, 1052) scale(0.72, 0.72)" />
                  </g>
                  <g id="a85g2or" class="keySig" />
                  <g id="lzosgrv" class="layer">
                     <g id="m1q84ocf" class="note">
                        <g class="notehead">
                           <use xlink:href="#E0A4-l19nj5e9" transform="translate(843, 1052) scale(0.72, 0.72)" />
                        </g>
                        <g id="e11izfdo" class="stem">
                           <path d="M1046 1022 L1046 422" stroke-width="18" />
                        </g>
                        <g id="n1gzuhvg" class="artic">
                           <use xlink:href="#E4A1-l19nj5e9" transform="translate(827, 1299) scale(0.72, 0.72)" />
                        </g>
                     </g>
                     <g id="o1vw1hrc" class="note">
                        <g class="notehead">
                           <use xlink:href="#E0A4-l19nj5e9" transform="translate(1533, 1052) scale(0.72, 0.72)" />
                        </g>
                        <g id="fqn9gl2" class="stem">
                           <path d="M1736 1022 L1736 422" stroke-width="18" />
                        </g>
                        <g id="p36inxr" class="artic">
                           <use xlink:href="#ED41-l19nj5e9" transform="translate(1385, 1299) scale(0.72, 0.72)" />
                        </g>
                     </g>
                     <g id="qa56g6u" class="note">
                        <g class="notehead">
                           <use xlink:href="#E0A4-l19nj5e9" transform="translate(2223, 1052) scale(0.72, 0.72)" />
                        </g>
                        <g id="goma0gm" class="stem">
                           <path d="M2426 1022 L2426 422" stroke-width="18" />
                        </g>
                        <g id="r4ks4fv" class="artic">
                           <use xlink:href="#E4A5-l19nj5e9" transform="translate(2207, 1305) scale(0.72, 0.72)" />
                        </g>
                     </g>
                     <g id="s147azdb" class="note">
                        <g class="notehead">
                           <use xlink:href="#E0A4-l19nj5e9" transform="translate(2913, 1052) scale(0.72, 0.72)" />
                        </g>
                        <g id="h1a2rmes" class="stem">
                           <path d="M3116 1022 L3116 422" stroke-width="18" />
                        </g>
                        <g id="t1kzq82m" class="artic">
                           <use xlink:href="#E4A9-l19nj5e9" transform="translate(2988, 1322) scale(0.72, 0.72)" />
                        </g>
                     </g>
                  </g>
               </g>
               <g id="j9ixwzy" class="barLine">
                  <path d="M3603 512 L3603 1232" stroke-width="27" />
               </g>
            </g>
            <g id="ushell2" class="measure">
               <g id="d1iiegxs" class="staff">
                  <path d="M3616 512 L6569 512" stroke-width="13" />
                  <path d="M3616 692 L6569 692" stroke-width="13" />
                  <path d="M3616 872 L6569 872" stroke-width="13" />
                  <path d="M3616 1052 L6569 1052" stroke-width="13" />
                  <path d="M3616 1232 L6569 1232" stroke-width="13" />
                  <g id="erbcoh7" class="layer">
                     <g id="fmlv5y5" class="note">
                        <g class="notehead">
                           <use xlink:href="#E0A4-l19nj5e9" transform="translate(3796, 1052) scale(0.72, 0.72)" />
                        </g>
                        <g id="i4vs11m" class="stem">
                           <path d="M3999 1022 L3999 422" stroke-width="18" />
                        </g>
                        <g id="g14xmp24" class="artic">
                           <use xlink:href="#E4AC-l19nj5e9" transform="translate(3818, 355) scale(0.72, 0.72)" />
                        </g>
                     </g>
                     <g id="hju2rxn" class="note">
                        <g class="notehead">
                           <use xlink:href="#E0A4-l19nj5e9" transform="translate(4486, 1052) scale(0.72, 0.72)" />
                        </g>
                        <g id="j1s8kxne" class="stem">
                           <path d="M4689 1022 L4689 422" stroke-width="18" />
                        </g>
                        <g id="izodm98" class="artic">
                           <use xlink:href="#E4A3-l19nj5e9" transform="translate(4562, 1292) scale(0.72, 0.72)" />
                        </g>
                     </g>
                     <g id="j1mj6nxn" class="note">
                        <g class="notehead">
                           <use xlink:href="#E0A4-l19nj5e9" transform="translate(5176, 1052) scale(0.72, 0.72)" />
                        </g>
                        <g id="k19a056m" class="stem">
                           <path d="M5379 1022 L5379 422" stroke-width="18" />
                        </g>
                        <g id="k1d0qcvg" class="artic">
                           <use xlink:href="#E4A7-l19nj5e9" transform="translate(5247, 1322) scale(0.72, 0.72)" />
                        </g>
                     </g>
                     <g id="leeh8fz" class="note">
                        <g class="notehead">
                           <use xlink:href="#E0A4-l19nj5e9" transform="translate(5866, 1052) scale(0.72, 0.72)" />
                        </g>
                        <g id="l1e7ub62" class="stem">
                           <path d="M6069 1022 L6069 422" stroke-width="18" />
                        </g>
                        <g id="m5odh2d" class="artic">
                           <use xlink:href="#E4A5-l19nj5e9" transform="translate(5850, 1305) scale(0.72, 0.72)" />
                        </g>
                     </g>
                  </g>
               </g>
               <g id="c1ahluu1" class="barLine">
                  <path d="M6556 512 L6556 1232" stroke-width="27" />
               </g>
            </g>
            <g id="yvzjjlx" class="systemMilestoneEnd a6ug31v" />
            <g id="n16gprxv" class="section systemMilestone" />
            <g id="o1w2vfrn" class="measure">
               <g id="xfggj11" class="staff">
                  <path d="M6569 512 L10212 512" stroke-width="13" />
                  <path d="M6569 692 L10212 692" stroke-width="13" />
                  <path d="M6569 872 L10212 872" stroke-width="13" />
                  <path d="M6569 1052 L10212 1052" stroke-width="13" />
                  <path d="M6569 1232 L10212 1232" stroke-width="13" />
                  <g id="y1waypqj" class="layer">
                     <g id="zfx25hn" class="note">
                        <g class="notehead">
                           <use xlink:href="#E0A4-l19nj5e9" transform="translate(6749, 1052) scale(0.72, 0.72)" />
                        </g>
                        <g id="mlwp7zq" class="stem">
                           <path d="M6952 1022 L6952 422" stroke-width="18" />
                        </g>
                        <g id="a3ie8ud" class="artic">
                           <use xlink:href="#E610-l19nj5e9" transform="translate(6743, 355) scale(0.72, 0.72)" />
                        </g>
                     </g>
                     <g id="b37hn12" class="note">
                        <g class="notehead">
                           <use xlink:href="#E0A4-l19nj5e9" transform="translate(7439, 1052) scale(0.72, 0.72)" />
                        </g>
                        <g id="nt9ronl" class="stem">
                           <path d="M7642 1022 L7642 422" stroke-width="18" />
                        </g>
                        <g id="c1kyp1ws" class="artic">
                           <use xlink:href="#E612-l19nj5e9" transform="translate(7456, 355) scale(0.72, 0.72)" />
                        </g>
                     </g>
                     <g id="d1eyoooy" class="note">
                        <g class="notehead">
                           <use xlink:href="#E0A4-l19nj5e9" transform="translate(8129, 1052) scale(0.72, 0.72)" />
                        </g>
                        <g id="o1awc8ol" class="stem">
                           <path d="M8332 1022 L8332 422" stroke-width="18" />
                        </g>
                        <g id="ewtw03u" class="artic">
                           <use xlink:href="#E614-l19nj5e9" transform="translate(8163, 355) scale(0.72, 0.72)" />
                        </g>
                     </g>
                     <g id="f12ecyql" class="note">
                        <g class="notehead">
                           <use xlink:href="#E0A4-l19nj5e9" transform="translate(8819, 1052) scale(0.72, 0.72)" />
                        </g>
                        <g id="p1ufntge" class="stem">
                           <path d="M9022 1022 L9022 422" stroke-width="18" />
                        </g>
                        <g id="gjwwkjn" class="artic">
                           <use xlink:href="#E631-l19nj5e9" transform="translate(8853, 355) scale(0.72, 0.72)" />
                        </g>
                     </g>
                     <g id="hzub3xf" class="note">
                        <g class="notehead">
                           <use xlink:href="#E0A4-l19nj5e9" transform="translate(9509, 1052) scale(0.72, 0.72)" />
                        </g>
                        <g id="qg6e4o" class="stem">
                           <path d="M9712 1022 L9712 422" stroke-width="18" />
                        </g>
                        <g id="izv1mc9" class="artic">
                           <use xlink:href="#E633-l19nj5e9" transform="translate(9518, 355) scale(0.72, 0.72)" />
                        </g>
                     </g>
                  </g>
               </g>
               <g id="wgj8qwy" class="barLine">
                  <path d="M10199 512 L10199 1232" stroke-width="27" />
               </g>
            </g>
            <g id="z4bj489" class="systemMilestoneEnd n16gprxv" />
            <g id="j14qhuvu" class="section systemMilestone" />
            <g id="k1dict13" class="measure">
               <g id="tmeaduc" class="staff">
                  <path d="M10212 512 L11785 512" stroke-width="13" />
                  <path d="M10212 692 L11785 692" stroke-width="13" />
                  <path d="M10212 872 L11785 872" stroke-width="13" />
                  <path d="M10212 1052 L11785 1052" stroke-width="13" />
                  <path d="M10212 1232 L11785 1232" stroke-width="13" />
                  <g id="u4oqxce" class="layer">
                     <g id="v1bpmbr1" class="note">
                        <g class="notehead">
                           <use xlink:href="#E0A4-l19nj5e9" transform="translate(10392, 1052) scale(0.72, 0.72)" />
                        </g>
                        <g id="rxq6cll" class="stem">
                           <path d="M10595 1022 L10595 422" stroke-width="18" />
                        </g>
                        <g id="w1m11mph" class="artic">
                           <use xlink:href="#E5E7-l19nj5e9" transform="translate(10389, 355) scale(0.72, 0.72)" />
                        </g>
                     </g>
                     <g id="x1oxd4nf" class="note">
                        <g class="notehead">
                           <use xlink:href="#E0A4-l19nj5e9" transform="translate(11082, 1052) scale(0.72, 0.72)" />
                        </g>
                        <g id="s1xjwapg" class="stem">
                           <path d="M11285 1022 L11285 422" stroke-width="18" />
                        </g>
                        <g id="y23h8om" class="artic">
                           <use xlink:href="#E5E5-l19nj5e9" transform="translate(11091, 355) scale(0.72, 0.72)" />
                        </g>
                     </g>
                  </g>
               </g>
               <g id="sqqgytg" class="barLine">
                  <path d="M11772 512 L11772 1232" stroke-width="27" />
               </g>
            </g>
            <g id="a1tqy1kq" class="systemMilestoneEnd j14qhuvu" />
            <g id="z16wv72r" class="section systemMilestone" />
            <g id="a1n0fw13" class="measure">
               <g id="jo3qcsy" class="staff">
                  <path d="M11785 512 L14035 512" stroke-width="13" />
                  <path d="M11785 692 L14035 692" stroke-width="13" />
                  <path d="M11785 872 L14035 872" stroke-width="13" />
                  <path d="M11785 1052 L14035 1052" stroke-width="13" />
                  <path d="M11785 1232 L14035 1232" stroke-width="13" />
                  <g id="kgtp1zt" class="layer">
                     <g id="l1wb3e2s" class="note">
                        <g class="notehead">
                           <use xlink:href="#E0A4-l19nj5e9" transform="translate(11965, 1052) scale(0.72, 0.72)" />
                        </g>
                        <g id="t16fzqxk" class="stem">
                           <path d="M12168 1022 L12168 422" stroke-width="18" />
                        </g>
                        <g id="m1c77hfv" class="artic">
                           <use xlink:href="#E4A3-l19nj5e9" transform="translate(12041, 1322) scale(0.72, 0.72)" />
                        </g>
                     </g>
                     <g id="n1p91bt0" class="note">
                        <g class="notehead">
                           <use xlink:href="#E0A4-l19nj5e9" transform="translate(12655, 1052) scale(0.72, 0.72)" />
                        </g>
                        <g id="ulubfbi" class="stem">
                           <path d="M12858 1022 L12858 422" stroke-width="18" />
                        </g>
                        <g id="o1hn97h8" class="artic">
                           <use xlink:href="#E4AB-l19nj5e9" transform="translate(12744, 1322) scale(0.72, 0.72)" />
                        </g>
                     </g>
                     <g id="pmwmthe" class="note">
                        <g class="notehead">
                           <use xlink:href="#E0A4-l19nj5e9" transform="translate(13345, 1052) scale(0.72, 0.72)" />
                        </g>
                        <g id="v1n4j8tk" class="stem">
                           <path d="M13548 1022 L13548 422" stroke-width="18" />
                        </g>
                        <g id="q14fmeoc" class="artic">
                           <use xlink:href="#ED41-l19nj5e9" transform="translate(13197, 1299) scale(0.72, 0.72)" />
                        </g>
                     </g>
                  </g>
               </g>
               <g id="i4s4uc4" class="barLine" />
            </g>
            <g id="bb8g0u0" class="systemMilestoneEnd z16wv72r" />
         </g>
         <g id="cfjak8c" class="pageMilestoneEnd njft1g2" />
         <g id="d16zdwlv" class="pageMilestoneEnd moqsi69" />
      </g>
   </svg>
</svg>
