<svg width="209px" height="94px" version="1.1" xmlns="http://www.w3.org/2000/svg" xmlns:xlink="http://www.w3.org/1999/xlink" overflow="visible" id="l19nj5e9">
   <desc>Engraved by Verovio 5.7.0-7135340</desc>
   <defs>
      <g id="E444-l19nj5e9">
         <path transform="scale(1,-1)" d="M106 179v-91l-44 -14v-165l44 12v-91l-46 -14v-155h-17v149l-43 -13v90l43 14v167l-43 -14v92l43 13v169h17v-163z" />
      </g>
      <g id="E447-l19nj5e9">
         <path transform="scale(1,-1)" d="M158 186v169h17v-164l44 14v-91l-44 -14v-52.5481l64 19.5481v-56l-64 -19.5481v-56.4519l44 12v-91l-44 -13v-155h-17v150l-76 -22v-155h-17v149l-43 -13v90l43 14v56.8536l-65 -19.8536v56l65 19.8536v54.1464l-43 -14v92l43 13v169h17v-163zM82 -36.954v-57.046l76 22 v58.2594zM82 19.046l76 23.2134v53.7406l-76 -23v-53.954z" />
      </g>
      <g id="E084-l19nj5e9">
         <path transform="scale(1,-1)" d="M20 -78c84 97 114 180 134 329h170c-13 -32 -82 -132 -99 -151l-84 -97c-33 -36 -59 -63 -80 -81h162v102l127 123v-225h57v-39h-57v-34c0 -43 19 -65 57 -65v-34h-244v36c48 0 60 26 60 70v27h-203v39z" />
      </g>
      <g id="E082-l19nj5e9">
         <path transform="scale(1,-1)" d="M124 -185c-18 0 -55 -14 -65 -65h-36l-3 30c0 25 6 45 18 63c11 19 22 30 39 43l121 82l37 29c15 11 27 29 38 54c12 24 18 47 18 70c0 40 -19 88 -94 88c-25 0 -32 0 -50 -8c-14 -5 -23 -12 -26 -22c3 -9 7 -15 10 -18l24 -17c12 -7 17 -11 27 -21c5 -7 7 -16 7 -27 c0 -12 0 -57 -79 -74c-30 0 -76 26 -76 94c0 66 81 135 197 135c72 0 181 -32 181 -150c0 -53 -32 -95 -113 -133l-91 -41c-26 -11 -45 -23 -57 -37l49 7c84 0 115 -41 148 -41c20 0 33 20 39 61h35c0 -152 -68 -168 -114 -168c-17 0 -65 0 -79 7h10l-28 17 c-49 37 -69 40 -87 42z" />
      </g>
      <g id="E4E4-l19nj5e9">
         <path transform="scale(1,-1)" d="M0 10v105c0 9 1 10 10 10h280c9 0 10 -1 10 -10v-105c0 -9 -1 -10 -10 -10h-280c-9 0 -10 1 -10 10z" />
      </g>
   </defs>
   <style type="text/css">#l19nj5e9 g.page-margin {font-family:Times,serif;}#l19nj5e9 g.ending, #l19nj5e9 g.fing, #l19nj5e9 g.reh, #l19nj5e9 g.tempo {font-weight:bold;}#l19nj5e9 g.dir, #l19nj5e9 g.dynam, #l19nj5e9 g.mNum {font-style:italic;}#l19nj5e9 g.label {font-weight:normal;}#l19nj5e9 ellipse, #l19nj5e9 path, #l19nj5e9 polygon, #l19nj5e9 polyline, #l19nj5e9 rect {stroke:currentColor}</style>
   <svg class="definition-scale" color="black" viewBox="0 0 4640 2080">
      <g class="page-margin" transform="translate(500, 500)">
         <g id="moqsi69" class="mdiv pageMilestone" />
         <g id="njft1g2" class="score pageMilestone" />
         <g id="a1pfogn4" class="system">
            <g id="qqy4i76" class="label">
               <text x="1150" y="630" text-anchor="end" font-size="0px">
                  <tspan id="r3ruo0a" class="text">
                     <tspan font-size="405px">Canto</tspan>
                  </tspan>
               </text>
            </g>
            <g id="j9ixwzy" class="section systemMilestone" />
            <g id="k1ffvwuh" class="measure">
               <g id="t1kzq82m" class="staff">
                  <path d="M1330 180 L3641 180" stroke-width="13" />
                  <path d="M1330 360 L3641 360" stroke-width="13" />
                  <path d="M1330 540 L3641 540" stroke-width="13" />
                  <path d="M1330 720 L3641 720" stroke-width="13" />
                  <path d="M1330 900 L3641 900" stroke-width="13" />
                  <g id="i1yz9fdu" class="clef" visibility="hidden" />
                  <g id="j16qode7" class="keySig">
                     <g id="k16e8mly" class="keyAccid">
                        <use xlink:href="#E444-l19nj5e9" transform="translate(1420, 540) scale(0.72, 0.72)" />
                     </g>
                     <g id="l1b9tw60" class="keyAccid">
                        <use xlink:href="#E447-l19nj5e9" transform="translate(1533, 810) scale(0.72, 0.72)" />
                     </g>
                  </g>
                  <g id="m13k1pa7" class="meterSig">
                     <use xlink:href="#E084-l19nj5e9" transform="translate(1876, 360) scale(0.72, 0.72)" />
                     <use xlink:href="#E082-l19nj5e9" transform="translate(1871, 720) scale(0.72, 0.72)" />
                  </g>
                  <g id="ushell2" class="layer">
                     <g id="va734np" class="rest">
                        <use xlink:href="#E4E4-l19nj5e9" transform="translate(2462, 540) scale(0.72, 0.72)" />
                        <g class="ledgerLines" />
                     </g>
                  </g>
               </g>
               <g id="s147azdb" class="barLine">
                  <path d="M3628 180 L3628 900" stroke-width="27" />
               </g>
            </g>
            <g id="d1iiegxs" class="systemMilestoneEnd j9ixwzy" />
         </g>
         <g id="erbcoh7" class="pageMilestoneEnd njft1g2" />
         <g id="fmlv5y5" class="pageMilestoneEnd moqsi69" />
      </g>
   </svg>
</svg>
