<svg width="563.5px" height="127.5px" version="1.1" xmlns="http://www.w3.org/2000/svg" xmlns:xlink="http://www.w3.org/1999/xlink" xmlns:mei="http://www.music-encoding.org/ns/mei" overflow="visible">
   <desc>Engraved by Verovio 3.3.0-e62c7d5</desc>
   <defs>
      <symbol id="E050" viewBox="0 0 1000 1000" overflow="inherit">
         <path transform="scale(1,-1)" d="M441 -245c-23 -4 -48 -6 -76 -6c-59 0 -102 7 -130 20c-88 42 -150 93 -187 154c-26 44 -43 103 -48 176c0 6 -1 13 -1 19c0 54 15 111 45 170c29 57 65 106 110 148s96 85 153 127c-3 16 -8 46 -13 92c-4 43 -5 73 -5 89c0 117 16 172 69 257c34 54 64 82 89 82 c21 0 43 -30 69 -92s39 -115 41 -159v-15c0 -109 -21 -162 -67 -241c-13 -20 -63 -90 -98 -118c-13 -9 -25 -19 -37 -29l31 -181c8 1 18 2 28 2c58 0 102 -12 133 -35c59 -43 92 -104 98 -184c1 -7 1 -15 1 -22c0 -123 -87 -209 -181 -248c8 -57 17 -110 25 -162 c5 -31 6 -58 6 -80c0 -30 -5 -53 -14 -70c-35 -64 -88 -99 -158 -103c-5 0 -11 -1 -16 -1c-37 0 -72 10 -108 27c-50 24 -77 59 -80 105v11c0 29 7 55 20 76c18 28 45 42 79 44h6c49 0 93 -42 97 -87v-9c0 -51 -34 -86 -105 -106c17 -24 51 -36 102 -36c62 0 116 43 140 85 c9 16 13 41 13 74c0 20 -1 42 -5 67c-8 53 -18 106 -26 159zM461 939c-95 0 -135 -175 -135 -286c0 -24 2 -48 5 -71c50 39 92 82 127 128c40 53 60 100 60 140v8c-4 53 -22 81 -55 81h-2zM406 119l54 -326c73 25 110 78 110 161c0 7 0 15 -1 23c-7 95 -57 142 -151 142h-12 zM382 117c-72 -2 -128 -47 -128 -120v-7c2 -46 43 -99 75 -115c-3 -2 -7 -5 -10 -10c-70 33 -116 88 -123 172v11c0 68 44 126 88 159c23 17 49 29 78 36l-29 170c-21 -13 -52 -37 -92 -73c-50 -44 -86 -84 -109 -119c-45 -69 -67 -130 -67 -182v-13c5 -68 35 -127 93 -176 s125 -73 203 -73c25 0 50 3 75 9c-19 111 -36 221 -54 331z" />
      </symbol>
      <symbol id="E084" viewBox="0 0 1000 1000" overflow="inherit">
         <path transform="scale(1,-1)" d="M0 -78c84 97 114 180 134 329h170c-13 -32 -82 -132 -99 -151l-84 -97c-33 -36 -59 -63 -80 -81h162v102l127 123v-225h57v-39h-57v-34c0 -43 19 -65 57 -65v-34h-244v36c48 0 60 26 60 70v27h-203v39z" />
      </symbol>
      <symbol id="E0A4" viewBox="0 0 1000 1000" overflow="inherit">
         <path transform="scale(1,-1)" d="M0 -39c0 68 73 172 200 172c66 0 114 -37 114 -95c0 -84 -106 -171 -218 -171c-64 0 -96 30 -96 94z" />
      </symbol>
      <symbol id="E260" viewBox="0 0 1000 1000" overflow="inherit">
         <path transform="scale(1,-1)" d="M20 110c32 16 54 27 93 27c26 0 35 -3 54 -13c13 -7 24 -20 27 -38l4 -25c0 -28 -16 -57 -45 -89c-23 -25 -39 -44 -65 -68l-88 -79v644h20v-359zM90 106c-32 0 -48 -10 -70 -29v-194c31 31 54 59 71 84c21 32 32 59 32 84c0 9 1 16 1 20c0 14 -3 21 -11 30l-8 3z" />
      </symbol>
      <symbol id="E261" viewBox="0 0 1000 1000" overflow="inherit">
         <path transform="scale(1,-1)" d="M0 -188v539h18v-191l139 22v-533h-17v186zM18 -100l122 17v176l-122 -19v-174z" />
      </symbol>
      <symbol id="E262" viewBox="0 0 1000 1000" overflow="inherit">
         <path transform="scale(1,-1)" d="M136 186v169h17v-164l44 14v-91l-44 -14v-165l44 12v-91l-44 -13v-155h-17v150l-76 -22v-155h-17v149l-43 -13v90l43 14v167l-43 -14v92l43 13v169h17v-163zM60 73v-167l76 22v168z" />
      </symbol>
   </defs>
   <style type="text/css">g.page-margin{font-family:Times;} g.reh, g.tempo{font-weight:bold;} g.dir, g.dynam, g.mNum{font-style:italic;} g.label{font-weight:normal;}</style>
   <svg class="definition-scale" color="black" viewBox="0 0 11270 2550">
      <g class="page-margin" transform="translate(500, 500)">
         <g id="system-0000000274963807" class="system">
            <g id="section-0000000867021421" class="section boundaryStart" />
            <g id="measure-0000001352477852" class="measure">
               <g id="staff-0000001797919475" class="staff">
                  <path d="M0 554 L4146 554" stroke="currentColor" stroke-width="13" />
                  <path d="M0 734 L4146 734" stroke="currentColor" stroke-width="13" />
                  <path d="M0 914 L4146 914" stroke="currentColor" stroke-width="13" />
                  <path d="M0 1094 L4146 1094" stroke="currentColor" stroke-width="13" />
                  <path d="M0 1274 L4146 1274" stroke="currentColor" stroke-width="13" />
                  <g id="clef-0000000421690742" class="clef">
                     <use xlink:href="#E050" x="90" y="1094" height="720px" width="720px" />
                  </g>
                  <g id="msig-0000001037515009" class="meterSig">
                     <use xlink:href="#E084" x="825" y="734" height="720px" width="720px" />
                     <use xlink:href="#E084" x="825" y="1094" height="720px" width="720px" />
                  </g>
                  <g id="layer-0000000390219388" class="layer">
                     <g id="note-0000000002196178" class="note">
                        <g class="notehead">
                           <use xlink:href="#E0A4" x="1373" y="824" height="720px" width="720px" />
                        </g>
                        <g id="stem-0000000093941264" class="stem">
                           <rect x="1373" y="852" height="602" width="18" />
                        </g>
                        <g id="accid-0000000403941647" class="accid" />
                     </g>
                     <g id="note-0000000851452962" class="note">
                        <g class="notehead">
                           <use xlink:href="#E0A4" x="2063" y="734" height="720px" width="720px" />
                        </g>
                        <g id="stem-0000000470343503" class="stem">
                           <rect x="2063" y="762" height="602" width="18" />
                        </g>
                        <g id="accid-0000001686392373" class="accid" />
                     </g>
                     <g id="note-0000000707439905" class="note">
                        <g class="notehead">
                           <use xlink:href="#E0A4" x="2753" y="824" height="720px" width="720px" />
                        </g>
                        <g id="stem-0000000175950314" class="stem">
                           <rect x="2753" y="852" height="602" width="18" />
                        </g>
                        <g id="accid-0000001473013543" class="accid">
                           <use xlink:href="#E261" x="2824" y="275" height="540px" width="540px" />
                        </g>
                     </g>
                     <g id="note-0000000747134585" class="note">
                        <g class="notehead">
                           <use xlink:href="#E0A4" x="3443" y="914" height="720px" width="720px" />
                        </g>
                        <g id="stem-0000000111945479" class="stem">
                           <rect x="3443" y="942" height="572" width="18" />
                        </g>
                        <g id="accid-0000000754086086" class="accid">
                           <use xlink:href="#E260" x="3247" y="914" height="720px" width="720px" />
                        </g>
                     </g>
                  </g>
               </g>
               <g id="bline-0000000147429438" class="barLineAttr">
                  <path d="M4133 1274 L4133 554" stroke="currentColor" stroke-width="27" />
               </g>
            </g>
            <g id="measure-0000001623846455" class="measure">
               <g id="staff-0000001099563145" class="staff">
                  <path d="M4146 554 L7294 554" stroke="currentColor" stroke-width="13" />
                  <path d="M4146 734 L7294 734" stroke="currentColor" stroke-width="13" />
                  <path d="M4146 914 L7294 914" stroke="currentColor" stroke-width="13" />
                  <path d="M4146 1094 L7294 1094" stroke="currentColor" stroke-width="13" />
                  <path d="M4146 1274 L7294 1274" stroke="currentColor" stroke-width="13" />
                  <g id="layer-0000001260995580" class="layer">
                     <g id="note-0000000036600817" class="note">
                        <g class="notehead">
                           <use xlink:href="#E0A4" x="4521" y="1094" height="720px" width="720px" />
                        </g>
                        <g id="stem-0000000271990781" class="stem">
                           <rect x="4729" y="464" height="602" width="18" />
                        </g>
                        <g id="accid-0000000969608277" class="accid">
                           <use xlink:href="#E262" x="4326" y="1094" height="720px" width="720px" />
                        </g>
                     </g>
                     <g id="note-0000001100398103" class="note">
                        <g class="notehead">
                           <use xlink:href="#E0A4" x="5211" y="1004" height="720px" width="720px" />
                        </g>
                        <g id="stem-0000001503855451" class="stem">
                           <rect x="5419" y="374" height="602" width="18" />
                        </g>
                        <g id="accid-0000000261749157" class="accid" />
                     </g>
                     <g id="note-0000001171572643" class="note">
                        <g class="notehead">
                           <use xlink:href="#E0A4" x="5901" y="824" height="720px" width="720px" />
                        </g>
                        <g id="stem-0000001563523414" class="stem">
                           <rect x="5901" y="852" height="602" width="18" />
                        </g>
                        <g id="accid-0000000343851558" class="accid">
                           <use xlink:href="#E261" x="5972" y="275" height="540px" width="540px" />
                        </g>
                     </g>
                     <g id="note-0000000234641229" class="note">
                        <g class="notehead">
                           <use xlink:href="#E0A4" x="6591" y="1094" height="720px" width="720px" />
                        </g>
                        <g id="stem-0000001528114406" class="stem">
                           <rect x="6799" y="464" height="602" width="18" />
                        </g>
                        <g id="accid-0000000835159911" class="accid">
                           <use xlink:href="#E262" x="6651" y="191" height="540px" width="540px" />
                        </g>
                     </g>
                  </g>
               </g>
               <g id="bline-0000001956783729" class="barLineAttr">
                  <path d="M7281 1274 L7281 554" stroke="currentColor" stroke-width="27" />
               </g>
            </g>
            <g id="measure-0000000579507385" class="measure">
               <g id="staff-0000001688510254" class="staff">
                  <path d="M7294 554 L10279 554" stroke="currentColor" stroke-width="13" />
                  <path d="M7294 734 L10279 734" stroke="currentColor" stroke-width="13" />
                  <path d="M7294 914 L10279 914" stroke="currentColor" stroke-width="13" />
                  <path d="M7294 1094 L10279 1094" stroke="currentColor" stroke-width="13" />
                  <path d="M7294 1274 L10279 1274" stroke="currentColor" stroke-width="13" />
                  <g id="layer-0000001942927520" class="layer">
                     <g id="note-0000000146492358" class="note">
                        <g class="notehead">
                           <use xlink:href="#E0A4" x="7474" y="824" height="720px" width="720px" />
                        </g>
                        <g id="stem-0000001261887169" class="stem">
                           <rect x="7474" y="852" height="602" width="18" />
                        </g>
                        <g id="accid-0000001080801444" class="accid" />
                     </g>
                     <g id="note-0000001613182982" class="note">
                        <g class="notehead">
                           <use xlink:href="#E0A4" x="8164" y="1094" height="720px" width="720px" />
                        </g>
                        <g id="stem-0000002136635258" class="stem">
                           <rect x="8372" y="464" height="602" width="18" />
                        </g>
                        <g id="accid-0000000785335099" class="accid">
                           <use xlink:href="#E262" x="8224" y="191" height="540px" width="540px" />
                        </g>
                     </g>
                     <g id="note-0000000692514431" class="note">
                        <g class="notehead">
                           <use xlink:href="#E0A4" x="8854" y="1274" height="720px" width="720px" />
                        </g>
                        <g id="stem-0000000207236072" class="stem">
                           <rect x="9062" y="644" height="602" width="18" />
                        </g>
                        <g id="accid-0000001876158724" class="accid" />
                     </g>
                     <g id="note-0000001097285367" class="note">
                        <g class="notehead">
                           <use xlink:href="#E0A4" x="9544" y="1364" height="720px" width="720px" />
                        </g>
                        <g id="stem-0000001945670317" class="stem">
                           <rect x="9752" y="734" height="602" width="18" />
                        </g>
                        <g id="accid-0000001633086380" class="accid" />
                     </g>
                  </g>
               </g>
               <g id="bline-0000001806301978" class="barLineAttr">
                  <path d="M10104 1274 L10104 554" stroke="currentColor" stroke-width="27" />
                  <path d="M10234 1274 L10234 554" stroke="currentColor" stroke-width="90" />
               </g>
            </g>
            <g id="bdend-0000002104980506" class="boundaryEnd section-0000000867021421" />
         </g>
      </g>
   </svg>
</svg>
