<svg width="425px" height="369px" version="1.1" xmlns="http://www.w3.org/2000/svg" xmlns:xlink="http://www.w3.org/1999/xlink" overflow="visible" id="l19nj5e9">
   <desc>Engraved by Verovio 6.1.0-682d606</desc>
   <defs>
      <g id="E003-l19nj5e9">
         <path transform="scale(1,-1)" d="M0 -0v111c0 0 62 1 63 1c70 0 233 16 321 170c1 1 15 -5 15 -6c-5 -7 -57 -176 -263 -271c-24 -4 -53 -5 -83 -5h-53z" />
      </g>
      <g id="E004-l19nj5e9">
         <path transform="scale(1,-1)" d="M0 0h53c30 0 59 -1 83 -5c206 -95 258 -264 263 -271c0 -1 -14 -7 -15 -6c-88 154 -251 170 -321 170c-1 0 -63 1 -63 1v111z" />
      </g>
      <g id="E909-l19nj5e9">
         <path transform="scale(1,-1)" d="M2 206l2 431c0 12 7 17 14 17c8 0 17 -7 17 -17l3 -204l2 -315h79h8c11 0 30 1 35 6c8 8 8 69 8 122v27l4 222s-1 20 19 20s12 -20 12 -20v-244s-1 -130 -1 -176c-1 -8 -1 -12 -4 -19c-7 -7 -8 -7 -16 -7c-45 0 -71 3 -71 3l-69 -3v-49v-48l64 -3l82 -5s5 0 8 -3 s5 -7 5 -7l1 -262v-154s0 -20 -13 -20c-10 0 -14 5 -16 14l-7 138l-2 219s0 4 -3 7s-9 2 -9 2h-40h-70l-3 -378l-3 -132s0 -20 -15 -20c-17 0 -19 17 -19 17c-1 22 -3 446 -3 686c0 49 1 100 1 155z" />
      </g>
      <g id="E911-l19nj5e9">
         <path transform="scale(1,-1)" d="M36 0c0 -113 91 -204 204 -204s204 91 204 204s-91 204 -204 204s-204 -91 -204 -204zM0 0c0 132 108 240 240 240s240 -108 240 -240s-108 -240 -240 -240s-240 108 -240 240z" />
      </g>
      <g id="E93C-l19nj5e9">
         <path transform="scale(1,-1)" d="M156 195l156 -195l-156 -195l-156 195zM127 110l-57 -71l115 -149l57 71z" />
      </g>
      <g id="E93E-l19nj5e9">
         <path transform="scale(1,-1)" d="M0 760h30v-760h-30v760z" />
      </g>
   </defs>
   <style type="text/css">#l19nj5e9 g.ending, #l19nj5e9 g.fing, #l19nj5e9 g.reh, #l19nj5e9 g.tempo {font-weight:bold;}#l19nj5e9 g.dir, #l19nj5e9 g.dynam, #l19nj5e9 g.mNum {font-style:italic;}#l19nj5e9 g.label {font-weight:normal;}#l19nj5e9 ellipse, #l19nj5e9 path, #l19nj5e9 polygon, #l19nj5e9 polyline, #l19nj5e9 rect {stroke:currentColor}</style>
   <svg class="definition-scale" color="black" font-family="Times, serif" viewBox="0 0 9440 8200">
      <g class="page-margin" transform="translate(500, 500)">
         <g id="moqsi69" class="mdiv pageMilestone" />
         <g id="njft1g2" class="score pageMilestone" />
         <g id="di9o7k5" class="system">
            <path d="M13 360 L13 6840" stroke-width="27" />
            <g id="m1vifptt" class="grpSym">
               <use xlink:href="#E003-l19nj5e9" transform="translate(-180, 309) scale(0.72, 0.72)" />
               <use xlink:href="#E004-l19nj5e9" transform="translate(-180, 6891) scale(0.72, 0.72)" />
               <rect x="-180" y="303" height="6594" width="90" />
            </g>
            <g id="hju2rxn" class="section systemMilestone" />
            <g id="rgx8bjh" class="staff">
               <path d="M0 360 L8442 360" stroke-width="13" />
               <path d="M0 540 L8442 540" stroke-width="13" />
               <path d="M0 720 L8442 720" stroke-width="13" />
               <path d="M0 900 L8442 900" stroke-width="13" />
               <path d="M0 1080 L8442 1080" stroke-width="13" />
               <g id="tqy1153" class="clef">
                  <use xlink:href="#E909-l19nj5e9" transform="translate(117, 720) scale(0.72, 0.72)" />
               </g>
               <g id="u18ubvay" class="keySig" />
               <g id="s82fpt" class="layer">
                  <g id="t3elz0m" class="mensur">
                     <use xlink:href="#E911-l19nj5e9" transform="translate(444, 720) scale(0.72, 0.72)" />
                  </g>
                  <g id="u1bb0tuc" class="note">
                     <g class="notehead">
                        <use xlink:href="#E93C-l19nj5e9" transform="translate(969, 720) scale(0.72, 0.72)" />
                     </g>
                     <g id="mlwp7zq" class="stem">
                        <use xlink:href="#E93E-l19nj5e9" transform="translate(1071, 640) scale(0.72, 0.72)" />
                     </g>
                  </g>
                  <g id="v6sh6uc" class="note">
                     <g class="notehead">
                        <use xlink:href="#E93C-l19nj5e9" transform="translate(1283, 720) scale(0.72, 0.72)" />
                     </g>
                     <g id="nt9ronl" class="stem">
                        <use xlink:href="#E93E-l19nj5e9" transform="translate(1385, 640) scale(0.72, 0.72)" />
                     </g>
                  </g>
                  <g id="wgj8qwy" class="note">
                     <g class="notehead">
                        <use xlink:href="#E93C-l19nj5e9" transform="translate(1597, 720) scale(0.72, 0.72)" />
                     </g>
                     <g id="o1awc8ol" class="stem">
                        <use xlink:href="#E93E-l19nj5e9" transform="translate(1699, 640) scale(0.72, 0.72)" />
                     </g>
                  </g>
                  <g id="xfggj11" class="note">
                     <g class="notehead">
                        <use xlink:href="#E93C-l19nj5e9" transform="translate(1911, 720) scale(0.72, 0.72)" />
                     </g>
                     <g id="p1ufntge" class="stem">
                        <use xlink:href="#E93E-l19nj5e9" transform="translate(2013, 640) scale(0.72, 0.72)" />
                     </g>
                  </g>
                  <g id="y1waypqj" class="note">
                     <g class="notehead">
                        <use xlink:href="#E93C-l19nj5e9" transform="translate(2225, 720) scale(0.72, 0.72)" />
                     </g>
                     <g id="qg6e4o" class="stem">
                        <use xlink:href="#E93E-l19nj5e9" transform="translate(2327, 640) scale(0.72, 0.72)" />
                     </g>
                  </g>
                  <g id="zfx25hn" class="note">
                     <g class="notehead">
                        <use xlink:href="#E93C-l19nj5e9" transform="translate(2539, 720) scale(0.72, 0.72)" />
                     </g>
                     <g id="rxq6cll" class="stem">
                        <use xlink:href="#E93E-l19nj5e9" transform="translate(2641, 640) scale(0.72, 0.72)" />
                     </g>
                  </g>
                  <g id="a3ie8ud" class="note">
                     <g class="notehead">
                        <use xlink:href="#E93C-l19nj5e9" transform="translate(2853, 720) scale(0.72, 0.72)" />
                     </g>
                     <g id="s1xjwapg" class="stem">
                        <use xlink:href="#E93E-l19nj5e9" transform="translate(2955, 640) scale(0.72, 0.72)" />
                     </g>
                  </g>
                  <g id="b37hn12" class="note">
                     <g class="notehead">
                        <use xlink:href="#E93C-l19nj5e9" transform="translate(3167, 720) scale(0.72, 0.72)" />
                     </g>
                     <g id="t16fzqxk" class="stem">
                        <use xlink:href="#E93E-l19nj5e9" transform="translate(3269, 640) scale(0.72, 0.72)" />
                     </g>
                  </g>
                  <g id="c1kyp1ws" class="note">
                     <g class="notehead">
                        <use xlink:href="#E93C-l19nj5e9" transform="translate(3481, 720) scale(0.72, 0.72)" />
                     </g>
                     <g id="ulubfbi" class="stem">
                        <use xlink:href="#E93E-l19nj5e9" transform="translate(3583, 640) scale(0.72, 0.72)" />
                     </g>
                  </g>
                  <g id="d1eyoooy" class="note">
                     <g class="notehead">
                        <use xlink:href="#E93C-l19nj5e9" transform="translate(3795, 720) scale(0.72, 0.72)" />
                     </g>
                     <g id="v1n4j8tk" class="stem">
                        <use xlink:href="#E93E-l19nj5e9" transform="translate(3897, 640) scale(0.72, 0.72)" />
                     </g>
                  </g>
                  <g id="ewtw03u" class="note">
                     <g class="notehead">
                        <use xlink:href="#E93C-l19nj5e9" transform="translate(4109, 720) scale(0.72, 0.72)" />
                     </g>
                     <g id="w1qijfro" class="stem">
                        <use xlink:href="#E93E-l19nj5e9" transform="translate(4211, 640) scale(0.72, 0.72)" />
                     </g>
                  </g>
                  <g id="f12ecyql" class="note">
                     <g class="notehead">
                        <use xlink:href="#E93C-l19nj5e9" transform="translate(4423, 720) scale(0.72, 0.72)" />
                     </g>
                     <g id="xpk0tft" class="stem">
                        <use xlink:href="#E93E-l19nj5e9" transform="translate(4525, 640) scale(0.72, 0.72)" />
                     </g>
                  </g>
                  <g id="gjwwkjn" class="note">
                     <g class="notehead">
                        <use xlink:href="#E93C-l19nj5e9" transform="translate(4737, 720) scale(0.72, 0.72)" />
                     </g>
                     <g id="y1ccvmbx" class="stem">
                        <use xlink:href="#E93E-l19nj5e9" transform="translate(4839, 640) scale(0.72, 0.72)" />
                     </g>
                  </g>
                  <g id="hzub3xf" class="note">
                     <g class="notehead">
                        <use xlink:href="#E93C-l19nj5e9" transform="translate(5051, 720) scale(0.72, 0.72)" />
                     </g>
                     <g id="z1onwf8y" class="stem">
                        <use xlink:href="#E93E-l19nj5e9" transform="translate(5153, 640) scale(0.72, 0.72)" />
                     </g>
                  </g>
                  <g id="izv1mc9" class="note">
                     <g class="notehead">
                        <use xlink:href="#E93C-l19nj5e9" transform="translate(5365, 720) scale(0.72, 0.72)" />
                     </g>
                     <g id="au36i87" class="stem">
                        <use xlink:href="#E93E-l19nj5e9" transform="translate(5467, 640) scale(0.72, 0.72)" />
                     </g>
                  </g>
                  <g id="j14qhuvu" class="note">
                     <g class="notehead">
                        <use xlink:href="#E93C-l19nj5e9" transform="translate(5679, 720) scale(0.72, 0.72)" />
                     </g>
                     <g id="b1bp6nfw" class="stem">
                        <use xlink:href="#E93E-l19nj5e9" transform="translate(5781, 640) scale(0.72, 0.72)" />
                     </g>
                  </g>
                  <g id="k1dict13" class="note">
                     <g class="notehead">
                        <use xlink:href="#E93C-l19nj5e9" transform="translate(5993, 720) scale(0.72, 0.72)" />
                     </g>
                     <g id="cg7y08o" class="stem">
                        <use xlink:href="#E93E-l19nj5e9" transform="translate(6095, 640) scale(0.72, 0.72)" />
                     </g>
                  </g>
                  <g id="lcz237t" class="note">
                     <g class="notehead">
                        <use xlink:href="#E93C-l19nj5e9" transform="translate(6307, 720) scale(0.72, 0.72)" />
                     </g>
                     <g id="dxlbg6w" class="stem">
                        <use xlink:href="#E93E-l19nj5e9" transform="translate(6409, 640) scale(0.72, 0.72)" />
                     </g>
                  </g>
                  <g id="mwxt00x" class="note">
                     <g class="notehead">
                        <use xlink:href="#E93C-l19nj5e9" transform="translate(6621, 720) scale(0.72, 0.72)" />
                     </g>
                     <g id="efwg9mm" class="stem">
                        <use xlink:href="#E93E-l19nj5e9" transform="translate(6723, 640) scale(0.72, 0.72)" />
                     </g>
                  </g>
                  <g id="ndvl5ld" class="note">
                     <g class="notehead">
                        <use xlink:href="#E93C-l19nj5e9" transform="translate(6935, 720) scale(0.72, 0.72)" />
                     </g>
                     <g id="f1pu9rwv" class="stem">
                        <use xlink:href="#E93E-l19nj5e9" transform="translate(7037, 640) scale(0.72, 0.72)" />
                     </g>
                  </g>
                  <g id="o1nwbnw5" class="note">
                     <g class="notehead">
                        <use xlink:href="#E93C-l19nj5e9" transform="translate(7249, 720) scale(0.72, 0.72)" />
                     </g>
                     <g id="g1wpyvd" class="stem">
                        <use xlink:href="#E93E-l19nj5e9" transform="translate(7351, 640) scale(0.72, 0.72)" />
                     </g>
                  </g>
                  <g id="p1r78e3w" class="note">
                     <g class="notehead">
                        <use xlink:href="#E93C-l19nj5e9" transform="translate(7563, 720) scale(0.72, 0.72)" />
                     </g>
                     <g id="h1hwlyfa" class="stem">
                        <use xlink:href="#E93E-l19nj5e9" transform="translate(7665, 640) scale(0.72, 0.72)" />
                     </g>
                  </g>
                  <g id="qjepdrb" class="note">
                     <g class="notehead">
                        <use xlink:href="#E93C-l19nj5e9" transform="translate(7877, 720) scale(0.72, 0.72)" />
                     </g>
                     <g id="ipk7z6m" class="stem">
                        <use xlink:href="#E93E-l19nj5e9" transform="translate(7979, 640) scale(0.72, 0.72)" />
                     </g>
                  </g>
                  <g id="r1y47wy7" class="note">
                     <g class="notehead">
                        <use xlink:href="#E93C-l19nj5e9" transform="translate(8191, 720) scale(0.72, 0.72)" />
                     </g>
                     <g id="j1vmyhcz" class="stem">
                        <use xlink:href="#E93E-l19nj5e9" transform="translate(8293, 640) scale(0.72, 0.72)" />
                     </g>
                  </g>
                  <g id="sqqgytg" class="barLine">
                     <path d="M8429 360 L8429 1080" stroke-width="27" />
                  </g>
               </g>
            </g>
            <g id="tmeaduc" class="staff">
               <path d="M0 1800 L8442 1800" stroke-width="13" />
               <path d="M0 1980 L8442 1980" stroke-width="13" />
               <path d="M0 2160 L8442 2160" stroke-width="13" />
               <path d="M0 2340 L8442 2340" stroke-width="13" />
               <path d="M0 2520 L8442 2520" stroke-width="13" />
               <g id="w181yo77" class="clef">
                  <use xlink:href="#E909-l19nj5e9" transform="translate(117, 2160) scale(0.72, 0.72)" />
               </g>
               <g id="x1z12zd0" class="keySig" />
               <g id="u4oqxce" class="layer">
                  <g id="v1bpmbr1" class="mensur">
                     <use xlink:href="#E911-l19nj5e9" transform="translate(444, 2160) scale(0.72, 0.72)" />
                  </g>
                  <g id="w1m11mph" class="note">
                     <g class="notehead">
                        <use xlink:href="#E93C-l19nj5e9" transform="translate(969, 2160) scale(0.72, 0.72)" />
                     </g>
                  </g>
                  <g id="x1oxd4nf" class="note">
                     <g class="notehead">
                        <use xlink:href="#E93C-l19nj5e9" transform="translate(1597, 2160) scale(0.72, 0.72)" />
                     </g>
                  </g>
                  <g id="y23h8om" class="note">
                     <g class="notehead">
                        <use xlink:href="#E93C-l19nj5e9" transform="translate(2225, 2160) scale(0.72, 0.72)" />
                     </g>
                  </g>
                  <g id="z16wv72r" class="note">
                     <g class="notehead">
                        <use xlink:href="#E93C-l19nj5e9" transform="translate(2853, 2160) scale(0.72, 0.72)" />
                     </g>
                  </g>
                  <g id="a1n0fw13" class="note">
                     <g class="notehead">
                        <use xlink:href="#E93C-l19nj5e9" transform="translate(3481, 2160) scale(0.72, 0.72)" />
                     </g>
                  </g>
                  <g id="b13viyd2" class="note">
                     <g class="notehead">
                        <use xlink:href="#E93C-l19nj5e9" transform="translate(4109, 2160) scale(0.72, 0.72)" />
                     </g>
                  </g>
                  <g id="c1yevvwh" class="note">
                     <g class="notehead">
                        <use xlink:href="#E93C-l19nj5e9" transform="translate(4737, 2160) scale(0.72, 0.72)" />
                     </g>
                  </g>
                  <g id="d1sqgsul" class="note">
                     <g class="notehead">
                        <use xlink:href="#E93C-l19nj5e9" transform="translate(5365, 2160) scale(0.72, 0.72)" />
                     </g>
                  </g>
                  <g id="e11rutd2" class="note">
                     <g class="notehead">
                        <use xlink:href="#E93C-l19nj5e9" transform="translate(5993, 2160) scale(0.72, 0.72)" />
                     </g>
                  </g>
                  <g id="fwigvp2" class="note">
                     <g class="notehead">
                        <use xlink:href="#E93C-l19nj5e9" transform="translate(6621, 2160) scale(0.72, 0.72)" />
                     </g>
                  </g>
                  <g id="g1ho95rp" class="note">
                     <g class="notehead">
                        <use xlink:href="#E93C-l19nj5e9" transform="translate(7249, 2160) scale(0.72, 0.72)" />
                     </g>
                  </g>
                  <g id="h1wvbc8t" class="note">
                     <g class="notehead">
                        <use xlink:href="#E93C-l19nj5e9" transform="translate(7877, 2160) scale(0.72, 0.72)" />
                     </g>
                  </g>
                  <g id="i4s4uc4" class="barLine">
                     <path d="M8429 1800 L8429 2520" stroke-width="27" />
                  </g>
               </g>
            </g>
            <g id="jo3qcsy" class="staff">
               <path d="M0 3240 L8442 3240" stroke-width="13" />
               <path d="M0 3420 L8442 3420" stroke-width="13" />
               <path d="M0 3600 L8442 3600" stroke-width="13" />
               <path d="M0 3780 L8442 3780" stroke-width="13" />
               <path d="M0 3960 L8442 3960" stroke-width="13" />
               <g id="z8mp975" class="clef">
                  <use xlink:href="#E909-l19nj5e9" transform="translate(117, 3600) scale(0.72, 0.72)" />
               </g>
               <g id="a1ypeev0" class="keySig" />
               <g id="kgtp1zt" class="layer">
                  <g id="l1wb3e2s" class="mensur">
                     <use xlink:href="#E911-l19nj5e9" transform="translate(444, 3600) scale(0.72, 0.72)" />
                  </g>
                  <g id="m1c77hfv" class="note">
                     <g class="notehead">
                        <polygon points="987,3510 1183,3510 1183,3560 987,3560" />
                        <polygon points="987,3690 1183,3690 1183,3640 987,3640" />
                        <rect x="969" y="3480" height="240" width="18" />
                        <rect x="1183" y="3480" height="240" width="18" />
                     </g>
                  </g>
                  <g id="n1p91bt0" class="note">
                     <g class="notehead">
                        <polygon points="2871,3510 3067,3510 3067,3560 2871,3560" />
                        <polygon points="2871,3690 3067,3690 3067,3640 2871,3640" />
                        <rect x="2853" y="3480" height="240" width="18" />
                        <rect x="3067" y="3480" height="240" width="18" />
                     </g>
                  </g>
                  <g id="o1hn97h8" class="note">
                     <g class="notehead">
                        <polygon points="4755,3510 4951,3510 4951,3560 4755,3560" />
                        <polygon points="4755,3690 4951,3690 4951,3640 4755,3640" />
                        <rect x="4737" y="3480" height="240" width="18" />
                        <rect x="4951" y="3480" height="240" width="18" />
                     </g>
                  </g>
                  <g id="pmwmthe" class="note">
                     <g class="notehead">
                        <polygon points="6639,3510 6835,3510 6835,3560 6639,3560" />
                        <polygon points="6639,3690 6835,3690 6835,3640 6639,3640" />
                        <rect x="6621" y="3480" height="240" width="18" />
                        <rect x="6835" y="3480" height="240" width="18" />
                     </g>
                  </g>
                  <g id="q14fmeoc" class="barLine">
                     <path d="M8429 3240 L8429 3960" stroke-width="27" />
                  </g>
               </g>
            </g>
            <g id="rivwb27" class="staff">
               <path d="M0 4680 L8442 4680" stroke-width="13" />
               <path d="M0 4860 L8442 4860" stroke-width="13" />
               <path d="M0 5040 L8442 5040" stroke-width="13" />
               <path d="M0 5220 L8442 5220" stroke-width="13" />
               <path d="M0 5400 L8442 5400" stroke-width="13" />
               <g id="crqtjvo" class="clef">
                  <use xlink:href="#E909-l19nj5e9" transform="translate(117, 5040) scale(0.72, 0.72)" />
               </g>
               <g id="d18gps4z" class="keySig" />
               <g id="s1f31sgl" class="layer">
                  <g id="t1ajik95" class="mensur">
                     <use xlink:href="#E911-l19nj5e9" transform="translate(444, 5040) scale(0.72, 0.72)" />
                  </g>
                  <g id="u6oscn4" class="note">
                     <g class="notehead">
                        <polygon points="987,4950 1183,4950 1183,5000 987,5000" />
                        <polygon points="987,5130 1183,5130 1183,5080 987,5080" />
                        <rect x="969" y="4920" height="240" width="18" />
                     </g>
                     <g class="stem">
                        <rect x="1183" y="4920" height="750" width="18" />
                     </g>
                  </g>
                  <g id="vyt4ad" class="note">
                     <g class="notehead">
                        <polygon points="4755,4950 4951,4950 4951,5000 4755,5000" />
                        <polygon points="4755,5130 4951,5130 4951,5080 4755,5080" />
                        <rect x="4737" y="4920" height="240" width="18" />
                     </g>
                     <g class="stem">
                        <rect x="4951" y="4920" height="750" width="18" />
                     </g>
                  </g>
                  <g id="w19obtds" class="barLine">
                     <path d="M8429 4680 L8429 5400" stroke-width="27" />
                  </g>
               </g>
            </g>
            <g id="xm40ctx" class="staff">
               <path d="M0 6120 L8442 6120" stroke-width="13" />
               <path d="M0 6300 L8442 6300" stroke-width="13" />
               <path d="M0 6480 L8442 6480" stroke-width="13" />
               <path d="M0 6660 L8442 6660" stroke-width="13" />
               <path d="M0 6840 L8442 6840" stroke-width="13" />
               <g id="f1o6uyeq" class="clef">
                  <use xlink:href="#E909-l19nj5e9" transform="translate(117, 6480) scale(0.72, 0.72)" />
               </g>
               <g id="gjn0imz" class="keySig" />
               <g id="yvzjjlx" class="layer">
                  <g id="z4bj489" class="mensur">
                     <use xlink:href="#E911-l19nj5e9" transform="translate(444, 6480) scale(0.72, 0.72)" />
                  </g>
                  <g id="a1tqy1kq" class="note">
                     <g class="notehead">
                        <polygon points="987,6390 1415,6390 1415,6440 987,6440" />
                        <polygon points="987,6570 1415,6570 1415,6520 987,6520" />
                        <rect x="969" y="6360" height="240" width="18" />
                     </g>
                     <g class="stem">
                        <rect x="1415" y="6360" height="750" width="18" />
                     </g>
                  </g>
                  <g id="bb8g0u0" class="barLine">
                     <path d="M8429 6120 L8429 6840" stroke-width="27" />
                  </g>
               </g>
            </g>
            <g id="j1s8kxne" class="systemMilestoneEnd hju2rxn" />
         </g>
         <g id="k19a056m" class="pageMilestoneEnd njft1g2" />
         <g id="l1e7ub62" class="pageMilestoneEnd moqsi69" />
      </g>
   </svg>
</svg>
