<svg width="975px" height="369px" version="1.1" xmlns="http://www.w3.org/2000/svg" xmlns:xlink="http://www.w3.org/1999/xlink" overflow="visible" id="d19nj5e9">
   <desc>Engraved by Verovio 5.1.0-8c3069d</desc>
   <defs>
      <symbol id="E93E-d19nj5e9" viewBox="0 0 1000 1000" overflow="inherit">
         <path transform="scale(1,-1)" d="M0 760h30v-760h-30v760z" />
      </symbol>
      <symbol id="E911-d19nj5e9" viewBox="0 0 1000 1000" overflow="inherit">
         <path transform="scale(1,-1)" d="M36 0c0 -113 91 -204 204 -204s204 91 204 204s-91 204 -204 204s-204 -91 -204 -204zM0 0c0 132 108 240 240 240s240 -108 240 -240s-108 -240 -240 -240s-240 108 -240 240z" />
      </symbol>
      <symbol id="E93C-d19nj5e9" viewBox="0 0 1000 1000" overflow="inherit">
         <path transform="scale(1,-1)" d="M156 195l156 -195l-156 -195l-156 195zM127 110l-57 -71l115 -149l57 71z" />
      </symbol>
      <symbol id="E909-d19nj5e9" viewBox="0 0 1000 1000" overflow="inherit">
         <path transform="scale(1,-1)" d="M2 206l2 431c0 12 7 17 14 17c8 0 17 -7 17 -17l3 -204l2 -315h79h8c11 0 30 1 35 6c8 8 8 69 8 122v27l4 222s-1 20 19 20s12 -20 12 -20v-244s-1 -130 -1 -176c-1 -8 -1 -12 -4 -19c-7 -7 -8 -7 -16 -7c-45 0 -71 3 -71 3l-69 -3v-49v-48l64 -3l82 -5s5 0 8 -3 s5 -7 5 -7l1 -262v-154s0 -20 -13 -20c-10 0 -14 5 -16 14l-7 138l-2 219s0 4 -3 7s-9 2 -9 2h-40h-70l-3 -378l-3 -132s0 -20 -15 -20c-17 0 -19 17 -19 17c-1 22 -3 446 -3 686c0 49 1 100 1 155z" />
      </symbol>
      <symbol id="E004-d19nj5e9" viewBox="0 0 1000 1000" overflow="inherit">
         <path transform="scale(1,-1)" d="M0 0h53c30 0 59 -1 83 -5c206 -95 258 -264 263 -271c0 -1 -14 -7 -15 -6c-88 154 -251 170 -321 170c-1 0 -63 1 -63 1v111z" />
      </symbol>
      <symbol id="E003-d19nj5e9" viewBox="0 0 1000 1000" overflow="inherit">
         <path transform="scale(1,-1)" d="M0 -0v111c0 0 62 1 63 1c70 0 233 16 321 170c1 1 15 -5 15 -6c-5 -7 -57 -176 -263 -271c-24 -4 -53 -5 -83 -5h-53z" />
      </symbol>
   </defs>
   <style type="text/css">#d19nj5e9 g.page-margin {font-family:Times,serif;} #d19nj5e9 g.ending, #d19nj5e9 g.fing, #d19nj5e9 g.reh, #d19nj5e9 g.tempo {font-weight:bold;} #d19nj5e9 g.dir, #d19nj5e9 g.dynam, #d19nj5e9 g.mNum {font-style:italic;} #d19nj5e9 g.label {font-weight:normal;} #d19nj5e9 path {stroke:currentColor}</style>
   <svg class="definition-scale" color="black" viewBox="0 0 21660 8200">
      <g class="page-margin" transform="translate(500, 500)">
         <g id="moqsi69" class="mdiv pageMilestone" />
         <g id="sjft1g2" class="score pageMilestone" />
         <g id="s11e8pzr" class="system">
            <path d="M13 360 L13 6840" stroke-width="27" />
            <g id="g3838hl" class="grpSym">
               <use xlink:href="#E003-d19nj5e9" x="-180" y="309" height="720px" width="720px" />
               <use xlink:href="#E004-d19nj5e9" x="-180" y="6891" height="720px" width="720px" />
               <rect stroke-opacity="1" fill-opacity="1" x="-180" y="303" height="6594" width="90" />
            </g>
            <g id="smlv5y5" class="section systemMilestone" />
            <g id="sk6xyvl" class="staff">
               <path d="M0 360 L20662 360" stroke-width="13" />
               <path d="M0 540 L20662 540" stroke-width="13" />
               <path d="M0 720 L20662 720" stroke-width="13" />
               <path d="M0 900 L20662 900" stroke-width="13" />
               <path d="M0 1080 L20662 1080" stroke-width="13" />
               <g id="c1q0tolu" class="clef">
                  <use xlink:href="#E909-d19nj5e9" x="117" y="720" height="720px" width="720px" />
               </g>
               <g id="km8tzac" class="keySig" />
               <g id="lhghzyb" class="layer">
                  <g id="mgx8bjh" class="mensur">
                     <use xlink:href="#E911-d19nj5e9" x="444" y="720" height="720px" width="720px" />
                  </g>
                  <g id="n82fpt" class="note">
                     <g class="notehead">
                        <use xlink:href="#E93C-d19nj5e9" x="969" y="720" height="720px" width="720px" />
                     </g>
                     <g id="s19a056m" class="stem">
                        <use xlink:href="#E93E-d19nj5e9" x="1071" y="640" height="720px" width="720px" />
                     </g>
                  </g>
                  <g id="n3elz0m" class="note">
                     <g class="notehead">
                        <use xlink:href="#E93C-d19nj5e9" x="1789" y="720" height="720px" width="720px" />
                     </g>
                     <g id="s1e7ub62" class="stem">
                        <use xlink:href="#E93E-d19nj5e9" x="1891" y="640" height="720px" width="720px" />
                     </g>
                  </g>
                  <g id="n1bb0tuc" class="note">
                     <g class="notehead">
                        <use xlink:href="#E93C-d19nj5e9" x="2609" y="720" height="720px" width="720px" />
                     </g>
                     <g id="slwp7zq" class="stem">
                        <use xlink:href="#E93E-d19nj5e9" x="2711" y="640" height="720px" width="720px" />
                     </g>
                  </g>
                  <g id="n6sh6uc" class="note">
                     <g class="notehead">
                        <use xlink:href="#E93C-d19nj5e9" x="3429" y="720" height="720px" width="720px" />
                     </g>
                     <g id="st9ronl" class="stem">
                        <use xlink:href="#E93E-d19nj5e9" x="3531" y="640" height="720px" width="720px" />
                     </g>
                  </g>
                  <g id="ngj8qwy" class="note">
                     <g class="notehead">
                        <use xlink:href="#E93C-d19nj5e9" x="4249" y="720" height="720px" width="720px" />
                     </g>
                     <g id="s1awc8ol" class="stem">
                        <use xlink:href="#E93E-d19nj5e9" x="4351" y="640" height="720px" width="720px" />
                     </g>
                  </g>
                  <g id="nfggj11" class="note">
                     <g class="notehead">
                        <use xlink:href="#E93C-d19nj5e9" x="5069" y="720" height="720px" width="720px" />
                     </g>
                     <g id="s1ufntge" class="stem">
                        <use xlink:href="#E93E-d19nj5e9" x="5171" y="640" height="720px" width="720px" />
                     </g>
                  </g>
                  <g id="n1waypqj" class="note">
                     <g class="notehead">
                        <use xlink:href="#E93C-d19nj5e9" x="5889" y="720" height="720px" width="720px" />
                     </g>
                     <g id="sg6e4o" class="stem">
                        <use xlink:href="#E93E-d19nj5e9" x="5991" y="640" height="720px" width="720px" />
                     </g>
                  </g>
                  <g id="nfx25hn" class="note">
                     <g class="notehead">
                        <use xlink:href="#E93C-d19nj5e9" x="6709" y="720" height="720px" width="720px" />
                     </g>
                     <g id="sxq6cll" class="stem">
                        <use xlink:href="#E93E-d19nj5e9" x="6811" y="640" height="720px" width="720px" />
                     </g>
                  </g>
                  <g id="n3ie8ud" class="note">
                     <g class="notehead">
                        <use xlink:href="#E93C-d19nj5e9" x="7529" y="720" height="720px" width="720px" />
                     </g>
                     <g id="s1xjwapg" class="stem">
                        <use xlink:href="#E93E-d19nj5e9" x="7631" y="640" height="720px" width="720px" />
                     </g>
                  </g>
                  <g id="n37hn12" class="note">
                     <g class="notehead">
                        <use xlink:href="#E93C-d19nj5e9" x="8349" y="720" height="720px" width="720px" />
                     </g>
                     <g id="s16fzqxk" class="stem">
                        <use xlink:href="#E93E-d19nj5e9" x="8451" y="640" height="720px" width="720px" />
                     </g>
                  </g>
                  <g id="n1kyp1ws" class="note">
                     <g class="notehead">
                        <use xlink:href="#E93C-d19nj5e9" x="9169" y="720" height="720px" width="720px" />
                     </g>
                     <g id="slubfbi" class="stem">
                        <use xlink:href="#E93E-d19nj5e9" x="9271" y="640" height="720px" width="720px" />
                     </g>
                  </g>
                  <g id="n1eyoooy" class="note">
                     <g class="notehead">
                        <use xlink:href="#E93C-d19nj5e9" x="9989" y="720" height="720px" width="720px" />
                     </g>
                     <g id="s1n4j8tk" class="stem">
                        <use xlink:href="#E93E-d19nj5e9" x="10091" y="640" height="720px" width="720px" />
                     </g>
                  </g>
                  <g id="nwtw03u" class="note">
                     <g class="notehead">
                        <use xlink:href="#E93C-d19nj5e9" x="10809" y="720" height="720px" width="720px" />
                     </g>
                     <g id="s1qijfro" class="stem">
                        <use xlink:href="#E93E-d19nj5e9" x="10911" y="640" height="720px" width="720px" />
                     </g>
                  </g>
                  <g id="n12ecyql" class="note">
                     <g class="notehead">
                        <use xlink:href="#E93C-d19nj5e9" x="11629" y="720" height="720px" width="720px" />
                     </g>
                     <g id="spk0tft" class="stem">
                        <use xlink:href="#E93E-d19nj5e9" x="11731" y="640" height="720px" width="720px" />
                     </g>
                  </g>
                  <g id="njwwkjn" class="note">
                     <g class="notehead">
                        <use xlink:href="#E93C-d19nj5e9" x="12449" y="720" height="720px" width="720px" />
                     </g>
                     <g id="s1ccvmbx" class="stem">
                        <use xlink:href="#E93E-d19nj5e9" x="12551" y="640" height="720px" width="720px" />
                     </g>
                  </g>
                  <g id="nzub3xf" class="note">
                     <g class="notehead">
                        <use xlink:href="#E93C-d19nj5e9" x="13269" y="720" height="720px" width="720px" />
                     </g>
                     <g id="s1onwf8y" class="stem">
                        <use xlink:href="#E93E-d19nj5e9" x="13371" y="640" height="720px" width="720px" />
                     </g>
                  </g>
                  <g id="nzv1mc9" class="note">
                     <g class="notehead">
                        <use xlink:href="#E93C-d19nj5e9" x="14089" y="720" height="720px" width="720px" />
                     </g>
                     <g id="su36i87" class="stem">
                        <use xlink:href="#E93E-d19nj5e9" x="14191" y="640" height="720px" width="720px" />
                     </g>
                  </g>
                  <g id="n14qhuvu" class="note">
                     <g class="notehead">
                        <use xlink:href="#E93C-d19nj5e9" x="14909" y="720" height="720px" width="720px" />
                     </g>
                     <g id="s1bp6nfw" class="stem">
                        <use xlink:href="#E93E-d19nj5e9" x="15011" y="640" height="720px" width="720px" />
                     </g>
                  </g>
                  <g id="n1dict13" class="note">
                     <g class="notehead">
                        <use xlink:href="#E93C-d19nj5e9" x="15729" y="720" height="720px" width="720px" />
                     </g>
                     <g id="sg7y08o" class="stem">
                        <use xlink:href="#E93E-d19nj5e9" x="15831" y="640" height="720px" width="720px" />
                     </g>
                  </g>
                  <g id="ncz237t" class="note">
                     <g class="notehead">
                        <use xlink:href="#E93C-d19nj5e9" x="16549" y="720" height="720px" width="720px" />
                     </g>
                     <g id="sxlbg6w" class="stem">
                        <use xlink:href="#E93E-d19nj5e9" x="16651" y="640" height="720px" width="720px" />
                     </g>
                  </g>
                  <g id="nwxt00x" class="note">
                     <g class="notehead">
                        <use xlink:href="#E93C-d19nj5e9" x="17369" y="720" height="720px" width="720px" />
                     </g>
                     <g id="sfwg9mm" class="stem">
                        <use xlink:href="#E93E-d19nj5e9" x="17471" y="640" height="720px" width="720px" />
                     </g>
                  </g>
                  <g id="ndvl5ld" class="note">
                     <g class="notehead">
                        <use xlink:href="#E93C-d19nj5e9" x="18189" y="720" height="720px" width="720px" />
                     </g>
                     <g id="s1pu9rwv" class="stem">
                        <use xlink:href="#E93E-d19nj5e9" x="18291" y="640" height="720px" width="720px" />
                     </g>
                  </g>
                  <g id="n1nwbnw5" class="note">
                     <g class="notehead">
                        <use xlink:href="#E93C-d19nj5e9" x="19009" y="720" height="720px" width="720px" />
                     </g>
                     <g id="s1wpyvd" class="stem">
                        <use xlink:href="#E93E-d19nj5e9" x="19111" y="640" height="720px" width="720px" />
                     </g>
                  </g>
                  <g id="n1r78e3w" class="note">
                     <g class="notehead">
                        <use xlink:href="#E93C-d19nj5e9" x="19829" y="720" height="720px" width="720px" />
                     </g>
                     <g id="s1hwlyfa" class="stem">
                        <use xlink:href="#E93E-d19nj5e9" x="19931" y="640" height="720px" width="720px" />
                     </g>
                  </g>
                  <g id="bjepdrb" class="barLine">
                     <path d="M20649 360 L20649 1080" stroke-width="27" />
                  </g>
               </g>
            </g>
            <g id="s1y47wy7" class="staff">
               <path d="M0 1800 L20662 1800" stroke-width="13" />
               <path d="M0 1980 L20662 1980" stroke-width="13" />
               <path d="M0 2160 L20662 2160" stroke-width="13" />
               <path d="M0 2340 L20662 2340" stroke-width="13" />
               <path d="M0 2520 L20662 2520" stroke-width="13" />
               <g id="c18ubvay" class="clef">
                  <use xlink:href="#E909-d19nj5e9" x="117" y="2160" height="720px" width="720px" />
               </g>
               <g id="k1gjpx4w" class="keySig" />
               <g id="lqqgytg" class="layer">
                  <g id="mmeaduc" class="mensur">
                     <use xlink:href="#E911-d19nj5e9" x="444" y="2160" height="720px" width="720px" />
                  </g>
                  <g id="n4oqxce" class="note">
                     <g class="notehead">
                        <use xlink:href="#E93C-d19nj5e9" x="969" y="2160" height="720px" width="720px" />
                     </g>
                  </g>
                  <g id="n1bpmbr1" class="note">
                     <g class="notehead">
                        <use xlink:href="#E93C-d19nj5e9" x="2609" y="2160" height="720px" width="720px" />
                     </g>
                  </g>
                  <g id="n1m11mph" class="note">
                     <g class="notehead">
                        <use xlink:href="#E93C-d19nj5e9" x="4249" y="2160" height="720px" width="720px" />
                     </g>
                  </g>
                  <g id="n1oxd4nf" class="note">
                     <g class="notehead">
                        <use xlink:href="#E93C-d19nj5e9" x="5889" y="2160" height="720px" width="720px" />
                     </g>
                  </g>
                  <g id="n23h8om" class="note">
                     <g class="notehead">
                        <use xlink:href="#E93C-d19nj5e9" x="7529" y="2160" height="720px" width="720px" />
                     </g>
                  </g>
                  <g id="n16wv72r" class="note">
                     <g class="notehead">
                        <use xlink:href="#E93C-d19nj5e9" x="9169" y="2160" height="720px" width="720px" />
                     </g>
                  </g>
                  <g id="n1n0fw13" class="note">
                     <g class="notehead">
                        <use xlink:href="#E93C-d19nj5e9" x="10809" y="2160" height="720px" width="720px" />
                     </g>
                  </g>
                  <g id="n13viyd2" class="note">
                     <g class="notehead">
                        <use xlink:href="#E93C-d19nj5e9" x="12449" y="2160" height="720px" width="720px" />
                     </g>
                  </g>
                  <g id="n1yevvwh" class="note">
                     <g class="notehead">
                        <use xlink:href="#E93C-d19nj5e9" x="14089" y="2160" height="720px" width="720px" />
                     </g>
                  </g>
                  <g id="n1sqgsul" class="note">
                     <g class="notehead">
                        <use xlink:href="#E93C-d19nj5e9" x="15729" y="2160" height="720px" width="720px" />
                     </g>
                  </g>
                  <g id="n11rutd2" class="note">
                     <g class="notehead">
                        <use xlink:href="#E93C-d19nj5e9" x="17369" y="2160" height="720px" width="720px" />
                     </g>
                  </g>
                  <g id="nwigvp2" class="note">
                     <g class="notehead">
                        <use xlink:href="#E93C-d19nj5e9" x="19009" y="2160" height="720px" width="720px" />
                     </g>
                  </g>
                  <g id="b1ho95rp" class="barLine">
                     <path d="M20649 1800 L20649 2520" stroke-width="27" />
                  </g>
               </g>
            </g>
            <g id="s1wvbc8t" class="staff">
               <path d="M0 3240 L20662 3240" stroke-width="13" />
               <path d="M0 3420 L20662 3420" stroke-width="13" />
               <path d="M0 3600 L20662 3600" stroke-width="13" />
               <path d="M0 3780 L20662 3780" stroke-width="13" />
               <path d="M0 3960 L20662 3960" stroke-width="13" />
               <g id="c1z12zd0" class="clef">
                  <use xlink:href="#E909-d19nj5e9" x="117" y="3600" height="720px" width="720px" />
               </g>
               <g id="kpovhyr" class="keySig" />
               <g id="l4s4uc4" class="layer">
                  <g id="mo3qcsy" class="mensur">
                     <use xlink:href="#E911-d19nj5e9" x="444" y="3600" height="720px" width="720px" />
                  </g>
                  <g id="ngtp1zt" class="note">
                     <g class="notehead">
                        <polygon stroke-opacity="1" fill-opacity="1" points="987,3510 1183,3510 1183,3560 987,3560" />
                        <polygon stroke-opacity="1" fill-opacity="1" points="987,3690 1183,3690 1183,3640 987,3640" />
                        <rect stroke-opacity="1" fill-opacity="1" x="969" y="3480" height="240" width="18" />
                        <rect stroke-opacity="1" fill-opacity="1" x="1183" y="3480" height="240" width="18" />
                     </g>
                  </g>
                  <g id="n1wb3e2s" class="note">
                     <g class="notehead">
                        <polygon stroke-opacity="1" fill-opacity="1" points="5907,3510 6103,3510 6103,3560 5907,3560" />
                        <polygon stroke-opacity="1" fill-opacity="1" points="5907,3690 6103,3690 6103,3640 5907,3640" />
                        <rect stroke-opacity="1" fill-opacity="1" x="5889" y="3480" height="240" width="18" />
                        <rect stroke-opacity="1" fill-opacity="1" x="6103" y="3480" height="240" width="18" />
                     </g>
                  </g>
                  <g id="n1c77hfv" class="note">
                     <g class="notehead">
                        <polygon stroke-opacity="1" fill-opacity="1" points="10827,3510 11023,3510 11023,3560 10827,3560" />
                        <polygon stroke-opacity="1" fill-opacity="1" points="10827,3690 11023,3690 11023,3640 10827,3640" />
                        <rect stroke-opacity="1" fill-opacity="1" x="10809" y="3480" height="240" width="18" />
                        <rect stroke-opacity="1" fill-opacity="1" x="11023" y="3480" height="240" width="18" />
                     </g>
                  </g>
                  <g id="n1p91bt0" class="note">
                     <g class="notehead">
                        <polygon stroke-opacity="1" fill-opacity="1" points="15747,3510 15943,3510 15943,3560 15747,3560" />
                        <polygon stroke-opacity="1" fill-opacity="1" points="15747,3690 15943,3690 15943,3640 15747,3640" />
                        <rect stroke-opacity="1" fill-opacity="1" x="15729" y="3480" height="240" width="18" />
                        <rect stroke-opacity="1" fill-opacity="1" x="15943" y="3480" height="240" width="18" />
                     </g>
                  </g>
                  <g id="b1hn97h8" class="barLine">
                     <path d="M20649 3240 L20649 3960" stroke-width="27" />
                  </g>
               </g>
            </g>
            <g id="smwmthe" class="staff">
               <path d="M0 4680 L20662 4680" stroke-width="13" />
               <path d="M0 4860 L20662 4860" stroke-width="13" />
               <path d="M0 5040 L20662 5040" stroke-width="13" />
               <path d="M0 5220 L20662 5220" stroke-width="13" />
               <path d="M0 5400 L20662 5400" stroke-width="13" />
               <g id="c1ypeev0" class="clef">
                  <use xlink:href="#E909-d19nj5e9" x="117" y="5040" height="720px" width="720px" />
               </g>
               <g id="kaldmk2" class="keySig" />
               <g id="l14fmeoc" class="layer">
                  <g id="mivwb27" class="mensur">
                     <use xlink:href="#E911-d19nj5e9" x="444" y="5040" height="720px" width="720px" />
                  </g>
                  <g id="n1f31sgl" class="note">
                     <g class="notehead">
                        <polygon stroke-opacity="1" fill-opacity="1" points="987,4950 1183,4950 1183,5000 987,5000" />
                        <polygon stroke-opacity="1" fill-opacity="1" points="987,5130 1183,5130 1183,5080 987,5080" />
                        <rect stroke-opacity="1" fill-opacity="1" x="969" y="4920" height="240" width="18" />
                     </g>
                     <g class="stem">
                        <rect stroke-opacity="1" fill-opacity="1" x="1183" y="4920" height="750" width="18" />
                     </g>
                  </g>
                  <g id="n1ajik95" class="note">
                     <g class="notehead">
                        <polygon stroke-opacity="1" fill-opacity="1" points="10827,4950 11023,4950 11023,5000 10827,5000" />
                        <polygon stroke-opacity="1" fill-opacity="1" points="10827,5130 11023,5130 11023,5080 10827,5080" />
                        <rect stroke-opacity="1" fill-opacity="1" x="10809" y="4920" height="240" width="18" />
                     </g>
                     <g class="stem">
                        <rect stroke-opacity="1" fill-opacity="1" x="11023" y="4920" height="750" width="18" />
                     </g>
                  </g>
                  <g id="b6oscn4" class="barLine">
                     <path d="M20649 4680 L20649 5400" stroke-width="27" />
                  </g>
               </g>
            </g>
            <g id="syt4ad" class="staff">
               <path d="M0 6120 L20662 6120" stroke-width="13" />
               <path d="M0 6300 L20662 6300" stroke-width="13" />
               <path d="M0 6480 L20662 6480" stroke-width="13" />
               <path d="M0 6660 L20662 6660" stroke-width="13" />
               <path d="M0 6840 L20662 6840" stroke-width="13" />
               <g id="c18gps4z" class="clef">
                  <use xlink:href="#E909-d19nj5e9" x="117" y="6480" height="720px" width="720px" />
               </g>
               <g id="k15nrzf5" class="keySig" />
               <g id="l19obtds" class="layer">
                  <g id="mm40ctx" class="mensur">
                     <use xlink:href="#E911-d19nj5e9" x="444" y="6480" height="720px" width="720px" />
                  </g>
                  <g id="nvzjjlx" class="note">
                     <g class="notehead">
                        <polygon stroke-opacity="1" fill-opacity="1" points="987,6390 1415,6390 1415,6440 987,6440" />
                        <polygon stroke-opacity="1" fill-opacity="1" points="987,6570 1415,6570 1415,6520 987,6520" />
                        <rect stroke-opacity="1" fill-opacity="1" x="969" y="6360" height="240" width="18" />
                     </g>
                     <g class="stem">
                        <rect stroke-opacity="1" fill-opacity="1" x="1415" y="6360" height="750" width="18" />
                     </g>
                  </g>
                  <g id="b4bj489" class="barLine">
                     <path d="M20649 6120 L20649 6840" stroke-width="27" />
                  </g>
               </g>
            </g>
            <g id="s1a2rmes" class="systemMilestoneEnd smlv5y5" />
         </g>
         <g id="p4vs11m" class="pageMilestoneEnd sjft1g2" />
         <g id="p1s8kxne" class="pageMilestoneEnd moqsi69" />
      </g>
   </svg>
</svg>
