<svg width="206px" height="102px" version="1.1" xmlns="http://www.w3.org/2000/svg" xmlns:xlink="http://www.w3.org/1999/xlink" xmlns:mei="http://www.music-encoding.org/ns/mei" overflow="visible">
   <desc>Engraved by Verovio 3.13.1-010bd42</desc>
   <defs>
      <symbol id="E262-10sz2ux" viewBox="0 0 1000 1000" overflow="inherit">
         <path transform="scale(1,-1)" d="M136 186v169h17v-164l44 14v-91l-44 -14v-165l44 12v-91l-44 -13v-155h-17v150l-76 -22v-155h-17v149l-43 -13v90l43 14v167l-43 -14v92l43 13v169h17v-163zM60 73v-167l76 22v168z" />
      </symbol>
      <symbol id="E050-10sz2ux" viewBox="0 0 1000 1000" overflow="inherit">
         <path transform="scale(1,-1)" d="M441 -245c-23 -4 -48 -6 -76 -6c-59 0 -102 7 -130 20c-88 42 -150 93 -187 154c-26 44 -43 103 -48 176c0 6 -1 13 -1 19c0 54 15 111 45 170c29 57 65 106 110 148s96 85 153 127c-3 16 -8 46 -13 92c-4 43 -5 73 -5 89c0 117 16 172 69 257c34 54 64 82 89 82 c21 0 43 -30 69 -92s39 -115 41 -159v-15c0 -109 -21 -162 -67 -241c-13 -20 -63 -90 -98 -118c-13 -9 -25 -19 -37 -29l31 -181c8 1 18 2 28 2c58 0 102 -12 133 -35c59 -43 92 -104 98 -184c1 -7 1 -15 1 -22c0 -123 -87 -209 -181 -248c8 -57 17 -110 25 -162 c5 -31 6 -58 6 -80c0 -30 -5 -53 -14 -70c-35 -64 -88 -99 -158 -103c-5 0 -11 -1 -16 -1c-37 0 -72 10 -108 27c-50 24 -77 59 -80 105v11c0 29 7 55 20 76c18 28 45 42 79 44h6c49 0 93 -42 97 -87v-9c0 -51 -34 -86 -105 -106c17 -24 51 -36 102 -36c62 0 116 43 140 85 c9 16 13 41 13 74c0 20 -1 42 -5 67c-8 53 -18 106 -26 159zM461 939c-95 0 -135 -175 -135 -286c0 -24 2 -48 5 -71c50 39 92 82 127 128c40 53 60 100 60 140v8c-4 53 -22 81 -55 81h-2zM406 119l54 -326c73 25 110 78 110 161c0 7 0 15 -1 23c-7 95 -57 142 -151 142h-12 zM382 117c-72 -2 -128 -47 -128 -120v-7c2 -46 43 -99 75 -115c-3 -2 -7 -5 -10 -10c-70 33 -116 88 -123 172v11c0 68 44 126 88 159c23 17 49 29 78 36l-29 170c-21 -13 -52 -37 -92 -73c-50 -44 -86 -84 -109 -119c-45 -69 -67 -130 -67 -182v-13c5 -68 35 -127 93 -176 s125 -73 203 -73c25 0 50 3 75 9c-19 111 -36 221 -54 331z" />
      </symbol>
      <symbol id="E08A-10sz2ux" viewBox="0 0 1000 1000" overflow="inherit">
         <path transform="scale(1,-1)" d="M340 179c-9 24 -56 41 -89 41c-46 0 -81 -28 -100 -58c-17 -28 -25 -78 -25 -150c0 -65 2 -111 8 -135c8 -31 18 -49 40 -67c20 -17 43 -25 70 -25c54 0 92 36 115 75c14 25 23 54 28 88h27c0 -63 -24 -105 -58 -141c-35 -38 -82 -56 -140 -56c-45 0 -83 13 -115 39 c-57 45 -101 130 -101 226c0 59 33 127 68 163c36 37 97 72 160 72c36 0 93 -21 121 -40c11 -8 23 -17 33 -30c19 -23 27 -48 27 -76c0 -51 -35 -88 -86 -88c-43 0 -76 27 -76 68c0 26 7 35 21 51c15 17 32 27 58 32c7 2 14 7 14 11z" />
      </symbol>
      <symbol id="E0A2-10sz2ux" viewBox="0 0 1000 1000" overflow="inherit">
         <path transform="scale(1,-1)" d="M198 133c102 0 207 -45 207 -133c0 -92 -98 -133 -207 -133c-101 0 -198 46 -198 133c0 88 93 133 198 133zM293 -21c0 14 -3 29 -8 44c-7 20 -18 38 -33 54c-20 21 -43 31 -68 31l-20 -2c-15 -5 -27 -14 -36 -28c-4 -9 -6 -17 -8 -24s-3 -16 -3 -27c0 -15 3 -34 9 -57 s18 -41 34 -55c15 -15 36 -23 62 -23c4 0 10 1 18 2c19 5 32 15 40 30s13 34 13 55z" />
      </symbol>
   </defs>
   <style type="text/css">g.page-margin{font-family:Times;} g.ending, g.fing, g.reh, g.tempo{font-weight:bold;} g.dir, g.dynam, g.mNum{font-style:italic;} g.label{font-weight:normal;}</style>
   <svg class="definition-scale" color="black" viewBox="0 0 4560 2260">
      <g class="page-margin" transform="translate(500, 500)">
         <g id="mtmdeed" class="mdiv pageMilestone" />
         <g id="s1ytwwdn" class="score pageMilestone" />
         <g id="swh4gyf" class="system">
            <g id="srjxj5z" class="section systemMilestone" />
            <g id="mojmygd" class="measure">
               <g id="s119bu1g" class="staff">
                  <path d="M0 255 L3566 255" stroke="currentColor" stroke-width="13" />
                  <path d="M0 435 L3566 435" stroke="currentColor" stroke-width="13" />
                  <path d="M0 615 L3566 615" stroke="currentColor" stroke-width="13" />
                  <path d="M0 795 L3566 795" stroke="currentColor" stroke-width="13" />
                  <path d="M0 975 L3566 975" stroke="currentColor" stroke-width="13" />
                  <g id="c10kmnra" class="clef">
                     <use xlink:href="#E050-10sz2ux" x="90" y="795" height="720px" width="720px" />
                  </g>
                  <g id="k1ka9jpe" class="keySig">
                     <g id="k1v3fo0c" class="keyAccid">
                        <use xlink:href="#E262-10sz2ux" x="735" y="255" height="720px" width="720px" />
                     </g>
                     <g id="k247e8r" class="keyAccid">
                        <use xlink:href="#E262-10sz2ux" x="913" y="525" height="720px" width="720px" />
                     </g>
                  </g>
                  <g id="m15nvxxx" class="meterSig">
                     <use xlink:href="#E08A-10sz2ux" x="1234" y="615" height="720px" width="720px" />
                  </g>
                  <g id="leit2ff" class="layer">
                     <g id="cvhyiv0" class="chord">
                        <g id="n1qdg0yy" class="note">
                           <g class="notehead">
                              <use xlink:href="#E0A2-10sz2ux" x="1802" y="1065" height="720px" width="720px" />
                           </g>
                           <g id="a1wryc95" class="accid" />
                        </g>
                        <g id="ngb1z18" class="note">
                           <g class="notehead">
                              <use xlink:href="#E0A2-10sz2ux" x="1802" y="885" height="720px" width="720px" />
                           </g>
                           <g id="a1l0qosn" class="accid" />
                        </g>
                        <g id="n1y16zh" class="note">
                           <g class="notehead">
                              <use xlink:href="#E0A2-10sz2ux" x="1802" y="705" height="720px" width="720px" />
                           </g>
                           <g id="am9gldr" class="accid" />
                        </g>
                     </g>
                  </g>
               </g>
               <g id="b1co6lqq" class="barLine">
                  <path d="M3391 255 L3391 975" stroke="currentColor" stroke-width="27" />
                  <path d="M3521 255 L3521 975" stroke="currentColor" stroke-width="90" />
               </g>
            </g>
            <g id="s9yzgtz" class="systemMilestoneEnd srjxj5z" />
         </g>
         <g id="p1upgee6" class="pageMilestoneEnd s1ytwwdn" />
         <g id="pe2kfvk" class="pageMilestoneEnd mtmdeed" />
      </g>
   </svg>
</svg>
