<svg width="1050px" height="185.5px" version="1.1" xmlns="http://www.w3.org/2000/svg" xmlns:xlink="http://www.w3.org/1999/xlink" xmlns:mei="http://www.music-encoding.org/ns/mei" overflow="visible">
   <desc>Engraved by Verovio 3.4.1-8f65a58</desc>
   <defs>
      <symbol id="E050-0000000978719103" viewBox="0 0 1000 1000" overflow="inherit">
         <path transform="scale(1,-1)" d="M441 -245c-23 -4 -48 -6 -76 -6c-59 0 -102 7 -130 20c-88 42 -150 93 -187 154c-26 44 -43 103 -48 176c0 6 -1 13 -1 19c0 54 15 111 45 170c29 57 65 106 110 148s96 85 153 127c-3 16 -8 46 -13 92c-4 43 -5 73 -5 89c0 117 16 172 69 257c34 54 64 82 89 82 c21 0 43 -30 69 -92s39 -115 41 -159v-15c0 -109 -21 -162 -67 -241c-13 -20 -63 -90 -98 -118c-13 -9 -25 -19 -37 -29l31 -181c8 1 18 2 28 2c58 0 102 -12 133 -35c59 -43 92 -104 98 -184c1 -7 1 -15 1 -22c0 -123 -87 -209 -181 -248c8 -57 17 -110 25 -162 c5 -31 6 -58 6 -80c0 -30 -5 -53 -14 -70c-35 -64 -88 -99 -158 -103c-5 0 -11 -1 -16 -1c-37 0 -72 10 -108 27c-50 24 -77 59 -80 105v11c0 29 7 55 20 76c18 28 45 42 79 44h6c49 0 93 -42 97 -87v-9c0 -51 -34 -86 -105 -106c17 -24 51 -36 102 -36c62 0 116 43 140 85 c9 16 13 41 13 74c0 20 -1 42 -5 67c-8 53 -18 106 -26 159zM461 939c-95 0 -135 -175 -135 -286c0 -24 2 -48 5 -71c50 39 92 82 127 128c40 53 60 100 60 140v8c-4 53 -22 81 -55 81h-2zM406 119l54 -326c73 25 110 78 110 161c0 7 0 15 -1 23c-7 95 -57 142 -151 142h-12 zM382 117c-72 -2 -128 -47 -128 -120v-7c2 -46 43 -99 75 -115c-3 -2 -7 -5 -10 -10c-70 33 -116 88 -123 172v11c0 68 44 126 88 159c23 17 49 29 78 36l-29 170c-21 -13 -52 -37 -92 -73c-50 -44 -86 -84 -109 -119c-45 -69 -67 -130 -67 -182v-13c5 -68 35 -127 93 -176 s125 -73 203 -73c25 0 50 3 75 9c-19 111 -36 221 -54 331z" />
      </symbol>
      <symbol id="E084-0000000978719103" viewBox="0 0 1000 1000" overflow="inherit">
         <path transform="scale(1,-1)" d="M0 -78c84 97 114 180 134 329h170c-13 -32 -82 -132 -99 -151l-84 -97c-33 -36 -59 -63 -80 -81h162v102l127 123v-225h57v-39h-57v-34c0 -43 19 -65 57 -65v-34h-244v36c48 0 60 26 60 70v27h-203v39z" />
      </symbol>
      <symbol id="E0A3-0000000978719103" viewBox="0 0 1000 1000" overflow="inherit">
         <path transform="scale(1,-1)" d="M278 64c0 22 -17 39 -43 39c-12 0 -26 -3 -41 -10c-85 -43 -165 -94 -165 -156c5 -25 15 -32 49 -32c67 11 200 95 200 159zM0 -36c0 68 73 174 200 174c66 0 114 -39 114 -97c0 -84 -106 -173 -218 -173c-64 0 -96 32 -96 96z" />
      </symbol>
      <symbol id="E0A4-0000000978719103" viewBox="0 0 1000 1000" overflow="inherit">
         <path transform="scale(1,-1)" d="M0 -39c0 68 73 172 200 172c66 0 114 -37 114 -95c0 -84 -106 -171 -218 -171c-64 0 -96 30 -96 94z" />
      </symbol>
      <symbol id="E240-0000000978719103" viewBox="0 0 1000 1000" overflow="inherit">
         <path transform="scale(1,-1)" d="M179 -646c15 29 29 55 46 102c18 49 30 108 30 138c0 105 -80 173 -168 200c-18 5 -47 9 -87 16v190h22c8 0 33 -61 71 -95c4 -3 -2 3 61 -56c62 -58 122 -137 122 -241c0 -38 -13 -106 -35 -163c-20 -51 -43 -99 -66 -132c-6 -5 -10 -7 -13 -7s-5 2 -5 5l4 10 c1 3 14 25 18 33z" />
      </symbol>
      <symbol id="E241-0000000978719103" viewBox="0 0 1000 1000" overflow="inherit">
         <path transform="scale(1,-1)" d="M179 646c-4 8 -17 30 -18 33l-4 10c0 3 2 5 5 5s7 -2 13 -7c23 -33 46 -81 66 -132c22 -57 35 -125 35 -163c0 -104 -60 -183 -122 -241c-63 -59 -57 -53 -61 -56c-38 -34 -63 -95 -71 -95h-22v190c40 7 69 11 87 16c88 27 168 95 168 200c0 30 -12 89 -30 138 c-17 47 -31 73 -46 102z" />
      </symbol>
      <symbol id="E262-0000000978719103" viewBox="0 0 1000 1000" overflow="inherit">
         <path transform="scale(1,-1)" d="M136 186v169h17v-164l44 14v-91l-44 -14v-165l44 12v-91l-44 -13v-155h-17v150l-76 -22v-155h-17v149l-43 -13v90l43 14v167l-43 -14v92l43 13v169h17v-163zM60 73v-167l76 22v168z" />
      </symbol>
   </defs>
   <style type="text/css">g.page-margin{font-family:Times;} g.ending, g.reh, g.tempo{font-weight:bold;} g.dir, g.dynam, g.mNum{font-style:italic;} g.label{font-weight:normal;}</style>
   <svg class="definition-scale" color="black" viewBox="0 0 21000 3710">
      <g class="page-margin" transform="translate(500, 500)">
         <g id="system-0000000784170963" class="system">
            <g id="section-0000001441282327" class="section boundaryStart" />
            <g id="abcLine07" class="pb" />
            <g id="measure-0000000896544303" class="measure">
               <g id="staff-0000001505795335" class="staff">
                  <path d="M0 1705 L2307 1705" stroke="currentColor" stroke-width="13" />
                  <path d="M0 1885 L2307 1885" stroke="currentColor" stroke-width="13" />
                  <path d="M0 2065 L2307 2065" stroke="currentColor" stroke-width="13" />
                  <path d="M0 2245 L2307 2245" stroke="currentColor" stroke-width="13" />
                  <path d="M0 2425 L2307 2425" stroke="currentColor" stroke-width="13" />
                  <g id="clef-0000000529855395" class="clef">
                     <use xlink:href="#E050-0000000978719103" x="90" y="2245" height="720px" width="720px" />
                  </g>
                  <g id="keysig-0000001812423303" class="keySig">
                     <use xlink:href="#E262-0000000978719103" x="735" y="1705" height="720px" width="720px" />
                  </g>
                  <g id="msig-0000001490404473" class="meterSig">
                     <use xlink:href="#E084-0000000978719103" x="1056" y="1885" height="720px" width="720px" />
                     <use xlink:href="#E084-0000000978719103" x="1056" y="2245" height="720px" width="720px" />
                  </g>
                  <g id="layer-0000000823378840" class="layer">
                     <g id="note-0000000143542612" class="note">
                        <g class="notehead">
                           <use xlink:href="#E0A4-0000000978719103" x="1604" y="2515" height="720px" width="720px" />
                        </g>
                        <g id="stem-0000001807130337" class="stem">
                           <rect x="1812" y="1885" height="602" width="18" />
                        </g>
                     </g>
                  </g>
               </g>
               <g id="bline-0000000893351816" class="barLineAttr">
                  <path d="M2294 2425 L2294 1705" stroke="currentColor" stroke-width="27" />
               </g>
            </g>
            <g id="measure-0000000704877633" class="measure">
               <g id="staff-0000001399125485" class="staff">
                  <path d="M2307 1705 L5256 1705" stroke="currentColor" stroke-width="13" />
                  <path d="M2307 1885 L5256 1885" stroke="currentColor" stroke-width="13" />
                  <path d="M2307 2065 L5256 2065" stroke="currentColor" stroke-width="13" />
                  <path d="M2307 2245 L5256 2245" stroke="currentColor" stroke-width="13" />
                  <path d="M2307 2425 L5256 2425" stroke="currentColor" stroke-width="13" />
                  <g id="layer-0000001954899097" class="layer">
                     <g id="note-0000001636807826" class="note">
                        <g class="notehead">
                           <use xlink:href="#E0A4-0000000978719103" x="2487" y="2245" height="720px" width="720px" />
                        </g>
                        <g id="dots-0000000892053144" class="dots">
                           <ellipse cx="2803" cy="2155" rx="36" ry="36" />
                        </g>
                        <g id="stem-0000000578354438" class="stem">
                           <rect x="2695" y="1615" height="602" width="18" />
                        </g>
                     </g>
                     <g id="note-0000000563613512" class="note">
                        <g class="notehead">
                           <use xlink:href="#E0A4-0000000978719103" x="3367" y="2155" height="720px" width="720px" />
                        </g>
                        <g id="stem-0000001153851501" class="stem">
                           <rect x="3575" y="1525" height="602" width="18" />
                           <g id="flag-0000001004844897" class="flag">
                              <use xlink:href="#E240-0000000978719103" x="3575" y="1525" height="720px" width="720px" />
                           </g>
                        </g>
                     </g>
                     <g id="note-0000000101929267" class="note">
                        <g class="notehead">
                           <use xlink:href="#E0A4-0000000978719103" x="3863" y="2065" height="720px" width="720px" />
                        </g>
                        <g id="stem-0000000616783871" class="stem">
                           <rect x="3863" y="2093" height="572" width="18" />
                        </g>
                     </g>
                     <g id="note-0000001580723810" class="note">
                        <g class="notehead">
                           <use xlink:href="#E0A4-0000000978719103" x="4553" y="2245" height="720px" width="720px" />
                        </g>
                        <g id="stem-0000000382955828" class="stem">
                           <rect x="4761" y="1615" height="602" width="18" />
                        </g>
                     </g>
                  </g>
               </g>
               <g id="bline-0000001617819336" class="barLineAttr">
                  <path d="M5243 2425 L5243 1705" stroke="currentColor" stroke-width="27" />
               </g>
            </g>
            <g id="measure-0000001646035001" class="measure">
               <g id="staff-0000000130060903" class="staff">
                  <path d="M5256 1705 L8159 1705" stroke="currentColor" stroke-width="13" />
                  <path d="M5256 1885 L8159 1885" stroke="currentColor" stroke-width="13" />
                  <path d="M5256 2065 L8159 2065" stroke="currentColor" stroke-width="13" />
                  <path d="M5256 2245 L8159 2245" stroke="currentColor" stroke-width="13" />
                  <path d="M5256 2425 L8159 2425" stroke="currentColor" stroke-width="13" />
                  <g id="layer-0000000156091745" class="layer">
                     <g id="note-0000001356425228" class="note">
                        <g class="notehead">
                           <use xlink:href="#E0A4-0000000978719103" x="5436" y="2155" height="720px" width="720px" />
                        </g>
                        <g id="dots-0000001227619358" class="dots">
                           <ellipse cx="5752" cy="2155" rx="36" ry="36" />
                        </g>
                        <g id="stem-0000000330111137" class="stem">
                           <rect x="5644" y="1525" height="602" width="18" />
                        </g>
                     </g>
                     <g id="note-0000001899894091" class="note">
                        <g class="notehead">
                           <use xlink:href="#E0A4-0000000978719103" x="6316" y="2065" height="720px" width="720px" />
                        </g>
                        <g id="stem-0000001723153177" class="stem">
                           <rect x="6316" y="2093" height="572" width="18" />
                           <g id="flag-0000000070982397" class="flag">
                              <use xlink:href="#E241-0000000978719103" x="6316" y="2665" height="720px" width="720px" />
                           </g>
                        </g>
                     </g>
                     <g id="note-0000000585640194" class="note">
                        <g class="notehead">
                           <use xlink:href="#E0A4-0000000978719103" x="6766" y="2155" height="720px" width="720px" />
                        </g>
                        <g id="stem-0000001147722294" class="stem">
                           <rect x="6974" y="1525" height="602" width="18" />
                        </g>
                     </g>
                     <g id="note-0000000937186357" class="note">
                        <g class="notehead">
                           <use xlink:href="#E0A4-0000000978719103" x="7456" y="2515" height="720px" width="720px" />
                        </g>
                        <g id="stem-0000001070477904" class="stem">
                           <rect x="7664" y="1885" height="602" width="18" />
                        </g>
                     </g>
                  </g>
               </g>
               <g id="bline-0000001952509530" class="barLineAttr">
                  <path d="M8146 2425 L8146 1705" stroke="currentColor" stroke-width="27" />
               </g>
            </g>
            <g id="measure-0000001060806853" class="measure">
               <g id="staff-0000001137623865" class="staff">
                  <path d="M8159 1705 L11108 1705" stroke="currentColor" stroke-width="13" />
                  <path d="M8159 1885 L11108 1885" stroke="currentColor" stroke-width="13" />
                  <path d="M8159 2065 L11108 2065" stroke="currentColor" stroke-width="13" />
                  <path d="M8159 2245 L11108 2245" stroke="currentColor" stroke-width="13" />
                  <path d="M8159 2425 L11108 2425" stroke="currentColor" stroke-width="13" />
                  <g id="layer-0000001942727722" class="layer">
                     <g id="note-0000001083454666" class="note">
                        <g class="notehead">
                           <use xlink:href="#E0A4-0000000978719103" x="8339" y="2245" height="720px" width="720px" />
                        </g>
                        <g id="dots-0000001606946231" class="dots">
                           <ellipse cx="8655" cy="2155" rx="36" ry="36" />
                        </g>
                        <g id="stem-0000002051621609" class="stem">
                           <rect x="8547" y="1615" height="602" width="18" />
                        </g>
                     </g>
                     <g id="note-0000001108728549" class="note">
                        <g class="notehead">
                           <use xlink:href="#E0A4-0000000978719103" x="9219" y="2155" height="720px" width="720px" />
                        </g>
                        <g id="stem-0000001190959745" class="stem">
                           <rect x="9427" y="1525" height="602" width="18" />
                           <g id="flag-0000001912844175" class="flag">
                              <use xlink:href="#E240-0000000978719103" x="9427" y="1525" height="720px" width="720px" />
                           </g>
                        </g>
                     </g>
                     <g id="note-0000000685118024" class="note">
                        <g class="notehead">
                           <use xlink:href="#E0A4-0000000978719103" x="9715" y="2065" height="720px" width="720px" />
                        </g>
                        <g id="stem-0000001341853635" class="stem">
                           <rect x="9715" y="2093" height="572" width="18" />
                        </g>
                     </g>
                     <g id="note-0000002118797801" class="note">
                        <g class="notehead">
                           <use xlink:href="#E0A4-0000000978719103" x="10405" y="2155" height="720px" width="720px" />
                        </g>
                        <g id="stem-0000001808266298" class="stem">
                           <rect x="10613" y="1525" height="602" width="18" />
                        </g>
                     </g>
                  </g>
               </g>
               <g id="bline-0000001962408013" class="barLineAttr">
                  <path d="M11095 2425 L11095 1705" stroke="currentColor" stroke-width="27" />
               </g>
            </g>
            <g id="measure-0000000107554536" class="measure">
               <g id="staff-0000001581030105" class="staff">
                  <path d="M11108 1705 L12803 1705" stroke="currentColor" stroke-width="13" />
                  <path d="M11108 1885 L12803 1885" stroke="currentColor" stroke-width="13" />
                  <path d="M11108 2065 L12803 2065" stroke="currentColor" stroke-width="13" />
                  <path d="M11108 2245 L12803 2245" stroke="currentColor" stroke-width="13" />
                  <path d="M11108 2425 L12803 2425" stroke="currentColor" stroke-width="13" />
                  <g id="layer-0000000997389814" class="layer">
                     <g id="note-0000002020739063" class="note">
                        <g class="notehead">
                           <use xlink:href="#E0A3-0000000978719103" x="11288" y="2245" height="720px" width="720px" />
                        </g>
                        <g id="dots-0000000456880399" class="dots">
                           <ellipse cx="11604" cy="2155" rx="36" ry="36" />
                        </g>
                        <g id="stem-0000000343098142" class="stem">
                           <rect x="11496" y="1615" height="601" width="18" />
                        </g>
                     </g>
                  </g>
               </g>
               <g id="bline-0000001351934195" class="barLineAttr">
                  <path d="M12628 2425 L12628 1705" stroke="currentColor" stroke-width="27" />
                  <path d="M12758 2425 L12758 1705" stroke="currentColor" stroke-width="90" />
               </g>
            </g>
            <g id="abcLine08" class="sb" />
            <g id="bdend-0000000884936716" class="boundaryEnd section-0000001441282327" />
         </g>
         <g id="pghead-0000000470211272" class="pgHead">
            <text x="0" y="0" font-size="0px">
               <tspan id="rend-0000000101027544" class="rend" x="10000" y="277" text-anchor="middle">
                  <tspan id="text-0000001457850878" class="text">
                     <tspan font-size="405px" class="text">Short tune</tspan>
                  </tspan>
               </tspan>
            </text>
            <text x="0" y="0" font-size="0px">
               <tspan id="rend-0000001458777923" class="rend" x="20000" y="642" text-anchor="end">
                  <tspan id="text-0000002007237709" class="text">
                     <tspan font-size="405px" class="text">K. Rettinghaus</tspan>
                  </tspan>
               </tspan>
            </text>
         </g>
      </g>
   </svg>
</svg>
