<svg width="945px" height="143px" version="1.1" xmlns="http://www.w3.org/2000/svg" xmlns:xlink="http://www.w3.org/1999/xlink" xmlns:mei="http://www.music-encoding.org/ns/mei" overflow="visible">
   <desc>Engraved by Verovio 3.13.1-010bd42</desc>
   <defs>
      <symbol id="E241-14l7c9" viewBox="0 0 1000 1000" overflow="inherit">
         <path transform="scale(1,-1)" d="M179 646c-4 8 -17 30 -18 33l-4 10c0 3 2 5 5 5s7 -2 13 -7c23 -33 46 -81 66 -132c22 -57 35 -125 35 -163c0 -104 -60 -183 -122 -241c-63 -59 -57 -53 -61 -56c-38 -34 -63 -95 -71 -95h-22v190c40 7 69 11 87 16c88 27 168 95 168 200c0 30 -12 89 -30 138 c-17 47 -31 73 -46 102z" />
      </symbol>
      <symbol id="E262-14l7c9" viewBox="0 0 1000 1000" overflow="inherit">
         <path transform="scale(1,-1)" d="M136 186v169h17v-164l44 14v-91l-44 -14v-165l44 12v-91l-44 -13v-155h-17v150l-76 -22v-155h-17v149l-43 -13v90l43 14v167l-43 -14v92l43 13v169h17v-163zM60 73v-167l76 22v168z" />
      </symbol>
      <symbol id="E050-14l7c9" viewBox="0 0 1000 1000" overflow="inherit">
         <path transform="scale(1,-1)" d="M441 -245c-23 -4 -48 -6 -76 -6c-59 0 -102 7 -130 20c-88 42 -150 93 -187 154c-26 44 -43 103 -48 176c0 6 -1 13 -1 19c0 54 15 111 45 170c29 57 65 106 110 148s96 85 153 127c-3 16 -8 46 -13 92c-4 43 -5 73 -5 89c0 117 16 172 69 257c34 54 64 82 89 82 c21 0 43 -30 69 -92s39 -115 41 -159v-15c0 -109 -21 -162 -67 -241c-13 -20 -63 -90 -98 -118c-13 -9 -25 -19 -37 -29l31 -181c8 1 18 2 28 2c58 0 102 -12 133 -35c59 -43 92 -104 98 -184c1 -7 1 -15 1 -22c0 -123 -87 -209 -181 -248c8 -57 17 -110 25 -162 c5 -31 6 -58 6 -80c0 -30 -5 -53 -14 -70c-35 -64 -88 -99 -158 -103c-5 0 -11 -1 -16 -1c-37 0 -72 10 -108 27c-50 24 -77 59 -80 105v11c0 29 7 55 20 76c18 28 45 42 79 44h6c49 0 93 -42 97 -87v-9c0 -51 -34 -86 -105 -106c17 -24 51 -36 102 -36c62 0 116 43 140 85 c9 16 13 41 13 74c0 20 -1 42 -5 67c-8 53 -18 106 -26 159zM461 939c-95 0 -135 -175 -135 -286c0 -24 2 -48 5 -71c50 39 92 82 127 128c40 53 60 100 60 140v8c-4 53 -22 81 -55 81h-2zM406 119l54 -326c73 25 110 78 110 161c0 7 0 15 -1 23c-7 95 -57 142 -151 142h-12 zM382 117c-72 -2 -128 -47 -128 -120v-7c2 -46 43 -99 75 -115c-3 -2 -7 -5 -10 -10c-70 33 -116 88 -123 172v11c0 68 44 126 88 159c23 17 49 29 78 36l-29 170c-21 -13 -52 -37 -92 -73c-50 -44 -86 -84 -109 -119c-45 -69 -67 -130 -67 -182v-13c5 -68 35 -127 93 -176 s125 -73 203 -73c25 0 50 3 75 9c-19 111 -36 221 -54 331z" />
      </symbol>
      <symbol id="E084-14l7c9" viewBox="0 0 1000 1000" overflow="inherit">
         <path transform="scale(1,-1)" d="M20 -78c84 97 114 180 134 329h170c-13 -32 -82 -132 -99 -151l-84 -97c-33 -36 -59 -63 -80 -81h162v102l127 123v-225h57v-39h-57v-34c0 -43 19 -65 57 -65v-34h-244v36c48 0 60 26 60 70v27h-203v39z" />
      </symbol>
      <symbol id="E0A3-14l7c9" viewBox="0 0 1000 1000" overflow="inherit">
         <path transform="scale(1,-1)" d="M278 64c0 22 -17 39 -43 39c-12 0 -26 -3 -41 -10c-85 -43 -165 -94 -165 -156c5 -25 15 -32 49 -32c67 11 200 95 200 159zM0 -36c0 68 73 174 200 174c66 0 114 -39 114 -97c0 -84 -106 -173 -218 -173c-64 0 -96 32 -96 96z" />
      </symbol>
      <symbol id="E0A4-14l7c9" viewBox="0 0 1000 1000" overflow="inherit">
         <path transform="scale(1,-1)" d="M0 -39c0 68 73 172 200 172c66 0 114 -37 114 -95c0 -84 -106 -171 -218 -171c-64 0 -96 30 -96 94z" />
      </symbol>
      <symbol id="E240-14l7c9" viewBox="0 0 1000 1000" overflow="inherit">
         <path transform="scale(1,-1)" d="M179 -646c15 29 29 55 46 102c18 49 30 108 30 138c0 105 -80 173 -168 200c-18 5 -47 9 -87 16v190h22c8 0 33 -61 71 -95c4 -3 -2 3 61 -56c62 -58 122 -137 122 -241c0 -38 -13 -106 -35 -163c-20 -51 -43 -99 -66 -132c-6 -5 -10 -7 -13 -7s-5 2 -5 5l4 10 c1 3 14 25 18 33z" />
      </symbol>
   </defs>
   <style type="text/css">g.page-margin{font-family:Times;} g.ending, g.fing, g.reh, g.tempo{font-weight:bold;} g.dir, g.dynam, g.mNum{font-style:italic;} g.label{font-weight:normal;}</style>
   <svg class="definition-scale" color="black" viewBox="0 0 21000 3170">
      <g class="page-margin" transform="translate(500, 500)">
         <g id="mtmdeed" class="mdiv pageMilestone" />
         <g id="saj27" class="score pageMilestone" />
         <g id="s8maedm" class="system">
            <g id="s129tcc2" class="section systemMilestone" />
            <g id="abcLine08" class="pb" />
            <g id="m1co6lqq" class="measure">
               <g id="s1sx3qkk" class="staff">
                  <path d="M0 1165 L2307 1165" stroke="currentColor" stroke-width="13" />
                  <path d="M0 1345 L2307 1345" stroke="currentColor" stroke-width="13" />
                  <path d="M0 1525 L2307 1525" stroke="currentColor" stroke-width="13" />
                  <path d="M0 1705 L2307 1705" stroke="currentColor" stroke-width="13" />
                  <path d="M0 1885 L2307 1885" stroke="currentColor" stroke-width="13" />
                  <g id="c15tqa4s" class="clef">
                     <use xlink:href="#E050-14l7c9" x="90" y="1705" height="720px" width="720px" />
                  </g>
                  <g id="k17h16c2" class="keySig">
                     <g id="k3f3a7e" class="keyAccid">
                        <use xlink:href="#E262-14l7c9" x="735" y="1165" height="720px" width="720px" />
                     </g>
                  </g>
                  <g id="m3tuoaz" class="meterSig">
                     <use xlink:href="#E084-14l7c9" x="1042" y="1345" height="720px" width="720px" />
                     <use xlink:href="#E084-14l7c9" x="1042" y="1705" height="720px" width="720px" />
                  </g>
                  <g id="ltrxe66" class="layer">
                     <g id="nm92q1x" class="note">
                        <g class="notehead">
                           <use xlink:href="#E0A4-14l7c9" x="1604" y="1975" height="720px" width="720px" />
                        </g>
                        <g id="s1c7ux5f" class="stem">
                           <rect x="1812" y="1345" height="602" width="18" />
                        </g>
                     </g>
                  </g>
               </g>
               <g id="b1bmglde" class="barLine">
                  <path d="M2294 1165 L2294 1885" stroke="currentColor" stroke-width="27" />
               </g>
            </g>
            <g id="m1upgee6" class="measure">
               <g id="s1d6chli" class="staff">
                  <path d="M2307 1165 L5256 1165" stroke="currentColor" stroke-width="13" />
                  <path d="M2307 1345 L5256 1345" stroke="currentColor" stroke-width="13" />
                  <path d="M2307 1525 L5256 1525" stroke="currentColor" stroke-width="13" />
                  <path d="M2307 1705 L5256 1705" stroke="currentColor" stroke-width="13" />
                  <path d="M2307 1885 L5256 1885" stroke="currentColor" stroke-width="13" />
                  <g id="ltn3fmf" class="layer">
                     <g id="nwh4gyf" class="note">
                        <g class="notehead">
                           <use xlink:href="#E0A4-14l7c9" x="2487" y="1705" height="720px" width="720px" />
                        </g>
                        <g id="df15nd4" class="dots">
                           <ellipse cx="2803" cy="1615" rx="36" ry="36" />
                        </g>
                        <g id="s1t4imxy" class="stem">
                           <rect x="2695" y="1075" height="602" width="18" />
                        </g>
                     </g>
                     <g id="n13oms4p" class="note">
                        <g class="notehead">
                           <use xlink:href="#E0A4-14l7c9" x="3367" y="1615" height="720px" width="720px" />
                        </g>
                        <g id="s1so4aao" class="stem">
                           <rect x="3575" y="985" height="602" width="18" />
                           <g id="fiv16ea" class="flag">
                              <use xlink:href="#E240-14l7c9" x="3575" y="985" height="720px" width="720px" />
                           </g>
                        </g>
                     </g>
                     <g id="nulcesx" class="note">
                        <g class="notehead">
                           <use xlink:href="#E0A4-14l7c9" x="3863" y="1525" height="720px" width="720px" />
                        </g>
                        <g id="sl8ebre" class="stem">
                           <rect x="3863" y="1553" height="572" width="18" />
                        </g>
                     </g>
                     <g id="n9yzgtz" class="note">
                        <g class="notehead">
                           <use xlink:href="#E0A4-14l7c9" x="4553" y="1705" height="720px" width="720px" />
                        </g>
                        <g id="syx0aaf" class="stem">
                           <rect x="4761" y="1075" height="602" width="18" />
                        </g>
                     </g>
                  </g>
               </g>
               <g id="b6lavjx" class="barLine">
                  <path d="M5243 1165 L5243 1885" stroke="currentColor" stroke-width="27" />
               </g>
            </g>
            <g id="m61gu14" class="measure">
               <g id="s164j9s7" class="staff">
                  <path d="M5256 1165 L8159 1165" stroke="currentColor" stroke-width="13" />
                  <path d="M5256 1345 L8159 1345" stroke="currentColor" stroke-width="13" />
                  <path d="M5256 1525 L8159 1525" stroke="currentColor" stroke-width="13" />
                  <path d="M5256 1705 L8159 1705" stroke="currentColor" stroke-width="13" />
                  <path d="M5256 1885 L8159 1885" stroke="currentColor" stroke-width="13" />
                  <g id="l10sz2ux" class="layer">
                     <g id="n1q90xdt" class="note">
                        <g class="notehead">
                           <use xlink:href="#E0A4-14l7c9" x="5436" y="1615" height="720px" width="720px" />
                        </g>
                        <g id="d3sgcfj" class="dots">
                           <ellipse cx="5752" cy="1615" rx="36" ry="36" />
                        </g>
                        <g id="s15ick27" class="stem">
                           <rect x="5644" y="985" height="602" width="18" />
                        </g>
                     </g>
                     <g id="n1pfycn4" class="note">
                        <g class="notehead">
                           <use xlink:href="#E0A4-14l7c9" x="6316" y="1525" height="720px" width="720px" />
                        </g>
                        <g id="s1473mmv" class="stem">
                           <rect x="6316" y="1553" height="572" width="18" />
                           <g id="f14s302h" class="flag">
                              <use xlink:href="#E241-14l7c9" x="6316" y="2125" height="720px" width="720px" />
                           </g>
                        </g>
                     </g>
                     <g id="n1rjlykc" class="note">
                        <g class="notehead">
                           <use xlink:href="#E0A4-14l7c9" x="6766" y="1615" height="720px" width="720px" />
                        </g>
                        <g id="s17lwqmf" class="stem">
                           <rect x="6974" y="985" height="602" width="18" />
                        </g>
                     </g>
                     <g id="n1mw7zrl" class="note">
                        <g class="notehead">
                           <use xlink:href="#E0A4-14l7c9" x="7456" y="1975" height="720px" width="720px" />
                        </g>
                        <g id="saf794j" class="stem">
                           <rect x="7664" y="1345" height="602" width="18" />
                        </g>
                     </g>
                  </g>
               </g>
               <g id="b6zhf6m" class="barLine">
                  <path d="M8146 1165 L8146 1885" stroke="currentColor" stroke-width="27" />
               </g>
            </g>
            <g id="me15r7n" class="measure">
               <g id="s1arjot" class="staff">
                  <path d="M8159 1165 L11108 1165" stroke="currentColor" stroke-width="13" />
                  <path d="M8159 1345 L11108 1345" stroke="currentColor" stroke-width="13" />
                  <path d="M8159 1525 L11108 1525" stroke="currentColor" stroke-width="13" />
                  <path d="M8159 1705 L11108 1705" stroke="currentColor" stroke-width="13" />
                  <path d="M8159 1885 L11108 1885" stroke="currentColor" stroke-width="13" />
                  <g id="ltwti83" class="layer">
                     <g id="n1bphtqe" class="note">
                        <g class="notehead">
                           <use xlink:href="#E0A4-14l7c9" x="8339" y="1705" height="720px" width="720px" />
                        </g>
                        <g id="d15ux556" class="dots">
                           <ellipse cx="8655" cy="1615" rx="36" ry="36" />
                        </g>
                        <g id="s1vxywd8" class="stem">
                           <rect x="8547" y="1075" height="602" width="18" />
                        </g>
                     </g>
                     <g id="n1w1fj4l" class="note">
                        <g class="notehead">
                           <use xlink:href="#E0A4-14l7c9" x="9219" y="1615" height="720px" width="720px" />
                        </g>
                        <g id="sijcp1a" class="stem">
                           <rect x="9427" y="985" height="602" width="18" />
                           <g id="f1dpczse" class="flag">
                              <use xlink:href="#E240-14l7c9" x="9427" y="985" height="720px" width="720px" />
                           </g>
                        </g>
                     </g>
                     <g id="nt8zkfl" class="note">
                        <g class="notehead">
                           <use xlink:href="#E0A4-14l7c9" x="9715" y="1525" height="720px" width="720px" />
                        </g>
                        <g id="sgeqd9c" class="stem">
                           <rect x="9715" y="1553" height="572" width="18" />
                        </g>
                     </g>
                     <g id="n11vd3cp" class="note">
                        <g class="notehead">
                           <use xlink:href="#E0A4-14l7c9" x="10405" y="1615" height="720px" width="720px" />
                        </g>
                        <g id="s79oi54" class="stem">
                           <rect x="10613" y="985" height="602" width="18" />
                        </g>
                     </g>
                  </g>
               </g>
               <g id="btawp5c" class="barLine">
                  <path d="M11095 1165 L11095 1885" stroke="currentColor" stroke-width="27" />
               </g>
            </g>
            <g id="m18bpqky" class="measure">
               <g id="s7bykuy" class="staff">
                  <path d="M11108 1165 L12803 1165" stroke="currentColor" stroke-width="13" />
                  <path d="M11108 1345 L12803 1345" stroke="currentColor" stroke-width="13" />
                  <path d="M11108 1525 L12803 1525" stroke="currentColor" stroke-width="13" />
                  <path d="M11108 1705 L12803 1705" stroke="currentColor" stroke-width="13" />
                  <path d="M11108 1885 L12803 1885" stroke="currentColor" stroke-width="13" />
                  <g id="l2fdoc3" class="layer">
                     <g id="n1ha7bqh" class="note">
                        <g class="notehead">
                           <use xlink:href="#E0A3-14l7c9" x="11288" y="1705" height="720px" width="720px" />
                        </g>
                        <g id="dtesczb" class="dots">
                           <ellipse cx="11604" cy="1615" rx="36" ry="36" />
                        </g>
                        <g id="s11w35w7" class="stem">
                           <rect x="11496" y="1075" height="602" width="18" />
                        </g>
                     </g>
                  </g>
               </g>
               <g id="bfrzwqv" class="barLine">
                  <path d="M12628 1165 L12628 1885" stroke="currentColor" stroke-width="27" />
                  <path d="M12758 1165 L12758 1885" stroke="currentColor" stroke-width="90" />
               </g>
            </g>
            <g id="abcLine09" class="sb" />
            <g id="s98hx0k" class="systemMilestoneEnd s129tcc2" />
         </g>
         <g id="p119yyl7" class="pageMilestoneEnd saj27" />
         <g id="p1diug5" class="pageMilestoneEnd mtmdeed" />
         <g id="prjxj5z" class="pgHead">
            <text x="0" y="0" font-size="0px">
               <tspan id="rojmygd" class="rend" x="10000" y="277" text-anchor="middle">
                  <tspan id="t1bkm6f0" class="text">
                     <tspan font-size="405px" class="text">Short tune</tspan>
                  </tspan>
               </tspan>
            </text>
            <text x="0" y="0" font-size="0px">
               <tspan id="rs6kuiu" class="rend" x="20000" y="642" text-anchor="end">
                  <tspan id="t1uga1ax" class="text">
                     <tspan font-size="405px" class="text">K. Rettinghaus</tspan>
                  </tspan>
               </tspan>
            </text>
         </g>
      </g>
   </svg>
</svg>
