<svg width="267px" height="105px" version="1.1" xmlns="http://www.w3.org/2000/svg" xmlns:xlink="http://www.w3.org/1999/xlink" overflow="visible" id="l19nj5e9">
   <desc>Engraved by Verovio 5.3.2-4f22bb0</desc>
   <defs>
      <g id="E082-l19nj5e9">
         <path transform="scale(1,-1)" d="M124 -185c-18 0 -55 -14 -65 -65h-36l-3 30c0 25 6 45 18 63c11 19 22 30 39 43l121 82l37 29c15 11 27 29 38 54c12 24 18 47 18 70c0 40 -19 88 -94 88c-25 0 -32 0 -50 -8c-14 -5 -23 -12 -26 -22c3 -9 7 -15 10 -18l24 -17c12 -7 17 -11 27 -21c5 -7 7 -16 7 -27 c0 -12 0 -57 -79 -74c-30 0 -76 26 -76 94c0 66 81 135 197 135c72 0 181 -32 181 -150c0 -53 -32 -95 -113 -133l-91 -41c-26 -11 -45 -23 -57 -37l49 7c84 0 115 -41 148 -41c20 0 33 20 39 61h35c0 -152 -68 -168 -114 -168c-17 0 -65 0 -79 7h10l-28 17 c-49 37 -69 40 -87 42z" />
      </g>
      <g id="E084-l19nj5e9">
         <path transform="scale(1,-1)" d="M20 -78c84 97 114 180 134 329h170c-13 -32 -82 -132 -99 -151l-84 -97c-33 -36 -59 -63 -80 -81h162v102l127 123v-225h57v-39h-57v-34c0 -43 19 -65 57 -65v-34h-244v36c48 0 60 26 60 70v27h-203v39z" />
      </g>
      <g id="E0A4-l19nj5e9">
         <path transform="scale(1,-1)" d="M0 -39c0 68 73 172 200 172c66 0 114 -37 114 -95c0 -84 -106 -171 -218 -171c-64 0 -96 30 -96 94z" />
      </g>
      <g id="E050-l19nj5e9">
         <path transform="scale(1,-1)" d="M441 -245c-23 -4 -48 -6 -76 -6c-59 0 -102 7 -130 20c-88 42 -150 93 -187 154c-26 44 -43 103 -48 176c0 6 -1 13 -1 19c0 54 15 111 45 170c29 57 65 106 110 148s96 85 153 127c-3 16 -8 46 -13 92c-4 43 -5 73 -5 89c0 117 16 172 69 257c34 54 64 82 89 82 c21 0 43 -30 69 -92s39 -115 41 -159v-15c0 -109 -21 -162 -67 -241c-13 -20 -63 -90 -98 -118c-13 -9 -25 -19 -37 -29l31 -181c8 1 18 2 28 2c58 0 102 -12 133 -35c59 -43 92 -104 98 -184c1 -7 1 -15 1 -22c0 -123 -87 -209 -181 -248c8 -57 17 -110 25 -162 c5 -31 6 -58 6 -80c0 -30 -5 -53 -14 -70c-35 -64 -88 -99 -158 -103c-5 0 -11 -1 -16 -1c-37 0 -72 10 -108 27c-50 24 -77 59 -80 105v11c0 29 7 55 20 76c18 28 45 42 79 44h6c49 0 93 -42 97 -87v-9c0 -51 -34 -86 -105 -106c17 -24 51 -36 102 -36c62 0 116 43 140 85 c9 16 13 41 13 74c0 20 -1 42 -5 67c-8 53 -18 106 -26 159zM461 939c-95 0 -135 -175 -135 -286c0 -24 2 -48 5 -71c50 39 92 82 127 128c40 53 60 100 60 140v8c-4 53 -22 81 -55 81h-2zM406 119l54 -326c73 25 110 78 110 161c0 7 0 15 -1 23c-7 95 -57 142 -151 142h-12 zM382 117c-72 -2 -128 -47 -128 -120v-7c2 -46 43 -99 75 -115c-3 -2 -7 -5 -10 -10c-70 33 -116 88 -123 172v11c0 68 44 126 88 159c23 17 49 29 78 36l-29 170c-21 -13 -52 -37 -92 -73c-50 -44 -86 -84 -109 -119c-45 -69 -67 -130 -67 -182v-13c5 -68 35 -127 93 -176 s125 -73 203 -73c25 0 50 3 75 9c-19 111 -36 221 -54 331z" />
      </g>
      <g id="E240-l19nj5e9">
         <path transform="scale(1,-1)" d="M179 -646c15 29 29 55 46 102c18 49 30 108 30 138c0 105 -80 173 -168 200c-18 5 -47 9 -87 16v190h22c8 0 33 -61 71 -95c4 -3 -2 3 61 -56c62 -58 122 -137 122 -241c0 -38 -13 -106 -35 -163c-20 -51 -43 -99 -66 -132c-6 -5 -10 -7 -13 -7s-5 2 -5 5l4 10 c1 3 14 25 18 33z" />
      </g>
      <g id="E242-l19nj5e9">
         <path transform="scale(1,-1)" d="M206 -748c32 48 49 100 49 149c0 89 -55 168 -168 203c-18 5 -47 9 -87 16v190v190h22c8 0 33 -61 71 -95c4 -3 -2 3 61 -56c62 -58 122 -137 122 -241c0 -32 -7 -65 -17 -96c11 -29 17 -60 17 -94c0 -71 -32 -148 -67 -190c-6 -5 -10 -7 -13 -7s-5 2 -5 5l4 10 c1 3 6 8 11 16zM248 -463c4 18 7 38 7 57c0 105 -80 173 -168 200c-11 3 -27 6 -47 9c9 -17 23 -61 53 -88c4 -3 -2 3 61 -56c36 -33 71 -74 94 -122z" />
      </g>
   </defs>
   <style type="text/css">#l19nj5e9 g.page-margin {font-family:Times,serif;}#l19nj5e9 g.ending, #l19nj5e9 g.fing, #l19nj5e9 g.reh, #l19nj5e9 g.tempo {font-weight:bold;}#l19nj5e9 g.dir, #l19nj5e9 g.dynam, #l19nj5e9 g.mNum {font-style:italic;}#l19nj5e9 g.label {font-weight:normal;}#l19nj5e9 path {stroke:currentColor}</style>
   <svg class="definition-scale" color="black" viewBox="0 0 5930 2330">
      <g class="page-margin" transform="translate(500, 500)">
         <g id="moqsi69" class="mdiv pageMilestone" />
         <g id="qmlovzj" class="score pageMilestone" />
         <g id="mwxt00x" class="system">
            <g id="d1blotdo" class="section systemMilestone" />
            <g id="abcLine06" class="pb" />
            <g id="w1cybpcc" class="measure">
               <g id="fmlv5y5" class="staff">
                  <path d="M0 309 L2809 309" stroke-width="13" />
                  <path d="M0 489 L2809 489" stroke-width="13" />
                  <path d="M0 669 L2809 669" stroke-width="13" />
                  <path d="M0 849 L2809 849" stroke-width="13" />
                  <path d="M0 1029 L2809 1029" stroke-width="13" />
                  <g id="v1gxitk" class="clef">
                     <use xlink:href="#E050-l19nj5e9" transform="translate(90, 849) scale(0.72, 0.72)" />
                  </g>
                  <g id="w1905d68" class="keySig" />
                  <g id="xz5i2aa" class="meterSig">
                     <use xlink:href="#E082-l19nj5e9" transform="translate(721, 489) scale(0.72, 0.72)" />
                     <use xlink:href="#E084-l19nj5e9" transform="translate(726, 849) scale(0.72, 0.72)" />
                  </g>
                  <g class="ledgerLines below">
                     <path d="M1246 1209 L1568 1209" stroke-width="22" />
                     <path d="M1652 1209 L1974 1209" stroke-width="22" />
                     <path d="M2102 1209 L2424 1209" stroke-width="22" />
                  </g>
                  <g id="fsm35er" class="layer">
                     <g id="g2rcrlx" class="chord">
                        <g id="sqqgytg" class="stem">
                           <path d="M1511 1181 L1511 9" stroke-width="18" />
                           <g id="tmeaduc" class="flag">
                              <use xlink:href="#E242-l19nj5e9" transform="translate(1502, 9) scale(0.72, 0.72)" />
                           </g>
                        </g>
                        <g id="hmwwo00" class="note">
                           <g class="notehead">
                              <use xlink:href="#E0A4-l19nj5e9" transform="translate(1294, 1209) scale(0.72, 0.72)" />
                           </g>
                        </g>
                        <g id="i1s4ffnc" class="note">
                           <g class="notehead">
                              <use xlink:href="#E0A4-l19nj5e9" transform="translate(1294, 1029) scale(0.72, 0.72)" />
                           </g>
                        </g>
                        <g id="j9ixwzy" class="note">
                           <g class="notehead">
                              <use xlink:href="#E0A4-l19nj5e9" transform="translate(1294, 849) scale(0.72, 0.72)" />
                           </g>
                        </g>
                        <g id="k1ffvwuh" class="note">
                           <g class="notehead">
                              <use xlink:href="#E0A4-l19nj5e9" transform="translate(1294, 579) scale(0.72, 0.72)" />
                           </g>
                        </g>
                     </g>
                     <g id="lzosgrv" class="chord">
                        <g id="u4oqxce" class="stem">
                           <path d="M1917 1181 L1917 219" stroke-width="18" />
                           <g id="v1bpmbr1" class="flag">
                              <use xlink:href="#E240-l19nj5e9" transform="translate(1908, 219) scale(0.72, 0.72)" />
                           </g>
                        </g>
                        <g id="m1q84ocf" class="note">
                           <g class="notehead">
                              <use xlink:href="#E0A4-l19nj5e9" transform="translate(1700, 1209) scale(0.72, 0.72)" />
                           </g>
                        </g>
                        <g id="n1gzuhvg" class="note">
                           <g class="notehead">
                              <use xlink:href="#E0A4-l19nj5e9" transform="translate(1700, 849) scale(0.72, 0.72)" />
                           </g>
                        </g>
                     </g>
                     <g id="va734np" class="beam">
                        <polygon stroke-opacity="1" fill-opacity="1" points="2358,309 2692,264 2692,354 2358,399" />
                        <polygon stroke-opacity="1" fill-opacity="1" points="2358,444 2692,399 2692,489 2358,534" />
                        <g id="o1vw1hrc" class="chord">
                           <g id="w1m11mph" class="stem">
                              <path d="M2367 1181 L2367 327" stroke-width="18" />
                           </g>
                           <g id="p36inxr" class="note">
                              <g class="notehead">
                                 <use xlink:href="#E0A4-l19nj5e9" transform="translate(2150, 1209) scale(0.72, 0.72)" />
                              </g>
                           </g>
                           <g id="qa56g6u" class="note">
                              <g class="notehead">
                                 <use xlink:href="#E0A4-l19nj5e9" transform="translate(2150, 1029) scale(0.72, 0.72)" />
                              </g>
                           </g>
                        </g>
                        <g id="r4ks4fv" class="chord">
                           <g id="x1oxd4nf" class="stem">
                              <path d="M2683 1091 L2683 282" stroke-width="18" />
                           </g>
                           <g id="s147azdb" class="note">
                              <g class="notehead">
                                 <use xlink:href="#E0A4-l19nj5e9" transform="translate(2466, 1119) scale(0.72, 0.72)" />
                              </g>
                           </g>
                           <g id="t1kzq82m" class="note">
                              <g class="notehead">
                                 <use xlink:href="#E0A4-l19nj5e9" transform="translate(2466, 939) scale(0.72, 0.72)" />
                              </g>
                              <g id="ushell2" class="accid" />
                           </g>
                        </g>
                     </g>
                  </g>
               </g>
               <g id="erbcoh7" class="barLine">
                  <path d="M2796 309 L2796 1029" stroke-width="27" />
               </g>
            </g>
            <g id="wgj8qwy" class="measure">
               <g id="f12ecyql" class="staff">
                  <path d="M2809 309 L4936 309" stroke-width="13" />
                  <path d="M2809 489 L4936 489" stroke-width="13" />
                  <path d="M2809 669 L4936 669" stroke-width="13" />
                  <path d="M2809 849 L4936 849" stroke-width="13" />
                  <path d="M2809 1029 L4936 1029" stroke-width="13" />
                  <g id="g14xmp24" class="layer">
                     <g id="s82fpt" class="beam">
                        <polygon stroke-opacity="1" fill-opacity="1" points="3197,309 3981,129 3981,219 3197,399" />
                        <polygon stroke-opacity="1" fill-opacity="1" points="3656,339 3981,264 3981,354 3656,429" />
                        <g id="hju2rxn" class="chord">
                           <g id="y23h8om" class="stem">
                              <path d="M3206 1091 L3206 327" stroke-width="18" />
                           </g>
                           <g id="izodm98" class="note">
                              <g class="notehead">
                                 <use xlink:href="#E0A4-l19nj5e9" transform="translate(2989, 1119) scale(0.72, 0.72)" />
                              </g>
                           </g>
                           <g id="j1mj6nxn" class="note">
                              <g class="notehead">
                                 <use xlink:href="#E0A4-l19nj5e9" transform="translate(2989, 939) scale(0.72, 0.72)" />
                              </g>
                              <g id="k1d0qcvg" class="accid" />
                           </g>
                        </g>
                        <g id="leeh8fz" class="chord">
                           <g id="z16wv72r" class="stem">
                              <path d="M3656 1001 L3656 222" stroke-width="18" />
                           </g>
                           <g id="m5odh2d" class="note">
                              <g class="notehead">
                                 <use xlink:href="#E0A4-l19nj5e9" transform="translate(3439, 1029) scale(0.72, 0.72)" />
                              </g>
                           </g>
                           <g id="n16gprxv" class="note">
                              <g class="notehead">
                                 <use xlink:href="#E0A4-l19nj5e9" transform="translate(3439, 849) scale(0.72, 0.72)" />
                              </g>
                           </g>
                        </g>
                        <g id="o1w2vfrn" class="chord">
                           <g id="a1n0fw13" class="stem">
                              <path d="M3972 911 L3972 147" stroke-width="18" />
                           </g>
                           <g id="pk6xyvl" class="note">
                              <g class="notehead">
                                 <use xlink:href="#E0A4-l19nj5e9" transform="translate(3755, 939) scale(0.72, 0.72)" />
                              </g>
                              <g id="qhghzyb" class="accid" />
                           </g>
                           <g id="rgx8bjh" class="note">
                              <g class="notehead">
                                 <use xlink:href="#E0A4-l19nj5e9" transform="translate(3755, 759) scale(0.72, 0.72)" />
                              </g>
                           </g>
                        </g>
                     </g>
                     <g id="t3elz0m" class="chord">
                        <g id="b13viyd2" class="stem">
                           <path d="M4080 517 L4080 1329" stroke-width="18" />
                        </g>
                        <g id="u1bb0tuc" class="note">
                           <g class="notehead">
                              <use xlink:href="#E0A4-l19nj5e9" transform="translate(4071, 759) scale(0.72, 0.72)" />
                           </g>
                        </g>
                        <g id="v6sh6uc" class="note">
                           <g class="notehead">
                              <use xlink:href="#E0A4-l19nj5e9" transform="translate(4071, 489) scale(0.72, 0.72)" />
                           </g>
                        </g>
                     </g>
                  </g>
               </g>
               <g id="ewtw03u" class="barLine">
                  <path d="M4761 309 L4761 1029" stroke-width="27" />
                  <path d="M4891 309 L4891 1029" stroke-width="90" />
               </g>
            </g>
            <g id="abcLine07" class="sb" />
            <g id="p1r78e3w" class="systemMilestoneEnd d1blotdo" />
         </g>
         <g id="qjepdrb" class="pageMilestoneEnd qmlovzj" />
         <g id="r1y47wy7" class="pageMilestoneEnd moqsi69" />
      </g>
   </svg>
</svg>
