<svg width="743px" height="114px" version="1.1" xmlns="http://www.w3.org/2000/svg" xmlns:xlink="http://www.w3.org/1999/xlink" overflow="visible" id="pfnjo7e">
   <desc>Engraved by Verovio 5.5.0-8c9036d</desc>
   <defs>
      <g id="E050-pfnjo7e">
         <path transform="scale(1,-1)" d="M441 -245c-23 -4 -48 -6 -76 -6c-59 0 -102 7 -130 20c-88 42 -150 93 -187 154c-26 44 -43 103 -48 176c0 6 -1 13 -1 19c0 54 15 111 45 170c29 57 65 106 110 148s96 85 153 127c-3 16 -8 46 -13 92c-4 43 -5 73 -5 89c0 117 16 172 69 257c34 54 64 82 89 82 c21 0 43 -30 69 -92s39 -115 41 -159v-15c0 -109 -21 -162 -67 -241c-13 -20 -63 -90 -98 -118c-13 -9 -25 -19 -37 -29l31 -181c8 1 18 2 28 2c58 0 102 -12 133 -35c59 -43 92 -104 98 -184c1 -7 1 -15 1 -22c0 -123 -87 -209 -181 -248c8 -57 17 -110 25 -162 c5 -31 6 -58 6 -80c0 -30 -5 -53 -14 -70c-35 -64 -88 -99 -158 -103c-5 0 -11 -1 -16 -1c-37 0 -72 10 -108 27c-50 24 -77 59 -80 105v11c0 29 7 55 20 76c18 28 45 42 79 44h6c49 0 93 -42 97 -87v-9c0 -51 -34 -86 -105 -106c17 -24 51 -36 102 -36c62 0 116 43 140 85 c9 16 13 41 13 74c0 20 -1 42 -5 67c-8 53 -18 106 -26 159zM461 939c-95 0 -135 -175 -135 -286c0 -24 2 -48 5 -71c50 39 92 82 127 128c40 53 60 100 60 140v8c-4 53 -22 81 -55 81h-2zM406 119l54 -326c73 25 110 78 110 161c0 7 0 15 -1 23c-7 95 -57 142 -151 142h-12 zM382 117c-72 -2 -128 -47 -128 -120v-7c2 -46 43 -99 75 -115c-3 -2 -7 -5 -10 -10c-70 33 -116 88 -123 172v11c0 68 44 126 88 159c23 17 49 29 78 36l-29 170c-21 -13 -52 -37 -92 -73c-50 -44 -86 -84 -109 -119c-45 -69 -67 -130 -67 -182v-13c5 -68 35 -127 93 -176 s125 -73 203 -73c25 0 50 3 75 9c-19 111 -36 221 -54 331z" />
      </g>
      <g id="E262-pfnjo7e">
         <path transform="scale(1,-1)" d="M136 186v169h17v-164l44 14v-91l-44 -14v-165l44 12v-91l-44 -13v-155h-17v150l-76 -22v-155h-17v149l-43 -13v90l43 14v167l-43 -14v92l43 13v169h17v-163zM60 73v-167l76 22v168z" />
      </g>
      <g id="E083-pfnjo7e">
         <path transform="scale(1,-1)" d="M208 250c97 0 177 -52 177 -116c0 -69 -40 -111 -118 -125c56 -5 125 -44 125 -116c0 -31 -10 -57 -31 -78c-19 -21 -45 -38 -78 -49l-50 -11c-15 -3 -36 -7 -55 -7c-50 0 -86 16 -113 38c-16 10 -23 18 -34 34c-7 13 -11 25 -11 38c0 43 27 83 68 83l3 -2 c61 0 75 -42 75 -70c0 -19 -24 -42 -26 -57c7 -17 20 -25 37 -25c44 0 94 29 94 78c0 75 -34 125 -138 125v36c84 0 131 22 131 98c0 54 -37 88 -87 88c-26 0 -43 -7 -51 -22c15 -22 44 -16 44 -70c0 -37 -37 -62 -71 -62c-22 0 -69 15 -69 76c0 79 101 116 178 116z" />
      </g>
      <g id="E088-pfnjo7e">
         <path transform="scale(1,-1)" d="M195 -214c76 0 88 58 90 68c0 34 -35 60 -57 73l-52 29c-21 10 -32 17 -34 20c-39 -33 -58 -54 -62 -92c5 -23 23 -98 115 -98zM301 135c0 61 -72 76 -113 76c-40 0 -77 -17 -77 -51c3 -21 15 -38 26 -50c17 -15 33 -26 48 -34l65 -28c34 27 51 56 51 87zM176 -250 c-57 0 -166 26 -166 132c0 47 30 86 89 116c-33 15 -79 60 -79 119c0 79 85 132 178 132h18c5 0 21 1 28 -1c25 0 126 -30 126 -110c0 -37 -23 -76 -69 -116c43 -25 83 -71 83 -119c0 -101 -118 -153 -208 -153z" />
      </g>
      <g id="E082-pfnjo7e">
         <path transform="scale(1,-1)" d="M124 -185c-18 0 -55 -14 -65 -65h-36l-3 30c0 25 6 45 18 63c11 19 22 30 39 43l121 82l37 29c15 11 27 29 38 54c12 24 18 47 18 70c0 40 -19 88 -94 88c-25 0 -32 0 -50 -8c-14 -5 -23 -12 -26 -22c3 -9 7 -15 10 -18l24 -17c12 -7 17 -11 27 -21c5 -7 7 -16 7 -27 c0 -12 0 -57 -79 -74c-30 0 -76 26 -76 94c0 66 81 135 197 135c72 0 181 -32 181 -150c0 -53 -32 -95 -113 -133l-91 -41c-26 -11 -45 -23 -57 -37l49 7c84 0 115 -41 148 -41c20 0 33 20 39 61h35c0 -152 -68 -168 -114 -168c-17 0 -65 0 -79 7h10l-28 17 c-49 37 -69 40 -87 42z" />
      </g>
      <g id="E085-pfnjo7e">
         <path transform="scale(1,-1)" d="M161 38c-14 0 -56 -5 -92 -51h-32l5 263c55 -11 108 -18 158 -18c40 0 85 6 134 17c-8 -52 -39 -114 -159 -114l-50 2c-19 2 -31 4 -49 10l-5 -111c38 26 81 39 129 39c94 0 177 -64 177 -159c0 -100 -98 -166 -211 -166c-88 0 -146 53 -146 115c0 53 39 83 75 83 c37 0 69 -32 69 -72c0 -4 -1 -10 -4 -18l-27 -37c-2 -3 -3 -8 -3 -14c0 -15 12 -23 36 -23c74 0 92 77 92 132s-35 122 -97 122z" />
      </g>
      <g id="E08A-pfnjo7e">
         <path transform="scale(1,-1)" d="M340 179c-9 24 -56 41 -89 41c-46 0 -81 -28 -100 -58c-17 -28 -25 -78 -25 -150c0 -65 2 -111 8 -135c8 -31 18 -49 40 -67c20 -17 43 -25 70 -25c54 0 92 36 115 75c14 25 23 54 28 88h27c0 -63 -24 -105 -58 -141c-35 -38 -82 -56 -140 -56c-45 0 -83 13 -115 39 c-57 45 -101 130 -101 226c0 59 33 127 68 163c36 37 97 72 160 72c36 0 93 -21 121 -40c11 -8 23 -17 33 -30c19 -23 27 -48 27 -76c0 -51 -35 -88 -86 -88c-43 0 -76 27 -76 68c0 26 7 35 21 51c15 17 32 27 58 32c7 2 14 7 14 11z" />
      </g>
      <g id="E4E4-pfnjo7e">
         <path transform="scale(1,-1)" d="M0 10v105c0 9 1 10 10 10h280c9 0 10 -1 10 -10v-105c0 -9 -1 -10 -10 -10h-280c-9 0 -10 1 -10 10z" />
      </g>
      <g id="E4E5-pfnjo7e">
         <path transform="scale(1,-1)" d="M107 292c-13 24 -30 49 -52 71c-1 1 0 2 0 3l-2 2c3 3 4 4 6 4c12 0 26 -7 40 -20s44 -40 89 -81c26 -24 28 -29 46 -47c4 -4 8 -9 10 -14c6 -8 8 -16 8 -27c0 -19 -12 -40 -36 -61c-28 -23 -49 -38 -61 -73c-4 -11 -7 -27 -10 -50c13 -43 34 -83 59 -121 c31 -47 59 -79 101 -129c-8 0 -26 7 -54 20l-62 29l-21 6l-23 1c-25 0 -45 -10 -60 -30l-4 -14l-1 -12c0 -33 20 -56 39 -78c8 -9 17 -18 26 -26c17 -15 27 -24 28 -30l-3 -3c-11 5 -19 10 -25 15c-9 3 -37 21 -45 26c-24 14 -45 32 -63 51c-19 21 -37 44 -37 71 c0 63 27 95 80 95c41 0 86 -18 136 -52c-19 26 -37 48 -55 66c-23 23 -48 44 -73 65c-28 23 -47 40 -58 53s-17 26 -18 39c75 64 113 125 113 183c0 27 -7 48 -18 68z" />
      </g>
      <g id="E0A4-pfnjo7e">
         <path transform="scale(1,-1)" d="M0 -39c0 68 73 172 200 172c66 0 114 -37 114 -95c0 -84 -106 -171 -218 -171c-64 0 -96 30 -96 94z" />
      </g>
      <g id="E240-pfnjo7e">
         <path transform="scale(1,-1)" d="M179 -646c15 29 29 55 46 102c18 49 30 108 30 138c0 105 -80 173 -168 200c-18 5 -47 9 -87 16v190h22c8 0 33 -61 71 -95c4 -3 -2 3 61 -56c62 -58 122 -137 122 -241c0 -38 -13 -106 -35 -163c-20 -51 -43 -99 -66 -132c-6 -5 -10 -7 -13 -7s-5 2 -5 5l4 10 c1 3 14 25 18 33z" />
      </g>
      <g id="E241-pfnjo7e">
         <path transform="scale(1,-1)" d="M179 646c-4 8 -17 30 -18 33l-4 10c0 3 2 5 5 5s7 -2 13 -7c23 -33 46 -81 66 -132c22 -57 35 -125 35 -163c0 -104 -60 -183 -122 -241c-63 -59 -57 -53 -61 -56c-38 -34 -63 -95 -71 -95h-22v190c40 7 69 11 87 16c88 27 168 95 168 200c0 30 -12 89 -30 138 c-17 47 -31 73 -46 102z" />
      </g>
   </defs>
   <style type="text/css">#pfnjo7e g.page-margin {font-family:Times,serif;}#pfnjo7e g.ending, #pfnjo7e g.fing, #pfnjo7e g.reh, #pfnjo7e g.tempo {font-weight:bold;}#pfnjo7e g.dir, #pfnjo7e g.dynam, #pfnjo7e g.mNum {font-style:italic;}#pfnjo7e g.label {font-weight:normal;}#pfnjo7e path {stroke:currentColor}</style>
   <svg class="definition-scale" color="black" viewBox="0 0 16490 2530">
      <g class="page-margin" transform="translate(500, 500)">
         <g id="r1y47wy7" class="mdiv pageMilestone" />
         <g id="sqqgytg" class="score pageMilestone" />
         <g id="vyt4ad" class="system">
            <g id="u4oqxce" class="section systemMilestone" />
            <g id="qmlovzj" class="measure">
               <g id="g1ho95rp" class="staff">
                  <path d="M0 451 L3742 451" stroke-width="13" />
                  <path d="M0 631 L3742 631" stroke-width="13" />
                  <path d="M0 811 L3742 811" stroke-width="13" />
                  <path d="M0 991 L3742 991" stroke-width="13" />
                  <path d="M0 1171 L3742 1171" stroke-width="13" />
                  <g id="c1vlx8nz" class="clef">
                     <use xlink:href="#E050-pfnjo7e" transform="translate(90, 991) scale(0.72, 0.72)" />
                  </g>
                  <g id="d442sxk" class="keySig">
                     <g id="edjxg5p" class="keyAccid">
                        <use xlink:href="#E262-pfnjo7e" transform="translate(735, 451) scale(0.72, 0.72)" />
                     </g>
                  </g>
                  <g id="f9n3x7f" class="meterSig">
                     <use xlink:href="#E083-pfnjo7e" transform="translate(1046, 631) scale(0.72, 0.72)" />
                     <use xlink:href="#E088-pfnjo7e" transform="translate(1049, 991) scale(0.72, 0.72)" />
                  </g>
                  <g id="h1wvbc8t" class="layer">
                     <g id="leeh8fz" class="multiRest">
                        <rect stroke-opacity="1" fill-opacity="1" x="1597" y="721" height="180" width="1838" />
                        <rect stroke-opacity="1" fill-opacity="1" x="1597" y="631" height="360" width="36" />
                        <rect stroke-opacity="1" fill-opacity="1" x="3399" y="631" height="360" width="36" />
                        <use xlink:href="#E082-pfnjo7e" transform="translate(2214, 181) scale(0.72, 0.72)" />
                        <use xlink:href="#E085-pfnjo7e" transform="translate(2532, 181) scale(0.72, 0.72)" />
                     </g>
                  </g>
               </g>
               <g id="yhbsl03" class="barLine">
                  <path d="M3630 451 L3630 1171" stroke-width="27" />
                  <path d="M3729 451 L3729 1171" stroke-width="27" />
               </g>
            </g>
            <g id="b1bcu6sn" class="measure">
               <g id="i4s4uc4" class="staff">
                  <path d="M3742 451 L5218 451" stroke-width="13" />
                  <path d="M3742 631 L5218 631" stroke-width="13" />
                  <path d="M3742 811 L5218 811" stroke-width="13" />
                  <path d="M3742 991 L5218 991" stroke-width="13" />
                  <path d="M3742 1171 L5218 1171" stroke-width="13" />
                  <g id="jo3qcsy" class="layer">
                     <g id="m5odh2d" class="multiRest">
                        <rect stroke-opacity="1" fill-opacity="1" x="3922" y="721" height="180" width="990" />
                        <rect stroke-opacity="1" fill-opacity="1" x="3922" y="631" height="360" width="36" />
                        <rect stroke-opacity="1" fill-opacity="1" x="4876" y="631" height="360" width="36" />
                        <use xlink:href="#E085-pfnjo7e" transform="translate(4274, 181) scale(0.72, 0.72)" />
                     </g>
                  </g>
               </g>
               <g id="j9ixwzy" class="barLine">
                  <path d="M5106 451 L5106 1171" stroke-width="27" />
                  <path d="M5205 451 L5205 1171" stroke-width="27" />
               </g>
            </g>
            <g id="k1ffvwuh" class="measure">
               <g id="kgtp1zt" class="staff">
                  <path d="M5218 451 L9006 451" stroke-width="13" />
                  <path d="M5218 631 L9006 631" stroke-width="13" />
                  <path d="M5218 811 L9006 811" stroke-width="13" />
                  <path d="M5218 991 L9006 991" stroke-width="13" />
                  <path d="M5218 1171 L9006 1171" stroke-width="13" />
                  <g id="d1mc3yi9" class="keySig">
                     <g id="e8boech" class="keyAccid">
                        <use xlink:href="#E262-pfnjo7e" transform="translate(5308, 451) scale(0.72, 0.72)" />
                     </g>
                     <g id="f4ez1j9" class="keyAccid">
                        <use xlink:href="#E262-pfnjo7e" transform="translate(5486, 721) scale(0.72, 0.72)" />
                     </g>
                     <g id="gfmd4j" class="keyAccid">
                        <use xlink:href="#E262-pfnjo7e" transform="translate(5664, 361) scale(0.72, 0.72)" />
                     </g>
                  </g>
                  <g id="h18et2sh" class="meterSig">
                     <use xlink:href="#E08A-pfnjo7e" transform="translate(5985, 811) scale(0.72, 0.72)" />
                  </g>
                  <g id="l1wb3e2s" class="layer">
                     <g id="n16gprxv" class="rest">
                        <use xlink:href="#E4E4-pfnjo7e" transform="translate(6553, 811) scale(0.72, 0.72)" />
                        <g class="ledgerLines" />
                     </g>
                     <g id="o1w2vfrn" class="rest">
                        <use xlink:href="#E4E5-pfnjo7e" transform="translate(7603, 811) scale(0.72, 0.72)" />
                        <g id="fqn9gl2" class="dots">
                           <ellipse cx="7912" cy="721" rx="36" ry="36" fill-opacity="1" stroke-opacity="1" />
                        </g>
                     </g>
                     <g id="pk6xyvl" class="note">
                        <g class="notehead">
                           <use xlink:href="#E0A4-pfnjo7e" transform="translate(8483, 1171) scale(0.72, 0.72)" />
                        </g>
                        <g id="goma0gm" class="stem">
                           <path d="M8700 1143 L8700 541" stroke-width="18" />
                           <g id="h1a2rmes" class="flag">
                              <use xlink:href="#E240-pfnjo7e" transform="translate(8691, 541) scale(0.72, 0.72)" />
                           </g>
                        </g>
                     </g>
                  </g>
               </g>
               <g id="s147azdb" class="barLine">
                  <path d="M8993 451 L8993 1171" stroke-width="27" />
               </g>
            </g>
            <g id="t1kzq82m" class="measure">
               <g id="n1p91bt0" class="staff">
                  <path d="M9006 451 L13149 451" stroke-width="13" />
                  <path d="M9006 631 L13149 631" stroke-width="13" />
                  <path d="M9006 811 L13149 811" stroke-width="13" />
                  <path d="M9006 991 L13149 991" stroke-width="13" />
                  <path d="M9006 1171 L13149 1171" stroke-width="13" />
                  <g id="o1hn97h8" class="layer">
                     <g id="gjwwkjn" class="beam">
                        <polygon stroke-opacity="1" fill-opacity="1" points="9394,271 10360,451 10360,541 9394,361" />
                        <polygon stroke-opacity="1" fill-opacity="1" points="9394,406 9719,466 9719,556 9394,496" />
                        <polygon stroke-opacity="1" fill-opacity="1" points="9719,466 10035,526 10035,616 9719,556" />
                        <polygon stroke-opacity="1" fill-opacity="1" points="10035,526 10360,586 10360,676 10035,616" />
                        <g id="qhghzyb" class="note">
                           <g class="notehead">
                              <use xlink:href="#E0A4-pfnjo7e" transform="translate(9186, 901) scale(0.72, 0.72)" />
                           </g>
                           <g id="i4vs11m" class="stem">
                              <path d="M9403 873 L9403 289" stroke-width="18" />
                           </g>
                        </g>
                        <g id="rgx8bjh" class="note">
                           <g class="notehead">
                              <use xlink:href="#E0A4-pfnjo7e" transform="translate(9502, 991) scale(0.72, 0.72)" />
                           </g>
                           <g id="j1s8kxne" class="stem">
                              <path d="M9719 963 L9719 349" stroke-width="18" />
                           </g>
                           <g id="lcz237t" class="accid" />
                        </g>
                        <g id="s82fpt" class="note">
                           <g class="notehead">
                              <use xlink:href="#E0A4-pfnjo7e" transform="translate(9818, 1081) scale(0.72, 0.72)" />
                           </g>
                           <g id="k19a056m" class="stem">
                              <path d="M10035 1053 L10035 409" stroke-width="18" />
                           </g>
                           <g id="mwxt00x" class="accid" />
                        </g>
                        <g id="t3elz0m" class="note">
                           <g class="notehead">
                              <use xlink:href="#E0A4-pfnjo7e" transform="translate(10134, 1171) scale(0.72, 0.72)" />
                           </g>
                           <g id="l1e7ub62" class="stem">
                              <path d="M10351 1143 L10351 469" stroke-width="18" />
                           </g>
                        </g>
                     </g>
                     <g id="hzub3xf" class="beam">
                        <polygon stroke-opacity="1" fill-opacity="1" points="10450,1486 10918,1441 10918,1351 10450,1396" />
                        <g id="u1bb0tuc" class="note">
                           <g class="notehead">
                              <use xlink:href="#E0A4-pfnjo7e" transform="translate(10450, 901) scale(0.72, 0.72)" />
                           </g>
                           <g id="mlwp7zq" class="stem">
                              <path d="M10459 929 L10459 1468" stroke-width="18" />
                           </g>
                        </g>
                        <g id="v6sh6uc" class="note">
                           <g class="notehead">
                              <use xlink:href="#E0A4-pfnjo7e" transform="translate(10900, 721) scale(0.72, 0.72)" />
                           </g>
                           <g id="nt9ronl" class="stem">
                              <path d="M10909 749 L10909 1423" stroke-width="18" />
                           </g>
                           <g id="ndvl5ld" class="accid" />
                        </g>
                     </g>
                     <g id="wgj8qwy" class="note">
                        <g class="notehead">
                           <use xlink:href="#E0A4-pfnjo7e" transform="translate(11350, 811) scale(0.72, 0.72)" />
                        </g>
                        <g id="o1awc8ol" class="stem">
                           <path d="M11359 839 L11359 1411" stroke-width="18" />
                           <g id="p1ufntge" class="flag">
                              <use xlink:href="#E241-pfnjo7e" transform="translate(11350, 1411) scale(0.72, 0.72)" />
                           </g>
                        </g>
                     </g>
                     <g id="xfggj11" class="note">
                        <g class="notehead">
                           <use xlink:href="#E0A4-pfnjo7e" transform="translate(11800, 631) scale(0.72, 0.72)" />
                        </g>
                        <g id="qg6e4o" class="stem">
                           <path d="M11809 659 L11809 1261" stroke-width="18" />
                        </g>
                     </g>
                     <g id="izv1mc9" class="beam">
                        <polygon stroke-opacity="1" fill-opacity="1" points="12490,1441 12824,1486 12824,1396 12490,1351" />
                        <polygon stroke-opacity="1" fill-opacity="1" points="12490,1306 12824,1351 12824,1261 12490,1216" />
                        <g id="y1waypqj" class="note">
                           <g class="notehead">
                              <use xlink:href="#E0A4-pfnjo7e" transform="translate(12490, 721) scale(0.72, 0.72)" />
                           </g>
                           <g id="rxq6cll" class="stem">
                              <path d="M12499 749 L12499 1423" stroke-width="18" />
                           </g>
                           <g id="o1nwbnw5" class="accid" />
                        </g>
                        <g id="zfx25hn" class="note">
                           <g class="notehead">
                              <use xlink:href="#E0A4-pfnjo7e" transform="translate(12806, 811) scale(0.72, 0.72)" />
                           </g>
                           <g id="s1xjwapg" class="stem">
                              <path d="M12815 839 L12815 1468" stroke-width="18" />
                           </g>
                        </g>
                     </g>
                  </g>
               </g>
               <g id="b8j2ung" class="barLine">
                  <path d="M13136 451 L13136 1171" stroke-width="27" />
               </g>
            </g>
            <g id="c1ahluu1" class="measure">
               <g id="pmwmthe" class="staff">
                  <path d="M13149 451 L15493 451" stroke-width="13" />
                  <path d="M13149 631 L15493 631" stroke-width="13" />
                  <path d="M13149 811 L15493 811" stroke-width="13" />
                  <path d="M13149 991 L15493 991" stroke-width="13" />
                  <path d="M13149 1171 L15493 1171" stroke-width="13" />
                  <g class="ledgerLines above">
                     <path d="M14995 271 L15317 271" stroke-width="22" />
                  </g>
                  <g id="q14fmeoc" class="layer">
                     <g id="j14qhuvu" class="beam">
                        <polygon stroke-opacity="1" fill-opacity="1" points="13329,1351 14295,1531 14295,1441 13329,1261" />
                        <polygon stroke-opacity="1" fill-opacity="1" points="13329,1216 13654,1276 13654,1186 13329,1126" />
                        <polygon stroke-opacity="1" fill-opacity="1" points="13654,1276 13970,1336 13970,1246 13654,1186" />
                        <polygon stroke-opacity="1" fill-opacity="1" points="13970,1336 14295,1396 14295,1306 13970,1246" />
                        <g id="a3ie8ud" class="note">
                           <g class="notehead">
                              <use xlink:href="#E0A4-pfnjo7e" transform="translate(13329, 631) scale(0.72, 0.72)" />
                           </g>
                           <g id="t16fzqxk" class="stem">
                              <path d="M13338 659 L13338 1333" stroke-width="18" />
                           </g>
                        </g>
                        <g id="b37hn12" class="note">
                           <g class="notehead">
                              <use xlink:href="#E0A4-pfnjo7e" transform="translate(13645, 721) scale(0.72, 0.72)" />
                           </g>
                           <g id="ulubfbi" class="stem">
                              <path d="M13654 749 L13654 1393" stroke-width="18" />
                           </g>
                           <g id="p1r78e3w" class="accid" />
                        </g>
                        <g id="c1kyp1ws" class="note">
                           <g class="notehead">
                              <use xlink:href="#E0A4-pfnjo7e" transform="translate(13961, 811) scale(0.72, 0.72)" />
                           </g>
                           <g id="v1n4j8tk" class="stem">
                              <path d="M13970 839 L13970 1453" stroke-width="18" />
                           </g>
                        </g>
                        <g id="d1eyoooy" class="note">
                           <g class="notehead">
                              <use xlink:href="#E0A4-pfnjo7e" transform="translate(14277, 901) scale(0.72, 0.72)" />
                           </g>
                           <g id="w1qijfro" class="stem">
                              <path d="M14286 929 L14286 1513" stroke-width="18" />
                           </g>
                        </g>
                     </g>
                     <g id="k1dict13" class="beam">
                        <polygon stroke-opacity="1" fill-opacity="1" points="14593,1216 15061,1171 15061,1081 14593,1126" />
                        <g id="ewtw03u" class="note">
                           <g class="notehead">
                              <use xlink:href="#E0A4-pfnjo7e" transform="translate(14593, 541) scale(0.72, 0.72)" />
                           </g>
                           <g id="xpk0tft" class="stem">
                              <path d="M14602 569 L14602 1198" stroke-width="18" />
                           </g>
                        </g>
                        <g id="f12ecyql" class="note">
                           <g class="notehead">
                              <use xlink:href="#E0A4-pfnjo7e" transform="translate(15043, 271) scale(0.72, 0.72)" />
                           </g>
                           <g id="y1ccvmbx" class="stem">
                              <path d="M15052 299 L15052 1153" stroke-width="18" />
                           </g>
                        </g>
                     </g>
                  </g>
               </g>
               <g id="k1d0qcvg" class="barLine" />
            </g>
            <g id="yvzjjlx" class="systemMilestoneEnd u4oqxce" />
         </g>
         <g id="z4bj489" class="pageMilestoneEnd sqqgytg" />
         <g id="a1tqy1kq" class="pageMilestoneEnd r1y47wy7" />
      </g>
   </svg>
</svg>
