<svg width="825px" height="127px" version="1.1" xmlns="http://www.w3.org/2000/svg" xmlns:xlink="http://www.w3.org/1999/xlink" xmlns:mei="http://www.music-encoding.org/ns/mei" overflow="visible">
   <desc>Engraved by Verovio 3.13.0-26db431</desc>
   <defs>
      <symbol id="E050-9rjdmw" viewBox="0 0 1000 1000" overflow="inherit">
         <path transform="scale(1,-1)" d="M441 -245c-23 -4 -48 -6 -76 -6c-59 0 -102 7 -130 20c-88 42 -150 93 -187 154c-26 44 -43 103 -48 176c0 6 -1 13 -1 19c0 54 15 111 45 170c29 57 65 106 110 148s96 85 153 127c-3 16 -8 46 -13 92c-4 43 -5 73 -5 89c0 117 16 172 69 257c34 54 64 82 89 82 c21 0 43 -30 69 -92s39 -115 41 -159v-15c0 -109 -21 -162 -67 -241c-13 -20 -63 -90 -98 -118c-13 -9 -25 -19 -37 -29l31 -181c8 1 18 2 28 2c58 0 102 -12 133 -35c59 -43 92 -104 98 -184c1 -7 1 -15 1 -22c0 -123 -87 -209 -181 -248c8 -57 17 -110 25 -162 c5 -31 6 -58 6 -80c0 -30 -5 -53 -14 -70c-35 -64 -88 -99 -158 -103c-5 0 -11 -1 -16 -1c-37 0 -72 10 -108 27c-50 24 -77 59 -80 105v11c0 29 7 55 20 76c18 28 45 42 79 44h6c49 0 93 -42 97 -87v-9c0 -51 -34 -86 -105 -106c17 -24 51 -36 102 -36c62 0 116 43 140 85 c9 16 13 41 13 74c0 20 -1 42 -5 67c-8 53 -18 106 -26 159zM461 939c-95 0 -135 -175 -135 -286c0 -24 2 -48 5 -71c50 39 92 82 127 128c40 53 60 100 60 140v8c-4 53 -22 81 -55 81h-2zM406 119l54 -326c73 25 110 78 110 161c0 7 0 15 -1 23c-7 95 -57 142 -151 142h-12 zM382 117c-72 -2 -128 -47 -128 -120v-7c2 -46 43 -99 75 -115c-3 -2 -7 -5 -10 -10c-70 33 -116 88 -123 172v11c0 68 44 126 88 159c23 17 49 29 78 36l-29 170c-21 -13 -52 -37 -92 -73c-50 -44 -86 -84 -109 -119c-45 -69 -67 -130 -67 -182v-13c5 -68 35 -127 93 -176 s125 -73 203 -73c25 0 50 3 75 9c-19 111 -36 221 -54 331z" />
      </symbol>
      <symbol id="E082-9rjdmw" viewBox="0 0 1000 1000" overflow="inherit">
         <path transform="scale(1,-1)" d="M124 -185c-18 0 -55 -14 -65 -65h-36l-3 30c0 25 6 45 18 63c11 19 22 30 39 43l121 82l37 29c15 11 27 29 38 54c12 24 18 47 18 70c0 40 -19 88 -94 88c-25 0 -32 0 -50 -8c-14 -5 -23 -12 -26 -22c3 -9 7 -15 10 -18l24 -17c12 -7 17 -11 27 -21c5 -7 7 -16 7 -27 c0 -12 0 -57 -79 -74c-30 0 -76 26 -76 94c0 66 81 135 197 135c72 0 181 -32 181 -150c0 -53 -32 -95 -113 -133l-91 -41c-26 -11 -45 -23 -57 -37l49 7c84 0 115 -41 148 -41c20 0 33 20 39 61h35c0 -152 -68 -168 -114 -168c-17 0 -65 0 -79 7h10l-28 17 c-49 37 -69 40 -87 42z" />
      </symbol>
      <symbol id="E083-9rjdmw" viewBox="0 0 1000 1000" overflow="inherit">
         <path transform="scale(1,-1)" d="M208 250c97 0 177 -52 177 -116c0 -69 -40 -111 -118 -125c56 -5 125 -44 125 -116c0 -31 -10 -57 -31 -78c-19 -21 -45 -38 -78 -49l-50 -11c-15 -3 -36 -7 -55 -7c-50 0 -86 16 -113 38c-16 10 -23 18 -34 34c-7 13 -11 25 -11 38c0 43 27 83 68 83l3 -2 c61 0 75 -42 75 -70c0 -19 -24 -42 -26 -57c7 -17 20 -25 37 -25c44 0 94 29 94 78c0 75 -34 125 -138 125v36c84 0 131 22 131 98c0 54 -37 88 -87 88c-26 0 -43 -7 -51 -22c15 -22 44 -16 44 -70c0 -37 -37 -62 -71 -62c-22 0 -69 15 -69 76c0 79 101 116 178 116z" />
      </symbol>
      <symbol id="E085-9rjdmw" viewBox="0 0 1000 1000" overflow="inherit">
         <path transform="scale(1,-1)" d="M161 38c-14 0 -56 -5 -92 -51h-32l5 263c55 -11 108 -18 158 -18c40 0 85 6 134 17c-8 -52 -39 -114 -159 -114l-50 2c-19 2 -31 4 -49 10l-5 -111c38 26 81 39 129 39c94 0 177 -64 177 -159c0 -100 -98 -166 -211 -166c-88 0 -146 53 -146 115c0 53 39 83 75 83 c37 0 69 -32 69 -72c0 -4 -1 -10 -4 -18l-27 -37c-2 -3 -3 -8 -3 -14c0 -15 12 -23 36 -23c74 0 92 77 92 132s-35 122 -97 122z" />
      </symbol>
      <symbol id="E088-9rjdmw" viewBox="0 0 1000 1000" overflow="inherit">
         <path transform="scale(1,-1)" d="M195 -214c76 0 88 58 90 68c0 34 -35 60 -57 73l-52 29c-21 10 -32 17 -34 20c-39 -33 -58 -54 -62 -92c5 -23 23 -98 115 -98zM301 135c0 61 -72 76 -113 76c-40 0 -77 -17 -77 -51c3 -21 15 -38 26 -50c17 -15 33 -26 48 -34l65 -28c34 27 51 56 51 87zM176 -250 c-57 0 -166 26 -166 132c0 47 30 86 89 116c-33 15 -79 60 -79 119c0 79 85 132 178 132h18c5 0 21 1 28 -1c25 0 126 -30 126 -110c0 -37 -23 -76 -69 -116c43 -25 83 -71 83 -119c0 -101 -118 -153 -208 -153z" />
      </symbol>
      <symbol id="E08A-9rjdmw" viewBox="0 0 1000 1000" overflow="inherit">
         <path transform="scale(1,-1)" d="M340 179c-9 24 -56 41 -89 41c-46 0 -81 -28 -100 -58c-17 -28 -25 -78 -25 -150c0 -65 2 -111 8 -135c8 -31 18 -49 40 -67c20 -17 43 -25 70 -25c54 0 92 36 115 75c14 25 23 54 28 88h27c0 -63 -24 -105 -58 -141c-35 -38 -82 -56 -140 -56c-45 0 -83 13 -115 39 c-57 45 -101 130 -101 226c0 59 33 127 68 163c36 37 97 72 160 72c36 0 93 -21 121 -40c11 -8 23 -17 33 -30c19 -23 27 -48 27 -76c0 -51 -35 -88 -86 -88c-43 0 -76 27 -76 68c0 26 7 35 21 51c15 17 32 27 58 32c7 2 14 7 14 11z" />
      </symbol>
      <symbol id="E0A4-9rjdmw" viewBox="0 0 1000 1000" overflow="inherit">
         <path transform="scale(1,-1)" d="M0 -39c0 68 73 172 200 172c66 0 114 -37 114 -95c0 -84 -106 -171 -218 -171c-64 0 -96 30 -96 94z" />
      </symbol>
      <symbol id="E240-9rjdmw" viewBox="0 0 1000 1000" overflow="inherit">
         <path transform="scale(1,-1)" d="M179 -646c15 29 29 55 46 102c18 49 30 108 30 138c0 105 -80 173 -168 200c-18 5 -47 9 -87 16v190h22c8 0 33 -61 71 -95c4 -3 -2 3 61 -56c62 -58 122 -137 122 -241c0 -38 -13 -106 -35 -163c-20 -51 -43 -99 -66 -132c-6 -5 -10 -7 -13 -7s-5 2 -5 5l4 10 c1 3 14 25 18 33z" />
      </symbol>
      <symbol id="E241-9rjdmw" viewBox="0 0 1000 1000" overflow="inherit">
         <path transform="scale(1,-1)" d="M179 646c-4 8 -17 30 -18 33l-4 10c0 3 2 5 5 5s7 -2 13 -7c23 -33 46 -81 66 -132c22 -57 35 -125 35 -163c0 -104 -60 -183 -122 -241c-63 -59 -57 -53 -61 -56c-38 -34 -63 -95 -71 -95h-22v190c40 7 69 11 87 16c88 27 168 95 168 200c0 30 -12 89 -30 138 c-17 47 -31 73 -46 102z" />
      </symbol>
      <symbol id="E262-9rjdmw" viewBox="0 0 1000 1000" overflow="inherit">
         <path transform="scale(1,-1)" d="M136 186v169h17v-164l44 14v-91l-44 -14v-165l44 12v-91l-44 -13v-155h-17v150l-76 -22v-155h-17v149l-43 -13v90l43 14v167l-43 -14v92l43 13v169h17v-163zM60 73v-167l76 22v168z" />
      </symbol>
      <symbol id="E4E4-9rjdmw" viewBox="0 0 1000 1000" overflow="inherit">
         <path transform="scale(1,-1)" d="M0 10v105c0 9 1 10 10 10h280c9 0 10 -1 10 -10v-105c0 -9 -1 -10 -10 -10h-280c-9 0 -10 1 -10 10z" />
      </symbol>
      <symbol id="E4E5-9rjdmw" viewBox="0 0 1000 1000" overflow="inherit">
         <path transform="scale(1,-1)" d="M107 292c-13 24 -30 49 -52 71c-1 1 0 2 0 3l-2 2c3 3 4 4 6 4c12 0 26 -7 40 -20s44 -40 89 -81c26 -24 28 -29 46 -47c4 -4 8 -9 10 -14c6 -8 8 -16 8 -27c0 -19 -12 -40 -36 -61c-28 -23 -49 -38 -61 -73c-4 -11 -7 -27 -10 -50c13 -43 34 -83 59 -121 c31 -47 59 -79 101 -129c-8 0 -26 7 -54 20l-62 29l-21 6l-23 1c-25 0 -45 -10 -60 -30l-4 -14l-1 -12c0 -33 20 -56 39 -78c8 -9 17 -18 26 -26c17 -15 27 -24 28 -30l-3 -3c-11 5 -19 10 -25 15c-9 3 -37 21 -45 26c-24 14 -45 32 -63 51c-19 21 -37 44 -37 71 c0 63 27 95 80 95c41 0 86 -18 136 -52c-19 26 -37 48 -55 66c-23 23 -48 44 -73 65c-28 23 -47 40 -58 53s-17 26 -18 39c75 64 113 125 113 183c0 27 -7 48 -18 68z" />
      </symbol>
   </defs>
   <style type="text/css">g.page-margin{font-family:Times;} g.ending, g.fing, g.reh, g.tempo{font-weight:bold;} g.dir, g.dynam, g.mNum{font-style:italic;} g.label{font-weight:normal;}</style>
   <svg class="definition-scale" color="black" viewBox="0 0 16490 2530">
      <g class="page-margin" transform="translate(500, 500)">
         <g id="ml7aas9" class="mdiv pageMilestone" />
         <g id="sjx4kfj" class="score pageMilestone" />
         <g id="s14s302h" class="system">
            <g id="s1k29xw7" class="section systemMilestone" />
            <g id="maj27" class="measure">
               <g id="s8hjtkt" class="staff">
                  <path d="M0 451 L3742 451" stroke="currentColor" stroke-width="13" />
                  <path d="M0 631 L3742 631" stroke="currentColor" stroke-width="13" />
                  <path d="M0 811 L3742 811" stroke="currentColor" stroke-width="13" />
                  <path d="M0 991 L3742 991" stroke="currentColor" stroke-width="13" />
                  <path d="M0 1171 L3742 1171" stroke="currentColor" stroke-width="13" />
                  <g id="c4z7fc0" class="clef">
                     <use xlink:href="#E050-9rjdmw" x="90" y="991" height="720px" width="720px" />
                  </g>
                  <g id="kc8ozjt" class="keySig">
                     <g id="kxk66s3" class="keyAccid">
                        <use xlink:href="#E262-9rjdmw" x="735" y="451" height="720px" width="720px" />
                     </g>
                  </g>
                  <g id="m9qo6c9" class="meterSig">
                     <use xlink:href="#E083-9rjdmw" x="1046" y="631" height="720px" width="720px" />
                     <use xlink:href="#E088-9rjdmw" x="1049" y="991" height="720px" width="720px" />
                  </g>
                  <g id="l98hx0k" class="layer">
                     <g id="m1mw7zrl" class="multiRest">
                        <rect x="1597" y="721" height="180" width="1838" />
                        <rect x="1597" y="631" height="360" width="36" />
                        <rect x="3399" y="631" height="360" width="36" />
                        <use xlink:href="#E082-9rjdmw" x="2214" y="181" height="720px" width="720px" />
                        <use xlink:href="#E085-9rjdmw" x="2532" y="181" height="720px" width="720px" />
                     </g>
                  </g>
               </g>
               <g id="bd8ados" class="barLine">
                  <path d="M3630 451 L3630 1171" stroke="currentColor" stroke-width="27" />
                  <path d="M3729 451 L3729 1171" stroke="currentColor" stroke-width="27" />
               </g>
            </g>
            <g id="m1bkm6f0" class="measure">
               <g id="s119yyl7" class="staff">
                  <path d="M3742 451 L5218 451" stroke="currentColor" stroke-width="13" />
                  <path d="M3742 631 L5218 631" stroke="currentColor" stroke-width="13" />
                  <path d="M3742 811 L5218 811" stroke="currentColor" stroke-width="13" />
                  <path d="M3742 991 L5218 991" stroke="currentColor" stroke-width="13" />
                  <path d="M3742 1171 L5218 1171" stroke="currentColor" stroke-width="13" />
                  <g id="l1diug5" class="layer">
                     <g id="m61gu14" class="multiRest">
                        <rect x="3922" y="721" height="180" width="990" />
                        <rect x="3922" y="631" height="360" width="36" />
                        <rect x="4876" y="631" height="360" width="36" />
                        <use xlink:href="#E085-9rjdmw" x="4274" y="181" height="720px" width="720px" />
                     </g>
                  </g>
               </g>
               <g id="b119bu1g" class="barLine">
                  <path d="M5106 451 L5106 1171" stroke="currentColor" stroke-width="27" />
                  <path d="M5205 451 L5205 1171" stroke="currentColor" stroke-width="27" />
               </g>
            </g>
            <g id="meit2ff" class="measure">
               <g id="s5xu055" class="staff">
                  <path d="M5218 451 L9006 451" stroke="currentColor" stroke-width="13" />
                  <path d="M5218 631 L9006 631" stroke="currentColor" stroke-width="13" />
                  <path d="M5218 811 L9006 811" stroke="currentColor" stroke-width="13" />
                  <path d="M5218 991 L9006 991" stroke="currentColor" stroke-width="13" />
                  <path d="M5218 1171 L9006 1171" stroke="currentColor" stroke-width="13" />
                  <g id="k107n4fc" class="keySig">
                     <g id="khhl7wt" class="keyAccid">
                        <use xlink:href="#E262-9rjdmw" x="5308" y="451" height="720px" width="720px" />
                     </g>
                     <g id="k7965zv" class="keyAccid">
                        <use xlink:href="#E262-9rjdmw" x="5486" y="721" height="720px" width="720px" />
                     </g>
                     <g id="k1p36s35" class="keyAccid">
                        <use xlink:href="#E262-9rjdmw" x="5664" y="361" height="720px" width="720px" />
                     </g>
                  </g>
                  <g id="mkia835" class="meterSig">
                     <use xlink:href="#E08A-9rjdmw" x="5985" y="811" height="720px" width="720px" />
                  </g>
                  <g id="l1c7ux5f" class="layer">
                     <g id="r1mxe0go" class="rest">
                        <use xlink:href="#E4E4-9rjdmw" x="6553" y="811" height="720px" width="720px" />
                        <g class="ledgerLines" />
                     </g>
                     <g id="r2rv899" class="rest">
                        <use xlink:href="#E4E5-9rjdmw" x="7603" y="811" height="720px" width="720px" />
                        <g id="dtesczb" class="dots">
                           <ellipse cx="7912" cy="721" rx="36" ry="36" />
                        </g>
                     </g>
                     <g id="nje7wj7" class="note">
                        <g class="notehead">
                           <use xlink:href="#E0A4-9rjdmw" x="8483" y="1171" height="720px" width="720px" />
                        </g>
                        <g id="s1vh3k1t" class="stem">
                           <rect x="8691" y="541" height="602" width="18" />
                           <g id="f1dbnqlt" class="flag">
                              <use xlink:href="#E240-9rjdmw" x="8691" y="541" height="720px" width="720px" />
                           </g>
                        </g>
                     </g>
                  </g>
               </g>
               <g id="btn3fmf" class="barLine">
                  <path d="M8993 451 L8993 1171" stroke="currentColor" stroke-width="27" />
               </g>
            </g>
            <g id="mwh4gyf" class="measure">
               <g id="sf15nd4" class="staff">
                  <path d="M9006 451 L13149 451" stroke="currentColor" stroke-width="13" />
                  <path d="M9006 631 L13149 631" stroke="currentColor" stroke-width="13" />
                  <path d="M9006 811 L13149 811" stroke="currentColor" stroke-width="13" />
                  <path d="M9006 991 L13149 991" stroke="currentColor" stroke-width="13" />
                  <path d="M9006 1171 L13149 1171" stroke="currentColor" stroke-width="13" />
                  <g id="l1so4aao" class="layer">
                     <g id="b1crgkek" class="beam">
                        <polygon points="9394,271 10360,451 10360,541 9394,361" />
                        <polygon points="9394,406 9719,466 9719,556 9394,496" />
                        <polygon points="9719,466 10035,526 10035,616 9719,556" />
                        <polygon points="10035,526 10360,586 10360,676 10035,616" />
                        <g id="nc29x2n" class="note">
                           <g class="notehead">
                              <use xlink:href="#E0A4-9rjdmw" x="9186" y="901" height="720px" width="720px" />
                           </g>
                           <g id="sz0t4ct" class="stem">
                              <rect x="9394" y="289" height="584" width="18" />
                           </g>
                        </g>
                        <g id="n47hp0q" class="note">
                           <g class="notehead">
                              <use xlink:href="#E0A4-9rjdmw" x="9502" y="991" height="720px" width="720px" />
                           </g>
                           <g id="stf3pj7" class="stem">
                              <rect x="9710" y="349" height="614" width="18" />
                           </g>
                           <g id="a2fdoc3" class="accid" />
                        </g>
                        <g id="n1qdic1l" class="note">
                           <g class="notehead">
                              <use xlink:href="#E0A4-9rjdmw" x="9818" y="1081" height="720px" width="720px" />
                           </g>
                           <g id="s12edjsw" class="stem">
                              <rect x="10026" y="409" height="644" width="18" />
                           </g>
                           <g id="a1ha7bqh" class="accid" />
                        </g>
                        <g id="n1bmm5zc" class="note">
                           <g class="notehead">
                              <use xlink:href="#E0A4-9rjdmw" x="10134" y="1171" height="720px" width="720px" />
                           </g>
                           <g id="s3jqins" class="stem">
                              <rect x="10342" y="469" height="674" width="18" />
                           </g>
                        </g>
                     </g>
                     <g id="b1jn0u8q" class="beam">
                        <polygon points="10450,1486 10918,1441 10918,1351 10450,1396" />
                        <g id="n6zhf6m" class="note">
                           <g class="notehead">
                              <use xlink:href="#E0A4-9rjdmw" x="10450" y="901" height="720px" width="720px" />
                           </g>
                           <g id="s1idfjel" class="stem">
                              <rect x="10450" y="929" height="539" width="18" />
                           </g>
                        </g>
                        <g id="n164j9s7" class="note">
                           <g class="notehead">
                              <use xlink:href="#E0A4-9rjdmw" x="10900" y="721" height="720px" width="720px" />
                           </g>
                           <g id="s122cibx" class="stem">
                              <rect x="10900" y="749" height="674" width="18" />
                           </g>
                           <g id="a18bpqky" class="accid" />
                        </g>
                     </g>
                     <g id="ntwti83" class="note">
                        <g class="notehead">
                           <use xlink:href="#E0A4-9rjdmw" x="11350" y="811" height="720px" width="720px" />
                        </g>
                        <g id="s37ycjq" class="stem">
                           <rect x="11350" y="839" height="572" width="18" />
                           <g id="f1b5ebec" class="flag">
                              <use xlink:href="#E241-9rjdmw" x="11350" y="1411" height="720px" width="720px" />
                           </g>
                        </g>
                     </g>
                     <g id="n1bphtqe" class="note">
                        <g class="notehead">
                           <use xlink:href="#E0A4-9rjdmw" x="11800" y="631" height="720px" width="720px" />
                        </g>
                        <g id="s9xwq8l" class="stem">
                           <rect x="11800" y="659" height="602" width="18" />
                        </g>
                     </g>
                     <g id="b1na8chg" class="beam">
                        <polygon points="12490,1441 12824,1486 12824,1396 12490,1351" />
                        <polygon points="12490,1306 12824,1351 12824,1261 12490,1216" />
                        <g id="n1w1fj4l" class="note">
                           <g class="notehead">
                              <use xlink:href="#E0A4-9rjdmw" x="12490" y="721" height="720px" width="720px" />
                           </g>
                           <g id="s10kmnra" class="stem">
                              <rect x="12490" y="749" height="674" width="18" />
                           </g>
                           <g id="a1y8mnf3" class="accid" />
                        </g>
                        <g id="nt8zkfl" class="note">
                           <g class="notehead">
                              <use xlink:href="#E0A4-9rjdmw" x="12806" y="811" height="720px" width="720px" />
                           </g>
                           <g id="s1ka9jpe" class="stem">
                              <rect x="12806" y="839" height="629" width="18" />
                           </g>
                        </g>
                     </g>
                  </g>
               </g>
               <g id="b1eutf55" class="barLine">
                  <path d="M13136 451 L13136 1171" stroke="currentColor" stroke-width="27" />
               </g>
            </g>
            <g id="m1wryc95" class="measure">
               <g id="siv16ea" class="staff">
                  <path d="M13149 451 L15493 451" stroke="currentColor" stroke-width="13" />
                  <path d="M13149 631 L15493 631" stroke="currentColor" stroke-width="13" />
                  <path d="M13149 811 L15493 811" stroke="currentColor" stroke-width="13" />
                  <path d="M13149 991 L15493 991" stroke="currentColor" stroke-width="13" />
                  <path d="M13149 1171 L15493 1171" stroke="currentColor" stroke-width="13" />
                  <g class="ledgerLines above">
                     <path d="M14995 271 L15317 271" stroke="currentColor" stroke-width="22" />
                  </g>
                  <g id="ll8ebre" class="layer">
                     <g id="btawp5c" class="beam">
                        <polygon points="13329,1351 14295,1531 14295,1441 13329,1261" />
                        <polygon points="13329,1216 13654,1276 13654,1186 13329,1126" />
                        <polygon points="13654,1276 13970,1336 13970,1246 13654,1186" />
                        <polygon points="13970,1336 14295,1396 14295,1306 13970,1246" />
                        <g id="n11vd3cp" class="note">
                           <g class="notehead">
                              <use xlink:href="#E0A4-9rjdmw" x="13329" y="631" height="720px" width="720px" />
                           </g>
                           <g id="s1v3fo0c" class="stem">
                              <rect x="13329" y="659" height="674" width="18" />
                           </g>
                        </g>
                        <g id="ne15r7n" class="note">
                           <g class="notehead">
                              <use xlink:href="#E0A4-9rjdmw" x="13645" y="721" height="720px" width="720px" />
                           </g>
                           <g id="s247e8r" class="stem">
                              <rect x="13645" y="749" height="644" width="18" />
                           </g>
                           <g id="a1axbio0" class="accid" />
                        </g>
                        <g id="n1d57h6s" class="note">
                           <g class="notehead">
                              <use xlink:href="#E0A4-9rjdmw" x="13961" y="811" height="720px" width="720px" />
                           </g>
                           <g id="s15nvxxx" class="stem">
                              <rect x="13961" y="839" height="614" width="18" />
                           </g>
                        </g>
                        <g id="nkkm5ug" class="note">
                           <g class="notehead">
                              <use xlink:href="#E0A4-9rjdmw" x="14277" y="901" height="720px" width="720px" />
                           </g>
                           <g id="s1qq91or" class="stem">
                              <rect x="14277" y="929" height="584" width="18" />
                           </g>
                        </g>
                     </g>
                     <g id="b1arjot" class="beam">
                        <polygon points="14593,1216 15061,1171 15061,1081 14593,1126" />
                        <g id="nmet4hd" class="note">
                           <g class="notehead">
                              <use xlink:href="#E0A4-9rjdmw" x="14593" y="541" height="720px" width="720px" />
                           </g>
                           <g id="s1s63m6f" class="stem">
                              <rect x="14593" y="569" height="629" width="18" />
                           </g>
                        </g>
                        <g id="na3f0ob" class="note">
                           <g class="notehead">
                              <use xlink:href="#E0A4-9rjdmw" x="15043" y="271" height="720px" width="720px" />
                           </g>
                           <g id="s12eutsd" class="stem">
                              <rect x="15043" y="299" height="854" width="18" />
                           </g>
                        </g>
                     </g>
                  </g>
               </g>
               <g id="b1rjlykc" class="barLine" />
            </g>
            <g id="s1vxywd8" class="systemMilestoneEnd s1k29xw7" />
         </g>
         <g id="p15ux556" class="pageMilestoneEnd sjx4kfj" />
         <g id="pijcp1a" class="pageMilestoneEnd ml7aas9" />
      </g>
   </svg>
</svg>
