<svg width="485px" height="147.5px" version="1.1" xmlns="http://www.w3.org/2000/svg" xmlns:xlink="http://www.w3.org/1999/xlink" xmlns:mei="http://www.music-encoding.org/ns/mei" overflow="visible">
   <desc>Engraved by Verovio 3.12.1-30d149f</desc>
   <defs>
      <symbol id="E260-ijcp1a" viewBox="0 0 1000 1000" overflow="inherit">
         <path transform="scale(1,-1)" d="M20 110c32 16 54 27 93 27c26 0 35 -3 54 -13c13 -7 24 -20 27 -38l4 -25c0 -28 -16 -57 -45 -89c-23 -25 -39 -44 -65 -68l-88 -79v644h20v-359zM90 106c-32 0 -48 -10 -70 -29v-194c31 31 54 59 71 84c21 32 32 59 32 84c0 9 1 16 1 20c0 14 -3 21 -11 30l-8 3z" />
      </symbol>
      <symbol id="E261-ijcp1a" viewBox="0 0 1000 1000" overflow="inherit">
         <path transform="scale(1,-1)" d="M0 -188v539h18v-191l139 22v-533h-17v186zM18 -100l122 17v176l-122 -19v-174z" />
      </symbol>
      <symbol id="E262-ijcp1a" viewBox="0 0 1000 1000" overflow="inherit">
         <path transform="scale(1,-1)" d="M136 186v169h17v-164l44 14v-91l-44 -14v-165l44 12v-91l-44 -13v-155h-17v150l-76 -22v-155h-17v149l-43 -13v90l43 14v167l-43 -14v92l43 13v169h17v-163zM60 73v-167l76 22v168z" />
      </symbol>
      <symbol id="E062-ijcp1a" viewBox="0 0 1000 1000" overflow="inherit">
         <path transform="scale(1,-1)" d="M582 -120c0 32 26 58 58 58s58 -26 58 -58s-26 -58 -58 -58s-58 26 -58 58zM582 120c0 32 26 58 58 58s58 -26 58 -58s-26 -58 -58 -58s-58 26 -58 58zM158 96c51 0 73 -14 88 -49l16 -39c0 -17 -2 -30 -7 -40c-3 -11 -10 -21 -19 -31c-17 -18 -49 -43 -84 -43 c-55 0 -77 13 -112 44c-24 21 -35 55 -35 100c0 46 14 81 32 112c30 52 71 79 137 93l36 6l26 2c154 0 235 -68 274 -182c11 -32 18 -68 18 -107c0 -103 -26 -182 -68 -250c-89 -145 -234 -230 -412 -288l-30 -5c-9 0 -14 3 -14 8c3 10 5 11 10 16c35 15 70 30 96 44l78 43 c96 57 162 136 197 258c9 33 17 60 22 100c3 22 5 35 6 39c-7 69 -16 115 -23 140s-4 22 -16 40c-8 12 -19 23 -31 34c-24 21 -62 44 -118 44c-48 0 -84 -8 -113 -28c-28 -19 -42 -44 -42 -73v-16c2 -5 3 -9 4 -11c24 22 52 39 84 39z" />
      </symbol>
      <symbol id="E08A-ijcp1a" viewBox="0 0 1000 1000" overflow="inherit">
         <path transform="scale(1,-1)" d="M340 179c-9 24 -56 41 -89 41c-46 0 -81 -28 -100 -58c-17 -28 -25 -78 -25 -150c0 -65 2 -111 8 -135c8 -31 18 -49 40 -67c20 -17 43 -25 70 -25c54 0 92 36 115 75c14 25 23 54 28 88h27c0 -63 -24 -105 -58 -141c-35 -38 -82 -56 -140 -56c-45 0 -83 13 -115 39 c-57 45 -101 130 -101 226c0 59 33 127 68 163c36 37 97 72 160 72c36 0 93 -21 121 -40c11 -8 23 -17 33 -30c19 -23 27 -48 27 -76c0 -51 -35 -88 -86 -88c-43 0 -76 27 -76 68c0 26 7 35 21 51c15 17 32 27 58 32c7 2 14 7 14 11z" />
      </symbol>
      <symbol id="E0A2-ijcp1a" viewBox="0 0 1000 1000" overflow="inherit">
         <path transform="scale(1,-1)" d="M198 133c102 0 207 -45 207 -133c0 -92 -98 -133 -207 -133c-101 0 -198 46 -198 133c0 88 93 133 198 133zM293 -21c0 14 -3 29 -8 44c-7 20 -18 38 -33 54c-20 21 -43 31 -68 31l-20 -2c-15 -5 -27 -14 -36 -28c-4 -9 -6 -17 -8 -24s-3 -16 -3 -27c0 -15 3 -34 9 -57 s18 -41 34 -55c15 -15 36 -23 62 -23c4 0 10 1 18 2c19 5 32 15 40 30s13 34 13 55z" />
      </symbol>
      <symbol id="E0A3-ijcp1a" viewBox="0 0 1000 1000" overflow="inherit">
         <path transform="scale(1,-1)" d="M278 64c0 22 -17 39 -43 39c-12 0 -26 -3 -41 -10c-85 -43 -165 -94 -165 -156c5 -25 15 -32 49 -32c67 11 200 95 200 159zM0 -36c0 68 73 174 200 174c66 0 114 -39 114 -97c0 -84 -106 -173 -218 -173c-64 0 -96 32 -96 96z" />
      </symbol>
      <symbol id="E0A4-ijcp1a" viewBox="0 0 1000 1000" overflow="inherit">
         <path transform="scale(1,-1)" d="M0 -39c0 68 73 172 200 172c66 0 114 -37 114 -95c0 -84 -106 -171 -218 -171c-64 0 -96 30 -96 94z" />
      </symbol>
   </defs>
   <style type="text/css">g.page-margin{font-family:Times;} g.ending, g.fing, g.reh, g.tempo{font-weight:bold;} g.dir, g.dynam, g.mNum{font-style:italic;} g.label{font-weight:normal;}</style>
   <svg class="definition-scale" color="black" viewBox="0 0 9700 2950">
      <g class="page-margin" transform="translate(500, 500)">
         <g id="m1d57h6s" class="mdiv pageMilestone" />
         <g id="skkm5ug" class="score pageMilestone" />
         <g id="skusyjr" class="system">
            <g id="sa3f0ob" class="section systemMilestone" />
            <g id="maj27" class="measure">
               <g id="s1h556f8" class="staff">
                  <path d="M0 1057 L2432 1057" stroke="currentColor" stroke-width="13" />
                  <path d="M0 1237 L2432 1237" stroke="currentColor" stroke-width="13" />
                  <path d="M0 1417 L2432 1417" stroke="currentColor" stroke-width="13" />
                  <path d="M0 1597 L2432 1597" stroke="currentColor" stroke-width="13" />
                  <path d="M0 1777 L2432 1777" stroke="currentColor" stroke-width="13" />
                  <g id="c14qyo4w" class="clef">
                     <use xlink:href="#E062-ijcp1a" x="88" y="1237" height="720px" width="720px" />
                  </g>
                  <g id="klem246" class="keySig">
                     <g id="k7c8b3" class="keyAccid">
                        <use xlink:href="#E262-ijcp1a" x="769" y="1237" height="720px" width="720px" />
                     </g>
                  </g>
                  <g id="m1ivzbet" class="meterSig">
                     <use xlink:href="#E08A-ijcp1a" x="1090" y="1417" height="720px" width="720px" />
                  </g>
                  <g class="ledgerLines above cue">
                     <path d="M2133 877 L2373 877" stroke="currentColor" stroke-width="16" />
                  </g>
                  <g id="ll7aas9" class="layer">
                     <g id="g1bphtqe" class="graceGrp">
                        <g id="b1bmm5zc" class="beam">
                           <polygon points="1718,382 2337,202 2337,269 1718,449" />
                           <polygon points="1718,482 2092,373 2092,440 1718,549" />
                           <polygon points="2092,373 2337,302 2337,369 2092,440" />
                           <polygon points="1718,582 2092,473 2092,540 1718,649" />
                           <polygon points="2092,473 2337,402 2337,469 2092,540" />
                           <g id="n1kvldvx" class="note">
                              <g class="notehead">
                                 <use xlink:href="#E0A4-ijcp1a" x="1568" y="1417" height="540px" width="540px" />
                              </g>
                              <g id="s5xu055" class="stem">
                                 <rect x="1718" y="400" height="996" width="18" />
                              </g>
                           </g>
                           <g id="n1eutf55" class="note">
                              <g class="notehead">
                                 <use xlink:href="#E0A4-ijcp1a" x="1933" y="1237" height="540px" width="540px" />
                              </g>
                              <g id="s1c7ux5f" class="stem">
                                 <rect x="2083" y="291" height="925" width="18" />
                              </g>
                              <g id="ac29x2n" class="accid">
                                 <use xlink:href="#E261-ijcp1a" x="1804" y="1237" height="540px" width="540px" />
                              </g>
                           </g>
                           <g id="n1wryc95" class="note">
                              <g class="notehead">
                                 <use xlink:href="#E0A4-ijcp1a" x="2169" y="787" height="540px" width="540px" />
                              </g>
                              <g id="s1t4imxy" class="stem">
                                 <rect x="2319" y="220" height="546" width="18" />
                              </g>
                           </g>
                        </g>
                     </g>
                  </g>
               </g>
               <g id="bd8ados" class="barLine">
                  <path d="M2419 1057 L2419 1777" stroke="currentColor" stroke-width="27" />
               </g>
            </g>
            <g id="mrjxj5z" class="measure">
               <g id="sjx4kfj" class="staff">
                  <path d="M2432 1057 L4828 1057" stroke="currentColor" stroke-width="13" />
                  <path d="M2432 1237 L4828 1237" stroke="currentColor" stroke-width="13" />
                  <path d="M2432 1417 L4828 1417" stroke="currentColor" stroke-width="13" />
                  <path d="M2432 1597 L4828 1597" stroke="currentColor" stroke-width="13" />
                  <path d="M2432 1777 L4828 1777" stroke="currentColor" stroke-width="13" />
                  <g class="ledgerLines above">
                     <path d="M2564 877 L2886 877" stroke="currentColor" stroke-width="22" />
                     <path d="M3739 877 L4017 877" stroke="currentColor" stroke-width="22" />
                     <path d="M2564 697 L2886 697" stroke="currentColor" stroke-width="22" />
                     <path d="M3739 697 L4017 697" stroke="currentColor" stroke-width="22" />
                     <path d="M3739 517 L4017 517" stroke="currentColor" stroke-width="22" />
                  </g>
                  <g class="ledgerLines above cue">
                     <path d="M3509 877 L3717 877" stroke="currentColor" stroke-width="16" />
                     <path d="M4529 877 L4769 877" stroke="currentColor" stroke-width="16" />
                  </g>
                  <g id="lvotdr6" class="layer">
                     <g id="n1l0qosn" class="note">
                        <g class="notehead">
                           <use xlink:href="#E0A3-ijcp1a" x="2612" y="607" height="720px" width="720px" />
                        </g>
                        <g id="sf15nd4" class="stem">
                           <rect x="2612" y="632" height="785" width="18" />
                        </g>
                     </g>
                     <g id="g1w1fj4l" class="graceGrp">
                        <g id="b6zhf6m" class="beam">
                           <polygon points="3078,382 3697,202 3697,269 3078,449" />
                           <polygon points="3078,482 3452,373 3452,440 3078,549" />
                           <polygon points="3452,373 3697,302 3697,369 3452,440" />
                           <polygon points="3078,582 3452,473 3452,540 3078,649" />
                           <polygon points="3452,473 3697,402 3697,469 3452,540" />
                           <g id="nm9gldr" class="note">
                              <g class="notehead">
                                 <use xlink:href="#E0A4-ijcp1a" x="2928" y="1417" height="540px" width="540px" />
                              </g>
                              <g id="s1so4aao" class="stem">
                                 <rect x="3078" y="400" height="996" width="18" />
                              </g>
                           </g>
                           <g id="n6lavjx" class="note">
                              <g class="notehead">
                                 <use xlink:href="#E0A4-ijcp1a" x="3293" y="1237" height="540px" width="540px" />
                              </g>
                              <g id="siv16ea" class="stem">
                                 <rect x="3443" y="291" height="925" width="18" />
                              </g>
                              <g id="a47hp0q" class="accid">
                                 <use xlink:href="#E261-ijcp1a" x="3164" y="1237" height="540px" width="540px" />
                              </g>
                           </g>
                           <g id="n1d6chli" class="note">
                              <g class="notehead">
                                 <use xlink:href="#E0A4-ijcp1a" x="3529" y="787" height="540px" width="540px" />
                              </g>
                              <g id="sl8ebre" class="stem">
                                 <rect x="3679" y="220" height="546" width="18" />
                              </g>
                           </g>
                        </g>
                     </g>
                     <g id="n10sz2ux" class="note">
                        <g class="notehead">
                           <use xlink:href="#E0A3-ijcp1a" x="3765" y="427" height="720px" width="720px" />
                        </g>
                        <g id="syx0aaf" class="stem">
                           <rect x="3765" y="452" height="965" width="18" />
                        </g>
                     </g>
                     <g id="gt8zkfl" class="graceGrp">
                        <g id="b164j9s7" class="beam">
                           <polygon points="4243,382 4733,202 4733,269 4243,449" />
                           <polygon points="4243,482 4488,392 4488,459 4243,549" />
                           <polygon points="4488,392 4733,302 4733,369 4488,459" />
                           <polygon points="4243,582 4488,492 4488,559 4243,649" />
                           <polygon points="4488,492 4733,402 4733,469 4488,559" />
                           <g id="n1q90xdt" class="note">
                              <g class="notehead">
                                 <use xlink:href="#E0A4-ijcp1a" x="4093" y="1417" height="540px" width="540px" />
                              </g>
                              <g id="s15ick27" class="stem">
                                 <rect x="4243" y="400" height="996" width="18" />
                              </g>
                           </g>
                           <g id="n1pfycn4" class="note">
                              <g class="notehead">
                                 <use xlink:href="#E0A4-ijcp1a" x="4329" y="1237" height="540px" width="540px" />
                              </g>
                              <g id="s3sgcfj" class="stem">
                                 <rect x="4479" y="310" height="906" width="18" />
                              </g>
                           </g>
                           <g id="n1rjlykc" class="note">
                              <g class="notehead">
                                 <use xlink:href="#E0A4-ijcp1a" x="4565" y="787" height="540px" width="540px" />
                              </g>
                              <g id="s1473mmv" class="stem">
                                 <rect x="4715" y="220" height="546" width="18" />
                              </g>
                           </g>
                        </g>
                     </g>
                  </g>
               </g>
               <g id="bm92q1x" class="barLine">
                  <path d="M4815 1057 L4815 1777" stroke="currentColor" stroke-width="27" />
               </g>
            </g>
            <g id="m1co6lqq" class="measure">
               <g id="s1k29xw7" class="staff">
                  <path d="M4828 1057 L6824 1057" stroke="currentColor" stroke-width="13" />
                  <path d="M4828 1237 L6824 1237" stroke="currentColor" stroke-width="13" />
                  <path d="M4828 1417 L6824 1417" stroke="currentColor" stroke-width="13" />
                  <path d="M4828 1597 L6824 1597" stroke="currentColor" stroke-width="13" />
                  <path d="M4828 1777 L6824 1777" stroke="currentColor" stroke-width="13" />
                  <g class="ledgerLines above">
                     <path d="M5173 877 L5559 877" stroke="currentColor" stroke-width="22" />
                     <path d="M5173 697 L5559 697" stroke="currentColor" stroke-width="22" />
                     <path d="M5173 517 L5559 517" stroke="currentColor" stroke-width="22" />
                     <path d="M5173 337 L5559 337" stroke="currentColor" stroke-width="22" />
                  </g>
                  <g class="ledgerLines above cue">
                     <path d="M6525 877 L6765 877" stroke="currentColor" stroke-width="16" />
                  </g>
                  <g id="lfrzwqv" class="layer">
                     <g id="n1mw7zrl" class="note">
                        <g class="notehead">
                           <use xlink:href="#E0A2-ijcp1a" x="5221" y="337" height="720px" width="720px" />
                        </g>
                        <g id="a1qdic1l" class="accid">
                           <use xlink:href="#E260-ijcp1a" x="5008" y="337" height="720px" width="720px" />
                        </g>
                     </g>
                     <g id="g11vd3cp" class="graceGrp">
                        <g id="btwti83" class="beam">
                           <polygon points="6239,472 6729,292 6729,359 6239,539" />
                           <polygon points="6239,572 6484,482 6484,549 6239,639" />
                           <polygon points="6484,482 6729,392 6729,459 6484,549" />
                           <polygon points="6239,672 6484,582 6484,649 6239,739" />
                           <polygon points="6484,582 6729,492 6729,559 6484,649" />
                           <g id="n61gu14" class="note">
                              <g class="notehead">
                                 <use xlink:href="#E0A4-ijcp1a" x="6089" y="1327" height="540px" width="540px" />
                              </g>
                              <g id="s17lwqmf" class="stem">
                                 <rect x="6239" y="490" height="816" width="18" />
                              </g>
                           </g>
                           <g id="n1mxe0go" class="note">
                              <g class="notehead">
                                 <use xlink:href="#E0A4-ijcp1a" x="6325" y="1147" height="540px" width="540px" />
                              </g>
                              <g id="saf794j" class="stem">
                                 <rect x="6475" y="400" height="726" width="18" />
                              </g>
                           </g>
                           <g id="n2rv899" class="note">
                              <g class="notehead">
                                 <use xlink:href="#E0A4-ijcp1a" x="6561" y="877" height="540px" width="540px" />
                              </g>
                              <g id="s1vxywd8" class="stem">
                                 <rect x="6711" y="310" height="546" width="18" />
                              </g>
                           </g>
                        </g>
                     </g>
                  </g>
               </g>
               <g id="b1bmglde" class="barLine">
                  <path d="M6811 1057 L6811 1777" stroke="currentColor" stroke-width="27" />
               </g>
            </g>
            <g id="m1sx3qkk" class="measure">
               <g id="s7bykuy" class="staff">
                  <path d="M6824 1057 L8706 1057" stroke="currentColor" stroke-width="13" />
                  <path d="M6824 1237 L8706 1237" stroke="currentColor" stroke-width="13" />
                  <path d="M6824 1417 L8706 1417" stroke="currentColor" stroke-width="13" />
                  <path d="M6824 1597 L8706 1597" stroke="currentColor" stroke-width="13" />
                  <path d="M6824 1777 L8706 1777" stroke="currentColor" stroke-width="13" />
                  <g class="ledgerLines above">
                     <path d="M6956 877 L7342 877" stroke="currentColor" stroke-width="22" />
                     <path d="M6956 697 L7342 697" stroke="currentColor" stroke-width="22" />
                     <path d="M6956 517 L7342 517" stroke="currentColor" stroke-width="22" />
                  </g>
                  <g id="l57lm6x" class="layer">
                     <g id="nje7wj7" class="note">
                        <g class="notehead">
                           <use xlink:href="#E0A2-ijcp1a" x="7004" y="427" height="720px" width="720px" />
                        </g>
                     </g>
                  </g>
               </g>
               <g id="b1jaffx2" class="barLine">
                  <path d="M8594 1057 L8594 1777" stroke="currentColor" stroke-width="27" />
                  <path d="M8693 1057 L8693 1777" stroke="currentColor" stroke-width="27" />
               </g>
            </g>
            <g id="s8hjtkt" class="systemMilestoneEnd sa3f0ob" />
         </g>
         <g id="p98hx0k" class="pageMilestoneEnd skkm5ug" />
         <g id="p119yyl7" class="pageMilestoneEnd m1d57h6s" />
      </g>
   </svg>
</svg>
