<svg width="635px" height="102px" version="1.1" xmlns="http://www.w3.org/2000/svg" xmlns:xlink="http://www.w3.org/1999/xlink" xmlns:mei="http://www.music-encoding.org/ns/mei" overflow="visible">
   <desc>Engraved by Verovio 3.13.1-010bd42</desc>
   <defs>
      <symbol id="E050-9rjdmw" viewBox="0 0 1000 1000" overflow="inherit">
         <path transform="scale(1,-1)" d="M441 -245c-23 -4 -48 -6 -76 -6c-59 0 -102 7 -130 20c-88 42 -150 93 -187 154c-26 44 -43 103 -48 176c0 6 -1 13 -1 19c0 54 15 111 45 170c29 57 65 106 110 148s96 85 153 127c-3 16 -8 46 -13 92c-4 43 -5 73 -5 89c0 117 16 172 69 257c34 54 64 82 89 82 c21 0 43 -30 69 -92s39 -115 41 -159v-15c0 -109 -21 -162 -67 -241c-13 -20 -63 -90 -98 -118c-13 -9 -25 -19 -37 -29l31 -181c8 1 18 2 28 2c58 0 102 -12 133 -35c59 -43 92 -104 98 -184c1 -7 1 -15 1 -22c0 -123 -87 -209 -181 -248c8 -57 17 -110 25 -162 c5 -31 6 -58 6 -80c0 -30 -5 -53 -14 -70c-35 -64 -88 -99 -158 -103c-5 0 -11 -1 -16 -1c-37 0 -72 10 -108 27c-50 24 -77 59 -80 105v11c0 29 7 55 20 76c18 28 45 42 79 44h6c49 0 93 -42 97 -87v-9c0 -51 -34 -86 -105 -106c17 -24 51 -36 102 -36c62 0 116 43 140 85 c9 16 13 41 13 74c0 20 -1 42 -5 67c-8 53 -18 106 -26 159zM461 939c-95 0 -135 -175 -135 -286c0 -24 2 -48 5 -71c50 39 92 82 127 128c40 53 60 100 60 140v8c-4 53 -22 81 -55 81h-2zM406 119l54 -326c73 25 110 78 110 161c0 7 0 15 -1 23c-7 95 -57 142 -151 142h-12 zM382 117c-72 -2 -128 -47 -128 -120v-7c2 -46 43 -99 75 -115c-3 -2 -7 -5 -10 -10c-70 33 -116 88 -123 172v11c0 68 44 126 88 159c23 17 49 29 78 36l-29 170c-21 -13 -52 -37 -92 -73c-50 -44 -86 -84 -109 -119c-45 -69 -67 -130 -67 -182v-13c5 -68 35 -127 93 -176 s125 -73 203 -73c25 0 50 3 75 9c-19 111 -36 221 -54 331z" />
      </symbol>
      <symbol id="E083-9rjdmw" viewBox="0 0 1000 1000" overflow="inherit">
         <path transform="scale(1,-1)" d="M208 250c97 0 177 -52 177 -116c0 -69 -40 -111 -118 -125c56 -5 125 -44 125 -116c0 -31 -10 -57 -31 -78c-19 -21 -45 -38 -78 -49l-50 -11c-15 -3 -36 -7 -55 -7c-50 0 -86 16 -113 38c-16 10 -23 18 -34 34c-7 13 -11 25 -11 38c0 43 27 83 68 83l3 -2 c61 0 75 -42 75 -70c0 -19 -24 -42 -26 -57c7 -17 20 -25 37 -25c44 0 94 29 94 78c0 75 -34 125 -138 125v36c84 0 131 22 131 98c0 54 -37 88 -87 88c-26 0 -43 -7 -51 -22c15 -22 44 -16 44 -70c0 -37 -37 -62 -71 -62c-22 0 -69 15 -69 76c0 79 101 116 178 116z" />
      </symbol>
      <symbol id="E084-9rjdmw" viewBox="0 0 1000 1000" overflow="inherit">
         <path transform="scale(1,-1)" d="M20 -78c84 97 114 180 134 329h170c-13 -32 -82 -132 -99 -151l-84 -97c-33 -36 -59 -63 -80 -81h162v102l127 123v-225h57v-39h-57v-34c0 -43 19 -65 57 -65v-34h-244v36c48 0 60 26 60 70v27h-203v39z" />
      </symbol>
      <symbol id="E0A4-9rjdmw" viewBox="0 0 1000 1000" overflow="inherit">
         <path transform="scale(1,-1)" d="M0 -39c0 68 73 172 200 172c66 0 114 -37 114 -95c0 -84 -106 -171 -218 -171c-64 0 -96 30 -96 94z" />
      </symbol>
   </defs>
   <style type="text/css">g.page-margin{font-family:Times;} g.ending, g.fing, g.reh, g.tempo{font-weight:bold;} g.dir, g.dynam, g.mNum{font-style:italic;} g.label{font-weight:normal;}</style>
   <svg class="definition-scale" color="black" viewBox="0 0 14100 2250">
      <g class="page-margin" transform="translate(500, 500)">
         <g id="m2fdoc3" class="mdiv pageMilestone" />
         <g id="s1ha7bqh" class="score pageMilestone" />
         <g id="s1diug5" class="system">
            <g id="s1y8mnf3" class="section systemMilestone" />
            <g id="maj27" class="measure">
               <g id="svtbb6w" class="staff">
                  <path d="M0 240 L5102 240" stroke="currentColor" stroke-width="13" />
                  <path d="M0 420 L5102 420" stroke="currentColor" stroke-width="13" />
                  <path d="M0 600 L5102 600" stroke="currentColor" stroke-width="13" />
                  <path d="M0 780 L5102 780" stroke="currentColor" stroke-width="13" />
                  <path d="M0 960 L5102 960" stroke="currentColor" stroke-width="13" />
                  <g id="c11fqw1c" class="clef">
                     <use xlink:href="#E050-9rjdmw" x="90" y="780" height="720px" width="720px" />
                  </g>
                  <g id="kn18nq" class="keySig" />
                  <g id="m1qxgc11" class="meterSig">
                     <use xlink:href="#E083-9rjdmw" x="727" y="420" height="720px" width="720px" />
                     <use xlink:href="#E084-9rjdmw" x="721" y="780" height="720px" width="720px" />
                  </g>
                  <g class="ledgerLines below">
                     <path d="M1885 1140 L2171 1140" stroke="currentColor" stroke-width="22" />
                     <path d="M2201 1140 L2487 1140" stroke="currentColor" stroke-width="22" />
                     <path d="M3149 1140 L3435 1140" stroke="currentColor" stroke-width="22" />
                     <path d="M3465 1140 L3751 1140" stroke="currentColor" stroke-width="22" />
                     <path d="M4079 1140 L4401 1140" stroke="currentColor" stroke-width="22" />
                     <path d="M4711 1140 L5033 1140" stroke="currentColor" stroke-width="22" />
                  </g>
                  <g id="lxbw8wm" class="layer">
                     <g id="be15r7n" class="beam">
                        <polygon points="1491,150 2457,150 2457,240 1491,240" />
                        <polygon points="1491,285 1816,285 1816,375 1491,375" />
                        <polygon points="1816,285 2132,285 2132,375 1816,375" />
                        <polygon points="2132,285 2457,285 2457,375 2132,375" />
                        <g id="n1sx3qkk" class="note">
                           <g class="notehead">
                              <use xlink:href="#E0A4-9rjdmw" x="1283" y="780" height="720px" width="720px" />
                           </g>
                           <g id="siv16ea" class="stem">
                              <rect x="1491" y="168" height="584" width="18" />
                           </g>
                        </g>
                        <g id="ntn3fmf" class="note">
                           <g class="notehead">
                              <use xlink:href="#E0A4-9rjdmw" x="1599" y="780" height="720px" width="720px" />
                           </g>
                           <g id="sl8ebre" class="stem">
                              <rect x="1807" y="168" height="584" width="18" />
                           </g>
                        </g>
                        <g id="nwh4gyf" class="note">
                           <g class="notehead">
                              <use xlink:href="#E0A4-9rjdmw" x="1915" y="1140" height="720px" width="720px" />
                           </g>
                           <g id="syx0aaf" class="stem">
                              <rect x="2123" y="168" height="944" width="18" />
                           </g>
                        </g>
                        <g id="n13oms4p" class="note">
                           <g class="notehead">
                              <use xlink:href="#E0A4-9rjdmw" x="2231" y="1140" height="720px" width="720px" />
                           </g>
                           <g id="s15ick27" class="stem">
                              <rect x="2439" y="168" height="944" width="18" />
                           </g>
                        </g>
                     </g>
                     <g id="b1d57h6s" class="beam">
                        <polygon points="2755,150 3721,150 3721,240 2755,240" />
                        <polygon points="2755,285 3080,285 3080,375 2755,375" />
                        <polygon points="3080,285 3396,285 3396,375 3080,375" />
                        <polygon points="3396,285 3721,285 3721,375 3396,375" />
                        <g id="nulcesx" class="note">
                           <g class="notehead">
                              <use xlink:href="#E0A4-9rjdmw" x="2547" y="780" height="720px" width="720px" />
                           </g>
                           <g id="s3sgcfj" class="stem">
                              <rect x="2755" y="168" height="584" width="18" />
                           </g>
                        </g>
                        <g id="n9yzgtz" class="note">
                           <g class="notehead">
                              <use xlink:href="#E0A4-9rjdmw" x="2863" y="780" height="720px" width="720px" />
                           </g>
                           <g id="s1473mmv" class="stem">
                              <rect x="3071" y="168" height="584" width="18" />
                           </g>
                        </g>
                        <g id="n1upgee6" class="note">
                           <g class="notehead">
                              <use xlink:href="#E0A4-9rjdmw" x="3179" y="1140" height="720px" width="720px" />
                           </g>
                           <g id="s14s302h" class="stem">
                              <rect x="3387" y="168" height="944" width="18" />
                           </g>
                        </g>
                        <g id="ne2kfvk" class="note">
                           <g class="notehead">
                              <use xlink:href="#E0A4-9rjdmw" x="3495" y="1140" height="720px" width="720px" />
                           </g>
                           <g id="s17lwqmf" class="stem">
                              <rect x="3703" y="168" height="944" width="18" />
                           </g>
                        </g>
                     </g>
                     <g id="bkkm5ug" class="beam">
                        <polygon points="4019,195 4985,195 4985,285 4019,285" />
                        <polygon points="4019,330 4344,330 4344,420 4019,420" />
                        <polygon points="4344,330 4660,330 4660,420 4344,420" />
                        <polygon points="4660,330 4985,330 4985,420 4660,420" />
                        <g id="n1jaffx2" class="note">
                           <g class="notehead">
                              <use xlink:href="#E0A4-9rjdmw" x="3811" y="780" height="720px" width="720px" />
                           </g>
                           <g id="saf794j" class="stem">
                              <rect x="4019" y="213" height="539" width="18" />
                           </g>
                        </g>
                        <g id="n1kvldvx" class="note">
                           <g class="notehead">
                              <use xlink:href="#E0A4-9rjdmw" x="4127" y="1140" height="720px" width="720px" />
                           </g>
                           <g id="s1vxywd8" class="stem">
                              <rect x="4335" y="213" height="899" width="18" />
                           </g>
                        </g>
                        <g id="n1eutf55" class="note">
                           <g class="notehead">
                              <use xlink:href="#E0A4-9rjdmw" x="4443" y="780" height="720px" width="720px" />
                           </g>
                           <g id="s15ux556" class="stem">
                              <rect x="4651" y="213" height="539" width="18" />
                           </g>
                        </g>
                        <g id="n1wryc95" class="note">
                           <g class="notehead">
                              <use xlink:href="#E0A4-9rjdmw" x="4759" y="1140" height="720px" width="720px" />
                           </g>
                           <g id="sijcp1a" class="stem">
                              <rect x="4967" y="213" height="899" width="18" />
                           </g>
                        </g>
                     </g>
                  </g>
               </g>
               <g id="bd8ados" class="barLine">
                  <path d="M5089 240 L5089 960" stroke="currentColor" stroke-width="27" />
               </g>
            </g>
            <g id="mrjxj5z" class="measure">
               <g id="s1sjdpu1" class="staff">
                  <path d="M5102 240 L9101 240" stroke="currentColor" stroke-width="13" />
                  <path d="M5102 420 L9101 420" stroke="currentColor" stroke-width="13" />
                  <path d="M5102 600 L9101 600" stroke="currentColor" stroke-width="13" />
                  <path d="M5102 780 L9101 780" stroke="currentColor" stroke-width="13" />
                  <path d="M5102 960 L9101 960" stroke="currentColor" stroke-width="13" />
                  <g class="ledgerLines below">
                     <path d="M5884 1140 L6170 1140" stroke="currentColor" stroke-width="22" />
                     <path d="M6200 1140 L6486 1140" stroke="currentColor" stroke-width="22" />
                     <path d="M7148 1140 L7434 1140" stroke="currentColor" stroke-width="22" />
                     <path d="M7464 1140 L7750 1140" stroke="currentColor" stroke-width="22" />
                     <path d="M8078 1140 L8400 1140" stroke="currentColor" stroke-width="22" />
                     <path d="M8710 1140 L9032 1140" stroke="currentColor" stroke-width="22" />
                  </g>
                  <g id="l6tx8lf" class="layer">
                     <g id="bmet4hd" class="beam">
                        <polygon points="5490,150 6456,150 6456,240 5490,240" />
                        <polygon points="5490,285 5815,285 5815,375 5490,375" />
                        <polygon points="5815,285 6131,285 6131,375 5815,375" />
                        <polygon points="6131,285 6456,285 6456,375 6131,375" />
                        <g id="n1l0qosn" class="note">
                           <g class="notehead">
                              <use xlink:href="#E0A4-9rjdmw" x="5282" y="780" height="720px" width="720px" />
                           </g>
                           <g id="s1dpczse" class="stem">
                              <rect x="5490" y="168" height="584" width="18" />
                           </g>
                        </g>
                        <g id="nm9gldr" class="note">
                           <g class="notehead">
                              <use xlink:href="#E0A4-9rjdmw" x="5598" y="780" height="720px" width="720px" />
                           </g>
                           <g id="sgeqd9c" class="stem">
                              <rect x="5806" y="168" height="584" width="18" />
                           </g>
                        </g>
                        <g id="n6lavjx" class="note">
                           <g class="notehead">
                              <use xlink:href="#E0A4-9rjdmw" x="5914" y="1140" height="720px" width="720px" />
                           </g>
                           <g id="s79oi54" class="stem">
                              <rect x="6122" y="168" height="944" width="18" />
                           </g>
                        </g>
                        <g id="n1d6chli" class="note">
                           <g class="notehead">
                              <use xlink:href="#E0A4-9rjdmw" x="6230" y="1140" height="720px" width="720px" />
                           </g>
                           <g id="s11w35w7" class="stem">
                              <rect x="6438" y="168" height="944" width="18" />
                           </g>
                        </g>
                     </g>
                     <g id="ba3f0ob" class="beam">
                        <polygon points="6754,150 7720,150 7720,240 6754,240" />
                        <polygon points="6754,285 7079,285 7079,375 6754,375" />
                        <polygon points="7079,285 7395,285 7395,375 7079,375" />
                        <polygon points="7395,285 7720,285 7720,375 7395,375" />
                        <g id="n10sz2ux" class="note">
                           <g class="notehead">
                              <use xlink:href="#E0A4-9rjdmw" x="6546" y="780" height="720px" width="720px" />
                           </g>
                           <g id="stesczb" class="stem">
                              <rect x="6754" y="168" height="584" width="18" />
                           </g>
                        </g>
                        <g id="n1q90xdt" class="note">
                           <g class="notehead">
                              <use xlink:href="#E0A4-9rjdmw" x="6862" y="780" height="720px" width="720px" />
                           </g>
                           <g id="s1vh3k1t" class="stem">
                              <rect x="7070" y="168" height="584" width="18" />
                           </g>
                        </g>
                        <g id="n1pfycn4" class="note">
                           <g class="notehead">
                              <use xlink:href="#E0A4-9rjdmw" x="7178" y="1140" height="720px" width="720px" />
                           </g>
                           <g id="s1dbnqlt" class="stem">
                              <rect x="7386" y="168" height="944" width="18" />
                           </g>
                        </g>
                        <g id="n1rjlykc" class="note">
                           <g class="notehead">
                              <use xlink:href="#E0A4-9rjdmw" x="7494" y="1140" height="720px" width="720px" />
                           </g>
                           <g id="sz0t4ct" class="stem">
                              <rect x="7702" y="168" height="944" width="18" />
                           </g>
                        </g>
                     </g>
                     <g id="b1crgkek" class="beam">
                        <polygon points="8018,195 8984,195 8984,285 8018,285" />
                        <polygon points="8018,330 8343,330 8343,420 8018,420" />
                        <polygon points="8343,330 8659,330 8659,420 8343,420" />
                        <polygon points="8659,330 8984,330 8984,420 8659,420" />
                        <g id="n1mw7zrl" class="note">
                           <g class="notehead">
                              <use xlink:href="#E0A4-9rjdmw" x="7810" y="780" height="720px" width="720px" />
                           </g>
                           <g id="stf3pj7" class="stem">
                              <rect x="8018" y="213" height="539" width="18" />
                           </g>
                        </g>
                        <g id="n61gu14" class="note">
                           <g class="notehead">
                              <use xlink:href="#E0A4-9rjdmw" x="8126" y="1140" height="720px" width="720px" />
                           </g>
                           <g id="s12edjsw" class="stem">
                              <rect x="8334" y="213" height="899" width="18" />
                           </g>
                        </g>
                        <g id="n1mxe0go" class="note">
                           <g class="notehead">
                              <use xlink:href="#E0A4-9rjdmw" x="8442" y="780" height="720px" width="720px" />
                           </g>
                           <g id="s3jqins" class="stem">
                              <rect x="8650" y="213" height="539" width="18" />
                           </g>
                        </g>
                        <g id="n2rv899" class="note">
                           <g class="notehead">
                              <use xlink:href="#E0A4-9rjdmw" x="8758" y="1140" height="720px" width="720px" />
                           </g>
                           <g id="s1idfjel" class="stem">
                              <rect x="8966" y="213" height="899" width="18" />
                           </g>
                        </g>
                     </g>
                  </g>
               </g>
               <g id="bm92q1x" class="barLine">
                  <path d="M9088 240 L9088 960" stroke="currentColor" stroke-width="27" />
               </g>
            </g>
            <g id="m1co6lqq" class="measure">
               <g id="skusyjr" class="staff">
                  <path d="M9101 240 L13100 240" stroke="currentColor" stroke-width="13" />
                  <path d="M9101 420 L13100 420" stroke="currentColor" stroke-width="13" />
                  <path d="M9101 600 L13100 600" stroke="currentColor" stroke-width="13" />
                  <path d="M9101 780 L13100 780" stroke="currentColor" stroke-width="13" />
                  <path d="M9101 960 L13100 960" stroke="currentColor" stroke-width="13" />
                  <g class="ledgerLines below">
                     <path d="M9883 1140 L10169 1140" stroke="currentColor" stroke-width="22" />
                     <path d="M10199 1140 L10485 1140" stroke="currentColor" stroke-width="22" />
                     <path d="M11147 1140 L11433 1140" stroke="currentColor" stroke-width="22" />
                     <path d="M11463 1140 L11749 1140" stroke="currentColor" stroke-width="22" />
                     <path d="M12077 1140 L12399 1140" stroke="currentColor" stroke-width="22" />
                     <path d="M12709 1140 L13031 1140" stroke="currentColor" stroke-width="22" />
                  </g>
                  <g id="l1s60ozi" class="layer">
                     <g id="b1jn0u8q" class="beam">
                        <polygon points="9489,150 10455,150 10455,240 9489,240" />
                        <polygon points="9489,285 9814,285 9814,375 9489,375" />
                        <polygon points="9814,285 10130,285 10130,375 9814,375" />
                        <polygon points="10130,285 10455,285 10455,375 10130,375" />
                        <g id="nje7wj7" class="note">
                           <g class="notehead">
                              <use xlink:href="#E0A4-9rjdmw" x="9281" y="780" height="720px" width="720px" />
                           </g>
                           <g id="s122cibx" class="stem">
                              <rect x="9489" y="168" height="584" width="18" />
                           </g>
                        </g>
                        <g id="nc29x2n" class="note">
                           <g class="notehead">
                              <use xlink:href="#E0A4-9rjdmw" x="9597" y="780" height="720px" width="720px" />
                           </g>
                           <g id="s37ycjq" class="stem">
                              <rect x="9805" y="168" height="584" width="18" />
                           </g>
                        </g>
                        <g id="n47hp0q" class="note">
                           <g class="notehead">
                              <use xlink:href="#E0A4-9rjdmw" x="9913" y="1140" height="720px" width="720px" />
                           </g>
                           <g id="s1b5ebec" class="stem">
                              <rect x="10121" y="168" height="944" width="18" />
                           </g>
                        </g>
                        <g id="n1qdic1l" class="note">
                           <g class="notehead">
                              <use xlink:href="#E0A4-9rjdmw" x="10229" y="1140" height="720px" width="720px" />
                           </g>
                           <g id="s9xwq8l" class="stem">
                              <rect x="10437" y="168" height="944" width="18" />
                           </g>
                        </g>
                     </g>
                     <g id="b1na8chg" class="beam">
                        <polygon points="10753,150 11719,150 11719,240 10753,240" />
                        <polygon points="10753,285 11078,285 11078,375 10753,375" />
                        <polygon points="11078,285 11394,285 11394,375 11078,375" />
                        <polygon points="11394,285 11719,285 11719,375 11394,375" />
                        <g id="n1bmm5zc" class="note">
                           <g class="notehead">
                              <use xlink:href="#E0A4-9rjdmw" x="10545" y="780" height="720px" width="720px" />
                           </g>
                           <g id="s10kmnra" class="stem">
                              <rect x="10753" y="168" height="584" width="18" />
                           </g>
                        </g>
                        <g id="n6zhf6m" class="note">
                           <g class="notehead">
                              <use xlink:href="#E0A4-9rjdmw" x="10861" y="780" height="720px" width="720px" />
                           </g>
                           <g id="s1ka9jpe" class="stem">
                              <rect x="11069" y="168" height="584" width="18" />
                           </g>
                        </g>
                        <g id="n164j9s7" class="note">
                           <g class="notehead">
                              <use xlink:href="#E0A4-9rjdmw" x="11177" y="1140" height="720px" width="720px" />
                           </g>
                           <g id="s1v3fo0c" class="stem">
                              <rect x="11385" y="168" height="944" width="18" />
                           </g>
                        </g>
                        <g id="ntwti83" class="note">
                           <g class="notehead">
                              <use xlink:href="#E0A4-9rjdmw" x="11493" y="1140" height="720px" width="720px" />
                           </g>
                           <g id="s247e8r" class="stem">
                              <rect x="11701" y="168" height="944" width="18" />
                           </g>
                        </g>
                     </g>
                     <g id="btawp5c" class="beam">
                        <polygon points="12017,195 12983,195 12983,285 12017,285" />
                        <polygon points="12017,330 12342,330 12342,420 12017,420" />
                        <polygon points="12342,330 12658,330 12658,420 12342,420" />
                        <polygon points="12658,330 12983,330 12983,420 12658,420" />
                        <g id="n1bphtqe" class="note">
                           <g class="notehead">
                              <use xlink:href="#E0A4-9rjdmw" x="11809" y="780" height="720px" width="720px" />
                           </g>
                           <g id="s15nvxxx" class="stem">
                              <rect x="12017" y="213" height="539" width="18" />
                           </g>
                        </g>
                        <g id="n1w1fj4l" class="note">
                           <g class="notehead">
                              <use xlink:href="#E0A4-9rjdmw" x="12125" y="1140" height="720px" width="720px" />
                           </g>
                           <g id="s1qq91or" class="stem">
                              <rect x="12333" y="213" height="899" width="18" />
                           </g>
                        </g>
                        <g id="nt8zkfl" class="note">
                           <g class="notehead">
                              <use xlink:href="#E0A4-9rjdmw" x="12441" y="780" height="720px" width="720px" />
                           </g>
                           <g id="s1s63m6f" class="stem">
                              <rect x="12649" y="213" height="539" width="18" />
                           </g>
                        </g>
                        <g id="n11vd3cp" class="note">
                           <g class="notehead">
                              <use xlink:href="#E0A4-9rjdmw" x="12757" y="1140" height="720px" width="720px" />
                           </g>
                           <g id="s12eutsd" class="stem">
                              <rect x="12965" y="213" height="899" width="18" />
                           </g>
                        </g>
                     </g>
                  </g>
               </g>
               <g id="b1bmglde" class="barLine">
                  <path d="M13087 240 L13087 960" stroke="currentColor" stroke-width="27" />
               </g>
            </g>
            <g id="s1t4imxy" class="systemMilestoneEnd s1y8mnf3" />
         </g>
         <g id="pf15nd4" class="pageMilestoneEnd s1ha7bqh" />
         <g id="p1so4aao" class="pageMilestoneEnd m2fdoc3" />
      </g>
   </svg>
</svg>
