<svg width="474.5px" height="137.5px" version="1.1" xmlns="http://www.w3.org/2000/svg" xmlns:xlink="http://www.w3.org/1999/xlink" xmlns:mei="http://www.music-encoding.org/ns/mei" overflow="visible">
   <desc>Engraved by Verovio 3.12.0-77bd079</desc>
   <defs>
      <symbol id="E062-15ux556" viewBox="0 0 1000 1000" overflow="inherit">
         <path transform="scale(1,-1)" d="M582 -120c0 32 26 58 58 58s58 -26 58 -58s-26 -58 -58 -58s-58 26 -58 58zM582 120c0 32 26 58 58 58s58 -26 58 -58s-26 -58 -58 -58s-58 26 -58 58zM158 96c51 0 73 -14 88 -49l16 -39c0 -17 -2 -30 -7 -40c-3 -11 -10 -21 -19 -31c-17 -18 -49 -43 -84 -43 c-55 0 -77 13 -112 44c-24 21 -35 55 -35 100c0 46 14 81 32 112c30 52 71 79 137 93l36 6l26 2c154 0 235 -68 274 -182c11 -32 18 -68 18 -107c0 -103 -26 -182 -68 -250c-89 -145 -234 -230 -412 -288l-30 -5c-9 0 -14 3 -14 8c3 10 5 11 10 16c35 15 70 30 96 44l78 43 c96 57 162 136 197 258c9 33 17 60 22 100c3 22 5 35 6 39c-7 69 -16 115 -23 140s-4 22 -16 40c-8 12 -19 23 -31 34c-24 21 -62 44 -118 44c-48 0 -84 -8 -113 -28c-28 -19 -42 -44 -42 -73v-16c2 -5 3 -9 4 -11c24 22 52 39 84 39z" />
      </symbol>
      <symbol id="E08A-15ux556" viewBox="0 0 1000 1000" overflow="inherit">
         <path transform="scale(1,-1)" d="M340 179c-9 24 -56 41 -89 41c-46 0 -81 -28 -100 -58c-17 -28 -25 -78 -25 -150c0 -65 2 -111 8 -135c8 -31 18 -49 40 -67c20 -17 43 -25 70 -25c54 0 92 36 115 75c14 25 23 54 28 88h27c0 -63 -24 -105 -58 -141c-35 -38 -82 -56 -140 -56c-45 0 -83 13 -115 39 c-57 45 -101 130 -101 226c0 59 33 127 68 163c36 37 97 72 160 72c36 0 93 -21 121 -40c11 -8 23 -17 33 -30c19 -23 27 -48 27 -76c0 -51 -35 -88 -86 -88c-43 0 -76 27 -76 68c0 26 7 35 21 51c15 17 32 27 58 32c7 2 14 7 14 11z" />
      </symbol>
      <symbol id="E0A2-15ux556" viewBox="0 0 1000 1000" overflow="inherit">
         <path transform="scale(1,-1)" d="M198 133c102 0 207 -45 207 -133c0 -92 -98 -133 -207 -133c-101 0 -198 46 -198 133c0 88 93 133 198 133zM293 -21c0 14 -3 29 -8 44c-7 20 -18 38 -33 54c-20 21 -43 31 -68 31l-20 -2c-15 -5 -27 -14 -36 -28c-4 -9 -6 -17 -8 -24s-3 -16 -3 -27c0 -15 3 -34 9 -57 s18 -41 34 -55c15 -15 36 -23 62 -23c4 0 10 1 18 2c19 5 32 15 40 30s13 34 13 55z" />
      </symbol>
      <symbol id="E0A3-15ux556" viewBox="0 0 1000 1000" overflow="inherit">
         <path transform="scale(1,-1)" d="M278 64c0 22 -17 39 -43 39c-12 0 -26 -3 -41 -10c-85 -43 -165 -94 -165 -156c5 -25 15 -32 49 -32c67 11 200 95 200 159zM0 -36c0 68 73 174 200 174c66 0 114 -39 114 -97c0 -84 -106 -173 -218 -173c-64 0 -96 32 -96 96z" />
      </symbol>
      <symbol id="E0A4-15ux556" viewBox="0 0 1000 1000" overflow="inherit">
         <path transform="scale(1,-1)" d="M0 -39c0 68 73 172 200 172c66 0 114 -37 114 -95c0 -84 -106 -171 -218 -171c-64 0 -96 30 -96 94z" />
      </symbol>
      <symbol id="E261-15ux556" viewBox="0 0 1000 1000" overflow="inherit">
         <path transform="scale(1,-1)" d="M0 -188v539h18v-191l139 22v-533h-17v186zM18 -100l122 17v176l-122 -19v-174z" />
      </symbol>
      <symbol id="E262-15ux556" viewBox="0 0 1000 1000" overflow="inherit">
         <path transform="scale(1,-1)" d="M136 186v169h17v-164l44 14v-91l-44 -14v-165l44 12v-91l-44 -13v-155h-17v150l-76 -22v-155h-17v149l-43 -13v90l43 14v167l-43 -14v92l43 13v169h17v-163zM60 73v-167l76 22v168z" />
      </symbol>
   </defs>
   <style type="text/css">g.page-margin{font-family:Times;} g.ending, g.fing, g.reh, g.tempo{font-weight:bold;} g.dir, g.dynam, g.mNum{font-style:italic;} g.label{font-weight:normal;}</style>
   <svg class="definition-scale" color="black" viewBox="0 0 9490 2750">
      <g class="page-margin" transform="translate(500, 500)">
         <g id="me15r7n" class="mdiv pageMilestone" />
         <g id="s1d57h6s" class="score pageMilestone" />
         <g id="s6tx8lf" class="system">
            <g id="smet4hd" class="section systemMilestone" />
            <g id="maj27" class="measure">
               <g id="s1axbio0" class="staff">
                  <path d="M0 855 L2432 855" stroke="currentColor" stroke-width="13" />
                  <path d="M0 1035 L2432 1035" stroke="currentColor" stroke-width="13" />
                  <path d="M0 1215 L2432 1215" stroke="currentColor" stroke-width="13" />
                  <path d="M0 1395 L2432 1395" stroke="currentColor" stroke-width="13" />
                  <path d="M0 1575 L2432 1575" stroke="currentColor" stroke-width="13" />
                  <g id="c1it1zon" class="clef">
                     <use xlink:href="#E062-15ux556" x="88" y="1035" height="720px" width="720px" />
                  </g>
                  <g id="k14qyo4w" class="keySig">
                     <g id="klem246" class="keyAccid">
                        <use xlink:href="#E262-15ux556" x="769" y="1035" height="720px" width="720px" />
                     </g>
                  </g>
                  <g id="m7c8b3" class="meterSig">
                     <use xlink:href="#E08A-15ux556" x="1090" y="1215" height="720px" width="720px" />
                  </g>
                  <g class="ledgerLines above cue">
                     <path d="M2133 675 L2373 675" stroke="currentColor" stroke-width="16" />
                  </g>
                  <g id="l1h556f8" class="layer">
                     <g id="gtwti83" class="graceGrp">
                        <g id="b1qdic1l" class="beam">
                           <polygon points="1718,180 2337,0 2337,67 1718,247" />
                           <polygon points="1718,280 2092,171 2092,238 1718,347" />
                           <polygon points="2092,171 2337,100 2337,167 2092,238" />
                           <polygon points="1718,380 2092,271 2092,338 1718,447" />
                           <polygon points="2092,271 2337,200 2337,267 2092,338" />
                           <g id="n1kvldvx" class="note">
                              <g class="notehead">
                                 <use xlink:href="#E0A4-15ux556" x="1568" y="1215" height="540px" width="540px" />
                              </g>
                              <g id="s1diug5" class="stem">
                                 <rect x="1718" y="198" height="996" width="18" />
                              </g>
                           </g>
                           <g id="n1eutf55" class="note">
                              <g class="notehead">
                                 <use xlink:href="#E0A4-15ux556" x="1933" y="1035" height="540px" width="540px" />
                              </g>
                              <g id="s5xu055" class="stem">
                                 <rect x="2083" y="89" height="925" width="18" />
                              </g>
                              <g id="ac29x2n" class="accid">
                                 <use xlink:href="#E261-15ux556" x="1804" y="1035" height="540px" width="540px" />
                              </g>
                           </g>
                           <g id="n1wryc95" class="note">
                              <g class="notehead">
                                 <use xlink:href="#E0A4-15ux556" x="2169" y="585" height="540px" width="540px" />
                              </g>
                              <g id="s1c7ux5f" class="stem">
                                 <rect x="2319" y="18" height="546" width="18" />
                              </g>
                           </g>
                        </g>
                     </g>
                  </g>
               </g>
               <g id="bd8ados" class="barLine">
                  <path d="M2419 855 L2419 1575" stroke="currentColor" stroke-width="27" />
               </g>
            </g>
            <g id="mrjxj5z" class="measure">
               <g id="sl7aas9" class="staff">
                  <path d="M2432 855 L4828 855" stroke="currentColor" stroke-width="13" />
                  <path d="M2432 1035 L4828 1035" stroke="currentColor" stroke-width="13" />
                  <path d="M2432 1215 L4828 1215" stroke="currentColor" stroke-width="13" />
                  <path d="M2432 1395 L4828 1395" stroke="currentColor" stroke-width="13" />
                  <path d="M2432 1575 L4828 1575" stroke="currentColor" stroke-width="13" />
                  <g class="ledgerLines above">
                     <path d="M2564 675 L2886 675" stroke="currentColor" stroke-width="22" />
                     <path d="M3739 675 L4017 675" stroke="currentColor" stroke-width="22" />
                     <path d="M2564 495 L2886 495" stroke="currentColor" stroke-width="22" />
                     <path d="M3739 495 L4017 495" stroke="currentColor" stroke-width="22" />
                     <path d="M3739 315 L4017 315" stroke="currentColor" stroke-width="22" />
                  </g>
                  <g class="ledgerLines above cue">
                     <path d="M3509 675 L3717 675" stroke="currentColor" stroke-width="16" />
                     <path d="M4529 675 L4769 675" stroke="currentColor" stroke-width="16" />
                  </g>
                  <g id="ljx4kfj" class="layer">
                     <g id="n1l0qosn" class="note">
                        <g class="notehead">
                           <use xlink:href="#E0A3-15ux556" x="2612" y="405" height="720px" width="720px" />
                        </g>
                        <g id="s1t4imxy" class="stem">
                           <rect x="2612" y="430" height="785" width="18" />
                        </g>
                     </g>
                     <g id="g1bphtqe" class="graceGrp">
                        <g id="b1bmm5zc" class="beam">
                           <polygon points="3078,180 3697,0 3697,67 3078,247" />
                           <polygon points="3078,280 3452,171 3452,238 3078,347" />
                           <polygon points="3452,171 3697,100 3697,167 3452,238" />
                           <polygon points="3078,380 3452,271 3452,338 3078,447" />
                           <polygon points="3452,271 3697,200 3697,267 3452,338" />
                           <g id="nm9gldr" class="note">
                              <g class="notehead">
                                 <use xlink:href="#E0A4-15ux556" x="2928" y="1215" height="540px" width="540px" />
                              </g>
                              <g id="sf15nd4" class="stem">
                                 <rect x="3078" y="198" height="996" width="18" />
                              </g>
                           </g>
                           <g id="n6lavjx" class="note">
                              <g class="notehead">
                                 <use xlink:href="#E0A4-15ux556" x="3293" y="1035" height="540px" width="540px" />
                              </g>
                              <g id="s1so4aao" class="stem">
                                 <rect x="3443" y="89" height="925" width="18" />
                              </g>
                              <g id="a47hp0q" class="accid">
                                 <use xlink:href="#E261-15ux556" x="3164" y="1035" height="540px" width="540px" />
                              </g>
                           </g>
                           <g id="n1d6chli" class="note">
                              <g class="notehead">
                                 <use xlink:href="#E0A4-15ux556" x="3529" y="585" height="540px" width="540px" />
                              </g>
                              <g id="siv16ea" class="stem">
                                 <rect x="3679" y="18" height="546" width="18" />
                              </g>
                           </g>
                        </g>
                     </g>
                     <g id="n10sz2ux" class="note">
                        <g class="notehead">
                           <use xlink:href="#E0A3-15ux556" x="3765" y="225" height="720px" width="720px" />
                        </g>
                        <g id="sl8ebre" class="stem">
                           <rect x="3765" y="250" height="965" width="18" />
                        </g>
                     </g>
                     <g id="g1w1fj4l" class="graceGrp">
                        <g id="b6zhf6m" class="beam">
                           <polygon points="4243,180 4733,0 4733,67 4243,247" />
                           <polygon points="4243,280 4488,190 4488,257 4243,347" />
                           <polygon points="4488,190 4733,100 4733,167 4488,257" />
                           <polygon points="4243,380 4488,290 4488,357 4243,447" />
                           <polygon points="4488,290 4733,200 4733,267 4488,357" />
                           <g id="n1q90xdt" class="note">
                              <g class="notehead">
                                 <use xlink:href="#E0A4-15ux556" x="4093" y="1215" height="540px" width="540px" />
                              </g>
                              <g id="syx0aaf" class="stem">
                                 <rect x="4243" y="198" height="996" width="18" />
                              </g>
                           </g>
                           <g id="n1pfycn4" class="note">
                              <g class="notehead">
                                 <use xlink:href="#E0A4-15ux556" x="4329" y="1035" height="540px" width="540px" />
                              </g>
                              <g id="s15ick27" class="stem">
                                 <rect x="4479" y="108" height="906" width="18" />
                              </g>
                           </g>
                           <g id="n1rjlykc" class="note">
                              <g class="notehead">
                                 <use xlink:href="#E0A4-15ux556" x="4565" y="585" height="540px" width="540px" />
                              </g>
                              <g id="s3sgcfj" class="stem">
                                 <rect x="4715" y="18" height="546" width="18" />
                              </g>
                           </g>
                        </g>
                     </g>
                  </g>
               </g>
               <g id="bm92q1x" class="barLine">
                  <path d="M4815 855 L4815 1575" stroke="currentColor" stroke-width="27" />
               </g>
            </g>
            <g id="m1co6lqq" class="measure">
               <g id="svotdr6" class="staff">
                  <path d="M4828 855 L6611 855" stroke="currentColor" stroke-width="13" />
                  <path d="M4828 1035 L6611 1035" stroke="currentColor" stroke-width="13" />
                  <path d="M4828 1215 L6611 1215" stroke="currentColor" stroke-width="13" />
                  <path d="M4828 1395 L6611 1395" stroke="currentColor" stroke-width="13" />
                  <path d="M4828 1575 L6611 1575" stroke="currentColor" stroke-width="13" />
                  <g class="ledgerLines above">
                     <path d="M4960 675 L5346 675" stroke="currentColor" stroke-width="22" />
                     <path d="M4960 495 L5346 495" stroke="currentColor" stroke-width="22" />
                     <path d="M4960 315 L5346 315" stroke="currentColor" stroke-width="22" />
                     <path d="M4960 135 L5346 135" stroke="currentColor" stroke-width="22" />
                  </g>
                  <g class="ledgerLines above cue">
                     <path d="M6312 675 L6552 675" stroke="currentColor" stroke-width="16" />
                  </g>
                  <g id="l1k29xw7" class="layer">
                     <g id="n1mw7zrl" class="note">
                        <g class="notehead">
                           <use xlink:href="#E0A2-15ux556" x="5008" y="135" height="720px" width="720px" />
                        </g>
                     </g>
                     <g id="gt8zkfl" class="graceGrp">
                        <g id="b164j9s7" class="beam">
                           <polygon points="6026,270 6516,90 6516,157 6026,337" />
                           <polygon points="6026,370 6271,280 6271,347 6026,437" />
                           <polygon points="6271,280 6516,190 6516,257 6271,347" />
                           <polygon points="6026,470 6271,380 6271,447 6026,537" />
                           <polygon points="6271,380 6516,290 6516,357 6271,447" />
                           <g id="n61gu14" class="note">
                              <g class="notehead">
                                 <use xlink:href="#E0A4-15ux556" x="5876" y="1125" height="540px" width="540px" />
                              </g>
                              <g id="s14s302h" class="stem">
                                 <rect x="6026" y="288" height="816" width="18" />
                              </g>
                           </g>
                           <g id="n1mxe0go" class="note">
                              <g class="notehead">
                                 <use xlink:href="#E0A4-15ux556" x="6112" y="945" height="540px" width="540px" />
                              </g>
                              <g id="s17lwqmf" class="stem">
                                 <rect x="6262" y="198" height="726" width="18" />
                              </g>
                           </g>
                           <g id="n2rv899" class="note">
                              <g class="notehead">
                                 <use xlink:href="#E0A4-15ux556" x="6348" y="675" height="540px" width="540px" />
                              </g>
                              <g id="saf794j" class="stem">
                                 <rect x="6498" y="108" height="546" width="18" />
                              </g>
                           </g>
                        </g>
                     </g>
                  </g>
               </g>
               <g id="b1bmglde" class="barLine">
                  <path d="M6598 855 L6598 1575" stroke="currentColor" stroke-width="27" />
               </g>
            </g>
            <g id="m1sx3qkk" class="measure">
               <g id="sfrzwqv" class="staff">
                  <path d="M6611 855 L8493 855" stroke="currentColor" stroke-width="13" />
                  <path d="M6611 1035 L8493 1035" stroke="currentColor" stroke-width="13" />
                  <path d="M6611 1215 L8493 1215" stroke="currentColor" stroke-width="13" />
                  <path d="M6611 1395 L8493 1395" stroke="currentColor" stroke-width="13" />
                  <path d="M6611 1575 L8493 1575" stroke="currentColor" stroke-width="13" />
                  <g class="ledgerLines above">
                     <path d="M6743 675 L7129 675" stroke="currentColor" stroke-width="22" />
                     <path d="M6743 495 L7129 495" stroke="currentColor" stroke-width="22" />
                     <path d="M6743 315 L7129 315" stroke="currentColor" stroke-width="22" />
                  </g>
                  <g id="l7bykuy" class="layer">
                     <g id="nje7wj7" class="note">
                        <g class="notehead">
                           <use xlink:href="#E0A2-15ux556" x="6791" y="225" height="720px" width="720px" />
                        </g>
                     </g>
                  </g>
               </g>
               <g id="b1jaffx2" class="barLine">
                  <path d="M8381 855 L8381 1575" stroke="currentColor" stroke-width="27" />
                  <path d="M8480 855 L8480 1575" stroke="currentColor" stroke-width="27" />
               </g>
            </g>
            <g id="skfvgnr" class="systemMilestoneEnd smet4hd" />
         </g>
         <g id="p8hjtkt" class="pageMilestoneEnd s1d57h6s" />
         <g id="p98hx0k" class="pageMilestoneEnd me15r7n" />
      </g>
   </svg>
</svg>
