<svg width="534px" height="110px" version="1.1" xmlns="http://www.w3.org/2000/svg" xmlns:xlink="http://www.w3.org/1999/xlink" xmlns:mei="http://www.music-encoding.org/ns/mei" overflow="visible">
   <desc>Engraved by Verovio 3.13.1-010bd42</desc>
   <defs>
      <symbol id="E262-1dbnqlt" viewBox="0 0 1000 1000" overflow="inherit">
         <path transform="scale(1,-1)" d="M136 186v169h17v-164l44 14v-91l-44 -14v-165l44 12v-91l-44 -13v-155h-17v150l-76 -22v-155h-17v149l-43 -13v90l43 14v167l-43 -14v92l43 13v169h17v-163zM60 73v-167l76 22v168z" />
      </symbol>
      <symbol id="E4E4-1dbnqlt" viewBox="0 0 1000 1000" overflow="inherit">
         <path transform="scale(1,-1)" d="M0 10v105c0 9 1 10 10 10h280c9 0 10 -1 10 -10v-105c0 -9 -1 -10 -10 -10h-280c-9 0 -10 1 -10 10z" />
      </symbol>
      <symbol id="E4E5-1dbnqlt" viewBox="0 0 1000 1000" overflow="inherit">
         <path transform="scale(1,-1)" d="M107 292c-13 24 -30 49 -52 71c-1 1 0 2 0 3l-2 2c3 3 4 4 6 4c12 0 26 -7 40 -20s44 -40 89 -81c26 -24 28 -29 46 -47c4 -4 8 -9 10 -14c6 -8 8 -16 8 -27c0 -19 -12 -40 -36 -61c-28 -23 -49 -38 -61 -73c-4 -11 -7 -27 -10 -50c13 -43 34 -83 59 -121 c31 -47 59 -79 101 -129c-8 0 -26 7 -54 20l-62 29l-21 6l-23 1c-25 0 -45 -10 -60 -30l-4 -14l-1 -12c0 -33 20 -56 39 -78c8 -9 17 -18 26 -26c17 -15 27 -24 28 -30l-3 -3c-11 5 -19 10 -25 15c-9 3 -37 21 -45 26c-24 14 -45 32 -63 51c-19 21 -37 44 -37 71 c0 63 27 95 80 95c41 0 86 -18 136 -52c-19 26 -37 48 -55 66c-23 23 -48 44 -73 65c-28 23 -47 40 -58 53s-17 26 -18 39c75 64 113 125 113 183c0 27 -7 48 -18 68z" />
      </symbol>
      <symbol id="E05C-1dbnqlt" viewBox="0 0 1000 1000" overflow="inherit">
         <path transform="scale(1,-1)" d="M175 502h43v-456c10 5 18 12 37 29c16 19 22 27 27 38s8 24 14 49c3 22 5 43 5 62c7 -34 31 -54 73 -60c73 18 99 61 100 165c0 46 -10 78 -31 100c-18 23 -41 35 -69 35c-40 0 -65 -32 -66 -84c6 12 11 16 39 24c5 0 2 1 16 -4l17 -10l10 -14l7 -18 c-4 -32 -23 -48 -56 -48c-51 0 -77 33 -77 98c10 35 16 47 30 61c9 9 15 14 23 17c3 3 22 9 27 11l34 3l35 2c123 0 192 -64 192 -178l1 -33c0 -52 -20 -97 -60 -134c-18 -15 -42 -28 -74 -39c-30 -9 -63 -13 -101 -13l-93 -88v-34l93 -88c38 0 71 -4 101 -13 c32 -11 56 -24 74 -39c40 -37 60 -82 60 -134l-3 -33c0 -115 -68 -178 -190 -178l-35 2l-34 3c-5 2 -24 8 -27 11c-26 11 -40 32 -53 78c0 65 26 98 77 98c33 0 52 -16 56 -48l-7 -18l-10 -14l-17 -10c-14 -5 -11 -4 -16 -4c-28 8 -33 12 -39 24c1 -52 26 -84 66 -84 c28 0 51 12 69 35c21 22 31 54 31 100c-1 104 -27 147 -100 165c-42 -6 -66 -26 -73 -60c0 19 -2 40 -5 62c-6 25 -9 38 -14 49s-11 19 -27 38c-19 17 -27 24 -37 29v-456h-43v1004zM0 502h118v-1004h-118v1004z" />
      </symbol>
      <symbol id="E08A-1dbnqlt" viewBox="0 0 1000 1000" overflow="inherit">
         <path transform="scale(1,-1)" d="M340 179c-9 24 -56 41 -89 41c-46 0 -81 -28 -100 -58c-17 -28 -25 -78 -25 -150c0 -65 2 -111 8 -135c8 -31 18 -49 40 -67c20 -17 43 -25 70 -25c54 0 92 36 115 75c14 25 23 54 28 88h27c0 -63 -24 -105 -58 -141c-35 -38 -82 -56 -140 -56c-45 0 -83 13 -115 39 c-57 45 -101 130 -101 226c0 59 33 127 68 163c36 37 97 72 160 72c36 0 93 -21 121 -40c11 -8 23 -17 33 -30c19 -23 27 -48 27 -76c0 -51 -35 -88 -86 -88c-43 0 -76 27 -76 68c0 26 7 35 21 51c15 17 32 27 58 32c7 2 14 7 14 11z" />
      </symbol>
      <symbol id="E0A4-1dbnqlt" viewBox="0 0 1000 1000" overflow="inherit">
         <path transform="scale(1,-1)" d="M0 -39c0 68 73 172 200 172c66 0 114 -37 114 -95c0 -84 -106 -171 -218 -171c-64 0 -96 30 -96 94z" />
      </symbol>
      <symbol id="E240-1dbnqlt" viewBox="0 0 1000 1000" overflow="inherit">
         <path transform="scale(1,-1)" d="M179 -646c15 29 29 55 46 102c18 49 30 108 30 138c0 105 -80 173 -168 200c-18 5 -47 9 -87 16v190h22c8 0 33 -61 71 -95c4 -3 -2 3 61 -56c62 -58 122 -137 122 -241c0 -38 -13 -106 -35 -163c-20 -51 -43 -99 -66 -132c-6 -5 -10 -7 -13 -7s-5 2 -5 5l4 10 c1 3 14 25 18 33z" />
      </symbol>
   </defs>
   <style type="text/css">g.page-margin{font-family:Times;} g.ending, g.fing, g.reh, g.tempo{font-weight:bold;} g.dir, g.dynam, g.mNum{font-style:italic;} g.label{font-weight:normal;}</style>
   <svg class="definition-scale" color="black" viewBox="0 0 11850 2440">
      <g class="page-margin" transform="translate(500, 500)">
         <g id="m11vd3cp" class="mdiv pageMilestone" />
         <g id="se15r7n" class="score pageMilestone" />
         <g id="svtbb6w" class="system">
            <g id="skkm5ug" class="section systemMilestone" />
            <g id="maj27" class="measure">
               <g id="s1y8mnf3" class="staff">
                  <path d="M0 360 L4582 360" stroke="currentColor" stroke-width="13" />
                  <path d="M0 540 L4582 540" stroke="currentColor" stroke-width="13" />
                  <path d="M0 720 L4582 720" stroke="currentColor" stroke-width="13" />
                  <path d="M0 900 L4582 900" stroke="currentColor" stroke-width="13" />
                  <path d="M0 1080 L4582 1080" stroke="currentColor" stroke-width="13" />
                  <g id="c103n9h4" class="clef">
                     <use xlink:href="#E05C-1dbnqlt" x="90" y="1080" height="720px" width="720px" />
                  </g>
                  <g id="k1hjqv97" class="keySig">
                     <g id="ketbz4f" class="keyAccid">
                        <use xlink:href="#E262-1dbnqlt" x="706" y="810" height="720px" width="720px" />
                     </g>
                     <g id="k1tk9zx4" class="keyAccid">
                        <use xlink:href="#E262-1dbnqlt" x="884" y="1080" height="720px" width="720px" />
                     </g>
                     <g id="k3i2r5n" class="keyAccid">
                        <use xlink:href="#E262-1dbnqlt" x="1062" y="720" height="720px" width="720px" />
                     </g>
                     <g id="k1ejg5u1" class="keyAccid">
                        <use xlink:href="#E262-1dbnqlt" x="1240" y="990" height="720px" width="720px" />
                     </g>
                  </g>
                  <g id="m10usdky" class="meterSig">
                     <use xlink:href="#E08A-1dbnqlt" x="1561" y="720" height="720px" width="720px" />
                  </g>
                  <g id="l1axbio0" class="layer">
                     <g id="r1sx3qkk" class="rest">
                        <use xlink:href="#E4E4-1dbnqlt" x="2129" y="720" height="720px" width="720px" />
                        <g class="ledgerLines" />
                     </g>
                     <g id="rtn3fmf" class="rest">
                        <use xlink:href="#E4E5-1dbnqlt" x="3179" y="720" height="720px" width="720px" />
                        <g id="d1diug5" class="dots">
                           <ellipse cx="3488" cy="630" rx="36" ry="36" />
                        </g>
                     </g>
                     <g id="nwh4gyf" class="note">
                        <g class="notehead">
                           <use xlink:href="#E0A4-1dbnqlt" x="4059" y="990" height="720px" width="720px" />
                        </g>
                        <g id="s5xu055" class="stem">
                           <rect x="4267" y="360" height="602" width="18" />
                           <g id="f1c7ux5f" class="flag">
                              <use xlink:href="#E240-1dbnqlt" x="4267" y="360" height="720px" width="720px" />
                           </g>
                        </g>
                        <g id="ac29x2n" class="accid" />
                     </g>
                  </g>
               </g>
               <g id="bd8ados" class="barLine">
                  <path d="M4569 360 L4569 1080" stroke="currentColor" stroke-width="27" />
               </g>
            </g>
            <g id="mrjxj5z" class="measure">
               <g id="s1h556f8" class="staff">
                  <path d="M4582 360 L9989 360" stroke="currentColor" stroke-width="13" />
                  <path d="M4582 540 L9989 540" stroke="currentColor" stroke-width="13" />
                  <path d="M4582 720 L9989 720" stroke="currentColor" stroke-width="13" />
                  <path d="M4582 900 L9989 900" stroke="currentColor" stroke-width="13" />
                  <path d="M4582 1080 L9989 1080" stroke="currentColor" stroke-width="13" />
                  <g id="ll7aas9" class="layer">
                     <g id="b1pfycn4" class="beam">
                        <polygon points="4970,180 5438,135 5438,225 4970,270" />
                        <g id="n13oms4p" class="note">
                           <g class="notehead">
                              <use xlink:href="#E0A4-1dbnqlt" x="4762" y="900" height="720px" width="720px" />
                           </g>
                           <g id="s1t4imxy" class="stem">
                              <rect x="4970" y="198" height="674" width="18" />
                           </g>
                        </g>
                        <g id="nulcesx" class="note">
                           <g class="notehead">
                              <use xlink:href="#E0A4-1dbnqlt" x="5212" y="720" height="720px" width="720px" />
                           </g>
                           <g id="sf15nd4" class="stem">
                              <rect x="5420" y="153" height="539" width="18" />
                           </g>
                           <g id="a47hp0q" class="accid" />
                        </g>
                     </g>
                     <g id="b1rjlykc" class="beam">
                        <polygon points="5662,1440 6060,1440 6060,1350 5662,1350" />
                        <polygon points="5662,1305 6060,1305 6060,1215 5662,1215" />
                        <polygon points="5834,1170 6060,1170 6060,1080 5834,1080" />
                        <g id="n9yzgtz" class="note">
                           <g class="notehead">
                              <use xlink:href="#E0A4-1dbnqlt" x="5662" y="540" height="720px" width="720px" />
                           </g>
                           <g id="div16ea" class="dots">
                              <ellipse cx="5978" cy="450" rx="36" ry="36" />
                           </g>
                           <g id="s1so4aao" class="stem">
                              <rect x="5662" y="568" height="854" width="18" />
                           </g>
                        </g>
                        <g id="n1upgee6" class="note">
                           <g class="notehead">
                              <use xlink:href="#E0A4-1dbnqlt" x="6042" y="630" height="720px" width="720px" />
                           </g>
                           <g id="sl8ebre" class="stem">
                              <rect x="6042" y="658" height="764" width="18" />
                           </g>
                        </g>
                     </g>
                     <g id="b1mw7zrl" class="beam">
                        <polygon points="6566,135 6964,135 6964,225 6566,225" />
                        <polygon points="6566,270 6964,270 6964,360 6566,360" />
                        <polygon points="6738,405 6964,405 6964,495 6738,495" />
                        <g id="ne2kfvk" class="note">
                           <g class="notehead">
                              <use xlink:href="#E0A4-1dbnqlt" x="6358" y="720" height="720px" width="720px" />
                           </g>
                           <g id="d15ick27" class="dots">
                              <ellipse cx="6674" cy="630" rx="36" ry="36" />
                           </g>
                           <g id="syx0aaf" class="stem">
                              <rect x="6566" y="153" height="539" width="18" />
                           </g>
                           <g id="a1qdic1l" class="accid" />
                        </g>
                        <g id="n1jaffx2" class="note">
                           <g class="notehead">
                              <use xlink:href="#E0A4-1dbnqlt" x="6738" y="810" height="720px" width="720px" />
                           </g>
                           <g id="s3sgcfj" class="stem">
                              <rect x="6946" y="153" height="629" width="18" />
                           </g>
                           <g id="a1bmm5zc" class="accid" />
                        </g>
                     </g>
                     <g id="b61gu14" class="beam">
                        <polygon points="7262,315 7660,315 7660,405 7262,405" />
                        <polygon points="7262,450 7660,450 7660,540 7262,540" />
                        <polygon points="7434,585 7660,585 7660,675 7434,675" />
                        <g id="n1kvldvx" class="note">
                           <g class="notehead">
                              <use xlink:href="#E0A4-1dbnqlt" x="7054" y="900" height="720px" width="720px" />
                           </g>
                           <g id="d14s302h" class="dots">
                              <ellipse cx="7370" cy="810" rx="36" ry="36" />
                           </g>
                           <g id="s1473mmv" class="stem">
                              <rect x="7262" y="333" height="539" width="18" />
                           </g>
                        </g>
                        <g id="n1eutf55" class="note">
                           <g class="notehead">
                              <use xlink:href="#E0A4-1dbnqlt" x="7434" y="990" height="720px" width="720px" />
                           </g>
                           <g id="s17lwqmf" class="stem">
                              <rect x="7642" y="333" height="629" width="18" />
                           </g>
                           <g id="a6zhf6m" class="accid" />
                        </g>
                     </g>
                     <g id="b1mxe0go" class="beam">
                        <polygon points="7958,0 8418,0 8418,90 7958,90" />
                        <polygon points="7958,135 8418,135 8418,225 7958,225" />
                        <polygon points="8192,270 8418,270 8418,360 8192,360" />
                        <g id="n1wryc95" class="note">
                           <g class="notehead">
                              <use xlink:href="#E0A4-1dbnqlt" x="7750" y="900" height="720px" width="720px" />
                           </g>
                           <g id="d1vxywd8" class="dots">
                              <ellipse cx="8066" cy="810" rx="36" ry="36" />
                           </g>
                           <g id="saf794j" class="stem">
                              <rect x="7958" y="18" height="854" width="18" />
                           </g>
                        </g>
                        <g id="n1l0qosn" class="note">
                           <g class="notehead">
                              <use xlink:href="#E0A4-1dbnqlt" x="8192" y="810" height="720px" width="720px" />
                           </g>
                           <g id="s15ux556" class="stem">
                              <rect x="8400" y="18" height="764" width="18" />
                           </g>
                           <g id="a164j9s7" class="accid" />
                        </g>
                     </g>
                     <g id="b2rv899" class="beam">
                        <polygon points="8508,1305 8968,1305 8968,1215 8508,1215" />
                        <polygon points="8508,1170 8968,1170 8968,1080 8508,1080" />
                        <polygon points="8742,1035 8968,1035 8968,945 8742,945" />
                        <g id="nm9gldr" class="note">
                           <g class="notehead">
                              <use xlink:href="#E0A4-1dbnqlt" x="8508" y="720" height="720px" width="720px" />
                           </g>
                           <g id="d1dpczse" class="dots">
                              <ellipse cx="8824" cy="630" rx="36" ry="36" />
                           </g>
                           <g id="sijcp1a" class="stem">
                              <rect x="8508" y="748" height="539" width="18" />
                           </g>
                           <g id="atwti83" class="accid" />
                        </g>
                        <g id="n6lavjx" class="note">
                           <g class="notehead">
                              <use xlink:href="#E0A4-1dbnqlt" x="8950" y="630" height="720px" width="720px" />
                           </g>
                           <g id="sgeqd9c" class="stem">
                              <rect x="8950" y="658" height="629" width="18" />
                           </g>
                        </g>
                     </g>
                     <g id="bje7wj7" class="beam">
                        <polygon points="9474,135 9872,135 9872,225 9474,225" />
                        <polygon points="9474,270 9872,270 9872,360 9474,360" />
                        <polygon points="9646,405 9872,405 9872,495 9646,495" />
                        <g id="n1d6chli" class="note">
                           <g class="notehead">
                              <use xlink:href="#E0A4-1dbnqlt" x="9266" y="720" height="720px" width="720px" />
                           </g>
                           <g id="d11w35w7" class="dots">
                              <ellipse cx="9582" cy="630" rx="36" ry="36" />
                           </g>
                           <g id="s79oi54" class="stem">
                              <rect x="9474" y="153" height="539" width="18" />
                           </g>
                           <g id="a1bphtqe" class="accid" />
                        </g>
                        <g id="n10sz2ux" class="note">
                           <g class="notehead">
                              <use xlink:href="#E0A4-1dbnqlt" x="9646" y="810" height="720px" width="720px" />
                           </g>
                           <g id="stesczb" class="stem">
                              <rect x="9854" y="153" height="629" width="18" />
                           </g>
                           <g id="a1w1fj4l" class="accid" />
                        </g>
                     </g>
                  </g>
               </g>
               <g id="bm92q1x" class="barLine">
                  <path d="M9976 360 L9976 1080" stroke="currentColor" stroke-width="27" />
               </g>
            </g>
            <g id="m1co6lqq" class="measure">
               <g id="sjx4kfj" class="staff">
                  <path d="M9989 360 L10859 360" stroke="currentColor" stroke-width="13" />
                  <path d="M9989 540 L10859 540" stroke="currentColor" stroke-width="13" />
                  <path d="M9989 720 L10859 720" stroke="currentColor" stroke-width="13" />
                  <path d="M9989 900 L10859 900" stroke="currentColor" stroke-width="13" />
                  <path d="M9989 1080 L10859 1080" stroke="currentColor" stroke-width="13" />
                  <g id="lvotdr6" class="layer">
                     <g id="n1q90xdt" class="note">
                        <g class="notehead">
                           <use xlink:href="#E0A4-1dbnqlt" x="10169" y="900" height="720px" width="720px" />
                        </g>
                        <g id="s1vh3k1t" class="stem">
                           <rect x="10377" y="270" height="602" width="18" />
                        </g>
                     </g>
                  </g>
               </g>
               <g id="b1bmglde" class="barLine" />
            </g>
            <g id="s6tx8lf" class="systemMilestoneEnd skkm5ug" />
         </g>
         <g id="pkusyjr" class="pageMilestoneEnd se15r7n" />
         <g id="p1s60ozi" class="pageMilestoneEnd m11vd3cp" />
      </g>
   </svg>
</svg>
