<svg width="267px" height="105px" version="1.1" xmlns="http://www.w3.org/2000/svg" xmlns:xlink="http://www.w3.org/1999/xlink" xmlns:mei="http://www.music-encoding.org/ns/mei" overflow="visible">
   <desc>Engraved by Verovio 3.13.1-010bd42</desc>
   <defs>
      <symbol id="E050-6tx8lf" viewBox="0 0 1000 1000" overflow="inherit">
         <path transform="scale(1,-1)" d="M441 -245c-23 -4 -48 -6 -76 -6c-59 0 -102 7 -130 20c-88 42 -150 93 -187 154c-26 44 -43 103 -48 176c0 6 -1 13 -1 19c0 54 15 111 45 170c29 57 65 106 110 148s96 85 153 127c-3 16 -8 46 -13 92c-4 43 -5 73 -5 89c0 117 16 172 69 257c34 54 64 82 89 82 c21 0 43 -30 69 -92s39 -115 41 -159v-15c0 -109 -21 -162 -67 -241c-13 -20 -63 -90 -98 -118c-13 -9 -25 -19 -37 -29l31 -181c8 1 18 2 28 2c58 0 102 -12 133 -35c59 -43 92 -104 98 -184c1 -7 1 -15 1 -22c0 -123 -87 -209 -181 -248c8 -57 17 -110 25 -162 c5 -31 6 -58 6 -80c0 -30 -5 -53 -14 -70c-35 -64 -88 -99 -158 -103c-5 0 -11 -1 -16 -1c-37 0 -72 10 -108 27c-50 24 -77 59 -80 105v11c0 29 7 55 20 76c18 28 45 42 79 44h6c49 0 93 -42 97 -87v-9c0 -51 -34 -86 -105 -106c17 -24 51 -36 102 -36c62 0 116 43 140 85 c9 16 13 41 13 74c0 20 -1 42 -5 67c-8 53 -18 106 -26 159zM461 939c-95 0 -135 -175 -135 -286c0 -24 2 -48 5 -71c50 39 92 82 127 128c40 53 60 100 60 140v8c-4 53 -22 81 -55 81h-2zM406 119l54 -326c73 25 110 78 110 161c0 7 0 15 -1 23c-7 95 -57 142 -151 142h-12 zM382 117c-72 -2 -128 -47 -128 -120v-7c2 -46 43 -99 75 -115c-3 -2 -7 -5 -10 -10c-70 33 -116 88 -123 172v11c0 68 44 126 88 159c23 17 49 29 78 36l-29 170c-21 -13 -52 -37 -92 -73c-50 -44 -86 -84 -109 -119c-45 -69 -67 -130 -67 -182v-13c5 -68 35 -127 93 -176 s125 -73 203 -73c25 0 50 3 75 9c-19 111 -36 221 -54 331z" />
      </symbol>
      <symbol id="E082-6tx8lf" viewBox="0 0 1000 1000" overflow="inherit">
         <path transform="scale(1,-1)" d="M124 -185c-18 0 -55 -14 -65 -65h-36l-3 30c0 25 6 45 18 63c11 19 22 30 39 43l121 82l37 29c15 11 27 29 38 54c12 24 18 47 18 70c0 40 -19 88 -94 88c-25 0 -32 0 -50 -8c-14 -5 -23 -12 -26 -22c3 -9 7 -15 10 -18l24 -17c12 -7 17 -11 27 -21c5 -7 7 -16 7 -27 c0 -12 0 -57 -79 -74c-30 0 -76 26 -76 94c0 66 81 135 197 135c72 0 181 -32 181 -150c0 -53 -32 -95 -113 -133l-91 -41c-26 -11 -45 -23 -57 -37l49 7c84 0 115 -41 148 -41c20 0 33 20 39 61h35c0 -152 -68 -168 -114 -168c-17 0 -65 0 -79 7h10l-28 17 c-49 37 -69 40 -87 42z" />
      </symbol>
      <symbol id="E084-6tx8lf" viewBox="0 0 1000 1000" overflow="inherit">
         <path transform="scale(1,-1)" d="M20 -78c84 97 114 180 134 329h170c-13 -32 -82 -132 -99 -151l-84 -97c-33 -36 -59 -63 -80 -81h162v102l127 123v-225h57v-39h-57v-34c0 -43 19 -65 57 -65v-34h-244v36c48 0 60 26 60 70v27h-203v39z" />
      </symbol>
      <symbol id="E0A4-6tx8lf" viewBox="0 0 1000 1000" overflow="inherit">
         <path transform="scale(1,-1)" d="M0 -39c0 68 73 172 200 172c66 0 114 -37 114 -95c0 -84 -106 -171 -218 -171c-64 0 -96 30 -96 94z" />
      </symbol>
      <symbol id="E240-6tx8lf" viewBox="0 0 1000 1000" overflow="inherit">
         <path transform="scale(1,-1)" d="M179 -646c15 29 29 55 46 102c18 49 30 108 30 138c0 105 -80 173 -168 200c-18 5 -47 9 -87 16v190h22c8 0 33 -61 71 -95c4 -3 -2 3 61 -56c62 -58 122 -137 122 -241c0 -38 -13 -106 -35 -163c-20 -51 -43 -99 -66 -132c-6 -5 -10 -7 -13 -7s-5 2 -5 5l4 10 c1 3 14 25 18 33z" />
      </symbol>
      <symbol id="E242-6tx8lf" viewBox="0 0 1000 1000" overflow="inherit">
         <path transform="scale(1,-1)" d="M206 -748c32 48 49 100 49 149c0 89 -55 168 -168 203c-18 5 -47 9 -87 16v190v190h22c8 0 33 -61 71 -95c4 -3 -2 3 61 -56c62 -58 122 -137 122 -241c0 -32 -7 -65 -17 -96c11 -29 17 -60 17 -94c0 -71 -32 -148 -67 -190c-6 -5 -10 -7 -13 -7s-5 2 -5 5l4 10 c1 3 6 8 11 16zM248 -463c4 18 7 38 7 57c0 105 -80 173 -168 200c-11 3 -27 6 -47 9c9 -17 23 -61 53 -88c4 -3 -2 3 61 -56c36 -33 71 -74 94 -122z" />
      </symbol>
   </defs>
   <style type="text/css">g.page-margin{font-family:Times;} g.ending, g.fing, g.reh, g.tempo{font-weight:bold;} g.dir, g.dynam, g.mNum{font-style:italic;} g.label{font-weight:normal;}</style>
   <svg class="definition-scale" color="black" viewBox="0 0 5930 2320">
      <g class="page-margin" transform="translate(500, 500)">
         <g id="mtmdeed" class="mdiv pageMilestone" />
         <g id="saj27" class="score pageMilestone" />
         <g id="s2fdoc3" class="system">
            <g id="ss6kuiu" class="section systemMilestone" />
            <g id="abcLine06" class="pb" />
            <g id="mulcesx" class="measure">
               <g id="sm9gldr" class="staff">
                  <path d="M0 300 L2809 300" stroke="currentColor" stroke-width="13" />
                  <path d="M0 480 L2809 480" stroke="currentColor" stroke-width="13" />
                  <path d="M0 660 L2809 660" stroke="currentColor" stroke-width="13" />
                  <path d="M0 840 L2809 840" stroke="currentColor" stroke-width="13" />
                  <path d="M0 1020 L2809 1020" stroke="currentColor" stroke-width="13" />
                  <g id="c1qqpo9j" class="clef">
                     <use xlink:href="#E050-6tx8lf" x="90" y="840" height="720px" width="720px" />
                  </g>
                  <g id="k1d0xif0" class="keySig" />
                  <g id="m18asswh" class="meterSig">
                     <use xlink:href="#E082-6tx8lf" x="721" y="480" height="720px" width="720px" />
                     <use xlink:href="#E084-6tx8lf" x="726" y="840" height="720px" width="720px" />
                  </g>
                  <g class="ledgerLines below">
                     <path d="M1246 1200 L1568 1200" stroke="currentColor" stroke-width="22" />
                     <path d="M1652 1200 L1974 1200" stroke="currentColor" stroke-width="22" />
                     <path d="M2102 1200 L2424 1200" stroke="currentColor" stroke-width="22" />
                  </g>
                  <g id="l129tcc2" class="layer">
                     <g id="c1o441lg" class="chord">
                        <g id="sl7aas9" class="stem">
                           <rect x="1502" y="0" height="1172" width="18" />
                           <g id="fjx4kfj" class="flag">
                              <use xlink:href="#E242-6tx8lf" x="1502" y="0" height="720px" width="720px" />
                           </g>
                        </g>
                        <g id="ntrxe66" class="note">
                           <g class="notehead">
                              <use xlink:href="#E0A4-6tx8lf" x="1294" y="1200" height="720px" width="720px" />
                           </g>
                        </g>
                        <g id="nm92q1x" class="note">
                           <g class="notehead">
                              <use xlink:href="#E0A4-6tx8lf" x="1294" y="1020" height="720px" width="720px" />
                           </g>
                        </g>
                        <g id="n1co6lqq" class="note">
                           <g class="notehead">
                              <use xlink:href="#E0A4-6tx8lf" x="1294" y="840" height="720px" width="720px" />
                           </g>
                        </g>
                        <g id="n119bu1g" class="note">
                           <g class="notehead">
                              <use xlink:href="#E0A4-6tx8lf" x="1294" y="570" height="720px" width="720px" />
                           </g>
                        </g>
                     </g>
                     <g id="ceit2ff" class="chord">
                        <g id="svotdr6" class="stem">
                           <rect x="1908" y="210" height="962" width="18" />
                           <g id="f1k29xw7" class="flag">
                              <use xlink:href="#E240-6tx8lf" x="1908" y="210" height="720px" width="720px" />
                           </g>
                        </g>
                        <g id="nvhyiv0" class="note">
                           <g class="notehead">
                              <use xlink:href="#E0A4-6tx8lf" x="1700" y="1200" height="720px" width="720px" />
                           </g>
                        </g>
                        <g id="n1qdg0yy" class="note">
                           <g class="notehead">
                              <use xlink:href="#E0A4-6tx8lf" x="1700" y="840" height="720px" width="720px" />
                           </g>
                        </g>
                     </g>
                     <g id="b13oms4p" class="beam">
                        <polygon points="2358,300 2692,255 2692,345 2358,390" />
                        <polygon points="2358,435 2692,390 2692,480 2358,525" />
                        <g id="cgb1z18" class="chord">
                           <g id="sfrzwqv" class="stem">
                              <rect x="2358" y="318" height="854" width="18" />
                           </g>
                           <g id="n1y16zh" class="note">
                              <g class="notehead">
                                 <use xlink:href="#E0A4-6tx8lf" x="2150" y="1200" height="720px" width="720px" />
                              </g>
                           </g>
                           <g id="n11yk1am" class="note">
                              <g class="notehead">
                                 <use xlink:href="#E0A4-6tx8lf" x="2150" y="1020" height="720px" width="720px" />
                              </g>
                           </g>
                        </g>
                        <g id="c1bmglde" class="chord">
                           <g id="s7bykuy" class="stem">
                              <rect x="2674" y="273" height="809" width="18" />
                           </g>
                           <g id="n1sx3qkk" class="note">
                              <g class="notehead">
                                 <use xlink:href="#E0A4-6tx8lf" x="2466" y="1110" height="720px" width="720px" />
                              </g>
                           </g>
                           <g id="ntn3fmf" class="note">
                              <g class="notehead">
                                 <use xlink:href="#E0A4-6tx8lf" x="2466" y="930" height="720px" width="720px" />
                              </g>
                              <g id="awh4gyf" class="accid" />
                           </g>
                        </g>
                     </g>
                  </g>
               </g>
               <g id="b1l0qosn" class="barLine">
                  <path d="M2796 300 L2796 1020" stroke="currentColor" stroke-width="27" />
               </g>
            </g>
            <g id="m164j9s7" class="measure">
               <g id="smet4hd" class="staff">
                  <path d="M2809 300 L4936 300" stroke="currentColor" stroke-width="13" />
                  <path d="M2809 480 L4936 480" stroke="currentColor" stroke-width="13" />
                  <path d="M2809 660 L4936 660" stroke="currentColor" stroke-width="13" />
                  <path d="M2809 840 L4936 840" stroke="currentColor" stroke-width="13" />
                  <path d="M2809 1020 L4936 1020" stroke="currentColor" stroke-width="13" />
                  <g id="l6lavjx" class="layer">
                     <g id="b47hp0q" class="beam">
                        <polygon points="3197,300 3981,120 3981,210 3197,390" />
                        <polygon points="3656,330 3981,255 3981,345 3656,420" />
                        <g id="c1d6chli" class="chord">
                           <g id="s57lm6x" class="stem">
                              <rect x="3197" y="318" height="764" width="18" />
                           </g>
                           <g id="n10sz2ux" class="note">
                              <g class="notehead">
                                 <use xlink:href="#E0A4-6tx8lf" x="2989" y="1110" height="720px" width="720px" />
                              </g>
                           </g>
                           <g id="n1q90xdt" class="note">
                              <g class="notehead">
                                 <use xlink:href="#E0A4-6tx8lf" x="2989" y="930" height="720px" width="720px" />
                              </g>
                              <g id="a1pfycn4" class="accid" />
                           </g>
                        </g>
                        <g id="c1rjlykc" class="chord">
                           <g id="svtbb6w" class="stem">
                              <rect x="3647" y="213" height="779" width="18" />
                           </g>
                           <g id="n1mw7zrl" class="note">
                              <g class="notehead">
                                 <use xlink:href="#E0A4-6tx8lf" x="3439" y="1020" height="720px" width="720px" />
                              </g>
                           </g>
                           <g id="n61gu14" class="note">
                              <g class="notehead">
                                 <use xlink:href="#E0A4-6tx8lf" x="3439" y="840" height="720px" width="720px" />
                              </g>
                           </g>
                        </g>
                        <g id="c1mxe0go" class="chord">
                           <g id="sxbw8wm" class="stem">
                              <rect x="3963" y="138" height="764" width="18" />
                           </g>
                           <g id="n2rv899" class="note">
                              <g class="notehead">
                                 <use xlink:href="#E0A4-6tx8lf" x="3755" y="930" height="720px" width="720px" />
                              </g>
                              <g id="aje7wj7" class="accid" />
                           </g>
                           <g id="nc29x2n" class="note">
                              <g class="notehead">
                                 <use xlink:href="#E0A4-6tx8lf" x="3755" y="750" height="720px" width="720px" />
                              </g>
                           </g>
                        </g>
                     </g>
                     <g id="c1qdic1l" class="chord">
                        <g id="s1sjdpu1" class="stem">
                           <rect x="4071" y="508" height="812" width="18" />
                        </g>
                        <g id="n1bmm5zc" class="note">
                           <g class="notehead">
                              <use xlink:href="#E0A4-6tx8lf" x="4071" y="750" height="720px" width="720px" />
                           </g>
                        </g>
                        <g id="n6zhf6m" class="note">
                           <g class="notehead">
                              <use xlink:href="#E0A4-6tx8lf" x="4071" y="480" height="720px" width="720px" />
                           </g>
                        </g>
                     </g>
                  </g>
               </g>
               <g id="bkkm5ug" class="barLine">
                  <path d="M4761 300 L4761 1020" stroke="currentColor" stroke-width="27" />
                  <path d="M4891 300 L4891 1020" stroke="currentColor" stroke-width="90" />
               </g>
            </g>
            <g id="abcLine07" class="sb" />
            <g id="s1y8mnf3" class="systemMilestoneEnd ss6kuiu" />
         </g>
         <g id="p1axbio0" class="pageMilestoneEnd saj27" />
         <g id="p1h556f8" class="pageMilestoneEnd mtmdeed" />
      </g>
   </svg>
</svg>
