<svg width="308px" height="118px" version="1.1" xmlns="http://www.w3.org/2000/svg" xmlns:xlink="http://www.w3.org/1999/xlink" xmlns:mei="http://www.music-encoding.org/ns/mei" overflow="visible">
   <desc>Engraved by Verovio 3.4.1-8f65a58</desc>
   <defs>
      <symbol id="E050-0000001908194298" viewBox="0 0 1000 1000" overflow="inherit">
         <path transform="scale(1,-1)" d="M441 -245c-23 -4 -48 -6 -76 -6c-59 0 -102 7 -130 20c-88 42 -150 93 -187 154c-26 44 -43 103 -48 176c0 6 -1 13 -1 19c0 54 15 111 45 170c29 57 65 106 110 148s96 85 153 127c-3 16 -8 46 -13 92c-4 43 -5 73 -5 89c0 117 16 172 69 257c34 54 64 82 89 82 c21 0 43 -30 69 -92s39 -115 41 -159v-15c0 -109 -21 -162 -67 -241c-13 -20 -63 -90 -98 -118c-13 -9 -25 -19 -37 -29l31 -181c8 1 18 2 28 2c58 0 102 -12 133 -35c59 -43 92 -104 98 -184c1 -7 1 -15 1 -22c0 -123 -87 -209 -181 -248c8 -57 17 -110 25 -162 c5 -31 6 -58 6 -80c0 -30 -5 -53 -14 -70c-35 -64 -88 -99 -158 -103c-5 0 -11 -1 -16 -1c-37 0 -72 10 -108 27c-50 24 -77 59 -80 105v11c0 29 7 55 20 76c18 28 45 42 79 44h6c49 0 93 -42 97 -87v-9c0 -51 -34 -86 -105 -106c17 -24 51 -36 102 -36c62 0 116 43 140 85 c9 16 13 41 13 74c0 20 -1 42 -5 67c-8 53 -18 106 -26 159zM461 939c-95 0 -135 -175 -135 -286c0 -24 2 -48 5 -71c50 39 92 82 127 128c40 53 60 100 60 140v8c-4 53 -22 81 -55 81h-2zM406 119l54 -326c73 25 110 78 110 161c0 7 0 15 -1 23c-7 95 -57 142 -151 142h-12 zM382 117c-72 -2 -128 -47 -128 -120v-7c2 -46 43 -99 75 -115c-3 -2 -7 -5 -10 -10c-70 33 -116 88 -123 172v11c0 68 44 126 88 159c23 17 49 29 78 36l-29 170c-21 -13 -52 -37 -92 -73c-50 -44 -86 -84 -109 -119c-45 -69 -67 -130 -67 -182v-13c5 -68 35 -127 93 -176 s125 -73 203 -73c25 0 50 3 75 9c-19 111 -36 221 -54 331z" />
      </symbol>
      <symbol id="E082-0000001908194298" viewBox="0 0 1000 1000" overflow="inherit">
         <path transform="scale(1,-1)" d="M104 -185c-18 0 -55 -14 -65 -65h-36l-3 29c0 25 6 46 18 64c11 19 22 30 39 43l121 82l37 29c15 11 27 29 38 54c12 24 18 47 18 70c0 40 -19 88 -94 88c-25 0 -32 0 -50 -8c-14 -5 -23 -12 -26 -22c3 -9 7 -15 10 -18l24 -17c12 -7 17 -11 27 -21c5 -7 7 -16 7 -27 c0 -12 0 -57 -79 -74c-30 0 -76 26 -76 94c0 66 81 135 197 135c72 0 181 -32 181 -150c0 -53 -32 -95 -113 -133l-91 -41c-26 -11 -45 -23 -57 -37l49 7c84 0 115 -41 148 -41c20 0 33 20 39 61h35c0 -152 -68 -168 -114 -168c-17 0 -65 0 -79 7h10l-28 17 c-49 37 -69 40 -87 42z" />
      </symbol>
      <symbol id="E084-0000001908194298" viewBox="0 0 1000 1000" overflow="inherit">
         <path transform="scale(1,-1)" d="M0 -78c84 97 114 180 134 329h170c-13 -32 -82 -132 -99 -151l-84 -97c-33 -36 -59 -63 -80 -81h162v102l127 123v-225h57v-39h-57v-34c0 -43 19 -65 57 -65v-34h-244v36c48 0 60 26 60 70v27h-203v39z" />
      </symbol>
      <symbol id="E0A4-0000001908194298" viewBox="0 0 1000 1000" overflow="inherit">
         <path transform="scale(1,-1)" d="M0 -39c0 68 73 172 200 172c66 0 114 -37 114 -95c0 -84 -106 -171 -218 -171c-64 0 -96 30 -96 94z" />
      </symbol>
      <symbol id="E240-0000001908194298" viewBox="0 0 1000 1000" overflow="inherit">
         <path transform="scale(1,-1)" d="M179 -646c15 29 29 55 46 102c18 49 30 108 30 138c0 105 -80 173 -168 200c-18 5 -47 9 -87 16v190h22c8 0 33 -61 71 -95c4 -3 -2 3 61 -56c62 -58 122 -137 122 -241c0 -38 -13 -106 -35 -163c-20 -51 -43 -99 -66 -132c-6 -5 -10 -7 -13 -7s-5 2 -5 5l4 10 c1 3 14 25 18 33z" />
      </symbol>
      <symbol id="E242-0000001908194298" viewBox="0 0 1000 1000" overflow="inherit">
         <path transform="scale(1,-1)" d="M206 -748c32 48 49 100 49 149c0 89 -55 168 -168 203c-18 5 -47 9 -87 16v190v190h22c8 0 33 -61 71 -95c4 -3 -2 3 61 -56c62 -58 122 -137 122 -241c0 -32 -7 -65 -17 -96c11 -29 17 -60 17 -94c0 -71 -32 -148 -67 -190c-6 -5 -10 -7 -13 -7s-5 2 -5 5l4 10 c1 3 6 8 11 16zM248 -463c4 18 7 38 7 57c0 105 -80 173 -168 200c-11 3 -27 6 -47 9c9 -17 23 -61 53 -88c4 -3 -2 3 61 -56c36 -33 71 -74 94 -122z" />
      </symbol>
   </defs>
   <style type="text/css">g.page-margin{font-family:Times;} g.ending, g.reh, g.tempo{font-weight:bold;} g.dir, g.dynam, g.mNum{font-style:italic;} g.label{font-weight:normal;}</style>
   <svg class="definition-scale" color="black" viewBox="0 0 6160 2360">
      <g class="page-margin" transform="translate(500, 500)">
         <g id="system-0000000997389814" class="system">
            <g id="section-0000000114807987" class="section boundaryStart" />
            <g id="abcLine05" class="pb" />
            <g id="measure-0000000101929267" class="measure">
               <g id="staff-0000001551901393" class="staff">
                  <path d="M0 300 L3035 300" stroke="currentColor" stroke-width="13" />
                  <path d="M0 480 L3035 480" stroke="currentColor" stroke-width="13" />
                  <path d="M0 660 L3035 660" stroke="currentColor" stroke-width="13" />
                  <path d="M0 840 L3035 840" stroke="currentColor" stroke-width="13" />
                  <path d="M0 1020 L3035 1020" stroke="currentColor" stroke-width="13" />
                  <g id="clef-0000001073185695" class="clef">
                     <use xlink:href="#E050-0000001908194298" x="90" y="840" height="720px" width="720px" />
                  </g>
                  <g id="msig-0000001260973671" class="meterSig">
                     <use xlink:href="#E082-0000001908194298" x="825" y="480" height="720px" width="720px" />
                     <use xlink:href="#E084-0000001908194298" x="831" y="840" height="720px" width="720px" />
                  </g>
                  <g class="ledgerLines below">
                     <path d="M1351 1200 L1634 1200" stroke="currentColor" stroke-width="22" />
                     <path d="M1847 1200 L2130 1200" stroke="currentColor" stroke-width="22" />
                     <path d="M2343 1200 L2626 1200" stroke="currentColor" stroke-width="22" />
                  </g>
                  <g id="layer-0000001441282327" class="layer">
                     <g id="chord-0000000016531729" class="chord">
                        <g id="stem-0000001654001669" class="stem">
                           <rect x="1592" y="0" height="1172" width="18" />
                           <g id="flag-0000001777724115" class="flag">
                              <use xlink:href="#E242-0000001908194298" x="1592" y="0" height="720px" width="720px" />
                           </g>
                        </g>
                        <g id="note-0000000823378840" class="note">
                           <g class="notehead">
                              <use xlink:href="#E0A4-0000001908194298" x="1384" y="1200" height="720px" width="720px" />
                           </g>
                        </g>
                        <g id="note-0000000143542612" class="note">
                           <g class="notehead">
                              <use xlink:href="#E0A4-0000001908194298" x="1384" y="1020" height="720px" width="720px" />
                           </g>
                        </g>
                        <g id="note-0000000896544303" class="note">
                           <g class="notehead">
                              <use xlink:href="#E0A4-0000001908194298" x="1384" y="840" height="720px" width="720px" />
                           </g>
                        </g>
                        <g id="note-0000001474833169" class="note">
                           <g class="notehead">
                              <use xlink:href="#E0A4-0000001908194298" x="1384" y="570" height="720px" width="720px" />
                           </g>
                        </g>
                     </g>
                     <g id="chord-0000001264817709" class="chord">
                        <g id="stem-0000000269220094" class="stem">
                           <rect x="2088" y="210" height="962" width="18" />
                           <g id="flag-0000000034075629" class="flag">
                              <use xlink:href="#E240-0000001908194298" x="2088" y="210" height="720px" width="720px" />
                           </g>
                        </g>
                        <g id="note-0000001998097157" class="note">
                           <g class="notehead">
                              <use xlink:href="#E0A4-0000001908194298" x="1880" y="1200" height="720px" width="720px" />
                           </g>
                        </g>
                        <g id="note-0000001817129560" class="note">
                           <g class="notehead">
                              <use xlink:href="#E0A4-0000001908194298" x="1880" y="840" height="720px" width="720px" />
                           </g>
                        </g>
                     </g>
                     <g id="beam-0000000563613512" class="beam">
                        <polygon points="2584,300 2918,255 2918,345 2584,390 " />
                        <polygon points="2584,435 2918,390 2918,480 2584,525 " />
                        <g id="chord-0000001131570933" class="chord">
                           <g id="stem-0000001478446501" class="stem">
                              <rect x="2584" y="318" height="854" width="18" />
                           </g>
                           <g id="note-0000000197493099" class="note">
                              <g class="notehead">
                                 <use xlink:href="#E0A4-0000001908194298" x="2376" y="1200" height="720px" width="720px" />
                              </g>
                           </g>
                           <g id="note-0000001404280278" class="note">
                              <g class="notehead">
                                 <use xlink:href="#E0A4-0000001908194298" x="2376" y="1020" height="720px" width="720px" />
                              </g>
                           </g>
                        </g>
                        <g id="chord-0000000893351816" class="chord">
                           <g id="stem-0000001864546517" class="stem">
                              <rect x="2900" y="273" height="809" width="18" />
                           </g>
                           <g id="note-0000001505795335" class="note">
                              <g class="notehead">
                                 <use xlink:href="#E0A4-0000001908194298" x="2692" y="1110" height="720px" width="720px" />
                              </g>
                           </g>
                           <g id="note-0000001954899097" class="note">
                              <g class="notehead">
                                 <use xlink:href="#E0A4-0000001908194298" x="2692" y="930" height="720px" width="720px" />
                              </g>
                              <g id="accid-0000001636807826" class="accid" />
                           </g>
                        </g>
                     </g>
                  </g>
               </g>
               <g id="bline-0000002110010672" class="barLineAttr">
                  <path d="M3022 1020 L3022 300" stroke="currentColor" stroke-width="27" />
               </g>
            </g>
            <g id="measure-0000000130060903" class="measure">
               <g id="staff-0000002035308228" class="staff">
                  <path d="M3035 300 L5162 300" stroke="currentColor" stroke-width="13" />
                  <path d="M3035 480 L5162 480" stroke="currentColor" stroke-width="13" />
                  <path d="M3035 660 L5162 660" stroke="currentColor" stroke-width="13" />
                  <path d="M3035 840 L5162 840" stroke="currentColor" stroke-width="13" />
                  <path d="M3035 1020 L5162 1020" stroke="currentColor" stroke-width="13" />
                  <g id="layer-0000001617819336" class="layer">
                     <g id="beam-0000000357571490" class="beam">
                        <polygon points="3423,300 4207,120 4207,210 3423,390 " />
                        <polygon points="3882,330 4207,255 4207,345 3882,420 " />
                        <g id="chord-0000001399125485" class="chord">
                           <g id="stem-0000001351934195" class="stem">
                              <rect x="3423" y="318" height="764" width="18" />
                           </g>
                           <g id="note-0000000156091745" class="note">
                              <g class="notehead">
                                 <use xlink:href="#E0A4-0000001908194298" x="3215" y="1110" height="720px" width="720px" />
                              </g>
                           </g>
                           <g id="note-0000001356425228" class="note">
                              <g class="notehead">
                                 <use xlink:href="#E0A4-0000001908194298" x="3215" y="930" height="720px" width="720px" />
                              </g>
                              <g id="accid-0000001899894091" class="accid" />
                           </g>
                        </g>
                        <g id="chord-0000000585640194" class="chord">
                           <g id="stem-0000001581030105" class="stem">
                              <rect x="3873" y="213" height="779" width="18" />
                           </g>
                           <g id="note-0000000937186357" class="note">
                              <g class="notehead">
                                 <use xlink:href="#E0A4-0000001908194298" x="3665" y="1020" height="720px" width="720px" />
                              </g>
                           </g>
                           <g id="note-0000001646035001" class="note">
                              <g class="notehead">
                                 <use xlink:href="#E0A4-0000001908194298" x="3665" y="840" height="720px" width="720px" />
                              </g>
                           </g>
                        </g>
                        <g id="chord-0000001025921153" class="chord">
                           <g id="stem-0000001557810404" class="stem">
                              <rect x="4189" y="138" height="764" width="18" />
                           </g>
                           <g id="note-0000000510616708" class="note">
                              <g class="notehead">
                                 <use xlink:href="#E0A4-0000001908194298" x="3981" y="930" height="720px" width="720px" />
                              </g>
                              <g id="accid-0000000590357944" class="accid" />
                           </g>
                           <g id="note-0000000771515668" class="note">
                              <g class="notehead">
                                 <use xlink:href="#E0A4-0000001908194298" x="3981" y="750" height="720px" width="720px" />
                              </g>
                           </g>
                        </g>
                     </g>
                     <g id="chord-0000001044788124" class="chord">
                        <g id="stem-0000002146319451" class="stem">
                           <rect x="4297" y="508" height="812" width="18" />
                        </g>
                        <g id="note-0000001927702196" class="note">
                           <g class="notehead">
                              <use xlink:href="#E0A4-0000001908194298" x="4297" y="750" height="720px" width="720px" />
                           </g>
                        </g>
                        <g id="note-0000001952509530" class="note">
                           <g class="notehead">
                              <use xlink:href="#E0A4-0000001908194298" x="4297" y="480" height="720px" width="720px" />
                           </g>
                        </g>
                     </g>
                  </g>
               </g>
               <g id="bline-0000000194847408" class="barLineAttr">
                  <path d="M4987 1020 L4987 300" stroke="currentColor" stroke-width="27" />
                  <path d="M5117 1020 L5117 300" stroke="currentColor" stroke-width="90" />
               </g>
            </g>
            <g id="abcLine06" class="sb" />
            <g id="bdend-0000001635339425" class="boundaryEnd section-0000000114807987" />
         </g>
      </g>
   </svg>
</svg>
