<svg width="1050px" height="166px" version="1.1" xmlns="http://www.w3.org/2000/svg" xmlns:xlink="http://www.w3.org/1999/xlink" xmlns:mei="http://www.music-encoding.org/ns/mei" overflow="visible">
   <desc>Engraved by Verovio 3.12.0-77bd079</desc>
   <defs>
      <symbol id="E050-bxaaw" viewBox="0 0 1000 1000" overflow="inherit">
         <path transform="scale(1,-1)" d="M441 -245c-23 -4 -48 -6 -76 -6c-59 0 -102 7 -130 20c-88 42 -150 93 -187 154c-26 44 -43 103 -48 176c0 6 -1 13 -1 19c0 54 15 111 45 170c29 57 65 106 110 148s96 85 153 127c-3 16 -8 46 -13 92c-4 43 -5 73 -5 89c0 117 16 172 69 257c34 54 64 82 89 82 c21 0 43 -30 69 -92s39 -115 41 -159v-15c0 -109 -21 -162 -67 -241c-13 -20 -63 -90 -98 -118c-13 -9 -25 -19 -37 -29l31 -181c8 1 18 2 28 2c58 0 102 -12 133 -35c59 -43 92 -104 98 -184c1 -7 1 -15 1 -22c0 -123 -87 -209 -181 -248c8 -57 17 -110 25 -162 c5 -31 6 -58 6 -80c0 -30 -5 -53 -14 -70c-35 -64 -88 -99 -158 -103c-5 0 -11 -1 -16 -1c-37 0 -72 10 -108 27c-50 24 -77 59 -80 105v11c0 29 7 55 20 76c18 28 45 42 79 44h6c49 0 93 -42 97 -87v-9c0 -51 -34 -86 -105 -106c17 -24 51 -36 102 -36c62 0 116 43 140 85 c9 16 13 41 13 74c0 20 -1 42 -5 67c-8 53 -18 106 -26 159zM461 939c-95 0 -135 -175 -135 -286c0 -24 2 -48 5 -71c50 39 92 82 127 128c40 53 60 100 60 140v8c-4 53 -22 81 -55 81h-2zM406 119l54 -326c73 25 110 78 110 161c0 7 0 15 -1 23c-7 95 -57 142 -151 142h-12 zM382 117c-72 -2 -128 -47 -128 -120v-7c2 -46 43 -99 75 -115c-3 -2 -7 -5 -10 -10c-70 33 -116 88 -123 172v11c0 68 44 126 88 159c23 17 49 29 78 36l-29 170c-21 -13 -52 -37 -92 -73c-50 -44 -86 -84 -109 -119c-45 -69 -67 -130 -67 -182v-13c5 -68 35 -127 93 -176 s125 -73 203 -73c25 0 50 3 75 9c-19 111 -36 221 -54 331z" />
      </symbol>
      <symbol id="E084-bxaaw" viewBox="0 0 1000 1000" overflow="inherit">
         <path transform="scale(1,-1)" d="M20 -78c84 97 114 180 134 329h170c-13 -32 -82 -132 -99 -151l-84 -97c-33 -36 -59 -63 -80 -81h162v102l127 123v-225h57v-39h-57v-34c0 -43 19 -65 57 -65v-34h-244v36c48 0 60 26 60 70v27h-203v39z" />
      </symbol>
      <symbol id="E0A3-bxaaw" viewBox="0 0 1000 1000" overflow="inherit">
         <path transform="scale(1,-1)" d="M278 64c0 22 -17 39 -43 39c-12 0 -26 -3 -41 -10c-85 -43 -165 -94 -165 -156c5 -25 15 -32 49 -32c67 11 200 95 200 159zM0 -36c0 68 73 174 200 174c66 0 114 -39 114 -97c0 -84 -106 -173 -218 -173c-64 0 -96 32 -96 96z" />
      </symbol>
      <symbol id="E0A4-bxaaw" viewBox="0 0 1000 1000" overflow="inherit">
         <path transform="scale(1,-1)" d="M0 -39c0 68 73 172 200 172c66 0 114 -37 114 -95c0 -84 -106 -171 -218 -171c-64 0 -96 30 -96 94z" />
      </symbol>
      <symbol id="E240-bxaaw" viewBox="0 0 1000 1000" overflow="inherit">
         <path transform="scale(1,-1)" d="M179 -646c15 29 29 55 46 102c18 49 30 108 30 138c0 105 -80 173 -168 200c-18 5 -47 9 -87 16v190h22c8 0 33 -61 71 -95c4 -3 -2 3 61 -56c62 -58 122 -137 122 -241c0 -38 -13 -106 -35 -163c-20 -51 -43 -99 -66 -132c-6 -5 -10 -7 -13 -7s-5 2 -5 5l4 10 c1 3 14 25 18 33z" />
      </symbol>
      <symbol id="E241-bxaaw" viewBox="0 0 1000 1000" overflow="inherit">
         <path transform="scale(1,-1)" d="M179 646c-4 8 -17 30 -18 33l-4 10c0 3 2 5 5 5s7 -2 13 -7c23 -33 46 -81 66 -132c22 -57 35 -125 35 -163c0 -104 -60 -183 -122 -241c-63 -59 -57 -53 -61 -56c-38 -34 -63 -95 -71 -95h-22v190c40 7 69 11 87 16c88 27 168 95 168 200c0 30 -12 89 -30 138 c-17 47 -31 73 -46 102z" />
      </symbol>
      <symbol id="E262-bxaaw" viewBox="0 0 1000 1000" overflow="inherit">
         <path transform="scale(1,-1)" d="M136 186v169h17v-164l44 14v-91l-44 -14v-165l44 12v-91l-44 -13v-155h-17v150l-76 -22v-155h-17v149l-43 -13v90l43 14v167l-43 -14v92l43 13v169h17v-163zM60 73v-167l76 22v168z" />
      </symbol>
   </defs>
   <style type="text/css">g.page-margin{font-family:Times;} g.ending, g.fing, g.reh, g.tempo{font-weight:bold;} g.dir, g.dynam, g.mNum{font-style:italic;} g.label{font-weight:normal;}</style>
   <svg class="definition-scale" color="black" viewBox="0 0 21000 3320">
      <g class="page-margin" transform="translate(500, 500)">
         <g id="mtmdeed" class="mdiv pageMilestone" />
         <g id="slh3jkb" class="score pageMilestone" />
         <g id="sz2mhpe" class="system">
            <g id="strxe66" class="section systemMilestone" />
            <g id="abcLine09" class="pb" />
            <g id="m1qdg0yy" class="measure">
               <g id="sulcesx" class="staff">
                  <path d="M0 1318 L2307 1318" stroke="currentColor" stroke-width="13" />
                  <path d="M0 1498 L2307 1498" stroke="currentColor" stroke-width="13" />
                  <path d="M0 1678 L2307 1678" stroke="currentColor" stroke-width="13" />
                  <path d="M0 1858 L2307 1858" stroke="currentColor" stroke-width="13" />
                  <path d="M0 2038 L2307 2038" stroke="currentColor" stroke-width="13" />
                  <g id="c1k2l19i" class="clef">
                     <use xlink:href="#E050-bxaaw" x="90" y="1858" height="720px" width="720px" />
                  </g>
                  <g id="k1dl0e9r" class="keySig">
                     <g id="k1ryr3sj" class="keyAccid">
                        <use xlink:href="#E262-bxaaw" x="735" y="1318" height="720px" width="720px" />
                     </g>
                  </g>
                  <g id="m1pekkdq" class="meterSig">
                     <use xlink:href="#E084-bxaaw" x="1042" y="1498" height="720px" width="720px" />
                     <use xlink:href="#E084-bxaaw" x="1042" y="1858" height="720px" width="720px" />
                  </g>
                  <g id="l1co6lqq" class="layer">
                     <g id="nvhyiv0" class="note">
                        <g class="notehead">
                           <use xlink:href="#E0A4-bxaaw" x="1604" y="2128" height="720px" width="720px" />
                        </g>
                        <g id="sz0t4ct" class="stem">
                           <rect x="1812" y="1498" height="602" width="18" />
                        </g>
                     </g>
                  </g>
               </g>
               <g id="t1f5y8b0" class="tempo">
                  <text x="1042" y="1190" font-size="0px">
                     <tspan id="t1u8njuw" class="text">
                        <tspan font-size="405px" class="text">Andante</tspan>
                     </tspan>
                  </text>
               </g>
               <g id="b13oms4p" class="barLine">
                  <path d="M2294 1318 L2294 2038" stroke="currentColor" stroke-width="27" />
               </g>
            </g>
            <g id="m1d6chli" class="measure">
               <g id="sje7wj7" class="staff">
                  <path d="M2307 1318 L5256 1318" stroke="currentColor" stroke-width="13" />
                  <path d="M2307 1498 L5256 1498" stroke="currentColor" stroke-width="13" />
                  <path d="M2307 1678 L5256 1678" stroke="currentColor" stroke-width="13" />
                  <path d="M2307 1858 L5256 1858" stroke="currentColor" stroke-width="13" />
                  <path d="M2307 2038 L5256 2038" stroke="currentColor" stroke-width="13" />
                  <g id="l9yzgtz" class="layer">
                     <g id="n1jaffx2" class="note">
                        <g class="notehead">
                           <use xlink:href="#E0A4-bxaaw" x="2487" y="1858" height="720px" width="720px" />
                        </g>
                        <g id="d12edjsw" class="dots">
                           <ellipse cx="2803" cy="1768" rx="36" ry="36" />
                        </g>
                        <g id="stf3pj7" class="stem">
                           <rect x="2695" y="1228" height="602" width="18" />
                        </g>
                     </g>
                     <g id="n1kvldvx" class="note">
                        <g class="notehead">
                           <use xlink:href="#E0A4-bxaaw" x="3367" y="1768" height="720px" width="720px" />
                        </g>
                        <g id="s3jqins" class="stem">
                           <rect x="3575" y="1138" height="602" width="18" />
                           <g id="f1idfjel" class="flag">
                              <use xlink:href="#E240-bxaaw" x="3575" y="1138" height="720px" width="720px" />
                           </g>
                        </g>
                     </g>
                     <g id="n1l0qosn" class="note">
                        <g class="notehead">
                           <use xlink:href="#E0A4-bxaaw" x="3863" y="1678" height="720px" width="720px" />
                        </g>
                        <g id="s122cibx" class="stem">
                           <rect x="3863" y="1706" height="572" width="18" />
                        </g>
                     </g>
                     <g id="nm9gldr" class="note">
                        <g class="notehead">
                           <use xlink:href="#E0A4-bxaaw" x="4182" y="1768" height="540px" width="540px" />
                        </g>
                        <g id="s37ycjq" class="stem">
                           <rect x="4333" y="1296" height="451" width="18" />
                           <path d="M4275 1564 L4476 1363" stroke="currentColor" stroke-width="21" />
                           <g id="f1b5ebec" class="flag">
                              <use xlink:href="#E240-bxaaw" x="4333" y="1296" height="540px" width="540px" />
                           </g>
                        </g>
                     </g>
                     <g id="n6lavjx" class="note">
                        <g class="notehead">
                           <use xlink:href="#E0A4-bxaaw" x="4553" y="1858" height="720px" width="720px" />
                        </g>
                        <g id="s9xwq8l" class="stem">
                           <rect x="4761" y="1228" height="602" width="18" />
                        </g>
                     </g>
                  </g>
               </g>
               <g id="b2rv899" class="barLine">
                  <path d="M5243 1318 L5243 2038" stroke="currentColor" stroke-width="27" />
               </g>
            </g>
            <g id="m11vd3cp" class="measure">
               <g id="stawp5c" class="staff">
                  <path d="M5256 1318 L8159 1318" stroke="currentColor" stroke-width="13" />
                  <path d="M5256 1498 L8159 1498" stroke="currentColor" stroke-width="13" />
                  <path d="M5256 1678 L8159 1678" stroke="currentColor" stroke-width="13" />
                  <path d="M5256 1858 L8159 1858" stroke="currentColor" stroke-width="13" />
                  <path d="M5256 2038 L8159 2038" stroke="currentColor" stroke-width="13" />
                  <g id="lc29x2n" class="layer">
                     <g id="n1bmm5zc" class="note">
                        <g class="notehead">
                           <use xlink:href="#E0A4-bxaaw" x="5436" y="1768" height="720px" width="720px" />
                        </g>
                        <g id="d1ka9jpe" class="dots">
                           <ellipse cx="5752" cy="1768" rx="36" ry="36" />
                        </g>
                        <g id="s10kmnra" class="stem">
                           <rect x="5644" y="1138" height="602" width="18" />
                        </g>
                     </g>
                     <g id="n6zhf6m" class="note">
                        <g class="notehead">
                           <use xlink:href="#E0A4-bxaaw" x="6316" y="1678" height="720px" width="720px" />
                        </g>
                        <g id="s1v3fo0c" class="stem">
                           <rect x="6316" y="1706" height="572" width="18" />
                           <g id="f247e8r" class="flag">
                              <use xlink:href="#E241-bxaaw" x="6316" y="2278" height="720px" width="720px" />
                           </g>
                        </g>
                     </g>
                     <g id="n1bphtqe" class="note">
                        <g class="notehead">
                           <use xlink:href="#E0A4-bxaaw" x="6766" y="1768" height="720px" width="720px" />
                        </g>
                        <g id="s15nvxxx" class="stem">
                           <rect x="6974" y="1138" height="602" width="18" />
                        </g>
                     </g>
                     <g id="n1w1fj4l" class="note">
                        <g class="notehead">
                           <use xlink:href="#E0A4-bxaaw" x="7085" y="2038" height="540px" width="540px" />
                        </g>
                        <g id="s1qq91or" class="stem">
                           <rect x="7236" y="1566" height="451" width="18" />
                           <path d="M7178 1834 L7379 1633" stroke="currentColor" stroke-width="21" />
                           <g id="f1s63m6f" class="flag">
                              <use xlink:href="#E240-bxaaw" x="7236" y="1566" height="540px" width="540px" />
                           </g>
                        </g>
                     </g>
                     <g id="nt8zkfl" class="note">
                        <g class="notehead">
                           <use xlink:href="#E0A4-bxaaw" x="7456" y="2128" height="720px" width="720px" />
                        </g>
                        <g id="s12eutsd" class="stem">
                           <rect x="7664" y="1498" height="602" width="18" />
                        </g>
                     </g>
                  </g>
               </g>
               <g id="b1na8chg" class="barLine">
                  <path d="M8146 1318 L8146 2038" stroke="currentColor" stroke-width="27" />
               </g>
            </g>
            <g id="mfrzwqv" class="measure">
               <g id="skfvgnr" class="staff">
                  <path d="M8159 1318 L11108 1318" stroke="currentColor" stroke-width="13" />
                  <path d="M8159 1498 L11108 1498" stroke="currentColor" stroke-width="13" />
                  <path d="M8159 1678 L11108 1678" stroke="currentColor" stroke-width="13" />
                  <path d="M8159 1858 L11108 1858" stroke="currentColor" stroke-width="13" />
                  <path d="M8159 2038 L11108 2038" stroke="currentColor" stroke-width="13" />
                  <g id="l1arjot" class="layer">
                     <g id="n18bpqky" class="note">
                        <g class="notehead">
                           <use xlink:href="#E0A4-bxaaw" x="8339" y="1858" height="720px" width="720px" />
                        </g>
                        <g id="dvtjadn" class="dots">
                           <ellipse cx="8655" cy="1768" rx="36" ry="36" />
                        </g>
                        <g id="s9rjdmw" class="stem">
                           <rect x="8547" y="1228" height="602" width="18" />
                        </g>
                     </g>
                     <g id="n1y8mnf3" class="note">
                        <g class="notehead">
                           <use xlink:href="#E0A4-bxaaw" x="9219" y="1768" height="720px" width="720px" />
                        </g>
                        <g id="s9w58b0" class="stem">
                           <rect x="9427" y="1138" height="602" width="18" />
                           <g id="f1rdaiaz" class="flag">
                              <use xlink:href="#E240-bxaaw" x="9427" y="1138" height="720px" width="720px" />
                           </g>
                        </g>
                     </g>
                     <g id="nl7aas9" class="note">
                        <g class="notehead">
                           <use xlink:href="#E0A4-bxaaw" x="9715" y="1678" height="720px" width="720px" />
                        </g>
                        <g id="s1lcl990" class="stem">
                           <rect x="9715" y="1706" height="572" width="18" />
                        </g>
                     </g>
                     <g id="n1k29xw7" class="note">
                        <g class="notehead">
                           <use xlink:href="#E0A4-bxaaw" x="10405" y="1768" height="720px" width="720px" />
                        </g>
                        <g id="sqtixb2" class="stem">
                           <rect x="10613" y="1138" height="602" width="18" />
                        </g>
                     </g>
                  </g>
               </g>
               <g id="b1s60ozi" class="barLine">
                  <path d="M11095 1318 L11095 2038" stroke="currentColor" stroke-width="27" />
               </g>
            </g>
            <g id="m5xu055" class="measure">
               <g id="s3sgcfj" class="staff">
                  <path d="M11108 1318 L12803 1318" stroke="currentColor" stroke-width="13" />
                  <path d="M11108 1498 L12803 1498" stroke="currentColor" stroke-width="13" />
                  <path d="M11108 1678 L12803 1678" stroke="currentColor" stroke-width="13" />
                  <path d="M11108 1858 L12803 1858" stroke="currentColor" stroke-width="13" />
                  <path d="M11108 2038 L12803 2038" stroke="currentColor" stroke-width="13" />
                  <g id="l8hjtkt" class="layer">
                     <g id="n1diug5" class="note">
                        <g class="notehead">
                           <use xlink:href="#E0A3-bxaaw" x="11288" y="1858" height="720px" width="720px" />
                        </g>
                        <g id="d128t947" class="dots">
                           <ellipse cx="11604" cy="1768" rx="36" ry="36" />
                        </g>
                        <g id="ss8wk6c" class="stem">
                           <rect x="11496" y="1228" height="602" width="18" />
                        </g>
                     </g>
                  </g>
               </g>
               <g id="b15ick27" class="barLine">
                  <path d="M12628 1318 L12628 2038" stroke="currentColor" stroke-width="27" />
                  <path d="M12758 1318 L12758 2038" stroke="currentColor" stroke-width="90" />
               </g>
            </g>
            <g id="abcLine10" class="sb" />
            <g id="s79oi54" class="systemMilestoneEnd strxe66" />
         </g>
         <g id="p11w35w7" class="pageMilestoneEnd slh3jkb" />
         <g id="ptesczb" class="pageMilestoneEnd mtmdeed" />
         <g id="p1bkm6f0" class="pgHead">
            <text x="0" y="0" font-size="0px">
               <tspan id="rs6kuiu" class="rend" x="10000" y="277" text-anchor="middle">
                  <tspan id="t1uga1ax" class="text">
                     <tspan font-size="405px" class="text">Short tune</tspan>
                  </tspan>
               </tspan>
            </text>
            <text x="0" y="0" font-size="0px">
               <tspan id="r129tcc2" class="rend" x="20000" y="642" text-anchor="end">
                  <tspan id="t1o441lg" class="text">
                     <tspan font-size="405px" class="text">K. Rettinghaus</tspan>
                  </tspan>
               </tspan>
            </text>
         </g>
      </g>
   </svg>
</svg>
