<svg width="945px" height="109px" version="1.1" xmlns="http://www.w3.org/2000/svg" xmlns:xlink="http://www.w3.org/1999/xlink" overflow="visible" id="l19nj5e9">
   <desc>Engraved by Verovio 5.3.2-4f22bb0</desc>
   <defs>
      <g id="E0A3-l19nj5e9">
         <path transform="scale(1,-1)" d="M278 64c0 22 -17 39 -43 39c-12 0 -26 -3 -41 -10c-85 -43 -165 -94 -165 -156c5 -25 15 -32 49 -32c67 11 200 95 200 159zM0 -36c0 68 73 174 200 174c66 0 114 -39 114 -97c0 -84 -106 -173 -218 -173c-64 0 -96 32 -96 96z" />
      </g>
      <g id="E084-l19nj5e9">
         <path transform="scale(1,-1)" d="M20 -78c84 97 114 180 134 329h170c-13 -32 -82 -132 -99 -151l-84 -97c-33 -36 -59 -63 -80 -81h162v102l127 123v-225h57v-39h-57v-34c0 -43 19 -65 57 -65v-34h-244v36c48 0 60 26 60 70v27h-203v39z" />
      </g>
      <g id="E0A4-l19nj5e9">
         <path transform="scale(1,-1)" d="M0 -39c0 68 73 172 200 172c66 0 114 -37 114 -95c0 -84 -106 -171 -218 -171c-64 0 -96 30 -96 94z" />
      </g>
      <g id="E050-l19nj5e9">
         <path transform="scale(1,-1)" d="M441 -245c-23 -4 -48 -6 -76 -6c-59 0 -102 7 -130 20c-88 42 -150 93 -187 154c-26 44 -43 103 -48 176c0 6 -1 13 -1 19c0 54 15 111 45 170c29 57 65 106 110 148s96 85 153 127c-3 16 -8 46 -13 92c-4 43 -5 73 -5 89c0 117 16 172 69 257c34 54 64 82 89 82 c21 0 43 -30 69 -92s39 -115 41 -159v-15c0 -109 -21 -162 -67 -241c-13 -20 -63 -90 -98 -118c-13 -9 -25 -19 -37 -29l31 -181c8 1 18 2 28 2c58 0 102 -12 133 -35c59 -43 92 -104 98 -184c1 -7 1 -15 1 -22c0 -123 -87 -209 -181 -248c8 -57 17 -110 25 -162 c5 -31 6 -58 6 -80c0 -30 -5 -53 -14 -70c-35 -64 -88 -99 -158 -103c-5 0 -11 -1 -16 -1c-37 0 -72 10 -108 27c-50 24 -77 59 -80 105v11c0 29 7 55 20 76c18 28 45 42 79 44h6c49 0 93 -42 97 -87v-9c0 -51 -34 -86 -105 -106c17 -24 51 -36 102 -36c62 0 116 43 140 85 c9 16 13 41 13 74c0 20 -1 42 -5 67c-8 53 -18 106 -26 159zM461 939c-95 0 -135 -175 -135 -286c0 -24 2 -48 5 -71c50 39 92 82 127 128c40 53 60 100 60 140v8c-4 53 -22 81 -55 81h-2zM406 119l54 -326c73 25 110 78 110 161c0 7 0 15 -1 23c-7 95 -57 142 -151 142h-12 zM382 117c-72 -2 -128 -47 -128 -120v-7c2 -46 43 -99 75 -115c-3 -2 -7 -5 -10 -10c-70 33 -116 88 -123 172v11c0 68 44 126 88 159c23 17 49 29 78 36l-29 170c-21 -13 -52 -37 -92 -73c-50 -44 -86 -84 -109 -119c-45 -69 -67 -130 -67 -182v-13c5 -68 35 -127 93 -176 s125 -73 203 -73c25 0 50 3 75 9c-19 111 -36 221 -54 331z" />
      </g>
      <g id="E262-l19nj5e9">
         <path transform="scale(1,-1)" d="M136 186v169h17v-164l44 14v-91l-44 -14v-165l44 12v-91l-44 -13v-155h-17v150l-76 -22v-155h-17v149l-43 -13v90l43 14v167l-43 -14v92l43 13v169h17v-163zM60 73v-167l76 22v168z" />
      </g>
      <g id="E240-l19nj5e9">
         <path transform="scale(1,-1)" d="M179 -646c15 29 29 55 46 102c18 49 30 108 30 138c0 105 -80 173 -168 200c-18 5 -47 9 -87 16v190h22c8 0 33 -61 71 -95c4 -3 -2 3 61 -56c62 -58 122 -137 122 -241c0 -38 -13 -106 -35 -163c-20 -51 -43 -99 -66 -132c-6 -5 -10 -7 -13 -7s-5 2 -5 5l4 10 c1 3 14 25 18 33z" />
      </g>
      <g id="E241-l19nj5e9">
         <path transform="scale(1,-1)" d="M179 646c-4 8 -17 30 -18 33l-4 10c0 3 2 5 5 5s7 -2 13 -7c23 -33 46 -81 66 -132c22 -57 35 -125 35 -163c0 -104 -60 -183 -122 -241c-63 -59 -57 -53 -61 -56c-38 -34 -63 -95 -71 -95h-22v190c40 7 69 11 87 16c88 27 168 95 168 200c0 30 -12 89 -30 138 c-17 47 -31 73 -46 102z" />
      </g>
   </defs>
   <style type="text/css">#l19nj5e9 g.page-margin {font-family:Times,serif;}#l19nj5e9 g.ending, #l19nj5e9 g.fing, #l19nj5e9 g.reh, #l19nj5e9 g.tempo {font-weight:bold;}#l19nj5e9 g.dir, #l19nj5e9 g.dynam, #l19nj5e9 g.mNum {font-style:italic;}#l19nj5e9 g.label {font-weight:normal;}#l19nj5e9 path {stroke:currentColor}</style>
   <svg class="definition-scale" color="black" viewBox="0 0 21000 2410">
      <g class="page-margin" transform="translate(500, 500)">
         <g id="moqsi69" class="mdiv pageMilestone" />
         <g id="spw8dyc" class="score pageMilestone" />
         <g id="d1h9nhab" class="system">
            <g id="hmwwo00" class="section systemMilestone" />
            <g id="abcLine09" class="pb" />
            <g id="n1gzuhvg" class="measure">
               <g id="w1cybpcc" class="staff">
                  <path d="M0 408 L2307 408" stroke-width="13" />
                  <path d="M0 588 L2307 588" stroke-width="13" />
                  <path d="M0 768 L2307 768" stroke-width="13" />
                  <path d="M0 948 L2307 948" stroke-width="13" />
                  <path d="M0 1128 L2307 1128" stroke-width="13" />
                  <g id="k19chaoz" class="clef">
                     <use xlink:href="#E050-l19nj5e9" transform="translate(90, 948) scale(0.72, 0.72)" />
                  </g>
                  <g id="l1pryqzq" class="keySig">
                     <g id="mxwmhac" class="keyAccid">
                        <use xlink:href="#E262-l19nj5e9" transform="translate(735, 408) scale(0.72, 0.72)" />
                     </g>
                  </g>
                  <g id="nvkpqic" class="meterSig">
                     <use xlink:href="#E084-l19nj5e9" transform="translate(1042, 588) scale(0.72, 0.72)" />
                     <use xlink:href="#E084-l19nj5e9" transform="translate(1042, 948) scale(0.72, 0.72)" />
                  </g>
                  <g id="j9ixwzy" class="layer">
                     <g id="m1q84ocf" class="note">
                        <g class="notehead">
                           <use xlink:href="#E0A4-l19nj5e9" transform="translate(1604, 1218) scale(0.72, 0.72)" />
                        </g>
                        <g id="i4vs11m" class="stem">
                           <path d="M1821 1190 L1821 588" stroke-width="18" />
                        </g>
                     </g>
                  </g>
               </g>
               <g id="o168fb37" class="tempo">
                  <text x="1042" y="280" font-size="0px">
                     <tspan id="pfnjo7e" class="text">
                        <tspan font-size="405px">Andante</tspan>
                     </tspan>
                  </text>
               </g>
               <g id="va734np" class="barLine">
                  <path d="M2294 408 L2294 1128" stroke-width="27" />
               </g>
            </g>
            <g id="hju2rxn" class="measure">
               <g id="qhghzyb" class="staff">
                  <path d="M2307 408 L5256 408" stroke-width="13" />
                  <path d="M2307 588 L5256 588" stroke-width="13" />
                  <path d="M2307 768 L5256 768" stroke-width="13" />
                  <path d="M2307 948 L5256 948" stroke-width="13" />
                  <path d="M2307 1128 L5256 1128" stroke-width="13" />
                  <g id="x15wwqth" class="layer">
                     <g id="a1pfogn4" class="note">
                        <g class="notehead">
                           <use xlink:href="#E0A4-l19nj5e9" transform="translate(2487, 948) scale(0.72, 0.72)" />
                        </g>
                        <g id="k19a056m" class="dots">
                           <ellipse cx="2803" cy="858" rx="36" ry="36" fill-opacity="1" stroke-opacity="1" />
                        </g>
                        <g id="j1s8kxne" class="stem">
                           <path d="M2704 920 L2704 318" stroke-width="18" />
                        </g>
                     </g>
                     <g id="b8j2ung" class="note">
                        <g class="notehead">
                           <use xlink:href="#E0A4-l19nj5e9" transform="translate(3367, 858) scale(0.72, 0.72)" />
                        </g>
                        <g id="l1e7ub62" class="stem">
                           <path d="M3584 830 L3584 228" stroke-width="18" />
                           <g id="mlwp7zq" class="flag">
                              <use xlink:href="#E240-l19nj5e9" transform="translate(3575, 228) scale(0.72, 0.72)" />
                           </g>
                        </g>
                     </g>
                     <g id="erbcoh7" class="note">
                        <g class="notehead">
                           <use xlink:href="#E0A4-l19nj5e9" transform="translate(3863, 768) scale(0.72, 0.72)" />
                        </g>
                        <g id="nt9ronl" class="stem">
                           <path d="M3872 796 L3872 1368" stroke-width="18" />
                        </g>
                     </g>
                     <g id="fmlv5y5" class="note">
                        <g class="notehead">
                           <use xlink:href="#E0A4-l19nj5e9" transform="translate(4182, 858) scale(0.54, 0.54)" />
                        </g>
                        <g id="o1awc8ol" class="stem">
                           <path d="M4342 837 L4342 386" stroke-width="18" />
                           <path d="M4275 654 L4476 453" stroke-width="21" />
                           <g id="p1ufntge" class="flag">
                              <use xlink:href="#E240-l19nj5e9" transform="translate(4333, 386) scale(0.54, 0.54)" />
                           </g>
                        </g>
                     </g>
                     <g id="g14xmp24" class="note">
                        <g class="notehead">
                           <use xlink:href="#E0A4-l19nj5e9" transform="translate(4553, 948) scale(0.72, 0.72)" />
                        </g>
                        <g id="qg6e4o" class="stem">
                           <path d="M4770 920 L4770 318" stroke-width="18" />
                        </g>
                     </g>
                  </g>
               </g>
               <g id="pk6xyvl" class="barLine">
                  <path d="M5243 408 L5243 1128" stroke-width="27" />
               </g>
            </g>
            <g id="b37hn12" class="measure">
               <g id="k1dict13" class="staff">
                  <path d="M5256 408 L8159 408" stroke-width="13" />
                  <path d="M5256 588 L8159 588" stroke-width="13" />
                  <path d="M5256 768 L8159 768" stroke-width="13" />
                  <path d="M5256 948 L8159 948" stroke-width="13" />
                  <path d="M5256 1128 L8159 1128" stroke-width="13" />
                  <g id="rgx8bjh" class="layer">
                     <g id="u1bb0tuc" class="note">
                        <g class="notehead">
                           <use xlink:href="#E0A4-l19nj5e9" transform="translate(5436, 858) scale(0.72, 0.72)" />
                        </g>
                        <g id="s1xjwapg" class="dots">
                           <ellipse cx="5752" cy="858" rx="36" ry="36" fill-opacity="1" stroke-opacity="1" />
                        </g>
                        <g id="rxq6cll" class="stem">
                           <path d="M5653 830 L5653 228" stroke-width="18" />
                        </g>
                     </g>
                     <g id="v6sh6uc" class="note">
                        <g class="notehead">
                           <use xlink:href="#E0A4-l19nj5e9" transform="translate(6316, 768) scale(0.72, 0.72)" />
                        </g>
                        <g id="t16fzqxk" class="stem">
                           <path d="M6325 796 L6325 1368" stroke-width="18" />
                           <g id="ulubfbi" class="flag">
                              <use xlink:href="#E241-l19nj5e9" transform="translate(6316, 1368) scale(0.72, 0.72)" />
                           </g>
                        </g>
                     </g>
                     <g id="y1waypqj" class="note">
                        <g class="notehead">
                           <use xlink:href="#E0A4-l19nj5e9" transform="translate(6766, 858) scale(0.72, 0.72)" />
                        </g>
                        <g id="v1n4j8tk" class="stem">
                           <path d="M6983 830 L6983 228" stroke-width="18" />
                        </g>
                     </g>
                     <g id="zfx25hn" class="note">
                        <g class="notehead">
                           <use xlink:href="#E0A4-l19nj5e9" transform="translate(7085, 1128) scale(0.54, 0.54)" />
                        </g>
                        <g id="w1qijfro" class="stem">
                           <path d="M7245 1107 L7245 656" stroke-width="18" />
                           <path d="M7178 924 L7379 723" stroke-width="21" />
                           <g id="xpk0tft" class="flag">
                              <use xlink:href="#E240-l19nj5e9" transform="translate(7236, 656) scale(0.54, 0.54)" />
                           </g>
                        </g>
                     </g>
                     <g id="a3ie8ud" class="note">
                        <g class="notehead">
                           <use xlink:href="#E0A4-l19nj5e9" transform="translate(7456, 1218) scale(0.72, 0.72)" />
                        </g>
                        <g id="y1ccvmbx" class="stem">
                           <path d="M7673 1190 L7673 588" stroke-width="18" />
                        </g>
                     </g>
                  </g>
               </g>
               <g id="j14qhuvu" class="barLine">
                  <path d="M8146 408 L8146 1128" stroke-width="27" />
               </g>
            </g>
            <g id="w1m11mph" class="measure">
               <g id="fwigvp2" class="staff">
                  <path d="M8159 408 L11108 408" stroke-width="13" />
                  <path d="M8159 588 L11108 588" stroke-width="13" />
                  <path d="M8159 768 L11108 768" stroke-width="13" />
                  <path d="M8159 948 L11108 948" stroke-width="13" />
                  <path d="M8159 1128 L11108 1128" stroke-width="13" />
                  <g id="lcz237t" class="layer">
                     <g id="o1nwbnw5" class="note">
                        <g class="notehead">
                           <use xlink:href="#E0A4-l19nj5e9" transform="translate(8339, 948) scale(0.72, 0.72)" />
                        </g>
                        <g id="au36i87" class="dots">
                           <ellipse cx="8655" cy="858" rx="36" ry="36" fill-opacity="1" stroke-opacity="1" />
                        </g>
                        <g id="z1onwf8y" class="stem">
                           <path d="M8556 920 L8556 318" stroke-width="18" />
                        </g>
                     </g>
                     <g id="p1r78e3w" class="note">
                        <g class="notehead">
                           <use xlink:href="#E0A4-l19nj5e9" transform="translate(9219, 858) scale(0.72, 0.72)" />
                        </g>
                        <g id="b1bp6nfw" class="stem">
                           <path d="M9436 830 L9436 228" stroke-width="18" />
                           <g id="cg7y08o" class="flag">
                              <use xlink:href="#E240-l19nj5e9" transform="translate(9427, 228) scale(0.72, 0.72)" />
                           </g>
                        </g>
                     </g>
                     <g id="sqqgytg" class="note">
                        <g class="notehead">
                           <use xlink:href="#E0A4-l19nj5e9" transform="translate(9715, 768) scale(0.72, 0.72)" />
                        </g>
                        <g id="dxlbg6w" class="stem">
                           <path d="M9724 796 L9724 1368" stroke-width="18" />
                        </g>
                     </g>
                     <g id="v1bpmbr1" class="note">
                        <g class="notehead">
                           <use xlink:href="#E0A4-l19nj5e9" transform="translate(10405, 858) scale(0.72, 0.72)" />
                        </g>
                        <g id="efwg9mm" class="stem">
                           <path d="M10622 830 L10622 228" stroke-width="18" />
                        </g>
                     </g>
                  </g>
               </g>
               <g id="e11rutd2" class="barLine">
                  <path d="M11095 408 L11095 1128" stroke-width="27" />
               </g>
            </g>
            <g id="kgtp1zt" class="measure">
               <g id="t1ajik95" class="staff">
                  <path d="M11108 408 L12803 408" stroke-width="13" />
                  <path d="M11108 588 L12803 588" stroke-width="13" />
                  <path d="M11108 768 L12803 768" stroke-width="13" />
                  <path d="M11108 948 L12803 948" stroke-width="13" />
                  <path d="M11108 1128 L12803 1128" stroke-width="13" />
                  <g id="g1ho95rp" class="layer">
                     <g id="jo3qcsy" class="note">
                        <g class="notehead">
                           <use xlink:href="#E0A3-l19nj5e9" transform="translate(11288, 948) scale(0.72, 0.72)" />
                        </g>
                        <g id="g1wpyvd" class="dots">
                           <ellipse cx="11604" cy="858" rx="36" ry="36" fill-opacity="1" stroke-opacity="1" />
                        </g>
                        <g id="f1pu9rwv" class="stem">
                           <path d="M11505 920 L11505 318" stroke-width="18" />
                        </g>
                     </g>
                  </g>
               </g>
               <g id="s1f31sgl" class="barLine">
                  <path d="M12628 408 L12628 1128" stroke-width="27" />
                  <path d="M12758 408 L12758 1128" stroke-width="90" />
               </g>
            </g>
            <g id="abcLine10" class="sb" />
            <g id="d16zdwlv" class="systemMilestoneEnd hmwwo00" />
         </g>
         <g id="e11izfdo" class="pageMilestoneEnd spw8dyc" />
         <g id="fqn9gl2" class="pageMilestoneEnd moqsi69" />
      </g>
   </svg>
</svg>
