<svg width="324px" height="107px" version="1.1" xmlns="http://www.w3.org/2000/svg" xmlns:xlink="http://www.w3.org/1999/xlink" overflow="visible" id="l19nj5e9">
   <desc>Engraved by Verovio 5.3.0-5d8be2e</desc>
   <defs>
      <g id="E0A4-l19nj5e9">
         <path transform="scale(1,-1)" d="M0 -39c0 68 73 172 200 172c66 0 114 -37 114 -95c0 -84 -106 -171 -218 -171c-64 0 -96 30 -96 94z" />
      </g>
      <g id="E050-l19nj5e9">
         <path transform="scale(1,-1)" d="M441 -245c-23 -4 -48 -6 -76 -6c-59 0 -102 7 -130 20c-88 42 -150 93 -187 154c-26 44 -43 103 -48 176c0 6 -1 13 -1 19c0 54 15 111 45 170c29 57 65 106 110 148s96 85 153 127c-3 16 -8 46 -13 92c-4 43 -5 73 -5 89c0 117 16 172 69 257c34 54 64 82 89 82 c21 0 43 -30 69 -92s39 -115 41 -159v-15c0 -109 -21 -162 -67 -241c-13 -20 -63 -90 -98 -118c-13 -9 -25 -19 -37 -29l31 -181c8 1 18 2 28 2c58 0 102 -12 133 -35c59 -43 92 -104 98 -184c1 -7 1 -15 1 -22c0 -123 -87 -209 -181 -248c8 -57 17 -110 25 -162 c5 -31 6 -58 6 -80c0 -30 -5 -53 -14 -70c-35 -64 -88 -99 -158 -103c-5 0 -11 -1 -16 -1c-37 0 -72 10 -108 27c-50 24 -77 59 -80 105v11c0 29 7 55 20 76c18 28 45 42 79 44h6c49 0 93 -42 97 -87v-9c0 -51 -34 -86 -105 -106c17 -24 51 -36 102 -36c62 0 116 43 140 85 c9 16 13 41 13 74c0 20 -1 42 -5 67c-8 53 -18 106 -26 159zM461 939c-95 0 -135 -175 -135 -286c0 -24 2 -48 5 -71c50 39 92 82 127 128c40 53 60 100 60 140v8c-4 53 -22 81 -55 81h-2zM406 119l54 -326c73 25 110 78 110 161c0 7 0 15 -1 23c-7 95 -57 142 -151 142h-12 zM382 117c-72 -2 -128 -47 -128 -120v-7c2 -46 43 -99 75 -115c-3 -2 -7 -5 -10 -10c-70 33 -116 88 -123 172v11c0 68 44 126 88 159c23 17 49 29 78 36l-29 170c-21 -13 -52 -37 -92 -73c-50 -44 -86 -84 -109 -119c-45 -69 -67 -130 -67 -182v-13c5 -68 35 -127 93 -176 s125 -73 203 -73c25 0 50 3 75 9c-19 111 -36 221 -54 331z" />
      </g>
      <g id="E240-l19nj5e9">
         <path transform="scale(1,-1)" d="M179 -646c15 29 29 55 46 102c18 49 30 108 30 138c0 105 -80 173 -168 200c-18 5 -47 9 -87 16v190h22c8 0 33 -61 71 -95c4 -3 -2 3 61 -56c62 -58 122 -137 122 -241c0 -38 -13 -106 -35 -163c-20 -51 -43 -99 -66 -132c-6 -5 -10 -7 -13 -7s-5 2 -5 5l4 10 c1 3 14 25 18 33z" />
      </g>
      <g id="E244-l19nj5e9">
         <path transform="scale(1,-1)" d="M248 -463c4 18 7 38 7 57c0 105 -80 173 -168 200c-11 3 -27 6 -47 9c9 -17 23 -61 53 -88c4 -3 -2 3 61 -56c36 -33 71 -74 94 -122zM206 -748c32 48 49 100 49 149c0 89 -55 168 -168 203c-18 5 -47 9 -87 16v190v190v190h22c8 0 33 -61 71 -95c4 -3 -2 3 61 -56 c61 -57 122 -134 122 -235v-6c-1 -59 -10 -80 -19 -91c12 -30 19 -63 19 -99c0 -32 -7 -65 -17 -96c11 -29 17 -60 17 -94c0 -71 -32 -148 -67 -190c-6 -5 -10 -7 -13 -7s-5 2 -5 5l4 10c1 3 6 8 11 16zM247 -270c4 11 8 28 8 54c0 105 -80 173 -168 200c-11 3 -27 6 -47 9 c9 -17 23 -61 53 -88c4 -3 -2 3 61 -56c35 -33 70 -72 93 -119z" />
      </g>
      <g id="E08A-l19nj5e9">
         <path transform="scale(1,-1)" d="M340 179c-9 24 -56 41 -89 41c-46 0 -81 -28 -100 -58c-17 -28 -25 -78 -25 -150c0 -65 2 -111 8 -135c8 -31 18 -49 40 -67c20 -17 43 -25 70 -25c54 0 92 36 115 75c14 25 23 54 28 88h27c0 -63 -24 -105 -58 -141c-35 -38 -82 -56 -140 -56c-45 0 -83 13 -115 39 c-57 45 -101 130 -101 226c0 59 33 127 68 163c36 37 97 72 160 72c36 0 93 -21 121 -40c11 -8 23 -17 33 -30c19 -23 27 -48 27 -76c0 -51 -35 -88 -86 -88c-43 0 -76 27 -76 68c0 26 7 35 21 51c15 17 32 27 58 32c7 2 14 7 14 11z" />
      </g>
   </defs>
   <style type="text/css">#l19nj5e9 g.page-margin {font-family:Times,serif;}#l19nj5e9 g.ending, #l19nj5e9 g.fing, #l19nj5e9 g.reh, #l19nj5e9 g.tempo {font-weight:bold;}#l19nj5e9 g.dir, #l19nj5e9 g.dynam, #l19nj5e9 g.mNum {font-style:italic;}#l19nj5e9 g.label {font-weight:normal;}#l19nj5e9 path {stroke:currentColor}</style>
   <svg class="definition-scale" color="black" viewBox="0 0 7180 2370">
      <g class="page-margin" transform="translate(500, 500)">
         <g id="moqsi69" class="mdiv pageMilestone" />
         <g id="qmlovzj" class="score pageMilestone" />
         <g id="g14xmp24" class="system">
            <g id="d1blotdo" class="section systemMilestone" />
            <g id="abcLine06" class="pb" />
            <g id="qa56g6u" class="measure">
               <g id="z2gqwr3" class="staff">
                  <path d="M0 360 L6180 360" stroke-width="13" />
                  <path d="M0 540 L6180 540" stroke-width="13" />
                  <path d="M0 720 L6180 720" stroke-width="13" />
                  <path d="M0 900 L6180 900" stroke-width="13" />
                  <path d="M0 1080 L6180 1080" stroke-width="13" />
                  <g id="t16fzqxk" class="clef">
                     <use xlink:href="#E050-l19nj5e9" transform="translate(90, 900) scale(0.72, 0.72)" />
                  </g>
                  <g id="ulubfbi" class="keySig" />
                  <g id="v1n4j8tk" class="meterSig">
                     <use xlink:href="#E08A-l19nj5e9" transform="translate(735, 720) scale(0.72, 0.72)" />
                  </g>
                  <g id="fsm35er" class="layer">
                     <g id="i1s4ffnc" class="beam">
                        <polygon stroke-opacity="1" fill-opacity="1" points="1511,180 2109,180 2109,270 1511,270" />
                        <polygon stroke-opacity="1" fill-opacity="1" points="1883,315 2109,315 2109,405 1883,405" />
                        <g id="g2rcrlx" class="note">
                           <g class="notehead">
                              <use xlink:href="#E0A4-l19nj5e9" transform="translate(1303, 810) scale(0.72, 0.72)" />
                           </g>
                           <g id="n16gprxv" class="dots">
                              <ellipse cx="1619" cy="810" rx="36" ry="36" fill-opacity="1" stroke-opacity="1" />
                           </g>
                           <g id="m5odh2d" class="stem">
                              <path d="M1520 782 L1520 198" stroke-width="18" />
                           </g>
                        </g>
                        <g id="hmwwo00" class="note">
                           <g class="notehead">
                              <use xlink:href="#E0A4-l19nj5e9" transform="translate(1883, 810) scale(0.72, 0.72)" />
                           </g>
                           <g id="o1w2vfrn" class="stem">
                              <path d="M2100 782 L2100 198" stroke-width="18" />
                           </g>
                        </g>
                     </g>
                     <g id="j9ixwzy" class="note">
                        <g class="notehead">
                           <use xlink:href="#E0A4-l19nj5e9" transform="translate(2199, 810) scale(0.72, 0.72)" />
                        </g>
                        <g id="qhghzyb" class="dots">
                           <ellipse cx="2515" cy="810" rx="36" ry="36" fill-opacity="1" stroke-opacity="1" />
                        </g>
                        <g id="pk6xyvl" class="stem">
                           <path d="M2416 782 L2416 180" stroke-width="18" />
                        </g>
                     </g>
                     <g id="k1ffvwuh" class="note">
                        <g class="notehead">
                           <use xlink:href="#E0A4-l19nj5e9" transform="translate(3079, 810) scale(0.72, 0.72)" />
                        </g>
                        <g id="rgx8bjh" class="stem">
                           <path d="M3296 782 L3296 180" stroke-width="18" />
                           <g id="s82fpt" class="flag">
                              <use xlink:href="#E240-l19nj5e9" transform="translate(3287, 180) scale(0.72, 0.72)" />
                           </g>
                        </g>
                     </g>
                     <g id="n1gzuhvg" class="beam">
                        <polygon stroke-opacity="1" fill-opacity="1" points="3737,0 4395,0 4395,90 3737,90" />
                        <polygon stroke-opacity="1" fill-opacity="1" points="4169,135 4395,135 4395,225 4169,225" />
                        <polygon stroke-opacity="1" fill-opacity="1" points="4169,270 4395,270 4395,360 4169,360" />
                        <g id="lzosgrv" class="note">
                           <g class="notehead">
                              <use xlink:href="#E0A4-l19nj5e9" transform="translate(3529, 810) scale(0.72, 0.72)" />
                           </g>
                           <g id="u1bb0tuc" class="dots">
                              <ellipse cx="3845" cy="810" rx="36" ry="36" fill-opacity="1" stroke-opacity="1" />
                              <ellipse cx="3980" cy="810" rx="36" ry="36" fill-opacity="1" stroke-opacity="1" />
                           </g>
                           <g id="t3elz0m" class="stem">
                              <path d="M3746 782 L3746 18" stroke-width="18" />
                           </g>
                        </g>
                        <g id="m1q84ocf" class="note">
                           <g class="notehead">
                              <use xlink:href="#E0A4-l19nj5e9" transform="translate(4169, 810) scale(0.72, 0.72)" />
                           </g>
                           <g id="v6sh6uc" class="stem">
                              <path d="M4386 782 L4386 18" stroke-width="18" />
                           </g>
                        </g>
                     </g>
                     <g id="o1vw1hrc" class="note">
                        <g class="notehead">
                           <use xlink:href="#E0A4-l19nj5e9" transform="translate(4485, 810) scale(0.72, 0.72)" />
                        </g>
                        <g id="xfggj11" class="dots">
                           <ellipse cx="4801" cy="810" rx="36" ry="36" fill-opacity="1" stroke-opacity="1" />
                           <ellipse cx="4936" cy="810" rx="36" ry="36" fill-opacity="1" stroke-opacity="1" />
                           <ellipse cx="5071" cy="810" rx="36" ry="36" fill-opacity="1" stroke-opacity="1" />
                        </g>
                        <g id="wgj8qwy" class="stem">
                           <path d="M4702 782 L4702 180" stroke-width="18" />
                        </g>
                     </g>
                     <g id="p36inxr" class="note">
                        <g class="notehead">
                           <use xlink:href="#E0A4-l19nj5e9" transform="translate(5495, 810) scale(0.72, 0.72)" />
                        </g>
                        <g id="y1waypqj" class="stem">
                           <path d="M5712 782 L5712 180" stroke-width="18" />
                           <g id="zfx25hn" class="flag">
                              <use xlink:href="#E244-l19nj5e9" transform="translate(5703, 180) scale(0.72, 0.72)" />
                           </g>
                        </g>
                     </g>
                  </g>
               </g>
               <g id="yv3lqdm" class="barLine">
                  <path d="M6005 360 L6005 1080" stroke-width="27" />
                  <path d="M6135 360 L6135 1080" stroke-width="90" />
               </g>
            </g>
            <g id="abcLine07" class="sb" />
            <g id="j1mj6nxn" class="systemMilestoneEnd d1blotdo" />
         </g>
         <g id="k1d0qcvg" class="pageMilestoneEnd qmlovzj" />
         <g id="leeh8fz" class="pageMilestoneEnd moqsi69" />
      </g>
   </svg>
</svg>
