<svg width="324px" height="107px" version="1.1" xmlns="http://www.w3.org/2000/svg" xmlns:xlink="http://www.w3.org/1999/xlink" xmlns:mei="http://www.music-encoding.org/ns/mei" overflow="visible">
   <desc>Engraved by Verovio 3.13.1-010bd42</desc>
   <defs>
      <symbol id="E244-t8zkfl" viewBox="0 0 1000 1000" overflow="inherit">
         <path transform="scale(1,-1)" d="M248 -463c4 18 7 38 7 57c0 105 -80 173 -168 200c-11 3 -27 6 -47 9c9 -17 23 -61 53 -88c4 -3 -2 3 61 -56c36 -33 71 -74 94 -122zM206 -748c32 48 49 100 49 149c0 89 -55 168 -168 203c-18 5 -47 9 -87 16v190v190v190h22c8 0 33 -61 71 -95c4 -3 -2 3 61 -56 c61 -57 122 -134 122 -235v-6c-1 -59 -10 -80 -19 -91c12 -30 19 -63 19 -99c0 -32 -7 -65 -17 -96c11 -29 17 -60 17 -94c0 -71 -32 -148 -67 -190c-6 -5 -10 -7 -13 -7s-5 2 -5 5l4 10c1 3 6 8 11 16zM247 -270c4 11 8 28 8 54c0 105 -80 173 -168 200c-11 3 -27 6 -47 9 c9 -17 23 -61 53 -88c4 -3 -2 3 61 -56c35 -33 70 -72 93 -119z" />
      </symbol>
      <symbol id="E050-t8zkfl" viewBox="0 0 1000 1000" overflow="inherit">
         <path transform="scale(1,-1)" d="M441 -245c-23 -4 -48 -6 -76 -6c-59 0 -102 7 -130 20c-88 42 -150 93 -187 154c-26 44 -43 103 -48 176c0 6 -1 13 -1 19c0 54 15 111 45 170c29 57 65 106 110 148s96 85 153 127c-3 16 -8 46 -13 92c-4 43 -5 73 -5 89c0 117 16 172 69 257c34 54 64 82 89 82 c21 0 43 -30 69 -92s39 -115 41 -159v-15c0 -109 -21 -162 -67 -241c-13 -20 -63 -90 -98 -118c-13 -9 -25 -19 -37 -29l31 -181c8 1 18 2 28 2c58 0 102 -12 133 -35c59 -43 92 -104 98 -184c1 -7 1 -15 1 -22c0 -123 -87 -209 -181 -248c8 -57 17 -110 25 -162 c5 -31 6 -58 6 -80c0 -30 -5 -53 -14 -70c-35 -64 -88 -99 -158 -103c-5 0 -11 -1 -16 -1c-37 0 -72 10 -108 27c-50 24 -77 59 -80 105v11c0 29 7 55 20 76c18 28 45 42 79 44h6c49 0 93 -42 97 -87v-9c0 -51 -34 -86 -105 -106c17 -24 51 -36 102 -36c62 0 116 43 140 85 c9 16 13 41 13 74c0 20 -1 42 -5 67c-8 53 -18 106 -26 159zM461 939c-95 0 -135 -175 -135 -286c0 -24 2 -48 5 -71c50 39 92 82 127 128c40 53 60 100 60 140v8c-4 53 -22 81 -55 81h-2zM406 119l54 -326c73 25 110 78 110 161c0 7 0 15 -1 23c-7 95 -57 142 -151 142h-12 zM382 117c-72 -2 -128 -47 -128 -120v-7c2 -46 43 -99 75 -115c-3 -2 -7 -5 -10 -10c-70 33 -116 88 -123 172v11c0 68 44 126 88 159c23 17 49 29 78 36l-29 170c-21 -13 -52 -37 -92 -73c-50 -44 -86 -84 -109 -119c-45 -69 -67 -130 -67 -182v-13c5 -68 35 -127 93 -176 s125 -73 203 -73c25 0 50 3 75 9c-19 111 -36 221 -54 331z" />
      </symbol>
      <symbol id="E08A-t8zkfl" viewBox="0 0 1000 1000" overflow="inherit">
         <path transform="scale(1,-1)" d="M340 179c-9 24 -56 41 -89 41c-46 0 -81 -28 -100 -58c-17 -28 -25 -78 -25 -150c0 -65 2 -111 8 -135c8 -31 18 -49 40 -67c20 -17 43 -25 70 -25c54 0 92 36 115 75c14 25 23 54 28 88h27c0 -63 -24 -105 -58 -141c-35 -38 -82 -56 -140 -56c-45 0 -83 13 -115 39 c-57 45 -101 130 -101 226c0 59 33 127 68 163c36 37 97 72 160 72c36 0 93 -21 121 -40c11 -8 23 -17 33 -30c19 -23 27 -48 27 -76c0 -51 -35 -88 -86 -88c-43 0 -76 27 -76 68c0 26 7 35 21 51c15 17 32 27 58 32c7 2 14 7 14 11z" />
      </symbol>
      <symbol id="E0A4-t8zkfl" viewBox="0 0 1000 1000" overflow="inherit">
         <path transform="scale(1,-1)" d="M0 -39c0 68 73 172 200 172c66 0 114 -37 114 -95c0 -84 -106 -171 -218 -171c-64 0 -96 30 -96 94z" />
      </symbol>
      <symbol id="E240-t8zkfl" viewBox="0 0 1000 1000" overflow="inherit">
         <path transform="scale(1,-1)" d="M179 -646c15 29 29 55 46 102c18 49 30 108 30 138c0 105 -80 173 -168 200c-18 5 -47 9 -87 16v190h22c8 0 33 -61 71 -95c4 -3 -2 3 61 -56c62 -58 122 -137 122 -241c0 -38 -13 -106 -35 -163c-20 -51 -43 -99 -66 -132c-6 -5 -10 -7 -13 -7s-5 2 -5 5l4 10 c1 3 14 25 18 33z" />
      </symbol>
   </defs>
   <style type="text/css">g.page-margin{font-family:Times;} g.ending, g.fing, g.reh, g.tempo{font-weight:bold;} g.dir, g.dynam, g.mNum{font-style:italic;} g.label{font-weight:normal;}</style>
   <svg class="definition-scale" color="black" viewBox="0 0 7180 2370">
      <g class="page-margin" transform="translate(500, 500)">
         <g id="mtmdeed" class="mdiv pageMilestone" />
         <g id="saj27" class="score pageMilestone" />
         <g id="s6lavjx" class="system">
            <g id="ss6kuiu" class="section systemMilestone" />
            <g id="abcLine06" class="pb" />
            <g id="m11yk1am" class="measure">
               <g id="se2kfvk" class="staff">
                  <path d="M0 360 L6180 360" stroke="currentColor" stroke-width="13" />
                  <path d="M0 540 L6180 540" stroke="currentColor" stroke-width="13" />
                  <path d="M0 720 L6180 720" stroke="currentColor" stroke-width="13" />
                  <path d="M0 900 L6180 900" stroke="currentColor" stroke-width="13" />
                  <path d="M0 1080 L6180 1080" stroke="currentColor" stroke-width="13" />
                  <g id="c1b5ebec" class="clef">
                     <use xlink:href="#E050-t8zkfl" x="90" y="900" height="720px" width="720px" />
                  </g>
                  <g id="k9xwq8l" class="keySig" />
                  <g id="m10kmnra" class="meterSig">
                     <use xlink:href="#E08A-t8zkfl" x="735" y="720" height="720px" width="720px" />
                  </g>
                  <g id="l129tcc2" class="layer">
                     <g id="bm92q1x" class="beam">
                        <polygon points="1511,180 2109,180 2109,270 1511,270" />
                        <polygon points="1883,315 2109,315 2109,405 1883,405" />
                        <g id="n1o441lg" class="note">
                           <g class="notehead">
                              <use xlink:href="#E0A4-t8zkfl" x="1303" y="810" height="720px" width="720px" />
                           </g>
                           <g id="d61gu14" class="dots">
                              <ellipse cx="1619" cy="810" rx="36" ry="36" />
                           </g>
                           <g id="s1mw7zrl" class="stem">
                              <rect x="1511" y="198" height="584" width="18" />
                           </g>
                        </g>
                        <g id="ntrxe66" class="note">
                           <g class="notehead">
                              <use xlink:href="#E0A4-t8zkfl" x="1883" y="810" height="720px" width="720px" />
                           </g>
                           <g id="s1mxe0go" class="stem">
                              <rect x="2091" y="198" height="584" width="18" />
                           </g>
                        </g>
                     </g>
                     <g id="n1co6lqq" class="note">
                        <g class="notehead">
                           <use xlink:href="#E0A4-t8zkfl" x="2199" y="810" height="720px" width="720px" />
                        </g>
                        <g id="dje7wj7" class="dots">
                           <ellipse cx="2515" cy="810" rx="36" ry="36" />
                        </g>
                        <g id="s2rv899" class="stem">
                           <rect x="2407" y="180" height="602" width="18" />
                        </g>
                     </g>
                     <g id="n119bu1g" class="note">
                        <g class="notehead">
                           <use xlink:href="#E0A4-t8zkfl" x="3079" y="810" height="720px" width="720px" />
                        </g>
                        <g id="sc29x2n" class="stem">
                           <rect x="3287" y="180" height="602" width="18" />
                           <g id="f47hp0q" class="flag">
                              <use xlink:href="#E240-t8zkfl" x="3287" y="180" height="720px" width="720px" />
                           </g>
                        </g>
                     </g>
                     <g id="b1qdg0yy" class="beam">
                        <polygon points="3737,0 4395,0 4395,90 3737,90" />
                        <polygon points="4169,135 4395,135 4395,225 4169,225" />
                        <polygon points="4169,270 4395,270 4395,360 4169,360" />
                        <g id="neit2ff" class="note">
                           <g class="notehead">
                              <use xlink:href="#E0A4-t8zkfl" x="3529" y="810" height="720px" width="720px" />
                           </g>
                           <g id="d1bmm5zc" class="dots">
                              <ellipse cx="3845" cy="810" rx="36" ry="36" />
                              <ellipse cx="3980" cy="810" rx="36" ry="36" />
                           </g>
                           <g id="s1qdic1l" class="stem">
                              <rect x="3737" y="18" height="764" width="18" />
                           </g>
                        </g>
                        <g id="nvhyiv0" class="note">
                           <g class="notehead">
                              <use xlink:href="#E0A4-t8zkfl" x="4169" y="810" height="720px" width="720px" />
                           </g>
                           <g id="s6zhf6m" class="stem">
                              <rect x="4377" y="18" height="764" width="18" />
                           </g>
                        </g>
                     </g>
                     <g id="ngb1z18" class="note">
                        <g class="notehead">
                           <use xlink:href="#E0A4-t8zkfl" x="4485" y="810" height="720px" width="720px" />
                        </g>
                        <g id="dtwti83" class="dots">
                           <ellipse cx="4801" cy="810" rx="36" ry="36" />
                           <ellipse cx="4936" cy="810" rx="36" ry="36" />
                           <ellipse cx="5071" cy="810" rx="36" ry="36" />
                        </g>
                        <g id="s164j9s7" class="stem">
                           <rect x="4693" y="180" height="602" width="18" />
                        </g>
                     </g>
                     <g id="n1y16zh" class="note">
                        <g class="notehead">
                           <use xlink:href="#E0A4-t8zkfl" x="5495" y="810" height="720px" width="720px" />
                        </g>
                        <g id="s1bphtqe" class="stem">
                           <rect x="5703" y="180" height="602" width="18" />
                           <g id="f1w1fj4l" class="flag">
                              <use xlink:href="#E244-t8zkfl" x="5703" y="180" height="720px" width="720px" />
                           </g>
                        </g>
                     </g>
                  </g>
               </g>
               <g id="b1upgee6" class="barLine">
                  <path d="M6005 360 L6005 1080" stroke="currentColor" stroke-width="27" />
                  <path d="M6135 360 L6135 1080" stroke="currentColor" stroke-width="90" />
               </g>
            </g>
            <g id="abcLine07" class="sb" />
            <g id="s1q90xdt" class="systemMilestoneEnd ss6kuiu" />
         </g>
         <g id="p1pfycn4" class="pageMilestoneEnd saj27" />
         <g id="p1rjlykc" class="pageMilestoneEnd mtmdeed" />
      </g>
   </svg>
</svg>
