<svg width="945px" height="102px" version="1.1" xmlns="http://www.w3.org/2000/svg" xmlns:xlink="http://www.w3.org/1999/xlink" overflow="visible" id="l19nj5e9">
   <desc>Engraved by Verovio 5.3.2-4f22bb0</desc>
   <defs>
      <g id="E0A3-l19nj5e9">
         <path transform="scale(1,-1)" d="M278 64c0 22 -17 39 -43 39c-12 0 -26 -3 -41 -10c-85 -43 -165 -94 -165 -156c5 -25 15 -32 49 -32c67 11 200 95 200 159zM0 -36c0 68 73 174 200 174c66 0 114 -39 114 -97c0 -84 -106 -173 -218 -173c-64 0 -96 32 -96 96z" />
      </g>
      <g id="E084-l19nj5e9">
         <path transform="scale(1,-1)" d="M20 -78c84 97 114 180 134 329h170c-13 -32 -82 -132 -99 -151l-84 -97c-33 -36 -59 -63 -80 -81h162v102l127 123v-225h57v-39h-57v-34c0 -43 19 -65 57 -65v-34h-244v36c48 0 60 26 60 70v27h-203v39z" />
      </g>
      <g id="E0A4-l19nj5e9">
         <path transform="scale(1,-1)" d="M0 -39c0 68 73 172 200 172c66 0 114 -37 114 -95c0 -84 -106 -171 -218 -171c-64 0 -96 30 -96 94z" />
      </g>
      <g id="E050-l19nj5e9">
         <path transform="scale(1,-1)" d="M441 -245c-23 -4 -48 -6 -76 -6c-59 0 -102 7 -130 20c-88 42 -150 93 -187 154c-26 44 -43 103 -48 176c0 6 -1 13 -1 19c0 54 15 111 45 170c29 57 65 106 110 148s96 85 153 127c-3 16 -8 46 -13 92c-4 43 -5 73 -5 89c0 117 16 172 69 257c34 54 64 82 89 82 c21 0 43 -30 69 -92s39 -115 41 -159v-15c0 -109 -21 -162 -67 -241c-13 -20 -63 -90 -98 -118c-13 -9 -25 -19 -37 -29l31 -181c8 1 18 2 28 2c58 0 102 -12 133 -35c59 -43 92 -104 98 -184c1 -7 1 -15 1 -22c0 -123 -87 -209 -181 -248c8 -57 17 -110 25 -162 c5 -31 6 -58 6 -80c0 -30 -5 -53 -14 -70c-35 -64 -88 -99 -158 -103c-5 0 -11 -1 -16 -1c-37 0 -72 10 -108 27c-50 24 -77 59 -80 105v11c0 29 7 55 20 76c18 28 45 42 79 44h6c49 0 93 -42 97 -87v-9c0 -51 -34 -86 -105 -106c17 -24 51 -36 102 -36c62 0 116 43 140 85 c9 16 13 41 13 74c0 20 -1 42 -5 67c-8 53 -18 106 -26 159zM461 939c-95 0 -135 -175 -135 -286c0 -24 2 -48 5 -71c50 39 92 82 127 128c40 53 60 100 60 140v8c-4 53 -22 81 -55 81h-2zM406 119l54 -326c73 25 110 78 110 161c0 7 0 15 -1 23c-7 95 -57 142 -151 142h-12 zM382 117c-72 -2 -128 -47 -128 -120v-7c2 -46 43 -99 75 -115c-3 -2 -7 -5 -10 -10c-70 33 -116 88 -123 172v11c0 68 44 126 88 159c23 17 49 29 78 36l-29 170c-21 -13 -52 -37 -92 -73c-50 -44 -86 -84 -109 -119c-45 -69 -67 -130 -67 -182v-13c5 -68 35 -127 93 -176 s125 -73 203 -73c25 0 50 3 75 9c-19 111 -36 221 -54 331z" />
      </g>
      <g id="E262-l19nj5e9">
         <path transform="scale(1,-1)" d="M136 186v169h17v-164l44 14v-91l-44 -14v-165l44 12v-91l-44 -13v-155h-17v150l-76 -22v-155h-17v149l-43 -13v90l43 14v167l-43 -14v92l43 13v169h17v-163zM60 73v-167l76 22v168z" />
      </g>
      <g id="E240-l19nj5e9">
         <path transform="scale(1,-1)" d="M179 -646c15 29 29 55 46 102c18 49 30 108 30 138c0 105 -80 173 -168 200c-18 5 -47 9 -87 16v190h22c8 0 33 -61 71 -95c4 -3 -2 3 61 -56c62 -58 122 -137 122 -241c0 -38 -13 -106 -35 -163c-20 -51 -43 -99 -66 -132c-6 -5 -10 -7 -13 -7s-5 2 -5 5l4 10 c1 3 14 25 18 33z" />
      </g>
      <g id="E241-l19nj5e9">
         <path transform="scale(1,-1)" d="M179 646c-4 8 -17 30 -18 33l-4 10c0 3 2 5 5 5s7 -2 13 -7c23 -33 46 -81 66 -132c22 -57 35 -125 35 -163c0 -104 -60 -183 -122 -241c-63 -59 -57 -53 -61 -56c-38 -34 -63 -95 -71 -95h-22v190c40 7 69 11 87 16c88 27 168 95 168 200c0 30 -12 89 -30 138 c-17 47 -31 73 -46 102z" />
      </g>
   </defs>
   <style type="text/css">#l19nj5e9 g.page-margin {font-family:Times,serif;}#l19nj5e9 g.ending, #l19nj5e9 g.fing, #l19nj5e9 g.reh, #l19nj5e9 g.tempo {font-weight:bold;}#l19nj5e9 g.dir, #l19nj5e9 g.dynam, #l19nj5e9 g.mNum {font-style:italic;}#l19nj5e9 g.label {font-weight:normal;}#l19nj5e9 path {stroke:currentColor}</style>
   <svg class="definition-scale" color="black" viewBox="0 0 21000 2260">
      <g class="page-margin" transform="translate(500, 500)">
         <g id="moqsi69" class="mdiv pageMilestone" />
         <g id="qmlovzj" class="score pageMilestone" />
         <g id="t195nmvf" class="system">
            <g id="fsm35er" class="section systemMilestone" />
            <g id="abcLine08" class="pb" />
            <g id="j9ixwzy" class="measure">
               <g id="s147azdb" class="staff">
                  <path d="M0 255 L2307 255" stroke-width="13" />
                  <path d="M0 435 L2307 435" stroke-width="13" />
                  <path d="M0 615 L2307 615" stroke-width="13" />
                  <path d="M0 795 L2307 795" stroke-width="13" />
                  <path d="M0 975 L2307 975" stroke-width="13" />
                  <g id="a2vl8de" class="clef">
                     <use xlink:href="#E050-l19nj5e9" transform="translate(90, 795) scale(0.72, 0.72)" />
                  </g>
                  <g id="b15m0q24" class="keySig">
                     <g id="c1buyc72" class="keyAccid">
                        <use xlink:href="#E262-l19nj5e9" transform="translate(735, 255) scale(0.72, 0.72)" />
                     </g>
                  </g>
                  <g id="d1dlxll1" class="meterSig">
                     <use xlink:href="#E084-l19nj5e9" transform="translate(1042, 435) scale(0.72, 0.72)" />
                     <use xlink:href="#E084-l19nj5e9" transform="translate(1042, 795) scale(0.72, 0.72)" />
                  </g>
                  <g id="hmwwo00" class="layer">
                     <g id="i1s4ffnc" class="note">
                        <g class="notehead">
                           <use xlink:href="#E0A4-l19nj5e9" transform="translate(1604, 1065) scale(0.72, 0.72)" />
                        </g>
                        <g id="l1wb3e2s" class="stem">
                           <path d="M1821 1037 L1821 435" stroke-width="18" />
                        </g>
                     </g>
                  </g>
               </g>
               <g id="r4ks4fv" class="barLine">
                  <path d="M2294 255 L2294 975" stroke-width="27" />
               </g>
            </g>
            <g id="yv3lqdm" class="measure">
               <g id="hju2rxn" class="staff">
                  <path d="M2307 255 L5256 255" stroke-width="13" />
                  <path d="M2307 435 L5256 435" stroke-width="13" />
                  <path d="M2307 615 L5256 615" stroke-width="13" />
                  <path d="M2307 795 L5256 795" stroke-width="13" />
                  <path d="M2307 975 L5256 975" stroke-width="13" />
                  <g id="t1kzq82m" class="layer">
                     <g id="ushell2" class="note">
                        <g class="notehead">
                           <use xlink:href="#E0A4-l19nj5e9" transform="translate(2487, 795) scale(0.72, 0.72)" />
                        </g>
                        <g id="n1p91bt0" class="dots">
                           <ellipse cx="2803" cy="705" rx="36" ry="36" fill-opacity="1" stroke-opacity="1" />
                        </g>
                        <g id="m1c77hfv" class="stem">
                           <path d="M2704 767 L2704 165" stroke-width="18" />
                        </g>
                     </g>
                     <g id="va734np" class="note">
                        <g class="notehead">
                           <use xlink:href="#E0A4-l19nj5e9" transform="translate(3367, 705) scale(0.72, 0.72)" />
                        </g>
                        <g id="o1hn97h8" class="stem">
                           <path d="M3584 677 L3584 75" stroke-width="18" />
                           <g id="pmwmthe" class="flag">
                              <use xlink:href="#E240-l19nj5e9" transform="translate(3575, 75) scale(0.72, 0.72)" />
                           </g>
                        </g>
                     </g>
                     <g id="w1cybpcc" class="note">
                        <g class="notehead">
                           <use xlink:href="#E0A4-l19nj5e9" transform="translate(3863, 615) scale(0.72, 0.72)" />
                        </g>
                        <g id="q14fmeoc" class="stem">
                           <path d="M3872 643 L3872 1215" stroke-width="18" />
                        </g>
                     </g>
                     <g id="x15wwqth" class="note">
                        <g class="notehead">
                           <use xlink:href="#E0A4-l19nj5e9" transform="translate(4553, 795) scale(0.72, 0.72)" />
                        </g>
                        <g id="rivwb27" class="stem">
                           <path d="M4770 767 L4770 165" stroke-width="18" />
                        </g>
                     </g>
                  </g>
               </g>
               <g id="g14xmp24" class="barLine">
                  <path d="M5243 255 L5243 975" stroke-width="27" />
               </g>
            </g>
            <g id="n16gprxv" class="measure">
               <g id="wgj8qwy" class="staff">
                  <path d="M5256 255 L8159 255" stroke-width="13" />
                  <path d="M5256 435 L8159 435" stroke-width="13" />
                  <path d="M5256 615 L8159 615" stroke-width="13" />
                  <path d="M5256 795 L8159 795" stroke-width="13" />
                  <path d="M5256 975 L8159 975" stroke-width="13" />
                  <g id="izodm98" class="layer">
                     <g id="j1mj6nxn" class="note">
                        <g class="notehead">
                           <use xlink:href="#E0A4-l19nj5e9" transform="translate(5436, 705) scale(0.72, 0.72)" />
                        </g>
                        <g id="t1ajik95" class="dots">
                           <ellipse cx="5752" cy="705" rx="36" ry="36" fill-opacity="1" stroke-opacity="1" />
                        </g>
                        <g id="s1f31sgl" class="stem">
                           <path d="M5653 677 L5653 75" stroke-width="18" />
                        </g>
                     </g>
                     <g id="k1d0qcvg" class="note">
                        <g class="notehead">
                           <use xlink:href="#E0A4-l19nj5e9" transform="translate(6316, 615) scale(0.72, 0.72)" />
                        </g>
                        <g id="u6oscn4" class="stem">
                           <path d="M6325 643 L6325 1215" stroke-width="18" />
                           <g id="vyt4ad" class="flag">
                              <use xlink:href="#E241-l19nj5e9" transform="translate(6316, 1215) scale(0.72, 0.72)" />
                           </g>
                        </g>
                     </g>
                     <g id="leeh8fz" class="note">
                        <g class="notehead">
                           <use xlink:href="#E0A4-l19nj5e9" transform="translate(6766, 705) scale(0.72, 0.72)" />
                        </g>
                        <g id="w19obtds" class="stem">
                           <path d="M6983 677 L6983 75" stroke-width="18" />
                        </g>
                     </g>
                     <g id="m5odh2d" class="note">
                        <g class="notehead">
                           <use xlink:href="#E0A4-l19nj5e9" transform="translate(7456, 1065) scale(0.72, 0.72)" />
                        </g>
                        <g id="xm40ctx" class="stem">
                           <path d="M7673 1037 L7673 435" stroke-width="18" />
                        </g>
                     </g>
                  </g>
               </g>
               <g id="v6sh6uc" class="barLine">
                  <path d="M8146 255 L8146 975" stroke-width="27" />
               </g>
            </g>
            <g id="c1kyp1ws" class="measure">
               <g id="lcz237t" class="staff">
                  <path d="M8159 255 L11108 255" stroke-width="13" />
                  <path d="M8159 435 L11108 435" stroke-width="13" />
                  <path d="M8159 615 L11108 615" stroke-width="13" />
                  <path d="M8159 795 L11108 795" stroke-width="13" />
                  <path d="M8159 975 L11108 975" stroke-width="13" />
                  <g id="xfggj11" class="layer">
                     <g id="y1waypqj" class="note">
                        <g class="notehead">
                           <use xlink:href="#E0A4-l19nj5e9" transform="translate(8339, 795) scale(0.72, 0.72)" />
                        </g>
                        <g id="z4bj489" class="dots">
                           <ellipse cx="8655" cy="705" rx="36" ry="36" fill-opacity="1" stroke-opacity="1" />
                        </g>
                        <g id="yvzjjlx" class="stem">
                           <path d="M8556 767 L8556 165" stroke-width="18" />
                        </g>
                     </g>
                     <g id="zfx25hn" class="note">
                        <g class="notehead">
                           <use xlink:href="#E0A4-l19nj5e9" transform="translate(9219, 705) scale(0.72, 0.72)" />
                        </g>
                        <g id="a1tqy1kq" class="stem">
                           <path d="M9436 677 L9436 75" stroke-width="18" />
                           <g id="bb8g0u0" class="flag">
                              <use xlink:href="#E240-l19nj5e9" transform="translate(9427, 75) scale(0.72, 0.72)" />
                           </g>
                        </g>
                     </g>
                     <g id="a3ie8ud" class="note">
                        <g class="notehead">
                           <use xlink:href="#E0A4-l19nj5e9" transform="translate(9715, 615) scale(0.72, 0.72)" />
                        </g>
                        <g id="cfjak8c" class="stem">
                           <path d="M9724 643 L9724 1215" stroke-width="18" />
                        </g>
                     </g>
                     <g id="b37hn12" class="note">
                        <g class="notehead">
                           <use xlink:href="#E0A4-l19nj5e9" transform="translate(10405, 705) scale(0.72, 0.72)" />
                        </g>
                        <g id="d16zdwlv" class="stem">
                           <path d="M10622 677 L10622 75" stroke-width="18" />
                        </g>
                     </g>
                  </g>
               </g>
               <g id="k1dict13" class="barLine">
                  <path d="M11095 255 L11095 975" stroke-width="27" />
               </g>
            </g>
            <g id="o1nwbnw5" class="measure">
               <g id="x1oxd4nf" class="staff">
                  <path d="M11108 255 L12803 255" stroke-width="13" />
                  <path d="M11108 435 L12803 435" stroke-width="13" />
                  <path d="M11108 615 L12803 615" stroke-width="13" />
                  <path d="M11108 795 L12803 795" stroke-width="13" />
                  <path d="M11108 975 L12803 975" stroke-width="13" />
                  <g id="mwxt00x" class="layer">
                     <g id="ndvl5ld" class="note">
                        <g class="notehead">
                           <use xlink:href="#E0A3-l19nj5e9" transform="translate(11288, 795) scale(0.72, 0.72)" />
                        </g>
                        <g id="fqn9gl2" class="dots">
                           <ellipse cx="11604" cy="705" rx="36" ry="36" fill-opacity="1" stroke-opacity="1" />
                        </g>
                        <g id="e11izfdo" class="stem">
                           <path d="M11505 767 L11505 165" stroke-width="18" />
                        </g>
                     </g>
                  </g>
               </g>
               <g id="w1m11mph" class="barLine">
                  <path d="M12628 255 L12628 975" stroke-width="27" />
                  <path d="M12758 255 L12758 975" stroke-width="90" />
               </g>
            </g>
            <g id="abcLine09" class="sb" />
            <g id="h1wvbc8t" class="systemMilestoneEnd fsm35er" />
         </g>
         <g id="i4s4uc4" class="pageMilestoneEnd qmlovzj" />
         <g id="jo3qcsy" class="pageMilestoneEnd moqsi69" />
      </g>
   </svg>
</svg>
