<svg width="309.5px" height="97px" version="1.1" xmlns="http://www.w3.org/2000/svg" xmlns:xlink="http://www.w3.org/1999/xlink" xmlns:mei="http://www.music-encoding.org/ns/mei" overflow="visible">
   <desc>Engraved by Verovio 3.4.1-8f65a58</desc>
   <defs>
      <symbol id="E050-0000001927702196" viewBox="0 0 1000 1000" overflow="inherit">
         <path transform="scale(1,-1)" d="M441 -245c-23 -4 -48 -6 -76 -6c-59 0 -102 7 -130 20c-88 42 -150 93 -187 154c-26 44 -43 103 -48 176c0 6 -1 13 -1 19c0 54 15 111 45 170c29 57 65 106 110 148s96 85 153 127c-3 16 -8 46 -13 92c-4 43 -5 73 -5 89c0 117 16 172 69 257c34 54 64 82 89 82 c21 0 43 -30 69 -92s39 -115 41 -159v-15c0 -109 -21 -162 -67 -241c-13 -20 -63 -90 -98 -118c-13 -9 -25 -19 -37 -29l31 -181c8 1 18 2 28 2c58 0 102 -12 133 -35c59 -43 92 -104 98 -184c1 -7 1 -15 1 -22c0 -123 -87 -209 -181 -248c8 -57 17 -110 25 -162 c5 -31 6 -58 6 -80c0 -30 -5 -53 -14 -70c-35 -64 -88 -99 -158 -103c-5 0 -11 -1 -16 -1c-37 0 -72 10 -108 27c-50 24 -77 59 -80 105v11c0 29 7 55 20 76c18 28 45 42 79 44h6c49 0 93 -42 97 -87v-9c0 -51 -34 -86 -105 -106c17 -24 51 -36 102 -36c62 0 116 43 140 85 c9 16 13 41 13 74c0 20 -1 42 -5 67c-8 53 -18 106 -26 159zM461 939c-95 0 -135 -175 -135 -286c0 -24 2 -48 5 -71c50 39 92 82 127 128c40 53 60 100 60 140v8c-4 53 -22 81 -55 81h-2zM406 119l54 -326c73 25 110 78 110 161c0 7 0 15 -1 23c-7 95 -57 142 -151 142h-12 zM382 117c-72 -2 -128 -47 -128 -120v-7c2 -46 43 -99 75 -115c-3 -2 -7 -5 -10 -10c-70 33 -116 88 -123 172v11c0 68 44 126 88 159c23 17 49 29 78 36l-29 170c-21 -13 -52 -37 -92 -73c-50 -44 -86 -84 -109 -119c-45 -69 -67 -130 -67 -182v-13c5 -68 35 -127 93 -176 s125 -73 203 -73c25 0 50 3 75 9c-19 111 -36 221 -54 331z" />
      </symbol>
      <symbol id="E08A-0000001927702196" viewBox="0 0 1000 1000" overflow="inherit">
         <path transform="scale(1,-1)" d="M340 179c-9 24 -56 41 -89 41c-46 0 -81 -28 -100 -58c-17 -28 -25 -78 -25 -150c0 -65 2 -111 8 -135c8 -31 18 -49 40 -67c20 -17 43 -25 70 -25c54 0 92 36 115 75c14 25 23 54 28 88h27c0 -63 -24 -105 -58 -141c-35 -38 -82 -56 -140 -56c-45 0 -83 13 -115 39 c-57 45 -101 130 -101 226c0 59 33 127 68 163c36 37 97 72 160 72c36 0 93 -21 121 -40c11 -8 23 -17 33 -30c19 -23 27 -48 27 -76c0 -51 -35 -88 -86 -88c-43 0 -76 27 -76 68c0 26 7 35 21 51c15 17 32 27 58 32c7 2 14 7 14 11z" />
      </symbol>
      <symbol id="E0A4-0000001927702196" viewBox="0 0 1000 1000" overflow="inherit">
         <path transform="scale(1,-1)" d="M0 -39c0 68 73 172 200 172c66 0 114 -37 114 -95c0 -84 -106 -171 -218 -171c-64 0 -96 30 -96 94z" />
      </symbol>
      <symbol id="E240-0000001927702196" viewBox="0 0 1000 1000" overflow="inherit">
         <path transform="scale(1,-1)" d="M179 -646c15 29 29 55 46 102c18 49 30 108 30 138c0 105 -80 173 -168 200c-18 5 -47 9 -87 16v190h22c8 0 33 -61 71 -95c4 -3 -2 3 61 -56c62 -58 122 -137 122 -241c0 -38 -13 -106 -35 -163c-20 -51 -43 -99 -66 -132c-6 -5 -10 -7 -13 -7s-5 2 -5 5l4 10 c1 3 14 25 18 33z" />
      </symbol>
      <symbol id="E260-0000001927702196" viewBox="0 0 1000 1000" overflow="inherit">
         <path transform="scale(1,-1)" d="M20 110c32 16 54 27 93 27c26 0 35 -3 54 -13c13 -7 24 -20 27 -38l4 -25c0 -28 -16 -57 -45 -89c-23 -25 -39 -44 -65 -68l-88 -79v644h20v-359zM90 106c-32 0 -48 -10 -70 -29v-194c31 31 54 59 71 84c21 32 32 59 32 84c0 9 1 16 1 20c0 14 -3 21 -11 30l-8 3z" />
      </symbol>
      <symbol id="E261-0000001927702196" viewBox="0 0 1000 1000" overflow="inherit">
         <path transform="scale(1,-1)" d="M0 -188v539h18v-191l139 22v-533h-17v186zM18 -100l122 17v176l-122 -19v-174z" />
      </symbol>
      <symbol id="E262-0000001927702196" viewBox="0 0 1000 1000" overflow="inherit">
         <path transform="scale(1,-1)" d="M136 186v169h17v-164l44 14v-91l-44 -14v-165l44 12v-91l-44 -13v-155h-17v150l-76 -22v-155h-17v149l-43 -13v90l43 14v167l-43 -14v92l43 13v169h17v-163zM60 73v-167l76 22v168z" />
      </symbol>
      <symbol id="E263-0000001927702196" viewBox="0 0 1000 1000" overflow="inherit">
         <path transform="scale(1,-1)" d="M0 120h74v-54l15 -17h79l15 16v55h74v-72h-59l-25 -28v-38l25 -32h59v-70h-75v55l-14 15h-80l-14 -15v-55h-74v72h60l26 30v38l-28 29h-58v71z" />
      </symbol>
      <symbol id="E264-0000001927702196" viewBox="0 0 1000 1000" overflow="inherit">
         <path transform="scale(1,-1)" d="M280 106c-32 0 -48 -10 -70 -29v-194c31 31 54 59 71 84c21 32 32 59 32 84c1 9 1 16 1 20c0 14 -3 21 -11 30l-8 3zM113 137c38 0 65 -13 77 -41v373h20v-359c32 16 54 27 93 27c26 0 35 -3 54 -13c13 -7 24 -20 27 -38l4 -25c0 -28 -16 -57 -45 -89 c-23 -25 -39 -44 -65 -68l-88 -79v199c-12 -28 -46 -63 -67 -87c-9 -11 -21 -22 -35 -33l-88 -79v644h20v-359c32 16 54 27 93 27zM90 106c-32 0 -48 -10 -70 -29v-194c31 31 54 59 71 84c21 32 32 59 32 84c1 9 1 16 1 20c0 14 -3 21 -11 30l-8 3z" />
      </symbol>
   </defs>
   <style type="text/css">g.page-margin{font-family:Times;} g.ending, g.reh, g.tempo{font-weight:bold;} g.dir, g.dynam, g.mNum{font-style:italic;} g.label{font-weight:normal;}</style>
   <svg class="definition-scale" color="black" viewBox="0 0 6190 1940">
      <g class="page-margin" transform="translate(500, 500)">
         <g id="system-0000001617819336" class="system">
            <g id="section-0000000114807987" class="section boundaryStart" />
            <g id="abcLine05" class="pb" />
            <g id="measure-0000001404280278" class="measure">
               <g id="staff-0000001358580979" class="staff">
                  <path d="M0 180 L5192 180" stroke="currentColor" stroke-width="13" />
                  <path d="M0 360 L5192 360" stroke="currentColor" stroke-width="13" />
                  <path d="M0 540 L5192 540" stroke="currentColor" stroke-width="13" />
                  <path d="M0 720 L5192 720" stroke="currentColor" stroke-width="13" />
                  <path d="M0 900 L5192 900" stroke="currentColor" stroke-width="13" />
                  <g id="clef-0000000330111137" class="clef">
                     <use xlink:href="#E050-0000001927702196" x="90" y="720" height="720px" width="720px" />
                  </g>
                  <g id="msig-0000001723153177" class="meterSig">
                     <use xlink:href="#E08A-0000001927702196" x="825" y="540" height="720px" width="720px" />
                  </g>
                  <g id="layer-0000001441282327" class="layer">
                     <g id="note-0000000016531729" class="note">
                        <g class="notehead">
                           <use xlink:href="#E0A4-0000001927702196" x="1726" y="630" height="720px" width="720px" />
                        </g>
                        <g id="stem-0000001899894091" class="stem">
                           <rect x="1934" y="0" height="602" width="18" />
                           <g id="flag-0000000585640194" class="flag">
                              <use xlink:href="#E240-0000001927702196" x="1934" y="0" height="720px" width="720px" />
                           </g>
                        </g>
                        <g id="accid-0000000823378840" class="accid">
                           <use xlink:href="#E264-0000001927702196" x="1393" y="630" height="720px" width="720px" />
                        </g>
                     </g>
                     <g id="note-0000000143542612" class="note">
                        <g class="notehead">
                           <use xlink:href="#E0A4-0000001927702196" x="2418" y="630" height="720px" width="720px" />
                        </g>
                        <g id="stem-0000000937186357" class="stem">
                           <rect x="2626" y="0" height="602" width="18" />
                           <g id="flag-0000001646035001" class="flag">
                              <use xlink:href="#E240-0000001927702196" x="2626" y="0" height="720px" width="720px" />
                           </g>
                        </g>
                        <g id="accid-0000000896544303" class="accid">
                           <use xlink:href="#E260-0000001927702196" x="2222" y="630" height="720px" width="720px" />
                        </g>
                     </g>
                     <g id="note-0000001474833169" class="note">
                        <g class="notehead">
                           <use xlink:href="#E0A4-0000001927702196" x="3081" y="630" height="720px" width="720px" />
                        </g>
                        <g id="stem-0000001025921153" class="stem">
                           <rect x="3289" y="0" height="602" width="18" />
                           <g id="flag-0000000510616708" class="flag">
                              <use xlink:href="#E240-0000001927702196" x="3289" y="0" height="720px" width="720px" />
                           </g>
                        </g>
                        <g id="accid-0000001264817709" class="accid">
                           <use xlink:href="#E261-0000001927702196" x="2914" y="630" height="720px" width="720px" />
                        </g>
                     </g>
                     <g id="note-0000001998097157" class="note">
                        <g class="notehead">
                           <use xlink:href="#E0A4-0000001927702196" x="3772" y="630" height="720px" width="720px" />
                        </g>
                        <g id="stem-0000000590357944" class="stem">
                           <rect x="3980" y="0" height="602" width="18" />
                           <g id="flag-0000000771515668" class="flag">
                              <use xlink:href="#E240-0000001927702196" x="3980" y="0" height="720px" width="720px" />
                           </g>
                        </g>
                        <g id="accid-0000001817129560" class="accid">
                           <use xlink:href="#E262-0000001927702196" x="3577" y="630" height="720px" width="720px" />
                        </g>
                     </g>
                     <g id="note-0000001131570933" class="note">
                        <g class="notehead">
                           <use xlink:href="#E0A4-0000001927702196" x="4507" y="630" height="720px" width="720px" />
                        </g>
                        <g id="stem-0000000357571490" class="stem">
                           <rect x="4715" y="0" height="602" width="18" />
                           <g id="flag-0000001044788124" class="flag">
                              <use xlink:href="#E240-0000001927702196" x="4715" y="0" height="720px" width="720px" />
                           </g>
                        </g>
                        <g id="accid-0000000197493099" class="accid">
                           <use xlink:href="#E263-0000001927702196" x="4268" y="630" height="720px" width="720px" />
                        </g>
                     </g>
                  </g>
               </g>
               <g id="bline-0000000704877633" class="barLineAttr">
                  <path d="M5017 900 L5017 180" stroke="currentColor" stroke-width="27" />
                  <path d="M5147 900 L5147 180" stroke="currentColor" stroke-width="90" />
               </g>
            </g>
            <g id="abcLine06" class="sb" />
            <g id="bdend-0000001356425228" class="boundaryEnd section-0000000114807987" />
         </g>
      </g>
   </svg>
</svg>
