<svg width="945px" height="189px" version="1.1" xmlns="http://www.w3.org/2000/svg" xmlns:xlink="http://www.w3.org/1999/xlink" overflow="visible" id="l19nj5e9">
   <desc>Engraved by Verovio 5.6.0-85e7620</desc>
   <defs>
      <g id="E050-l19nj5e9">
         <path transform="scale(1,-1)" d="M441 -245c-23 -4 -48 -6 -76 -6c-59 0 -102 7 -130 20c-88 42 -150 93 -187 154c-26 44 -43 103 -48 176c0 6 -1 13 -1 19c0 54 15 111 45 170c29 57 65 106 110 148s96 85 153 127c-3 16 -8 46 -13 92c-4 43 -5 73 -5 89c0 117 16 172 69 257c34 54 64 82 89 82 c21 0 43 -30 69 -92s39 -115 41 -159v-15c0 -109 -21 -162 -67 -241c-13 -20 -63 -90 -98 -118c-13 -9 -25 -19 -37 -29l31 -181c8 1 18 2 28 2c58 0 102 -12 133 -35c59 -43 92 -104 98 -184c1 -7 1 -15 1 -22c0 -123 -87 -209 -181 -248c8 -57 17 -110 25 -162 c5 -31 6 -58 6 -80c0 -30 -5 -53 -14 -70c-35 -64 -88 -99 -158 -103c-5 0 -11 -1 -16 -1c-37 0 -72 10 -108 27c-50 24 -77 59 -80 105v11c0 29 7 55 20 76c18 28 45 42 79 44h6c49 0 93 -42 97 -87v-9c0 -51 -34 -86 -105 -106c17 -24 51 -36 102 -36c62 0 116 43 140 85 c9 16 13 41 13 74c0 20 -1 42 -5 67c-8 53 -18 106 -26 159zM461 939c-95 0 -135 -175 -135 -286c0 -24 2 -48 5 -71c50 39 92 82 127 128c40 53 60 100 60 140v8c-4 53 -22 81 -55 81h-2zM406 119l54 -326c73 25 110 78 110 161c0 7 0 15 -1 23c-7 95 -57 142 -151 142h-12 zM382 117c-72 -2 -128 -47 -128 -120v-7c2 -46 43 -99 75 -115c-3 -2 -7 -5 -10 -10c-70 33 -116 88 -123 172v11c0 68 44 126 88 159c23 17 49 29 78 36l-29 170c-21 -13 -52 -37 -92 -73c-50 -44 -86 -84 -109 -119c-45 -69 -67 -130 -67 -182v-13c5 -68 35 -127 93 -176 s125 -73 203 -73c25 0 50 3 75 9c-19 111 -36 221 -54 331z" />
      </g>
      <g id="E262-l19nj5e9">
         <path transform="scale(1,-1)" d="M136 186v169h17v-164l44 14v-91l-44 -14v-165l44 12v-91l-44 -13v-155h-17v150l-76 -22v-155h-17v149l-43 -13v90l43 14v167l-43 -14v92l43 13v169h17v-163zM60 73v-167l76 22v168z" />
      </g>
      <g id="E084-l19nj5e9">
         <path transform="scale(1,-1)" d="M20 -78c84 97 114 180 134 329h170c-13 -32 -82 -132 -99 -151l-84 -97c-33 -36 -59 -63 -80 -81h162v102l127 123v-225h57v-39h-57v-34c0 -43 19 -65 57 -65v-34h-244v36c48 0 60 26 60 70v27h-203v39z" />
      </g>
      <g id="E0A4-l19nj5e9">
         <path transform="scale(1,-1)" d="M0 -39c0 68 73 172 200 172c66 0 114 -37 114 -95c0 -84 -106 -171 -218 -171c-64 0 -96 30 -96 94z" />
      </g>
      <g id="E52D-l19nj5e9">
         <path transform="scale(1,-1)" d="M311 -69c21 0 35 -31 35 -51s-13 -32 -21 -45c-5 -7 -8 -12 -11 -14c-6 -7 -1 -10 9 -11c35 0 54 55 67 89c7 18 12 35 15 52c21 88 39 179 58 269h-58v38h70c13 38 23 65 40 91c21 30 42 53 65 69s48 24 75 24c28 0 46 -14 51 -38l4 -16c0 -33 -1 -36 -13 -60 c-3 -7 -17 -25 -31 -27c-5 -1 -10 -1 -17 0c-13 3 -17 18 -19 31c0 27 11 44 29 56l14 10c0 9 -6 14 -18 16h-6c-11 0 -20 -2 -28 -8c-9 -7 -19 -21 -29 -43c-7 -18 -26 -84 -31 -103h77v-40h-85c-19 -109 -60 -255 -103 -337c-24 -46 -64 -106 -117 -106 c-45 0 -71 37 -71 83c0 32 15 71 49 71zM337 262c21 0 43 -14 43 -35v-7l-63 -183c0 -13 4 -20 12 -21c8 0 17 5 26 15s15 16 16 17c4 7 19 32 20 35l14 41h23l-24 -63c-8 -22 -31 -45 -44 -58s-29 -20 -46 -21c-18 0 -34 5 -49 14l-16 15c-3 7 -5 12 -5 17 c20 63 44 124 65 186c0 7 -5 12 -15 13c-16 0 -31 -15 -44 -45l-64 -182h-71l77 214c0 9 -6 13 -17 13c-9 0 -17 -4 -22 -11s-12 -19 -20 -34l-64 -182h-69l77 210v4c0 10 -5 12 -12 16c-25 0 -52 -47 -66 -73c-5 -9 -12 -23 -21 -42h-22c19 39 40 76 64 107 c21 27 47 40 79 40c21 0 31 -19 34 -41c19 17 34 27 45 32c11 6 24 9 39 9c21 0 32 -19 35 -41c22 17 49 41 85 41z" />
      </g>
      <g id="E240-l19nj5e9">
         <path transform="scale(1,-1)" d="M179 -646c15 29 29 55 46 102c18 49 30 108 30 138c0 105 -80 173 -168 200c-18 5 -47 9 -87 16v190h22c8 0 33 -61 71 -95c4 -3 -2 3 61 -56c62 -58 122 -137 122 -241c0 -38 -13 -106 -35 -163c-20 -51 -43 -99 -66 -132c-6 -5 -10 -7 -13 -7s-5 2 -5 5l4 10 c1 3 14 25 18 33z" />
      </g>
      <g id="E241-l19nj5e9">
         <path transform="scale(1,-1)" d="M179 646c-4 8 -17 30 -18 33l-4 10c0 3 2 5 5 5s7 -2 13 -7c23 -33 46 -81 66 -132c22 -57 35 -125 35 -163c0 -104 -60 -183 -122 -241c-63 -59 -57 -53 -61 -56c-38 -34 -63 -95 -71 -95h-22v190c40 7 69 11 87 16c88 27 168 95 168 200c0 30 -12 89 -30 138 c-17 47 -31 73 -46 102z" />
      </g>
      <g id="E0A3-l19nj5e9">
         <path transform="scale(1,-1)" d="M278 64c0 22 -17 39 -43 39c-12 0 -26 -3 -41 -10c-85 -43 -165 -94 -165 -156c5 -25 15 -32 49 -32c67 11 200 95 200 159zM0 -36c0 68 73 174 200 174c66 0 114 -39 114 -97c0 -84 -106 -173 -218 -173c-64 0 -96 32 -96 96z" />
      </g>
   </defs>
   <style type="text/css">#l19nj5e9 g.page-margin {font-family:Times,serif;}#l19nj5e9 g.ending, #l19nj5e9 g.fing, #l19nj5e9 g.reh, #l19nj5e9 g.tempo {font-weight:bold;}#l19nj5e9 g.dir, #l19nj5e9 g.dynam, #l19nj5e9 g.mNum {font-style:italic;}#l19nj5e9 g.label {font-weight:normal;}#l19nj5e9 path {stroke:currentColor}</style>
   <svg class="definition-scale" color="black" viewBox="0 0 21000 4190">
      <g class="page-margin" transform="translate(500, 500)">
         <g id="moqsi69" class="mdiv pageMilestone" />
         <g id="spw8dyc" class="score pageMilestone" />
         <g id="f1eiswrh" class="system">
            <g id="hmwwo00" class="section systemMilestone" />
            <g id="abcLine09" class="pb" />
            <g id="p36inxr" class="measure">
               <g id="yv3lqdm" class="staff">
                  <path d="M0 1770 L2307 1770" stroke-width="13" />
                  <path d="M0 1950 L2307 1950" stroke-width="13" />
                  <path d="M0 2130 L2307 2130" stroke-width="13" />
                  <path d="M0 2310 L2307 2310" stroke-width="13" />
                  <path d="M0 2490 L2307 2490" stroke-width="13" />
                  <g id="mxwmhac" class="clef">
                     <use xlink:href="#E050-l19nj5e9" transform="translate(90, 2310) scale(0.72, 0.72)" />
                  </g>
                  <g id="nvkpqic" class="keySig">
                     <g id="oradbum" class="keyAccid">
                        <use xlink:href="#E262-l19nj5e9" transform="translate(735, 1770) scale(0.72, 0.72)" />
                     </g>
                  </g>
                  <g id="p1me5okx" class="meterSig">
                     <use xlink:href="#E084-l19nj5e9" transform="translate(1042, 1950) scale(0.72, 0.72)" />
                     <use xlink:href="#E084-l19nj5e9" transform="translate(1042, 2310) scale(0.72, 0.72)" />
                  </g>
                  <g id="j9ixwzy" class="layer">
                     <g id="m1q84ocf" class="note">
                        <g class="notehead">
                           <use xlink:href="#E0A4-l19nj5e9" transform="translate(1604, 2580) scale(0.72, 0.72)" />
                        </g>
                        <g id="k19a056m" class="stem">
                           <path d="M1821 2552 L1821 1950" stroke-width="18" />
                        </g>
                     </g>
                  </g>
               </g>
               <g id="o168fb37" class="tempo">
                  <text x="1042" y="1642" font-size="0px">
                     <tspan id="pfnjo7e" class="text">
                        <tspan font-size="405px">Andante</tspan>
                     </tspan>
                  </text>
               </g>
               <g id="k1ffvwuh" class="harm">
                  <text x="1717" y="1184" text-anchor="middle" font-size="0px">
                     <tspan id="lzosgrv" class="text">
                        <tspan font-size="405px" x="1717" y="1184">D</tspan>
                     </tspan>
                  </text>
               </g>
               <g id="n1gzuhvg" class="dynam">
                  <use xlink:href="#E52D-l19nj5e9" transform="translate(1488, 3038) scale(0.72, 0.72)" />
               </g>
               <g id="x15wwqth" class="barLine">
                  <path d="M2294 1770 L2294 2490" stroke-width="27" />
               </g>
            </g>
            <g id="j1mj6nxn" class="measure">
               <g id="s82fpt" class="staff">
                  <path d="M2307 1770 L5256 1770" stroke-width="13" />
                  <path d="M2307 1950 L5256 1950" stroke-width="13" />
                  <path d="M2307 2130 L5256 2130" stroke-width="13" />
                  <path d="M2307 2310 L5256 2310" stroke-width="13" />
                  <path d="M2307 2490 L5256 2490" stroke-width="13" />
                  <g id="z2gqwr3" class="layer">
                     <g id="c1ahluu1" class="note">
                        <g class="notehead">
                           <use xlink:href="#E0A4-l19nj5e9" transform="translate(2487, 2310) scale(0.72, 0.72)" />
                        </g>
                        <g id="mlwp7zq" class="dots">
                           <ellipse cx="2803" cy="2220" rx="36" ry="36" fill-opacity="1" stroke-opacity="1" />
                        </g>
                        <g id="l1e7ub62" class="stem">
                           <path d="M2704 2282 L2704 1680" stroke-width="18" />
                        </g>
                     </g>
                     <g id="d1iiegxs" class="note">
                        <g class="notehead">
                           <use xlink:href="#E0A4-l19nj5e9" transform="translate(3367, 2220) scale(0.72, 0.72)" />
                        </g>
                        <g id="nt9ronl" class="stem">
                           <path d="M3584 2192 L3584 1590" stroke-width="18" />
                           <g id="o1awc8ol" class="flag">
                              <use xlink:href="#E240-l19nj5e9" transform="translate(3575, 1590) scale(0.72, 0.72)" />
                           </g>
                        </g>
                     </g>
                     <g id="g14xmp24" class="note">
                        <g class="notehead">
                           <use xlink:href="#E0A4-l19nj5e9" transform="translate(3863, 2130) scale(0.72, 0.72)" />
                        </g>
                        <g id="p1ufntge" class="stem">
                           <path d="M3872 2158 L3872 2730" stroke-width="18" />
                        </g>
                     </g>
                     <g id="hju2rxn" class="note">
                        <g class="notehead">
                           <use xlink:href="#E0A4-l19nj5e9" transform="translate(4182, 2220) scale(0.54, 0.54)" />
                        </g>
                        <g id="qg6e4o" class="stem">
                           <path d="M4342 2199 L4342 1748" stroke-width="18" />
                           <path d="M4275 2016 L4476 1815" stroke-width="21" />
                           <g id="rxq6cll" class="flag">
                              <use xlink:href="#E240-l19nj5e9" transform="translate(4333, 1748) scale(0.54, 0.54)" />
                           </g>
                        </g>
                     </g>
                     <g id="izodm98" class="note">
                        <g class="notehead">
                           <use xlink:href="#E0A4-l19nj5e9" transform="translate(4553, 2310) scale(0.72, 0.72)" />
                        </g>
                        <g id="s1xjwapg" class="stem">
                           <path d="M4770 2282 L4770 1680" stroke-width="18" />
                        </g>
                     </g>
                  </g>
               </g>
               <g id="a1pfogn4" class="harm">
                  <text x="2600" y="1184" text-anchor="middle" font-size="0px">
                     <tspan id="b8j2ung" class="text">
                        <tspan font-size="405px" x="2600" y="1184">G</tspan>
                     </tspan>
                  </text>
               </g>
               <g id="erbcoh7" class="harm">
                  <text x="3976" y="1184" text-anchor="middle" font-size="0px">
                     <tspan id="fmlv5y5" class="text">
                        <tspan font-size="405px" x="3976" y="1184">Em</tspan>
                     </tspan>
                  </text>
               </g>
               <g id="rgx8bjh" class="barLine">
                  <path d="M5243 1770 L5243 2490" stroke-width="27" />
               </g>
            </g>
            <g id="d1eyoooy" class="measure">
               <g id="mwxt00x" class="staff">
                  <path d="M5256 1770 L8159 1770" stroke-width="13" />
                  <path d="M5256 1950 L8159 1950" stroke-width="13" />
                  <path d="M5256 2130 L8159 2130" stroke-width="13" />
                  <path d="M5256 2310 L8159 2310" stroke-width="13" />
                  <path d="M5256 2490 L8159 2490" stroke-width="13" />
                  <g id="t3elz0m" class="layer">
                     <g id="wgj8qwy" class="note">
                        <g class="notehead">
                           <use xlink:href="#E0A4-l19nj5e9" transform="translate(5436, 2220) scale(0.72, 0.72)" />
                        </g>
                        <g id="ulubfbi" class="dots">
                           <ellipse cx="5752" cy="2220" rx="36" ry="36" fill-opacity="1" stroke-opacity="1" />
                        </g>
                        <g id="t16fzqxk" class="stem">
                           <path d="M5653 2192 L5653 1590" stroke-width="18" />
                        </g>
                     </g>
                     <g id="xfggj11" class="note">
                        <g class="notehead">
                           <use xlink:href="#E0A4-l19nj5e9" transform="translate(6316, 2130) scale(0.72, 0.72)" />
                        </g>
                        <g id="v1n4j8tk" class="stem">
                           <path d="M6325 2158 L6325 2730" stroke-width="18" />
                           <g id="w1qijfro" class="flag">
                              <use xlink:href="#E241-l19nj5e9" transform="translate(6316, 2730) scale(0.72, 0.72)" />
                           </g>
                        </g>
                     </g>
                     <g id="a3ie8ud" class="note">
                        <g class="notehead">
                           <use xlink:href="#E0A4-l19nj5e9" transform="translate(6766, 2220) scale(0.72, 0.72)" />
                        </g>
                        <g id="xpk0tft" class="stem">
                           <path d="M6983 2192 L6983 1590" stroke-width="18" />
                        </g>
                     </g>
                     <g id="b37hn12" class="note">
                        <g class="notehead">
                           <use xlink:href="#E0A4-l19nj5e9" transform="translate(7085, 2490) scale(0.54, 0.54)" />
                        </g>
                        <g id="y1ccvmbx" class="stem">
                           <path d="M7245 2469 L7245 2018" stroke-width="18" />
                           <path d="M7178 2286 L7379 2085" stroke-width="21" />
                           <g id="z1onwf8y" class="flag">
                              <use xlink:href="#E240-l19nj5e9" transform="translate(7236, 2018) scale(0.54, 0.54)" />
                           </g>
                        </g>
                     </g>
                     <g id="c1kyp1ws" class="note">
                        <g class="notehead">
                           <use xlink:href="#E0A4-l19nj5e9" transform="translate(7456, 2580) scale(0.72, 0.72)" />
                        </g>
                        <g id="au36i87" class="stem">
                           <path d="M7673 2552 L7673 1950" stroke-width="18" />
                        </g>
                     </g>
                  </g>
               </g>
               <g id="u1bb0tuc" class="harm">
                  <text x="5549" y="1184" text-anchor="middle" font-size="0px">
                     <tspan id="v6sh6uc" class="text">
                        <tspan font-size="405px" x="5549" y="1184">Am</tspan>
                     </tspan>
                  </text>
               </g>
               <g id="y1waypqj" class="harm">
                  <text x="6879" y="1184" text-anchor="middle" font-size="0px">
                     <tspan id="zfx25hn" class="text">
                        <tspan font-size="405px" x="6879" y="1184">D7</tspan>
                     </tspan>
                  </text>
               </g>
               <g id="lcz237t" class="barLine">
                  <path d="M8146 1770 L8146 2490" stroke-width="27" />
               </g>
            </g>
            <g id="y23h8om" class="measure">
               <g id="h1wvbc8t" class="staff">
                  <path d="M8159 1770 L11108 1770" stroke-width="13" />
                  <path d="M8159 1950 L11108 1950" stroke-width="13" />
                  <path d="M8159 2130 L11108 2130" stroke-width="13" />
                  <path d="M8159 2310 L11108 2310" stroke-width="13" />
                  <path d="M8159 2490 L11108 2490" stroke-width="13" />
                  <g id="ndvl5ld" class="layer">
                     <g id="qjepdrb" class="note">
                        <g class="notehead">
                           <use xlink:href="#E0A4-l19nj5e9" transform="translate(8339, 2310) scale(0.72, 0.72)" />
                        </g>
                        <g id="cg7y08o" class="dots">
                           <ellipse cx="8655" cy="2220" rx="36" ry="36" fill-opacity="1" stroke-opacity="1" />
                        </g>
                        <g id="b1bp6nfw" class="stem">
                           <path d="M8556 2282 L8556 1680" stroke-width="18" />
                        </g>
                     </g>
                     <g id="r1y47wy7" class="note">
                        <g class="notehead">
                           <use xlink:href="#E0A4-l19nj5e9" transform="translate(9219, 2220) scale(0.72, 0.72)" />
                        </g>
                        <g id="dxlbg6w" class="stem">
                           <path d="M9436 2192 L9436 1590" stroke-width="18" />
                           <g id="efwg9mm" class="flag">
                              <use xlink:href="#E240-l19nj5e9" transform="translate(9427, 1590) scale(0.72, 0.72)" />
                           </g>
                        </g>
                     </g>
                     <g id="u4oqxce" class="note">
                        <g class="notehead">
                           <use xlink:href="#E0A4-l19nj5e9" transform="translate(9715, 2130) scale(0.72, 0.72)" />
                        </g>
                        <g id="f1pu9rwv" class="stem">
                           <path d="M9724 2158 L9724 2730" stroke-width="18" />
                        </g>
                     </g>
                     <g id="x1oxd4nf" class="note">
                        <g class="notehead">
                           <use xlink:href="#E0A4-l19nj5e9" transform="translate(10405, 2220) scale(0.72, 0.72)" />
                        </g>
                        <g id="g1wpyvd" class="stem">
                           <path d="M10622 2192 L10622 1590" stroke-width="18" />
                        </g>
                     </g>
                  </g>
               </g>
               <g id="o1nwbnw5" class="harm">
                  <text x="8452" y="1184" text-anchor="middle" font-size="0px">
                     <tspan id="p1r78e3w" class="text">
                        <tspan font-size="405px" x="8452" y="1184">G</tspan>
                     </tspan>
                  </text>
               </g>
               <g id="sqqgytg" class="harm">
                  <text x="9828" y="1184" text-anchor="middle" font-size="0px">
                     <tspan id="tmeaduc" class="text">
                        <tspan font-size="405px" x="9828" y="1184">C</tspan>
                     </tspan>
                  </text>
               </g>
               <g id="v1bpmbr1" class="harm">
                  <text x="10518" y="1184" text-anchor="middle" font-size="0px">
                     <tspan id="w1m11mph" class="text">
                        <tspan font-size="405px" x="10518" y="1184">D</tspan>
                     </tspan>
                  </text>
               </g>
               <g id="g1ho95rp" class="barLine">
                  <path d="M11095 1770 L11095 2490" stroke-width="27" />
               </g>
            </g>
            <g id="m1c77hfv" class="measure">
               <g id="vyt4ad" class="staff">
                  <path d="M11108 1770 L12803 1770" stroke-width="13" />
                  <path d="M11108 1950 L12803 1950" stroke-width="13" />
                  <path d="M11108 2130 L12803 2130" stroke-width="13" />
                  <path d="M11108 2310 L12803 2310" stroke-width="13" />
                  <path d="M11108 2490 L12803 2490" stroke-width="13" />
                  <g id="i4s4uc4" class="layer">
                     <g id="l1wb3e2s" class="note">
                        <g class="notehead">
                           <use xlink:href="#E0A3-l19nj5e9" transform="translate(11288, 2310) scale(0.72, 0.72)" />
                        </g>
                        <g id="ipk7z6m" class="dots">
                           <ellipse cx="11604" cy="2220" rx="36" ry="36" fill-opacity="1" stroke-opacity="1" />
                        </g>
                        <g id="h1hwlyfa" class="stem">
                           <path d="M11505 2282 L11505 1680" stroke-width="18" />
                        </g>
                     </g>
                  </g>
               </g>
               <g id="jo3qcsy" class="harm">
                  <text x="11401" y="1184" text-anchor="middle" font-size="0px">
                     <tspan id="kgtp1zt" class="text">
                        <tspan font-size="405px" x="11401" y="1184">G</tspan>
                     </tspan>
                  </text>
               </g>
               <g id="u6oscn4" class="barLine">
                  <path d="M12628 1770 L12628 2490" stroke-width="27" />
                  <path d="M12758 1770 L12758 2490" stroke-width="90" />
               </g>
            </g>
            <g id="abcLine10" class="sb" />
            <g id="fqn9gl2" class="systemMilestoneEnd hmwwo00" />
         </g>
         <g id="goma0gm" class="pageMilestoneEnd spw8dyc" />
         <g id="h1a2rmes" class="pageMilestoneEnd moqsi69" />
         <g id="c1k4iy3e" class="pgHead">
            <text font-size="0px">
               <tspan id="d1blotdo" class="rend" x="10000" y="277" text-anchor="middle">
                  <tspan id="e98porn" class="text">
                     <tspan font-size="405px">Short tune</tspan>
                  </tspan>
               </tspan>
            </text>
            <text font-size="0px">
               <tspan id="fsm35er" class="rend" x="20000" y="642" text-anchor="end">
                  <tspan id="g2rcrlx" class="text">
                     <tspan font-size="405px">K. Rettinghaus</tspan>
                  </tspan>
               </tspan>
            </text>
         </g>
      </g>
   </svg>
</svg>
