<svg width="663.5px" height="122.5px" version="1.1" xmlns="http://www.w3.org/2000/svg" xmlns:xlink="http://www.w3.org/1999/xlink" xmlns:mei="http://www.music-encoding.org/ns/mei" overflow="visible">
   <desc>Engraved by Verovio 3.12.1-30d149f</desc>
   <defs>
      <symbol id="E4E4-37ycjq" viewBox="0 0 1000 1000" overflow="inherit">
         <path transform="scale(1,-1)" d="M0 10v105c0 9 1 10 10 10h280c9 0 10 -1 10 -10v-105c0 -9 -1 -10 -10 -10h-280c-9 0 -10 1 -10 10z" />
      </symbol>
      <symbol id="E4E6-37ycjq" viewBox="0 0 1000 1000" overflow="inherit">
         <path transform="scale(1,-1)" d="M0 123c7 34 33 56 69 60c29 -3 43 -9 53 -29c4 -8 7 -15 10 -22c0 -21 -1 -25 -11 -35c-5 -8 -18 -14 -40 -20l12 -3l15 -1c44 0 97 26 122 56c10 11 18 26 24 42c7 1 15 2 22 3l-140 -424h-36l111 330c-10 -6 -27 -12 -53 -16l-52 -8h-10l-20 1c-1 0 -8 3 -21 6 c-37 9 -55 28 -55 60z" />
      </symbol>
      <symbol id="E566-37ycjq" viewBox="0 0 1000 1000" overflow="inherit">
         <path transform="scale(1,-1)" d="M162 167l-36 -115l-1 -10c0 -10 5 -16 16 -19c32 18 48 43 48 75c0 20 -9 43 -27 69zM432 225c0 -21 -11 -36 -31 -37c-15 0 -20 10 -23 25l3 14l2 11l1 9l-4 4c-1 -1 -2 -1 -3 -1c-23 -13 -36 -24 -47 -48l-12 -27c-18 -50 -31 -105 -47 -157h-60l58 214c0 7 -3 5 -5 9 c-7 0 -25 -8 -51 -28l-37 -28c20 -34 31 -67 31 -97c0 -12 -1 -21 -4 -28l-6 -15c-1 -3 -5 -10 -12 -19c-14 -18 -30 -26 -49 -26c-30 0 -67 18 -67 52c1 1 1 6 3 15l20 84c-9 -5 -21 -8 -36 -8c-21 0 -29 7 -40 19c-10 12 -16 27 -16 47c0 23 6 33 17 45s25 18 46 18 c19 0 39 -8 60 -25l34 117h63l-46 -158l38 31l32 20c21 10 35 13 62 15c16 0 24 -7 24 -21l-1 -10l-6 -24c21 37 44 55 70 55c23 0 39 -23 39 -47zM18 208c0 -27 17 -47 45 -47l3 -2l13 4l23 9l14 55c-17 15 -35 22 -55 22c-26 0 -43 -17 -43 -41z" />
      </symbol>
      <symbol id="E241-37ycjq" viewBox="0 0 1000 1000" overflow="inherit">
         <path transform="scale(1,-1)" d="M179 646c-4 8 -17 30 -18 33l-4 10c0 3 2 5 5 5s7 -2 13 -7c23 -33 46 -81 66 -132c22 -57 35 -125 35 -163c0 -104 -60 -183 -122 -241c-63 -59 -57 -53 -61 -56c-38 -34 -63 -95 -71 -95h-22v190c40 7 69 11 87 16c88 27 168 95 168 200c0 30 -12 89 -30 138 c-17 47 -31 73 -46 102z" />
      </symbol>
      <symbol id="E262-37ycjq" viewBox="0 0 1000 1000" overflow="inherit">
         <path transform="scale(1,-1)" d="M136 186v169h17v-164l44 14v-91l-44 -14v-165l44 12v-91l-44 -13v-155h-17v150l-76 -22v-155h-17v149l-43 -13v90l43 14v167l-43 -14v92l43 13v169h17v-163zM60 73v-167l76 22v168z" />
      </symbol>
      <symbol id="E4C0-37ycjq" viewBox="0 0 1000 1000" overflow="inherit">
         <path transform="scale(1,-1)" d="M605 21zM0 0c0 3 3 17 4 21c58 293 250 299 295 299h5h5c42 0 236 -6 295 -299c1 -4 1 -18 1 -21h-32c-1 1 -4 22 -5 25c-10 38 -52 202 -265 202c-208 0 -252 -159 -264 -200c-1 -4 -6 -26 -6 -27h-33zM358 52c0 -30 -25 -55 -55 -55c-29 0 -54 25 -54 55 c0 29 25 54 54 54c30 0 55 -25 55 -54z" />
      </symbol>
      <symbol id="E05C-37ycjq" viewBox="0 0 1000 1000" overflow="inherit">
         <path transform="scale(1,-1)" d="M175 502h43v-456c10 5 18 12 37 29c16 19 22 27 27 38s8 24 14 49c3 22 5 43 5 62c7 -34 31 -54 73 -60c73 18 99 61 100 165c0 46 -10 78 -31 100c-18 23 -41 35 -69 35c-40 0 -65 -32 -66 -84c6 12 11 16 39 24c5 0 2 1 16 -4l17 -10l10 -14l7 -18 c-4 -32 -23 -48 -56 -48c-51 0 -77 33 -77 98c10 35 16 47 30 61c9 9 15 14 23 17c3 3 22 9 27 11l34 3l35 2c123 0 192 -64 192 -178l1 -33c0 -52 -20 -97 -60 -134c-18 -15 -42 -28 -74 -39c-30 -9 -63 -13 -101 -13l-93 -88v-34l93 -88c38 0 71 -4 101 -13 c32 -11 56 -24 74 -39c40 -37 60 -82 60 -134l-3 -33c0 -115 -68 -178 -190 -178l-35 2l-34 3c-5 2 -24 8 -27 11c-26 11 -40 32 -53 78c0 65 26 98 77 98c33 0 52 -16 56 -48l-7 -18l-10 -14l-17 -10c-14 -5 -11 -4 -16 -4c-28 8 -33 12 -39 24c1 -52 26 -84 66 -84 c28 0 51 12 69 35c21 22 31 54 31 100c-1 104 -27 147 -100 165c-42 -6 -66 -26 -73 -60c0 19 -2 40 -5 62c-6 25 -9 38 -14 49s-11 19 -27 38c-19 17 -27 24 -37 29v-456h-43v1004zM0 502h118v-1004h-118v1004z" />
      </symbol>
      <symbol id="E08B-37ycjq" viewBox="0 0 1000 1000" overflow="inherit">
         <path transform="scale(1,-1)" d="M188 200c-42 -22 -63 -69 -63 -141v-119c0 -39 7 -70 19 -94s26 -40 44 -48v402zM0 -0c0 127 80 220 186 246v72h32l-6 -72c33 0 71 0 101 -11c54 -20 102 -65 102 -135c0 -16 -4 -30 -13 -43s-20 -24 -32 -29l-20 -8l-23 -3c-22 2 -41 8 -55 21s-21 31 -26 51 c0 38 45 80 79 80c12 0 19 3 19 10c0 6 -6 12 -15 18c-19 13 -47 24 -79 24c-10 0 -20 -1 -32 -5v-431c15 -3 12 -4 30 -4c57 0 100 51 121 93l17 39c3 13 5 25 5 35h26c-6 -70 -28 -121 -66 -152s-82 -47 -133 -47v-68h-30v72c-57 10 -122 54 -153 109c-7 12 -13 26 -19 42 c-11 29 -16 61 -16 96z" />
      </symbol>
      <symbol id="E0A4-37ycjq" viewBox="0 0 1000 1000" overflow="inherit">
         <path transform="scale(1,-1)" d="M0 -39c0 68 73 172 200 172c66 0 114 -37 114 -95c0 -84 -106 -171 -218 -171c-64 0 -96 30 -96 94z" />
      </symbol>
   </defs>
   <style type="text/css">g.page-margin{font-family:Times;} g.ending, g.fing, g.reh, g.tempo{font-weight:bold;} g.dir, g.dynam, g.mNum{font-style:italic;} g.label{font-weight:normal;}</style>
   <svg class="definition-scale" color="black" viewBox="0 0 13270 2450">
      <g class="page-margin" transform="translate(500, 500)">
         <g id="ma3f0ob" class="mdiv pageMilestone" />
         <g id="s1crgkek" class="score pageMilestone" />
         <g id="s8hjtkt" class="system">
            <g id="s1na8chg" class="section systemMilestone" />
            <g id="maj27" class="measure">
               <g id="svotdr6" class="staff">
                  <path d="M0 493 L2698 493" stroke="currentColor" stroke-width="13" />
                  <path d="M0 673 L2698 673" stroke="currentColor" stroke-width="13" />
                  <path d="M0 853 L2698 853" stroke="currentColor" stroke-width="13" />
                  <path d="M0 1033 L2698 1033" stroke="currentColor" stroke-width="13" />
                  <path d="M0 1213 L2698 1213" stroke="currentColor" stroke-width="13" />
                  <g id="c1yu9luv" class="clef">
                     <use xlink:href="#E05C-37ycjq" x="90" y="673" height="720px" width="720px" />
                  </g>
                  <g id="k4z7fc0" class="keySig">
                     <g id="kc8ozjt" class="keyAccid">
                        <use xlink:href="#E262-37ycjq" x="706" y="1033" height="720px" width="720px" />
                     </g>
                     <g id="kxk66s3" class="keyAccid">
                        <use xlink:href="#E262-37ycjq" x="884" y="673" height="720px" width="720px" />
                     </g>
                  </g>
                  <g id="m9qo6c9" class="meterSig">
                     <use xlink:href="#E08B-37ycjq" x="1205" y="853" height="720px" width="720px" />
                  </g>
                  <g id="l1k29xw7" class="layer">
                     <g id="b1w1fj4l" class="beam">
                        <polygon points="1775,1438 2373,1438 2373,1348 1775,1348" />
                        <polygon points="2147,1303 2373,1303 2373,1213 2147,1213" />
                        <g id="n1wryc95" class="note">
                           <g class="notehead">
                              <use xlink:href="#E0A4-37ycjq" x="1775" y="853" height="720px" width="720px" />
                           </g>
                           <g id="div16ea" class="dots">
                              <ellipse cx="2091" cy="763" rx="36" ry="36" />
                           </g>
                           <g id="s1so4aao" class="stem">
                              <rect x="1775" y="881" height="539" width="18" />
                           </g>
                        </g>
                        <g id="n1l0qosn" class="note">
                           <g class="notehead">
                              <use xlink:href="#E0A4-37ycjq" x="2355" y="853" height="720px" width="720px" />
                           </g>
                           <g id="sl8ebre" class="stem">
                              <rect x="2355" y="881" height="539" width="18" />
                           </g>
                        </g>
                     </g>
                  </g>
               </g>
               <g id="bd8ados" class="barLine">
                  <path d="M2685 493 L2685 1213" stroke="currentColor" stroke-width="27" />
               </g>
            </g>
            <g id="mrjxj5z" class="measure">
               <g id="sfrzwqv" class="staff">
                  <path d="M2698 493 L5551 493" stroke="currentColor" stroke-width="13" />
                  <path d="M2698 673 L5551 673" stroke="currentColor" stroke-width="13" />
                  <path d="M2698 853 L5551 853" stroke="currentColor" stroke-width="13" />
                  <path d="M2698 1033 L5551 1033" stroke="currentColor" stroke-width="13" />
                  <path d="M2698 1213 L5551 1213" stroke="currentColor" stroke-width="13" />
                  <g id="l7bykuy" class="layer">
                     <g id="nm9gldr" class="note">
                        <g class="notehead">
                           <use xlink:href="#E0A4-37ycjq" x="2878" y="583" height="720px" width="720px" />
                        </g>
                        <g id="d15ick27" class="dots">
                           <ellipse cx="3194" cy="583" rx="36" ry="36" />
                        </g>
                        <g id="syx0aaf" class="stem">
                           <rect x="2878" y="611" height="602" width="18" />
                        </g>
                     </g>
                     <g id="n6lavjx" class="note">
                        <g class="notehead">
                           <use xlink:href="#E0A4-37ycjq" x="3758" y="583" height="720px" width="720px" />
                        </g>
                        <g id="s3sgcfj" class="stem">
                           <rect x="3758" y="611" height="602" width="18" />
                           <g id="f1473mmv" class="flag">
                              <use xlink:href="#E241-37ycjq" x="3758" y="1213" height="720px" width="720px" />
                           </g>
                        </g>
                     </g>
                     <g id="n1d6chli" class="note">
                        <g class="notehead">
                           <use xlink:href="#E0A4-37ycjq" x="4208" y="673" height="720px" width="720px" />
                        </g>
                        <g id="d17lwqmf" class="dots">
                           <ellipse cx="4524" cy="583" rx="36" ry="36" />
                        </g>
                        <g id="s14s302h" class="stem">
                           <rect x="4208" y="701" height="602" width="18" />
                        </g>
                        <g id="ae15r7n" class="accid" />
                     </g>
                     <g id="n10sz2ux" class="note">
                        <g class="notehead">
                           <use xlink:href="#E0A4-37ycjq" x="5088" y="583" height="720px" width="720px" />
                        </g>
                        <g id="saf794j" class="stem">
                           <rect x="5088" y="611" height="602" width="18" />
                           <g id="f1vxywd8" class="flag">
                              <use xlink:href="#E241-37ycjq" x="5088" y="1213" height="720px" width="720px" />
                           </g>
                        </g>
                     </g>
                  </g>
               </g>
               <g id="t1qdic1l" class="trill">
                  <use xlink:href="#E566-37ycjq" x="2835" y="448" height="720px" width="720px" />
               </g>
               <g id="t1bmm5zc" class="trill">
                  <use xlink:href="#E566-37ycjq" x="4165" y="448" height="720px" width="720px" />
               </g>
               <g id="bm92q1x" class="barLine">
                  <path d="M5538 493 L5538 1213" stroke="currentColor" stroke-width="27" />
               </g>
            </g>
            <g id="m1co6lqq" class="measure">
               <g id="s57lm6x" class="staff">
                  <path d="M5551 493 L8920 493" stroke="currentColor" stroke-width="13" />
                  <path d="M5551 673 L8920 673" stroke="currentColor" stroke-width="13" />
                  <path d="M5551 853 L8920 853" stroke="currentColor" stroke-width="13" />
                  <path d="M5551 1033 L8920 1033" stroke="currentColor" stroke-width="13" />
                  <path d="M5551 1213 L8920 1213" stroke="currentColor" stroke-width="13" />
                  <g id="lvtbb6w" class="layer">
                     <g id="bt8zkfl" class="beam">
                        <polygon points="5731,1078 6329,1258 6329,1168 5731,988" />
                        <polygon points="6103,1059 6329,1123 6329,1033 6103,969" />
                        <g id="n1q90xdt" class="note">
                           <g class="notehead">
                              <use xlink:href="#E0A4-37ycjq" x="5731" y="493" height="720px" width="720px" />
                           </g>
                           <g id="dijcp1a" class="dots">
                              <ellipse cx="6047" cy="403" rx="36" ry="36" />
                           </g>
                           <g id="s15ux556" class="stem">
                              <rect x="5731" y="521" height="539" width="18" />
                           </g>
                        </g>
                        <g id="n1pfycn4" class="note">
                           <g class="notehead">
                              <use xlink:href="#E0A4-37ycjq" x="6311" y="673" height="720px" width="720px" />
                           </g>
                           <g id="s1dpczse" class="stem">
                              <rect x="6311" y="701" height="539" width="18" />
                           </g>
                           <g id="a1d57h6s" class="accid" />
                        </g>
                     </g>
                     <g id="n1rjlykc" class="note">
                        <g class="notehead">
                           <use xlink:href="#E0A4-37ycjq" x="6627" y="853" height="720px" width="720px" />
                        </g>
                        <g id="sgeqd9c" class="stem">
                           <rect x="6627" y="881" height="572" width="18" />
                           <g id="f79oi54" class="flag">
                              <use xlink:href="#E241-37ycjq" x="6627" y="1453" height="720px" width="720px" />
                           </g>
                        </g>
                     </g>
                     <g id="n1mw7zrl" class="note">
                        <g class="notehead">
                           <use xlink:href="#E0A4-37ycjq" x="7077" y="493" height="720px" width="720px" />
                        </g>
                        <g id="s11w35w7" class="stem">
                           <rect x="7077" y="521" height="602" width="18" />
                           <g id="ftesczb" class="flag">
                              <use xlink:href="#E241-37ycjq" x="7077" y="1123" height="720px" width="720px" />
                           </g>
                        </g>
                     </g>
                     <g id="n61gu14" class="note">
                        <g class="notehead">
                           <use xlink:href="#E0A4-37ycjq" x="7527" y="583" height="720px" width="720px" />
                        </g>
                        <g id="s1vh3k1t" class="stem">
                           <rect x="7527" y="611" height="602" width="18" />
                        </g>
                     </g>
                     <g id="n1mxe0go" class="note">
                        <g class="notehead">
                           <use xlink:href="#E0A4-37ycjq" x="8217" y="493" height="720px" width="720px" />
                        </g>
                        <g id="s1dbnqlt" class="stem">
                           <rect x="8217" y="521" height="602" width="18" />
                        </g>
                     </g>
                  </g>
               </g>
               <g id="ftwti83" class="fermata">
                  <use xlink:href="#E4C0-37ycjq" x="6523" y="446" height="720px" width="720px" />
               </g>
               <g id="t6zhf6m" class="trill">
                  <use xlink:href="#E566-37ycjq" x="7484" y="448" height="720px" width="720px" />
               </g>
               <g id="b1bmglde" class="barLine">
                  <path d="M8907 493 L8907 1213" stroke="currentColor" stroke-width="27" />
               </g>
            </g>
            <g id="m1sx3qkk" class="measure">
               <g id="sxbw8wm" class="staff">
                  <path d="M8920 493 L12275 493" stroke="currentColor" stroke-width="13" />
                  <path d="M8920 673 L12275 673" stroke="currentColor" stroke-width="13" />
                  <path d="M8920 853 L12275 853" stroke="currentColor" stroke-width="13" />
                  <path d="M8920 1033 L12275 1033" stroke="currentColor" stroke-width="13" />
                  <path d="M8920 1213 L12275 1213" stroke="currentColor" stroke-width="13" />
                  <g class="ledgerLines above">
                     <path d="M9632 313 L9954 313" stroke="currentColor" stroke-width="22" />
                  </g>
                  <g id="l1sjdpu1" class="layer">
                     <g id="b11vd3cp" class="beam">
                        <polygon points="9100,1213 10014,1303 10014,1213 9100,1123" />
                        <polygon points="9689,1137 10014,1168 10014,1078 9689,1047" />
                        <polygon points="9689,1002 10014,1033 10014,943 9689,912" />
                        <g id="n2rv899" class="note">
                           <g class="notehead">
                              <use xlink:href="#E0A4-37ycjq" x="9100" y="403" height="720px" width="720px" />
                           </g>
                           <g id="dtf3pj7" class="dots">
                              <ellipse cx="9416" cy="403" rx="36" ry="36" />
                           </g>
                           <g id="sz0t4ct" class="stem">
                              <rect x="9100" y="431" height="764" width="18" />
                           </g>
                           <g id="akkm5ug" class="accid" />
                        </g>
                        <g id="nje7wj7" class="note">
                           <g class="notehead">
                              <use xlink:href="#E0A4-37ycjq" x="9680" y="313" height="720px" width="720px" />
                           </g>
                           <g id="s12edjsw" class="stem">
                              <rect x="9680" y="341" height="913" width="18" />
                           </g>
                        </g>
                        <g id="nc29x2n" class="note">
                           <g class="notehead">
                              <use xlink:href="#E0A4-37ycjq" x="9996" y="493" height="720px" width="720px" />
                           </g>
                           <g id="s3jqins" class="stem">
                              <rect x="9996" y="521" height="764" width="18" />
                           </g>
                        </g>
                     </g>
                     <g id="n47hp0q" class="note">
                        <g class="notehead">
                           <use xlink:href="#E0A4-37ycjq" x="10312" y="583" height="720px" width="720px" />
                        </g>
                        <g id="s1idfjel" class="stem">
                           <rect x="10312" y="611" height="602" width="18" />
                           <g id="f122cibx" class="flag">
                              <use xlink:href="#E241-37ycjq" x="10312" y="1213" height="720px" width="720px" />
                           </g>
                        </g>
                     </g>
                     <g id="r1kvldvx" class="rest">
                        <use xlink:href="#E4E6-37ycjq" x="10762" y="853" height="720px" width="720px" />
                     </g>
                     <g id="r1eutf55" class="rest">
                        <use xlink:href="#E4E4-37ycjq" x="11212" y="853" height="720px" width="720px" />
                        <g class="ledgerLines" />
                     </g>
                  </g>
               </g>
               <g id="t164j9s7" class="trill">
                  <use xlink:href="#E566-37ycjq" x="9057" y="262" height="720px" width="720px" />
               </g>
               <g id="f1bphtqe" class="fermata">
                  <use xlink:href="#E4C0-37ycjq" x="10208" y="350" height="720px" width="720px" />
               </g>
               <g id="b1jaffx2" class="barLine">
                  <path d="M12262 493 L12262 1213" stroke="currentColor" stroke-width="27" />
               </g>
            </g>
            <g id="s1diug5" class="systemMilestoneEnd s1na8chg" />
         </g>
         <g id="p5xu055" class="pageMilestoneEnd s1crgkek" />
         <g id="p1c7ux5f" class="pageMilestoneEnd ma3f0ob" />
      </g>
   </svg>
</svg>
