<svg width="450.5px" height="126.5px" version="1.1" xmlns="http://www.w3.org/2000/svg" xmlns:xlink="http://www.w3.org/1999/xlink" xmlns:mei="http://www.music-encoding.org/ns/mei" overflow="visible">
   <desc>Engraved by Verovio 3.4.1-8f65a58</desc>
   <defs>
      <symbol id="E050-0000000824938981" viewBox="0 0 1000 1000" overflow="inherit">
         <path transform="scale(1,-1)" d="M441 -245c-23 -4 -48 -6 -76 -6c-59 0 -102 7 -130 20c-88 42 -150 93 -187 154c-26 44 -43 103 -48 176c0 6 -1 13 -1 19c0 54 15 111 45 170c29 57 65 106 110 148s96 85 153 127c-3 16 -8 46 -13 92c-4 43 -5 73 -5 89c0 117 16 172 69 257c34 54 64 82 89 82 c21 0 43 -30 69 -92s39 -115 41 -159v-15c0 -109 -21 -162 -67 -241c-13 -20 -63 -90 -98 -118c-13 -9 -25 -19 -37 -29l31 -181c8 1 18 2 28 2c58 0 102 -12 133 -35c59 -43 92 -104 98 -184c1 -7 1 -15 1 -22c0 -123 -87 -209 -181 -248c8 -57 17 -110 25 -162 c5 -31 6 -58 6 -80c0 -30 -5 -53 -14 -70c-35 -64 -88 -99 -158 -103c-5 0 -11 -1 -16 -1c-37 0 -72 10 -108 27c-50 24 -77 59 -80 105v11c0 29 7 55 20 76c18 28 45 42 79 44h6c49 0 93 -42 97 -87v-9c0 -51 -34 -86 -105 -106c17 -24 51 -36 102 -36c62 0 116 43 140 85 c9 16 13 41 13 74c0 20 -1 42 -5 67c-8 53 -18 106 -26 159zM461 939c-95 0 -135 -175 -135 -286c0 -24 2 -48 5 -71c50 39 92 82 127 128c40 53 60 100 60 140v8c-4 53 -22 81 -55 81h-2zM406 119l54 -326c73 25 110 78 110 161c0 7 0 15 -1 23c-7 95 -57 142 -151 142h-12 zM382 117c-72 -2 -128 -47 -128 -120v-7c2 -46 43 -99 75 -115c-3 -2 -7 -5 -10 -10c-70 33 -116 88 -123 172v11c0 68 44 126 88 159c23 17 49 29 78 36l-29 170c-21 -13 -52 -37 -92 -73c-50 -44 -86 -84 -109 -119c-45 -69 -67 -130 -67 -182v-13c5 -68 35 -127 93 -176 s125 -73 203 -73c25 0 50 3 75 9c-19 111 -36 221 -54 331z" />
      </symbol>
      <symbol id="E062-0000000824938981" viewBox="0 0 1000 1000" overflow="inherit">
         <path transform="scale(1,-1)" d="M158 96c51 0 73 -14 88 -49l16 -39c0 -17 -2 -30 -7 -40c-3 -11 -10 -21 -19 -31c-17 -18 -49 -43 -84 -43c-55 0 -77 13 -112 44c-24 21 -35 55 -35 100c0 46 14 81 32 112c30 52 71 79 137 93l36 6l26 2c154 0 235 -68 274 -182c11 -32 18 -68 18 -107 c0 -103 -26 -182 -68 -250c-89 -145 -234 -230 -412 -288l-30 -5c-9 0 -14 3 -14 8c3 10 5 11 10 16c35 15 70 30 96 44l78 43c96 57 162 136 197 258c9 33 17 60 22 100c3 22 5 35 6 39c-7 69 -16 115 -23 140s-4 22 -16 40c-8 12 -19 23 -31 34c-24 21 -62 44 -118 44 c-48 0 -84 -8 -113 -28c-28 -19 -42 -44 -42 -73v-16c2 -5 3 -9 4 -11c24 22 52 39 84 39zM585 -118c0 32 23 58 57 58c18 0 33 -6 40 -18c9 -15 16 -18 16 -40c0 -9 -2 -16 -5 -21c-6 -19 -27 -37 -51 -37c-34 0 -57 26 -57 58zM642 177c31 0 56 -27 56 -58 c0 -30 -25 -58 -56 -58l-23 3c-19 7 -34 32 -34 55l3 23c9 20 28 35 54 35z" />
      </symbol>
      <symbol id="E08A-0000000824938981" viewBox="0 0 1000 1000" overflow="inherit">
         <path transform="scale(1,-1)" d="M340 179c-9 24 -56 41 -89 41c-46 0 -81 -28 -100 -58c-17 -28 -25 -78 -25 -150c0 -65 2 -111 8 -135c8 -31 18 -49 40 -67c20 -17 43 -25 70 -25c54 0 92 36 115 75c14 25 23 54 28 88h27c0 -63 -24 -105 -58 -141c-35 -38 -82 -56 -140 -56c-45 0 -83 13 -115 39 c-57 45 -101 130 -101 226c0 59 33 127 68 163c36 37 97 72 160 72c36 0 93 -21 121 -40c11 -8 23 -17 33 -30c19 -23 27 -48 27 -76c0 -51 -35 -88 -86 -88c-43 0 -76 27 -76 68c0 26 7 35 21 51c15 17 32 27 58 32c7 2 14 7 14 11z" />
      </symbol>
      <symbol id="E0A4-0000000824938981" viewBox="0 0 1000 1000" overflow="inherit">
         <path transform="scale(1,-1)" d="M0 -39c0 68 73 172 200 172c66 0 114 -37 114 -95c0 -84 -106 -171 -218 -171c-64 0 -96 30 -96 94z" />
      </symbol>
      <symbol id="E260-0000000824938981" viewBox="0 0 1000 1000" overflow="inherit">
         <path transform="scale(1,-1)" d="M20 110c32 16 54 27 93 27c26 0 35 -3 54 -13c13 -7 24 -20 27 -38l4 -25c0 -28 -16 -57 -45 -89c-23 -25 -39 -44 -65 -68l-88 -79v644h20v-359zM90 106c-32 0 -48 -10 -70 -29v-194c31 31 54 59 71 84c21 32 32 59 32 84c0 9 1 16 1 20c0 14 -3 21 -11 30l-8 3z" />
      </symbol>
   </defs>
   <style type="text/css">g.page-margin{font-family:Times;} g.ending, g.reh, g.tempo{font-weight:bold;} g.dir, g.dynam, g.mNum{font-style:italic;} g.label{font-weight:normal;}</style>
   <svg class="definition-scale" color="black" viewBox="0 0 9010 2530">
      <g class="page-margin" transform="translate(500, 500)">
         <g id="system-0000001025921153" class="system">
            <g id="section-0000001622650073" class="section boundaryStart" />
            <g id="measure-0000001441282327" class="measure">
               <g id="staff-0000001137522503" class="staff">
                  <path d="M0 546 L8015 546" stroke="currentColor" stroke-width="13" />
                  <path d="M0 726 L8015 726" stroke="currentColor" stroke-width="13" />
                  <path d="M0 906 L8015 906" stroke="currentColor" stroke-width="13" />
                  <path d="M0 1086 L8015 1086" stroke="currentColor" stroke-width="13" />
                  <path d="M0 1266 L8015 1266" stroke="currentColor" stroke-width="13" />
                  <g id="clef-0000001534827968" class="clef">
                     <use xlink:href="#E062-0000000824938981" x="88" y="726" height="720px" width="720px" />
                  </g>
                  <g id="keysig-0000000280090412" class="keySig">
                     <use xlink:href="#E260-0000000824938981" x="769" y="1086" height="720px" width="720px" />
                  </g>
                  <g id="msig-0000000195400260" class="meterSig">
                     <use xlink:href="#E08A-0000000824938981" x="1091" y="906" height="720px" width="720px" />
                  </g>
                  <g class="ledgerLines above">
                     <path d="M2258 366 L2541 366" stroke="currentColor" stroke-width="22" />
                     <path d="M2574 366 L2857 366" stroke="currentColor" stroke-width="22" />
                     <path d="M3939 366 L4222 366" stroke="currentColor" stroke-width="22" />
                     <path d="M4255 366 L4538 366" stroke="currentColor" stroke-width="22" />
                     <path d="M5642 366 L5925 366" stroke="currentColor" stroke-width="22" />
                     <path d="M5958 366 L6241 366" stroke="currentColor" stroke-width="22" />
                     <path d="M7323 366 L7606 366" stroke="currentColor" stroke-width="22" />
                     <path d="M7639 366 L7922 366" stroke="currentColor" stroke-width="22" />
                     <path d="M2574 186 L2857 186" stroke="currentColor" stroke-width="22" />
                     <path d="M4255 186 L4538 186" stroke="currentColor" stroke-width="22" />
                     <path d="M5958 186 L6241 186" stroke="currentColor" stroke-width="22" />
                     <path d="M7639 186 L7922 186" stroke="currentColor" stroke-width="22" />
                  </g>
                  <g id="layer-0000001131570933" class="layer">
                     <g id="beam-0000001404280278" class="beam">
                        <polygon points="1659,1401 2625,1356 2625,1266 1659,1311 " />
                        <polygon points="1659,1266 1984,1251 1984,1161 1659,1176 " />
                        <polygon points="1984,1251 2300,1236 2300,1146 1984,1161 " />
                        <polygon points="2300,1236 2625,1221 2625,1131 2300,1146 " />
                        <g id="note-0000000197493099" class="note">
                           <g class="notehead">
                              <use xlink:href="#E0A4-0000000824938981" x="1659" y="726" height="720px" width="720px" />
                           </g>
                           <g id="stem-0000000357571490" class="stem">
                              <rect x="1659" y="754" height="629" width="18" />
                           </g>
                        </g>
                        <g id="note-0000000893351816" class="note">
                           <g class="notehead">
                              <use xlink:href="#E0A4-0000000824938981" x="1975" y="546" height="720px" width="720px" />
                           </g>
                           <g id="stem-0000001044788124" class="stem">
                              <rect x="1975" y="574" height="794" width="18" />
                           </g>
                        </g>
                        <g id="note-0000001505795335" class="note">
                           <g class="notehead">
                              <use xlink:href="#E0A4-0000000824938981" x="2291" y="366" height="720px" width="720px" />
                           </g>
                           <g id="stem-0000001927702196" class="stem">
                              <rect x="2291" y="394" height="959" width="18" />
                           </g>
                        </g>
                        <g id="note-0000001954899097" class="note">
                           <g class="notehead">
                              <use xlink:href="#E0A4-0000000824938981" x="2607" y="96" height="720px" width="720px" />
                           </g>
                           <g id="stem-0000001952509530" class="stem">
                              <rect x="2607" y="124" height="1214" width="18" />
                           </g>
                        </g>
                     </g>
                     <g id="clef-0000001784484492" class="clef">
                        <use xlink:href="#E050-0000000824938981" x="2933" y="1086" height="475px" width="475px" />
                     </g>
                     <g id="beam-0000000563613512" class="beam">
                        <polygon points="3340,1491 4306,1446 4306,1356 3340,1401 " />
                        <polygon points="3340,1356 3665,1341 3665,1251 3340,1266 " />
                        <polygon points="3665,1341 3981,1326 3981,1236 3665,1251 " />
                        <polygon points="3981,1326 4306,1311 4306,1221 3981,1236 " />
                        <g id="note-0000001636807826" class="note">
                           <g class="notehead">
                              <use xlink:href="#E0A4-0000000824938981" x="3340" y="816" height="720px" width="720px" />
                           </g>
                           <g id="stem-0000000130060903" class="stem">
                              <rect x="3340" y="844" height="629" width="18" />
                           </g>
                        </g>
                        <g id="note-0000000101929267" class="note">
                           <g class="notehead">
                              <use xlink:href="#E0A4-0000000824938981" x="3656" y="636" height="720px" width="720px" />
                           </g>
                           <g id="stem-0000001942727722" class="stem">
                              <rect x="3656" y="664" height="794" width="18" />
                           </g>
                        </g>
                        <g id="note-0000001580723810" class="note">
                           <g class="notehead">
                              <use xlink:href="#E0A4-0000000824938981" x="3972" y="366" height="720px" width="720px" />
                           </g>
                           <g id="stem-0000001083454666" class="stem">
                              <rect x="3972" y="394" height="1049" width="18" />
                           </g>
                        </g>
                        <g id="note-0000000704877633" class="note">
                           <g class="notehead">
                              <use xlink:href="#E0A4-0000000824938981" x="4288" y="186" height="720px" width="720px" />
                           </g>
                           <g id="stem-0000001108728549" class="stem">
                              <rect x="4288" y="214" height="1214" width="18" />
                           </g>
                        </g>
                     </g>
                     <g id="clef-0000000074243042" class="clef">
                        <use xlink:href="#E062-0000000824938981" x="4613" y="726" height="475px" width="475px" />
                     </g>
                     <g id="beam-0000001624379149" class="beam">
                        <polygon points="5043,1401 6009,1356 6009,1266 5043,1311 " />
                        <polygon points="5043,1266 5368,1251 5368,1161 5043,1176 " />
                        <polygon points="5368,1251 5684,1236 5684,1146 5368,1161 " />
                        <polygon points="5684,1236 6009,1221 6009,1131 5684,1146 " />
                        <g id="note-0000001358580979" class="note">
                           <g class="notehead">
                              <use xlink:href="#E0A4-0000000824938981" x="5043" y="726" height="720px" width="720px" />
                           </g>
                           <g id="stem-0000000685118024" class="stem">
                              <rect x="5043" y="754" height="629" width="18" />
                           </g>
                        </g>
                        <g id="note-0000002128236579" class="note">
                           <g class="notehead">
                              <use xlink:href="#E0A4-0000000824938981" x="5359" y="456" height="720px" width="720px" />
                           </g>
                           <g id="stem-0000002118797801" class="stem">
                              <rect x="5359" y="484" height="884" width="18" />
                           </g>
                           <g id="accid-0000000784558821" class="accid" />
                        </g>
                        <g id="note-0000000530511967" class="note">
                           <g class="notehead">
                              <use xlink:href="#E0A4-0000000824938981" x="5675" y="276" height="720px" width="720px" />
                           </g>
                           <g id="stem-0000001060806853" class="stem">
                              <rect x="5675" y="304" height="1049" width="18" />
                           </g>
                        </g>
                        <g id="note-0000002110010672" class="note">
                           <g class="notehead">
                              <use xlink:href="#E0A4-0000000824938981" x="5991" y="96" height="720px" width="720px" />
                           </g>
                           <g id="stem-0000000571540977" class="stem">
                              <rect x="5991" y="124" height="1214" width="18" />
                           </g>
                        </g>
                     </g>
                     <g id="clef-0000000114807987" class="clef">
                        <use xlink:href="#E050-0000000824938981" x="6317" y="1086" height="475px" width="475px" />
                     </g>
                     <g id="beam-0000001617819336" class="beam">
                        <polygon points="6724,1401 7690,1356 7690,1266 6724,1311 " />
                        <polygon points="6724,1266 7049,1251 7049,1161 6724,1176 " />
                        <polygon points="7049,1251 7365,1236 7365,1146 7049,1161 " />
                        <polygon points="7365,1236 7690,1221 7690,1131 7365,1146 " />
                        <g id="note-0000001551901393" class="note">
                           <g class="notehead">
                              <use xlink:href="#E0A4-0000000824938981" x="6724" y="726" height="720px" width="720px" />
                           </g>
                           <g id="stem-0000000194847408" class="stem">
                              <rect x="6724" y="754" height="629" width="18" />
                           </g>
                        </g>
                        <g id="note-0000001399125485" class="note">
                           <g class="notehead">
                              <use xlink:href="#E0A4-0000000824938981" x="7040" y="546" height="720px" width="720px" />
                           </g>
                           <g id="stem-0000002035308228" class="stem">
                              <rect x="7040" y="574" height="794" width="18" />
                           </g>
                        </g>
                        <g id="note-0000000156091745" class="note">
                           <g class="notehead">
                              <use xlink:href="#E0A4-0000000824938981" x="7356" y="366" height="720px" width="720px" />
                           </g>
                           <g id="stem-0000000158374933" class="stem">
                              <rect x="7356" y="394" height="959" width="18" />
                           </g>
                        </g>
                        <g id="note-0000001356425228" class="note">
                           <g class="notehead">
                              <use xlink:href="#E0A4-0000000824938981" x="7672" y="96" height="720px" width="720px" />
                           </g>
                           <g id="stem-0000001075260298" class="stem">
                              <rect x="7672" y="124" height="1214" width="18" />
                           </g>
                        </g>
                     </g>
                  </g>
               </g>
               <g id="bline-0000001817129560" class="barLineAttr">
                  <path d="M8002 1266 L8002 546" stroke="currentColor" stroke-width="27" />
               </g>
            </g>
            <g id="bdend-0000000771515668" class="boundaryEnd section-0000001622650073" />
         </g>
      </g>
   </svg>
</svg>
