<svg width="709.5px" height="112.5px" version="1.1" xmlns="http://www.w3.org/2000/svg" xmlns:xlink="http://www.w3.org/1999/xlink" xmlns:mei="http://www.music-encoding.org/ns/mei" overflow="visible">
   <desc>Engraved by Verovio 3.12.1-30d149f</desc>
   <defs>
      <symbol id="E050-9rjdmw" viewBox="0 0 1000 1000" overflow="inherit">
         <path transform="scale(1,-1)" d="M441 -245c-23 -4 -48 -6 -76 -6c-59 0 -102 7 -130 20c-88 42 -150 93 -187 154c-26 44 -43 103 -48 176c0 6 -1 13 -1 19c0 54 15 111 45 170c29 57 65 106 110 148s96 85 153 127c-3 16 -8 46 -13 92c-4 43 -5 73 -5 89c0 117 16 172 69 257c34 54 64 82 89 82 c21 0 43 -30 69 -92s39 -115 41 -159v-15c0 -109 -21 -162 -67 -241c-13 -20 -63 -90 -98 -118c-13 -9 -25 -19 -37 -29l31 -181c8 1 18 2 28 2c58 0 102 -12 133 -35c59 -43 92 -104 98 -184c1 -7 1 -15 1 -22c0 -123 -87 -209 -181 -248c8 -57 17 -110 25 -162 c5 -31 6 -58 6 -80c0 -30 -5 -53 -14 -70c-35 -64 -88 -99 -158 -103c-5 0 -11 -1 -16 -1c-37 0 -72 10 -108 27c-50 24 -77 59 -80 105v11c0 29 7 55 20 76c18 28 45 42 79 44h6c49 0 93 -42 97 -87v-9c0 -51 -34 -86 -105 -106c17 -24 51 -36 102 -36c62 0 116 43 140 85 c9 16 13 41 13 74c0 20 -1 42 -5 67c-8 53 -18 106 -26 159zM461 939c-95 0 -135 -175 -135 -286c0 -24 2 -48 5 -71c50 39 92 82 127 128c40 53 60 100 60 140v8c-4 53 -22 81 -55 81h-2zM406 119l54 -326c73 25 110 78 110 161c0 7 0 15 -1 23c-7 95 -57 142 -151 142h-12 zM382 117c-72 -2 -128 -47 -128 -120v-7c2 -46 43 -99 75 -115c-3 -2 -7 -5 -10 -10c-70 33 -116 88 -123 172v11c0 68 44 126 88 159c23 17 49 29 78 36l-29 170c-21 -13 -52 -37 -92 -73c-50 -44 -86 -84 -109 -119c-45 -69 -67 -130 -67 -182v-13c5 -68 35 -127 93 -176 s125 -73 203 -73c25 0 50 3 75 9c-19 111 -36 221 -54 331z" />
      </symbol>
      <symbol id="E083-9rjdmw" viewBox="0 0 1000 1000" overflow="inherit">
         <path transform="scale(1,-1)" d="M208 250c97 0 177 -52 177 -116c0 -69 -40 -111 -118 -125c56 -5 125 -44 125 -116c0 -31 -10 -57 -31 -78c-19 -21 -45 -38 -78 -49l-50 -11c-15 -3 -36 -7 -55 -7c-50 0 -86 16 -113 38c-16 10 -23 18 -34 34c-7 13 -11 25 -11 38c0 43 27 83 68 83l3 -2 c61 0 75 -42 75 -70c0 -19 -24 -42 -26 -57c7 -17 20 -25 37 -25c44 0 94 29 94 78c0 75 -34 125 -138 125v36c84 0 131 22 131 98c0 54 -37 88 -87 88c-26 0 -43 -7 -51 -22c15 -22 44 -16 44 -70c0 -37 -37 -62 -71 -62c-22 0 -69 15 -69 76c0 79 101 116 178 116z" />
      </symbol>
      <symbol id="E084-9rjdmw" viewBox="0 0 1000 1000" overflow="inherit">
         <path transform="scale(1,-1)" d="M20 -78c84 97 114 180 134 329h170c-13 -32 -82 -132 -99 -151l-84 -97c-33 -36 -59 -63 -80 -81h162v102l127 123v-225h57v-39h-57v-34c0 -43 19 -65 57 -65v-34h-244v36c48 0 60 26 60 70v27h-203v39z" />
      </symbol>
      <symbol id="E0A4-9rjdmw" viewBox="0 0 1000 1000" overflow="inherit">
         <path transform="scale(1,-1)" d="M0 -39c0 68 73 172 200 172c66 0 114 -37 114 -95c0 -84 -106 -171 -218 -171c-64 0 -96 30 -96 94z" />
      </symbol>
   </defs>
   <style type="text/css">g.page-margin{font-family:Times;} g.ending, g.fing, g.reh, g.tempo{font-weight:bold;} g.dir, g.dynam, g.mNum{font-style:italic;} g.label{font-weight:normal;}</style>
   <svg class="definition-scale" color="black" viewBox="0 0 14190 2250">
      <g class="page-margin" transform="translate(500, 500)">
         <g id="m2fdoc3" class="mdiv pageMilestone" />
         <g id="s1ha7bqh" class="score pageMilestone" />
         <g id="s1diug5" class="system">
            <g id="s1y8mnf3" class="section systemMilestone" />
            <g id="maj27" class="measure">
               <g id="svtbb6w" class="staff">
                  <path d="M0 240 L5192 240" stroke="currentColor" stroke-width="13" />
                  <path d="M0 420 L5192 420" stroke="currentColor" stroke-width="13" />
                  <path d="M0 600 L5192 600" stroke="currentColor" stroke-width="13" />
                  <path d="M0 780 L5192 780" stroke="currentColor" stroke-width="13" />
                  <path d="M0 960 L5192 960" stroke="currentColor" stroke-width="13" />
                  <g id="c11fqw1c" class="clef">
                     <use xlink:href="#E050-9rjdmw" x="90" y="780" height="720px" width="720px" />
                  </g>
                  <g id="m1qxgc11" class="meterSig">
                     <use xlink:href="#E083-9rjdmw" x="817" y="420" height="720px" width="720px" />
                     <use xlink:href="#E084-9rjdmw" x="811" y="780" height="720px" width="720px" />
                  </g>
                  <g class="ledgerLines below">
                     <path d="M1975 1140 L2261 1140" stroke="currentColor" stroke-width="22" />
                     <path d="M2291 1140 L2577 1140" stroke="currentColor" stroke-width="22" />
                     <path d="M3239 1140 L3525 1140" stroke="currentColor" stroke-width="22" />
                     <path d="M3555 1140 L3841 1140" stroke="currentColor" stroke-width="22" />
                     <path d="M4169 1140 L4491 1140" stroke="currentColor" stroke-width="22" />
                     <path d="M4801 1140 L5123 1140" stroke="currentColor" stroke-width="22" />
                  </g>
                  <g id="lxbw8wm" class="layer">
                     <g id="be15r7n" class="beam">
                        <polygon points="1581,150 2547,150 2547,240 1581,240" />
                        <polygon points="1581,285 1906,285 1906,375 1581,375" />
                        <polygon points="1906,285 2222,285 2222,375 1906,375" />
                        <polygon points="2222,285 2547,285 2547,375 2222,375" />
                        <g id="n1sx3qkk" class="note">
                           <g class="notehead">
                              <use xlink:href="#E0A4-9rjdmw" x="1373" y="780" height="720px" width="720px" />
                           </g>
                           <g id="siv16ea" class="stem">
                              <rect x="1581" y="168" height="584" width="18" />
                           </g>
                        </g>
                        <g id="ntn3fmf" class="note">
                           <g class="notehead">
                              <use xlink:href="#E0A4-9rjdmw" x="1689" y="780" height="720px" width="720px" />
                           </g>
                           <g id="sl8ebre" class="stem">
                              <rect x="1897" y="168" height="584" width="18" />
                           </g>
                        </g>
                        <g id="nwh4gyf" class="note">
                           <g class="notehead">
                              <use xlink:href="#E0A4-9rjdmw" x="2005" y="1140" height="720px" width="720px" />
                           </g>
                           <g id="syx0aaf" class="stem">
                              <rect x="2213" y="168" height="944" width="18" />
                           </g>
                        </g>
                        <g id="n13oms4p" class="note">
                           <g class="notehead">
                              <use xlink:href="#E0A4-9rjdmw" x="2321" y="1140" height="720px" width="720px" />
                           </g>
                           <g id="s15ick27" class="stem">
                              <rect x="2529" y="168" height="944" width="18" />
                           </g>
                        </g>
                     </g>
                     <g id="b1d57h6s" class="beam">
                        <polygon points="2845,150 3811,150 3811,240 2845,240" />
                        <polygon points="2845,285 3170,285 3170,375 2845,375" />
                        <polygon points="3170,285 3486,285 3486,375 3170,375" />
                        <polygon points="3486,285 3811,285 3811,375 3486,375" />
                        <g id="nulcesx" class="note">
                           <g class="notehead">
                              <use xlink:href="#E0A4-9rjdmw" x="2637" y="780" height="720px" width="720px" />
                           </g>
                           <g id="s3sgcfj" class="stem">
                              <rect x="2845" y="168" height="584" width="18" />
                           </g>
                        </g>
                        <g id="n9yzgtz" class="note">
                           <g class="notehead">
                              <use xlink:href="#E0A4-9rjdmw" x="2953" y="780" height="720px" width="720px" />
                           </g>
                           <g id="s1473mmv" class="stem">
                              <rect x="3161" y="168" height="584" width="18" />
                           </g>
                        </g>
                        <g id="n1upgee6" class="note">
                           <g class="notehead">
                              <use xlink:href="#E0A4-9rjdmw" x="3269" y="1140" height="720px" width="720px" />
                           </g>
                           <g id="s14s302h" class="stem">
                              <rect x="3477" y="168" height="944" width="18" />
                           </g>
                        </g>
                        <g id="ne2kfvk" class="note">
                           <g class="notehead">
                              <use xlink:href="#E0A4-9rjdmw" x="3585" y="1140" height="720px" width="720px" />
                           </g>
                           <g id="s17lwqmf" class="stem">
                              <rect x="3793" y="168" height="944" width="18" />
                           </g>
                        </g>
                     </g>
                     <g id="bkkm5ug" class="beam">
                        <polygon points="4109,195 5075,195 5075,285 4109,285" />
                        <polygon points="4109,330 4434,330 4434,420 4109,420" />
                        <polygon points="4434,330 4750,330 4750,420 4434,420" />
                        <polygon points="4750,330 5075,330 5075,420 4750,420" />
                        <g id="n1jaffx2" class="note">
                           <g class="notehead">
                              <use xlink:href="#E0A4-9rjdmw" x="3901" y="780" height="720px" width="720px" />
                           </g>
                           <g id="saf794j" class="stem">
                              <rect x="4109" y="213" height="539" width="18" />
                           </g>
                        </g>
                        <g id="n1kvldvx" class="note">
                           <g class="notehead">
                              <use xlink:href="#E0A4-9rjdmw" x="4217" y="1140" height="720px" width="720px" />
                           </g>
                           <g id="s1vxywd8" class="stem">
                              <rect x="4425" y="213" height="899" width="18" />
                           </g>
                        </g>
                        <g id="n1eutf55" class="note">
                           <g class="notehead">
                              <use xlink:href="#E0A4-9rjdmw" x="4533" y="780" height="720px" width="720px" />
                           </g>
                           <g id="s15ux556" class="stem">
                              <rect x="4741" y="213" height="539" width="18" />
                           </g>
                        </g>
                        <g id="n1wryc95" class="note">
                           <g class="notehead">
                              <use xlink:href="#E0A4-9rjdmw" x="4849" y="1140" height="720px" width="720px" />
                           </g>
                           <g id="sijcp1a" class="stem">
                              <rect x="5057" y="213" height="899" width="18" />
                           </g>
                        </g>
                     </g>
                  </g>
               </g>
               <g id="bd8ados" class="barLine">
                  <path d="M5179 240 L5179 960" stroke="currentColor" stroke-width="27" />
               </g>
            </g>
            <g id="mrjxj5z" class="measure">
               <g id="s1sjdpu1" class="staff">
                  <path d="M5192 240 L9191 240" stroke="currentColor" stroke-width="13" />
                  <path d="M5192 420 L9191 420" stroke="currentColor" stroke-width="13" />
                  <path d="M5192 600 L9191 600" stroke="currentColor" stroke-width="13" />
                  <path d="M5192 780 L9191 780" stroke="currentColor" stroke-width="13" />
                  <path d="M5192 960 L9191 960" stroke="currentColor" stroke-width="13" />
                  <g class="ledgerLines below">
                     <path d="M5974 1140 L6260 1140" stroke="currentColor" stroke-width="22" />
                     <path d="M6290 1140 L6576 1140" stroke="currentColor" stroke-width="22" />
                     <path d="M7238 1140 L7524 1140" stroke="currentColor" stroke-width="22" />
                     <path d="M7554 1140 L7840 1140" stroke="currentColor" stroke-width="22" />
                     <path d="M8168 1140 L8490 1140" stroke="currentColor" stroke-width="22" />
                     <path d="M8800 1140 L9122 1140" stroke="currentColor" stroke-width="22" />
                  </g>
                  <g id="l6tx8lf" class="layer">
                     <g id="bmet4hd" class="beam">
                        <polygon points="5580,150 6546,150 6546,240 5580,240" />
                        <polygon points="5580,285 5905,285 5905,375 5580,375" />
                        <polygon points="5905,285 6221,285 6221,375 5905,375" />
                        <polygon points="6221,285 6546,285 6546,375 6221,375" />
                        <g id="n1l0qosn" class="note">
                           <g class="notehead">
                              <use xlink:href="#E0A4-9rjdmw" x="5372" y="780" height="720px" width="720px" />
                           </g>
                           <g id="s1dpczse" class="stem">
                              <rect x="5580" y="168" height="584" width="18" />
                           </g>
                        </g>
                        <g id="nm9gldr" class="note">
                           <g class="notehead">
                              <use xlink:href="#E0A4-9rjdmw" x="5688" y="780" height="720px" width="720px" />
                           </g>
                           <g id="sgeqd9c" class="stem">
                              <rect x="5896" y="168" height="584" width="18" />
                           </g>
                        </g>
                        <g id="n6lavjx" class="note">
                           <g class="notehead">
                              <use xlink:href="#E0A4-9rjdmw" x="6004" y="1140" height="720px" width="720px" />
                           </g>
                           <g id="s79oi54" class="stem">
                              <rect x="6212" y="168" height="944" width="18" />
                           </g>
                        </g>
                        <g id="n1d6chli" class="note">
                           <g class="notehead">
                              <use xlink:href="#E0A4-9rjdmw" x="6320" y="1140" height="720px" width="720px" />
                           </g>
                           <g id="s11w35w7" class="stem">
                              <rect x="6528" y="168" height="944" width="18" />
                           </g>
                        </g>
                     </g>
                     <g id="ba3f0ob" class="beam">
                        <polygon points="6844,150 7810,150 7810,240 6844,240" />
                        <polygon points="6844,285 7169,285 7169,375 6844,375" />
                        <polygon points="7169,285 7485,285 7485,375 7169,375" />
                        <polygon points="7485,285 7810,285 7810,375 7485,375" />
                        <g id="n10sz2ux" class="note">
                           <g class="notehead">
                              <use xlink:href="#E0A4-9rjdmw" x="6636" y="780" height="720px" width="720px" />
                           </g>
                           <g id="stesczb" class="stem">
                              <rect x="6844" y="168" height="584" width="18" />
                           </g>
                        </g>
                        <g id="n1q90xdt" class="note">
                           <g class="notehead">
                              <use xlink:href="#E0A4-9rjdmw" x="6952" y="780" height="720px" width="720px" />
                           </g>
                           <g id="s1vh3k1t" class="stem">
                              <rect x="7160" y="168" height="584" width="18" />
                           </g>
                        </g>
                        <g id="n1pfycn4" class="note">
                           <g class="notehead">
                              <use xlink:href="#E0A4-9rjdmw" x="7268" y="1140" height="720px" width="720px" />
                           </g>
                           <g id="s1dbnqlt" class="stem">
                              <rect x="7476" y="168" height="944" width="18" />
                           </g>
                        </g>
                        <g id="n1rjlykc" class="note">
                           <g class="notehead">
                              <use xlink:href="#E0A4-9rjdmw" x="7584" y="1140" height="720px" width="720px" />
                           </g>
                           <g id="sz0t4ct" class="stem">
                              <rect x="7792" y="168" height="944" width="18" />
                           </g>
                        </g>
                     </g>
                     <g id="b1crgkek" class="beam">
                        <polygon points="8108,195 9074,195 9074,285 8108,285" />
                        <polygon points="8108,330 8433,330 8433,420 8108,420" />
                        <polygon points="8433,330 8749,330 8749,420 8433,420" />
                        <polygon points="8749,330 9074,330 9074,420 8749,420" />
                        <g id="n1mw7zrl" class="note">
                           <g class="notehead">
                              <use xlink:href="#E0A4-9rjdmw" x="7900" y="780" height="720px" width="720px" />
                           </g>
                           <g id="stf3pj7" class="stem">
                              <rect x="8108" y="213" height="539" width="18" />
                           </g>
                        </g>
                        <g id="n61gu14" class="note">
                           <g class="notehead">
                              <use xlink:href="#E0A4-9rjdmw" x="8216" y="1140" height="720px" width="720px" />
                           </g>
                           <g id="s12edjsw" class="stem">
                              <rect x="8424" y="213" height="899" width="18" />
                           </g>
                        </g>
                        <g id="n1mxe0go" class="note">
                           <g class="notehead">
                              <use xlink:href="#E0A4-9rjdmw" x="8532" y="780" height="720px" width="720px" />
                           </g>
                           <g id="s3jqins" class="stem">
                              <rect x="8740" y="213" height="539" width="18" />
                           </g>
                        </g>
                        <g id="n2rv899" class="note">
                           <g class="notehead">
                              <use xlink:href="#E0A4-9rjdmw" x="8848" y="1140" height="720px" width="720px" />
                           </g>
                           <g id="s1idfjel" class="stem">
                              <rect x="9056" y="213" height="899" width="18" />
                           </g>
                        </g>
                     </g>
                  </g>
               </g>
               <g id="bm92q1x" class="barLine">
                  <path d="M9178 240 L9178 960" stroke="currentColor" stroke-width="27" />
               </g>
            </g>
            <g id="m1co6lqq" class="measure">
               <g id="skusyjr" class="staff">
                  <path d="M9191 240 L13190 240" stroke="currentColor" stroke-width="13" />
                  <path d="M9191 420 L13190 420" stroke="currentColor" stroke-width="13" />
                  <path d="M9191 600 L13190 600" stroke="currentColor" stroke-width="13" />
                  <path d="M9191 780 L13190 780" stroke="currentColor" stroke-width="13" />
                  <path d="M9191 960 L13190 960" stroke="currentColor" stroke-width="13" />
                  <g class="ledgerLines below">
                     <path d="M9973 1140 L10259 1140" stroke="currentColor" stroke-width="22" />
                     <path d="M10289 1140 L10575 1140" stroke="currentColor" stroke-width="22" />
                     <path d="M11237 1140 L11523 1140" stroke="currentColor" stroke-width="22" />
                     <path d="M11553 1140 L11839 1140" stroke="currentColor" stroke-width="22" />
                     <path d="M12167 1140 L12489 1140" stroke="currentColor" stroke-width="22" />
                     <path d="M12799 1140 L13121 1140" stroke="currentColor" stroke-width="22" />
                  </g>
                  <g id="l1s60ozi" class="layer">
                     <g id="b1jn0u8q" class="beam">
                        <polygon points="9579,150 10545,150 10545,240 9579,240" />
                        <polygon points="9579,285 9904,285 9904,375 9579,375" />
                        <polygon points="9904,285 10220,285 10220,375 9904,375" />
                        <polygon points="10220,285 10545,285 10545,375 10220,375" />
                        <g id="nje7wj7" class="note">
                           <g class="notehead">
                              <use xlink:href="#E0A4-9rjdmw" x="9371" y="780" height="720px" width="720px" />
                           </g>
                           <g id="s122cibx" class="stem">
                              <rect x="9579" y="168" height="584" width="18" />
                           </g>
                        </g>
                        <g id="nc29x2n" class="note">
                           <g class="notehead">
                              <use xlink:href="#E0A4-9rjdmw" x="9687" y="780" height="720px" width="720px" />
                           </g>
                           <g id="s37ycjq" class="stem">
                              <rect x="9895" y="168" height="584" width="18" />
                           </g>
                        </g>
                        <g id="n47hp0q" class="note">
                           <g class="notehead">
                              <use xlink:href="#E0A4-9rjdmw" x="10003" y="1140" height="720px" width="720px" />
                           </g>
                           <g id="s1b5ebec" class="stem">
                              <rect x="10211" y="168" height="944" width="18" />
                           </g>
                        </g>
                        <g id="n1qdic1l" class="note">
                           <g class="notehead">
                              <use xlink:href="#E0A4-9rjdmw" x="10319" y="1140" height="720px" width="720px" />
                           </g>
                           <g id="s9xwq8l" class="stem">
                              <rect x="10527" y="168" height="944" width="18" />
                           </g>
                        </g>
                     </g>
                     <g id="b1na8chg" class="beam">
                        <polygon points="10843,150 11809,150 11809,240 10843,240" />
                        <polygon points="10843,285 11168,285 11168,375 10843,375" />
                        <polygon points="11168,285 11484,285 11484,375 11168,375" />
                        <polygon points="11484,285 11809,285 11809,375 11484,375" />
                        <g id="n1bmm5zc" class="note">
                           <g class="notehead">
                              <use xlink:href="#E0A4-9rjdmw" x="10635" y="780" height="720px" width="720px" />
                           </g>
                           <g id="s10kmnra" class="stem">
                              <rect x="10843" y="168" height="584" width="18" />
                           </g>
                        </g>
                        <g id="n6zhf6m" class="note">
                           <g class="notehead">
                              <use xlink:href="#E0A4-9rjdmw" x="10951" y="780" height="720px" width="720px" />
                           </g>
                           <g id="s1ka9jpe" class="stem">
                              <rect x="11159" y="168" height="584" width="18" />
                           </g>
                        </g>
                        <g id="n164j9s7" class="note">
                           <g class="notehead">
                              <use xlink:href="#E0A4-9rjdmw" x="11267" y="1140" height="720px" width="720px" />
                           </g>
                           <g id="s1v3fo0c" class="stem">
                              <rect x="11475" y="168" height="944" width="18" />
                           </g>
                        </g>
                        <g id="ntwti83" class="note">
                           <g class="notehead">
                              <use xlink:href="#E0A4-9rjdmw" x="11583" y="1140" height="720px" width="720px" />
                           </g>
                           <g id="s247e8r" class="stem">
                              <rect x="11791" y="168" height="944" width="18" />
                           </g>
                        </g>
                     </g>
                     <g id="btawp5c" class="beam">
                        <polygon points="12107,195 13073,195 13073,285 12107,285" />
                        <polygon points="12107,330 12432,330 12432,420 12107,420" />
                        <polygon points="12432,330 12748,330 12748,420 12432,420" />
                        <polygon points="12748,330 13073,330 13073,420 12748,420" />
                        <g id="n1bphtqe" class="note">
                           <g class="notehead">
                              <use xlink:href="#E0A4-9rjdmw" x="11899" y="780" height="720px" width="720px" />
                           </g>
                           <g id="s15nvxxx" class="stem">
                              <rect x="12107" y="213" height="539" width="18" />
                           </g>
                        </g>
                        <g id="n1w1fj4l" class="note">
                           <g class="notehead">
                              <use xlink:href="#E0A4-9rjdmw" x="12215" y="1140" height="720px" width="720px" />
                           </g>
                           <g id="s1qq91or" class="stem">
                              <rect x="12423" y="213" height="899" width="18" />
                           </g>
                        </g>
                        <g id="nt8zkfl" class="note">
                           <g class="notehead">
                              <use xlink:href="#E0A4-9rjdmw" x="12531" y="780" height="720px" width="720px" />
                           </g>
                           <g id="s1s63m6f" class="stem">
                              <rect x="12739" y="213" height="539" width="18" />
                           </g>
                        </g>
                        <g id="n11vd3cp" class="note">
                           <g class="notehead">
                              <use xlink:href="#E0A4-9rjdmw" x="12847" y="1140" height="720px" width="720px" />
                           </g>
                           <g id="s12eutsd" class="stem">
                              <rect x="13055" y="213" height="899" width="18" />
                           </g>
                        </g>
                     </g>
                  </g>
               </g>
               <g id="b1bmglde" class="barLine">
                  <path d="M13177 240 L13177 960" stroke="currentColor" stroke-width="27" />
               </g>
            </g>
            <g id="s1t4imxy" class="systemMilestoneEnd s1y8mnf3" />
         </g>
         <g id="pf15nd4" class="pageMilestoneEnd s1ha7bqh" />
         <g id="p1so4aao" class="pageMilestoneEnd m2fdoc3" />
      </g>
   </svg>
</svg>
