<svg width="588px" height="112.5px" version="1.1" xmlns="http://www.w3.org/2000/svg" xmlns:xlink="http://www.w3.org/1999/xlink" xmlns:mei="http://www.music-encoding.org/ns/mei" overflow="visible">
   <desc>Engraved by Verovio 3.12.1-30d149f</desc>
   <defs>
      <symbol id="E4E7-1b5ebec" viewBox="0 0 1000 1000" overflow="inherit">
         <path transform="scale(1,-1)" d="M133 -111c0 -33 -21 -50 -52 -55c10 -3 18 -4 25 -4c40 0 69 24 90 47l66 197c-36 -18 -64 -25 -112 -25c-23 0 -38 3 -45 8c-37 7 -55 27 -55 59c8 35 30 54 68 58c45 -6 49 -13 64 -48c0 -3 1 -5 1 -7c0 -27 -25 -46 -52 -49c6 -4 15 -6 26 -6c32 2 62 14 88 29 c32 19 44 36 59 71l7 1l10 2h4c-72 -220 -143 -439 -215 -659h-37l108 324c-20 -13 -51 -20 -82 -20c-21 0 -35 4 -43 10c-37 6 -55 26 -55 58c8 35 31 56 68 60c43 -8 48 -13 64 -51z" />
      </symbol>
      <symbol id="E240-1b5ebec" viewBox="0 0 1000 1000" overflow="inherit">
         <path transform="scale(1,-1)" d="M179 -646c15 29 29 55 46 102c18 49 30 108 30 138c0 105 -80 173 -168 200c-18 5 -47 9 -87 16v190h22c8 0 33 -61 71 -95c4 -3 -2 3 61 -56c62 -58 122 -137 122 -241c0 -38 -13 -106 -35 -163c-20 -51 -43 -99 -66 -132c-6 -5 -10 -7 -13 -7s-5 2 -5 5l4 10 c1 3 14 25 18 33z" />
      </symbol>
      <symbol id="E243-1b5ebec" viewBox="0 0 1000 1000" overflow="inherit">
         <path transform="scale(1,-1)" d="M216 730c-5 8 -10 13 -11 16l-4 10c0 3 2 5 5 5s7 -2 13 -7c35 -42 57 -101 57 -172c0 -34 -6 -65 -17 -94c10 -31 17 -64 17 -96c0 -104 -60 -183 -122 -241c-63 -59 -57 -53 -61 -56c-38 -34 -63 -95 -71 -95h-22v190v190c40 7 69 11 87 16c116 36 175 111 175 197 c0 44 -15 91 -46 137zM248 463c-23 -48 -58 -89 -94 -122c-63 -59 -57 -53 -61 -56c-30 -27 -44 -71 -53 -88c20 3 36 6 47 9c88 27 168 95 168 200c0 19 -3 39 -7 57z" />
      </symbol>
      <symbol id="E260-1b5ebec" viewBox="0 0 1000 1000" overflow="inherit">
         <path transform="scale(1,-1)" d="M20 110c32 16 54 27 93 27c26 0 35 -3 54 -13c13 -7 24 -20 27 -38l4 -25c0 -28 -16 -57 -45 -89c-23 -25 -39 -44 -65 -68l-88 -79v644h20v-359zM90 106c-32 0 -48 -10 -70 -29v-194c31 31 54 59 71 84c21 32 32 59 32 84c0 9 1 16 1 20c0 14 -3 21 -11 30l-8 3z" />
      </symbol>
      <symbol id="E050-1b5ebec" viewBox="0 0 1000 1000" overflow="inherit">
         <path transform="scale(1,-1)" d="M441 -245c-23 -4 -48 -6 -76 -6c-59 0 -102 7 -130 20c-88 42 -150 93 -187 154c-26 44 -43 103 -48 176c0 6 -1 13 -1 19c0 54 15 111 45 170c29 57 65 106 110 148s96 85 153 127c-3 16 -8 46 -13 92c-4 43 -5 73 -5 89c0 117 16 172 69 257c34 54 64 82 89 82 c21 0 43 -30 69 -92s39 -115 41 -159v-15c0 -109 -21 -162 -67 -241c-13 -20 -63 -90 -98 -118c-13 -9 -25 -19 -37 -29l31 -181c8 1 18 2 28 2c58 0 102 -12 133 -35c59 -43 92 -104 98 -184c1 -7 1 -15 1 -22c0 -123 -87 -209 -181 -248c8 -57 17 -110 25 -162 c5 -31 6 -58 6 -80c0 -30 -5 -53 -14 -70c-35 -64 -88 -99 -158 -103c-5 0 -11 -1 -16 -1c-37 0 -72 10 -108 27c-50 24 -77 59 -80 105v11c0 29 7 55 20 76c18 28 45 42 79 44h6c49 0 93 -42 97 -87v-9c0 -51 -34 -86 -105 -106c17 -24 51 -36 102 -36c62 0 116 43 140 85 c9 16 13 41 13 74c0 20 -1 42 -5 67c-8 53 -18 106 -26 159zM461 939c-95 0 -135 -175 -135 -286c0 -24 2 -48 5 -71c50 39 92 82 127 128c40 53 60 100 60 140v8c-4 53 -22 81 -55 81h-2zM406 119l54 -326c73 25 110 78 110 161c0 7 0 15 -1 23c-7 95 -57 142 -151 142h-12 zM382 117c-72 -2 -128 -47 -128 -120v-7c2 -46 43 -99 75 -115c-3 -2 -7 -5 -10 -10c-70 33 -116 88 -123 172v11c0 68 44 126 88 159c23 17 49 29 78 36l-29 170c-21 -13 -52 -37 -92 -73c-50 -44 -86 -84 -109 -119c-45 -69 -67 -130 -67 -182v-13c5 -68 35 -127 93 -176 s125 -73 203 -73c25 0 50 3 75 9c-19 111 -36 221 -54 331z" />
      </symbol>
      <symbol id="E082-1b5ebec" viewBox="0 0 1000 1000" overflow="inherit">
         <path transform="scale(1,-1)" d="M124 -185c-18 0 -55 -14 -65 -65h-36l-3 30c0 25 6 45 18 63c11 19 22 30 39 43l121 82l37 29c15 11 27 29 38 54c12 24 18 47 18 70c0 40 -19 88 -94 88c-25 0 -32 0 -50 -8c-14 -5 -23 -12 -26 -22c3 -9 7 -15 10 -18l24 -17c12 -7 17 -11 27 -21c5 -7 7 -16 7 -27 c0 -12 0 -57 -79 -74c-30 0 -76 26 -76 94c0 66 81 135 197 135c72 0 181 -32 181 -150c0 -53 -32 -95 -113 -133l-91 -41c-26 -11 -45 -23 -57 -37l49 7c84 0 115 -41 148 -41c20 0 33 20 39 61h35c0 -152 -68 -168 -114 -168c-17 0 -65 0 -79 7h10l-28 17 c-49 37 -69 40 -87 42z" />
      </symbol>
      <symbol id="E084-1b5ebec" viewBox="0 0 1000 1000" overflow="inherit">
         <path transform="scale(1,-1)" d="M20 -78c84 97 114 180 134 329h170c-13 -32 -82 -132 -99 -151l-84 -97c-33 -36 -59 -63 -80 -81h162v102l127 123v-225h57v-39h-57v-34c0 -43 19 -65 57 -65v-34h-244v36c48 0 60 26 60 70v27h-203v39z" />
      </symbol>
      <symbol id="E0A3-1b5ebec" viewBox="0 0 1000 1000" overflow="inherit">
         <path transform="scale(1,-1)" d="M278 64c0 22 -17 39 -43 39c-12 0 -26 -3 -41 -10c-85 -43 -165 -94 -165 -156c5 -25 15 -32 49 -32c67 11 200 95 200 159zM0 -36c0 68 73 174 200 174c66 0 114 -39 114 -97c0 -84 -106 -173 -218 -173c-64 0 -96 32 -96 96z" />
      </symbol>
      <symbol id="E0A4-1b5ebec" viewBox="0 0 1000 1000" overflow="inherit">
         <path transform="scale(1,-1)" d="M0 -39c0 68 73 172 200 172c66 0 114 -37 114 -95c0 -84 -106 -171 -218 -171c-64 0 -96 30 -96 94z" />
      </symbol>
   </defs>
   <style type="text/css">g.page-margin{font-family:Times;} g.ending, g.fing, g.reh, g.tempo{font-weight:bold;} g.dir, g.dynam, g.mNum{font-style:italic;} g.label{font-weight:normal;}</style>
   <svg class="definition-scale" color="black" viewBox="0 0 11760 2250">
      <g class="page-margin" transform="translate(500, 500)">
         <g id="m1crgkek" class="mdiv pageMilestone" />
         <g id="s1jn0u8q" class="score pageMilestone" />
         <g id="s98hx0k" class="system">
            <g id="stawp5c" class="section systemMilestone" />
            <g id="maj27" class="measure">
               <g id="s1k29xw7" class="staff">
                  <path d="M0 247 L3808 247" stroke="currentColor" stroke-width="13" />
                  <path d="M0 427 L3808 427" stroke="currentColor" stroke-width="13" />
                  <path d="M0 607 L3808 607" stroke="currentColor" stroke-width="13" />
                  <path d="M0 787 L3808 787" stroke="currentColor" stroke-width="13" />
                  <path d="M0 967 L3808 967" stroke="currentColor" stroke-width="13" />
                  <g id="c4z7fc0" class="clef">
                     <use xlink:href="#E050-1b5ebec" x="90" y="787" height="720px" width="720px" />
                  </g>
                  <g id="kc8ozjt" class="keySig">
                     <g id="kxk66s3" class="keyAccid">
                        <use xlink:href="#E260-1b5ebec" x="735" y="607" height="720px" width="720px" />
                     </g>
                     <g id="k9qo6c9" class="keyAccid">
                        <use xlink:href="#E260-1b5ebec" x="915" y="337" height="720px" width="720px" />
                     </g>
                  </g>
                  <g id="m1grbzzl" class="meterSig">
                     <use xlink:href="#E082-1b5ebec" x="1223" y="427" height="720px" width="720px" />
                     <use xlink:href="#E084-1b5ebec" x="1228" y="787" height="720px" width="720px" />
                  </g>
                  <g id="lfrzwqv" class="layer">
                     <g id="b6zhf6m" class="beam">
                        <polygon points="1796,1012 2710,1192 2710,1102 1796,922" />
                        <polygon points="2159,950 2385,994 2385,904 2159,860" />
                        <g id="n1wryc95" class="note">
                           <g class="notehead">
                              <use xlink:href="#E0A4-1b5ebec" x="1796" y="247" height="720px" width="720px" />
                           </g>
                           <g id="dl8ebre" class="dots">
                              <ellipse cx="2112" cy="157" rx="36" ry="36" />
                           </g>
                           <g id="siv16ea" class="stem">
                              <rect x="1796" y="275" height="719" width="18" />
                           </g>
                        </g>
                        <g id="n1l0qosn" class="note">
                           <g class="notehead">
                              <use xlink:href="#E0A4-1b5ebec" x="2376" y="427" height="720px" width="720px" />
                           </g>
                           <g id="syx0aaf" class="stem">
                              <rect x="2376" y="455" height="656" width="18" />
                           </g>
                        </g>
                        <g id="nm9gldr" class="note">
                           <g class="notehead">
                              <use xlink:href="#E0A4-1b5ebec" x="2692" y="607" height="720px" width="720px" />
                           </g>
                           <g id="s15ick27" class="stem">
                              <rect x="2692" y="635" height="539" width="18" />
                           </g>
                           <g id="a1w1fj4l" class="accid" />
                        </g>
                     </g>
                     <g id="r1kvldvx" class="rest">
                        <use xlink:href="#E4E7-1b5ebec" x="3142" y="607" height="720px" width="720px" />
                     </g>
                     <g id="n6lavjx" class="note">
                        <g class="notehead">
                           <use xlink:href="#E0A4-1b5ebec" x="3465" y="247" height="720px" width="720px" />
                        </g>
                        <g id="s3sgcfj" class="stem">
                           <rect x="3465" y="275" height="602" width="18" />
                           <g id="f1473mmv" class="flag">
                              <use xlink:href="#E243-1b5ebec" x="3465" y="877" height="720px" width="720px" />
                           </g>
                        </g>
                     </g>
                  </g>
               </g>
               <g id="bd8ados" class="barLine">
                  <path d="M3795 247 L3795 967" stroke="currentColor" stroke-width="27" />
               </g>
            </g>
            <g id="mrjxj5z" class="measure">
               <g id="s7bykuy" class="staff">
                  <path d="M3808 247 L6000 247" stroke="currentColor" stroke-width="13" />
                  <path d="M3808 427 L6000 427" stroke="currentColor" stroke-width="13" />
                  <path d="M3808 607 L6000 607" stroke="currentColor" stroke-width="13" />
                  <path d="M3808 787 L6000 787" stroke="currentColor" stroke-width="13" />
                  <path d="M3808 967 L6000 967" stroke="currentColor" stroke-width="13" />
                  <g id="l57lm6x" class="layer">
                     <g id="b164j9s7" class="beam">
                        <polygon points="3988,967 4902,1147 4902,1057 3988,877" />
                        <polygon points="4351,905 4577,949 4577,859 4351,815" />
                        <g id="n1d6chli" class="note">
                           <g class="notehead">
                              <use xlink:href="#E0A4-1b5ebec" x="3988" y="247" height="720px" width="720px" />
                           </g>
                           <g id="d17lwqmf" class="dots">
                              <ellipse cx="4304" cy="157" rx="36" ry="36" />
                           </g>
                           <g id="s14s302h" class="stem">
                              <rect x="3988" y="275" height="674" width="18" />
                           </g>
                        </g>
                        <g id="n10sz2ux" class="note">
                           <g class="notehead">
                              <use xlink:href="#E0A4-1b5ebec" x="4568" y="337" height="720px" width="720px" />
                           </g>
                           <g id="saf794j" class="stem">
                              <rect x="4568" y="365" height="701" width="18" />
                           </g>
                           <g id="at8zkfl" class="accid" />
                        </g>
                        <g id="n1q90xdt" class="note">
                           <g class="notehead">
                              <use xlink:href="#E0A4-1b5ebec" x="4884" y="517" height="720px" width="720px" />
                           </g>
                           <g id="s1vxywd8" class="stem">
                              <rect x="4884" y="545" height="584" width="18" />
                           </g>
                        </g>
                     </g>
                     <g id="r1eutf55" class="rest">
                        <use xlink:href="#E4E7-1b5ebec" x="5334" y="607" height="720px" width="720px" />
                     </g>
                     <g id="n1pfycn4" class="note">
                        <g class="notehead">
                           <use xlink:href="#E0A4-1b5ebec" x="5657" y="337" height="720px" width="720px" />
                        </g>
                        <g id="s15ux556" class="stem">
                           <rect x="5657" y="365" height="602" width="18" />
                           <g id="fijcp1a" class="flag">
                              <use xlink:href="#E243-1b5ebec" x="5657" y="967" height="720px" width="720px" />
                           </g>
                        </g>
                        <g id="a11vd3cp" class="accid" />
                     </g>
                  </g>
               </g>
               <g id="bm92q1x" class="barLine">
                  <path d="M5987 247 L5987 967" stroke="currentColor" stroke-width="27" />
               </g>
            </g>
            <g id="m1co6lqq" class="measure">
               <g id="svtbb6w" class="staff">
                  <path d="M6000 247 L9539 247" stroke="currentColor" stroke-width="13" />
                  <path d="M6000 427 L9539 427" stroke="currentColor" stroke-width="13" />
                  <path d="M6000 607 L9539 607" stroke="currentColor" stroke-width="13" />
                  <path d="M6000 787 L9539 787" stroke="currentColor" stroke-width="13" />
                  <path d="M6000 967 L9539 967" stroke="currentColor" stroke-width="13" />
                  <g id="lxbw8wm" class="layer">
                     <g id="btwti83" class="beam">
                        <polygon points="6180,1147 6648,1192 6648,1102 6180,1057" />
                        <g id="n1rjlykc" class="note">
                           <g class="notehead">
                              <use xlink:href="#E0A4-1b5ebec" x="6180" y="427" height="720px" width="720px" />
                           </g>
                           <g id="s1dpczse" class="stem">
                              <rect x="6180" y="455" height="674" width="18" />
                           </g>
                        </g>
                        <g id="n1mw7zrl" class="note">
                           <g class="notehead">
                              <use xlink:href="#E0A4-1b5ebec" x="6630" y="517" height="720px" width="720px" />
                           </g>
                           <g id="sgeqd9c" class="stem">
                              <rect x="6630" y="545" height="629" width="18" />
                           </g>
                        </g>
                     </g>
                     <g id="b1bphtqe" class="beam">
                        <polygon points="7080,1192 9214,1012 9214,922 7080,1102" />
                        <polygon points="8889,904 9214,877 9214,787 8889,814" />
                        <g id="n61gu14" class="note">
                           <g class="notehead">
                              <use xlink:href="#E0A4-1b5ebec" x="7080" y="607" height="720px" width="720px" />
                           </g>
                           <g id="s79oi54" class="stem">
                              <rect x="7080" y="635" height="539" width="18" />
                           </g>
                           <g id="ae15r7n" class="accid" />
                        </g>
                        <g id="n1mxe0go" class="note">
                           <g class="notehead">
                              <use xlink:href="#E0A4-1b5ebec" x="7396" y="517" height="540px" width="540px" />
                           </g>
                           <g id="s11w35w7" class="stem">
                              <rect x="7547" y="90" height="406" width="18" />
                              <path d="M7489 358 L7690 157" stroke="currentColor" stroke-width="21" />
                              <g id="ftesczb" class="flag">
                                 <use xlink:href="#E240-1b5ebec" x="7547" y="90" height="540px" width="540px" />
                              </g>
                           </g>
                        </g>
                        <g id="n2rv899" class="note">
                           <g class="notehead">
                              <use xlink:href="#E0A4-1b5ebec" x="7767" y="607" height="540px" width="540px" />
                           </g>
                           <g id="s1vh3k1t" class="stem">
                              <rect x="7918" y="157" height="429" width="18" />
                              <path d="M7860 425 L8061 224" stroke="currentColor" stroke-width="21" />
                              <g id="f1dbnqlt" class="flag">
                                 <use xlink:href="#E240-1b5ebec" x="7918" y="157" height="540px" width="540px" />
                              </g>
                           </g>
                           <g id="a1d57h6s" class="accid" />
                        </g>
                        <g id="nje7wj7" class="note">
                           <g class="notehead">
                              <use xlink:href="#E0A4-1b5ebec" x="8138" y="697" height="540px" width="540px" />
                           </g>
                           <g id="sz0t4ct" class="stem">
                              <rect x="8289" y="225" height="451" width="18" />
                              <path d="M8231 493 L8432 292" stroke="currentColor" stroke-width="21" />
                              <g id="ftf3pj7" class="flag">
                                 <use xlink:href="#E240-1b5ebec" x="8289" y="225" height="540px" width="540px" />
                              </g>
                           </g>
                        </g>
                        <g id="nc29x2n" class="note">
                           <g class="notehead">
                              <use xlink:href="#E0A4-1b5ebec" x="8509" y="607" height="540px" width="540px" />
                           </g>
                           <g id="s12edjsw" class="stem">
                              <rect x="8660" y="157" height="429" width="18" />
                              <path d="M8602 425 L8803 224" stroke="currentColor" stroke-width="21" />
                              <g id="f3jqins" class="flag">
                                 <use xlink:href="#E240-1b5ebec" x="8660" y="157" height="540px" width="540px" />
                              </g>
                           </g>
                           <g id="akkm5ug" class="accid" />
                        </g>
                        <g id="n47hp0q" class="note">
                           <g class="notehead">
                              <use xlink:href="#E0A4-1b5ebec" x="8880" y="247" height="720px" width="720px" />
                           </g>
                           <g id="s1idfjel" class="stem">
                              <rect x="8880" y="275" height="746" width="18" />
                           </g>
                        </g>
                        <g id="n1qdic1l" class="note">
                           <g class="notehead">
                              <use xlink:href="#E0A4-1b5ebec" x="9196" y="337" height="720px" width="720px" />
                           </g>
                           <g id="s122cibx" class="stem">
                              <rect x="9196" y="365" height="629" width="18" />
                           </g>
                           <g id="amet4hd" class="accid" />
                        </g>
                     </g>
                  </g>
               </g>
               <g id="b1bmglde" class="barLine">
                  <path d="M9526 247 L9526 967" stroke="currentColor" stroke-width="27" />
               </g>
            </g>
            <g id="m1sx3qkk" class="measure">
               <g id="s1sjdpu1" class="staff">
                  <path d="M9539 247 L10769 247" stroke="currentColor" stroke-width="13" />
                  <path d="M9539 427 L10769 427" stroke="currentColor" stroke-width="13" />
                  <path d="M9539 607 L10769 607" stroke="currentColor" stroke-width="13" />
                  <path d="M9539 787 L10769 787" stroke="currentColor" stroke-width="13" />
                  <path d="M9539 967 L10769 967" stroke="currentColor" stroke-width="13" />
                  <g id="l6tx8lf" class="layer">
                     <g id="n1bmm5zc" class="note">
                        <g class="notehead">
                           <use xlink:href="#E0A3-1b5ebec" x="9719" y="427" height="720px" width="720px" />
                        </g>
                        <g id="s37ycjq" class="stem">
                           <rect x="9719" y="452" height="605" width="18" />
                        </g>
                     </g>
                  </g>
               </g>
               <g id="b1jaffx2" class="barLine" />
            </g>
            <g id="s5xu055" class="systemMilestoneEnd stawp5c" />
         </g>
         <g id="p1c7ux5f" class="pageMilestoneEnd s1jn0u8q" />
         <g id="p1t4imxy" class="pageMilestoneEnd m1crgkek" />
      </g>
   </svg>
</svg>
