<svg width="607px" height="141.5px" version="1.1" xmlns="http://www.w3.org/2000/svg" xmlns:xlink="http://www.w3.org/1999/xlink" xmlns:mei="http://www.music-encoding.org/ns/mei" overflow="visible">
   <desc>Engraved by Verovio 3.4.1-8f65a58</desc>
   <defs>
      <symbol id="E050-0000001049077006" viewBox="0 0 1000 1000" overflow="inherit">
         <path transform="scale(1,-1)" d="M441 -245c-23 -4 -48 -6 -76 -6c-59 0 -102 7 -130 20c-88 42 -150 93 -187 154c-26 44 -43 103 -48 176c0 6 -1 13 -1 19c0 54 15 111 45 170c29 57 65 106 110 148s96 85 153 127c-3 16 -8 46 -13 92c-4 43 -5 73 -5 89c0 117 16 172 69 257c34 54 64 82 89 82 c21 0 43 -30 69 -92s39 -115 41 -159v-15c0 -109 -21 -162 -67 -241c-13 -20 -63 -90 -98 -118c-13 -9 -25 -19 -37 -29l31 -181c8 1 18 2 28 2c58 0 102 -12 133 -35c59 -43 92 -104 98 -184c1 -7 1 -15 1 -22c0 -123 -87 -209 -181 -248c8 -57 17 -110 25 -162 c5 -31 6 -58 6 -80c0 -30 -5 -53 -14 -70c-35 -64 -88 -99 -158 -103c-5 0 -11 -1 -16 -1c-37 0 -72 10 -108 27c-50 24 -77 59 -80 105v11c0 29 7 55 20 76c18 28 45 42 79 44h6c49 0 93 -42 97 -87v-9c0 -51 -34 -86 -105 -106c17 -24 51 -36 102 -36c62 0 116 43 140 85 c9 16 13 41 13 74c0 20 -1 42 -5 67c-8 53 -18 106 -26 159zM461 939c-95 0 -135 -175 -135 -286c0 -24 2 -48 5 -71c50 39 92 82 127 128c40 53 60 100 60 140v8c-4 53 -22 81 -55 81h-2zM406 119l54 -326c73 25 110 78 110 161c0 7 0 15 -1 23c-7 95 -57 142 -151 142h-12 zM382 117c-72 -2 -128 -47 -128 -120v-7c2 -46 43 -99 75 -115c-3 -2 -7 -5 -10 -10c-70 33 -116 88 -123 172v11c0 68 44 126 88 159c23 17 49 29 78 36l-29 170c-21 -13 -52 -37 -92 -73c-50 -44 -86 -84 -109 -119c-45 -69 -67 -130 -67 -182v-13c5 -68 35 -127 93 -176 s125 -73 203 -73c25 0 50 3 75 9c-19 111 -36 221 -54 331z" />
      </symbol>
      <symbol id="E083-0000001049077006" viewBox="0 0 1000 1000" overflow="inherit">
         <path transform="scale(1,-1)" d="M188 250c97 0 177 -52 177 -116c0 -69 -40 -111 -118 -125c56 -5 125 -44 125 -116c0 -31 -10 -57 -31 -78c-19 -21 -45 -38 -78 -49l-50 -11c-15 -3 -36 -7 -55 -7c-50 0 -86 16 -113 38c-16 10 -23 18 -34 34c-7 13 -11 25 -11 38c0 43 27 83 68 83l3 -2 c61 0 75 -42 75 -70c0 -19 -24 -42 -26 -57c7 -17 20 -25 37 -25c44 0 94 29 94 78c0 75 -34 125 -138 125v36c84 0 131 22 131 98c0 54 -37 88 -87 88c-26 0 -43 -7 -51 -22c15 -22 44 -16 44 -70c0 -37 -37 -62 -71 -62c-22 0 -69 15 -69 76c0 79 101 116 178 116z" />
      </symbol>
      <symbol id="E088-0000001049077006" viewBox="0 0 1000 1000" overflow="inherit">
         <path transform="scale(1,-1)" d="M185 -214c76 0 88 58 90 68c0 34 -35 60 -57 73l-52 29c-21 10 -32 17 -34 20c-39 -33 -58 -54 -62 -92c5 -23 23 -98 115 -98zM291 135c0 61 -72 76 -113 76c-40 0 -77 -17 -77 -51c3 -21 15 -38 26 -50c17 -15 33 -26 48 -34l65 -28c34 27 51 56 51 87zM166 -250 c-57 0 -166 26 -166 132c0 47 30 86 89 116c-33 15 -79 60 -79 119c0 79 85 132 178 132h18c5 0 21 1 28 -1c25 0 126 -30 126 -110c0 -37 -23 -76 -69 -116c43 -25 83 -71 83 -119c0 -101 -118 -153 -208 -153z" />
      </symbol>
      <symbol id="E0A4-0000001049077006" viewBox="0 0 1000 1000" overflow="inherit">
         <path transform="scale(1,-1)" d="M0 -39c0 68 73 172 200 172c66 0 114 -37 114 -95c0 -84 -106 -171 -218 -171c-64 0 -96 30 -96 94z" />
      </symbol>
      <symbol id="E240-0000001049077006" viewBox="0 0 1000 1000" overflow="inherit">
         <path transform="scale(1,-1)" d="M179 -646c15 29 29 55 46 102c18 49 30 108 30 138c0 105 -80 173 -168 200c-18 5 -47 9 -87 16v190h22c8 0 33 -61 71 -95c4 -3 -2 3 61 -56c62 -58 122 -137 122 -241c0 -38 -13 -106 -35 -163c-20 -51 -43 -99 -66 -132c-6 -5 -10 -7 -13 -7s-5 2 -5 5l4 10 c1 3 14 25 18 33z" />
      </symbol>
      <symbol id="E243-0000001049077006" viewBox="0 0 1000 1000" overflow="inherit">
         <path transform="scale(1,-1)" d="M216 730c-5 8 -10 13 -11 16l-4 10c0 3 2 5 5 5s7 -2 13 -7c35 -42 57 -101 57 -172c0 -34 -6 -65 -17 -94c10 -31 17 -64 17 -96c0 -104 -60 -183 -122 -241c-63 -59 -57 -53 -61 -56c-38 -34 -63 -95 -71 -95h-22v190v190c40 7 69 11 87 16c116 36 175 111 175 197 c0 44 -15 91 -46 137zM248 463c-23 -48 -58 -89 -94 -122c-63 -59 -57 -53 -61 -56c-30 -27 -44 -71 -53 -88c20 3 36 6 47 9c88 27 168 95 168 200c0 19 -3 39 -7 57z" />
      </symbol>
      <symbol id="E262-0000001049077006" viewBox="0 0 1000 1000" overflow="inherit">
         <path transform="scale(1,-1)" d="M136 186v169h17v-164l44 14v-91l-44 -14v-165l44 12v-91l-44 -13v-155h-17v150l-76 -22v-155h-17v149l-43 -13v90l43 14v167l-43 -14v92l43 13v169h17v-163zM60 73v-167l76 22v168z" />
      </symbol>
      <symbol id="E4E6-0000001049077006" viewBox="0 0 1000 1000" overflow="inherit">
         <path transform="scale(1,-1)" d="M0 123c7 34 33 56 69 60c29 -3 43 -9 53 -29c4 -8 7 -15 10 -22c0 -21 -1 -25 -11 -35c-5 -8 -18 -14 -40 -20l12 -3l15 -1c44 0 97 26 122 56c10 11 18 26 24 42c7 1 15 2 22 3l-140 -424h-36l111 330c-10 -6 -27 -12 -53 -16l-52 -8h-10l-20 1c-1 0 -8 3 -21 6 c-37 9 -55 28 -55 60z" />
      </symbol>
      <symbol id="E4E7-0000001049077006" viewBox="0 0 1000 1000" overflow="inherit">
         <path transform="scale(1,-1)" d="M133 -111c0 -33 -21 -50 -52 -55c10 -3 18 -4 25 -4c40 0 69 24 90 47l66 197c-36 -18 -64 -25 -112 -25c-23 0 -38 3 -45 8c-37 7 -55 27 -55 59c8 35 30 54 68 58c45 -6 49 -13 64 -48c0 -3 1 -5 1 -7c0 -27 -25 -46 -52 -49c6 -4 15 -6 26 -6c32 2 62 14 88 29 c32 19 44 36 59 71l7 1l10 2h4c-72 -220 -143 -439 -215 -659h-37l108 324c-20 -13 -51 -20 -82 -20c-21 0 -35 4 -43 10c-37 6 -55 26 -55 58c8 35 31 56 68 60c43 -8 48 -13 64 -51z" />
      </symbol>
      <symbol id="E883-0000001049077006" viewBox="0 0 1000 1000" overflow="inherit">
         <path transform="scale(1,-1)" d="M161 326c52 0 94 -17 94 -68c0 -50 -40 -76 -82 -94c26 -21 39 -42 39 -64c0 -52 -56 -100 -118 -100h-12c-40 0 -82 23 -82 56c0 30 12 49 37 49c17 0 31 -16 34 -31c0 -5 -4 -12 -11 -21c-7 -5 -13 -10 -13 -21l11 -9l17 -4c21 0 40 12 56 37c13 21 19 45 19 70 c-9 30 -28 35 -66 35l6 23c34 0 60 4 77 13c20 11 30 35 30 70c0 28 -12 38 -39 40l-20 -3c-8 -3 -12 -9 -12 -16c2 -7 4 -11 5 -14l4 -11l3 -10l-3 -12c-5 -6 -11 -11 -20 -13c-2 0 -4 -1 -6 -1c-16 0 -30 13 -30 28c0 39 43 71 82 71z" />
      </symbol>
   </defs>
   <style type="text/css">g.page-margin{font-family:Times;} g.ending, g.reh, g.tempo{font-weight:bold;} g.dir, g.dynam, g.mNum{font-style:italic;} g.label{font-weight:normal;}</style>
   <svg class="definition-scale" color="black" viewBox="0 0 12140 2830">
      <g class="page-margin" transform="translate(500, 500)">
         <g id="system-0000001808266298" class="system">
            <g id="section-0000001622650073" class="section boundaryStart" />
            <g id="measure-0000000074243042" class="measure">
               <g id="staff-0000001784484492" class="staff">
                  <path d="M0 504 L2472 504" stroke="currentColor" stroke-width="13" />
                  <path d="M0 684 L2472 684" stroke="currentColor" stroke-width="13" />
                  <path d="M0 864 L2472 864" stroke="currentColor" stroke-width="13" />
                  <path d="M0 1044 L2472 1044" stroke="currentColor" stroke-width="13" />
                  <path d="M0 1224 L2472 1224" stroke="currentColor" stroke-width="13" />
                  <g id="clef-0000002043046042" class="clef">
                     <use xlink:href="#E050-0000001049077006" x="90" y="1044" height="720px" width="720px" />
                  </g>
                  <g id="keysig-0000001358796011" class="keySig">
                     <use xlink:href="#E262-0000001049077006" x="735" y="504" height="720px" width="720px" />
                     <use xlink:href="#E262-0000001049077006" x="913" y="774" height="720px" width="720px" />
                     <use xlink:href="#E262-0000001049077006" x="1091" y="414" height="720px" width="720px" />
                     <use xlink:href="#E262-0000001049077006" x="1269" y="684" height="720px" width="720px" />
                  </g>
                  <g id="msig-0000000943454679" class="meterSig">
                     <use xlink:href="#E083-0000001049077006" x="1591" y="684" height="720px" width="720px" />
                     <use xlink:href="#E088-0000001049077006" x="1590" y="1044" height="720px" width="720px" />
                  </g>
                  <g id="layer-0000001264817709" class="layer">
                     <g id="note-0000001998097157" class="note">
                        <g class="notehead">
                           <use xlink:href="#E0A4-0000001049077006" x="2129" y="864" height="720px" width="720px" />
                        </g>
                        <g id="stem-0000000280090412" class="stem">
                           <rect x="2129" y="892" height="572" width="18" />
                           <g id="flag-0000000195400260" class="flag">
                              <use xlink:href="#E243-0000001049077006" x="2129" y="1464" height="720px" width="720px" />
                           </g>
                        </g>
                     </g>
                  </g>
               </g>
               <g id="bline-0000001474833169" class="barLineAttr">
                  <path d="M2459 1224 L2459 504" stroke="currentColor" stroke-width="27" />
               </g>
            </g>
            <g id="measure-0000001131570933" class="measure">
               <g id="staff-0000001817129560" class="staff">
                  <path d="M2472 504 L5025 504" stroke="currentColor" stroke-width="13" />
                  <path d="M2472 684 L5025 684" stroke="currentColor" stroke-width="13" />
                  <path d="M2472 864 L5025 864" stroke="currentColor" stroke-width="13" />
                  <path d="M2472 1044 L5025 1044" stroke="currentColor" stroke-width="13" />
                  <path d="M2472 1224 L5025 1224" stroke="currentColor" stroke-width="13" />
                  <g id="layer-0000001580723810" class="layer">
                     <g id="beam-0000001624379149" class="beam">
                        <polygon points="2652,1494 3752,1494 3752,1404 2652,1404 " />
                        <polygon points="3111,1359 3427,1359 3427,1269 3111,1269 " />
                        <polygon points="3427,1359 3752,1359 3752,1269 3427,1269 " />
                        <g id="note-0000000704877633" class="note">
                           <g class="notehead">
                              <use xlink:href="#E0A4-0000001049077006" x="2652" y="864" height="720px" width="720px" />
                           </g>
                           <g id="stem-0000000589673557" class="stem">
                              <rect x="2652" y="892" height="584" width="18" />
                           </g>
                        </g>
                        <g id="tuplet-0000000784558821" class="tuplet">
                           <g id="num-0000000889688008" class="tupletNum">
                              <use xlink:href="#E883-0000001049077006" x="3439" y="1791" height="720px" width="720px" />
                           </g>
                           <g id="bracket-0000000006441594" class="tupletBracket">
                              <polygon points="3102,1683 3421,1683 3421,1665 3102,1665 " />
                              <polygon points="3640,1683 3960,1683 3960,1665 3640,1665 " />
                              <rect x="3102" y="1566" height="117" width="18" />
                              <rect x="3942" y="1566" height="117" width="18" />
                           </g>
                           <g id="note-0000002128236579" class="note">
                              <g class="notehead">
                                 <use xlink:href="#E0A4-0000001049077006" x="3102" y="864" height="720px" width="720px" />
                              </g>
                              <g id="stem-0000000057716395" class="stem">
                                 <rect x="3102" y="892" height="584" width="18" />
                              </g>
                           </g>
                           <g id="note-0000000530511967" class="note">
                              <g class="notehead">
                                 <use xlink:href="#E0A4-0000001049077006" x="3418" y="594" height="720px" width="720px" />
                              </g>
                              <g id="stem-0000001524325968" class="stem">
                                 <rect x="3418" y="622" height="854" width="18" />
                              </g>
                           </g>
                           <g id="note-0000002110010672" class="note">
                              <g class="notehead">
                                 <use xlink:href="#E0A4-0000001049077006" x="3734" y="864" height="720px" width="720px" />
                              </g>
                              <g id="stem-0000002014119113" class="stem">
                                 <rect x="3734" y="892" height="584" width="18" />
                              </g>
                           </g>
                        </g>
                     </g>
                     <g id="tuplet-0000001617819336" class="tuplet">
                        <g id="num-0000000515204530" class="tupletNum">
                           <use xlink:href="#E883-0000001049077006" x="4443" y="279" height="720px" width="720px" />
                        </g>
                        <g id="beam-0000001399125485" class="beam">
                           <polygon points="4258,324 4908,504 4908,594 4258,414 " />
                           <polygon points="4258,459 4583,549 4583,639 4258,549 " />
                           <polygon points="4583,549 4908,639 4908,729 4583,639 " />
                           <g id="note-0000001551901393" class="note">
                              <g class="notehead">
                                 <use xlink:href="#E0A4-0000001049077006" x="4050" y="954" height="720px" width="720px" />
                              </g>
                              <g id="stem-0000000388471006" class="stem">
                                 <rect x="4258" y="342" height="584" width="18" />
                              </g>
                           </g>
                           <g id="note-0000000156091745" class="note">
                              <g class="notehead">
                                 <use xlink:href="#E0A4-0000001049077006" x="4366" y="1134" height="720px" width="720px" />
                              </g>
                              <g id="stem-0000000681910962" class="stem">
                                 <rect x="4574" y="432" height="674" width="18" />
                              </g>
                              <g id="accid-0000001356425228" class="accid" />
                           </g>
                           <g id="note-0000001899894091" class="note">
                              <g class="notehead">
                                 <use xlink:href="#E0A4-0000001049077006" x="4682" y="1314" height="720px" width="720px" />
                              </g>
                              <g id="stem-0000001904797942" class="stem">
                                 <rect x="4890" y="522" height="764" width="18" />
                              </g>
                              <g id="accid-0000000585640194" class="accid" />
                           </g>
                        </g>
                     </g>
                  </g>
               </g>
               <g id="tie-0000001358580979" class="tie">
                  <path d="M2923,729 C2956,616 3022,616 3057,729 C3022,663 2956,663 2923,729" stroke="currentColor" stroke-linecap="round" stroke-linejoin="round" stroke-width="9" />
               </g>
               <g id="bline-0000000101929267" class="barLineAttr">
                  <path d="M5012 1224 L5012 504" stroke="currentColor" stroke-width="27" />
               </g>
            </g>
            <g id="measure-0000001646035001" class="measure">
               <g id="staff-0000000937186357" class="staff">
                  <path d="M5025 504 L6922 504" stroke="currentColor" stroke-width="13" />
                  <path d="M5025 684 L6922 684" stroke="currentColor" stroke-width="13" />
                  <path d="M5025 864 L6922 864" stroke="currentColor" stroke-width="13" />
                  <path d="M5025 1044 L6922 1044" stroke="currentColor" stroke-width="13" />
                  <path d="M5025 1224 L6922 1224" stroke="currentColor" stroke-width="13" />
                  <g class="ledgerLines below">
                     <path d="M5930 1404 L6213 1404" stroke="currentColor" stroke-width="22" />
                  </g>
                  <g id="layer-0000000130060903" class="layer">
                     <g id="beam-0000001083454666" class="beam">
                        <polygon points="5413,504 5873,324 5873,414 5413,594 " />
                        <polygon points="5413,639 5873,459 5873,549 5413,729 " />
                        <polygon points="5647,683 5873,594 5873,684 5647,773 " />
                        <g id="note-0000001942727722" class="note">
                           <g class="notehead">
                              <use xlink:href="#E0A4-0000001049077006" x="5205" y="1224" height="720px" width="720px" />
                           </g>
                           <g id="dots-0000000322842082" class="dots">
                              <ellipse cx="5521" cy="1134" rx="36" ry="36" />
                           </g>
                           <g id="stem-0000001400285365" class="stem">
                              <rect x="5413" y="522" height="674" width="18" />
                           </g>
                        </g>
                        <g id="note-0000001108728549" class="note">
                           <g class="notehead">
                              <use xlink:href="#E0A4-0000001049077006" x="5647" y="1044" height="720px" width="720px" />
                           </g>
                           <g id="stem-0000001463179852" class="stem">
                              <rect x="5855" y="342" height="674" width="18" />
                           </g>
                           <g id="accid-0000000685118024" class="accid" />
                        </g>
                     </g>
                     <g id="note-0000002118797801" class="note">
                        <g class="notehead">
                           <use xlink:href="#E0A4-0000001049077006" x="5963" y="1494" height="720px" width="720px" />
                        </g>
                        <g id="stem-0000000828530767" class="stem">
                           <rect x="6171" y="864" height="602" width="18" />
                           <g id="flag-0000000832633821" class="flag">
                              <use xlink:href="#E240-0000001049077006" x="6171" y="864" height="720px" width="720px" />
                           </g>
                        </g>
                     </g>
                     <g id="rest-0000001060806853" class="rest">
                        <use xlink:href="#E4E6-0000001049077006" x="6459" y="864" height="720px" width="720px" />
                     </g>
                  </g>
               </g>
               <g id="bline-0000001952509530" class="barLineAttr">
                  <path d="M6909 1224 L6909 504" stroke="currentColor" stroke-width="27" />
               </g>
            </g>
            <g id="measure-0000000194847408" class="measure">
               <g id="staff-0000000571540977" class="staff">
                  <path d="M6922 504 L9973 504" stroke="currentColor" stroke-width="13" />
                  <path d="M6922 684 L9973 684" stroke="currentColor" stroke-width="13" />
                  <path d="M6922 864 L9973 864" stroke="currentColor" stroke-width="13" />
                  <path d="M6922 1044 L9973 1044" stroke="currentColor" stroke-width="13" />
                  <path d="M6922 1224 L9973 1224" stroke="currentColor" stroke-width="13" />
                  <g id="layer-0000002020739063" class="layer">
                     <g id="tuplet-0000001635339425" class="tuplet">
                        <g id="num-0000001073185695" class="tupletNum">
                           <use xlink:href="#E883-0000001049077006" x="7495" y="351" height="720px" width="720px" />
                        </g>
                        <g id="beam-0000001654001669" class="beam">
                           <polygon points="7310,414 7960,414 7960,504 7310,504 " />
                           <polygon points="7310,549 7635,549 7635,639 7310,639 " />
                           <polygon points="7635,549 7960,549 7960,639 7635,639 " />
                           <g id="note-0000000107554536" class="note">
                              <g class="notehead">
                                 <use xlink:href="#E0A4-0000001049077006" x="7102" y="1224" height="720px" width="720px" />
                              </g>
                              <g id="stem-0000000316824712" class="stem">
                                 <rect x="7310" y="432" height="764" width="18" />
                              </g>
                           </g>
                           <g id="note-0000001777724115" class="note">
                              <g class="notehead">
                                 <use xlink:href="#E0A4-0000001049077006" x="7418" y="1044" height="720px" width="720px" />
                              </g>
                              <g id="stem-0000001260973671" class="stem">
                                 <rect x="7626" y="432" height="584" width="18" />
                              </g>
                              <g id="accid-0000000269220094" class="accid" />
                           </g>
                           <g id="note-0000000034075629" class="note">
                              <g class="notehead">
                                 <use xlink:href="#E0A4-0000001049077006" x="7734" y="1134" height="720px" width="720px" />
                              </g>
                              <g id="stem-0000001815859901" class="stem">
                                 <rect x="7942" y="432" height="674" width="18" />
                              </g>
                              <g id="accid-0000001478446501" class="accid" />
                           </g>
                        </g>
                     </g>
                     <g id="tuplet-0000001581030105" class="tuplet">
                        <g id="num-0000001267248590" class="tupletNum">
                           <use xlink:href="#E883-0000001049077006" x="8443" y="261" height="720px" width="720px" />
                        </g>
                        <g id="beam-0000001557810404" class="beam">
                           <polygon points="8258,324 8908,324 8908,414 8258,414 " />
                           <polygon points="8258,459 8583,459 8583,549 8258,549 " />
                           <polygon points="8583,459 8908,459 8908,549 8583,549 " />
                           <g id="note-0000001864546517" class="note">
                              <g class="notehead">
                                 <use xlink:href="#E0A4-0000001049077006" x="8050" y="1134" height="720px" width="720px" />
                              </g>
                              <g id="stem-0000002051724831" class="stem">
                                 <rect x="8258" y="342" height="764" width="18" />
                              </g>
                              <g id="accid-0000001351934195" class="accid" />
                           </g>
                           <g id="note-0000002146319451" class="note">
                              <g class="notehead">
                                 <use xlink:href="#E0A4-0000001049077006" x="8366" y="954" height="720px" width="720px" />
                              </g>
                              <g id="stem-0000001194314738" class="stem">
                                 <rect x="8574" y="342" height="584" width="18" />
                              </g>
                           </g>
                           <g id="note-0000001908194298" class="note">
                              <g class="notehead">
                                 <use xlink:href="#E0A4-0000001049077006" x="8682" y="1044" height="720px" width="720px" />
                              </g>
                              <g id="stem-0000000318153057" class="stem">
                                 <rect x="8890" y="342" height="674" width="18" />
                              </g>
                              <g id="accid-0000000500782188" class="accid" />
                           </g>
                        </g>
                     </g>
                     <g id="tuplet-0000001102246882" class="tuplet">
                        <g id="num-0000002111631616" class="tupletNum">
                           <use xlink:href="#E883-0000001049077006" x="9391" y="234" height="720px" width="720px" />
                        </g>
                        <g id="beam-0000001269406752" class="beam">
                           <polygon points="9206,459 9856,279 9856,369 9206,549 " />
                           <polygon points="9206,594 9531,504 9531,594 9206,684 " />
                           <polygon points="9531,504 9856,414 9856,504 9531,594 " />
                           <g id="note-0000000657821123" class="note">
                              <g class="notehead">
                                 <use xlink:href="#E0A4-0000001049077006" x="8998" y="1044" height="720px" width="720px" />
                              </g>
                              <g id="stem-0000000877819790" class="stem">
                                 <rect x="9206" y="477" height="539" width="18" />
                              </g>
                              <g id="accid-0000000753799505" class="accid" />
                           </g>
                           <g id="note-0000001816731566" class="note">
                              <g class="notehead">
                                 <use xlink:href="#E0A4-0000001049077006" x="9314" y="1224" height="720px" width="720px" />
                              </g>
                              <g id="stem-0000000304555640" class="stem">
                                 <rect x="9522" y="387" height="809" width="18" />
                              </g>
                           </g>
                           <g id="note-0000000884936716" class="note">
                              <g class="notehead">
                                 <use xlink:href="#E0A4-0000001049077006" x="9630" y="864" height="720px" width="720px" />
                              </g>
                              <g id="stem-0000001213110679" class="stem">
                                 <rect x="9838" y="297" height="539" width="18" />
                              </g>
                           </g>
                        </g>
                     </g>
                  </g>
               </g>
               <g id="bline-0000000997389814" class="barLineAttr">
                  <path d="M9960 1224 L9960 504" stroke="currentColor" stroke-width="27" />
               </g>
            </g>
            <g id="measure-0000000578354438" class="measure">
               <g id="staff-0000001807130337" class="staff">
                  <path d="M9973 504 L11143 504" stroke="currentColor" stroke-width="13" />
                  <path d="M9973 684 L11143 684" stroke="currentColor" stroke-width="13" />
                  <path d="M9973 864 L11143 864" stroke="currentColor" stroke-width="13" />
                  <path d="M9973 1044 L11143 1044" stroke="currentColor" stroke-width="13" />
                  <path d="M9973 1224 L11143 1224" stroke="currentColor" stroke-width="13" />
                  <g id="layer-0000000070982397" class="layer">
                     <g id="note-0000001147722294" class="note">
                        <g class="notehead">
                           <use xlink:href="#E0A4-0000001049077006" x="10153" y="1134" height="720px" width="720px" />
                        </g>
                        <g id="stem-0000000541437335" class="stem">
                           <rect x="10361" y="504" height="602" width="18" />
                        </g>
                        <g id="accid-0000001070477904" class="accid" />
                     </g>
                     <g id="rest-0000002051621609" class="rest">
                        <use xlink:href="#E4E7-0000001049077006" x="10843" y="864" height="720px" width="720px" />
                     </g>
                  </g>
               </g>
               <g id="bline-0000001723153177" class="barLineAttr" />
            </g>
            <g id="bdend-0000001534827968" class="boundaryEnd section-0000001622650073" />
         </g>
      </g>
   </svg>
</svg>
