<svg width="688px" height="128.5px" version="1.1" xmlns="http://www.w3.org/2000/svg" xmlns:xlink="http://www.w3.org/1999/xlink" xmlns:mei="http://www.music-encoding.org/ns/mei" overflow="visible">
   <desc>Engraved by Verovio 3.4.1-8f65a58</desc>
   <defs>
      <symbol id="E050-0000001724586126" viewBox="0 0 1000 1000" overflow="inherit">
         <path transform="scale(1,-1)" d="M441 -245c-23 -4 -48 -6 -76 -6c-59 0 -102 7 -130 20c-88 42 -150 93 -187 154c-26 44 -43 103 -48 176c0 6 -1 13 -1 19c0 54 15 111 45 170c29 57 65 106 110 148s96 85 153 127c-3 16 -8 46 -13 92c-4 43 -5 73 -5 89c0 117 16 172 69 257c34 54 64 82 89 82 c21 0 43 -30 69 -92s39 -115 41 -159v-15c0 -109 -21 -162 -67 -241c-13 -20 -63 -90 -98 -118c-13 -9 -25 -19 -37 -29l31 -181c8 1 18 2 28 2c58 0 102 -12 133 -35c59 -43 92 -104 98 -184c1 -7 1 -15 1 -22c0 -123 -87 -209 -181 -248c8 -57 17 -110 25 -162 c5 -31 6 -58 6 -80c0 -30 -5 -53 -14 -70c-35 -64 -88 -99 -158 -103c-5 0 -11 -1 -16 -1c-37 0 -72 10 -108 27c-50 24 -77 59 -80 105v11c0 29 7 55 20 76c18 28 45 42 79 44h6c49 0 93 -42 97 -87v-9c0 -51 -34 -86 -105 -106c17 -24 51 -36 102 -36c62 0 116 43 140 85 c9 16 13 41 13 74c0 20 -1 42 -5 67c-8 53 -18 106 -26 159zM461 939c-95 0 -135 -175 -135 -286c0 -24 2 -48 5 -71c50 39 92 82 127 128c40 53 60 100 60 140v8c-4 53 -22 81 -55 81h-2zM406 119l54 -326c73 25 110 78 110 161c0 7 0 15 -1 23c-7 95 -57 142 -151 142h-12 zM382 117c-72 -2 -128 -47 -128 -120v-7c2 -46 43 -99 75 -115c-3 -2 -7 -5 -10 -10c-70 33 -116 88 -123 172v11c0 68 44 126 88 159c23 17 49 29 78 36l-29 170c-21 -13 -52 -37 -92 -73c-50 -44 -86 -84 -109 -119c-45 -69 -67 -130 -67 -182v-13c5 -68 35 -127 93 -176 s125 -73 203 -73c25 0 50 3 75 9c-19 111 -36 221 -54 331z" />
      </symbol>
      <symbol id="E083-0000001724586126" viewBox="0 0 1000 1000" overflow="inherit">
         <path transform="scale(1,-1)" d="M188 250c97 0 177 -52 177 -116c0 -69 -40 -111 -118 -125c56 -5 125 -44 125 -116c0 -31 -10 -57 -31 -78c-19 -21 -45 -38 -78 -49l-50 -11c-15 -3 -36 -7 -55 -7c-50 0 -86 16 -113 38c-16 10 -23 18 -34 34c-7 13 -11 25 -11 38c0 43 27 83 68 83l3 -2 c61 0 75 -42 75 -70c0 -19 -24 -42 -26 -57c7 -17 20 -25 37 -25c44 0 94 29 94 78c0 75 -34 125 -138 125v36c84 0 131 22 131 98c0 54 -37 88 -87 88c-26 0 -43 -7 -51 -22c15 -22 44 -16 44 -70c0 -37 -37 -62 -71 -62c-22 0 -69 15 -69 76c0 79 101 116 178 116z" />
      </symbol>
      <symbol id="E088-0000001724586126" viewBox="0 0 1000 1000" overflow="inherit">
         <path transform="scale(1,-1)" d="M185 -214c76 0 88 58 90 68c0 34 -35 60 -57 73l-52 29c-21 10 -32 17 -34 20c-39 -33 -58 -54 -62 -92c5 -23 23 -98 115 -98zM291 135c0 61 -72 76 -113 76c-40 0 -77 -17 -77 -51c3 -21 15 -38 26 -50c17 -15 33 -26 48 -34l65 -28c34 27 51 56 51 87zM166 -250 c-57 0 -166 26 -166 132c0 47 30 86 89 116c-33 15 -79 60 -79 119c0 79 85 132 178 132h18c5 0 21 1 28 -1c25 0 126 -30 126 -110c0 -37 -23 -76 -69 -116c43 -25 83 -71 83 -119c0 -101 -118 -153 -208 -153z" />
      </symbol>
      <symbol id="E0A4-0000001724586126" viewBox="0 0 1000 1000" overflow="inherit">
         <path transform="scale(1,-1)" d="M0 -39c0 68 73 172 200 172c66 0 114 -37 114 -95c0 -84 -106 -171 -218 -171c-64 0 -96 30 -96 94z" />
      </symbol>
      <symbol id="E262-0000001724586126" viewBox="0 0 1000 1000" overflow="inherit">
         <path transform="scale(1,-1)" d="M136 186v169h17v-164l44 14v-91l-44 -14v-165l44 12v-91l-44 -13v-155h-17v150l-76 -22v-155h-17v149l-43 -13v90l43 14v167l-43 -14v92l43 13v169h17v-163zM60 73v-167l76 22v168z" />
      </symbol>
      <symbol id="E4E6-0000001724586126" viewBox="0 0 1000 1000" overflow="inherit">
         <path transform="scale(1,-1)" d="M0 123c7 34 33 56 69 60c29 -3 43 -9 53 -29c4 -8 7 -15 10 -22c0 -21 -1 -25 -11 -35c-5 -8 -18 -14 -40 -20l12 -3l15 -1c44 0 97 26 122 56c10 11 18 26 24 42c7 1 15 2 22 3l-140 -424h-36l111 330c-10 -6 -27 -12 -53 -16l-52 -8h-10l-20 1c-1 0 -8 3 -21 6 c-37 9 -55 28 -55 60z" />
      </symbol>
   </defs>
   <style type="text/css">g.page-margin{font-family:Times;} g.ending, g.reh, g.tempo{font-weight:bold;} g.dir, g.dynam, g.mNum{font-style:italic;} g.label{font-weight:normal;}</style>
   <svg class="definition-scale" color="black" viewBox="0 0 13760 2570">
      <g class="page-margin" transform="translate(500, 500)">
         <g id="system-0000000832633821" class="system">
            <g id="section-0000001622650073" class="section boundaryStart" />
            <g id="measure-0000000074243042" class="measure">
               <g id="staff-0000001784484492" class="staff">
                  <path d="M0 490 L3314 490" stroke="currentColor" stroke-width="13" />
                  <path d="M0 670 L3314 670" stroke="currentColor" stroke-width="13" />
                  <path d="M0 850 L3314 850" stroke="currentColor" stroke-width="13" />
                  <path d="M0 1030 L3314 1030" stroke="currentColor" stroke-width="13" />
                  <path d="M0 1210 L3314 1210" stroke="currentColor" stroke-width="13" />
                  <g id="clef-0000001154112991" class="clef">
                     <use xlink:href="#E050-0000001724586126" x="90" y="1030" height="720px" width="720px" />
                  </g>
                  <g id="keysig-0000001104740033" class="keySig">
                     <use xlink:href="#E262-0000001724586126" x="735" y="490" height="720px" width="720px" />
                     <use xlink:href="#E262-0000001724586126" x="913" y="760" height="720px" width="720px" />
                     <use xlink:href="#E262-0000001724586126" x="1091" y="400" height="720px" width="720px" />
                  </g>
                  <g id="msig-0000000222122669" class="meterSig">
                     <use xlink:href="#E083-0000001724586126" x="1413" y="670" height="720px" width="720px" />
                     <use xlink:href="#E088-0000001724586126" x="1412" y="1030" height="720px" width="720px" />
                  </g>
                  <g id="layer-0000001264817709" class="layer">
                     <g id="rest-0000001998097157" class="rest">
                        <use xlink:href="#E4E6-0000001724586126" x="1951" y="850" height="720px" width="720px" />
                     </g>
                     <g id="beam-0000000197493099" class="beam">
                        <polygon points="2401,1435 2869,1390 2869,1300 2401,1345 " />
                        <g id="note-0000001817129560" class="note">
                           <g class="notehead">
                              <use xlink:href="#E0A4-0000001724586126" x="2401" y="760" height="720px" width="720px" />
                           </g>
                           <g id="stem-0000001815859901" class="stem">
                              <rect x="2401" y="788" height="629" width="18" />
                           </g>
                           <g id="accid-0000001131570933" class="accid" />
                        </g>
                        <g id="note-0000001404280278" class="note">
                           <g class="notehead">
                              <use xlink:href="#E0A4-0000001724586126" x="2851" y="670" height="720px" width="720px" />
                           </g>
                           <g id="stem-0000001267248590" class="stem">
                              <rect x="2851" y="698" height="674" width="18" />
                           </g>
                        </g>
                     </g>
                  </g>
               </g>
               <g id="tie-0000000893351816" class="tie">
                  <path d="M3122,535 C3203,422 3365,422 3449,535 C3365,469 3203,469 3122,535" stroke="currentColor" stroke-linecap="round" stroke-linejoin="round" stroke-width="9" />
               </g>
               <g id="bline-0000001474833169" class="barLineAttr">
                  <path d="M3301 1210 L3301 490" stroke="currentColor" stroke-width="27" />
               </g>
            </g>
            <g id="measure-0000001954899097" class="measure">
               <g id="staff-0000001505795335" class="staff">
                  <path d="M3314 490 L4857 490" stroke="currentColor" stroke-width="13" />
                  <path d="M3314 670 L4857 670" stroke="currentColor" stroke-width="13" />
                  <path d="M3314 850 L4857 850" stroke="currentColor" stroke-width="13" />
                  <path d="M3314 1030 L4857 1030" stroke="currentColor" stroke-width="13" />
                  <path d="M3314 1210 L4857 1210" stroke="currentColor" stroke-width="13" />
                  <g id="layer-0000000784558821" class="layer">
                     <g id="beam-0000002110010672" class="beam">
                        <polygon points="3494,1300 4412,1480 4412,1390 3494,1210 " />
                        <g id="note-0000000530511967" class="note">
                           <g class="notehead">
                              <use xlink:href="#E0A4-0000001724586126" x="3494" y="670" height="720px" width="720px" />
                           </g>
                           <g id="stem-0000002051724831" class="stem">
                              <rect x="3494" y="698" height="584" width="18" />
                           </g>
                        </g>
                        <g id="note-0000001551901393" class="note">
                           <g class="notehead">
                              <use xlink:href="#E0A4-0000001724586126" x="3944" y="760" height="720px" width="720px" />
                           </g>
                           <g id="stem-0000001194314738" class="stem">
                              <rect x="3944" y="788" height="584" width="18" />
                           </g>
                           <g id="accid-0000001617819336" class="accid" />
                        </g>
                        <g id="note-0000001399125485" class="note">
                           <g class="notehead">
                              <use xlink:href="#E0A4-0000001724586126" x="4394" y="850" height="720px" width="720px" />
                           </g>
                           <g id="stem-0000000318153057" class="stem">
                              <rect x="4394" y="878" height="584" width="18" />
                           </g>
                        </g>
                     </g>
                  </g>
               </g>
               <g id="bline-0000002128236579" class="barLineAttr">
                  <path d="M4844 1210 L4844 490" stroke="currentColor" stroke-width="27" />
               </g>
            </g>
            <g id="measure-0000001356425228" class="measure">
               <g id="staff-0000000156091745" class="staff">
                  <path d="M4857 490 L6595 490" stroke="currentColor" stroke-width="13" />
                  <path d="M4857 670 L6595 670" stroke="currentColor" stroke-width="13" />
                  <path d="M4857 850 L6595 850" stroke="currentColor" stroke-width="13" />
                  <path d="M4857 1030 L6595 1030" stroke="currentColor" stroke-width="13" />
                  <path d="M4857 1210 L6595 1210" stroke="currentColor" stroke-width="13" />
                  <g id="layer-0000000357571490" class="layer">
                     <g id="beam-0000001952509530" class="beam">
                        <polygon points="5232,1525 6150,1345 6150,1255 5232,1435 " />
                        <g id="note-0000001044788124" class="note">
                           <g class="notehead">
                              <use xlink:href="#E0A4-0000001724586126" x="5232" y="940" height="720px" width="720px" />
                           </g>
                           <g id="stem-0000002111631616" class="stem">
                              <rect x="5232" y="968" height="539" width="18" />
                           </g>
                           <g id="accid-0000001927702196" class="accid">
                              <use xlink:href="#E262-0000001724586126" x="5037" y="940" height="720px" width="720px" />
                           </g>
                        </g>
                        <g id="note-0000000130060903" class="note">
                           <g class="notehead">
                              <use xlink:href="#E0A4-0000001724586126" x="5682" y="850" height="720px" width="720px" />
                           </g>
                           <g id="stem-0000000877819790" class="stem">
                              <rect x="5682" y="878" height="539" width="18" />
                           </g>
                        </g>
                        <g id="note-0000001942727722" class="note">
                           <g class="notehead">
                              <use xlink:href="#E0A4-0000001724586126" x="6132" y="490" height="720px" width="720px" />
                           </g>
                           <g id="stem-0000000304555640" class="stem">
                              <rect x="6132" y="518" height="809" width="18" />
                           </g>
                           <g id="accid-0000001083454666" class="accid" />
                        </g>
                     </g>
                  </g>
               </g>
               <g id="tie-0000001108728549" class="tie">
                  <path d="M6403,355 C6484,242 6646,242 6730,355 C6646,289 6484,289 6403,355" stroke="currentColor" stroke-linecap="round" stroke-linejoin="round" stroke-width="9" />
               </g>
               <g id="bline-0000000771515668" class="barLineAttr">
                  <path d="M6582 1210 L6582 490" stroke="currentColor" stroke-width="27" />
               </g>
            </g>
            <g id="measure-0000002118797801" class="measure">
               <g id="staff-0000000685118024" class="staff">
                  <path d="M6595 490 L8138 490" stroke="currentColor" stroke-width="13" />
                  <path d="M6595 670 L8138 670" stroke="currentColor" stroke-width="13" />
                  <path d="M6595 850 L8138 850" stroke="currentColor" stroke-width="13" />
                  <path d="M6595 1030 L8138 1030" stroke="currentColor" stroke-width="13" />
                  <path d="M6595 1210 L8138 1210" stroke="currentColor" stroke-width="13" />
                  <g id="layer-0000001962408013" class="layer">
                     <g id="beam-0000002020739063" class="beam">
                        <polygon points="6775,1120 7693,1300 7693,1210 6775,1030 " />
                        <g id="note-0000001137623865" class="note">
                           <g class="notehead">
                              <use xlink:href="#E0A4-0000001724586126" x="6775" y="490" height="720px" width="720px" />
                           </g>
                           <g id="stem-0000001213110679" class="stem">
                              <rect x="6775" y="518" height="584" width="18" />
                           </g>
                           <g id="accid-0000000997389814" class="accid" />
                        </g>
                        <g id="note-0000000107554536" class="note">
                           <g class="notehead">
                              <use xlink:href="#E0A4-0000001724586126" x="7225" y="580" height="720px" width="720px" />
                           </g>
                           <g id="stem-0000000541437335" class="stem">
                              <rect x="7225" y="608" height="584" width="18" />
                           </g>
                        </g>
                        <g id="note-0000001635339425" class="note">
                           <g class="notehead">
                              <use xlink:href="#E0A4-0000001724586126" x="7675" y="670" height="720px" width="720px" />
                           </g>
                           <g id="stem-0000001049077006" class="stem">
                              <rect x="7675" y="698" height="584" width="18" />
                           </g>
                        </g>
                     </g>
                  </g>
               </g>
               <g id="bline-0000000595028635" class="barLineAttr">
                  <path d="M8125 1210 L8125 490" stroke="currentColor" stroke-width="27" />
               </g>
            </g>
            <g id="measure-0000001777724115" class="measure">
               <g id="staff-0000001654001669" class="staff">
                  <path d="M8138 490 L9681 490" stroke="currentColor" stroke-width="13" />
                  <path d="M8138 670 L9681 670" stroke="currentColor" stroke-width="13" />
                  <path d="M8138 850 L9681 850" stroke="currentColor" stroke-width="13" />
                  <path d="M8138 1030 L9681 1030" stroke="currentColor" stroke-width="13" />
                  <path d="M8138 1210 L9681 1210" stroke="currentColor" stroke-width="13" />
                  <g class="ledgerLines above">
                     <path d="M9185 310 L9468 310" stroke="currentColor" stroke-width="22" />
                  </g>
                  <g id="layer-0000001908194298" class="layer">
                     <g id="beam-0000000753799505" class="beam">
                        <polygon points="8318,1435 9236,1390 9236,1300 8318,1345 " />
                        <g id="note-0000000500782188" class="note">
                           <g class="notehead">
                              <use xlink:href="#E0A4-0000001724586126" x="8318" y="760" height="720px" width="720px" />
                           </g>
                           <g id="stem-0000000996497972" class="stem">
                              <rect x="8318" y="788" height="629" width="18" />
                           </g>
                           <g id="accid-0000000657821123" class="accid" />
                        </g>
                        <g id="note-0000001102246882" class="note">
                           <g class="notehead">
                              <use xlink:href="#E0A4-0000001724586126" x="8768" y="400" height="720px" width="720px" />
                           </g>
                           <g id="stem-0000002063936098" class="stem">
                              <rect x="8768" y="428" height="967" width="18" />
                           </g>
                           <g id="accid-0000001269406752" class="accid" />
                        </g>
                        <g id="note-0000001816731566" class="note">
                           <g class="notehead">
                              <use xlink:href="#E0A4-0000001724586126" x="9218" y="220" height="720px" width="720px" />
                           </g>
                           <g id="stem-0000000270649095" class="stem">
                              <rect x="9218" y="248" height="1124" width="18" />
                           </g>
                        </g>
                     </g>
                  </g>
               </g>
               <g id="tie-0000000884936716" class="tie">
                  <path d="M9489,85 C9570,-28 9732,-28 9816,85 C9732,19 9570,19 9489,85" stroke="currentColor" stroke-linecap="round" stroke-linejoin="round" stroke-width="9" />
               </g>
               <g id="bline-0000002146319451" class="barLineAttr">
                  <path d="M9668 1210 L9668 490" stroke="currentColor" stroke-width="27" />
               </g>
            </g>
            <g id="measure-0000000578354438" class="measure">
               <g id="staff-0000001807130337" class="staff">
                  <path d="M9681 490 L11224 490" stroke="currentColor" stroke-width="13" />
                  <path d="M9681 670 L11224 670" stroke="currentColor" stroke-width="13" />
                  <path d="M9681 850 L11224 850" stroke="currentColor" stroke-width="13" />
                  <path d="M9681 1030 L11224 1030" stroke="currentColor" stroke-width="13" />
                  <path d="M9681 1210 L11224 1210" stroke="currentColor" stroke-width="13" />
                  <g class="ledgerLines above">
                     <path d="M9828 310 L10111 310" stroke="currentColor" stroke-width="22" />
                     <path d="M10278 310 L10561 310" stroke="currentColor" stroke-width="22" />
                  </g>
                  <g id="layer-0000000070982397" class="layer">
                     <g id="beam-0000001070477904" class="beam">
                        <polygon points="9861,850 10779,1030 10779,940 9861,760 " />
                        <g id="note-0000001147722294" class="note">
                           <g class="notehead">
                              <use xlink:href="#E0A4-0000001724586126" x="9861" y="220" height="720px" width="720px" />
                           </g>
                           <g id="stem-0000000428975319" class="stem">
                              <rect x="9861" y="248" height="584" width="18" />
                           </g>
                        </g>
                        <g id="note-0000002051621609" class="note">
                           <g class="notehead">
                              <use xlink:href="#E0A4-0000001724586126" x="10311" y="310" height="720px" width="720px" />
                           </g>
                           <g id="stem-0000000685583454" class="stem">
                              <rect x="10311" y="338" height="584" width="18" />
                           </g>
                        </g>
                        <g id="note-0000001606946231" class="note">
                           <g class="notehead">
                              <use xlink:href="#E0A4-0000001724586126" x="10761" y="400" height="720px" width="720px" />
                           </g>
                           <g id="stem-0000001351345223" class="stem">
                              <rect x="10761" y="428" height="584" width="18" />
                           </g>
                           <g id="accid-0000001190959745" class="accid" />
                        </g>
                     </g>
                  </g>
               </g>
               <g id="tie-0000001912844175" class="tie">
                  <path d="M11032,265 C11113,152 11275,152 11359,265 C11275,199 11113,199 11032,265" stroke="currentColor" stroke-linecap="round" stroke-linejoin="round" stroke-width="9" />
               </g>
               <g id="bline-0000001723153177" class="barLineAttr">
                  <path d="M11211 1210 L11211 490" stroke="currentColor" stroke-width="27" />
               </g>
            </g>
            <g id="measure-0000001808266298" class="measure">
               <g id="staff-0000001341853635" class="staff">
                  <path d="M11224 490 L12767 490" stroke="currentColor" stroke-width="13" />
                  <path d="M11224 670 L12767 670" stroke="currentColor" stroke-width="13" />
                  <path d="M11224 850 L12767 850" stroke="currentColor" stroke-width="13" />
                  <path d="M11224 1030 L12767 1030" stroke="currentColor" stroke-width="13" />
                  <path d="M11224 1210 L12767 1210" stroke="currentColor" stroke-width="13" />
                  <g id="layer-0000000057716395" class="layer">
                     <g id="beam-0000000515204530" class="beam">
                        <polygon points="11404,1030 12322,1210 12322,1120 11404,940 " />
                        <g id="note-0000001524325968" class="note">
                           <g class="notehead">
                              <use xlink:href="#E0A4-0000001724586126" x="11404" y="400" height="720px" width="720px" />
                           </g>
                           <g id="stem-0000000272112289" class="stem">
                              <rect x="11404" y="428" height="584" width="18" />
                           </g>
                           <g id="accid-0000002014119113" class="accid" />
                        </g>
                        <g id="note-0000000388471006" class="note">
                           <g class="notehead">
                              <use xlink:href="#E0A4-0000001724586126" x="11854" y="490" height="720px" width="720px" />
                           </g>
                           <g id="stem-0000001398556760" class="stem">
                              <rect x="11854" y="518" height="584" width="18" />
                           </g>
                           <g id="accid-0000000681910962" class="accid" />
                        </g>
                        <g id="note-0000001904797942" class="note">
                           <g class="notehead">
                              <use xlink:href="#E0A4-0000001724586126" x="12304" y="580" height="720px" width="720px" />
                           </g>
                           <g id="stem-0000001334948905" class="stem">
                              <rect x="12304" y="608" height="584" width="18" />
                           </g>
                        </g>
                     </g>
                  </g>
               </g>
               <g id="bline-0000000889688008" class="barLineAttr">
                  <path d="M12754 1210 L12754 490" stroke="currentColor" stroke-width="27" />
               </g>
            </g>
            <g id="bdend-0000001260973671" class="boundaryEnd section-0000001622650073" />
         </g>
      </g>
   </svg>
</svg>
