<svg width="413px" height="111px" version="1.1" xmlns="http://www.w3.org/2000/svg" xmlns:xlink="http://www.w3.org/1999/xlink" xmlns:mei="http://www.music-encoding.org/ns/mei" overflow="visible">
   <desc>Engraved by Verovio 4.4.0-66ab39c</desc>
   <defs>
      <symbol id="E07A-1r78e3w" viewBox="0 0 1000 1000" overflow="inherit">
         <path transform="scale(1,-1)" d="M343 -190c-18 -3 -37 -5 -59 -5c-46 0 -79 6 -101 16c-68 33 -117 72 -146 119c-20 34 -33 80 -37 137c0 5 -1 10 -1 15c0 42 12 86 35 132c23 44 51 82 86 115s75 65 119 98c-2 12 -7 36 -11 72c-3 33 -3 57 -3 69c0 91 12 134 53 200c26 42 50 63 69 63 c16 0 34 -23 54 -71s30 -90 32 -124v-11c0 -85 -16 -126 -52 -187c-10 -16 -49 -70 -76 -92c-10 -7 -20 -15 -29 -23l24 -140c6 1 14 1 22 1c45 0 79 -9 103 -27c46 -33 71 -81 76 -143c1 -5 1 -12 1 -17c0 -96 -68 -163 -141 -193c6 -44 14 -86 20 -126c4 -24 4 -45 4 -62 c0 -23 -3 -41 -10 -54c-27 -50 -69 -77 -123 -80c-4 0 -9 -1 -13 -1c-29 0 -56 8 -84 21c-39 19 -60 46 -62 82v8c0 23 6 43 16 59c14 22 35 32 61 34h5c38 0 72 -32 75 -67v-7c0 -40 -26 -67 -81 -83c13 -19 39 -28 79 -28c48 0 90 34 109 67c7 12 10 31 10 57 c0 16 -1 33 -4 52c-6 41 -14 83 -20 124zM358 730c-74 0 -105 -137 -105 -223c0 -19 2 -37 4 -55c39 30 72 64 99 100c31 41 46 77 46 108v7c-3 41 -16 63 -42 63h-2zM315 92l42 -253c57 19 86 61 86 125c0 5 0 12 -1 18c-5 74 -44 110 -117 110h-10zM297 91 c-56 -2 -100 -36 -100 -93v-6c2 -36 34 -77 59 -89c-2 -2 -6 -4 -8 -8c-54 26 -91 69 -96 134v8c0 53 35 98 69 124c18 13 37 23 60 28l-22 132c-16 -10 -41 -29 -72 -57c-39 -34 -66 -65 -84 -92c-35 -54 -52 -102 -52 -142v-10c4 -53 27 -99 72 -137s96 -56 157 -56 c19 0 40 2 59 7c-15 86 -28 172 -42 257z" />
      </symbol>
      <symbol id="E07C-1r78e3w" viewBox="0 0 1000 1000" overflow="inherit">
         <path transform="scale(1,-1)" d="M509 -105c0 28 22 51 50 51s51 -23 51 -51s-23 -51 -51 -51s-50 23 -50 51zM509 105c0 28 22 51 50 51s51 -23 51 -51s-23 -51 -51 -51s-50 23 -50 51zM138 84c43 0 63 -11 77 -43l14 -34c0 -16 -2 -27 -6 -35c-2 -9 -8 -17 -17 -27c-22 -24 -49 -38 -73 -38 c-43 0 -63 8 -98 39c-20 18 -31 47 -31 87c0 34 9 65 28 98c26 45 62 69 120 81l32 6l22 1c125 0 203 -51 240 -159c10 -30 15 -61 15 -93c0 -83 -19 -154 -59 -219c-70 -115 -185 -194 -360 -251l-26 -5c-8 0 -13 3 -13 7c2 7 3 8 9 14c47 20 66 30 84 39l68 37 c89 53 143 125 172 226c13 48 17 60 20 87c3 19 4 31 5 34c-5 51 -12 95 -20 123c-8 30 -5 22 -14 35c-6 9 -14 17 -27 29c-29 26 -64 39 -103 39c-44 0 -75 -8 -99 -25c-24 -16 -37 -38 -37 -64v-14c2 -4 3 -7 4 -9c25 23 49 34 73 34z" />
      </symbol>
      <symbol id="E0A4-1r78e3w" viewBox="0 0 1000 1000" overflow="inherit">
         <path transform="scale(1,-1)" d="M0 -39c0 68 73 172 200 172c66 0 114 -37 114 -95c0 -84 -106 -171 -218 -171c-64 0 -96 30 -96 94z" />
      </symbol>
      <symbol id="E062-1r78e3w" viewBox="0 0 1000 1000" overflow="inherit">
         <path transform="scale(1,-1)" d="M582 -120c0 32 26 58 58 58s58 -26 58 -58s-26 -58 -58 -58s-58 26 -58 58zM582 120c0 32 26 58 58 58s58 -26 58 -58s-26 -58 -58 -58s-58 26 -58 58zM158 96c51 0 73 -14 88 -49l16 -39c0 -17 -2 -30 -7 -40c-3 -11 -10 -21 -19 -31c-17 -18 -49 -43 -84 -43 c-55 0 -77 13 -112 44c-24 21 -35 55 -35 100c0 46 14 81 32 112c30 52 71 79 137 93l36 6l26 2c154 0 235 -68 274 -182c11 -32 18 -68 18 -107c0 -103 -26 -182 -68 -250c-89 -145 -234 -230 -412 -288l-30 -5c-9 0 -14 3 -14 8c3 10 5 11 10 16c35 15 70 30 96 44l78 43 c96 57 162 136 197 258c9 33 17 60 22 100c3 22 5 35 6 39c-7 69 -16 115 -23 140s-4 22 -16 40c-8 12 -19 23 -31 34c-24 21 -62 44 -118 44c-48 0 -84 -8 -113 -28c-28 -19 -42 -44 -42 -73v-16c2 -5 3 -9 4 -11c24 22 52 39 84 39z" />
      </symbol>
      <symbol id="E260-1r78e3w" viewBox="0 0 1000 1000" overflow="inherit">
         <path transform="scale(1,-1)" d="M20 110c32 16 54 27 93 27c26 0 35 -3 54 -13c13 -7 24 -20 27 -38l4 -25c0 -28 -16 -57 -45 -89c-23 -25 -39 -44 -65 -68l-88 -79v644h20v-359zM90 106c-32 0 -48 -10 -70 -29v-194c31 31 54 59 71 84c21 32 32 59 32 84c0 9 1 16 1 20c0 14 -3 21 -11 30l-8 3z" />
      </symbol>
      <symbol id="E08A-1r78e3w" viewBox="0 0 1000 1000" overflow="inherit">
         <path transform="scale(1,-1)" d="M340 179c-9 24 -56 41 -89 41c-46 0 -81 -28 -100 -58c-17 -28 -25 -78 -25 -150c0 -65 2 -111 8 -135c8 -31 18 -49 40 -67c20 -17 43 -25 70 -25c54 0 92 36 115 75c14 25 23 54 28 88h27c0 -63 -24 -105 -58 -141c-35 -38 -82 -56 -140 -56c-45 0 -83 13 -115 39 c-57 45 -101 130 -101 226c0 59 33 127 68 163c36 37 97 72 160 72c36 0 93 -21 121 -40c11 -8 23 -17 33 -30c19 -23 27 -48 27 -76c0 -51 -35 -88 -86 -88c-43 0 -76 27 -76 68c0 26 7 35 21 51c15 17 32 27 58 32c7 2 14 7 14 11z" />
      </symbol>
   </defs>
   <style type="text/css">g.page-margin{font-family:Times,serif;} g.ending, g.fing, g.reh, g.tempo{font-weight:bold;} g.dir, g.dynam, g.mNum{font-style:italic;} g.label{font-weight:normal;}</style>
   <svg class="definition-scale" color="black" viewBox="0 0 9170 2450">
      <g class="page-margin" transform="translate(500, 500)">
         <g id="m15wwqth" class="mdiv pageMilestone" />
         <g id="sv3lqdm" class="score pageMilestone" />
         <g id="s82fpt" class="system">
            <g id="s1pfogn4" class="section systemMilestone" />
            <g id="mfnjo7e" class="measure">
               <g id="s5odh2d" class="staff">
                  <path d="M0 546 L8173 546" stroke="currentColor" stroke-width="13" />
                  <path d="M0 726 L8173 726" stroke="currentColor" stroke-width="13" />
                  <path d="M0 906 L8173 906" stroke="currentColor" stroke-width="13" />
                  <path d="M0 1086 L8173 1086" stroke="currentColor" stroke-width="13" />
                  <path d="M0 1266 L8173 1266" stroke="currentColor" stroke-width="13" />
                  <g id="c12l1c7g" class="clef">
                     <use xlink:href="#E062-1r78e3w" x="88" y="726" height="720px" width="720px" />
                  </g>
                  <g id="k19knp2v" class="keySig">
                     <g id="k1gxitk" class="keyAccid">
                        <use xlink:href="#E260-1r78e3w" x="769" y="1086" height="720px" width="720px" />
                     </g>
                  </g>
                  <g id="m1905d68" class="meterSig">
                     <use xlink:href="#E08A-1r78e3w" x="1091" y="906" height="720px" width="720px" />
                  </g>
                  <g class="ledgerLines above">
                     <path d="M2261 366 L2547 366" stroke="currentColor" stroke-width="22" />
                     <path d="M2577 366 L2863 366" stroke="currentColor" stroke-width="22" />
                     <path d="M3977 366 L4263 366" stroke="currentColor" stroke-width="22" />
                     <path d="M4293 366 L4579 366" stroke="currentColor" stroke-width="22" />
                     <path d="M5768 366 L6054 366" stroke="currentColor" stroke-width="22" />
                     <path d="M6084 366 L6370 366" stroke="currentColor" stroke-width="22" />
                     <path d="M7484 366 L7770 366" stroke="currentColor" stroke-width="22" />
                     <path d="M7800 366 L8086 366" stroke="currentColor" stroke-width="22" />
                     <path d="M2577 186 L2863 186" stroke="currentColor" stroke-width="22" />
                     <path d="M4293 186 L4579 186" stroke="currentColor" stroke-width="22" />
                     <path d="M6084 186 L6370 186" stroke="currentColor" stroke-width="22" />
                     <path d="M7800 186 L8086 186" stroke="currentColor" stroke-width="22" />
                  </g>
                  <g id="l16gprxv" class="layer">
                     <g id="b4ks4fv" class="beam">
                        <polygon points="1659,1356 2625,996 2625,906 1659,1266" />
                        <polygon points="1659,1221 1984,1101 1984,1011 1659,1131" />
                        <polygon points="1984,1101 2300,981 2300,891 1984,1011" />
                        <polygon points="2300,981 2625,861 2625,771 2300,891" />
                        <g id="n1bcu6sn" class="note">
                           <g class="notehead">
                              <use xlink:href="#E0A4-1r78e3w" x="1659" y="726" height="720px" width="720px" />
                           </g>
                           <g id="sfx25hn" class="stem">
                              <path d="M1668 754 L1668 1338" stroke="currentColor" stroke-width="18" />
                           </g>
                        </g>
                        <g id="n1k4iy3e" class="note">
                           <g class="notehead">
                              <use xlink:href="#E0A4-1r78e3w" x="1975" y="546" height="720px" width="720px" />
                           </g>
                           <g id="s3ie8ud" class="stem">
                              <path d="M1984 574 L1984 1218" stroke="currentColor" stroke-width="18" />
                           </g>
                        </g>
                        <g id="n1blotdo" class="note">
                           <g class="notehead">
                              <use xlink:href="#E0A4-1r78e3w" x="2291" y="366" height="720px" width="720px" />
                           </g>
                           <g id="s37hn12" class="stem">
                              <path d="M2300 394 L2300 1098" stroke="currentColor" stroke-width="18" />
                           </g>
                        </g>
                        <g id="n98porn" class="note">
                           <g class="notehead">
                              <use xlink:href="#E0A4-1r78e3w" x="2607" y="96" height="720px" width="720px" />
                           </g>
                           <g id="s1kyp1ws" class="stem">
                              <path d="M2616 124 L2616 978" stroke="currentColor" stroke-width="18" />
                           </g>
                        </g>
                     </g>
                     <g id="chbsl03" class="clef">
                        <use xlink:href="#E07A-1r78e3w" x="2923" y="1086" height="720px" width="720px" />
                     </g>
                     <g id="b147azdb" class="beam">
                        <polygon points="3375,1446 4341,1086 4341,996 3375,1356" />
                        <polygon points="3375,1311 3700,1191 3700,1101 3375,1221" />
                        <polygon points="3700,1191 4016,1071 4016,981 3700,1101" />
                        <polygon points="4016,1071 4341,951 4341,861 4016,981" />
                        <g id="nsm35er" class="note">
                           <g class="notehead">
                              <use xlink:href="#E0A4-1r78e3w" x="3375" y="816" height="720px" width="720px" />
                           </g>
                           <g id="s1eyoooy" class="stem">
                              <path d="M3384 844 L3384 1428" stroke="currentColor" stroke-width="18" />
                           </g>
                        </g>
                        <g id="n2rcrlx" class="note">
                           <g class="notehead">
                              <use xlink:href="#E0A4-1r78e3w" x="3691" y="636" height="720px" width="720px" />
                           </g>
                           <g id="swtw03u" class="stem">
                              <path d="M3700 664 L3700 1308" stroke="currentColor" stroke-width="18" />
                           </g>
                        </g>
                        <g id="nmwwo00" class="note">
                           <g class="notehead">
                              <use xlink:href="#E0A4-1r78e3w" x="4007" y="366" height="720px" width="720px" />
                           </g>
                           <g id="s12ecyql" class="stem">
                              <path d="M4016 394 L4016 1188" stroke="currentColor" stroke-width="18" />
                           </g>
                        </g>
                        <g id="n1s4ffnc" class="note">
                           <g class="notehead">
                              <use xlink:href="#E0A4-1r78e3w" x="4323" y="186" height="720px" width="720px" />
                           </g>
                           <g id="sjwwkjn" class="stem">
                              <path d="M4332 214 L4332 1068" stroke="currentColor" stroke-width="18" />
                           </g>
                        </g>
                     </g>
                     <g id="cmyzslu" class="clef">
                        <use xlink:href="#E07C-1r78e3w" x="4637" y="726" height="720px" width="720px" />
                     </g>
                     <g id="b1kzq82m" class="beam">
                        <polygon points="5166,1356 6132,996 6132,906 5166,1266" />
                        <polygon points="5166,1221 5491,1101 5491,1011 5166,1131" />
                        <polygon points="5491,1101 5807,981 5807,891 5491,1011" />
                        <polygon points="5807,981 6132,861 6132,771 5807,891" />
                        <g id="n9ixwzy" class="note">
                           <g class="notehead">
                              <use xlink:href="#E0A4-1r78e3w" x="5166" y="726" height="720px" width="720px" />
                           </g>
                           <g id="szub3xf" class="stem">
                              <path d="M5175 754 L5175 1338" stroke="currentColor" stroke-width="18" />
                           </g>
                        </g>
                        <g id="n1ffvwuh" class="note">
                           <g class="notehead">
                              <use xlink:href="#E0A4-1r78e3w" x="5482" y="456" height="720px" width="720px" />
                           </g>
                           <g id="szv1mc9" class="stem">
                              <path d="M5491 484 L5491 1218" stroke="currentColor" stroke-width="18" />
                           </g>
                           <g id="aa734np" class="accid" />
                        </g>
                        <g id="nzosgrv" class="note">
                           <g class="notehead">
                              <use xlink:href="#E0A4-1r78e3w" x="5798" y="276" height="720px" width="720px" />
                           </g>
                           <g id="s14qhuvu" class="stem">
                              <path d="M5807 304 L5807 1098" stroke="currentColor" stroke-width="18" />
                           </g>
                        </g>
                        <g id="n1q84ocf" class="note">
                           <g class="notehead">
                              <use xlink:href="#E0A4-1r78e3w" x="6114" y="96" height="720px" width="720px" />
                           </g>
                           <g id="s1dict13" class="stem">
                              <path d="M6123 124 L6123 978" stroke="currentColor" stroke-width="18" />
                           </g>
                        </g>
                     </g>
                     <g id="c6ug31v" class="clef">
                        <use xlink:href="#E07A-1r78e3w" x="6430" y="1086" height="720px" width="720px" />
                     </g>
                     <g id="bshell2" class="beam">
                        <polygon points="6882,1356 7848,996 7848,906 6882,1266" />
                        <polygon points="6882,1221 7207,1101 7207,1011 6882,1131" />
                        <polygon points="7207,1101 7523,981 7523,891 7207,1011" />
                        <polygon points="7523,981 7848,861 7848,771 7523,891" />
                        <g id="n1gzuhvg" class="note">
                           <g class="notehead">
                              <use xlink:href="#E0A4-1r78e3w" x="6882" y="726" height="720px" width="720px" />
                           </g>
                           <g id="scz237t" class="stem">
                              <path d="M6891 754 L6891 1338" stroke="currentColor" stroke-width="18" />
                           </g>
                        </g>
                        <g id="n1vw1hrc" class="note">
                           <g class="notehead">
                              <use xlink:href="#E0A4-1r78e3w" x="7198" y="546" height="720px" width="720px" />
                           </g>
                           <g id="swxt00x" class="stem">
                              <path d="M7207 574 L7207 1218" stroke="currentColor" stroke-width="18" />
                           </g>
                        </g>
                        <g id="n36inxr" class="note">
                           <g class="notehead">
                              <use xlink:href="#E0A4-1r78e3w" x="7514" y="366" height="720px" width="720px" />
                           </g>
                           <g id="sdvl5ld" class="stem">
                              <path d="M7523 394 L7523 1098" stroke="currentColor" stroke-width="18" />
                           </g>
                        </g>
                        <g id="na56g6u" class="note">
                           <g class="notehead">
                              <use xlink:href="#E0A4-1r78e3w" x="7830" y="96" height="720px" width="720px" />
                           </g>
                           <g id="s1nwbnw5" class="stem">
                              <path d="M7839 124 L7839 978" stroke="currentColor" stroke-width="18" />
                           </g>
                        </g>
                     </g>
                  </g>
               </g>
               <g id="b14otqmf" class="barLine">
                  <path d="M8160 546 L8160 1266" stroke="currentColor" stroke-width="27" />
               </g>
            </g>
            <g id="s6sh6uc" class="systemMilestoneEnd s1pfogn4" />
         </g>
         <g id="pgj8qwy" class="pageMilestoneEnd sv3lqdm" />
         <g id="pfggj11" class="pageMilestoneEnd m15wwqth" />
      </g>
   </svg>
</svg>
