<svg width="688px" height="126.5px" version="1.1" xmlns="http://www.w3.org/2000/svg" xmlns:xlink="http://www.w3.org/1999/xlink" xmlns:mei="http://www.music-encoding.org/ns/mei" overflow="visible">
   <desc>Engraved by Verovio 3.12.0-77bd079</desc>
   <defs>
      <symbol id="E050-1hgyq4h" viewBox="0 0 1000 1000" overflow="inherit">
         <path transform="scale(1,-1)" d="M441 -245c-23 -4 -48 -6 -76 -6c-59 0 -102 7 -130 20c-88 42 -150 93 -187 154c-26 44 -43 103 -48 176c0 6 -1 13 -1 19c0 54 15 111 45 170c29 57 65 106 110 148s96 85 153 127c-3 16 -8 46 -13 92c-4 43 -5 73 -5 89c0 117 16 172 69 257c34 54 64 82 89 82 c21 0 43 -30 69 -92s39 -115 41 -159v-15c0 -109 -21 -162 -67 -241c-13 -20 -63 -90 -98 -118c-13 -9 -25 -19 -37 -29l31 -181c8 1 18 2 28 2c58 0 102 -12 133 -35c59 -43 92 -104 98 -184c1 -7 1 -15 1 -22c0 -123 -87 -209 -181 -248c8 -57 17 -110 25 -162 c5 -31 6 -58 6 -80c0 -30 -5 -53 -14 -70c-35 -64 -88 -99 -158 -103c-5 0 -11 -1 -16 -1c-37 0 -72 10 -108 27c-50 24 -77 59 -80 105v11c0 29 7 55 20 76c18 28 45 42 79 44h6c49 0 93 -42 97 -87v-9c0 -51 -34 -86 -105 -106c17 -24 51 -36 102 -36c62 0 116 43 140 85 c9 16 13 41 13 74c0 20 -1 42 -5 67c-8 53 -18 106 -26 159zM461 939c-95 0 -135 -175 -135 -286c0 -24 2 -48 5 -71c50 39 92 82 127 128c40 53 60 100 60 140v8c-4 53 -22 81 -55 81h-2zM406 119l54 -326c73 25 110 78 110 161c0 7 0 15 -1 23c-7 95 -57 142 -151 142h-12 zM382 117c-72 -2 -128 -47 -128 -120v-7c2 -46 43 -99 75 -115c-3 -2 -7 -5 -10 -10c-70 33 -116 88 -123 172v11c0 68 44 126 88 159c23 17 49 29 78 36l-29 170c-21 -13 -52 -37 -92 -73c-50 -44 -86 -84 -109 -119c-45 -69 -67 -130 -67 -182v-13c5 -68 35 -127 93 -176 s125 -73 203 -73c25 0 50 3 75 9c-19 111 -36 221 -54 331z" />
      </symbol>
      <symbol id="E083-1hgyq4h" viewBox="0 0 1000 1000" overflow="inherit">
         <path transform="scale(1,-1)" d="M208 250c97 0 177 -52 177 -116c0 -69 -40 -111 -118 -125c56 -5 125 -44 125 -116c0 -31 -10 -57 -31 -78c-19 -21 -45 -38 -78 -49l-50 -11c-15 -3 -36 -7 -55 -7c-50 0 -86 16 -113 38c-16 10 -23 18 -34 34c-7 13 -11 25 -11 38c0 43 27 83 68 83l3 -2 c61 0 75 -42 75 -70c0 -19 -24 -42 -26 -57c7 -17 20 -25 37 -25c44 0 94 29 94 78c0 75 -34 125 -138 125v36c84 0 131 22 131 98c0 54 -37 88 -87 88c-26 0 -43 -7 -51 -22c15 -22 44 -16 44 -70c0 -37 -37 -62 -71 -62c-22 0 -69 15 -69 76c0 79 101 116 178 116z" />
      </symbol>
      <symbol id="E088-1hgyq4h" viewBox="0 0 1000 1000" overflow="inherit">
         <path transform="scale(1,-1)" d="M195 -214c76 0 88 58 90 68c0 34 -35 60 -57 73l-52 29c-21 10 -32 17 -34 20c-39 -33 -58 -54 -62 -92c5 -23 23 -98 115 -98zM301 135c0 61 -72 76 -113 76c-40 0 -77 -17 -77 -51c3 -21 15 -38 26 -50c17 -15 33 -26 48 -34l65 -28c34 27 51 56 51 87zM176 -250 c-57 0 -166 26 -166 132c0 47 30 86 89 116c-33 15 -79 60 -79 119c0 79 85 132 178 132h18c5 0 21 1 28 -1c25 0 126 -30 126 -110c0 -37 -23 -76 -69 -116c43 -25 83 -71 83 -119c0 -101 -118 -153 -208 -153z" />
      </symbol>
      <symbol id="E0A4-1hgyq4h" viewBox="0 0 1000 1000" overflow="inherit">
         <path transform="scale(1,-1)" d="M0 -39c0 68 73 172 200 172c66 0 114 -37 114 -95c0 -84 -106 -171 -218 -171c-64 0 -96 30 -96 94z" />
      </symbol>
      <symbol id="E4E6-1hgyq4h" viewBox="0 0 1000 1000" overflow="inherit">
         <path transform="scale(1,-1)" d="M0 123c7 34 33 56 69 60c29 -3 43 -9 53 -29c4 -8 7 -15 10 -22c0 -21 -1 -25 -11 -35c-5 -8 -18 -14 -40 -20l12 -3l15 -1c44 0 97 26 122 56c10 11 18 26 24 42c7 1 15 2 22 3l-140 -424h-36l111 330c-10 -6 -27 -12 -53 -16l-52 -8h-10l-20 1c-1 0 -8 3 -21 6 c-37 9 -55 28 -55 60z" />
      </symbol>
      <symbol id="E262-1hgyq4h" viewBox="0 0 1000 1000" overflow="inherit">
         <path transform="scale(1,-1)" d="M136 186v169h17v-164l44 14v-91l-44 -14v-165l44 12v-91l-44 -13v-155h-17v150l-76 -22v-155h-17v149l-43 -13v90l43 14v167l-43 -14v92l43 13v169h17v-163zM60 73v-167l76 22v168z" />
      </symbol>
   </defs>
   <style type="text/css">g.page-margin{font-family:Times;} g.ending, g.fing, g.reh, g.tempo{font-weight:bold;} g.dir, g.dynam, g.mNum{font-style:italic;} g.label{font-weight:normal;}</style>
   <svg class="definition-scale" color="black" viewBox="0 0 13760 2530">
      <g class="page-margin" transform="translate(500, 500)">
         <g id="m3sgcfj" class="mdiv pageMilestone" />
         <g id="s1473mmv" class="score pageMilestone" />
         <g id="s9rjdmw" class="system">
            <g id="s17lwqmf" class="section systemMilestone" />
            <g id="maj27" class="measure">
               <g id="s1dbnqlt" class="staff">
                  <path d="M0 520 L3316 520" stroke="currentColor" stroke-width="13" />
                  <path d="M0 700 L3316 700" stroke="currentColor" stroke-width="13" />
                  <path d="M0 880 L3316 880" stroke="currentColor" stroke-width="13" />
                  <path d="M0 1060 L3316 1060" stroke="currentColor" stroke-width="13" />
                  <path d="M0 1240 L3316 1240" stroke="currentColor" stroke-width="13" />
                  <g id="c1kvb32j" class="clef">
                     <use xlink:href="#E050-1hgyq4h" x="90" y="1060" height="720px" width="720px" />
                  </g>
                  <g id="kkky5ur" class="keySig">
                     <g id="kgjqoxh" class="keyAccid">
                        <use xlink:href="#E262-1hgyq4h" x="735" y="520" height="720px" width="720px" />
                     </g>
                     <g id="k1eyg8nx" class="keyAccid">
                        <use xlink:href="#E262-1hgyq4h" x="913" y="790" height="720px" width="720px" />
                     </g>
                     <g id="k1lbux41" class="keyAccid">
                        <use xlink:href="#E262-1hgyq4h" x="1091" y="430" height="720px" width="720px" />
                     </g>
                  </g>
                  <g id="m17jdkzm" class="meterSig">
                     <use xlink:href="#E083-1hgyq4h" x="1402" y="700" height="720px" width="720px" />
                     <use xlink:href="#E088-1hgyq4h" x="1405" y="1060" height="720px" width="720px" />
                  </g>
                  <g id="lz0t4ct" class="layer">
                     <g id="re15r7n" class="rest">
                        <use xlink:href="#E4E6-1hgyq4h" x="1953" y="880" height="720px" width="720px" />
                     </g>
                     <g id="b57lm6x" class="beam">
                        <polygon points="2403,1465 2871,1420 2871,1330 2403,1375" />
                        <g id="n1d57h6s" class="note">
                           <g class="notehead">
                              <use xlink:href="#E0A4-1hgyq4h" x="2403" y="790" height="720px" width="720px" />
                           </g>
                           <g id="s1ac027h" class="stem">
                              <rect x="2403" y="818" height="629" width="18" />
                           </g>
                           <g id="a119yyl7" class="accid" />
                        </g>
                        <g id="nkkm5ug" class="note">
                           <g class="notehead">
                              <use xlink:href="#E0A4-1hgyq4h" x="2853" y="700" height="720px" width="720px" />
                           </g>
                           <g id="s1tvqs3o" class="stem">
                              <rect x="2853" y="728" height="674" width="18" />
                           </g>
                        </g>
                     </g>
                  </g>
               </g>
               <g id="bd8ados" class="barLine">
                  <path d="M3303 520 L3303 1240" stroke="currentColor" stroke-width="27" />
               </g>
            </g>
            <g id="mrjxj5z" class="measure">
               <g id="stf3pj7" class="staff">
                  <path d="M3316 520 L4859 520" stroke="currentColor" stroke-width="13" />
                  <path d="M3316 700 L4859 700" stroke="currentColor" stroke-width="13" />
                  <path d="M3316 880 L4859 880" stroke="currentColor" stroke-width="13" />
                  <path d="M3316 1060 L4859 1060" stroke="currentColor" stroke-width="13" />
                  <path d="M3316 1240 L4859 1240" stroke="currentColor" stroke-width="13" />
                  <g id="l12edjsw" class="layer">
                     <g id="bvtbb6w" class="beam">
                        <polygon points="3496,1285 4414,1465 4414,1375 3496,1195" />
                        <g id="nmet4hd" class="note">
                           <g class="notehead">
                              <use xlink:href="#E0A4-1hgyq4h" x="3496" y="700" height="720px" width="720px" />
                           </g>
                           <g id="spns9ix" class="stem">
                              <rect x="3496" y="728" height="539" width="18" />
                           </g>
                        </g>
                        <g id="na3f0ob" class="note">
                           <g class="notehead">
                              <use xlink:href="#E0A4-1hgyq4h" x="3946" y="790" height="720px" width="720px" />
                           </g>
                           <g id="sop9yb4" class="stem">
                              <rect x="3946" y="818" height="539" width="18" />
                           </g>
                           <g id="a1diug5" class="accid" />
                        </g>
                        <g id="n1crgkek" class="note">
                           <g class="notehead">
                              <use xlink:href="#E0A4-1hgyq4h" x="4396" y="880" height="720px" width="720px" />
                           </g>
                           <g id="s14k4sn0" class="stem">
                              <rect x="4396" y="908" height="539" width="18" />
                           </g>
                        </g>
                     </g>
                  </g>
               </g>
               <g id="bm92q1x" class="barLine">
                  <path d="M4846 520 L4846 1240" stroke="currentColor" stroke-width="27" />
               </g>
            </g>
            <g id="m1co6lqq" class="measure">
               <g id="s3jqins" class="staff">
                  <path d="M4859 520 L6588 520" stroke="currentColor" stroke-width="13" />
                  <path d="M4859 700 L6588 700" stroke="currentColor" stroke-width="13" />
                  <path d="M4859 880 L6588 880" stroke="currentColor" stroke-width="13" />
                  <path d="M4859 1060 L6588 1060" stroke="currentColor" stroke-width="13" />
                  <path d="M4859 1240 L6588 1240" stroke="currentColor" stroke-width="13" />
                  <g id="l1idfjel" class="layer">
                     <g id="bxbw8wm" class="beam">
                        <polygon points="5225,1510 6143,1330 6143,1240 5225,1420" />
                        <g id="n1jn0u8q" class="note">
                           <g class="notehead">
                              <use xlink:href="#E0A4-1hgyq4h" x="5225" y="970" height="720px" width="720px" />
                           </g>
                           <g id="s1hbwssy" class="stem">
                              <rect x="5225" y="998" height="494" width="18" />
                           </g>
                           <g id="a7bykuy" class="accid">
                              <use xlink:href="#E262-1hgyq4h" x="5039" y="970" height="720px" width="720px" />
                           </g>
                        </g>
                        <g id="n1na8chg" class="note">
                           <g class="notehead">
                              <use xlink:href="#E0A4-1hgyq4h" x="5675" y="880" height="720px" width="720px" />
                           </g>
                           <g id="s19b0pk0" class="stem">
                              <rect x="5675" y="908" height="494" width="18" />
                           </g>
                        </g>
                        <g id="ntawp5c" class="note">
                           <g class="notehead">
                              <use xlink:href="#E0A4-1hgyq4h" x="6125" y="520" height="720px" width="720px" />
                           </g>
                           <g id="s1fkgidp" class="stem">
                              <rect x="6125" y="548" height="764" width="18" />
                           </g>
                           <g id="a5xu055" class="accid" />
                        </g>
                     </g>
                  </g>
               </g>
               <g id="tkfvgnr" class="tie">
                  <path d="M6396,385 C6463,232 6651,232 6723,385 C6626,279 6490,279 6396,385" stroke="currentColor" stroke-linecap="round" stroke-linejoin="round" stroke-width="9" />
               </g>
               <g id="b1bmglde" class="barLine">
                  <path d="M6575 520 L6575 1240" stroke="currentColor" stroke-width="27" />
               </g>
            </g>
            <g id="m1sx3qkk" class="measure">
               <g id="s122cibx" class="staff">
                  <path d="M6588 520 L8131 520" stroke="currentColor" stroke-width="13" />
                  <path d="M6588 700 L8131 700" stroke="currentColor" stroke-width="13" />
                  <path d="M6588 880 L8131 880" stroke="currentColor" stroke-width="13" />
                  <path d="M6588 1060 L8131 1060" stroke="currentColor" stroke-width="13" />
                  <path d="M6588 1240 L8131 1240" stroke="currentColor" stroke-width="13" />
                  <g id="l37ycjq" class="layer">
                     <g id="b1sjdpu1" class="beam">
                        <polygon points="6768,1105 7686,1285 7686,1195 6768,1015" />
                        <g id="n1arjot" class="note">
                           <g class="notehead">
                              <use xlink:href="#E0A4-1hgyq4h" x="6768" y="520" height="720px" width="720px" />
                           </g>
                           <g id="s8z01sa" class="stem">
                              <rect x="6768" y="548" height="539" width="18" />
                           </g>
                           <g id="a1c7ux5f" class="accid" />
                        </g>
                        <g id="n2fdoc3" class="note">
                           <g class="notehead">
                              <use xlink:href="#E0A4-1hgyq4h" x="7218" y="610" height="720px" width="720px" />
                           </g>
                           <g id="s1qqpo9j" class="stem">
                              <rect x="7218" y="638" height="539" width="18" />
                           </g>
                        </g>
                        <g id="n1ha7bqh" class="note">
                           <g class="notehead">
                              <use xlink:href="#E0A4-1hgyq4h" x="7668" y="700" height="720px" width="720px" />
                           </g>
                           <g id="s1d0xif0" class="stem">
                              <rect x="7668" y="728" height="539" width="18" />
                           </g>
                        </g>
                     </g>
                  </g>
               </g>
               <g id="b1jaffx2" class="barLine">
                  <path d="M8118 520 L8118 1240" stroke="currentColor" stroke-width="27" />
               </g>
            </g>
            <g id="m1kvldvx" class="measure">
               <g id="s1b5ebec" class="staff">
                  <path d="M8131 520 L9674 520" stroke="currentColor" stroke-width="13" />
                  <path d="M8131 700 L9674 700" stroke="currentColor" stroke-width="13" />
                  <path d="M8131 880 L9674 880" stroke="currentColor" stroke-width="13" />
                  <path d="M8131 1060 L9674 1060" stroke="currentColor" stroke-width="13" />
                  <path d="M8131 1240 L9674 1240" stroke="currentColor" stroke-width="13" />
                  <g class="ledgerLines above">
                     <path d="M9163 340 L9485 340" stroke="currentColor" stroke-width="22" />
                  </g>
                  <g id="l9xwq8l" class="layer">
                     <g id="b6tx8lf" class="beam">
                        <polygon points="8311,1420 9229,1240 9229,1150 8311,1330" />
                        <g id="n18bpqky" class="note">
                           <g class="notehead">
                              <use xlink:href="#E0A4-1hgyq4h" x="8311" y="790" height="720px" width="720px" />
                           </g>
                           <g id="s18asswh" class="stem">
                              <rect x="8311" y="818" height="584" width="18" />
                           </g>
                           <g id="a1t4imxy" class="accid" />
                        </g>
                        <g id="n1y8mnf3" class="note">
                           <g class="notehead">
                              <use xlink:href="#E0A4-1hgyq4h" x="8761" y="430" height="720px" width="720px" />
                           </g>
                           <g id="s1a0d953" class="stem">
                              <rect x="8761" y="458" height="854" width="18" />
                           </g>
                           <g id="af15nd4" class="accid" />
                        </g>
                        <g id="n1axbio0" class="note">
                           <g class="notehead">
                              <use xlink:href="#E0A4-1hgyq4h" x="9211" y="250" height="720px" width="720px" />
                           </g>
                           <g id="s1hc8sqh" class="stem">
                              <rect x="9211" y="278" height="944" width="18" />
                           </g>
                        </g>
                     </g>
                  </g>
               </g>
               <g id="t8hjtkt" class="tie">
                  <path d="M9482,115 C9549,-38 9737,-38 9809,115 C9712,9 9576,9 9482,115" stroke="currentColor" stroke-linecap="round" stroke-linejoin="round" stroke-width="9" />
               </g>
               <g id="b1q90xdt" class="barLine">
                  <path d="M9661 520 L9661 1240" stroke="currentColor" stroke-width="27" />
               </g>
            </g>
            <g id="m1pfycn4" class="measure">
               <g id="s10kmnra" class="staff">
                  <path d="M9674 520 L11217 520" stroke="currentColor" stroke-width="13" />
                  <path d="M9674 700 L11217 700" stroke="currentColor" stroke-width="13" />
                  <path d="M9674 880 L11217 880" stroke="currentColor" stroke-width="13" />
                  <path d="M9674 1060 L11217 1060" stroke="currentColor" stroke-width="13" />
                  <path d="M9674 1240 L11217 1240" stroke="currentColor" stroke-width="13" />
                  <g class="ledgerLines above">
                     <path d="M9806 340 L10128 340" stroke="currentColor" stroke-width="22" />
                     <path d="M10256 340 L10578 340" stroke="currentColor" stroke-width="22" />
                  </g>
                  <g id="l1ka9jpe" class="layer">
                     <g id="bkusyjr" class="beam">
                        <polygon points="9854,880 10772,1060 10772,970 9854,790" />
                        <g id="n1h556f8" class="note">
                           <g class="notehead">
                              <use xlink:href="#E0A4-1hgyq4h" x="9854" y="250" height="720px" width="720px" />
                           </g>
                           <g id="sp528ig" class="stem">
                              <rect x="9854" y="278" height="584" width="18" />
                           </g>
                        </g>
                        <g id="nl7aas9" class="note">
                           <g class="notehead">
                              <use xlink:href="#E0A4-1hgyq4h" x="10304" y="340" height="720px" width="720px" />
                           </g>
                           <g id="sos67d6" class="stem">
                              <rect x="10304" y="368" height="584" width="18" />
                           </g>
                           <g id="a1so4aao" class="accid" />
                        </g>
                        <g id="njx4kfj" class="note">
                           <g class="notehead">
                              <use xlink:href="#E0A4-1hgyq4h" x="10754" y="430" height="720px" width="720px" />
                           </g>
                           <g id="s1i7o82k" class="stem">
                              <rect x="10754" y="458" height="584" width="18" />
                           </g>
                           <g id="aiv16ea" class="accid" />
                        </g>
                     </g>
                  </g>
               </g>
               <g id="t98hx0k" class="tie">
                  <path d="M11025,295 C11092,142 11280,142 11352,295 C11255,189 11119,189 11025,295" stroke="currentColor" stroke-linecap="round" stroke-linejoin="round" stroke-width="9" />
               </g>
               <g id="b47hp0q" class="barLine">
                  <path d="M11204 520 L11204 1240" stroke="currentColor" stroke-width="27" />
               </g>
            </g>
            <g id="m1qdic1l" class="measure">
               <g id="s1v3fo0c" class="staff">
                  <path d="M11217 520 L12760 520" stroke="currentColor" stroke-width="13" />
                  <path d="M11217 700 L12760 700" stroke="currentColor" stroke-width="13" />
                  <path d="M11217 880 L12760 880" stroke="currentColor" stroke-width="13" />
                  <path d="M11217 1060 L12760 1060" stroke="currentColor" stroke-width="13" />
                  <path d="M11217 1240 L12760 1240" stroke="currentColor" stroke-width="13" />
                  <g id="l247e8r" class="layer">
                     <g id="b1s60ozi" class="beam">
                        <polygon points="11397,1060 12315,1240 12315,1150 11397,970" />
                        <g id="nvotdr6" class="note">
                           <g class="notehead">
                              <use xlink:href="#E0A4-1hgyq4h" x="11397" y="430" height="720px" width="720px" />
                           </g>
                           <g id="sj68hw4" class="stem">
                              <rect x="11397" y="458" height="584" width="18" />
                           </g>
                           <g id="al8ebre" class="accid" />
                        </g>
                        <g id="n1k29xw7" class="note">
                           <g class="notehead">
                              <use xlink:href="#E0A4-1hgyq4h" x="11847" y="520" height="720px" width="720px" />
                           </g>
                           <g id="spbowio" class="stem">
                              <rect x="11847" y="548" height="584" width="18" />
                           </g>
                           <g id="ayx0aaf" class="accid" />
                        </g>
                        <g id="nfrzwqv" class="note">
                           <g class="notehead">
                              <use xlink:href="#E0A4-1hgyq4h" x="12297" y="610" height="720px" width="720px" />
                           </g>
                           <g id="s1rmvr0s" class="stem">
                              <rect x="12297" y="638" height="584" width="18" />
                           </g>
                        </g>
                     </g>
                  </g>
               </g>
               <g id="b11vd3cp" class="barLine">
                  <path d="M12747 520 L12747 1240" stroke="currentColor" stroke-width="27" />
               </g>
            </g>
            <g id="s1rdaiaz" class="systemMilestoneEnd s17lwqmf" />
         </g>
         <g id="p1lcl990" class="pageMilestoneEnd s1473mmv" />
         <g id="pqtixb2" class="pageMilestoneEnd m3sgcfj" />
      </g>
   </svg>
</svg>
