<svg width="607px" height="130px" version="1.1" xmlns="http://www.w3.org/2000/svg" xmlns:xlink="http://www.w3.org/1999/xlink" xmlns:mei="http://www.music-encoding.org/ns/mei" overflow="visible">
   <desc>Engraved by Verovio 3.7.0-dev-71d73c7</desc>
   <defs>
      <symbol id="E050-4i0b6p" viewBox="0 0 1000 1000" overflow="inherit">
         <path transform="scale(1,-1)" d="M441 -245c-23 -4 -48 -6 -76 -6c-59 0 -102 7 -130 20c-88 42 -150 93 -187 154c-26 44 -43 103 -48 176c0 6 -1 13 -1 19c0 54 15 111 45 170c29 57 65 106 110 148s96 85 153 127c-3 16 -8 46 -13 92c-4 43 -5 73 -5 89c0 117 16 172 69 257c34 54 64 82 89 82 c21 0 43 -30 69 -92s39 -115 41 -159v-15c0 -109 -21 -162 -67 -241c-13 -20 -63 -90 -98 -118c-13 -9 -25 -19 -37 -29l31 -181c8 1 18 2 28 2c58 0 102 -12 133 -35c59 -43 92 -104 98 -184c1 -7 1 -15 1 -22c0 -123 -87 -209 -181 -248c8 -57 17 -110 25 -162 c5 -31 6 -58 6 -80c0 -30 -5 -53 -14 -70c-35 -64 -88 -99 -158 -103c-5 0 -11 -1 -16 -1c-37 0 -72 10 -108 27c-50 24 -77 59 -80 105v11c0 29 7 55 20 76c18 28 45 42 79 44h6c49 0 93 -42 97 -87v-9c0 -51 -34 -86 -105 -106c17 -24 51 -36 102 -36c62 0 116 43 140 85 c9 16 13 41 13 74c0 20 -1 42 -5 67c-8 53 -18 106 -26 159zM461 939c-95 0 -135 -175 -135 -286c0 -24 2 -48 5 -71c50 39 92 82 127 128c40 53 60 100 60 140v8c-4 53 -22 81 -55 81h-2zM406 119l54 -326c73 25 110 78 110 161c0 7 0 15 -1 23c-7 95 -57 142 -151 142h-12 zM382 117c-72 -2 -128 -47 -128 -120v-7c2 -46 43 -99 75 -115c-3 -2 -7 -5 -10 -10c-70 33 -116 88 -123 172v11c0 68 44 126 88 159c23 17 49 29 78 36l-29 170c-21 -13 -52 -37 -92 -73c-50 -44 -86 -84 -109 -119c-45 -69 -67 -130 -67 -182v-13c5 -68 35 -127 93 -176 s125 -73 203 -73c25 0 50 3 75 9c-19 111 -36 221 -54 331z" />
      </symbol>
      <symbol id="E083-4i0b6p" viewBox="0 0 1000 1000" overflow="inherit">
         <path transform="scale(1,-1)" d="M208 250c97 0 177 -52 177 -116c0 -69 -40 -111 -118 -125c56 -5 125 -44 125 -116c0 -31 -10 -57 -31 -78c-19 -21 -45 -38 -78 -49l-50 -11c-15 -3 -36 -7 -55 -7c-50 0 -86 16 -113 38c-16 10 -23 18 -34 34c-7 13 -11 25 -11 38c0 43 27 83 68 83l3 -2 c61 0 75 -42 75 -70c0 -19 -24 -42 -26 -57c7 -17 20 -25 37 -25c44 0 94 29 94 78c0 75 -34 125 -138 125v36c84 0 131 22 131 98c0 54 -37 88 -87 88c-26 0 -43 -7 -51 -22c15 -22 44 -16 44 -70c0 -37 -37 -62 -71 -62c-22 0 -69 15 -69 76c0 79 101 116 178 116z" />
      </symbol>
      <symbol id="E088-4i0b6p" viewBox="0 0 1000 1000" overflow="inherit">
         <path transform="scale(1,-1)" d="M195 -214c76 0 88 58 90 68c0 34 -35 60 -57 73l-52 29c-21 10 -32 17 -34 20c-39 -33 -58 -54 -62 -92c5 -23 23 -98 115 -98zM301 135c0 61 -72 76 -113 76c-40 0 -77 -17 -77 -51c3 -21 15 -38 26 -50c17 -15 33 -26 48 -34l65 -28c34 27 51 56 51 87zM176 -250 c-57 0 -166 26 -166 132c0 47 30 86 89 116c-33 15 -79 60 -79 119c0 79 85 132 178 132h18c5 0 21 1 28 -1c25 0 126 -30 126 -110c0 -37 -23 -76 -69 -116c43 -25 83 -71 83 -119c0 -101 -118 -153 -208 -153z" />
      </symbol>
      <symbol id="E0A4-4i0b6p" viewBox="0 0 1000 1000" overflow="inherit">
         <path transform="scale(1,-1)" d="M0 -39c0 68 73 172 200 172c66 0 114 -37 114 -95c0 -84 -106 -171 -218 -171c-64 0 -96 30 -96 94z" />
      </symbol>
      <symbol id="E240-4i0b6p" viewBox="0 0 1000 1000" overflow="inherit">
         <path transform="scale(1,-1)" d="M179 -646c15 29 29 55 46 102c18 49 30 108 30 138c0 105 -80 173 -168 200c-18 5 -47 9 -87 16v190h22c8 0 33 -61 71 -95c4 -3 -2 3 61 -56c62 -58 122 -137 122 -241c0 -38 -13 -106 -35 -163c-20 -51 -43 -99 -66 -132c-6 -5 -10 -7 -13 -7s-5 2 -5 5l4 10 c1 3 14 25 18 33z" />
      </symbol>
      <symbol id="E243-4i0b6p" viewBox="0 0 1000 1000" overflow="inherit">
         <path transform="scale(1,-1)" d="M216 730c-5 8 -10 13 -11 16l-4 10c0 3 2 5 5 5s7 -2 13 -7c35 -42 57 -101 57 -172c0 -34 -6 -65 -17 -94c10 -31 17 -64 17 -96c0 -104 -60 -183 -122 -241c-63 -59 -57 -53 -61 -56c-38 -34 -63 -95 -71 -95h-22v190v190c40 7 69 11 87 16c116 36 175 111 175 197 c0 44 -15 91 -46 137zM248 463c-23 -48 -58 -89 -94 -122c-63 -59 -57 -53 -61 -56c-30 -27 -44 -71 -53 -88c20 3 36 6 47 9c88 27 168 95 168 200c0 19 -3 39 -7 57z" />
      </symbol>
      <symbol id="E262-4i0b6p" viewBox="0 0 1000 1000" overflow="inherit">
         <path transform="scale(1,-1)" d="M136 186v169h17v-164l44 14v-91l-44 -14v-165l44 12v-91l-44 -13v-155h-17v150l-76 -22v-155h-17v149l-43 -13v90l43 14v167l-43 -14v92l43 13v169h17v-163zM60 73v-167l76 22v168z" />
      </symbol>
      <symbol id="E4E6-4i0b6p" viewBox="0 0 1000 1000" overflow="inherit">
         <path transform="scale(1,-1)" d="M0 123c7 34 33 56 69 60c29 -3 43 -9 53 -29c4 -8 7 -15 10 -22c0 -21 -1 -25 -11 -35c-5 -8 -18 -14 -40 -20l12 -3l15 -1c44 0 97 26 122 56c10 11 18 26 24 42c7 1 15 2 22 3l-140 -424h-36l111 330c-10 -6 -27 -12 -53 -16l-52 -8h-10l-20 1c-1 0 -8 3 -21 6 c-37 9 -55 28 -55 60z" />
      </symbol>
      <symbol id="E4E7-4i0b6p" viewBox="0 0 1000 1000" overflow="inherit">
         <path transform="scale(1,-1)" d="M133 -111c0 -33 -21 -50 -52 -55c10 -3 18 -4 25 -4c40 0 69 24 90 47l66 197c-36 -18 -64 -25 -112 -25c-23 0 -38 3 -45 8c-37 7 -55 27 -55 59c8 35 30 54 68 58c45 -6 49 -13 64 -48c0 -3 1 -5 1 -7c0 -27 -25 -46 -52 -49c6 -4 15 -6 26 -6c32 2 62 14 88 29 c32 19 44 36 59 71l7 1l10 2h4c-72 -220 -143 -439 -215 -659h-37l108 324c-20 -13 -51 -20 -82 -20c-21 0 -35 4 -43 10c-37 6 -55 26 -55 58c8 35 31 56 68 60c43 -8 48 -13 64 -51z" />
      </symbol>
      <symbol id="E883-4i0b6p" viewBox="0 0 1000 1000" overflow="inherit">
         <path transform="scale(1,-1)" d="M161 326c52 0 94 -17 94 -68c0 -50 -40 -76 -82 -94c26 -21 39 -42 39 -64c0 -52 -56 -100 -118 -100h-12c-40 0 -82 23 -82 56c0 30 12 49 37 49c17 0 31 -16 34 -31c0 -5 -4 -12 -11 -21c-7 -5 -13 -10 -13 -21l11 -9l17 -4c21 0 40 12 56 37c13 21 19 45 19 70 c-9 30 -28 35 -66 35l6 23c34 0 60 4 77 13c20 11 30 35 30 70c0 28 -12 38 -39 40l-20 -3c-8 -3 -12 -9 -12 -16c2 -7 4 -11 5 -14l4 -11l3 -10l-3 -12c-5 -6 -11 -11 -20 -13c-2 0 -4 -1 -6 -1c-16 0 -30 13 -30 28c0 39 43 71 82 71z" />
      </symbol>
   </defs>
   <style type="text/css">g.page-margin{font-family:Times;} g.ending, g.reh, g.tempo{font-weight:bold;} g.dir, g.dynam, g.mNum{font-style:italic;} g.label{font-weight:normal;}</style>
   <svg class="definition-scale" color="black" viewBox="0 0 12140 2600">
      <g class="page-margin" transform="translate(500, 500)">
         <g id="mkzrsio" class="mdiv pageElementStart" />
         <g id="su1mv1q" class="score pageElementStart" />
         <g id="s3u2d6" class="system">
            <g id="stvx2ox" class="section systemElementStart" />
            <g id="mix683m" class="measure">
               <g id="sizbo6u" class="staff">
                  <path d="M0 477 L2474 477" stroke="currentColor" stroke-width="13" />
                  <path d="M0 657 L2474 657" stroke="currentColor" stroke-width="13" />
                  <path d="M0 837 L2474 837" stroke="currentColor" stroke-width="13" />
                  <path d="M0 1017 L2474 1017" stroke="currentColor" stroke-width="13" />
                  <path d="M0 1197 L2474 1197" stroke="currentColor" stroke-width="13" />
                  <g id="c2bcqu0" class="clef">
                     <use xlink:href="#E050-4i0b6p" x="90" y="1017" height="720px" width="720px" />
                  </g>
                  <g id="kpc5f73" class="keySig">
                     <use xlink:href="#E262-4i0b6p" x="735" y="477" height="720px" width="720px" />
                     <use xlink:href="#E262-4i0b6p" x="913" y="747" height="720px" width="720px" />
                     <use xlink:href="#E262-4i0b6p" x="1091" y="387" height="720px" width="720px" />
                     <use xlink:href="#E262-4i0b6p" x="1269" y="657" height="720px" width="720px" />
                  </g>
                  <g id="mhd537j" class="meterSig">
                     <use xlink:href="#E083-4i0b6p" x="1580" y="657" height="720px" width="720px" />
                     <use xlink:href="#E088-4i0b6p" x="1583" y="1017" height="720px" width="720px" />
                  </g>
                  <g id="lhpc21c" class="layer">
                     <g id="nfhz5md" class="note">
                        <g class="notehead">
                           <use xlink:href="#E0A4-4i0b6p" x="2131" y="837" height="720px" width="720px" />
                        </g>
                        <g id="s6faa5a" class="stem">
                           <rect x="2131" y="865" height="572" width="18" />
                           <g id="fb9zpv6" class="flag">
                              <use xlink:href="#E243-4i0b6p" x="2131" y="1437" height="720px" width="720px" />
                           </g>
                        </g>
                     </g>
                  </g>
               </g>
               <g id="btifp1o" class="barLine">
                  <path d="M2461 1197 L2461 477" stroke="currentColor" stroke-width="27" />
               </g>
            </g>
            <g id="m187aaq" class="measure">
               <g id="sxxhdd5" class="staff">
                  <path d="M2474 477 L5027 477" stroke="currentColor" stroke-width="13" />
                  <path d="M2474 657 L5027 657" stroke="currentColor" stroke-width="13" />
                  <path d="M2474 837 L5027 837" stroke="currentColor" stroke-width="13" />
                  <path d="M2474 1017 L5027 1017" stroke="currentColor" stroke-width="13" />
                  <path d="M2474 1197 L5027 1197" stroke="currentColor" stroke-width="13" />
                  <g id="lqkqfnb" class="layer">
                     <g id="b9u9j17" class="beam">
                        <polygon points="2654,1467 3754,1467 3754,1377 2654,1377 " />
                        <polygon points="3113,1332 3429,1332 3429,1242 3113,1242 " />
                        <polygon points="3429,1332 3754,1332 3754,1242 3429,1242 " />
                        <g id="nr808qh" class="note">
                           <g class="notehead">
                              <use xlink:href="#E0A4-4i0b6p" x="2654" y="837" height="720px" width="720px" />
                           </g>
                           <g id="svi2fhy" class="stem">
                              <rect x="2654" y="865" height="584" width="18" />
                           </g>
                        </g>
                        <g id="ngyt1tt" class="note">
                           <g class="notehead">
                              <use xlink:href="#E0A4-4i0b6p" x="3104" y="837" height="720px" width="720px" />
                           </g>
                           <g id="sn5oz3p" class="stem">
                              <rect x="3104" y="865" height="584" width="18" />
                           </g>
                        </g>
                        <g id="n8g0adg" class="note">
                           <g class="notehead">
                              <use xlink:href="#E0A4-4i0b6p" x="3420" y="567" height="720px" width="720px" />
                           </g>
                           <g id="s5c7mjm" class="stem">
                              <rect x="3420" y="595" height="854" width="18" />
                           </g>
                        </g>
                        <g id="n9rhf3s" class="note">
                           <g class="notehead">
                              <use xlink:href="#E0A4-4i0b6p" x="3736" y="837" height="720px" width="720px" />
                           </g>
                           <g id="so750ss" class="stem">
                              <rect x="3736" y="865" height="584" width="18" />
                           </g>
                        </g>
                     </g>
                     <g id="trcqzut" class="tuplet">
                        <g id="ndpaafj" class="tupletNum">
                           <use xlink:href="#E883-4i0b6p" x="4445" y="311" height="720px" width="720px" />
                        </g>
                        <g id="bwgd7pp" class="beam">
                           <polygon points="4260,297 4910,477 4910,567 4260,387 " />
                           <polygon points="4260,432 4585,522 4585,612 4260,522 " />
                           <polygon points="4585,522 4910,612 4910,702 4585,612 " />
                           <g id="ncrc9as" class="note">
                              <g class="notehead">
                                 <use xlink:href="#E0A4-4i0b6p" x="4052" y="927" height="720px" width="720px" />
                              </g>
                              <g id="sdrq8d9" class="stem">
                                 <rect x="4260" y="315" height="584" width="18" />
                              </g>
                           </g>
                           <g id="n5wvzxe" class="note">
                              <g class="notehead">
                                 <use xlink:href="#E0A4-4i0b6p" x="4368" y="1107" height="720px" width="720px" />
                              </g>
                              <g id="shqy3dr" class="stem">
                                 <rect x="4576" y="405" height="674" width="18" />
                              </g>
                              <g id="auu3pat" class="accid" />
                           </g>
                           <g id="nha1foc" class="note">
                              <g class="notehead">
                                 <use xlink:href="#E0A4-4i0b6p" x="4684" y="1287" height="720px" width="720px" />
                              </g>
                              <g id="s58mnig" class="stem">
                                 <rect x="4892" y="495" height="764" width="18" />
                              </g>
                              <g id="amcwn3n" class="accid" />
                           </g>
                        </g>
                     </g>
                  </g>
               </g>
               <g id="tog88md" class="tie">
                  <path d="M2925,702 C2958,589 3024,589 3059,702 C3024,636 2958,636 2925,702" stroke="currentColor" stroke-linecap="round" stroke-linejoin="round" stroke-width="9" />
               </g>
               <g id="boe2sk1" class="barLine">
                  <path d="M5014 1197 L5014 477" stroke="currentColor" stroke-width="27" />
               </g>
            </g>
            <g id="mkx1fl9" class="measure">
               <g id="sjp2ef5" class="staff">
                  <path d="M5027 477 L6924 477" stroke="currentColor" stroke-width="13" />
                  <path d="M5027 657 L6924 657" stroke="currentColor" stroke-width="13" />
                  <path d="M5027 837 L6924 837" stroke="currentColor" stroke-width="13" />
                  <path d="M5027 1017 L6924 1017" stroke="currentColor" stroke-width="13" />
                  <path d="M5027 1197 L6924 1197" stroke="currentColor" stroke-width="13" />
                  <g class="ledgerLines below">
                     <path d="M5917 1377 L6239 1377" stroke="currentColor" stroke-width="22" />
                  </g>
                  <g id="lvmuw0f" class="layer">
                     <g id="bitb86x" class="beam">
                        <polygon points="5415,477 5875,297 5875,387 5415,567 " />
                        <polygon points="5415,612 5875,432 5875,522 5415,702 " />
                        <polygon points="5649,656 5875,567 5875,657 5649,746 " />
                        <g id="nvvpcj8" class="note">
                           <g class="notehead">
                              <use xlink:href="#E0A4-4i0b6p" x="5207" y="1197" height="720px" width="720px" />
                           </g>
                           <g id="du146gt" class="dots">
                              <ellipse cx="5523" cy="1107" rx="36" ry="36" />
                           </g>
                           <g id="skur1if" class="stem">
                              <rect x="5415" y="495" height="674" width="18" />
                           </g>
                        </g>
                        <g id="nwah1zu" class="note">
                           <g class="notehead">
                              <use xlink:href="#E0A4-4i0b6p" x="5649" y="1017" height="720px" width="720px" />
                           </g>
                           <g id="skyhj9q" class="stem">
                              <rect x="5857" y="315" height="674" width="18" />
                           </g>
                           <g id="aq5aymx" class="accid" />
                        </g>
                     </g>
                     <g id="n25fnmv" class="note">
                        <g class="notehead">
                           <use xlink:href="#E0A4-4i0b6p" x="5965" y="1467" height="720px" width="720px" />
                        </g>
                        <g id="sxxjl0f" class="stem">
                           <rect x="6173" y="837" height="602" width="18" />
                           <g id="fjr2b5e" class="flag">
                              <use xlink:href="#E240-4i0b6p" x="6173" y="837" height="720px" width="720px" />
                           </g>
                        </g>
                     </g>
                     <g id="rhs6k5m" class="rest">
                        <use xlink:href="#E4E6-4i0b6p" x="6461" y="837" height="720px" width="720px" />
                     </g>
                  </g>
               </g>
               <g id="bwbw9sp" class="barLine">
                  <path d="M6911 1197 L6911 477" stroke="currentColor" stroke-width="27" />
               </g>
            </g>
            <g id="mr2ih02" class="measure">
               <g id="sm6wkw3" class="staff">
                  <path d="M6924 477 L9975 477" stroke="currentColor" stroke-width="13" />
                  <path d="M6924 657 L9975 657" stroke="currentColor" stroke-width="13" />
                  <path d="M6924 837 L9975 837" stroke="currentColor" stroke-width="13" />
                  <path d="M6924 1017 L9975 1017" stroke="currentColor" stroke-width="13" />
                  <path d="M6924 1197 L9975 1197" stroke="currentColor" stroke-width="13" />
                  <g id="ltwlf7e" class="layer">
                     <g id="tteespf" class="tuplet">
                        <g id="n59f4gx" class="tupletNum">
                           <use xlink:href="#E883-4i0b6p" x="7497" y="324" height="720px" width="720px" />
                        </g>
                        <g id="bghtiwm" class="beam">
                           <polygon points="7312,387 7962,387 7962,477 7312,477 " />
                           <polygon points="7312,522 7637,522 7637,612 7312,612 " />
                           <polygon points="7637,522 7962,522 7962,612 7637,612 " />
                           <g id="nw4neay" class="note">
                              <g class="notehead">
                                 <use xlink:href="#E0A4-4i0b6p" x="7104" y="1197" height="720px" width="720px" />
                              </g>
                              <g id="syx7lds" class="stem">
                                 <rect x="7312" y="405" height="764" width="18" />
                              </g>
                           </g>
                           <g id="nhx26yy" class="note">
                              <g class="notehead">
                                 <use xlink:href="#E0A4-4i0b6p" x="7420" y="1017" height="720px" width="720px" />
                              </g>
                              <g id="seimq32" class="stem">
                                 <rect x="7628" y="405" height="584" width="18" />
                              </g>
                              <g id="aprha78" class="accid" />
                           </g>
                           <g id="nic3wf9" class="note">
                              <g class="notehead">
                                 <use xlink:href="#E0A4-4i0b6p" x="7736" y="1107" height="720px" width="720px" />
                              </g>
                              <g id="s51bomw" class="stem">
                                 <rect x="7944" y="405" height="674" width="18" />
                              </g>
                              <g id="azhv2or" class="accid" />
                           </g>
                        </g>
                     </g>
                     <g id="t4gabjy" class="tuplet">
                        <g id="nk2966v" class="tupletNum">
                           <use xlink:href="#E883-4i0b6p" x="8445" y="234" height="720px" width="720px" />
                        </g>
                        <g id="bxf3g8n" class="beam">
                           <polygon points="8260,297 8910,297 8910,387 8260,387 " />
                           <polygon points="8260,432 8585,432 8585,522 8260,522 " />
                           <polygon points="8585,432 8910,432 8910,522 8585,522 " />
                           <g id="nbbwgg8" class="note">
                              <g class="notehead">
                                 <use xlink:href="#E0A4-4i0b6p" x="8052" y="1107" height="720px" width="720px" />
                              </g>
                              <g id="s8ycvpz" class="stem">
                                 <rect x="8260" y="315" height="764" width="18" />
                              </g>
                              <g id="avk3856" class="accid" />
                           </g>
                           <g id="nz1h6uh" class="note">
                              <g class="notehead">
                                 <use xlink:href="#E0A4-4i0b6p" x="8368" y="927" height="720px" width="720px" />
                              </g>
                              <g id="shclczy" class="stem">
                                 <rect x="8576" y="315" height="584" width="18" />
                              </g>
                           </g>
                           <g id="nhjkrt1" class="note">
                              <g class="notehead">
                                 <use xlink:href="#E0A4-4i0b6p" x="8684" y="1017" height="720px" width="720px" />
                              </g>
                              <g id="sghaer8" class="stem">
                                 <rect x="8892" y="315" height="674" width="18" />
                              </g>
                              <g id="a8a5i0c" class="accid" />
                           </g>
                        </g>
                     </g>
                     <g id="tkacx9" class="tuplet">
                        <g id="ny4tbaa" class="tupletNum">
                           <use xlink:href="#E883-4i0b6p" x="9393" y="293" height="720px" width="720px" />
                        </g>
                        <g id="b1s19m0" class="beam">
                           <polygon points="9208,432 9858,252 9858,342 9208,522 " />
                           <polygon points="9208,567 9533,477 9533,567 9208,657 " />
                           <polygon points="9533,477 9858,387 9858,477 9533,567 " />
                           <g id="n9ga3u9" class="note">
                              <g class="notehead">
                                 <use xlink:href="#E0A4-4i0b6p" x="9000" y="1017" height="720px" width="720px" />
                              </g>
                              <g id="s4h4y6f" class="stem">
                                 <rect x="9208" y="450" height="539" width="18" />
                              </g>
                              <g id="aavne0z" class="accid" />
                           </g>
                           <g id="n380980" class="note">
                              <g class="notehead">
                                 <use xlink:href="#E0A4-4i0b6p" x="9316" y="1197" height="720px" width="720px" />
                              </g>
                              <g id="s73efh3" class="stem">
                                 <rect x="9524" y="360" height="809" width="18" />
                              </g>
                           </g>
                           <g id="nxnrpvo" class="note">
                              <g class="notehead">
                                 <use xlink:href="#E0A4-4i0b6p" x="9632" y="837" height="720px" width="720px" />
                              </g>
                              <g id="sbc6fku" class="stem">
                                 <rect x="9840" y="270" height="539" width="18" />
                              </g>
                           </g>
                        </g>
                     </g>
                  </g>
               </g>
               <g id="bcz3tgl" class="barLine">
                  <path d="M9962 1197 L9962 477" stroke="currentColor" stroke-width="27" />
               </g>
            </g>
            <g id="m8rupnj" class="measure">
               <g id="s5o9s7y" class="staff">
                  <path d="M9975 477 L11145 477" stroke="currentColor" stroke-width="13" />
                  <path d="M9975 657 L11145 657" stroke="currentColor" stroke-width="13" />
                  <path d="M9975 837 L11145 837" stroke="currentColor" stroke-width="13" />
                  <path d="M9975 1017 L11145 1017" stroke="currentColor" stroke-width="13" />
                  <path d="M9975 1197 L11145 1197" stroke="currentColor" stroke-width="13" />
                  <g id="l7k0j67" class="layer">
                     <g id="n2maivp" class="note">
                        <g class="notehead">
                           <use xlink:href="#E0A4-4i0b6p" x="10155" y="1107" height="720px" width="720px" />
                        </g>
                        <g id="smck0nb" class="stem">
                           <rect x="10363" y="477" height="602" width="18" />
                        </g>
                        <g id="acgsjf5" class="accid" />
                     </g>
                     <g id="rdn5azp" class="rest">
                        <use xlink:href="#E4E7-4i0b6p" x="10845" y="837" height="720px" width="720px" />
                     </g>
                  </g>
               </g>
               <g id="b9ooav6" class="barLine" />
            </g>
            <g id="sp7jlg0" class="systemElementEnd stvx2ox" />
         </g>
         <g id="pxb5k95" class="pageElementEnd su1mv1q" />
         <g id="p8iqmcy" class="pageElementEnd mkzrsio" />
      </g>
   </svg>
</svg>
