<svg width="663.5px" height="124.5px" version="1.1" xmlns="http://www.w3.org/2000/svg" xmlns:xlink="http://www.w3.org/1999/xlink" xmlns:mei="http://www.music-encoding.org/ns/mei" overflow="visible">
   <desc>Engraved by Verovio 3.4.1-8f65a58</desc>
   <defs>
      <symbol id="E05C-0000000195400260" viewBox="0 0 1000 1000" overflow="inherit">
         <path transform="scale(1,-1)" d="M175 0v502h43v-456c13 7 25 18 37 29c10 12 20 24 27 38c6 14 10 31 14 49c3 20 5 41 5 62c7 -35 32 -54 73 -60c78 19 99 68 100 165c0 44 -9 77 -31 100c-18 23 -41 35 -69 35c-43 0 -65 -37 -66 -84c7 15 19 18 39 24c6 0 10 -2 16 -4l17 -10l10 -14l7 -18 c-4 -32 -23 -48 -56 -48c-56 0 -77 39 -77 98c8 28 13 44 30 61c7 7 14 13 23 17c3 3 22 9 27 11l34 3l35 2c120 0 190 -61 190 -178l3 -33c0 -52 -20 -97 -60 -134c-20 -17 -45 -29 -74 -39c-31 -9 -64 -13 -101 -13l-93 -88v-34l93 -88c37 0 70 -4 101 -13 c29 -10 54 -22 74 -39c40 -37 60 -82 60 -134l-3 -33c0 -117 -70 -178 -190 -178l-35 2l-34 3c-5 2 -24 8 -27 11c-31 13 -43 42 -53 78c0 59 21 98 77 98c33 0 52 -16 56 -48l-7 -18l-10 -14l-17 -10c-6 -2 -10 -4 -16 -4c-20 6 -32 9 -39 24c1 -47 23 -84 66 -84 c28 0 51 12 69 35c22 23 31 56 31 100c-1 97 -22 146 -100 165c-41 -6 -66 -25 -73 -60c0 21 -2 42 -5 62c-4 18 -8 35 -14 49c-7 14 -17 26 -27 38c-12 11 -24 22 -37 29v-456h-43v502zM0 502h118v-502v-502h-118v502v502z" />
      </symbol>
      <symbol id="E08B-0000000195400260" viewBox="0 0 1000 1000" overflow="inherit">
         <path transform="scale(1,-1)" d="M188 200c-42 -22 -63 -69 -63 -141v-119c0 -39 7 -70 19 -94s26 -40 44 -48v402zM0 -0c0 127 80 220 186 246v72h32l-6 -72c33 0 71 0 101 -11c54 -20 102 -65 102 -135c0 -16 -4 -30 -13 -43s-20 -24 -32 -29l-20 -8l-23 -3c-22 2 -41 8 -55 21s-21 31 -26 51 c0 38 45 80 79 80c12 0 19 3 19 10c0 6 -6 12 -15 18c-19 13 -47 24 -79 24c-10 0 -20 -1 -32 -5v-431c15 -3 12 -4 30 -4c57 0 100 51 121 93l17 39c3 13 5 25 5 35h26c-6 -70 -28 -121 -66 -152s-82 -47 -133 -47v-68h-30v72c-57 10 -122 54 -153 109c-7 12 -13 26 -19 42 c-11 29 -16 61 -16 96z" />
      </symbol>
      <symbol id="E0A4-0000000195400260" viewBox="0 0 1000 1000" overflow="inherit">
         <path transform="scale(1,-1)" d="M0 -39c0 68 73 172 200 172c66 0 114 -37 114 -95c0 -84 -106 -171 -218 -171c-64 0 -96 30 -96 94z" />
      </symbol>
      <symbol id="E241-0000000195400260" viewBox="0 0 1000 1000" overflow="inherit">
         <path transform="scale(1,-1)" d="M179 646c-4 8 -17 30 -18 33l-4 10c0 3 2 5 5 5s7 -2 13 -7c23 -33 46 -81 66 -132c22 -57 35 -125 35 -163c0 -104 -60 -183 -122 -241c-63 -59 -57 -53 -61 -56c-38 -34 -63 -95 -71 -95h-22v190c40 7 69 11 87 16c88 27 168 95 168 200c0 30 -12 89 -30 138 c-17 47 -31 73 -46 102z" />
      </symbol>
      <symbol id="E262-0000000195400260" viewBox="0 0 1000 1000" overflow="inherit">
         <path transform="scale(1,-1)" d="M136 186v169h17v-164l44 14v-91l-44 -14v-165l44 12v-91l-44 -13v-155h-17v150l-76 -22v-155h-17v149l-43 -13v90l43 14v167l-43 -14v92l43 13v169h17v-163zM60 73v-167l76 22v168z" />
      </symbol>
      <symbol id="E4C0-0000000195400260" viewBox="0 0 1000 1000" overflow="inherit">
         <path transform="scale(1,-1)" d="M605 21zM0 0c0 3 3 17 4 21c58 293 250 299 295 299h5h5c42 0 236 -6 295 -299c1 -4 1 -18 1 -21h-32c-1 1 -4 22 -5 25c-10 38 -52 202 -265 202c-208 0 -252 -159 -264 -200c-1 -4 -6 -26 -6 -27h-33zM358 52c0 -30 -25 -55 -55 -55c-29 0 -54 25 -54 55 c0 29 25 54 54 54c30 0 55 -25 55 -54z" />
      </symbol>
      <symbol id="E4E4-0000000195400260" viewBox="0 0 1000 1000" overflow="inherit">
         <path transform="scale(1,-1)" d="M0 10v105c0 9 1 10 10 10h280c9 0 10 -1 10 -10v-105c0 -9 -1 -10 -10 -10h-280c-9 0 -10 1 -10 10z" />
      </symbol>
      <symbol id="E4E6-0000000195400260" viewBox="0 0 1000 1000" overflow="inherit">
         <path transform="scale(1,-1)" d="M0 123c7 34 33 56 69 60c29 -3 43 -9 53 -29c4 -8 7 -15 10 -22c0 -21 -1 -25 -11 -35c-5 -8 -18 -14 -40 -20l12 -3l15 -1c44 0 97 26 122 56c10 11 18 26 24 42c7 1 15 2 22 3l-140 -424h-36l111 330c-10 -6 -27 -12 -53 -16l-52 -8h-10l-20 1c-1 0 -8 3 -21 6 c-37 9 -55 28 -55 60z" />
      </symbol>
      <symbol id="E566-0000000195400260" viewBox="0 0 1000 1000" overflow="inherit">
         <path transform="scale(1,-1)" d="M162 167l-36 -115l-1 -10c0 -10 5 -16 16 -19c32 18 48 43 48 75c0 20 -9 43 -27 69zM432 225c0 -21 -11 -36 -31 -37c-15 0 -20 10 -23 25l3 14l2 11l1 9l-4 4c-1 -1 -2 -1 -3 -1c-23 -13 -36 -24 -47 -48l-12 -27c-18 -50 -31 -105 -47 -157h-60l58 214c0 7 -3 5 -5 9 c-7 0 -25 -8 -51 -28l-37 -28c20 -34 31 -67 31 -97c0 -12 -1 -21 -4 -28l-6 -15c-1 -3 -5 -10 -12 -19c-14 -18 -30 -26 -49 -26c-30 0 -67 18 -67 52c1 1 1 6 3 15l20 84c-9 -5 -21 -8 -36 -8c-21 0 -29 7 -40 19c-10 12 -16 27 -16 47c0 23 6 33 17 45s25 18 46 18 c19 0 39 -8 60 -25l34 117h63l-46 -158l38 31l32 20c21 10 35 13 62 15c16 0 24 -7 24 -21l-1 -10l-6 -24c21 37 44 55 70 55c23 0 39 -23 39 -47zM18 208c0 -27 17 -47 45 -47l3 -2l13 4l23 9l14 55c-17 15 -35 22 -55 22c-26 0 -43 -17 -43 -41z" />
      </symbol>
   </defs>
   <style type="text/css">g.page-margin{font-family:Times;} g.ending, g.reh, g.tempo{font-weight:bold;} g.dir, g.dynam, g.mNum{font-style:italic;} g.label{font-weight:normal;}</style>
   <svg class="definition-scale" color="black" viewBox="0 0 13270 2490">
      <g class="page-margin" transform="translate(500, 500)">
         <g id="system-0000000500782188" class="system">
            <g id="section-0000001622650073" class="section boundaryStart" />
            <g id="measure-0000000074243042" class="measure">
               <g id="staff-0000001784484492" class="staff">
                  <path d="M0 493 L2698 493" stroke="currentColor" stroke-width="13" />
                  <path d="M0 673 L2698 673" stroke="currentColor" stroke-width="13" />
                  <path d="M0 853 L2698 853" stroke="currentColor" stroke-width="13" />
                  <path d="M0 1033 L2698 1033" stroke="currentColor" stroke-width="13" />
                  <path d="M0 1213 L2698 1213" stroke="currentColor" stroke-width="13" />
                  <g id="clef-0000000304987844" class="clef">
                     <use xlink:href="#E05C-0000000195400260" x="90" y="673" height="720px" width="720px" />
                  </g>
                  <g id="keysig-0000002034712366" class="keySig">
                     <use xlink:href="#E262-0000000195400260" x="706" y="1033" height="720px" width="720px" />
                     <use xlink:href="#E262-0000000195400260" x="884" y="673" height="720px" width="720px" />
                  </g>
                  <g id="msig-0000000881140534" class="meterSig">
                     <use xlink:href="#E08B-0000000195400260" x="1205" y="853" height="720px" width="720px" />
                  </g>
                  <g id="layer-0000001264817709" class="layer">
                     <g id="beam-0000001817129560" class="beam">
                        <polygon points="1775,1438 2373,1438 2373,1348 1775,1348 " />
                        <polygon points="2147,1303 2373,1303 2373,1213 2147,1213 " />
                        <g id="note-0000001998097157" class="note">
                           <g class="notehead">
                              <use xlink:href="#E0A4-0000000195400260" x="1775" y="853" height="720px" width="720px" />
                           </g>
                           <g id="dots-0000001816731566" class="dots">
                              <ellipse cx="2091" cy="763" rx="36" ry="36" />
                           </g>
                           <g id="stem-0000001269406752" class="stem">
                              <rect x="1775" y="881" height="539" width="18" />
                           </g>
                        </g>
                        <g id="note-0000001131570933" class="note">
                           <g class="notehead">
                              <use xlink:href="#E0A4-0000000195400260" x="2355" y="853" height="720px" width="720px" />
                           </g>
                           <g id="stem-0000000884936716" class="stem">
                              <rect x="2355" y="881" height="539" width="18" />
                           </g>
                        </g>
                     </g>
                  </g>
               </g>
               <g id="bline-0000001474833169" class="barLineAttr">
                  <path d="M2685 1213 L2685 493" stroke="currentColor" stroke-width="27" />
               </g>
            </g>
            <g id="measure-0000001404280278" class="measure">
               <g id="staff-0000000197493099" class="staff">
                  <path d="M2698 493 L5551 493" stroke="currentColor" stroke-width="13" />
                  <path d="M2698 673 L5551 673" stroke="currentColor" stroke-width="13" />
                  <path d="M2698 853 L5551 853" stroke="currentColor" stroke-width="13" />
                  <path d="M2698 1033 L5551 1033" stroke="currentColor" stroke-width="13" />
                  <path d="M2698 1213 L5551 1213" stroke="currentColor" stroke-width="13" />
                  <g id="layer-0000001358580979" class="layer">
                     <g id="note-0000001624379149" class="note">
                        <g class="notehead">
                           <use xlink:href="#E0A4-0000000195400260" x="2878" y="583" height="720px" width="720px" />
                        </g>
                        <g id="dots-0000000578354438" class="dots">
                           <ellipse cx="3194" cy="583" rx="36" ry="36" />
                        </g>
                        <g id="stem-0000001807130337" class="stem">
                           <rect x="2878" y="611" height="602" width="18" />
                        </g>
                     </g>
                     <g id="note-0000000784558821" class="note">
                        <g class="notehead">
                           <use xlink:href="#E0A4-0000000195400260" x="3758" y="583" height="720px" width="720px" />
                        </g>
                        <g id="stem-0000000892053144" class="stem">
                           <rect x="3758" y="611" height="602" width="18" />
                           <g id="flag-0000001153851501" class="flag">
                              <use xlink:href="#E241-0000000195400260" x="3758" y="1213" height="720px" width="720px" />
                           </g>
                        </g>
                     </g>
                     <g id="note-0000000530511967" class="note">
                        <g class="notehead">
                           <use xlink:href="#E0A4-0000000195400260" x="4208" y="673" height="720px" width="720px" />
                        </g>
                        <g id="dots-0000000616783871" class="dots">
                           <ellipse cx="4524" cy="583" rx="36" ry="36" />
                        </g>
                        <g id="stem-0000001004844897" class="stem">
                           <rect x="4208" y="701" height="602" width="18" />
                        </g>
                        <g id="accid-0000002110010672" class="accid" />
                     </g>
                     <g id="note-0000001617819336" class="note">
                        <g class="notehead">
                           <use xlink:href="#E0A4-0000000195400260" x="5088" y="583" height="720px" width="720px" />
                        </g>
                        <g id="stem-0000000382955828" class="stem">
                           <rect x="5088" y="611" height="602" width="18" />
                           <g id="flag-0000000330111137" class="flag">
                              <use xlink:href="#E241-0000000195400260" x="5088" y="1213" height="720px" width="720px" />
                           </g>
                        </g>
                     </g>
                  </g>
               </g>
               <g id="trill-0000002128236579" class="trill">
                  <use xlink:href="#E566-0000000195400260" x="2835" y="448" height="720px" width="720px" />
               </g>
               <g id="trill-0000001551901393" class="trill">
                  <use xlink:href="#E566-0000000195400260" x="4165" y="448" height="720px" width="720px" />
               </g>
               <g id="bline-0000000704877633" class="barLineAttr">
                  <path d="M5538 1213 L5538 493" stroke="currentColor" stroke-width="27" />
               </g>
            </g>
            <g id="measure-0000000156091745" class="measure">
               <g id="staff-0000001399125485" class="staff">
                  <path d="M5551 493 L8920 493" stroke="currentColor" stroke-width="13" />
                  <path d="M5551 673 L8920 673" stroke="currentColor" stroke-width="13" />
                  <path d="M5551 853 L8920 853" stroke="currentColor" stroke-width="13" />
                  <path d="M5551 1033 L8920 1033" stroke="currentColor" stroke-width="13" />
                  <path d="M5551 1213 L8920 1213" stroke="currentColor" stroke-width="13" />
                  <g id="layer-0000000771515668" class="layer">
                     <g id="beam-0000001044788124" class="beam">
                        <polygon points="5731,1078 6329,1258 6329,1168 5731,988 " />
                        <polygon points="6103,1056 6329,1123 6329,1033 6103,966 " />
                        <g id="note-0000000357571490" class="note">
                           <g class="notehead">
                              <use xlink:href="#E0A4-0000000195400260" x="5731" y="493" height="720px" width="720px" />
                           </g>
                           <g id="dots-0000001723153177" class="dots">
                              <ellipse cx="6047" cy="403" rx="36" ry="36" />
                           </g>
                           <g id="stem-0000001227619358" class="stem">
                              <rect x="5731" y="521" height="539" width="18" />
                           </g>
                        </g>
                        <g id="note-0000001927702196" class="note">
                           <g class="notehead">
                              <use xlink:href="#E0A4-0000000195400260" x="6311" y="673" height="720px" width="720px" />
                           </g>
                           <g id="stem-0000000070982397" class="stem">
                              <rect x="6311" y="701" height="539" width="18" />
                           </g>
                           <g id="accid-0000001952509530" class="accid" />
                        </g>
                     </g>
                     <g id="note-0000000130060903" class="note">
                        <g class="notehead">
                           <use xlink:href="#E0A4-0000000195400260" x="6627" y="853" height="720px" width="720px" />
                        </g>
                        <g id="stem-0000001147722294" class="stem">
                           <rect x="6627" y="881" height="572" width="18" />
                           <g id="flag-0000001070477904" class="flag">
                              <use xlink:href="#E241-0000000195400260" x="6627" y="1453" height="720px" width="720px" />
                           </g>
                        </g>
                     </g>
                     <g id="note-0000001083454666" class="note">
                        <g class="notehead">
                           <use xlink:href="#E0A4-0000000195400260" x="7077" y="493" height="720px" width="720px" />
                        </g>
                        <g id="stem-0000002051621609" class="stem">
                           <rect x="7077" y="521" height="602" width="18" />
                           <g id="flag-0000001606946231" class="flag">
                              <use xlink:href="#E241-0000000195400260" x="7077" y="1123" height="720px" width="720px" />
                           </g>
                        </g>
                     </g>
                     <g id="note-0000001108728549" class="note">
                        <g class="notehead">
                           <use xlink:href="#E0A4-0000000195400260" x="7527" y="583" height="720px" width="720px" />
                        </g>
                        <g id="stem-0000001190959745" class="stem">
                           <rect x="7527" y="611" height="602" width="18" />
                        </g>
                     </g>
                     <g id="note-0000002118797801" class="note">
                        <g class="notehead">
                           <use xlink:href="#E0A4-0000000195400260" x="8217" y="493" height="720px" width="720px" />
                        </g>
                        <g id="stem-0000001912844175" class="stem">
                           <rect x="8217" y="521" height="602" width="18" />
                        </g>
                     </g>
                  </g>
               </g>
               <g id="fermata-0000001942727722" class="fermata">
                  <use xlink:href="#E4C0-0000000195400260" x="6522" y="446" height="720px" width="720px" />
               </g>
               <g id="trill-0000000685118024" class="trill">
                  <use xlink:href="#E566-0000000195400260" x="7484" y="448" height="720px" width="720px" />
               </g>
               <g id="bline-0000000590357944" class="barLineAttr">
                  <path d="M8907 1213 L8907 493" stroke="currentColor" stroke-width="27" />
               </g>
            </g>
            <g id="measure-0000000571540977" class="measure">
               <g id="staff-0000001060806853" class="staff">
                  <path d="M8920 493 L12275 493" stroke="currentColor" stroke-width="13" />
                  <path d="M8920 673 L12275 673" stroke="currentColor" stroke-width="13" />
                  <path d="M8920 853 L12275 853" stroke="currentColor" stroke-width="13" />
                  <path d="M8920 1033 L12275 1033" stroke="currentColor" stroke-width="13" />
                  <path d="M8920 1213 L12275 1213" stroke="currentColor" stroke-width="13" />
                  <g class="ledgerLines above">
                     <path d="M9647 313 L9930 313" stroke="currentColor" stroke-width="22" />
                  </g>
                  <g id="layer-0000000997389814" class="layer">
                     <g id="beam-0000001654001669" class="beam">
                        <polygon points="9100,1123 10014,1213 10014,1123 9100,1033 " />
                        <polygon points="9689,1047 10014,1078 10014,988 9689,957 " />
                        <polygon points="9689,912 10014,943 10014,853 9689,822 " />
                        <g id="note-0000002020739063" class="note">
                           <g class="notehead">
                              <use xlink:href="#E0A4-0000000195400260" x="9100" y="403" height="720px" width="720px" />
                           </g>
                           <g id="dots-0000001808266298" class="dots">
                              <ellipse cx="9416" cy="403" rx="36" ry="36" />
                           </g>
                           <g id="stem-0000001341853635" class="stem">
                              <rect x="9100" y="431" height="674" width="18" />
                           </g>
                           <g id="accid-0000000107554536" class="accid" />
                        </g>
                        <g id="note-0000001777724115" class="note">
                           <g class="notehead">
                              <use xlink:href="#E0A4-0000000195400260" x="9680" y="313" height="720px" width="720px" />
                           </g>
                           <g id="stem-0000000343098142" class="stem">
                              <rect x="9680" y="341" height="823" width="18" />
                           </g>
                        </g>
                        <g id="note-0000000269220094" class="note">
                           <g class="notehead">
                              <use xlink:href="#E0A4-0000000195400260" x="9996" y="493" height="720px" width="720px" />
                           </g>
                           <g id="stem-0000000456880399" class="stem">
                              <rect x="9996" y="521" height="674" width="18" />
                           </g>
                        </g>
                     </g>
                     <g id="note-0000000034075629" class="note">
                        <g class="notehead">
                           <use xlink:href="#E0A4-0000000195400260" x="10312" y="583" height="720px" width="720px" />
                        </g>
                        <g id="stem-0000001534827968" class="stem">
                           <rect x="10312" y="611" height="602" width="18" />
                           <g id="flag-0000000280090412" class="flag">
                              <use xlink:href="#E241-0000000195400260" x="10312" y="1213" height="720px" width="720px" />
                           </g>
                        </g>
                     </g>
                     <g id="rest-0000001864546517" class="rest">
                        <use xlink:href="#E4E6-0000000195400260" x="10762" y="853" height="720px" width="720px" />
                     </g>
                     <g id="rest-0000001351934195" class="rest">
                        <use xlink:href="#E4E4-0000000195400260" x="11212" y="853" height="720px" width="720px" />
                     </g>
                  </g>
               </g>
               <g id="trill-0000001635339425" class="trill">
                  <use xlink:href="#E566-0000000195400260" x="9057" y="262" height="720px" width="720px" />
               </g>
               <g id="fermata-0000001478446501" class="fermata">
                  <use xlink:href="#E4C0-0000000195400260" x="10207" y="350" height="720px" width="720px" />
               </g>
               <g id="bline-0000001137623865" class="barLineAttr">
                  <path d="M12262 1213 L12262 493" stroke="currentColor" stroke-width="27" />
               </g>
            </g>
            <g id="bdend-0000001102246882" class="boundaryEnd section-0000001622650073" />
         </g>
      </g>
   </svg>
</svg>
