<svg width="620px" height="110px" version="1.1" xmlns="http://www.w3.org/2000/svg" xmlns:xlink="http://www.w3.org/1999/xlink" xmlns:mei="http://www.music-encoding.org/ns/mei" overflow="visible">
   <desc>Engraved by Verovio 4.4.0-66ab39c</desc>
   <defs>
      <symbol id="E083-1m8zn17" viewBox="0 0 1000 1000" overflow="inherit">
         <path transform="scale(1,-1)" d="M208 250c97 0 177 -52 177 -116c0 -69 -40 -111 -118 -125c56 -5 125 -44 125 -116c0 -31 -10 -57 -31 -78c-19 -21 -45 -38 -78 -49l-50 -11c-15 -3 -36 -7 -55 -7c-50 0 -86 16 -113 38c-16 10 -23 18 -34 34c-7 13 -11 25 -11 38c0 43 27 83 68 83l3 -2 c61 0 75 -42 75 -70c0 -19 -24 -42 -26 -57c7 -17 20 -25 37 -25c44 0 94 29 94 78c0 75 -34 125 -138 125v36c84 0 131 22 131 98c0 54 -37 88 -87 88c-26 0 -43 -7 -51 -22c15 -22 44 -16 44 -70c0 -37 -37 -62 -71 -62c-22 0 -69 15 -69 76c0 79 101 116 178 116z" />
      </symbol>
      <symbol id="E088-1m8zn17" viewBox="0 0 1000 1000" overflow="inherit">
         <path transform="scale(1,-1)" d="M195 -214c76 0 88 58 90 68c0 34 -35 60 -57 73l-52 29c-21 10 -32 17 -34 20c-39 -33 -58 -54 -62 -92c5 -23 23 -98 115 -98zM301 135c0 61 -72 76 -113 76c-40 0 -77 -17 -77 -51c3 -21 15 -38 26 -50c17 -15 33 -26 48 -34l65 -28c34 27 51 56 51 87zM176 -250 c-57 0 -166 26 -166 132c0 47 30 86 89 116c-33 15 -79 60 -79 119c0 79 85 132 178 132h18c5 0 21 1 28 -1c25 0 126 -30 126 -110c0 -37 -23 -76 -69 -116c43 -25 83 -71 83 -119c0 -101 -118 -153 -208 -153z" />
      </symbol>
      <symbol id="E0A4-1m8zn17" viewBox="0 0 1000 1000" overflow="inherit">
         <path transform="scale(1,-1)" d="M0 -39c0 68 73 172 200 172c66 0 114 -37 114 -95c0 -84 -106 -171 -218 -171c-64 0 -96 30 -96 94z" />
      </symbol>
      <symbol id="E050-1m8zn17" viewBox="0 0 1000 1000" overflow="inherit">
         <path transform="scale(1,-1)" d="M441 -245c-23 -4 -48 -6 -76 -6c-59 0 -102 7 -130 20c-88 42 -150 93 -187 154c-26 44 -43 103 -48 176c0 6 -1 13 -1 19c0 54 15 111 45 170c29 57 65 106 110 148s96 85 153 127c-3 16 -8 46 -13 92c-4 43 -5 73 -5 89c0 117 16 172 69 257c34 54 64 82 89 82 c21 0 43 -30 69 -92s39 -115 41 -159v-15c0 -109 -21 -162 -67 -241c-13 -20 -63 -90 -98 -118c-13 -9 -25 -19 -37 -29l31 -181c8 1 18 2 28 2c58 0 102 -12 133 -35c59 -43 92 -104 98 -184c1 -7 1 -15 1 -22c0 -123 -87 -209 -181 -248c8 -57 17 -110 25 -162 c5 -31 6 -58 6 -80c0 -30 -5 -53 -14 -70c-35 -64 -88 -99 -158 -103c-5 0 -11 -1 -16 -1c-37 0 -72 10 -108 27c-50 24 -77 59 -80 105v11c0 29 7 55 20 76c18 28 45 42 79 44h6c49 0 93 -42 97 -87v-9c0 -51 -34 -86 -105 -106c17 -24 51 -36 102 -36c62 0 116 43 140 85 c9 16 13 41 13 74c0 20 -1 42 -5 67c-8 53 -18 106 -26 159zM461 939c-95 0 -135 -175 -135 -286c0 -24 2 -48 5 -71c50 39 92 82 127 128c40 53 60 100 60 140v8c-4 53 -22 81 -55 81h-2zM406 119l54 -326c73 25 110 78 110 161c0 7 0 15 -1 23c-7 95 -57 142 -151 142h-12 zM382 117c-72 -2 -128 -47 -128 -120v-7c2 -46 43 -99 75 -115c-3 -2 -7 -5 -10 -10c-70 33 -116 88 -123 172v11c0 68 44 126 88 159c23 17 49 29 78 36l-29 170c-21 -13 -52 -37 -92 -73c-50 -44 -86 -84 -109 -119c-45 -69 -67 -130 -67 -182v-13c5 -68 35 -127 93 -176 s125 -73 203 -73c25 0 50 3 75 9c-19 111 -36 221 -54 331z" />
      </symbol>
      <symbol id="E262-1m8zn17" viewBox="0 0 1000 1000" overflow="inherit">
         <path transform="scale(1,-1)" d="M136 186v169h17v-164l44 14v-91l-44 -14v-165l44 12v-91l-44 -13v-155h-17v150l-76 -22v-155h-17v149l-43 -13v90l43 14v167l-43 -14v92l43 13v169h17v-163zM60 73v-167l76 22v168z" />
      </symbol>
      <symbol id="E4E6-1m8zn17" viewBox="0 0 1000 1000" overflow="inherit">
         <path transform="scale(1,-1)" d="M0 123c7 34 33 56 69 60c29 -3 43 -9 53 -29c4 -8 7 -15 10 -22c0 -21 -1 -25 -11 -35c-5 -8 -18 -14 -40 -20l12 -3l15 -1c44 0 97 26 122 56c10 11 18 26 24 42c7 1 15 2 22 3l-140 -424h-36l111 330c-10 -6 -27 -12 -53 -16l-52 -8h-10l-20 1c-1 0 -8 3 -21 6 c-37 9 -55 28 -55 60z" />
      </symbol>
   </defs>
   <style type="text/css">g.page-margin{font-family:Times,serif;} g.ending, g.fing, g.reh, g.tempo{font-weight:bold;} g.dir, g.dynam, g.mNum{font-style:italic;} g.label{font-weight:normal;}</style>
   <svg class="definition-scale" color="black" viewBox="0 0 13760 2440">
      <g class="page-margin" transform="translate(500, 500)">
         <g id="mivwb27" class="mdiv pageMilestone" />
         <g id="s1f31sgl" class="score pageMilestone" />
         <g id="s1ccvmbx" class="system">
            <g id="s6oscn4" class="section systemMilestone" />
            <g id="mfnjo7e" class="measure">
               <g id="soma0gm" class="staff">
                  <path d="M0 430 L3316 430" stroke="currentColor" stroke-width="13" />
                  <path d="M0 610 L3316 610" stroke="currentColor" stroke-width="13" />
                  <path d="M0 790 L3316 790" stroke="currentColor" stroke-width="13" />
                  <path d="M0 970 L3316 970" stroke="currentColor" stroke-width="13" />
                  <path d="M0 1150 L3316 1150" stroke="currentColor" stroke-width="13" />
                  <g id="cdhioz2" class="clef">
                     <use xlink:href="#E050-1m8zn17" x="90" y="970" height="720px" width="720px" />
                  </g>
                  <g id="k1vn47bf" class="keySig">
                     <g id="k1kz42q6" class="keyAccid">
                        <use xlink:href="#E262-1m8zn17" x="735" y="430" height="720px" width="720px" />
                     </g>
                     <g id="kcy59xo" class="keyAccid">
                        <use xlink:href="#E262-1m8zn17" x="913" y="700" height="720px" width="720px" />
                     </g>
                     <g id="k32l04c" class="keyAccid">
                        <use xlink:href="#E262-1m8zn17" x="1091" y="340" height="720px" width="720px" />
                     </g>
                  </g>
                  <g id="mfdh2og" class="meterSig">
                     <use xlink:href="#E083-1m8zn17" x="1402" y="610" height="720px" width="720px" />
                     <use xlink:href="#E088-1m8zn17" x="1405" y="970" height="720px" width="720px" />
                  </g>
                  <g id="l1a2rmes" class="layer">
                     <g id="r3ie8ud" class="rest">
                        <use xlink:href="#E4E6-1m8zn17" x="1953" y="790" height="720px" width="720px" />
                     </g>
                     <g id="b1m11mph" class="beam">
                        <polygon points="2403,1375 2871,1330 2871,1240 2403,1285" />
                        <g id="n37hn12" class="note">
                           <g class="notehead">
                              <use xlink:href="#E0A4-1m8zn17" x="2403" y="700" height="720px" width="720px" />
                           </g>
                           <g id="s1hwlyfa" class="stem">
                              <path d="M2412 728 L2412 1357" stroke="currentColor" stroke-width="18" />
                           </g>
                           <g id="a1wvbc8t" class="accid" />
                        </g>
                        <g id="n1kyp1ws" class="note">
                           <g class="notehead">
                              <use xlink:href="#E0A4-1m8zn17" x="2853" y="610" height="720px" width="720px" />
                           </g>
                           <g id="spk7z6m" class="stem">
                              <path d="M2862 638 L2862 1312" stroke="currentColor" stroke-width="18" />
                           </g>
                        </g>
                     </g>
                  </g>
               </g>
               <g id="t1sqgsul" class="tie">
                  <path d="M3124,565 C3191,412 3379,412 3451,565 C3354,459 3218,459 3124,565" stroke="currentColor" stroke-linecap="round" stroke-linejoin="round" stroke-width="9" />
               </g>
               <g id="b14otqmf" class="barLine">
                  <path d="M3303 430 L3303 1150" stroke="currentColor" stroke-width="27" />
               </g>
            </g>
            <g id="mhbsl03" class="measure">
               <g id="s4vs11m" class="staff">
                  <path d="M3316 430 L4859 430" stroke="currentColor" stroke-width="13" />
                  <path d="M3316 610 L4859 610" stroke="currentColor" stroke-width="13" />
                  <path d="M3316 790 L4859 790" stroke="currentColor" stroke-width="13" />
                  <path d="M3316 970 L4859 970" stroke="currentColor" stroke-width="13" />
                  <path d="M3316 1150 L4859 1150" stroke="currentColor" stroke-width="13" />
                  <g id="l1s8kxne" class="layer">
                     <g id="b1oxd4nf" class="beam">
                        <polygon points="3496,1195 4414,1375 4414,1285 3496,1105" />
                        <g id="n1eyoooy" class="note">
                           <g class="notehead">
                              <use xlink:href="#E0A4-1m8zn17" x="3496" y="610" height="720px" width="720px" />
                           </g>
                           <g id="s1vmyhcz" class="stem">
                              <path d="M3505 638 L3505 1177" stroke="currentColor" stroke-width="18" />
                           </g>
                        </g>
                        <g id="nwtw03u" class="note">
                           <g class="notehead">
                              <use xlink:href="#E0A4-1m8zn17" x="3946" y="700" height="720px" width="720px" />
                           </g>
                           <g id="sc0c02x" class="stem">
                              <path d="M3955 728 L3955 1267" stroke="currentColor" stroke-width="18" />
                           </g>
                           <g id="a4s4uc4" class="accid" />
                        </g>
                        <g id="n12ecyql" class="note">
                           <g class="notehead">
                              <use xlink:href="#E0A4-1m8zn17" x="4396" y="790" height="720px" width="720px" />
                           </g>
                           <g id="s1lqnom3" class="stem">
                              <path d="M4405 818 L4405 1357" stroke="currentColor" stroke-width="18" />
                           </g>
                        </g>
                     </g>
                  </g>
               </g>
               <g id="b2rcrlx" class="barLine">
                  <path d="M4846 430 L4846 1150" stroke="currentColor" stroke-width="27" />
               </g>
            </g>
            <g id="mmwwo00" class="measure">
               <g id="s19a056m" class="staff">
                  <path d="M4859 430 L6588 430" stroke="currentColor" stroke-width="13" />
                  <path d="M4859 610 L6588 610" stroke="currentColor" stroke-width="13" />
                  <path d="M4859 790 L6588 790" stroke="currentColor" stroke-width="13" />
                  <path d="M4859 970 L6588 970" stroke="currentColor" stroke-width="13" />
                  <path d="M4859 1150 L6588 1150" stroke="currentColor" stroke-width="13" />
                  <g id="l1e7ub62" class="layer">
                     <g id="b23h8om" class="beam">
                        <polygon points="5225,1420 6143,1240 6143,1150 5225,1330" />
                        <g id="njwwkjn" class="note">
                           <g class="notehead">
                              <use xlink:href="#E0A4-1m8zn17" x="5225" y="880" height="720px" width="720px" />
                           </g>
                           <g id="sixe56f" class="stem">
                              <path d="M5234 908 L5234 1402" stroke="currentColor" stroke-width="18" />
                           </g>
                           <g id="a1bpmbr1" class="accid">
                              <use xlink:href="#E262-1m8zn17" x="5039" y="880" height="720px" width="720px" />
                           </g>
                        </g>
                        <g id="nzub3xf" class="note">
                           <g class="notehead">
                              <use xlink:href="#E0A4-1m8zn17" x="5675" y="790" height="720px" width="720px" />
                           </g>
                           <g id="s1t7t9o8" class="stem">
                              <path d="M5684 818 L5684 1312" stroke="currentColor" stroke-width="18" />
                           </g>
                        </g>
                        <g id="nzv1mc9" class="note">
                           <g class="notehead">
                              <use xlink:href="#E0A4-1m8zn17" x="6125" y="430" height="720px" width="720px" />
                           </g>
                           <g id="s186unp8" class="stem">
                              <path d="M6134 458 L6134 1222" stroke="currentColor" stroke-width="18" />
                           </g>
                           <g id="ao3qcsy" class="accid" />
                        </g>
                     </g>
                  </g>
               </g>
               <g id="t11rutd2" class="tie">
                  <path d="M6396,385 C6463,232 6651,232 6723,385 C6626,279 6490,279 6396,385" stroke="currentColor" stroke-linecap="round" stroke-linejoin="round" stroke-width="9" />
               </g>
               <g id="b36inxr" class="barLine">
                  <path d="M6575 430 L6575 1150" stroke="currentColor" stroke-width="27" />
               </g>
            </g>
            <g id="ma56g6u" class="measure">
               <g id="slwp7zq" class="staff">
                  <path d="M6588 430 L8131 430" stroke="currentColor" stroke-width="13" />
                  <path d="M6588 610 L8131 610" stroke="currentColor" stroke-width="13" />
                  <path d="M6588 790 L8131 790" stroke="currentColor" stroke-width="13" />
                  <path d="M6588 970 L8131 970" stroke="currentColor" stroke-width="13" />
                  <path d="M6588 1150 L8131 1150" stroke="currentColor" stroke-width="13" />
                  <g id="lt9ronl" class="layer">
                     <g id="b16wv72r" class="beam">
                        <polygon points="6768,1015 7686,1195 7686,1105 6768,925" />
                        <g id="n14qhuvu" class="note">
                           <g class="notehead">
                              <use xlink:href="#E0A4-1m8zn17" x="6768" y="430" height="720px" width="720px" />
                           </g>
                           <g id="s1vt5nji" class="stem">
                              <path d="M6777 458 L6777 997" stroke="currentColor" stroke-width="18" />
                           </g>
                           <g id="agtp1zt" class="accid" />
                        </g>
                        <g id="n1dict13" class="note">
                           <g class="notehead">
                              <use xlink:href="#E0A4-1m8zn17" x="7218" y="520" height="720px" width="720px" />
                           </g>
                           <g id="sqy4i76" class="stem">
                              <path d="M7227 548 L7227 1087" stroke="currentColor" stroke-width="18" />
                           </g>
                        </g>
                        <g id="ncz237t" class="note">
                           <g class="notehead">
                              <use xlink:href="#E0A4-1m8zn17" x="7668" y="610" height="720px" width="720px" />
                           </g>
                           <g id="s3ruo0a" class="stem">
                              <path d="M7677 638 L7677 1177" stroke="currentColor" stroke-width="18" />
                           </g>
                        </g>
                     </g>
                  </g>
               </g>
               <g id="bv3lqdm" class="barLine">
                  <path d="M8118 430 L8118 1150" stroke="currentColor" stroke-width="27" />
               </g>
            </g>
            <g id="m2gqwr3" class="measure">
               <g id="s1awc8ol" class="staff">
                  <path d="M8131 430 L9674 430" stroke="currentColor" stroke-width="13" />
                  <path d="M8131 610 L9674 610" stroke="currentColor" stroke-width="13" />
                  <path d="M8131 790 L9674 790" stroke="currentColor" stroke-width="13" />
                  <path d="M8131 970 L9674 970" stroke="currentColor" stroke-width="13" />
                  <path d="M8131 1150 L9674 1150" stroke="currentColor" stroke-width="13" />
                  <g class="ledgerLines above">
                     <path d="M9163 250 L9485 250" stroke="currentColor" stroke-width="22" />
                  </g>
                  <g id="l1ufntge" class="layer">
                     <g id="b1n0fw13" class="beam">
                        <polygon points="8311,1330 9229,1150 9229,1060 8311,1240" />
                        <g id="nwxt00x" class="note">
                           <g class="notehead">
                              <use xlink:href="#E0A4-1m8zn17" x="8311" y="700" height="720px" width="720px" />
                           </g>
                           <g id="s2cpl9z" class="stem">
                              <path d="M8320 728 L8320 1312" stroke="currentColor" stroke-width="18" />
                           </g>
                           <g id="a1wb3e2s" class="accid" />
                        </g>
                        <g id="ndvl5ld" class="note">
                           <g class="notehead">
                              <use xlink:href="#E0A4-1m8zn17" x="8761" y="340" height="720px" width="720px" />
                           </g>
                           <g id="s12l1c7g" class="stem">
                              <path d="M8770 368 L8770 1222" stroke="currentColor" stroke-width="18" />
                           </g>
                           <g id="a1c77hfv" class="accid" />
                        </g>
                        <g id="n1nwbnw5" class="note">
                           <g class="notehead">
                              <use xlink:href="#E0A4-1m8zn17" x="9211" y="160" height="720px" width="720px" />
                           </g>
                           <g id="s19knp2v" class="stem">
                              <path d="M9220 188 L9220 1132" stroke="currentColor" stroke-width="18" />
                           </g>
                        </g>
                     </g>
                  </g>
               </g>
               <g id="twigvp2" class="tie">
                  <path d="M9482,115 C9549,-38 9737,-38 9809,115 C9712,9 9576,9 9482,115" stroke="currentColor" stroke-linecap="round" stroke-linejoin="round" stroke-width="9" />
               </g>
               <g id="bju2rxn" class="barLine">
                  <path d="M9661 430 L9661 1150" stroke="currentColor" stroke-width="27" />
               </g>
            </g>
            <g id="mzodm98" class="measure">
               <g id="sg6e4o" class="staff">
                  <path d="M9674 430 L11217 430" stroke="currentColor" stroke-width="13" />
                  <path d="M9674 610 L11217 610" stroke="currentColor" stroke-width="13" />
                  <path d="M9674 790 L11217 790" stroke="currentColor" stroke-width="13" />
                  <path d="M9674 970 L11217 970" stroke="currentColor" stroke-width="13" />
                  <path d="M9674 1150 L11217 1150" stroke="currentColor" stroke-width="13" />
                  <g class="ledgerLines above">
                     <path d="M9806 250 L10128 250" stroke="currentColor" stroke-width="22" />
                     <path d="M10256 250 L10578 250" stroke="currentColor" stroke-width="22" />
                  </g>
                  <g id="lxq6cll" class="layer">
                     <g id="b13viyd2" class="beam">
                        <polygon points="9854,790 10772,970 10772,880 9854,700" />
                        <g id="n1r78e3w" class="note">
                           <g class="notehead">
                              <use xlink:href="#E0A4-1m8zn17" x="9854" y="160" height="720px" width="720px" />
                           </g>
                           <g id="s1gxitk" class="stem">
                              <path d="M9863 188 L9863 772" stroke="currentColor" stroke-width="18" />
                           </g>
                        </g>
                        <g id="njepdrb" class="note">
                           <g class="notehead">
                              <use xlink:href="#E0A4-1m8zn17" x="10304" y="250" height="720px" width="720px" />
                           </g>
                           <g id="s1905d68" class="stem">
                              <path d="M10313 278 L10313 862" stroke="currentColor" stroke-width="18" />
                           </g>
                        </g>
                        <g id="n1y47wy7" class="note">
                           <g class="notehead">
                              <use xlink:href="#E0A4-1m8zn17" x="10754" y="340" height="720px" width="720px" />
                           </g>
                           <g id="sz5i2aa" class="stem">
                              <path d="M10763 368 L10763 952" stroke="currentColor" stroke-width="18" />
                           </g>
                           <g id="a1p91bt0" class="accid" />
                        </g>
                     </g>
                  </g>
               </g>
               <g id="t1ho95rp" class="tie">
                  <path d="M11025,295 C11092,142 11280,142 11352,295 C11255,189 11119,189 11025,295" stroke="currentColor" stroke-linecap="round" stroke-linejoin="round" stroke-width="9" />
               </g>
               <g id="bhghzyb" class="barLine">
                  <path d="M11204 430 L11204 1150" stroke="currentColor" stroke-width="27" />
               </g>
            </g>
            <g id="mgx8bjh" class="measure">
               <g id="s1xjwapg" class="staff">
                  <path d="M11217 430 L12760 430" stroke="currentColor" stroke-width="13" />
                  <path d="M11217 610 L12760 610" stroke="currentColor" stroke-width="13" />
                  <path d="M11217 790 L12760 790" stroke="currentColor" stroke-width="13" />
                  <path d="M11217 970 L12760 970" stroke="currentColor" stroke-width="13" />
                  <path d="M11217 1150 L12760 1150" stroke="currentColor" stroke-width="13" />
                  <g id="l16fzqxk" class="layer">
                     <g id="b1yevvwh" class="beam">
                        <polygon points="11397,970 12315,1150 12315,1060 11397,880" />
                        <g id="nqqgytg" class="note">
                           <g class="notehead">
                              <use xlink:href="#E0A4-1m8zn17" x="11397" y="340" height="720px" width="720px" />
                           </g>
                           <g id="s17jmr1w" class="stem">
                              <path d="M11406 368 L11406 952" stroke="currentColor" stroke-width="18" />
                           </g>
                           <g id="a1hn97h8" class="accid" />
                        </g>
                        <g id="nmeaduc" class="note">
                           <g class="notehead">
                              <use xlink:href="#E0A4-1m8zn17" x="11847" y="430" height="720px" width="720px" />
                           </g>
                           <g id="s11huxwv" class="stem">
                              <path d="M11856 458 L11856 1042" stroke="currentColor" stroke-width="18" />
                           </g>
                           <g id="amwmthe" class="accid" />
                        </g>
                        <g id="n4oqxce" class="note">
                           <g class="notehead">
                              <use xlink:href="#E0A4-1m8zn17" x="12297" y="520" height="720px" width="720px" />
                           </g>
                           <g id="snr4k48" class="stem">
                              <path d="M12306 548 L12306 1132" stroke="currentColor" stroke-width="18" />
                           </g>
                        </g>
                     </g>
                  </g>
               </g>
               <g id="bfx25hn" class="barLine">
                  <path d="M12747 430 L12747 1150" stroke="currentColor" stroke-width="27" />
               </g>
            </g>
            <g id="s1bp6nfw" class="systemMilestoneEnd s6oscn4" />
         </g>
         <g id="pg7y08o" class="pageMilestoneEnd s1f31sgl" />
         <g id="pxlbg6w" class="pageMilestoneEnd mivwb27" />
      </g>
   </svg>
</svg>
