<svg width="620px" height="110px" version="1.1" xmlns="http://www.w3.org/2000/svg" xmlns:xlink="http://www.w3.org/1999/xlink" overflow="visible" id="pfnjo7e">
   <desc>Engraved by Verovio 5.7.0-7135340</desc>
   <defs>
      <g id="E050-pfnjo7e">
         <path transform="scale(1,-1)" d="M441 -245c-23 -4 -48 -6 -76 -6c-59 0 -102 7 -130 20c-88 42 -150 93 -187 154c-26 44 -43 103 -48 176c0 6 -1 13 -1 19c0 54 15 111 45 170c29 57 65 106 110 148s96 85 153 127c-3 16 -8 46 -13 92c-4 43 -5 73 -5 89c0 117 16 172 69 257c34 54 64 82 89 82 c21 0 43 -30 69 -92s39 -115 41 -159v-15c0 -109 -21 -162 -67 -241c-13 -20 -63 -90 -98 -118c-13 -9 -25 -19 -37 -29l31 -181c8 1 18 2 28 2c58 0 102 -12 133 -35c59 -43 92 -104 98 -184c1 -7 1 -15 1 -22c0 -123 -87 -209 -181 -248c8 -57 17 -110 25 -162 c5 -31 6 -58 6 -80c0 -30 -5 -53 -14 -70c-35 -64 -88 -99 -158 -103c-5 0 -11 -1 -16 -1c-37 0 -72 10 -108 27c-50 24 -77 59 -80 105v11c0 29 7 55 20 76c18 28 45 42 79 44h6c49 0 93 -42 97 -87v-9c0 -51 -34 -86 -105 -106c17 -24 51 -36 102 -36c62 0 116 43 140 85 c9 16 13 41 13 74c0 20 -1 42 -5 67c-8 53 -18 106 -26 159zM461 939c-95 0 -135 -175 -135 -286c0 -24 2 -48 5 -71c50 39 92 82 127 128c40 53 60 100 60 140v8c-4 53 -22 81 -55 81h-2zM406 119l54 -326c73 25 110 78 110 161c0 7 0 15 -1 23c-7 95 -57 142 -151 142h-12 zM382 117c-72 -2 -128 -47 -128 -120v-7c2 -46 43 -99 75 -115c-3 -2 -7 -5 -10 -10c-70 33 -116 88 -123 172v11c0 68 44 126 88 159c23 17 49 29 78 36l-29 170c-21 -13 -52 -37 -92 -73c-50 -44 -86 -84 -109 -119c-45 -69 -67 -130 -67 -182v-13c5 -68 35 -127 93 -176 s125 -73 203 -73c25 0 50 3 75 9c-19 111 -36 221 -54 331z" />
      </g>
      <g id="E262-pfnjo7e">
         <path transform="scale(1,-1)" d="M136 186v169h17v-164l44 14v-91l-44 -14v-165l44 12v-91l-44 -13v-155h-17v150l-76 -22v-155h-17v149l-43 -13v90l43 14v167l-43 -14v92l43 13v169h17v-163zM60 73v-167l76 22v168z" />
      </g>
      <g id="E083-pfnjo7e">
         <path transform="scale(1,-1)" d="M208 250c97 0 177 -52 177 -116c0 -69 -40 -111 -118 -125c56 -5 125 -44 125 -116c0 -31 -10 -57 -31 -78c-19 -21 -45 -38 -78 -49l-50 -11c-15 -3 -36 -7 -55 -7c-50 0 -86 16 -113 38c-16 10 -23 18 -34 34c-7 13 -11 25 -11 38c0 43 27 83 68 83l3 -2 c61 0 75 -42 75 -70c0 -19 -24 -42 -26 -57c7 -17 20 -25 37 -25c44 0 94 29 94 78c0 75 -34 125 -138 125v36c84 0 131 22 131 98c0 54 -37 88 -87 88c-26 0 -43 -7 -51 -22c15 -22 44 -16 44 -70c0 -37 -37 -62 -71 -62c-22 0 -69 15 -69 76c0 79 101 116 178 116z" />
      </g>
      <g id="E088-pfnjo7e">
         <path transform="scale(1,-1)" d="M195 -214c76 0 88 58 90 68c0 34 -35 60 -57 73l-52 29c-21 10 -32 17 -34 20c-39 -33 -58 -54 -62 -92c5 -23 23 -98 115 -98zM301 135c0 61 -72 76 -113 76c-40 0 -77 -17 -77 -51c3 -21 15 -38 26 -50c17 -15 33 -26 48 -34l65 -28c34 27 51 56 51 87zM176 -250 c-57 0 -166 26 -166 132c0 47 30 86 89 116c-33 15 -79 60 -79 119c0 79 85 132 178 132h18c5 0 21 1 28 -1c25 0 126 -30 126 -110c0 -37 -23 -76 -69 -116c43 -25 83 -71 83 -119c0 -101 -118 -153 -208 -153z" />
      </g>
      <g id="E4E6-pfnjo7e">
         <path transform="scale(1,-1)" d="M0 123c7 34 33 56 69 60c29 -3 43 -9 53 -29c4 -8 7 -15 10 -22c0 -21 -1 -25 -11 -35c-5 -8 -18 -14 -40 -20l12 -3l15 -1c44 0 97 26 122 56c10 11 18 26 24 42c7 1 15 2 22 3l-140 -424h-36l111 330c-10 -6 -27 -12 -53 -16l-52 -8h-10l-20 1c-1 0 -8 3 -21 6 c-37 9 -55 28 -55 60z" />
      </g>
      <g id="E0A4-pfnjo7e">
         <path transform="scale(1,-1)" d="M0 -39c0 68 73 172 200 172c66 0 114 -37 114 -95c0 -84 -106 -171 -218 -171c-64 0 -96 30 -96 94z" />
      </g>
   </defs>
   <style type="text/css">#pfnjo7e g.page-margin {font-family:Times,serif;}#pfnjo7e g.ending, #pfnjo7e g.fing, #pfnjo7e g.reh, #pfnjo7e g.tempo {font-weight:bold;}#pfnjo7e g.dir, #pfnjo7e g.dynam, #pfnjo7e g.mNum {font-style:italic;}#pfnjo7e g.label {font-weight:normal;}#pfnjo7e ellipse, #pfnjo7e path, #pfnjo7e polygon, #pfnjo7e polyline, #pfnjo7e rect {stroke:currentColor}</style>
   <svg class="definition-scale" color="black" viewBox="0 0 13760 2440">
      <g class="page-margin" transform="translate(500, 500)">
         <g id="s1f31sgl" class="mdiv pageMilestone" />
         <g id="t1ajik95" class="score pageMilestone" />
         <g id="z1onwf8y" class="system">
            <g id="vyt4ad" class="section systemMilestone" />
            <g id="qmlovzj" class="measure">
               <g id="h1a2rmes" class="staff">
                  <path d="M0 430 L3316 430" stroke-width="13" />
                  <path d="M0 610 L3316 610" stroke-width="13" />
                  <path d="M0 790 L3316 790" stroke-width="13" />
                  <path d="M0 970 L3316 970" stroke-width="13" />
                  <path d="M0 1150 L3316 1150" stroke-width="13" />
                  <g id="zdhioz2" class="clef">
                     <use xlink:href="#E050-pfnjo7e" transform="translate(90, 970) scale(0.72, 0.72)" />
                  </g>
                  <g id="a1vn47bf" class="keySig">
                     <g id="b1kz42q6" class="keyAccid">
                        <use xlink:href="#E262-pfnjo7e" transform="translate(735, 430) scale(0.72, 0.72)" />
                     </g>
                     <g id="ccy59xo" class="keyAccid">
                        <use xlink:href="#E262-pfnjo7e" transform="translate(913, 700) scale(0.72, 0.72)" />
                     </g>
                     <g id="d32l04c" class="keyAccid">
                        <use xlink:href="#E262-pfnjo7e" transform="translate(1091, 340) scale(0.72, 0.72)" />
                     </g>
                  </g>
                  <g id="efdh2og" class="meterSig">
                     <use xlink:href="#E083-pfnjo7e" transform="translate(1402, 610) scale(0.72, 0.72)" />
                     <use xlink:href="#E088-pfnjo7e" transform="translate(1405, 970) scale(0.72, 0.72)" />
                  </g>
                  <g id="i4vs11m" class="layer">
                     <g id="b37hn12" class="rest">
                        <use xlink:href="#E4E6-pfnjo7e" transform="translate(1953, 790) scale(0.72, 0.72)" />
                     </g>
                     <g id="x1oxd4nf" class="beam">
                        <polygon fill-opacity="1" points="2403,1375 2871,1330 2871,1240 2403,1285" />
                        <g id="c1kyp1ws" class="note">
                           <g class="notehead">
                              <use xlink:href="#E0A4-pfnjo7e" transform="translate(2403, 700) scale(0.72, 0.72)" />
                           </g>
                           <g id="ipk7z6m" class="stem">
                              <path d="M2412 728 L2412 1357" stroke-width="18" />
                           </g>
                           <g id="i4s4uc4" class="accid" />
                        </g>
                        <g id="d1eyoooy" class="note">
                           <g class="notehead">
                              <use xlink:href="#E0A4-pfnjo7e" transform="translate(2853, 610) scale(0.72, 0.72)" />
                           </g>
                           <g id="j1vmyhcz" class="stem">
                              <path d="M2862 638 L2862 1312" stroke-width="18" />
                           </g>
                        </g>
                     </g>
                  </g>
               </g>
               <g id="e11rutd2" class="tie">
                  <path d="M3124,565 C3191,412 3379,412 3451,565 C3354,459 3218,459 3124,565" stroke-width="9" stroke-linecap="round" stroke-linejoin="round" />
               </g>
               <g id="yhbsl03" class="barLine">
                  <path d="M3303 430 L3303 1150" stroke-width="27" />
               </g>
            </g>
            <g id="zmyzslu" class="measure">
               <g id="j1s8kxne" class="staff">
                  <path d="M3316 430 L4859 430" stroke-width="13" />
                  <path d="M3316 610 L4859 610" stroke-width="13" />
                  <path d="M3316 790 L4859 790" stroke-width="13" />
                  <path d="M3316 970 L4859 970" stroke-width="13" />
                  <path d="M3316 1150 L4859 1150" stroke-width="13" />
                  <g id="k19a056m" class="layer">
                     <g id="y23h8om" class="beam">
                        <polygon fill-opacity="1" points="3496,1195 4414,1375 4414,1285 3496,1105" />
                        <g id="ewtw03u" class="note">
                           <g class="notehead">
                              <use xlink:href="#E0A4-pfnjo7e" transform="translate(3496, 610) scale(0.72, 0.72)" />
                           </g>
                           <g id="kc0c02x" class="stem">
                              <path d="M3505 638 L3505 1177" stroke-width="18" />
                           </g>
                        </g>
                        <g id="f12ecyql" class="note">
                           <g class="notehead">
                              <use xlink:href="#E0A4-pfnjo7e" transform="translate(3946, 700) scale(0.72, 0.72)" />
                           </g>
                           <g id="l1lqnom3" class="stem">
                              <path d="M3955 728 L3955 1267" stroke-width="18" />
                           </g>
                           <g id="jo3qcsy" class="accid" />
                        </g>
                        <g id="gjwwkjn" class="note">
                           <g class="notehead">
                              <use xlink:href="#E0A4-pfnjo7e" transform="translate(4396, 790) scale(0.72, 0.72)" />
                           </g>
                           <g id="mixe56f" class="stem">
                              <path d="M4405 818 L4405 1357" stroke-width="18" />
                           </g>
                        </g>
                     </g>
                  </g>
               </g>
               <g id="hmwwo00" class="barLine">
                  <path d="M4846 430 L4846 1150" stroke-width="27" />
               </g>
            </g>
            <g id="i1s4ffnc" class="measure">
               <g id="l1e7ub62" class="staff">
                  <path d="M4859 430 L6588 430" stroke-width="13" />
                  <path d="M4859 610 L6588 610" stroke-width="13" />
                  <path d="M4859 790 L6588 790" stroke-width="13" />
                  <path d="M4859 970 L6588 970" stroke-width="13" />
                  <path d="M4859 1150 L6588 1150" stroke-width="13" />
                  <g id="mlwp7zq" class="layer">
                     <g id="z16wv72r" class="beam">
                        <polygon fill-opacity="1" points="5225,1420 6143,1240 6143,1150 5225,1330" />
                        <g id="hzub3xf" class="note">
                           <g class="notehead">
                              <use xlink:href="#E0A4-pfnjo7e" transform="translate(5225, 880) scale(0.72, 0.72)" />
                           </g>
                           <g id="n1t7t9o8" class="stem">
                              <path d="M5234 908 L5234 1402" stroke-width="18" />
                           </g>
                           <g id="w1m11mph" class="accid">
                              <use xlink:href="#E262-pfnjo7e" transform="translate(5039, 880) scale(0.72, 0.72)" />
                           </g>
                        </g>
                        <g id="izv1mc9" class="note">
                           <g class="notehead">
                              <use xlink:href="#E0A4-pfnjo7e" transform="translate(5675, 790) scale(0.72, 0.72)" />
                           </g>
                           <g id="o186unp8" class="stem">
                              <path d="M5684 818 L5684 1312" stroke-width="18" />
                           </g>
                        </g>
                        <g id="j14qhuvu" class="note">
                           <g class="notehead">
                              <use xlink:href="#E0A4-pfnjo7e" transform="translate(6125, 430) scale(0.72, 0.72)" />
                           </g>
                           <g id="p1vt5nji" class="stem">
                              <path d="M6134 458 L6134 1222" stroke-width="18" />
                           </g>
                           <g id="kgtp1zt" class="accid" />
                        </g>
                     </g>
                  </g>
               </g>
               <g id="fwigvp2" class="tie">
                  <path d="M6396,385 C6463,232 6651,232 6723,385 C6626,279 6490,279 6396,385" stroke-width="9" stroke-linecap="round" stroke-linejoin="round" />
               </g>
               <g id="qa56g6u" class="barLine">
                  <path d="M6575 430 L6575 1150" stroke-width="27" />
               </g>
            </g>
            <g id="r4ks4fv" class="measure">
               <g id="nt9ronl" class="staff">
                  <path d="M6588 430 L8131 430" stroke-width="13" />
                  <path d="M6588 610 L8131 610" stroke-width="13" />
                  <path d="M6588 790 L8131 790" stroke-width="13" />
                  <path d="M6588 970 L8131 970" stroke-width="13" />
                  <path d="M6588 1150 L8131 1150" stroke-width="13" />
                  <g id="o1awc8ol" class="layer">
                     <g id="a1n0fw13" class="beam">
                        <polygon fill-opacity="1" points="6768,1015 7686,1195 7686,1105 6768,925" />
                        <g id="k1dict13" class="note">
                           <g class="notehead">
                              <use xlink:href="#E0A4-pfnjo7e" transform="translate(6768, 430) scale(0.72, 0.72)" />
                           </g>
                           <g id="qqy4i76" class="stem">
                              <path d="M6777 458 L6777 997" stroke-width="18" />
                           </g>
                           <g id="l1wb3e2s" class="accid" />
                        </g>
                        <g id="lcz237t" class="note">
                           <g class="notehead">
                              <use xlink:href="#E0A4-pfnjo7e" transform="translate(7218, 520) scale(0.72, 0.72)" />
                           </g>
                           <g id="r3ruo0a" class="stem">
                              <path d="M7227 548 L7227 1087" stroke-width="18" />
                           </g>
                        </g>
                        <g id="mwxt00x" class="note">
                           <g class="notehead">
                              <use xlink:href="#E0A4-pfnjo7e" transform="translate(7668, 610) scale(0.72, 0.72)" />
                           </g>
                           <g id="s2cpl9z" class="stem">
                              <path d="M7677 638 L7677 1177" stroke-width="18" />
                           </g>
                        </g>
                     </g>
                  </g>
               </g>
               <g id="z2gqwr3" class="barLine">
                  <path d="M8118 430 L8118 1150" stroke-width="27" />
               </g>
            </g>
            <g id="a1pfogn4" class="measure">
               <g id="p1ufntge" class="staff">
                  <path d="M8131 430 L9674 430" stroke-width="13" />
                  <path d="M8131 610 L9674 610" stroke-width="13" />
                  <path d="M8131 790 L9674 790" stroke-width="13" />
                  <path d="M8131 970 L9674 970" stroke-width="13" />
                  <path d="M8131 1150 L9674 1150" stroke-width="13" />
                  <g class="ledgerLines above">
                     <path d="M9163 250 L9485 250" stroke-width="22" />
                  </g>
                  <g id="qg6e4o" class="layer">
                     <g id="b13viyd2" class="beam">
                        <polygon fill-opacity="1" points="8311,1330 9229,1150 9229,1060 8311,1240" />
                        <g id="ndvl5ld" class="note">
                           <g class="notehead">
                              <use xlink:href="#E0A4-pfnjo7e" transform="translate(8311, 700) scale(0.72, 0.72)" />
                           </g>
                           <g id="t12l1c7g" class="stem">
                              <path d="M8320 728 L8320 1312" stroke-width="18" />
                           </g>
                           <g id="m1c77hfv" class="accid" />
                        </g>
                        <g id="o1nwbnw5" class="note">
                           <g class="notehead">
                              <use xlink:href="#E0A4-pfnjo7e" transform="translate(8761, 340) scale(0.72, 0.72)" />
                           </g>
                           <g id="u19knp2v" class="stem">
                              <path d="M8770 368 L8770 1222" stroke-width="18" />
                           </g>
                           <g id="n1p91bt0" class="accid" />
                        </g>
                        <g id="p1r78e3w" class="note">
                           <g class="notehead">
                              <use xlink:href="#E0A4-pfnjo7e" transform="translate(9211, 160) scale(0.72, 0.72)" />
                           </g>
                           <g id="v1gxitk" class="stem">
                              <path d="M9220 188 L9220 1132" stroke-width="18" />
                           </g>
                        </g>
                     </g>
                  </g>
               </g>
               <g id="g1ho95rp" class="tie">
                  <path d="M9482,115 C9549,-38 9737,-38 9809,115 C9712,9 9576,9 9482,115" stroke-width="9" stroke-linecap="round" stroke-linejoin="round" />
               </g>
               <g id="izodm98" class="barLine">
                  <path d="M9661 430 L9661 1150" stroke-width="27" />
               </g>
            </g>
            <g id="j1mj6nxn" class="measure">
               <g id="rxq6cll" class="staff">
                  <path d="M9674 430 L11217 430" stroke-width="13" />
                  <path d="M9674 610 L11217 610" stroke-width="13" />
                  <path d="M9674 790 L11217 790" stroke-width="13" />
                  <path d="M9674 970 L11217 970" stroke-width="13" />
                  <path d="M9674 1150 L11217 1150" stroke-width="13" />
                  <g class="ledgerLines above">
                     <path d="M9806 250 L10128 250" stroke-width="22" />
                     <path d="M10256 250 L10578 250" stroke-width="22" />
                  </g>
                  <g id="s1xjwapg" class="layer">
                     <g id="c1yevvwh" class="beam">
                        <polygon fill-opacity="1" points="9854,790 10772,970 10772,880 9854,700" />
                        <g id="qjepdrb" class="note">
                           <g class="notehead">
                              <use xlink:href="#E0A4-pfnjo7e" transform="translate(9854, 160) scale(0.72, 0.72)" />
                           </g>
                           <g id="w1905d68" class="stem">
                              <path d="M9863 188 L9863 772" stroke-width="18" />
                           </g>
                        </g>
                        <g id="r1y47wy7" class="note">
                           <g class="notehead">
                              <use xlink:href="#E0A4-pfnjo7e" transform="translate(10304, 250) scale(0.72, 0.72)" />
                           </g>
                           <g id="xz5i2aa" class="stem">
                              <path d="M10313 278 L10313 862" stroke-width="18" />
                           </g>
                        </g>
                        <g id="sqqgytg" class="note">
                           <g class="notehead">
                              <use xlink:href="#E0A4-pfnjo7e" transform="translate(10754, 340) scale(0.72, 0.72)" />
                           </g>
                           <g id="y17jmr1w" class="stem">
                              <path d="M10763 368 L10763 952" stroke-width="18" />
                           </g>
                           <g id="o1hn97h8" class="accid" />
                        </g>
                     </g>
                  </g>
               </g>
               <g id="h1wvbc8t" class="tie">
                  <path d="M11025,295 C11092,142 11280,142 11352,295 C11255,189 11119,189 11025,295" stroke-width="9" stroke-linecap="round" stroke-linejoin="round" />
               </g>
               <g id="rgx8bjh" class="barLine">
                  <path d="M11204 430 L11204 1150" stroke-width="27" />
               </g>
            </g>
            <g id="s82fpt" class="measure">
               <g id="t16fzqxk" class="staff">
                  <path d="M11217 430 L12760 430" stroke-width="13" />
                  <path d="M11217 610 L12760 610" stroke-width="13" />
                  <path d="M11217 790 L12760 790" stroke-width="13" />
                  <path d="M11217 970 L12760 970" stroke-width="13" />
                  <path d="M11217 1150 L12760 1150" stroke-width="13" />
                  <g id="ulubfbi" class="layer">
                     <g id="d1sqgsul" class="beam">
                        <polygon fill-opacity="1" points="11397,970 12315,1150 12315,1060 11397,880" />
                        <g id="tmeaduc" class="note">
                           <g class="notehead">
                              <use xlink:href="#E0A4-pfnjo7e" transform="translate(11397, 340) scale(0.72, 0.72)" />
                           </g>
                           <g id="z11huxwv" class="stem">
                              <path d="M11406 368 L11406 952" stroke-width="18" />
                           </g>
                           <g id="pmwmthe" class="accid" />
                        </g>
                        <g id="u4oqxce" class="note">
                           <g class="notehead">
                              <use xlink:href="#E0A4-pfnjo7e" transform="translate(11847, 430) scale(0.72, 0.72)" />
                           </g>
                           <g id="anr4k48" class="stem">
                              <path d="M11856 458 L11856 1042" stroke-width="18" />
                           </g>
                           <g id="q14fmeoc" class="accid" />
                        </g>
                        <g id="v1bpmbr1" class="note">
                           <g class="notehead">
                              <use xlink:href="#E0A4-pfnjo7e" transform="translate(12297, 520) scale(0.72, 0.72)" />
                           </g>
                           <g id="b1m8zn17" class="stem">
                              <path d="M12306 548 L12306 1132" stroke-width="18" />
                           </g>
                        </g>
                     </g>
                  </g>
               </g>
               <g id="a3ie8ud" class="barLine">
                  <path d="M12747 430 L12747 1150" stroke-width="27" />
               </g>
            </g>
            <g id="cg7y08o" class="systemMilestoneEnd vyt4ad" />
         </g>
         <g id="dxlbg6w" class="pageMilestoneEnd t1ajik95" />
         <g id="efwg9mm" class="pageMilestoneEnd s1f31sgl" />
      </g>
   </svg>
</svg>
