<svg width="782px" height="131px" version="1.1" xmlns="http://www.w3.org/2000/svg" xmlns:xlink="http://www.w3.org/1999/xlink" xmlns:mei="http://www.music-encoding.org/ns/mei" overflow="visible">
   <desc>Engraved by Verovio 3.4.1-8f65a58</desc>
   <defs>
      <symbol id="E050-0000000681910962" viewBox="0 0 1000 1000" overflow="inherit">
         <path transform="scale(1,-1)" d="M441 -245c-23 -4 -48 -6 -76 -6c-59 0 -102 7 -130 20c-88 42 -150 93 -187 154c-26 44 -43 103 -48 176c0 6 -1 13 -1 19c0 54 15 111 45 170c29 57 65 106 110 148s96 85 153 127c-3 16 -8 46 -13 92c-4 43 -5 73 -5 89c0 117 16 172 69 257c34 54 64 82 89 82 c21 0 43 -30 69 -92s39 -115 41 -159v-15c0 -109 -21 -162 -67 -241c-13 -20 -63 -90 -98 -118c-13 -9 -25 -19 -37 -29l31 -181c8 1 18 2 28 2c58 0 102 -12 133 -35c59 -43 92 -104 98 -184c1 -7 1 -15 1 -22c0 -123 -87 -209 -181 -248c8 -57 17 -110 25 -162 c5 -31 6 -58 6 -80c0 -30 -5 -53 -14 -70c-35 -64 -88 -99 -158 -103c-5 0 -11 -1 -16 -1c-37 0 -72 10 -108 27c-50 24 -77 59 -80 105v11c0 29 7 55 20 76c18 28 45 42 79 44h6c49 0 93 -42 97 -87v-9c0 -51 -34 -86 -105 -106c17 -24 51 -36 102 -36c62 0 116 43 140 85 c9 16 13 41 13 74c0 20 -1 42 -5 67c-8 53 -18 106 -26 159zM461 939c-95 0 -135 -175 -135 -286c0 -24 2 -48 5 -71c50 39 92 82 127 128c40 53 60 100 60 140v8c-4 53 -22 81 -55 81h-2zM406 119l54 -326c73 25 110 78 110 161c0 7 0 15 -1 23c-7 95 -57 142 -151 142h-12 zM382 117c-72 -2 -128 -47 -128 -120v-7c2 -46 43 -99 75 -115c-3 -2 -7 -5 -10 -10c-70 33 -116 88 -123 172v11c0 68 44 126 88 159c23 17 49 29 78 36l-29 170c-21 -13 -52 -37 -92 -73c-50 -44 -86 -84 -109 -119c-45 -69 -67 -130 -67 -182v-13c5 -68 35 -127 93 -176 s125 -73 203 -73c25 0 50 3 75 9c-19 111 -36 221 -54 331z" />
      </symbol>
      <symbol id="E082-0000000681910962" viewBox="0 0 1000 1000" overflow="inherit">
         <path transform="scale(1,-1)" d="M104 -185c-18 0 -55 -14 -65 -65h-36l-3 29c0 25 6 46 18 64c11 19 22 30 39 43l121 82l37 29c15 11 27 29 38 54c12 24 18 47 18 70c0 40 -19 88 -94 88c-25 0 -32 0 -50 -8c-14 -5 -23 -12 -26 -22c3 -9 7 -15 10 -18l24 -17c12 -7 17 -11 27 -21c5 -7 7 -16 7 -27 c0 -12 0 -57 -79 -74c-30 0 -76 26 -76 94c0 66 81 135 197 135c72 0 181 -32 181 -150c0 -53 -32 -95 -113 -133l-91 -41c-26 -11 -45 -23 -57 -37l49 7c84 0 115 -41 148 -41c20 0 33 20 39 61h35c0 -152 -68 -168 -114 -168c-17 0 -65 0 -79 7h10l-28 17 c-49 37 -69 40 -87 42z" />
      </symbol>
      <symbol id="E083-0000000681910962" viewBox="0 0 1000 1000" overflow="inherit">
         <path transform="scale(1,-1)" d="M188 250c97 0 177 -52 177 -116c0 -69 -40 -111 -118 -125c56 -5 125 -44 125 -116c0 -31 -10 -57 -31 -78c-19 -21 -45 -38 -78 -49l-50 -11c-15 -3 -36 -7 -55 -7c-50 0 -86 16 -113 38c-16 10 -23 18 -34 34c-7 13 -11 25 -11 38c0 43 27 83 68 83l3 -2 c61 0 75 -42 75 -70c0 -19 -24 -42 -26 -57c7 -17 20 -25 37 -25c44 0 94 29 94 78c0 75 -34 125 -138 125v36c84 0 131 22 131 98c0 54 -37 88 -87 88c-26 0 -43 -7 -51 -22c15 -22 44 -16 44 -70c0 -37 -37 -62 -71 -62c-22 0 -69 15 -69 76c0 79 101 116 178 116z" />
      </symbol>
      <symbol id="E085-0000000681910962" viewBox="0 0 1000 1000" overflow="inherit">
         <path transform="scale(1,-1)" d="M141 38c-14 0 -56 -5 -92 -51h-32l5 263c55 -11 108 -18 158 -18c40 0 85 6 134 17c-8 -52 -39 -114 -159 -114l-50 2c-19 2 -31 4 -49 10l-5 -111c38 26 81 39 129 39c94 0 177 -64 177 -159c0 -100 -98 -166 -211 -166c-88 0 -146 53 -146 115c0 53 39 83 75 83 c37 0 69 -32 69 -72c0 -4 -1 -10 -4 -18l-27 -37c-2 -3 -3 -8 -3 -14c0 -15 12 -23 36 -23c74 0 92 77 92 132s-35 122 -97 122z" />
      </symbol>
      <symbol id="E088-0000000681910962" viewBox="0 0 1000 1000" overflow="inherit">
         <path transform="scale(1,-1)" d="M185 -214c76 0 88 58 90 68c0 34 -35 60 -57 73l-52 29c-21 10 -32 17 -34 20c-39 -33 -58 -54 -62 -92c5 -23 23 -98 115 -98zM291 135c0 61 -72 76 -113 76c-40 0 -77 -17 -77 -51c3 -21 15 -38 26 -50c17 -15 33 -26 48 -34l65 -28c34 27 51 56 51 87zM166 -250 c-57 0 -166 26 -166 132c0 47 30 86 89 116c-33 15 -79 60 -79 119c0 79 85 132 178 132h18c5 0 21 1 28 -1c25 0 126 -30 126 -110c0 -37 -23 -76 -69 -116c43 -25 83 -71 83 -119c0 -101 -118 -153 -208 -153z" />
      </symbol>
      <symbol id="E08A-0000000681910962" viewBox="0 0 1000 1000" overflow="inherit">
         <path transform="scale(1,-1)" d="M340 179c-9 24 -56 41 -89 41c-46 0 -81 -28 -100 -58c-17 -28 -25 -78 -25 -150c0 -65 2 -111 8 -135c8 -31 18 -49 40 -67c20 -17 43 -25 70 -25c54 0 92 36 115 75c14 25 23 54 28 88h27c0 -63 -24 -105 -58 -141c-35 -38 -82 -56 -140 -56c-45 0 -83 13 -115 39 c-57 45 -101 130 -101 226c0 59 33 127 68 163c36 37 97 72 160 72c36 0 93 -21 121 -40c11 -8 23 -17 33 -30c19 -23 27 -48 27 -76c0 -51 -35 -88 -86 -88c-43 0 -76 27 -76 68c0 26 7 35 21 51c15 17 32 27 58 32c7 2 14 7 14 11z" />
      </symbol>
      <symbol id="E0A4-0000000681910962" viewBox="0 0 1000 1000" overflow="inherit">
         <path transform="scale(1,-1)" d="M0 -39c0 68 73 172 200 172c66 0 114 -37 114 -95c0 -84 -106 -171 -218 -171c-64 0 -96 30 -96 94z" />
      </symbol>
      <symbol id="E240-0000000681910962" viewBox="0 0 1000 1000" overflow="inherit">
         <path transform="scale(1,-1)" d="M179 -646c15 29 29 55 46 102c18 49 30 108 30 138c0 105 -80 173 -168 200c-18 5 -47 9 -87 16v190h22c8 0 33 -61 71 -95c4 -3 -2 3 61 -56c62 -58 122 -137 122 -241c0 -38 -13 -106 -35 -163c-20 -51 -43 -99 -66 -132c-6 -5 -10 -7 -13 -7s-5 2 -5 5l4 10 c1 3 14 25 18 33z" />
      </symbol>
      <symbol id="E241-0000000681910962" viewBox="0 0 1000 1000" overflow="inherit">
         <path transform="scale(1,-1)" d="M179 646c-4 8 -17 30 -18 33l-4 10c0 3 2 5 5 5s7 -2 13 -7c23 -33 46 -81 66 -132c22 -57 35 -125 35 -163c0 -104 -60 -183 -122 -241c-63 -59 -57 -53 -61 -56c-38 -34 -63 -95 -71 -95h-22v190c40 7 69 11 87 16c88 27 168 95 168 200c0 30 -12 89 -30 138 c-17 47 -31 73 -46 102z" />
      </symbol>
      <symbol id="E262-0000000681910962" viewBox="0 0 1000 1000" overflow="inherit">
         <path transform="scale(1,-1)" d="M136 186v169h17v-164l44 14v-91l-44 -14v-165l44 12v-91l-44 -13v-155h-17v150l-76 -22v-155h-17v149l-43 -13v90l43 14v167l-43 -14v92l43 13v169h17v-163zM60 73v-167l76 22v168z" />
      </symbol>
      <symbol id="E4E4-0000000681910962" viewBox="0 0 1000 1000" overflow="inherit">
         <path transform="scale(1,-1)" d="M0 10v105c0 9 1 10 10 10h280c9 0 10 -1 10 -10v-105c0 -9 -1 -10 -10 -10h-280c-9 0 -10 1 -10 10z" />
      </symbol>
      <symbol id="E4E5-0000000681910962" viewBox="0 0 1000 1000" overflow="inherit">
         <path transform="scale(1,-1)" d="M107 292c-13 24 -30 49 -52 71c-1 1 0 2 0 3l-2 2c3 3 4 4 6 4c12 0 26 -7 40 -20s44 -40 89 -81c26 -24 28 -29 46 -47c4 -4 8 -9 10 -14c6 -8 8 -16 8 -27c0 -19 -12 -40 -36 -61c-28 -23 -49 -38 -61 -73c-4 -11 -7 -27 -10 -50c13 -43 34 -83 59 -121 c31 -47 59 -79 101 -129c-8 0 -26 7 -54 20l-62 29l-21 6l-23 1c-25 0 -45 -10 -60 -30l-4 -14l-1 -12c0 -33 20 -56 39 -78c8 -9 17 -18 26 -26c17 -15 27 -24 28 -30l-3 -3c-11 5 -19 10 -25 15c-9 3 -37 21 -45 26c-24 14 -45 32 -63 51c-19 21 -37 44 -37 71 c0 63 27 95 80 95c41 0 86 -18 136 -52c-19 26 -37 48 -55 66c-23 23 -48 44 -73 65c-28 23 -47 40 -58 53s-17 26 -18 39c75 64 113 125 113 183c0 27 -7 48 -18 68z" />
      </symbol>
   </defs>
   <style type="text/css">g.page-margin{font-family:Times;} g.ending, g.reh, g.tempo{font-weight:bold;} g.dir, g.dynam, g.mNum{font-style:italic;} g.label{font-weight:normal;}</style>
   <svg class="definition-scale" color="black" viewBox="0 0 15640 2620">
      <g class="page-margin" transform="translate(500, 500)">
         <g id="system-0000001227619358" class="system">
            <g id="section-0000001622650073" class="section boundaryStart" />
            <g id="measure-0000001137522503" class="measure">
               <g id="staff-0000000114807987" class="staff">
                  <path d="M0 451 L2891 451" stroke="currentColor" stroke-width="13" />
                  <path d="M0 631 L2891 631" stroke="currentColor" stroke-width="13" />
                  <path d="M0 811 L2891 811" stroke="currentColor" stroke-width="13" />
                  <path d="M0 991 L2891 991" stroke="currentColor" stroke-width="13" />
                  <path d="M0 1171 L2891 1171" stroke="currentColor" stroke-width="13" />
                  <g id="clef-0000000543436550" class="clef">
                     <use xlink:href="#E050-0000000681910962" x="90" y="991" height="720px" width="720px" />
                  </g>
                  <g id="keysig-0000000290145159" class="keySig">
                     <use xlink:href="#E262-0000000681910962" x="735" y="451" height="720px" width="720px" />
                  </g>
                  <g id="msig-0000001681808623" class="meterSig">
                     <use xlink:href="#E083-0000000681910962" x="1057" y="631" height="720px" width="720px" />
                     <use xlink:href="#E088-0000000681910962" x="1056" y="991" height="720px" width="720px" />
                  </g>
                  <g id="layer-0000001817129560" class="layer">
                     <g id="multirest-0000001131570933" class="multiRest">
                        <rect x="1595" y="721" height="180" width="990" />
                        <rect x="1595" y="631" height="360" width="36" />
                        <rect x="2549" y="631" height="360" width="36" />
                        <use xlink:href="#E082-0000000681910962" x="1818" y="181" height="720px" width="720px" />
                        <use xlink:href="#E085-0000000681910962" x="2107" y="181" height="720px" width="720px" />
                     </g>
                  </g>
               </g>
               <g id="bline-0000001998097157" class="barLineAttr">
                  <path d="M2779 1171 L2779 451" stroke="currentColor" stroke-width="27" />
                  <path d="M2878 1171 L2878 451" stroke="currentColor" stroke-width="27" />
               </g>
            </g>
            <g id="measure-0000001404280278" class="measure">
               <g id="staff-0000000197493099" class="staff">
                  <path d="M2891 451 L4367 451" stroke="currentColor" stroke-width="13" />
                  <path d="M2891 631 L4367 631" stroke="currentColor" stroke-width="13" />
                  <path d="M2891 811 L4367 811" stroke="currentColor" stroke-width="13" />
                  <path d="M2891 991 L4367 991" stroke="currentColor" stroke-width="13" />
                  <path d="M2891 1171 L4367 1171" stroke="currentColor" stroke-width="13" />
                  <g id="layer-0000001358580979" class="layer">
                     <g id="multirest-0000001624379149" class="multiRest">
                        <rect x="3071" y="721" height="180" width="990" />
                        <rect x="3071" y="631" height="360" width="36" />
                        <rect x="4025" y="631" height="360" width="36" />
                        <use xlink:href="#E085-0000000681910962" x="3439" y="181" height="720px" width="720px" />
                     </g>
                  </g>
               </g>
               <g id="bline-0000000704877633" class="barLineAttr">
                  <path d="M4255 1171 L4255 451" stroke="currentColor" stroke-width="27" />
                  <path d="M4354 1171 L4354 451" stroke="currentColor" stroke-width="27" />
               </g>
            </g>
            <g id="measure-0000000784558821" class="measure">
               <g id="staff-0000002128236579" class="staff">
                  <path d="M4367 451 L8155 451" stroke="currentColor" stroke-width="13" />
                  <path d="M4367 631 L8155 631" stroke="currentColor" stroke-width="13" />
                  <path d="M4367 811 L8155 811" stroke="currentColor" stroke-width="13" />
                  <path d="M4367 991 L8155 991" stroke="currentColor" stroke-width="13" />
                  <path d="M4367 1171 L8155 1171" stroke="currentColor" stroke-width="13" />
                  <g id="keysig-0000001755699915" class="keySig">
                     <use xlink:href="#E262-0000000681910962" x="4457" y="451" height="720px" width="720px" />
                     <use xlink:href="#E262-0000000681910962" x="4635" y="721" height="720px" width="720px" />
                     <use xlink:href="#E262-0000000681910962" x="4813" y="361" height="720px" width="720px" />
                  </g>
                  <g id="msig-0000001623161625" class="meterSig">
                     <use xlink:href="#E08A-0000000681910962" x="5134" y="811" height="720px" width="720px" />
                  </g>
                  <g id="layer-0000000585640194" class="layer">
                     <g id="rest-0000001646035001" class="rest">
                        <use xlink:href="#E4E4-0000000681910962" x="5702" y="811" height="720px" width="720px" />
                     </g>
                     <g id="rest-0000001025921153" class="rest">
                        <use xlink:href="#E4E5-0000000681910962" x="6752" y="811" height="720px" width="720px" />
                        <g id="dots-0000001070477904" class="dots">
                           <ellipse cx="7061" cy="721" rx="36" ry="36" />
                        </g>
                     </g>
                     <g id="note-0000000510616708" class="note">
                        <g class="notehead">
                           <use xlink:href="#E0A4-0000000681910962" x="7632" y="1171" height="720px" width="720px" />
                        </g>
                        <g id="stem-0000002051621609" class="stem">
                           <rect x="7840" y="541" height="602" width="18" />
                           <g id="flag-0000001606946231" class="flag">
                              <use xlink:href="#E240-0000000681910962" x="7840" y="541" height="720px" width="720px" />
                           </g>
                        </g>
                     </g>
                  </g>
               </g>
               <g id="bline-0000001899894091" class="barLineAttr">
                  <path d="M8142 1171 L8142 451" stroke="currentColor" stroke-width="27" />
               </g>
            </g>
            <g id="measure-0000000771515668" class="measure">
               <g id="staff-0000000590357944" class="staff">
                  <path d="M8155 451 L12298 451" stroke="currentColor" stroke-width="13" />
                  <path d="M8155 631 L12298 631" stroke="currentColor" stroke-width="13" />
                  <path d="M8155 811 L12298 811" stroke="currentColor" stroke-width="13" />
                  <path d="M8155 991 L12298 991" stroke="currentColor" stroke-width="13" />
                  <path d="M8155 1171 L12298 1171" stroke="currentColor" stroke-width="13" />
                  <g id="layer-0000000685118024" class="layer">
                     <g id="beam-0000001060806853" class="beam">
                        <polygon points="8543,226 9509,271 9509,361 8543,316 " />
                        <polygon points="8543,361 8868,376 8868,466 8543,451 " />
                        <polygon points="8868,376 9184,391 9184,481 8868,466 " />
                        <polygon points="9184,391 9509,406 9509,496 9184,481 " />
                        <g id="note-0000002118797801" class="note">
                           <g class="notehead">
                              <use xlink:href="#E0A4-0000000681910962" x="8335" y="901" height="720px" width="720px" />
                           </g>
                           <g id="stem-0000001190959745" class="stem">
                              <rect x="8543" y="244" height="629" width="18" />
                           </g>
                        </g>
                        <g id="note-0000000571540977" class="note">
                           <g class="notehead">
                              <use xlink:href="#E0A4-0000000681910962" x="8651" y="991" height="720px" width="720px" />
                           </g>
                           <g id="stem-0000001912844175" class="stem">
                              <rect x="8859" y="259" height="704" width="18" />
                           </g>
                           <g id="accid-0000000194847408" class="accid" />
                        </g>
                        <g id="note-0000002035308228" class="note">
                           <g class="notehead">
                              <use xlink:href="#E0A4-0000000681910962" x="8967" y="1081" height="720px" width="720px" />
                           </g>
                           <g id="stem-0000001341853635" class="stem">
                              <rect x="9175" y="274" height="779" width="18" />
                           </g>
                           <g id="accid-0000000158374933" class="accid" />
                        </g>
                        <g id="note-0000001075260298" class="note">
                           <g class="notehead">
                              <use xlink:href="#E0A4-0000000681910962" x="9283" y="1171" height="720px" width="720px" />
                           </g>
                           <g id="stem-0000001808266298" class="stem">
                              <rect x="9491" y="289" height="854" width="18" />
                           </g>
                        </g>
                     </g>
                     <g id="beam-0000000595028635" class="beam">
                        <polygon points="9599,1576 10067,1531 10067,1441 9599,1486 " />
                        <g id="note-0000000824938981" class="note">
                           <g class="notehead">
                              <use xlink:href="#E0A4-0000000681910962" x="9599" y="901" height="720px" width="720px" />
                           </g>
                           <g id="stem-0000000343098142" class="stem">
                              <rect x="9599" y="929" height="629" width="18" />
                           </g>
                        </g>
                        <g id="note-0000001962408013" class="note">
                           <g class="notehead">
                              <use xlink:href="#E0A4-0000000681910962" x="10049" y="721" height="720px" width="720px" />
                           </g>
                           <g id="stem-0000000456880399" class="stem">
                              <rect x="10049" y="749" height="764" width="18" />
                           </g>
                           <g id="accid-0000001137623865" class="accid" />
                        </g>
                     </g>
                     <g id="note-0000000997389814" class="note">
                        <g class="notehead">
                           <use xlink:href="#E0A4-0000000681910962" x="10499" y="811" height="720px" width="720px" />
                        </g>
                        <g id="stem-0000001534827968" class="stem">
                           <rect x="10499" y="839" height="572" width="18" />
                           <g id="flag-0000000280090412" class="flag">
                              <use xlink:href="#E241-0000000681910962" x="10499" y="1411" height="720px" width="720px" />
                           </g>
                        </g>
                     </g>
                     <g id="note-0000002020739063" class="note">
                        <g class="notehead">
                           <use xlink:href="#E0A4-0000000681910962" x="10949" y="631" height="720px" width="720px" />
                        </g>
                        <g id="stem-0000000195400260" class="stem">
                           <rect x="10949" y="659" height="602" width="18" />
                        </g>
                     </g>
                     <g id="beam-0000001654001669" class="beam">
                        <polygon points="11639,1441 11973,1486 11973,1396 11639,1351 " />
                        <polygon points="11639,1306 11973,1351 11973,1261 11639,1216 " />
                        <g id="note-0000000107554536" class="note">
                           <g class="notehead">
                              <use xlink:href="#E0A4-0000000681910962" x="11639" y="721" height="720px" width="720px" />
                           </g>
                           <g id="stem-0000000589673557" class="stem">
                              <rect x="11639" y="749" height="674" width="18" />
                           </g>
                           <g id="accid-0000001635339425" class="accid" />
                        </g>
                        <g id="note-0000001777724115" class="note">
                           <g class="notehead">
                              <use xlink:href="#E0A4-0000000681910962" x="11955" y="811" height="720px" width="720px" />
                           </g>
                           <g id="stem-0000000006441594" class="stem">
                              <rect x="11955" y="839" height="629" width="18" />
                           </g>
                        </g>
                     </g>
                  </g>
               </g>
               <g id="bline-0000001108728549" class="barLineAttr">
                  <path d="M12285 1171 L12285 451" stroke="currentColor" stroke-width="27" />
               </g>
            </g>
            <g id="measure-0000000034075629" class="measure">
               <g id="staff-0000000269220094" class="staff">
                  <path d="M12298 451 L14642 451" stroke="currentColor" stroke-width="13" />
                  <path d="M12298 631 L14642 631" stroke="currentColor" stroke-width="13" />
                  <path d="M12298 811 L14642 811" stroke="currentColor" stroke-width="13" />
                  <path d="M12298 991 L14642 991" stroke="currentColor" stroke-width="13" />
                  <path d="M12298 1171 L14642 1171" stroke="currentColor" stroke-width="13" />
                  <g class="ledgerLines above">
                     <path d="M14159 271 L14442 271" stroke="currentColor" stroke-width="22" />
                  </g>
                  <g id="layer-0000000657821123" class="layer">
                     <g id="beam-0000001102246882" class="beam">
                        <polygon points="12478,1531 13444,1576 13444,1486 12478,1441 " />
                        <polygon points="12478,1396 12803,1411 12803,1321 12478,1306 " />
                        <polygon points="12803,1411 13119,1426 13119,1336 12803,1321 " />
                        <polygon points="13119,1426 13444,1441 13444,1351 13119,1336 " />
                        <g id="note-0000000753799505" class="note">
                           <g class="notehead">
                              <use xlink:href="#E0A4-0000000681910962" x="12478" y="631" height="720px" width="720px" />
                           </g>
                           <g id="stem-0000000889688008" class="stem">
                              <rect x="12478" y="659" height="854" width="18" />
                           </g>
                        </g>
                        <g id="note-0000001269406752" class="note">
                           <g class="notehead">
                              <use xlink:href="#E0A4-0000000681910962" x="12794" y="721" height="720px" width="720px" />
                           </g>
                           <g id="stem-0000000057716395" class="stem">
                              <rect x="12794" y="749" height="779" width="18" />
                           </g>
                           <g id="accid-0000001816731566" class="accid" />
                        </g>
                        <g id="note-0000000884936716" class="note">
                           <g class="notehead">
                              <use xlink:href="#E0A4-0000000681910962" x="13110" y="811" height="720px" width="720px" />
                           </g>
                           <g id="stem-0000001524325968" class="stem">
                              <rect x="13110" y="839" height="704" width="18" />
                           </g>
                        </g>
                        <g id="note-0000001807130337" class="note">
                           <g class="notehead">
                              <use xlink:href="#E0A4-0000000681910962" x="13426" y="901" height="720px" width="720px" />
                           </g>
                           <g id="stem-0000002014119113" class="stem">
                              <rect x="13426" y="929" height="629" width="18" />
                           </g>
                        </g>
                     </g>
                     <g id="beam-0000000892053144" class="beam">
                        <polygon points="13742,1216 14210,1171 14210,1081 13742,1126 " />
                        <g id="note-0000000578354438" class="note">
                           <g class="notehead">
                              <use xlink:href="#E0A4-0000000681910962" x="13742" y="541" height="720px" width="720px" />
                           </g>
                           <g id="stem-0000000515204530" class="stem">
                              <rect x="13742" y="569" height="629" width="18" />
                           </g>
                        </g>
                        <g id="note-0000001153851501" class="note">
                           <g class="notehead">
                              <use xlink:href="#E0A4-0000000681910962" x="14192" y="271" height="720px" width="720px" />
                           </g>
                           <g id="stem-0000000388471006" class="stem">
                              <rect x="14192" y="299" height="854" width="18" />
                           </g>
                        </g>
                     </g>
                  </g>
               </g>
               <g id="bline-0000000500782188" class="barLineAttr" />
            </g>
            <g id="bdend-0000001147722294" class="boundaryEnd section-0000001622650073" />
         </g>
      </g>
   </svg>
</svg>
