<svg width="530px" height="102px" version="1.1" xmlns="http://www.w3.org/2000/svg" xmlns:xlink="http://www.w3.org/1999/xlink" overflow="visible" id="pfnjo7e">
   <desc>Engraved by Verovio 5.6.0-85e7620</desc>
   <defs>
      <g id="E050-pfnjo7e">
         <path transform="scale(1,-1)" d="M441 -245c-23 -4 -48 -6 -76 -6c-59 0 -102 7 -130 20c-88 42 -150 93 -187 154c-26 44 -43 103 -48 176c0 6 -1 13 -1 19c0 54 15 111 45 170c29 57 65 106 110 148s96 85 153 127c-3 16 -8 46 -13 92c-4 43 -5 73 -5 89c0 117 16 172 69 257c34 54 64 82 89 82 c21 0 43 -30 69 -92s39 -115 41 -159v-15c0 -109 -21 -162 -67 -241c-13 -20 -63 -90 -98 -118c-13 -9 -25 -19 -37 -29l31 -181c8 1 18 2 28 2c58 0 102 -12 133 -35c59 -43 92 -104 98 -184c1 -7 1 -15 1 -22c0 -123 -87 -209 -181 -248c8 -57 17 -110 25 -162 c5 -31 6 -58 6 -80c0 -30 -5 -53 -14 -70c-35 -64 -88 -99 -158 -103c-5 0 -11 -1 -16 -1c-37 0 -72 10 -108 27c-50 24 -77 59 -80 105v11c0 29 7 55 20 76c18 28 45 42 79 44h6c49 0 93 -42 97 -87v-9c0 -51 -34 -86 -105 -106c17 -24 51 -36 102 -36c62 0 116 43 140 85 c9 16 13 41 13 74c0 20 -1 42 -5 67c-8 53 -18 106 -26 159zM461 939c-95 0 -135 -175 -135 -286c0 -24 2 -48 5 -71c50 39 92 82 127 128c40 53 60 100 60 140v8c-4 53 -22 81 -55 81h-2zM406 119l54 -326c73 25 110 78 110 161c0 7 0 15 -1 23c-7 95 -57 142 -151 142h-12 zM382 117c-72 -2 -128 -47 -128 -120v-7c2 -46 43 -99 75 -115c-3 -2 -7 -5 -10 -10c-70 33 -116 88 -123 172v11c0 68 44 126 88 159c23 17 49 29 78 36l-29 170c-21 -13 -52 -37 -92 -73c-50 -44 -86 -84 -109 -119c-45 -69 -67 -130 -67 -182v-13c5 -68 35 -127 93 -176 s125 -73 203 -73c25 0 50 3 75 9c-19 111 -36 221 -54 331z" />
      </g>
      <g id="E260-pfnjo7e">
         <path transform="scale(1,-1)" d="M20 110c32 16 54 27 93 27c26 0 35 -3 54 -13c13 -7 24 -20 27 -38l4 -25c0 -28 -16 -57 -45 -89c-23 -25 -39 -44 -65 -68l-88 -79v644h20v-359zM90 106c-32 0 -48 -10 -70 -29v-194c31 31 54 59 71 84c21 32 32 59 32 84c0 9 1 16 1 20c0 14 -3 21 -11 30l-8 3z" />
      </g>
      <g id="E082-pfnjo7e">
         <path transform="scale(1,-1)" d="M124 -185c-18 0 -55 -14 -65 -65h-36l-3 30c0 25 6 45 18 63c11 19 22 30 39 43l121 82l37 29c15 11 27 29 38 54c12 24 18 47 18 70c0 40 -19 88 -94 88c-25 0 -32 0 -50 -8c-14 -5 -23 -12 -26 -22c3 -9 7 -15 10 -18l24 -17c12 -7 17 -11 27 -21c5 -7 7 -16 7 -27 c0 -12 0 -57 -79 -74c-30 0 -76 26 -76 94c0 66 81 135 197 135c72 0 181 -32 181 -150c0 -53 -32 -95 -113 -133l-91 -41c-26 -11 -45 -23 -57 -37l49 7c84 0 115 -41 148 -41c20 0 33 20 39 61h35c0 -152 -68 -168 -114 -168c-17 0 -65 0 -79 7h10l-28 17 c-49 37 -69 40 -87 42z" />
      </g>
      <g id="E084-pfnjo7e">
         <path transform="scale(1,-1)" d="M20 -78c84 97 114 180 134 329h170c-13 -32 -82 -132 -99 -151l-84 -97c-33 -36 -59 -63 -80 -81h162v102l127 123v-225h57v-39h-57v-34c0 -43 19 -65 57 -65v-34h-244v36c48 0 60 26 60 70v27h-203v39z" />
      </g>
      <g id="E0A4-pfnjo7e">
         <path transform="scale(1,-1)" d="M0 -39c0 68 73 172 200 172c66 0 114 -37 114 -95c0 -84 -106 -171 -218 -171c-64 0 -96 30 -96 94z" />
      </g>
      <g id="E4E7-pfnjo7e">
         <path transform="scale(1,-1)" d="M133 -111c0 -33 -21 -50 -52 -55c10 -3 18 -4 25 -4c40 0 69 24 90 47l66 197c-36 -18 -64 -25 -112 -25c-23 0 -38 3 -45 8c-37 7 -55 27 -55 59c8 35 30 54 68 58c45 -6 49 -13 64 -48c0 -3 1 -5 1 -7c0 -27 -25 -46 -52 -49c6 -4 15 -6 26 -6c32 2 62 14 88 29 c32 19 44 36 59 71l7 1l10 2h4c-72 -220 -143 -439 -215 -659h-37l108 324c-20 -13 -51 -20 -82 -20c-21 0 -35 4 -43 10c-37 6 -55 26 -55 58c8 35 31 56 68 60c43 -8 48 -13 64 -51z" />
      </g>
      <g id="E243-pfnjo7e">
         <path transform="scale(1,-1)" d="M216 730c-5 8 -10 13 -11 16l-4 10c0 3 2 5 5 5s7 -2 13 -7c35 -42 57 -101 57 -172c0 -34 -6 -65 -17 -94c10 -31 17 -64 17 -96c0 -104 -60 -183 -122 -241c-63 -59 -57 -53 -61 -56c-38 -34 -63 -95 -71 -95h-22v190v190c40 7 69 11 87 16c116 36 175 111 175 197 c0 44 -15 91 -46 137zM248 463c-23 -48 -58 -89 -94 -122c-63 -59 -57 -53 -61 -56c-30 -27 -44 -71 -53 -88c20 3 36 6 47 9c88 27 168 95 168 200c0 19 -3 39 -7 57z" />
      </g>
      <g id="E240-pfnjo7e">
         <path transform="scale(1,-1)" d="M179 -646c15 29 29 55 46 102c18 49 30 108 30 138c0 105 -80 173 -168 200c-18 5 -47 9 -87 16v190h22c8 0 33 -61 71 -95c4 -3 -2 3 61 -56c62 -58 122 -137 122 -241c0 -38 -13 -106 -35 -163c-20 -51 -43 -99 -66 -132c-6 -5 -10 -7 -13 -7s-5 2 -5 5l4 10 c1 3 14 25 18 33z" />
      </g>
      <g id="E0A3-pfnjo7e">
         <path transform="scale(1,-1)" d="M278 64c0 22 -17 39 -43 39c-12 0 -26 -3 -41 -10c-85 -43 -165 -94 -165 -156c5 -25 15 -32 49 -32c67 11 200 95 200 159zM0 -36c0 68 73 174 200 174c66 0 114 -39 114 -97c0 -84 -106 -173 -218 -173c-64 0 -96 32 -96 96z" />
      </g>
   </defs>
   <style type="text/css">#pfnjo7e g.page-margin {font-family:Times,serif;}#pfnjo7e g.ending, #pfnjo7e g.fing, #pfnjo7e g.reh, #pfnjo7e g.tempo {font-weight:bold;}#pfnjo7e g.dir, #pfnjo7e g.dynam, #pfnjo7e g.mNum {font-style:italic;}#pfnjo7e g.label {font-weight:normal;}#pfnjo7e path {stroke:currentColor}</style>
   <svg class="definition-scale" color="black" viewBox="0 0 11760 2250">
      <g class="page-margin" transform="translate(500, 500)">
         <g id="gjwwkjn" class="mdiv pageMilestone" />
         <g id="hzub3xf" class="score pageMilestone" />
         <g id="h1wvbc8t" class="system">
            <g id="j14qhuvu" class="section systemMilestone" />
            <g id="qmlovzj" class="measure">
               <g id="v1bpmbr1" class="staff">
                  <path d="M0 247 L3808 247" stroke-width="13" />
                  <path d="M0 427 L3808 427" stroke-width="13" />
                  <path d="M0 607 L3808 607" stroke-width="13" />
                  <path d="M0 787 L3808 787" stroke-width="13" />
                  <path d="M0 967 L3808 967" stroke-width="13" />
                  <g id="c1vlx8nz" class="clef">
                     <use xlink:href="#E050-pfnjo7e" transform="translate(90, 787) scale(0.72, 0.72)" />
                  </g>
                  <g id="d442sxk" class="keySig">
                     <g id="edjxg5p" class="keyAccid">
                        <use xlink:href="#E260-pfnjo7e" transform="translate(735, 607) scale(0.72, 0.72)" />
                     </g>
                     <g id="f9n3x7f" class="keyAccid">
                        <use xlink:href="#E260-pfnjo7e" transform="translate(915, 337) scale(0.72, 0.72)" />
                     </g>
                  </g>
                  <g id="g1a9x3r7" class="meterSig">
                     <use xlink:href="#E082-pfnjo7e" transform="translate(1223, 427) scale(0.72, 0.72)" />
                     <use xlink:href="#E084-pfnjo7e" transform="translate(1228, 787) scale(0.72, 0.72)" />
                  </g>
                  <g id="w1m11mph" class="layer">
                     <g id="u1bb0tuc" class="beam">
                        <polygon stroke-opacity="1" fill-opacity="1" points="1796,1012 2710,1192 2710,1102 1796,922" />
                        <polygon stroke-opacity="1" fill-opacity="1" points="2159,950 2385,994 2385,904 2159,860" />
                        <g id="c1ahluu1" class="note">
                           <g class="notehead">
                              <use xlink:href="#E0A4-pfnjo7e" transform="translate(1796, 247) scale(0.72, 0.72)" />
                           </g>
                           <g id="q14fmeoc" class="dots">
                              <ellipse cx="2112" cy="157" rx="36" ry="36" fill-opacity="1" stroke-opacity="1" />
                           </g>
                           <g id="pmwmthe" class="stem">
                              <path d="M1805 275 L1805 994" stroke-width="18" />
                           </g>
                        </g>
                        <g id="d1iiegxs" class="note">
                           <g class="notehead">
                              <use xlink:href="#E0A4-pfnjo7e" transform="translate(2376, 427) scale(0.72, 0.72)" />
                           </g>
                           <g id="rivwb27" class="stem">
                              <path d="M2385 455 L2385 1111" stroke-width="18" />
                           </g>
                        </g>
                        <g id="erbcoh7" class="note">
                           <g class="notehead">
                              <use xlink:href="#E0A4-pfnjo7e" transform="translate(2692, 607) scale(0.72, 0.72)" />
                           </g>
                           <g id="s1f31sgl" class="stem">
                              <path d="M2701 635 L2701 1174" stroke-width="18" />
                           </g>
                           <g id="y1waypqj" class="accid" />
                        </g>
                     </g>
                     <g id="a1pfogn4" class="rest">
                        <use xlink:href="#E4E7-pfnjo7e" transform="translate(3142, 607) scale(0.72, 0.72)" />
                     </g>
                     <g id="fmlv5y5" class="note">
                        <g class="notehead">
                           <use xlink:href="#E0A4-pfnjo7e" transform="translate(3465, 247) scale(0.72, 0.72)" />
                        </g>
                        <g id="t1ajik95" class="stem">
                           <path d="M3474 275 L3474 877" stroke-width="18" />
                           <g id="u6oscn4" class="flag">
                              <use xlink:href="#E243-pfnjo7e" transform="translate(3465, 877) scale(0.72, 0.72)" />
                           </g>
                        </g>
                     </g>
                  </g>
               </g>
               <g id="yhbsl03" class="barLine">
                  <path d="M3795 247 L3795 967" stroke-width="27" />
               </g>
            </g>
            <g id="zmyzslu" class="measure">
               <g id="x1oxd4nf" class="staff">
                  <path d="M3808 247 L6000 247" stroke-width="13" />
                  <path d="M3808 427 L6000 427" stroke-width="13" />
                  <path d="M3808 607 L6000 607" stroke-width="13" />
                  <path d="M3808 787 L6000 787" stroke-width="13" />
                  <path d="M3808 967 L6000 967" stroke-width="13" />
                  <g id="y23h8om" class="layer">
                     <g id="v6sh6uc" class="beam">
                        <polygon stroke-opacity="1" fill-opacity="1" points="3988,967 4902,1147 4902,1057 3988,877" />
                        <polygon stroke-opacity="1" fill-opacity="1" points="4351,905 4577,949 4577,859 4351,815" />
                        <g id="g14xmp24" class="note">
                           <g class="notehead">
                              <use xlink:href="#E0A4-pfnjo7e" transform="translate(3988, 247) scale(0.72, 0.72)" />
                           </g>
                           <g id="w19obtds" class="dots">
                              <ellipse cx="4304" cy="157" rx="36" ry="36" fill-opacity="1" stroke-opacity="1" />
                           </g>
                           <g id="vyt4ad" class="stem">
                              <path d="M3997 275 L3997 949" stroke-width="18" />
                           </g>
                        </g>
                        <g id="hju2rxn" class="note">
                           <g class="notehead">
                              <use xlink:href="#E0A4-pfnjo7e" transform="translate(4568, 337) scale(0.72, 0.72)" />
                           </g>
                           <g id="xm40ctx" class="stem">
                              <path d="M4577 365 L4577 1066" stroke-width="18" />
                           </g>
                           <g id="zfx25hn" class="accid" />
                        </g>
                        <g id="izodm98" class="note">
                           <g class="notehead">
                              <use xlink:href="#E0A4-pfnjo7e" transform="translate(4884, 517) scale(0.72, 0.72)" />
                           </g>
                           <g id="yvzjjlx" class="stem">
                              <path d="M4893 545 L4893 1129" stroke-width="18" />
                           </g>
                        </g>
                     </g>
                     <g id="b8j2ung" class="rest">
                        <use xlink:href="#E4E7-pfnjo7e" transform="translate(5334, 607) scale(0.72, 0.72)" />
                     </g>
                     <g id="j1mj6nxn" class="note">
                        <g class="notehead">
                           <use xlink:href="#E0A4-pfnjo7e" transform="translate(5657, 337) scale(0.72, 0.72)" />
                        </g>
                        <g id="z4bj489" class="stem">
                           <path d="M5666 365 L5666 967" stroke-width="18" />
                           <g id="a1tqy1kq" class="flag">
                              <use xlink:href="#E243-pfnjo7e" transform="translate(5657, 967) scale(0.72, 0.72)" />
                           </g>
                        </g>
                        <g id="a3ie8ud" class="accid" />
                     </g>
                  </g>
               </g>
               <g id="hmwwo00" class="barLine">
                  <path d="M5987 247 L5987 967" stroke-width="27" />
               </g>
            </g>
            <g id="i1s4ffnc" class="measure">
               <g id="z16wv72r" class="staff">
                  <path d="M6000 247 L9539 247" stroke-width="13" />
                  <path d="M6000 427 L9539 427" stroke-width="13" />
                  <path d="M6000 607 L9539 607" stroke-width="13" />
                  <path d="M6000 787 L9539 787" stroke-width="13" />
                  <path d="M6000 967 L9539 967" stroke-width="13" />
                  <g id="a1n0fw13" class="layer">
                     <g id="wgj8qwy" class="beam">
                        <polygon stroke-opacity="1" fill-opacity="1" points="6180,1147 6648,1192 6648,1102 6180,1057" />
                        <g id="k1d0qcvg" class="note">
                           <g class="notehead">
                              <use xlink:href="#E0A4-pfnjo7e" transform="translate(6180, 427) scale(0.72, 0.72)" />
                           </g>
                           <g id="bb8g0u0" class="stem">
                              <path d="M6189 455 L6189 1129" stroke-width="18" />
                           </g>
                        </g>
                        <g id="leeh8fz" class="note">
                           <g class="notehead">
                              <use xlink:href="#E0A4-pfnjo7e" transform="translate(6630, 517) scale(0.72, 0.72)" />
                           </g>
                           <g id="cfjak8c" class="stem">
                              <path d="M6639 545 L6639 1174" stroke-width="18" />
                           </g>
                        </g>
                     </g>
                     <g id="xfggj11" class="beam">
                        <polygon stroke-opacity="1" fill-opacity="1" points="7080,1192 9214,1012 9214,922 7080,1102" />
                        <polygon stroke-opacity="1" fill-opacity="1" points="8889,904 9214,877 9214,787 8889,814" />
                        <g id="m5odh2d" class="note">
                           <g class="notehead">
                              <use xlink:href="#E0A4-pfnjo7e" transform="translate(7080, 607) scale(0.72, 0.72)" />
                           </g>
                           <g id="d16zdwlv" class="stem">
                              <path d="M7089 635 L7089 1174" stroke-width="18" />
                           </g>
                           <g id="b37hn12" class="accid" />
                        </g>
                        <g id="n16gprxv" class="note">
                           <g class="notehead">
                              <use xlink:href="#E0A4-pfnjo7e" transform="translate(7396, 517) scale(0.54, 0.54)" />
                           </g>
                           <g id="e11izfdo" class="stem">
                              <path d="M7556 496 L7556 90" stroke-width="18" />
                              <path d="M7489 358 L7690 157" stroke-width="21" />
                              <g id="fqn9gl2" class="flag">
                                 <use xlink:href="#E240-pfnjo7e" transform="translate(7547, 90) scale(0.54, 0.54)" />
                              </g>
                           </g>
                        </g>
                        <g id="o1w2vfrn" class="note">
                           <g class="notehead">
                              <use xlink:href="#E0A4-pfnjo7e" transform="translate(7767, 607) scale(0.54, 0.54)" />
                           </g>
                           <g id="goma0gm" class="stem">
                              <path d="M7927 586 L7927 157" stroke-width="18" />
                              <path d="M7860 425 L8061 224" stroke-width="21" />
                              <g id="h1a2rmes" class="flag">
                                 <use xlink:href="#E240-pfnjo7e" transform="translate(7918, 157) scale(0.54, 0.54)" />
                              </g>
                           </g>
                           <g id="c1kyp1ws" class="accid" />
                        </g>
                        <g id="pk6xyvl" class="note">
                           <g class="notehead">
                              <use xlink:href="#E0A4-pfnjo7e" transform="translate(8138, 697) scale(0.54, 0.54)" />
                           </g>
                           <g id="i4vs11m" class="stem">
                              <path d="M8298 676 L8298 225" stroke-width="18" />
                              <path d="M8231 493 L8432 292" stroke-width="21" />
                              <g id="j1s8kxne" class="flag">
                                 <use xlink:href="#E240-pfnjo7e" transform="translate(8289, 225) scale(0.54, 0.54)" />
                              </g>
                           </g>
                        </g>
                        <g id="qhghzyb" class="note">
                           <g class="notehead">
                              <use xlink:href="#E0A4-pfnjo7e" transform="translate(8509, 607) scale(0.54, 0.54)" />
                           </g>
                           <g id="k19a056m" class="stem">
                              <path d="M8669 586 L8669 157" stroke-width="18" />
                              <path d="M8602 425 L8803 224" stroke-width="21" />
                              <g id="l1e7ub62" class="flag">
                                 <use xlink:href="#E240-pfnjo7e" transform="translate(8660, 157) scale(0.54, 0.54)" />
                              </g>
                           </g>
                           <g id="d1eyoooy" class="accid" />
                        </g>
                        <g id="rgx8bjh" class="note">
                           <g class="notehead">
                              <use xlink:href="#E0A4-pfnjo7e" transform="translate(8880, 247) scale(0.72, 0.72)" />
                           </g>
                           <g id="mlwp7zq" class="stem">
                              <path d="M8889 275 L8889 1021" stroke-width="18" />
                           </g>
                        </g>
                        <g id="s82fpt" class="note">
                           <g class="notehead">
                              <use xlink:href="#E0A4-pfnjo7e" transform="translate(9196, 337) scale(0.72, 0.72)" />
                           </g>
                           <g id="nt9ronl" class="stem">
                              <path d="M9205 365 L9205 994" stroke-width="18" />
                           </g>
                           <g id="ewtw03u" class="accid" />
                        </g>
                     </g>
                  </g>
               </g>
               <g id="qa56g6u" class="barLine">
                  <path d="M9526 247 L9526 967" stroke-width="27" />
               </g>
            </g>
            <g id="r4ks4fv" class="measure">
               <g id="b13viyd2" class="staff">
                  <path d="M9539 247 L10769 247" stroke-width="13" />
                  <path d="M9539 427 L10769 427" stroke-width="13" />
                  <path d="M9539 607 L10769 607" stroke-width="13" />
                  <path d="M9539 787 L10769 787" stroke-width="13" />
                  <path d="M9539 967 L10769 967" stroke-width="13" />
                  <g id="c1yevvwh" class="layer">
                     <g id="t3elz0m" class="note">
                        <g class="notehead">
                           <use xlink:href="#E0A3-pfnjo7e" transform="translate(9719, 427) scale(0.72, 0.72)" />
                        </g>
                        <g id="o1awc8ol" class="stem">
                           <path d="M9728 452 L9728 1057" stroke-width="18" />
                        </g>
                     </g>
                  </g>
               </g>
               <g id="z2gqwr3" class="barLine" />
            </g>
            <g id="kgtp1zt" class="systemMilestoneEnd j14qhuvu" />
         </g>
         <g id="l1wb3e2s" class="pageMilestoneEnd hzub3xf" />
         <g id="m1c77hfv" class="pageMilestoneEnd gjwwkjn" />
      </g>
   </svg>
</svg>
