<svg width="437px" height="133px" version="1.1" xmlns="http://www.w3.org/2000/svg" xmlns:xlink="http://www.w3.org/1999/xlink" overflow="visible" id="pfnjo7e">
   <desc>Engraved by Verovio 5.7.0-7135340</desc>
   <defs>
      <g id="E062-pfnjo7e">
         <path transform="scale(1,-1)" d="M582 -120c0 32 26 58 58 58s58 -26 58 -58s-26 -58 -58 -58s-58 26 -58 58zM582 120c0 32 26 58 58 58s58 -26 58 -58s-26 -58 -58 -58s-58 26 -58 58zM158 96c51 0 73 -14 88 -49l16 -39c0 -17 -2 -30 -7 -40c-3 -11 -10 -21 -19 -31c-17 -18 -49 -43 -84 -43 c-55 0 -77 13 -112 44c-24 21 -35 55 -35 100c0 46 14 81 32 112c30 52 71 79 137 93l36 6l26 2c154 0 235 -68 274 -182c11 -32 18 -68 18 -107c0 -103 -26 -182 -68 -250c-89 -145 -234 -230 -412 -288l-30 -5c-9 0 -14 3 -14 8c3 10 5 11 10 16c35 15 70 30 96 44l78 43 c96 57 162 136 197 258c9 33 17 60 22 100c3 22 5 35 6 39c-7 69 -16 115 -23 140s-4 22 -16 40c-8 12 -19 23 -31 34c-24 21 -62 44 -118 44c-48 0 -84 -8 -113 -28c-28 -19 -42 -44 -42 -73v-16c2 -5 3 -9 4 -11c24 22 52 39 84 39z" />
      </g>
      <g id="E262-pfnjo7e">
         <path transform="scale(1,-1)" d="M136 186v169h17v-164l44 14v-91l-44 -14v-165l44 12v-91l-44 -13v-155h-17v150l-76 -22v-155h-17v149l-43 -13v90l43 14v167l-43 -14v92l43 13v169h17v-163zM60 73v-167l76 22v168z" />
      </g>
      <g id="E08A-pfnjo7e">
         <path transform="scale(1,-1)" d="M340 179c-9 24 -56 41 -89 41c-46 0 -81 -28 -100 -58c-17 -28 -25 -78 -25 -150c0 -65 2 -111 8 -135c8 -31 18 -49 40 -67c20 -17 43 -25 70 -25c54 0 92 36 115 75c14 25 23 54 28 88h27c0 -63 -24 -105 -58 -141c-35 -38 -82 -56 -140 -56c-45 0 -83 13 -115 39 c-57 45 -101 130 -101 226c0 59 33 127 68 163c36 37 97 72 160 72c36 0 93 -21 121 -40c11 -8 23 -17 33 -30c19 -23 27 -48 27 -76c0 -51 -35 -88 -86 -88c-43 0 -76 27 -76 68c0 26 7 35 21 51c15 17 32 27 58 32c7 2 14 7 14 11z" />
      </g>
      <g id="E0A4-pfnjo7e">
         <path transform="scale(1,-1)" d="M0 -39c0 68 73 172 200 172c66 0 114 -37 114 -95c0 -84 -106 -171 -218 -171c-64 0 -96 30 -96 94z" />
      </g>
      <g id="E261-pfnjo7e">
         <path transform="scale(1,-1)" d="M0 -188v539h18v-191l139 22v-533h-17v186zM18 -100l122 17v176l-122 -19v-174z" />
      </g>
      <g id="E0A3-pfnjo7e">
         <path transform="scale(1,-1)" d="M278 64c0 22 -17 39 -43 39c-12 0 -26 -3 -41 -10c-85 -43 -165 -94 -165 -156c5 -25 15 -32 49 -32c67 11 200 95 200 159zM0 -36c0 68 73 174 200 174c66 0 114 -39 114 -97c0 -84 -106 -173 -218 -173c-64 0 -96 32 -96 96z" />
      </g>
      <g id="E0A2-pfnjo7e">
         <path transform="scale(1,-1)" d="M198 133c102 0 207 -45 207 -133c0 -92 -118 -133 -227 -133c-101 0 -178 46 -178 133c0 88 93 133 198 133zM293 -21c0 14 -3 29 -8 44c-7 20 -18 38 -33 54c-20 21 -43 31 -68 31l-20 -2c-15 -5 -27 -14 -36 -28c-4 -9 -6 -17 -8 -24s-3 -16 -3 -27c0 -15 3 -34 9 -57 s18 -41 34 -55c15 -15 36 -23 62 -23c4 0 10 1 18 2c19 5 32 15 40 30s13 34 13 55z" />
      </g>
      <g id="E260-pfnjo7e">
         <path transform="scale(1,-1)" d="M20 110c32 16 54 27 93 27c26 0 35 -3 54 -13c13 -7 24 -20 27 -38l4 -25c0 -28 -16 -57 -45 -89c-23 -25 -39 -44 -65 -68l-88 -79v644h20v-359zM90 106c-32 0 -48 -10 -70 -29v-194c31 31 54 59 71 84c21 32 32 59 32 84c0 9 1 16 1 20c0 14 -3 21 -11 30l-8 3z" />
      </g>
   </defs>
   <style type="text/css">#pfnjo7e g.page-margin {font-family:Times,serif;}#pfnjo7e g.ending, #pfnjo7e g.fing, #pfnjo7e g.reh, #pfnjo7e g.tempo {font-weight:bold;}#pfnjo7e g.dir, #pfnjo7e g.dynam, #pfnjo7e g.mNum {font-style:italic;}#pfnjo7e g.label {font-weight:normal;}#pfnjo7e ellipse, #pfnjo7e path, #pfnjo7e polygon, #pfnjo7e polyline, #pfnjo7e rect {stroke:currentColor}</style>
   <svg class="definition-scale" color="black" viewBox="0 0 9700 2950">
      <g class="page-margin" transform="translate(500, 500)">
         <g id="ewtw03u" class="mdiv pageMilestone" />
         <g id="f12ecyql" class="score pageMilestone" />
         <g id="fwigvp2" class="system">
            <g id="hzub3xf" class="section systemMilestone" />
            <g id="qmlovzj" class="measure">
               <g id="tmeaduc" class="staff">
                  <path d="M0 1057 L2432 1057" stroke-width="13" />
                  <path d="M0 1237 L2432 1237" stroke-width="13" />
                  <path d="M0 1417 L2432 1417" stroke-width="13" />
                  <path d="M0 1597 L2432 1597" stroke-width="13" />
                  <path d="M0 1777 L2432 1777" stroke-width="13" />
                  <g id="frvbxh6" class="clef">
                     <use xlink:href="#E062-pfnjo7e" transform="translate(88, 1237) scale(0.72, 0.72)" />
                  </g>
                  <g id="g1gv1amb" class="keySig">
                     <g id="hpvbxwl" class="keyAccid">
                        <use xlink:href="#E262-pfnjo7e" transform="translate(769, 1237) scale(0.72, 0.72)" />
                     </g>
                  </g>
                  <g id="i1yz9fdu" class="meterSig">
                     <use xlink:href="#E08A-pfnjo7e" transform="translate(1090, 1417) scale(0.72, 0.72)" />
                  </g>
                  <g class="ledgerLines above cue">
                     <path d="M2133 877 L2373 877" stroke-width="16" />
                  </g>
                  <g id="u4oqxce" class="layer">
                     <g id="xfggj11" class="graceGrp">
                        <g id="t3elz0m" class="beam">
                           <polygon fill-opacity="1" points="1719,382 2338,202 2338,269 1719,449" />
                           <polygon fill-opacity="1" points="1719,482 2093,373 2093,440 1719,549" />
                           <polygon fill-opacity="1" points="2093,373 2338,302 2338,369 2093,440" />
                           <polygon fill-opacity="1" points="1719,582 2093,473 2093,540 1719,649" />
                           <polygon fill-opacity="1" points="2093,473 2338,402 2338,469 2093,540" />
                           <g id="a1pfogn4" class="note">
                              <g class="notehead">
                                 <use xlink:href="#E0A4-pfnjo7e" transform="translate(1568, 1417) scale(0.54, 0.54)" />
                              </g>
                              <g id="m1c77hfv" class="stem">
                                 <path d="M1728 1396 L1728 400" stroke-width="18" />
                              </g>
                           </g>
                           <g id="b8j2ung" class="note">
                              <g class="notehead">
                                 <use xlink:href="#E0A4-pfnjo7e" transform="translate(1933, 1237) scale(0.54, 0.54)" />
                              </g>
                              <g id="n1p91bt0" class="stem">
                                 <path d="M2093 1216 L2093 291" stroke-width="18" />
                              </g>
                              <g id="qhghzyb" class="accid">
                                 <use xlink:href="#E261-pfnjo7e" transform="translate(1804, 1237) scale(0.54, 0.54)" />
                              </g>
                           </g>
                           <g id="c1ahluu1" class="note">
                              <g class="notehead">
                                 <use xlink:href="#E0A4-pfnjo7e" transform="translate(2169, 787) scale(0.54, 0.54)" />
                              </g>
                              <g id="o1hn97h8" class="stem">
                                 <path d="M2329 766 L2329 220" stroke-width="18" />
                              </g>
                           </g>
                        </g>
                     </g>
                  </g>
               </g>
               <g id="yhbsl03" class="barLine">
                  <path d="M2419 1057 L2419 1777" stroke-width="27" />
               </g>
            </g>
            <g id="zmyzslu" class="measure">
               <g id="v1bpmbr1" class="staff">
                  <path d="M2432 1057 L4828 1057" stroke-width="13" />
                  <path d="M2432 1237 L4828 1237" stroke-width="13" />
                  <path d="M2432 1417 L4828 1417" stroke-width="13" />
                  <path d="M2432 1597 L4828 1597" stroke-width="13" />
                  <path d="M2432 1777 L4828 1777" stroke-width="13" />
                  <g class="ledgerLines above">
                     <path d="M2564 877 L2886 877" stroke-width="22" />
                     <path d="M3739 877 L4017 877" stroke-width="22" />
                     <path d="M2564 697 L2886 697" stroke-width="22" />
                     <path d="M3739 697 L4017 697" stroke-width="22" />
                     <path d="M3739 517 L4017 517" stroke-width="22" />
                  </g>
                  <g class="ledgerLines above cue">
                     <path d="M3509 877 L3717 877" stroke-width="16" />
                     <path d="M4529 877 L4769 877" stroke-width="16" />
                  </g>
                  <g id="w1m11mph" class="layer">
                     <g id="d1iiegxs" class="note">
                        <g class="notehead">
                           <use xlink:href="#E0A3-pfnjo7e" transform="translate(2612, 607) scale(0.72, 0.72)" />
                        </g>
                        <g id="pmwmthe" class="stem">
                           <path d="M2621 632 L2621 1417" stroke-width="18" />
                        </g>
                        <g id="b37hn12" class="accid" />
                     </g>
                     <g id="y1waypqj" class="graceGrp">
                        <g id="u1bb0tuc" class="beam">
                           <polygon fill-opacity="1" points="3079,382 3698,202 3698,269 3079,449" />
                           <polygon fill-opacity="1" points="3079,482 3453,373 3453,440 3079,549" />
                           <polygon fill-opacity="1" points="3453,373 3698,302 3698,369 3453,440" />
                           <polygon fill-opacity="1" points="3079,582 3453,473 3453,540 3079,649" />
                           <polygon fill-opacity="1" points="3453,473 3698,402 3698,469 3453,540" />
                           <g id="erbcoh7" class="note">
                              <g class="notehead">
                                 <use xlink:href="#E0A4-pfnjo7e" transform="translate(2928, 1417) scale(0.54, 0.54)" />
                              </g>
                              <g id="q14fmeoc" class="stem">
                                 <path d="M3088 1396 L3088 400" stroke-width="18" />
                              </g>
                           </g>
                           <g id="fmlv5y5" class="note">
                              <g class="notehead">
                                 <use xlink:href="#E0A4-pfnjo7e" transform="translate(3293, 1237) scale(0.54, 0.54)" />
                              </g>
                              <g id="rivwb27" class="stem">
                                 <path d="M3453 1216 L3453 291" stroke-width="18" />
                              </g>
                              <g id="rgx8bjh" class="accid">
                                 <use xlink:href="#E261-pfnjo7e" transform="translate(3164, 1237) scale(0.54, 0.54)" />
                              </g>
                           </g>
                           <g id="g14xmp24" class="note">
                              <g class="notehead">
                                 <use xlink:href="#E0A4-pfnjo7e" transform="translate(3529, 787) scale(0.54, 0.54)" />
                              </g>
                              <g id="s1f31sgl" class="stem">
                                 <path d="M3689 766 L3689 220" stroke-width="18" />
                              </g>
                           </g>
                        </g>
                     </g>
                     <g id="hju2rxn" class="note">
                        <g class="notehead">
                           <use xlink:href="#E0A3-pfnjo7e" transform="translate(3765, 427) scale(0.72, 0.72)" />
                        </g>
                        <g id="t1ajik95" class="stem">
                           <path d="M3774 452 L3774 1417" stroke-width="18" />
                        </g>
                     </g>
                     <g id="zfx25hn" class="graceGrp">
                        <g id="v6sh6uc" class="beam">
                           <polygon fill-opacity="1" points="4244,382 4734,202 4734,269 4244,449" />
                           <polygon fill-opacity="1" points="4244,482 4489,392 4489,459 4244,549" />
                           <polygon fill-opacity="1" points="4489,392 4734,302 4734,369 4489,459" />
                           <polygon fill-opacity="1" points="4244,582 4489,492 4489,559 4244,649" />
                           <polygon fill-opacity="1" points="4489,492 4734,402 4734,469 4489,559" />
                           <g id="izodm98" class="note">
                              <g class="notehead">
                                 <use xlink:href="#E0A4-pfnjo7e" transform="translate(4093, 1417) scale(0.54, 0.54)" />
                              </g>
                              <g id="u6oscn4" class="stem">
                                 <path d="M4253 1396 L4253 400" stroke-width="18" />
                              </g>
                           </g>
                           <g id="j1mj6nxn" class="note">
                              <g class="notehead">
                                 <use xlink:href="#E0A4-pfnjo7e" transform="translate(4329, 1237) scale(0.54, 0.54)" />
                              </g>
                              <g id="vyt4ad" class="stem">
                                 <path d="M4489 1216 L4489 310" stroke-width="18" />
                              </g>
                              <g id="c1kyp1ws" class="accid" />
                           </g>
                           <g id="k1d0qcvg" class="note">
                              <g class="notehead">
                                 <use xlink:href="#E0A4-pfnjo7e" transform="translate(4565, 787) scale(0.54, 0.54)" />
                              </g>
                              <g id="w19obtds" class="stem">
                                 <path d="M4725 766 L4725 220" stroke-width="18" />
                              </g>
                           </g>
                        </g>
                     </g>
                  </g>
               </g>
               <g id="hmwwo00" class="barLine">
                  <path d="M4815 1057 L4815 1777" stroke-width="27" />
               </g>
            </g>
            <g id="i1s4ffnc" class="measure">
               <g id="x1oxd4nf" class="staff">
                  <path d="M4828 1057 L6824 1057" stroke-width="13" />
                  <path d="M4828 1237 L6824 1237" stroke-width="13" />
                  <path d="M4828 1417 L6824 1417" stroke-width="13" />
                  <path d="M4828 1597 L6824 1597" stroke-width="13" />
                  <path d="M4828 1777 L6824 1777" stroke-width="13" />
                  <g class="ledgerLines above">
                     <path d="M5173 877 L5559 877" stroke-width="22" />
                     <path d="M5173 697 L5559 697" stroke-width="22" />
                     <path d="M5173 517 L5559 517" stroke-width="22" />
                     <path d="M5173 337 L5559 337" stroke-width="22" />
                  </g>
                  <g class="ledgerLines above cue">
                     <path d="M6525 877 L6765 877" stroke-width="16" />
                  </g>
                  <g id="y23h8om" class="layer">
                     <g id="leeh8fz" class="note">
                        <g class="notehead">
                           <use xlink:href="#E0A2-pfnjo7e" transform="translate(5221, 337) scale(0.72, 0.72)" />
                        </g>
                        <g id="s82fpt" class="accid">
                           <use xlink:href="#E260-pfnjo7e" transform="translate(5008, 337) scale(0.72, 0.72)" />
                        </g>
                     </g>
                     <g id="a3ie8ud" class="graceGrp">
                        <g id="wgj8qwy" class="beam">
                           <polygon fill-opacity="1" points="6240,472 6730,292 6730,359 6240,539" />
                           <polygon fill-opacity="1" points="6240,572 6485,482 6485,549 6240,639" />
                           <polygon fill-opacity="1" points="6485,482 6730,392 6730,459 6485,549" />
                           <polygon fill-opacity="1" points="6240,672 6485,582 6485,649 6240,739" />
                           <polygon fill-opacity="1" points="6485,582 6730,492 6730,559 6485,649" />
                           <g id="m5odh2d" class="note">
                              <g class="notehead">
                                 <use xlink:href="#E0A4-pfnjo7e" transform="translate(6089, 1327) scale(0.54, 0.54)" />
                              </g>
                              <g id="yvzjjlx" class="stem">
                                 <path d="M6249 1306 L6249 490" stroke-width="18" />
                              </g>
                           </g>
                           <g id="n16gprxv" class="note">
                              <g class="notehead">
                                 <use xlink:href="#E0A4-pfnjo7e" transform="translate(6325, 1147) scale(0.54, 0.54)" />
                              </g>
                              <g id="z4bj489" class="stem">
                                 <path d="M6485 1126 L6485 400" stroke-width="18" />
                              </g>
                           </g>
                           <g id="o1w2vfrn" class="note">
                              <g class="notehead">
                                 <use xlink:href="#E0A4-pfnjo7e" transform="translate(6561, 877) scale(0.54, 0.54)" />
                              </g>
                              <g id="a1tqy1kq" class="stem">
                                 <path d="M6721 856 L6721 310" stroke-width="18" />
                              </g>
                           </g>
                        </g>
                     </g>
                  </g>
               </g>
               <g id="qa56g6u" class="barLine">
                  <path d="M6811 1057 L6811 1777" stroke-width="27" />
               </g>
            </g>
            <g id="r4ks4fv" class="measure">
               <g id="z16wv72r" class="staff">
                  <path d="M6824 1057 L8706 1057" stroke-width="13" />
                  <path d="M6824 1237 L8706 1237" stroke-width="13" />
                  <path d="M6824 1417 L8706 1417" stroke-width="13" />
                  <path d="M6824 1597 L8706 1597" stroke-width="13" />
                  <path d="M6824 1777 L8706 1777" stroke-width="13" />
                  <g class="ledgerLines above">
                     <path d="M6956 877 L7342 877" stroke-width="22" />
                     <path d="M6956 697 L7342 697" stroke-width="22" />
                     <path d="M6956 517 L7342 517" stroke-width="22" />
                  </g>
                  <g id="a1n0fw13" class="layer">
                     <g id="pk6xyvl" class="note">
                        <g class="notehead">
                           <use xlink:href="#E0A2-pfnjo7e" transform="translate(7004, 427) scale(0.72, 0.72)" />
                        </g>
                     </g>
                  </g>
               </g>
               <g id="z2gqwr3" class="barLine">
                  <path d="M8594 1057 L8594 1777" stroke-width="27" />
                  <path d="M8693 1057 L8693 1777" stroke-width="27" />
               </g>
            </g>
            <g id="i4s4uc4" class="systemMilestoneEnd hzub3xf" />
         </g>
         <g id="jo3qcsy" class="pageMilestoneEnd f12ecyql" />
         <g id="kgtp1zt" class="pageMilestoneEnd ewtw03u" />
      </g>
   </svg>
</svg>
