<svg width="598px" height="111px" version="1.1" xmlns="http://www.w3.org/2000/svg" xmlns:xlink="http://www.w3.org/1999/xlink" overflow="visible" id="pfnjo7e">
   <desc>Engraved by Verovio 5.3.0-5d8be2e</desc>
   <defs>
      <g id="E0A4-pfnjo7e">
         <path transform="scale(1,-1)" d="M0 -39c0 68 73 172 200 172c66 0 114 -37 114 -95c0 -84 -106 -171 -218 -171c-64 0 -96 30 -96 94z" />
      </g>
      <g id="E05C-pfnjo7e">
         <path transform="scale(1,-1)" d="M175 502h43v-456c10 5 18 12 37 29c16 19 22 27 27 38s8 24 14 49c3 22 5 43 5 62c7 -34 31 -54 73 -60c73 18 99 61 100 165c0 46 -10 78 -31 100c-18 23 -41 35 -69 35c-40 0 -65 -32 -66 -84c6 12 11 16 39 24c5 0 2 1 16 -4l17 -10l10 -14l7 -18 c-4 -32 -23 -48 -56 -48c-51 0 -77 33 -77 98c10 35 16 47 30 61c9 9 15 14 23 17c3 3 22 9 27 11l34 3l35 2c123 0 192 -64 192 -178l1 -33c0 -52 -20 -97 -60 -134c-18 -15 -42 -28 -74 -39c-30 -9 -63 -13 -101 -13l-93 -88v-34l93 -88c38 0 71 -4 101 -13 c32 -11 56 -24 74 -39c40 -37 60 -82 60 -134l-3 -33c0 -115 -68 -178 -190 -178l-35 2l-34 3c-5 2 -24 8 -27 11c-26 11 -40 32 -53 78c0 65 26 98 77 98c33 0 52 -16 56 -48l-7 -18l-10 -14l-17 -10c-14 -5 -11 -4 -16 -4c-28 8 -33 12 -39 24c1 -52 26 -84 66 -84 c28 0 51 12 69 35c21 22 31 54 31 100c-1 104 -27 147 -100 165c-42 -6 -66 -26 -73 -60c0 19 -2 40 -5 62c-6 25 -9 38 -14 49s-11 19 -27 38c-19 17 -27 24 -37 29v-456h-43v1004zM0 502h118v-1004h-118v1004z" />
      </g>
      <g id="E262-pfnjo7e">
         <path transform="scale(1,-1)" d="M136 186v169h17v-164l44 14v-91l-44 -14v-165l44 12v-91l-44 -13v-155h-17v150l-76 -22v-155h-17v149l-43 -13v90l43 14v167l-43 -14v92l43 13v169h17v-163zM60 73v-167l76 22v168z" />
      </g>
      <g id="E4C0-pfnjo7e">
         <path transform="scale(1,-1)" d="M0 0c0 0 40 320 300 320s300 -320 300 -320h-32s-38 227 -268 227s-268 -227 -268 -227h-32zM355 52c0 -30 -25 -55 -55 -55s-55 25 -55 55s25 55 55 55s55 -25 55 -55z" />
      </g>
      <g id="E241-pfnjo7e">
         <path transform="scale(1,-1)" d="M179 646c-4 8 -17 30 -18 33l-4 10c0 3 2 5 5 5s7 -2 13 -7c23 -33 46 -81 66 -132c22 -57 35 -125 35 -163c0 -104 -60 -183 -122 -241c-63 -59 -57 -53 -61 -56c-38 -34 -63 -95 -71 -95h-22v190c40 7 69 11 87 16c88 27 168 95 168 200c0 30 -12 89 -30 138 c-17 47 -31 73 -46 102z" />
      </g>
      <g id="E08B-pfnjo7e">
         <path transform="scale(1,-1)" d="M188 200c-42 -22 -63 -69 -63 -141v-119c0 -39 7 -70 19 -94s26 -40 44 -48v402zM0 -0c0 127 80 220 186 246v72h32l-6 -72c33 0 71 0 101 -11c54 -20 102 -65 102 -135c0 -16 -4 -30 -13 -43s-20 -24 -32 -29l-20 -8l-23 -3c-22 2 -41 8 -55 21s-21 31 -26 51 c0 38 45 80 79 80c12 0 19 3 19 10c0 6 -6 12 -15 18c-19 13 -47 24 -79 24c-10 0 -20 -1 -32 -5v-431c15 -3 12 -4 30 -4c57 0 100 51 121 93l17 39c3 13 5 25 5 35h26c-6 -70 -28 -121 -66 -152s-82 -47 -133 -47v-68h-30v72c-57 10 -122 54 -153 109c-7 12 -13 26 -19 42 c-11 29 -16 61 -16 96z" />
      </g>
      <g id="E4E4-pfnjo7e">
         <path transform="scale(1,-1)" d="M0 10v105c0 9 1 10 10 10h280c9 0 10 -1 10 -10v-105c0 -9 -1 -10 -10 -10h-280c-9 0 -10 1 -10 10z" />
      </g>
      <g id="E4E6-pfnjo7e">
         <path transform="scale(1,-1)" d="M0 123c7 34 33 56 69 60c29 -3 43 -9 53 -29c4 -8 7 -15 10 -22c0 -21 -1 -25 -11 -35c-5 -8 -18 -14 -40 -20l12 -3l15 -1c44 0 97 26 122 56c10 11 18 26 24 42c7 1 15 2 22 3l-140 -424h-36l111 330c-10 -6 -27 -12 -53 -16l-52 -8h-10l-20 1c-1 0 -8 3 -21 6 c-37 9 -55 28 -55 60z" />
      </g>
      <g id="E566-pfnjo7e">
         <path transform="scale(1,-1)" d="M162 167l-36 -115l-1 -10c0 -10 5 -16 16 -19c32 18 48 43 48 75c0 20 -9 43 -27 69zM432 225c0 -21 -11 -36 -31 -37c-15 0 -20 10 -23 25l3 14l2 11l1 9l-4 4c-1 -1 -2 -1 -3 -1c-23 -13 -36 -24 -47 -48l-12 -27c-18 -50 -31 -105 -47 -157h-60l58 214c0 7 -3 5 -5 9 c-7 0 -25 -8 -51 -28l-37 -28c20 -34 31 -67 31 -97c0 -12 -1 -21 -4 -28l-6 -15c-1 -3 -5 -10 -12 -19c-14 -18 -30 -26 -49 -26c-30 0 -67 18 -67 52c1 1 1 6 3 15l20 84c-9 -5 -21 -8 -36 -8c-21 0 -29 7 -40 19c-10 12 -16 27 -16 47c0 23 6 33 17 45s25 18 46 18 c19 0 39 -8 60 -25l34 117h63l-46 -158l38 31l32 20c21 10 35 13 62 15c16 0 24 -7 24 -21l-1 -10l-6 -24c21 37 44 55 70 55c23 0 39 -23 39 -47zM18 208c0 -27 17 -47 45 -47l3 -2l13 4l23 9l14 55c-17 15 -35 22 -55 22c-26 0 -43 -17 -43 -41z" />
      </g>
   </defs>
   <style type="text/css">#pfnjo7e g.page-margin {font-family:Times,serif;}#pfnjo7e g.ending, #pfnjo7e g.fing, #pfnjo7e g.reh, #pfnjo7e g.tempo {font-weight:bold;}#pfnjo7e g.dir, #pfnjo7e g.dynam, #pfnjo7e g.mNum {font-style:italic;}#pfnjo7e g.label {font-weight:normal;}#pfnjo7e path {stroke:currentColor}</style>
   <svg class="definition-scale" color="black" viewBox="0 0 13270 2460">
      <g class="page-margin" transform="translate(500, 500)">
         <g id="f12ecyql" class="mdiv pageMilestone" />
         <g id="gjwwkjn" class="score pageMilestone" />
         <g id="g1ho95rp" class="system">
            <g id="izv1mc9" class="section systemMilestone" />
            <g id="qmlovzj" class="measure">
               <g id="u4oqxce" class="staff">
                  <path d="M0 493 L2698 493" stroke-width="13" />
                  <path d="M0 673 L2698 673" stroke-width="13" />
                  <path d="M0 853 L2698 853" stroke-width="13" />
                  <path d="M0 1033 L2698 1033" stroke-width="13" />
                  <path d="M0 1213 L2698 1213" stroke-width="13" />
                  <g id="b18kllgp" class="clef">
                     <use xlink:href="#E05C-pfnjo7e" transform="translate(90, 673) scale(0.72, 0.72)" />
                  </g>
                  <g id="c1vlx8nz" class="keySig">
                     <g id="d442sxk" class="keyAccid">
                        <use xlink:href="#E262-pfnjo7e" transform="translate(706, 1033) scale(0.72, 0.72)" />
                     </g>
                     <g id="edjxg5p" class="keyAccid">
                        <use xlink:href="#E262-pfnjo7e" transform="translate(884, 673) scale(0.72, 0.72)" />
                     </g>
                  </g>
                  <g id="f9n3x7f" class="meterSig">
                     <use xlink:href="#E08B-pfnjo7e" transform="translate(1205, 853) scale(0.72, 0.72)" />
                  </g>
                  <g id="v1bpmbr1" class="layer">
                     <g id="y1waypqj" class="beam">
                        <polygon stroke-opacity="1" fill-opacity="1" points="1775,1438 2373,1438 2373,1348 1775,1348" />
                        <polygon stroke-opacity="1" fill-opacity="1" points="2147,1303 2373,1303 2373,1213 2147,1213" />
                        <g id="c1ahluu1" class="note">
                           <g class="notehead">
                              <use xlink:href="#E0A4-pfnjo7e" transform="translate(1775, 853) scale(0.72, 0.72)" />
                           </g>
                           <g id="pmwmthe" class="dots">
                              <ellipse cx="2091" cy="763" rx="36" ry="36" fill-opacity="1" stroke-opacity="1" />
                           </g>
                           <g id="o1hn97h8" class="stem">
                              <path d="M1784 881 L1784 1420" stroke-width="18" />
                           </g>
                        </g>
                        <g id="d1iiegxs" class="note">
                           <g class="notehead">
                              <use xlink:href="#E0A4-pfnjo7e" transform="translate(2355, 853) scale(0.72, 0.72)" />
                           </g>
                           <g id="q14fmeoc" class="stem">
                              <path d="M2364 881 L2364 1420" stroke-width="18" />
                           </g>
                        </g>
                     </g>
                  </g>
               </g>
               <g id="yhbsl03" class="barLine">
                  <path d="M2685 493 L2685 1213" stroke-width="27" />
               </g>
            </g>
            <g id="zmyzslu" class="measure">
               <g id="w1m11mph" class="staff">
                  <path d="M2698 493 L5551 493" stroke-width="13" />
                  <path d="M2698 673 L5551 673" stroke-width="13" />
                  <path d="M2698 853 L5551 853" stroke-width="13" />
                  <path d="M2698 1033 L5551 1033" stroke-width="13" />
                  <path d="M2698 1213 L5551 1213" stroke-width="13" />
                  <g id="x1oxd4nf" class="layer">
                     <g id="erbcoh7" class="note">
                        <g class="notehead">
                           <use xlink:href="#E0A4-pfnjo7e" transform="translate(2878, 583) scale(0.72, 0.72)" />
                        </g>
                        <g id="s1f31sgl" class="dots">
                           <ellipse cx="3194" cy="583" rx="36" ry="36" fill-opacity="1" stroke-opacity="1" />
                        </g>
                        <g id="rivwb27" class="stem">
                           <path d="M2887 611 L2887 1213" stroke-width="18" />
                        </g>
                     </g>
                     <g id="fmlv5y5" class="note">
                        <g class="notehead">
                           <use xlink:href="#E0A4-pfnjo7e" transform="translate(3758, 583) scale(0.72, 0.72)" />
                        </g>
                        <g id="t1ajik95" class="stem">
                           <path d="M3767 611 L3767 1213" stroke-width="18" />
                           <g id="u6oscn4" class="flag">
                              <use xlink:href="#E241-pfnjo7e" transform="translate(3758, 1213) scale(0.72, 0.72)" />
                           </g>
                        </g>
                     </g>
                     <g id="g14xmp24" class="note">
                        <g class="notehead">
                           <use xlink:href="#E0A4-pfnjo7e" transform="translate(4208, 673) scale(0.72, 0.72)" />
                        </g>
                        <g id="w19obtds" class="dots">
                           <ellipse cx="4524" cy="583" rx="36" ry="36" fill-opacity="1" stroke-opacity="1" />
                        </g>
                        <g id="vyt4ad" class="stem">
                           <path d="M4217 701 L4217 1303" stroke-width="18" />
                        </g>
                        <g id="b37hn12" class="accid" />
                     </g>
                     <g id="hju2rxn" class="note">
                        <g class="notehead">
                           <use xlink:href="#E0A4-pfnjo7e" transform="translate(5088, 583) scale(0.72, 0.72)" />
                        </g>
                        <g id="xm40ctx" class="stem">
                           <path d="M5097 611 L5097 1213" stroke-width="18" />
                           <g id="yvzjjlx" class="flag">
                              <use xlink:href="#E241-pfnjo7e" transform="translate(5088, 1213) scale(0.72, 0.72)" />
                           </g>
                        </g>
                     </g>
                  </g>
               </g>
               <g id="s82fpt" class="trill">
                  <use xlink:href="#E566-pfnjo7e" transform="translate(2835, 448) scale(0.72, 0.72)" />
               </g>
               <g id="t3elz0m" class="trill">
                  <use xlink:href="#E566-pfnjo7e" transform="translate(4165, 448) scale(0.72, 0.72)" />
               </g>
               <g id="hmwwo00" class="barLine">
                  <path d="M5538 493 L5538 1213" stroke-width="27" />
               </g>
            </g>
            <g id="i1s4ffnc" class="measure">
               <g id="y23h8om" class="staff">
                  <path d="M5551 493 L8920 493" stroke-width="13" />
                  <path d="M5551 673 L8920 673" stroke-width="13" />
                  <path d="M5551 853 L8920 853" stroke-width="13" />
                  <path d="M5551 1033 L8920 1033" stroke-width="13" />
                  <path d="M5551 1213 L8920 1213" stroke-width="13" />
                  <g id="z16wv72r" class="layer">
                     <g id="zfx25hn" class="beam">
                        <polygon stroke-opacity="1" fill-opacity="1" points="5731,1078 6329,1258 6329,1168 5731,988" />
                        <polygon stroke-opacity="1" fill-opacity="1" points="6103,1059 6329,1123 6329,1033 6103,969" />
                        <g id="izodm98" class="note">
                           <g class="notehead">
                              <use xlink:href="#E0A4-pfnjo7e" transform="translate(5731, 493) scale(0.72, 0.72)" />
                           </g>
                           <g id="a1tqy1kq" class="dots">
                              <ellipse cx="6047" cy="403" rx="36" ry="36" fill-opacity="1" stroke-opacity="1" />
                           </g>
                           <g id="z4bj489" class="stem">
                              <path d="M5740 521 L5740 1060" stroke-width="18" />
                           </g>
                        </g>
                        <g id="j1mj6nxn" class="note">
                           <g class="notehead">
                              <use xlink:href="#E0A4-pfnjo7e" transform="translate(6311, 673) scale(0.72, 0.72)" />
                           </g>
                           <g id="bb8g0u0" class="stem">
                              <path d="M6320 701 L6320 1240" stroke-width="18" />
                           </g>
                           <g id="c1kyp1ws" class="accid" />
                        </g>
                     </g>
                     <g id="k1d0qcvg" class="note">
                        <g class="notehead">
                           <use xlink:href="#E0A4-pfnjo7e" transform="translate(6627, 853) scale(0.72, 0.72)" />
                        </g>
                        <g id="cfjak8c" class="stem">
                           <path d="M6636 881 L6636 1453" stroke-width="18" />
                           <g id="d16zdwlv" class="flag">
                              <use xlink:href="#E241-pfnjo7e" transform="translate(6627, 1453) scale(0.72, 0.72)" />
                           </g>
                        </g>
                     </g>
                     <g id="leeh8fz" class="note">
                        <g class="notehead">
                           <use xlink:href="#E0A4-pfnjo7e" transform="translate(7077, 493) scale(0.72, 0.72)" />
                        </g>
                        <g id="e11izfdo" class="stem">
                           <path d="M7086 521 L7086 1123" stroke-width="18" />
                           <g id="fqn9gl2" class="flag">
                              <use xlink:href="#E241-pfnjo7e" transform="translate(7077, 1123) scale(0.72, 0.72)" />
                           </g>
                        </g>
                     </g>
                     <g id="m5odh2d" class="note">
                        <g class="notehead">
                           <use xlink:href="#E0A4-pfnjo7e" transform="translate(7527, 583) scale(0.72, 0.72)" />
                        </g>
                        <g id="goma0gm" class="stem">
                           <path d="M7536 611 L7536 1213" stroke-width="18" />
                        </g>
                     </g>
                     <g id="n16gprxv" class="note">
                        <g class="notehead">
                           <use xlink:href="#E0A4-pfnjo7e" transform="translate(8217, 493) scale(0.72, 0.72)" />
                        </g>
                        <g id="h1a2rmes" class="stem">
                           <path d="M8226 521 L8226 1123" stroke-width="18" />
                        </g>
                     </g>
                  </g>
               </g>
               <g id="wgj8qwy" class="fermata">
                  <use xlink:href="#E4C0-pfnjo7e" transform="translate(6524, 446) scale(0.72, 0.72)" />
               </g>
               <g id="u1bb0tuc" class="trill">
                  <use xlink:href="#E566-pfnjo7e" transform="translate(7484, 448) scale(0.72, 0.72)" />
               </g>
               <g id="qa56g6u" class="barLine">
                  <path d="M8907 493 L8907 1213" stroke-width="27" />
               </g>
            </g>
            <g id="r4ks4fv" class="measure">
               <g id="a1n0fw13" class="staff">
                  <path d="M8920 493 L12275 493" stroke-width="13" />
                  <path d="M8920 673 L12275 673" stroke-width="13" />
                  <path d="M8920 853 L12275 853" stroke-width="13" />
                  <path d="M8920 1033 L12275 1033" stroke-width="13" />
                  <path d="M8920 1213 L12275 1213" stroke-width="13" />
                  <g class="ledgerLines above">
                     <path d="M9632 313 L9954 313" stroke-width="22" />
                  </g>
                  <g id="b13viyd2" class="layer">
                     <g id="a3ie8ud" class="beam">
                        <polygon stroke-opacity="1" fill-opacity="1" points="9100,1213 10014,1303 10014,1213 9100,1123" />
                        <polygon stroke-opacity="1" fill-opacity="1" points="9689,1137 10014,1168 10014,1078 9689,1047" />
                        <polygon stroke-opacity="1" fill-opacity="1" points="9689,1002 10014,1033 10014,943 9689,912" />
                        <g id="o1w2vfrn" class="note">
                           <g class="notehead">
                              <use xlink:href="#E0A4-pfnjo7e" transform="translate(9100, 403) scale(0.72, 0.72)" />
                           </g>
                           <g id="j1s8kxne" class="dots">
                              <ellipse cx="9416" cy="403" rx="36" ry="36" fill-opacity="1" stroke-opacity="1" />
                           </g>
                           <g id="i4vs11m" class="stem">
                              <path d="M9109 431 L9109 1195" stroke-width="18" />
                           </g>
                           <g id="d1eyoooy" class="accid" />
                        </g>
                        <g id="pk6xyvl" class="note">
                           <g class="notehead">
                              <use xlink:href="#E0A4-pfnjo7e" transform="translate(9680, 313) scale(0.72, 0.72)" />
                           </g>
                           <g id="k19a056m" class="stem">
                              <path d="M9689 341 L9689 1254" stroke-width="18" />
                           </g>
                        </g>
                        <g id="qhghzyb" class="note">
                           <g class="notehead">
                              <use xlink:href="#E0A4-pfnjo7e" transform="translate(9996, 493) scale(0.72, 0.72)" />
                           </g>
                           <g id="l1e7ub62" class="stem">
                              <path d="M10005 521 L10005 1285" stroke-width="18" />
                           </g>
                        </g>
                     </g>
                     <g id="rgx8bjh" class="note">
                        <g class="notehead">
                           <use xlink:href="#E0A4-pfnjo7e" transform="translate(10312, 583) scale(0.72, 0.72)" />
                        </g>
                        <g id="mlwp7zq" class="stem">
                           <path d="M10321 611 L10321 1213" stroke-width="18" />
                           <g id="nt9ronl" class="flag">
                              <use xlink:href="#E241-pfnjo7e" transform="translate(10312, 1213) scale(0.72, 0.72)" />
                           </g>
                        </g>
                     </g>
                     <g id="a1pfogn4" class="rest">
                        <use xlink:href="#E4E6-pfnjo7e" transform="translate(10762, 853) scale(0.72, 0.72)" />
                     </g>
                     <g id="b8j2ung" class="rest">
                        <use xlink:href="#E4E4-pfnjo7e" transform="translate(11212, 853) scale(0.72, 0.72)" />
                        <g class="ledgerLines" />
                     </g>
                  </g>
               </g>
               <g id="v6sh6uc" class="trill">
                  <use xlink:href="#E566-pfnjo7e" transform="translate(9057, 262) scale(0.72, 0.72)" />
               </g>
               <g id="xfggj11" class="fermata">
                  <use xlink:href="#E4C0-pfnjo7e" transform="translate(10209, 350) scale(0.72, 0.72)" />
               </g>
               <g id="z2gqwr3" class="barLine">
                  <path d="M12262 493 L12262 1213" stroke-width="27" />
               </g>
            </g>
            <g id="jo3qcsy" class="systemMilestoneEnd izv1mc9" />
         </g>
         <g id="kgtp1zt" class="pageMilestoneEnd gjwwkjn" />
         <g id="l1wb3e2s" class="pageMilestoneEnd f12ecyql" />
      </g>
   </svg>
</svg>
