<svg width="789px" height="175px" version="1.1" xmlns="http://www.w3.org/2000/svg" xmlns:xlink="http://www.w3.org/1999/xlink" overflow="visible" id="d19nj5e9">
   <desc>Engraved by Verovio 5.1.0-8c3069d</desc>
   <defs>
      <symbol id="E0A3-d19nj5e9" viewBox="0 0 1000 1000" overflow="inherit">
         <path transform="scale(1,-1)" d="M278 64c0 22 -17 39 -43 39c-12 0 -26 -3 -41 -10c-85 -43 -165 -94 -165 -156c5 -25 15 -32 49 -32c67 11 200 95 200 159zM0 -36c0 68 73 174 200 174c66 0 114 -39 114 -97c0 -84 -106 -173 -218 -173c-64 0 -96 32 -96 96z" />
      </symbol>
      <symbol id="E082-d19nj5e9" viewBox="0 0 1000 1000" overflow="inherit">
         <path transform="scale(1,-1)" d="M124 -185c-18 0 -55 -14 -65 -65h-36l-3 30c0 25 6 45 18 63c11 19 22 30 39 43l121 82l37 29c15 11 27 29 38 54c12 24 18 47 18 70c0 40 -19 88 -94 88c-25 0 -32 0 -50 -8c-14 -5 -23 -12 -26 -22c3 -9 7 -15 10 -18l24 -17c12 -7 17 -11 27 -21c5 -7 7 -16 7 -27 c0 -12 0 -57 -79 -74c-30 0 -76 26 -76 94c0 66 81 135 197 135c72 0 181 -32 181 -150c0 -53 -32 -95 -113 -133l-91 -41c-26 -11 -45 -23 -57 -37l49 7c84 0 115 -41 148 -41c20 0 33 20 39 61h35c0 -152 -68 -168 -114 -168c-17 0 -65 0 -79 7h10l-28 17 c-49 37 -69 40 -87 42z" />
      </symbol>
      <symbol id="E089-d19nj5e9" viewBox="0 0 1000 1000" overflow="inherit">
         <path transform="scale(1,-1)" d="M139 107c0 -51 22 -104 66 -104c38 0 64 48 64 110c0 50 -31 100 -64 100c-40 0 -66 -56 -66 -106zM114 -74c40 0 72 -27 72 -65c0 -8 -3 -19 -9 -34l-7 -16l-5 -15c2 -8 12 -12 31 -12c56 0 84 73 84 219c-32 -24 -71 -36 -119 -36c-29 0 -56 6 -79 20 c-51 26 -57 78 -62 108c0 64 56 155 188 155c158 0 197 -151 197 -237c0 -145 -92 -263 -207 -263c-109 0 -155 68 -155 101c0 46 33 75 71 75z" />
      </symbol>
      <symbol id="E0A2-d19nj5e9" viewBox="0 0 1000 1000" overflow="inherit">
         <path transform="scale(1,-1)" d="M198 133c102 0 207 -45 207 -133c0 -92 -118 -133 -227 -133c-101 0 -178 46 -178 133c0 88 93 133 198 133zM293 -21c0 14 -3 29 -8 44c-7 20 -18 38 -33 54c-20 21 -43 31 -68 31l-20 -2c-15 -5 -27 -14 -36 -28c-4 -9 -6 -17 -8 -24s-3 -16 -3 -27c0 -15 3 -34 9 -57 s18 -41 34 -55c15 -15 36 -23 62 -23c4 0 10 1 18 2c19 5 32 15 40 30s13 34 13 55z" />
      </symbol>
      <symbol id="E0A4-d19nj5e9" viewBox="0 0 1000 1000" overflow="inherit">
         <path transform="scale(1,-1)" d="M0 -39c0 68 73 172 200 172c66 0 114 -37 114 -95c0 -84 -106 -171 -218 -171c-64 0 -96 30 -96 94z" />
      </symbol>
      <symbol id="E05C-d19nj5e9" viewBox="0 0 1000 1000" overflow="inherit">
         <path transform="scale(1,-1)" d="M175 502h43v-456c10 5 18 12 37 29c16 19 22 27 27 38s8 24 14 49c3 22 5 43 5 62c7 -34 31 -54 73 -60c73 18 99 61 100 165c0 46 -10 78 -31 100c-18 23 -41 35 -69 35c-40 0 -65 -32 -66 -84c6 12 11 16 39 24c5 0 2 1 16 -4l17 -10l10 -14l7 -18 c-4 -32 -23 -48 -56 -48c-51 0 -77 33 -77 98c10 35 16 47 30 61c9 9 15 14 23 17c3 3 22 9 27 11l34 3l35 2c123 0 192 -64 192 -178l1 -33c0 -52 -20 -97 -60 -134c-18 -15 -42 -28 -74 -39c-30 -9 -63 -13 -101 -13l-93 -88v-34l93 -88c38 0 71 -4 101 -13 c32 -11 56 -24 74 -39c40 -37 60 -82 60 -134l-3 -33c0 -115 -68 -178 -190 -178l-35 2l-34 3c-5 2 -24 8 -27 11c-26 11 -40 32 -53 78c0 65 26 98 77 98c33 0 52 -16 56 -48l-7 -18l-10 -14l-17 -10c-14 -5 -11 -4 -16 -4c-28 8 -33 12 -39 24c1 -52 26 -84 66 -84 c28 0 51 12 69 35c21 22 31 54 31 100c-1 104 -27 147 -100 165c-42 -6 -66 -26 -73 -60c0 19 -2 40 -5 62c-6 25 -9 38 -14 49s-11 19 -27 38c-19 17 -27 24 -37 29v-456h-43v1004zM0 502h118v-1004h-118v1004z" />
      </symbol>
      <symbol id="E0A1-d19nj5e9" viewBox="0 0 1000 1000" overflow="inherit">
         <path transform="scale(1,-1)" d="M0 165c0 5 6 5 12 5s13 0 13 -5v-40h298v40c0 5 7 5 13 5s12 0 12 -5v-330c0 -5 -6 -5 -12 -5s-13 0 -13 5v40h-298v-40c0 -5 -7 -5 -13 -5s-12 0 -12 5v330zM25 0c0 -29 1 -55 25 -55h248c24 0 25 26 25 55s-1 55 -25 55h-248c-24 0 -25 -26 -25 -55z" />
      </symbol>
      <symbol id="E93C-d19nj5e9" viewBox="0 0 1000 1000" overflow="inherit">
         <path transform="scale(1,-1)" d="M156 195l156 -195l-156 -195l-156 195zM127 110l-57 -71l115 -149l57 71z" />
      </symbol>
      <symbol id="E93D-d19nj5e9" viewBox="0 0 1000 1000" overflow="inherit">
         <path transform="scale(1,-1)" d="M156 195l156 -195l-156 -195l-156 195z" />
      </symbol>
      <symbol id="E909-d19nj5e9" viewBox="0 0 1000 1000" overflow="inherit">
         <path transform="scale(1,-1)" d="M2 206l2 431c0 12 7 17 14 17c8 0 17 -7 17 -17l3 -204l2 -315h79h8c11 0 30 1 35 6c8 8 8 69 8 122v27l4 222s-1 20 19 20s12 -20 12 -20v-244s-1 -130 -1 -176c-1 -8 -1 -12 -4 -19c-7 -7 -8 -7 -16 -7c-45 0 -71 3 -71 3l-69 -3v-49v-48l64 -3l82 -5s5 0 8 -3 s5 -7 5 -7l1 -262v-154s0 -20 -13 -20c-10 0 -14 5 -16 14l-7 138l-2 219s0 4 -3 7s-9 2 -9 2h-40h-70l-3 -378l-3 -132s0 -20 -15 -20c-17 0 -19 17 -19 17c-1 22 -3 446 -3 686c0 49 1 100 1 155z" />
      </symbol>
      <symbol id="E93E-d19nj5e9" viewBox="0 0 1000 1000" overflow="inherit">
         <path transform="scale(1,-1)" d="M0 760h30v-760h-30v760z" />
      </symbol>
      <symbol id="E93F-d19nj5e9" viewBox="0 0 1000 1000" overflow="inherit">
         <path transform="scale(1,-1)" d="M0 -760v760h30v-760h-30z" />
      </symbol>
      <symbol id="E911-d19nj5e9" viewBox="0 0 1000 1000" overflow="inherit">
         <path transform="scale(1,-1)" d="M36 0c0 -113 91 -204 204 -204s204 91 204 204s-91 204 -204 204s-204 -91 -204 -204zM0 0c0 132 108 240 240 240s240 -108 240 -240s-108 -240 -240 -240s-240 108 -240 240z" />
      </symbol>
      <symbol id="E920-d19nj5e9" viewBox="0 0 1000 1000" overflow="inherit">
         <path transform="scale(1,-1)" d="M0 0c0 35 28 63 63 63s63 -28 63 -63s-28 -63 -63 -63s-63 28 -63 63z" />
      </symbol>
   </defs>
   <style type="text/css">#d19nj5e9 g.page-margin {font-family:Times,serif;} #d19nj5e9 g.ending, #d19nj5e9 g.fing, #d19nj5e9 g.reh, #d19nj5e9 g.tempo {font-weight:bold;} #d19nj5e9 g.dir, #d19nj5e9 g.dynam, #d19nj5e9 g.mNum {font-style:italic;} #d19nj5e9 g.label {font-weight:normal;} #d19nj5e9 path {stroke:currentColor}</style>
   <svg class="definition-scale" color="black" viewBox="0 0 17520 3880">
      <g class="page-margin" transform="translate(500, 500)">
         <g id="moqsi69" class="mdiv pageMilestone" />
         <g id="sjft1g2" class="score pageMilestone" />
         <g id="sgtp1zt" class="system">
            <path d="M13 360 L13 2520" stroke-width="27" />
            <g id="s1s4ffnc" class="section systemMilestone" />
            <g id="m9ixwzy" class="measure">
               <g id="s147azdb" class="staff">
                  <path d="M0 360 L5935 360" stroke-width="13" />
                  <path d="M0 540 L5935 540" stroke-width="13" />
                  <path d="M0 720 L5935 720" stroke-width="13" />
                  <path d="M0 900 L5935 900" stroke-width="13" />
                  <path d="M0 1080 L5935 1080" stroke-width="13" />
                  <g id="c1mc3yi9" class="clef">
                     <use xlink:href="#E05C-d19nj5e9" x="117" y="720" height="720px" width="720px" />
                  </g>
                  <g id="k8boech" class="keySig" />
                  <g id="m4ez1j9" class="meterSig">
                     <use xlink:href="#E089-d19nj5e9" x="815" y="540" height="720px" width="720px" />
                     <use xlink:href="#E082-d19nj5e9" x="809" y="900" height="720px" width="720px" />
                  </g>
                  <g id="l1kzq82m" class="layer">
                     <g id="nshell2" class="note">
                        <g class="notehead">
                           <use xlink:href="#E0A1-d19nj5e9" x="1382" y="720" height="720px" width="720px" />
                        </g>
                     </g>
                     <g id="ta734np" class="tuplet">
                        <g id="n1cybpcc" class="note">
                           <g class="notehead">
                              <use xlink:href="#E0A3-d19nj5e9" x="3802" y="630" height="720px" width="720px" />
                           </g>
                           <g id="sm40ctx" class="stem">
                              <path d="M3811 655 L3811 1260" stroke-width="18" />
                           </g>
                        </g>
                     </g>
                     <g id="t15wwqth" class="tuplet">
                        <g id="nv3lqdm" class="note">
                           <g class="notehead">
                              <use xlink:href="#E0A3-d19nj5e9" x="4442" y="720" height="720px" width="720px" />
                           </g>
                           <g id="svzjjlx" class="stem">
                              <path d="M4451 745 L4451 1320" stroke-width="18" />
                           </g>
                        </g>
                     </g>
                     <g id="t2gqwr3" class="tuplet">
                        <g id="n1pfogn4" class="note">
                           <g class="notehead">
                              <use xlink:href="#E0A4-d19nj5e9" x="5082" y="630" height="720px" width="720px" />
                           </g>
                           <g id="s4bj489" class="stem">
                              <path d="M5091 658 L5091 1260" stroke-width="18" />
                           </g>
                        </g>
                     </g>
                     <g id="t8j2ung" class="tuplet">
                        <g id="n1ahluu1" class="note">
                           <g class="notehead">
                              <use xlink:href="#E0A4-d19nj5e9" x="5502" y="720" height="720px" width="720px" />
                           </g>
                           <g id="s1tqy1kq" class="stem">
                              <path d="M5511 748 L5511 1320" stroke-width="18" />
                           </g>
                        </g>
                     </g>
                  </g>
               </g>
               <g id="s1iiegxs" class="staff">
                  <path d="M0 1800 L5935 1800" stroke-width="13" />
                  <path d="M0 1980 L5935 1980" stroke-width="13" />
                  <path d="M0 2160 L5935 2160" stroke-width="13" />
                  <path d="M0 2340 L5935 2340" stroke-width="13" />
                  <path d="M0 2520 L5935 2520" stroke-width="13" />
                  <g id="cfmd4j" class="clef">
                     <use xlink:href="#E909-d19nj5e9" x="117" y="2160" height="720px" width="720px" />
                  </g>
                  <g id="k18et2sh" class="keySig" />
                  <g id="m1lorvfs" class="mensur">
                     <use xlink:href="#E911-d19nj5e9" x="733" y="2160" height="720px" width="720px" />
                     <use xlink:href="#E920-d19nj5e9" x="860" y="2160" height="720px" width="720px" />
                  </g>
                  <g id="lrbcoh7" class="layer">
                     <g id="nmlv5y5" class="note">
                        <g class="notehead">
                           <polygon stroke-opacity="1" fill-opacity="1" points="1400,2070 1596,2070 1596,2120 1400,2120" />
                           <polygon stroke-opacity="1" fill-opacity="1" points="1400,2250 1596,2250 1596,2200 1400,2200" />
                           <rect stroke-opacity="1" fill-opacity="1" x="1382" y="2040" height="240" width="18" />
                           <rect stroke-opacity="1" fill-opacity="1" x="1596" y="2040" height="240" width="18" />
                        </g>
                     </g>
                     <g id="n14xmp24" class="note">
                        <g class="notehead">
                           <use xlink:href="#E93C-d19nj5e9" x="3802" y="2070" height="720px" width="720px" />
                        </g>
                        <g id="sfjak8c" class="stem">
                           <use xlink:href="#E93F-d19nj5e9" x="3904" y="2150" height="720px" width="720px" />
                        </g>
                     </g>
                     <g id="nju2rxn" class="note">
                        <g class="notehead">
                           <use xlink:href="#E93C-d19nj5e9" x="4442" y="2160" height="720px" width="720px" />
                        </g>
                        <g id="s16zdwlv" class="stem">
                           <use xlink:href="#E93E-d19nj5e9" x="4544" y="2080" height="720px" width="720px" />
                        </g>
                     </g>
                     <g id="nzodm98" class="note">
                        <g class="notehead">
                           <use xlink:href="#E93D-d19nj5e9" x="5082" y="2070" height="720px" width="720px" />
                        </g>
                        <g id="s11izfdo" class="stem">
                           <use xlink:href="#E93F-d19nj5e9" x="5184" y="2150" height="720px" width="720px" />
                        </g>
                     </g>
                     <g id="n1mj6nxn" class="note">
                        <g class="notehead">
                           <use xlink:href="#E93D-d19nj5e9" x="5502" y="2160" height="720px" width="720px" />
                        </g>
                        <g id="sqn9gl2" class="stem">
                           <use xlink:href="#E93E-d19nj5e9" x="5604" y="2080" height="720px" width="720px" />
                        </g>
                     </g>
                  </g>
               </g>
               <g id="b4ks4fv" class="barLine">
                  <path d="M5922 360 L5922 1080" stroke-width="27" />
                  <path d="M5922 1800 L5922 2520" stroke-width="27" />
               </g>
            </g>
            <g id="m1d0qcvg" class="measure">
               <g id="s3elz0m" class="staff">
                  <path d="M5935 360 L9218 360" stroke-width="13" />
                  <path d="M5935 540 L9218 540" stroke-width="13" />
                  <path d="M5935 720 L9218 720" stroke-width="13" />
                  <path d="M5935 900 L9218 900" stroke-width="13" />
                  <path d="M5935 1080 L9218 1080" stroke-width="13" />
                  <g id="l1bb0tuc" class="layer">
                     <g id="n6sh6uc" class="note">
                        <g class="notehead">
                           <use xlink:href="#E0A1-d19nj5e9" x="6115" y="810" height="720px" width="720px" />
                        </g>
                        <g id="d1a2rmes" class="dots">
                           <ellipse cx="6455" cy="810" rx="36" ry="36" fill-opacity="1" stroke-opacity="1" />
                        </g>
                     </g>
                  </g>
               </g>
               <g id="sgj8qwy" class="staff">
                  <path d="M5935 1800 L9218 1800" stroke-width="13" />
                  <path d="M5935 1980 L9218 1980" stroke-width="13" />
                  <path d="M5935 2160 L9218 2160" stroke-width="13" />
                  <path d="M5935 2340 L9218 2340" stroke-width="13" />
                  <path d="M5935 2520 L9218 2520" stroke-width="13" />
                  <g id="lfggj11" class="layer">
                     <g id="n1waypqj" class="note">
                        <g class="notehead">
                           <polygon stroke-opacity="1" fill-opacity="1" points="6133,2160 6329,2160 6329,2210 6133,2210" />
                           <polygon stroke-opacity="1" fill-opacity="1" points="6133,2340 6329,2340 6329,2290 6133,2290" />
                           <rect stroke-opacity="1" fill-opacity="1" x="6115" y="2130" height="240" width="18" />
                           <rect stroke-opacity="1" fill-opacity="1" x="6329" y="2130" height="240" width="18" />
                        </g>
                        <g id="d1s8kxne" class="dots">
                           <polygon stroke-opacity="1" fill-opacity="1" points="6392,2250 6437,2205 6482,2250 6437,2295" />
                        </g>
                        <g id="d1s8kxne" class="dots">
                           <polygon stroke-opacity="1" fill-opacity="1" points="6392,2250 6437,2205 6482,2250 6437,2295" />
                        </g>
                     </g>
                  </g>
               </g>
               <g id="b82fpt" class="barLine">
                  <path d="M9205 360 L9205 1080" stroke-width="27" />
                  <path d="M9205 1800 L9205 2520" stroke-width="27" />
               </g>
            </g>
            <g id="mfx25hn" class="measure">
               <g id="szv1mc9" class="staff">
                  <path d="M9218 360 L13081 360" stroke-width="13" />
                  <path d="M9218 540 L13081 540" stroke-width="13" />
                  <path d="M9218 720 L13081 720" stroke-width="13" />
                  <path d="M9218 900 L13081 900" stroke-width="13" />
                  <path d="M9218 1080 L13081 1080" stroke-width="13" />
                  <g id="l14qhuvu" class="layer">
                     <g id="t1dict13" class="tuplet">
                        <g id="ncz237t" class="note">
                           <g class="notehead">
                              <use xlink:href="#E0A2-d19nj5e9" x="9398" y="630" height="720px" width="720px" />
                           </g>
                        </g>
                     </g>
                     <g id="nwxt00x" class="note">
                        <g class="notehead">
                           <use xlink:href="#E0A1-d19nj5e9" x="10648" y="810" height="720px" width="720px" />
                        </g>
                     </g>
                  </g>
               </g>
               <g id="sdvl5ld" class="staff">
                  <path d="M9218 1800 L13081 1800" stroke-width="13" />
                  <path d="M9218 1980 L13081 1980" stroke-width="13" />
                  <path d="M9218 2160 L13081 2160" stroke-width="13" />
                  <path d="M9218 2340 L13081 2340" stroke-width="13" />
                  <path d="M9218 2520 L13081 2520" stroke-width="13" />
                  <g id="l1nwbnw5" class="layer">
                     <g id="n1r78e3w" class="note">
                        <g class="notehead">
                           <use xlink:href="#E93C-d19nj5e9" x="9398" y="2070" height="720px" width="720px" />
                        </g>
                     </g>
                     <g id="njepdrb" class="note">
                        <g class="notehead">
                           <polygon stroke-opacity="1" fill-opacity="1" points="10666,2160 10862,2160 10862,2210 10666,2210" />
                           <polygon stroke-opacity="1" fill-opacity="1" points="10666,2340 10862,2340 10862,2290 10666,2290" />
                           <rect stroke-opacity="1" fill-opacity="1" x="10648" y="2130" height="240" width="18" />
                           <rect stroke-opacity="1" fill-opacity="1" x="10862" y="2130" height="240" width="18" />
                        </g>
                     </g>
                  </g>
               </g>
               <g id="bzub3xf" class="barLine">
                  <path d="M13068 360 L13068 1080" stroke-width="27" />
                  <path d="M13068 1800 L13068 2520" stroke-width="27" />
               </g>
            </g>
            <g id="m1y47wy7" class="measure">
               <g id="s1n0fw13" class="staff">
                  <path d="M13081 360 L16526 360" stroke-width="13" />
                  <path d="M13081 540 L16526 540" stroke-width="13" />
                  <path d="M13081 720 L16526 720" stroke-width="13" />
                  <path d="M13081 900 L16526 900" stroke-width="13" />
                  <path d="M13081 1080 L16526 1080" stroke-width="13" />
                  <g id="l13viyd2" class="layer">
                     <g id="n1yevvwh" class="note">
                        <g class="notehead">
                           <use xlink:href="#E0A1-d19nj5e9" x="13261" y="720" height="720px" width="720px" />
                        </g>
                        <g id="d1ufntge" class="dots">
                           <ellipse cx="13601" cy="630" rx="36" ry="36" fill-opacity="1" stroke-opacity="1" />
                        </g>
                     </g>
                  </g>
               </g>
               <g id="s1sqgsul" class="staff">
                  <path d="M13081 1800 L16526 1800" stroke-width="13" />
                  <path d="M13081 1980 L16526 1980" stroke-width="13" />
                  <path d="M13081 2160 L16526 2160" stroke-width="13" />
                  <path d="M13081 2340 L16526 2340" stroke-width="13" />
                  <path d="M13081 2520 L16526 2520" stroke-width="13" />
                  <g id="l11rutd2" class="layer">
                     <g id="nwigvp2" class="note">
                        <g class="notehead">
                           <polygon stroke-opacity="1" fill-opacity="1" points="13279,2070 13475,2070 13475,2120 13279,2120" />
                           <polygon stroke-opacity="1" fill-opacity="1" points="13279,2250 13475,2250 13475,2200 13279,2200" />
                           <rect stroke-opacity="1" fill-opacity="1" x="13261" y="2040" height="240" width="18" />
                           <rect stroke-opacity="1" fill-opacity="1" x="13475" y="2040" height="240" width="18" />
                        </g>
                        <g id="dxq6cll" class="dots">
                           <polygon stroke-opacity="1" fill-opacity="1" points="13538,2070 13583,2025 13628,2070 13583,2115" />
                        </g>
                        <g id="dxq6cll" class="dots">
                           <polygon stroke-opacity="1" fill-opacity="1" points="13538,2070 13583,2025 13628,2070 13583,2115" />
                        </g>
                     </g>
                  </g>
               </g>
               <g id="b16wv72r" class="barLine">
                  <path d="M16351 360 L16351 1080" stroke-width="27" />
                  <path d="M16481 360 L16481 1080" stroke-width="90" />
                  <path d="M16351 1800 L16351 2520" stroke-width="27" />
                  <path d="M16481 1800 L16481 2520" stroke-width="90" />
               </g>
            </g>
            <g id="s1p91bt0" class="systemMilestoneEnd s1s4ffnc" />
         </g>
         <g id="p1hn97h8" class="pageMilestoneEnd sjft1g2" />
         <g id="pmwmthe" class="pageMilestoneEnd moqsi69" />
      </g>
   </svg>
</svg>
