<svg width="863px" height="175px" version="1.1" xmlns="http://www.w3.org/2000/svg" xmlns:xlink="http://www.w3.org/1999/xlink" overflow="visible" id="d19nj5e9">
   <desc>Engraved by Verovio 5.1.0-8c3069d</desc>
   <defs>
      <symbol id="E0A3-d19nj5e9" viewBox="0 0 1000 1000" overflow="inherit">
         <path transform="scale(1,-1)" d="M278 64c0 22 -17 39 -43 39c-12 0 -26 -3 -41 -10c-85 -43 -165 -94 -165 -156c5 -25 15 -32 49 -32c67 11 200 95 200 159zM0 -36c0 68 73 174 200 174c66 0 114 -39 114 -97c0 -84 -106 -173 -218 -173c-64 0 -96 32 -96 96z" />
      </symbol>
      <symbol id="E081-d19nj5e9" viewBox="0 0 1000 1000" overflow="inherit">
         <path transform="scale(1,-1)" d="M68 -250v36c23 0 40 6 49 18c8 14 12 33 12 57v250l-82 -129l-27 13l107 255h128v-394c0 -24 5 -42 14 -53s25 -17 47 -17v-36h-248z" />
      </symbol>
      <symbol id="E084-d19nj5e9" viewBox="0 0 1000 1000" overflow="inherit">
         <path transform="scale(1,-1)" d="M20 -78c84 97 114 180 134 329h170c-13 -32 -82 -132 -99 -151l-84 -97c-33 -36 -59 -63 -80 -81h162v102l127 123v-225h57v-39h-57v-34c0 -43 19 -65 57 -65v-34h-244v36c48 0 60 26 60 70v27h-203v39z" />
      </symbol>
      <symbol id="E0A2-d19nj5e9" viewBox="0 0 1000 1000" overflow="inherit">
         <path transform="scale(1,-1)" d="M198 133c102 0 207 -45 207 -133c0 -92 -118 -133 -227 -133c-101 0 -178 46 -178 133c0 88 93 133 198 133zM293 -21c0 14 -3 29 -8 44c-7 20 -18 38 -33 54c-20 21 -43 31 -68 31l-20 -2c-15 -5 -27 -14 -36 -28c-4 -9 -6 -17 -8 -24s-3 -16 -3 -27c0 -15 3 -34 9 -57 s18 -41 34 -55c15 -15 36 -23 62 -23c4 0 10 1 18 2c19 5 32 15 40 30s13 34 13 55z" />
      </symbol>
      <symbol id="E05C-d19nj5e9" viewBox="0 0 1000 1000" overflow="inherit">
         <path transform="scale(1,-1)" d="M175 502h43v-456c10 5 18 12 37 29c16 19 22 27 27 38s8 24 14 49c3 22 5 43 5 62c7 -34 31 -54 73 -60c73 18 99 61 100 165c0 46 -10 78 -31 100c-18 23 -41 35 -69 35c-40 0 -65 -32 -66 -84c6 12 11 16 39 24c5 0 2 1 16 -4l17 -10l10 -14l7 -18 c-4 -32 -23 -48 -56 -48c-51 0 -77 33 -77 98c10 35 16 47 30 61c9 9 15 14 23 17c3 3 22 9 27 11l34 3l35 2c123 0 192 -64 192 -178l1 -33c0 -52 -20 -97 -60 -134c-18 -15 -42 -28 -74 -39c-30 -9 -63 -13 -101 -13l-93 -88v-34l93 -88c38 0 71 -4 101 -13 c32 -11 56 -24 74 -39c40 -37 60 -82 60 -134l-3 -33c0 -115 -68 -178 -190 -178l-35 2l-34 3c-5 2 -24 8 -27 11c-26 11 -40 32 -53 78c0 65 26 98 77 98c33 0 52 -16 56 -48l-7 -18l-10 -14l-17 -10c-14 -5 -11 -4 -16 -4c-28 8 -33 12 -39 24c1 -52 26 -84 66 -84 c28 0 51 12 69 35c21 22 31 54 31 100c-1 104 -27 147 -100 165c-42 -6 -66 -26 -73 -60c0 19 -2 40 -5 62c-6 25 -9 38 -14 49s-11 19 -27 38c-19 17 -27 24 -37 29v-456h-43v1004zM0 502h118v-1004h-118v1004z" />
      </symbol>
      <symbol id="E0A1-d19nj5e9" viewBox="0 0 1000 1000" overflow="inherit">
         <path transform="scale(1,-1)" d="M0 165c0 5 6 5 12 5s13 0 13 -5v-40h298v40c0 5 7 5 13 5s12 0 12 -5v-330c0 -5 -6 -5 -12 -5s-13 0 -13 5v40h-298v-40c0 -5 -7 -5 -13 -5s-12 0 -12 5v330zM25 0c0 -29 1 -55 25 -55h248c24 0 25 26 25 55s-1 55 -25 55h-248c-24 0 -25 -26 -25 -55z" />
      </symbol>
      <symbol id="E93C-d19nj5e9" viewBox="0 0 1000 1000" overflow="inherit">
         <path transform="scale(1,-1)" d="M156 195l156 -195l-156 -195l-156 195zM127 110l-57 -71l115 -149l57 71z" />
      </symbol>
      <symbol id="E909-d19nj5e9" viewBox="0 0 1000 1000" overflow="inherit">
         <path transform="scale(1,-1)" d="M2 206l2 431c0 12 7 17 14 17c8 0 17 -7 17 -17l3 -204l2 -315h79h8c11 0 30 1 35 6c8 8 8 69 8 122v27l4 222s-1 20 19 20s12 -20 12 -20v-244s-1 -130 -1 -176c-1 -8 -1 -12 -4 -19c-7 -7 -8 -7 -16 -7c-45 0 -71 3 -71 3l-69 -3v-49v-48l64 -3l82 -5s5 0 8 -3 s5 -7 5 -7l1 -262v-154s0 -20 -13 -20c-10 0 -14 5 -16 14l-7 138l-2 219s0 4 -3 7s-9 2 -9 2h-40h-70l-3 -378l-3 -132s0 -20 -15 -20c-17 0 -19 17 -19 17c-1 22 -3 446 -3 686c0 49 1 100 1 155z" />
      </symbol>
      <symbol id="E93E-d19nj5e9" viewBox="0 0 1000 1000" overflow="inherit">
         <path transform="scale(1,-1)" d="M0 760h30v-760h-30v760z" />
      </symbol>
      <symbol id="E93F-d19nj5e9" viewBox="0 0 1000 1000" overflow="inherit">
         <path transform="scale(1,-1)" d="M0 -760v760h30v-760h-30z" />
      </symbol>
      <symbol id="E915-d19nj5e9" viewBox="0 0 1000 1000" overflow="inherit">
         <path transform="scale(1,-1)" d="M421 96c-46 77 -101 108 -181 108c-113 0 -204 -91 -204 -204s91 -204 204 -204c78 0 129 34 177 110l33 -22c-41 -74 -120 -124 -210 -124c-132 0 -240 108 -240 240s108 240 240 240c89 0 163 -45 209 -122z" />
      </symbol>
   </defs>
   <style type="text/css">#d19nj5e9 g.page-margin {font-family:Times,serif;} #d19nj5e9 g.ending, #d19nj5e9 g.fing, #d19nj5e9 g.reh, #d19nj5e9 g.tempo {font-weight:bold;} #d19nj5e9 g.dir, #d19nj5e9 g.dynam, #d19nj5e9 g.mNum {font-style:italic;} #d19nj5e9 g.label {font-weight:normal;} #d19nj5e9 path {stroke:currentColor}</style>
   <svg class="definition-scale" color="black" viewBox="0 0 19160 3880">
      <g class="page-margin" transform="translate(500, 500)">
         <g id="moqsi69" class="mdiv pageMilestone" />
         <g id="sjft1g2" class="score pageMilestone" />
         <g id="smeaduc" class="system">
            <path d="M13 360 L13 2520" stroke-width="27" />
            <g id="s1s4ffnc" class="section systemMilestone" />
            <g id="m9ixwzy" class="measure">
               <g id="s147azdb" class="staff">
                  <path d="M0 360 L7494 360" stroke-width="13" />
                  <path d="M0 540 L7494 540" stroke-width="13" />
                  <path d="M0 720 L7494 720" stroke-width="13" />
                  <path d="M0 900 L7494 900" stroke-width="13" />
                  <path d="M0 1080 L7494 1080" stroke-width="13" />
                  <g id="c14onpgt" class="clef">
                     <use xlink:href="#E05C-d19nj5e9" x="117" y="720" height="720px" width="720px" />
                  </g>
                  <g id="klwctc6" class="keySig" />
                  <g id="m1y2tg4n" class="meterSig">
                     <use xlink:href="#E084-d19nj5e9" x="809" y="540" height="720px" width="720px" />
                     <use xlink:href="#E081-d19nj5e9" x="842" y="900" height="720px" width="720px" />
                  </g>
                  <g id="l1kzq82m" class="layer">
                     <g id="nshell2" class="note">
                        <g class="notehead">
                           <use xlink:href="#E0A1-d19nj5e9" x="1371" y="720" height="720px" width="720px" />
                        </g>
                     </g>
                     <g id="na734np" class="note">
                        <g class="notehead">
                           <use xlink:href="#E0A2-d19nj5e9" x="3791" y="630" height="720px" width="720px" />
                        </g>
                     </g>
                     <g id="n1cybpcc" class="note">
                        <g class="notehead">
                           <use xlink:href="#E0A3-d19nj5e9" x="5381" y="630" height="720px" width="720px" />
                        </g>
                        <g id="swigvp2" class="stem">
                           <path d="M5390 655 L5390 1260" stroke-width="18" />
                        </g>
                     </g>
                     <g id="n15wwqth" class="note">
                        <g class="notehead">
                           <use xlink:href="#E0A3-d19nj5e9" x="6431" y="720" height="720px" width="720px" />
                        </g>
                        <g id="s1ho95rp" class="stem">
                           <path d="M6440 745 L6440 1320" stroke-width="18" />
                        </g>
                     </g>
                  </g>
               </g>
               <g id="sv3lqdm" class="staff">
                  <path d="M0 1800 L7494 1800" stroke-width="13" />
                  <path d="M0 1980 L7494 1980" stroke-width="13" />
                  <path d="M0 2160 L7494 2160" stroke-width="13" />
                  <path d="M0 2340 L7494 2340" stroke-width="13" />
                  <path d="M0 2520 L7494 2520" stroke-width="13" />
                  <g id="c17r2sbn" class="clef">
                     <use xlink:href="#E909-d19nj5e9" x="117" y="2160" height="720px" width="720px" />
                  </g>
                  <g id="kklwdg" class="keySig" />
                  <g id="m17jlnp0" class="mensur">
                     <use xlink:href="#E915-d19nj5e9" x="733" y="2160" height="720px" width="720px" />
                  </g>
                  <g id="l2gqwr3" class="layer">
                     <g id="n1pfogn4" class="note">
                        <g class="notehead">
                           <polygon stroke-opacity="1" fill-opacity="1" points="1389,2070 1585,2070 1585,2120 1389,2120" />
                           <polygon stroke-opacity="1" fill-opacity="1" points="1389,2250 1585,2250 1585,2200 1389,2200" />
                           <rect stroke-opacity="1" fill-opacity="1" x="1371" y="2040" height="240" width="18" />
                           <rect stroke-opacity="1" fill-opacity="1" x="1585" y="2040" height="240" width="18" />
                        </g>
                     </g>
                     <g id="n8j2ung" class="note">
                        <g class="notehead">
                           <use xlink:href="#E93C-d19nj5e9" x="3791" y="2070" height="720px" width="720px" />
                        </g>
                     </g>
                     <g id="n1ahluu1" class="note">
                        <g class="notehead">
                           <use xlink:href="#E93C-d19nj5e9" x="5381" y="2070" height="720px" width="720px" />
                        </g>
                        <g id="so3qcsy" class="stem">
                           <use xlink:href="#E93F-d19nj5e9" x="5483" y="2150" height="720px" width="720px" />
                        </g>
                     </g>
                     <g id="n1iiegxs" class="note">
                        <g class="notehead">
                           <use xlink:href="#E93C-d19nj5e9" x="6431" y="2160" height="720px" width="720px" />
                        </g>
                        <g id="sgtp1zt" class="stem">
                           <use xlink:href="#E93E-d19nj5e9" x="6533" y="2080" height="720px" width="720px" />
                        </g>
                     </g>
                  </g>
               </g>
               <g id="b4ks4fv" class="barLine">
                  <path d="M7481 360 L7481 1080" stroke-width="27" />
                  <path d="M7481 1800 L7481 2520" stroke-width="27" />
               </g>
            </g>
            <g id="mrbcoh7" class="measure">
               <g id="s16gprxv" class="staff">
                  <path d="M7494 360 L12367 360" stroke-width="13" />
                  <path d="M7494 540 L12367 540" stroke-width="13" />
                  <path d="M7494 720 L12367 720" stroke-width="13" />
                  <path d="M7494 900 L12367 900" stroke-width="13" />
                  <path d="M7494 1080 L12367 1080" stroke-width="13" />
                  <g id="l1w2vfrn" class="layer">
                     <g id="nk6xyvl" class="note">
                        <g class="notehead">
                           <use xlink:href="#E0A1-d19nj5e9" x="7674" y="810" height="720px" width="720px" />
                        </g>
                        <g id="d1c77hfv" class="dots">
                           <ellipse cx="8014" cy="810" rx="36" ry="36" fill-opacity="1" stroke-opacity="1" />
                        </g>
                     </g>
                     <g id="nhghzyb" class="note">
                        <g class="notehead">
                           <use xlink:href="#E0A2-d19nj5e9" x="10764" y="810" height="720px" width="720px" />
                        </g>
                     </g>
                  </g>
               </g>
               <g id="sgx8bjh" class="staff">
                  <path d="M7494 1800 L12367 1800" stroke-width="13" />
                  <path d="M7494 1980 L12367 1980" stroke-width="13" />
                  <path d="M7494 2160 L12367 2160" stroke-width="13" />
                  <path d="M7494 2340 L12367 2340" stroke-width="13" />
                  <path d="M7494 2520 L12367 2520" stroke-width="13" />
                  <g id="l82fpt" class="layer">
                     <g id="n3elz0m" class="note">
                        <g class="notehead">
                           <polygon stroke-opacity="1" fill-opacity="1" points="7692,2160 7888,2160 7888,2210 7692,2210" />
                           <polygon stroke-opacity="1" fill-opacity="1" points="7692,2340 7888,2340 7888,2290 7692,2290" />
                           <rect stroke-opacity="1" fill-opacity="1" x="7674" y="2130" height="240" width="18" />
                           <rect stroke-opacity="1" fill-opacity="1" x="7888" y="2130" height="240" width="18" />
                        </g>
                     </g>
                     <g id="d1bb0tuc" class="dot">
                        <polygon stroke-opacity="1" fill-opacity="1" points="9290,2250 9335,2205 9380,2250 9335,2295" />
                     </g>
                     <g id="n6sh6uc" class="note">
                        <g class="notehead">
                           <use xlink:href="#E93C-d19nj5e9" x="10764" y="2250" height="720px" width="720px" />
                        </g>
                     </g>
                  </g>
               </g>
               <g id="b5odh2d" class="barLine">
                  <path d="M12354 360 L12354 1080" stroke-width="27" />
                  <path d="M12354 1800 L12354 2520" stroke-width="27" />
               </g>
            </g>
            <g id="mgj8qwy" class="measure">
               <g id="s12ecyql" class="staff">
                  <path d="M12367 360 L18160 360" stroke-width="13" />
                  <path d="M12367 540 L18160 540" stroke-width="13" />
                  <path d="M12367 720 L18160 720" stroke-width="13" />
                  <path d="M12367 900 L18160 900" stroke-width="13" />
                  <path d="M12367 1080 L18160 1080" stroke-width="13" />
                  <g id="ljwwkjn" class="layer">
                     <g id="nzub3xf" class="note">
                        <g class="notehead">
                           <use xlink:href="#E0A2-d19nj5e9" x="12547" y="630" height="720px" width="720px" />
                        </g>
                     </g>
                     <g id="nzv1mc9" class="note">
                        <g class="notehead">
                           <use xlink:href="#E0A2-d19nj5e9" x="14137" y="630" height="720px" width="720px" />
                        </g>
                     </g>
                     <g id="n14qhuvu" class="note">
                        <g class="notehead">
                           <use xlink:href="#E0A1-d19nj5e9" x="15727" y="810" height="720px" width="720px" />
                        </g>
                     </g>
                  </g>
               </g>
               <g id="s1dict13" class="staff">
                  <path d="M12367 1800 L18160 1800" stroke-width="13" />
                  <path d="M12367 1980 L18160 1980" stroke-width="13" />
                  <path d="M12367 2160 L18160 2160" stroke-width="13" />
                  <path d="M12367 2340 L18160 2340" stroke-width="13" />
                  <path d="M12367 2520 L18160 2520" stroke-width="13" />
                  <g id="lcz237t" class="layer">
                     <g id="nwxt00x" class="note">
                        <g class="notehead">
                           <use xlink:href="#E93C-d19nj5e9" x="12547" y="2070" height="720px" width="720px" />
                        </g>
                     </g>
                     <g id="ndvl5ld" class="note">
                        <g class="notehead">
                           <use xlink:href="#E93C-d19nj5e9" x="14137" y="2070" height="720px" width="720px" />
                        </g>
                     </g>
                     <g id="n1nwbnw5" class="note">
                        <g class="notehead">
                           <polygon stroke-opacity="1" fill-opacity="1" points="15745,2160 15941,2160 15941,2210 15745,2210" />
                           <polygon stroke-opacity="1" fill-opacity="1" points="15745,2340 15941,2340 15941,2290 15745,2290" />
                           <rect stroke-opacity="1" fill-opacity="1" x="15727" y="2130" height="240" width="18" />
                           <rect stroke-opacity="1" fill-opacity="1" x="15941" y="2130" height="240" width="18" />
                        </g>
                     </g>
                  </g>
               </g>
               <g id="bwtw03u" class="barLine">
                  <path d="M18147 360 L18147 1080" stroke-width="27" />
                  <path d="M18147 1800 L18147 2520" stroke-width="27" />
               </g>
            </g>
            <g id="s1m11mph" class="systemMilestoneEnd s1s4ffnc" />
         </g>
         <g id="p1oxd4nf" class="pageMilestoneEnd sjft1g2" />
         <g id="p23h8om" class="pageMilestoneEnd moqsi69" />
      </g>
   </svg>
</svg>
