<?xml version="1.0" encoding="UTF-8" standalone="no"?>
<svg width="1300px" height="280px" version="1.1" xmlns="http://www.w3.org/2000/svg" xmlns:xlink="http://www.w3.org/1999/xlink" xmlns:mei="http://www.music-encoding.org/ns/mei" overflow="visible">
   <desc>Engraved by Verovio 3.9.0-dev-65a7052</desc>
   <defs>
      <symbol id="E05C-pg4wvx" viewBox="0 0 1000 1000" overflow="inherit">
         <path transform="scale(1,-1)" d="M175 0v502h43v-456c13 7 25 18 37 29c10 12 20 24 27 38c6 14 10 31 14 49c3 20 5 41 5 62c7 -35 32 -54 73 -60c78 19 99 68 100 165c0 44 -9 77 -31 100c-18 23 -41 35 -69 35c-43 0 -65 -37 -66 -84c7 15 19 18 39 24c6 0 10 -2 16 -4l17 -10l10 -14l7 -18 c-4 -32 -23 -48 -56 -48c-56 0 -77 39 -77 98c8 28 13 44 30 61c7 7 14 13 23 17c3 3 22 9 27 11l34 3l35 2c120 0 190 -61 190 -178l3 -33c0 -52 -20 -97 -60 -134c-20 -17 -45 -29 -74 -39c-31 -9 -64 -13 -101 -13l-93 -88v-34l93 -88c37 0 70 -4 101 -13 c29 -10 54 -22 74 -39c40 -37 60 -82 60 -134l-3 -33c0 -117 -70 -178 -190 -178l-35 2l-34 3c-5 2 -24 8 -27 11c-31 13 -43 42 -53 78c0 59 21 98 77 98c33 0 52 -16 56 -48l-7 -18l-10 -14l-17 -10c-6 -2 -10 -4 -16 -4c-20 6 -32 9 -39 24c1 -47 23 -84 66 -84 c28 0 51 12 69 35c22 23 31 56 31 100c-1 97 -22 146 -100 165c-41 -6 -66 -25 -73 -60c0 21 -2 42 -5 62c-4 18 -8 35 -14 49c-7 14 -17 26 -27 38c-12 11 -24 22 -37 29v-456h-43v502zM0 502h118v-502v-502h-118v502v502z" />
      </symbol>
      <symbol id="E08A-pg4wvx" viewBox="0 0 1000 1000" overflow="inherit">
         <path transform="scale(1,-1)" d="M340 179c-9 24 -56 41 -89 41c-46 0 -81 -28 -100 -58c-17 -28 -25 -78 -25 -150c0 -65 2 -111 8 -135c8 -31 18 -49 40 -67c20 -17 43 -25 70 -25c54 0 92 36 115 75c14 25 23 54 28 88h27c0 -63 -24 -105 -58 -141c-35 -38 -82 -56 -140 -56c-45 0 -83 13 -115 39 c-57 45 -101 130 -101 226c0 59 33 127 68 163c36 37 97 72 160 72c36 0 93 -21 121 -40c11 -8 23 -17 33 -30c19 -23 27 -48 27 -76c0 -51 -35 -88 -86 -88c-43 0 -76 27 -76 68c0 26 7 35 21 51c15 17 32 27 58 32c7 2 14 7 14 11z" />
      </symbol>
      <symbol id="E4E3-pg4wvx" viewBox="0 0 1000 1000" overflow="inherit">
         <path transform="scale(1,-1)" d="M0 -115v105c0 9 1 10 10 10h280c9 0 10 -1 10 -10v-105c0 -9 -1 -10 -10 -10h-280c-9 0 -10 1 -10 10z" />
      </symbol>
   </defs>
   <style type="text/css">g.page-margin{font-family:Times;} g.ending, g.fing, g.reh, g.tempo{font-weight:bold;} g.dir, g.dynam, g.mNum{font-style:italic;} g.label{font-weight:normal;}</style>
   <svg class="definition-scale" color="black" viewBox="0 0 13000 2800">

      <rect width="13000" height="2800" fill="#dff"/>
      <text x="100" y="300" font-size="20em">margins</text>

      <g class="page-margin" transform="translate(500, 500)">
      
         <rect width="12000" height="1800" fill="#fff"/>
         <rect width="12000" height="540" fill="#aaa"/>
         <text x="4380" y="320" font-size="20em">1/2 staff-spacing (6 units)</text>
         <rect y="1260" width="12000" height="540" fill="#aaa"/>
         <text x="5000" y="1580" font-size="20em">1/2 staff-spacing</text>   

         <g id="m4hpv72" class="mdiv pageMilestone" />
         <g id="stqwxu7" class="score pageMilestone" />
         <g id="swwyerw" class="system">
            <g id="s5xk6j3" class="section systemMilestone" />
            <g id="mb9bp34" class="measure">
               <g id="sf117ad" class="staff">
                  <path d="M0 540 L2987 540" stroke="currentColor" stroke-width="13" />
                  <path d="M0 720 L2987 720" stroke="currentColor" stroke-width="13" />
                  <path d="M0 900 L2987 900" stroke="currentColor" stroke-width="13" />
                  <path d="M0 1080 L2987 1080" stroke="currentColor" stroke-width="13" />
                  <path d="M0 1260 L2987 1260" stroke="currentColor" stroke-width="13" />
                  <g id="cehwe2" class="clef">
                     <use xlink:href="#E05C-pg4wvx" x="90" y="900" height="720px" width="720px" />
                  </g>
                  <g id="mrt3htm" class="meterSig">
                     <use xlink:href="#E08A-pg4wvx" x="796" y="900" height="720px" width="720px" />
                  </g>
                  <g id="l1jufhn" class="layer">
                     <g id="m3ndjjf" class="mRest">
                        <use xlink:href="#E4E3-pg4wvx" x="1964" y="720" height="720px" width="720px" />
                     </g>
                  </g>
               </g>
               <g id="bsfo28z" class="barLine">
                  <path d="M2974 1260 L2974 540" stroke="currentColor" stroke-width="27" />
               </g>
            </g>
            <g id="myrduiz" class="measure">
               <g id="sdscoi3" class="staff">
                  <path d="M2987 540 L4790 540" stroke="currentColor" stroke-width="13" />
                  <path d="M2987 720 L4790 720" stroke="currentColor" stroke-width="13" />
                  <path d="M2987 900 L4790 900" stroke="currentColor" stroke-width="13" />
                  <path d="M2987 1080 L4790 1080" stroke="currentColor" stroke-width="13" />
                  <path d="M2987 1260 L4790 1260" stroke="currentColor" stroke-width="13" />
                  <g id="loqobzd" class="layer">
                     <g id="m70p3az" class="mRest">
                        <use xlink:href="#E4E3-pg4wvx" x="3767" y="720" height="720px" width="720px" />
                     </g>
                  </g>
               </g>
               <g id="brtoi6c" class="barLine">
                  <path d="M4777 1260 L4777 540" stroke="currentColor" stroke-width="27" />
               </g>
            </g>
            <g id="mrkuu2e" class="measure">
               <g id="s57rcv8" class="staff">
                  <path d="M4790 540 L6593 540" stroke="currentColor" stroke-width="13" />
                  <path d="M4790 720 L6593 720" stroke="currentColor" stroke-width="13" />
                  <path d="M4790 900 L6593 900" stroke="currentColor" stroke-width="13" />
                  <path d="M4790 1080 L6593 1080" stroke="currentColor" stroke-width="13" />
                  <path d="M4790 1260 L6593 1260" stroke="currentColor" stroke-width="13" />
                  <g id="l5o4ktc" class="layer">
                     <g id="mb2s2sb" class="mRest">
                        <use xlink:href="#E4E3-pg4wvx" x="5570" y="720" height="720px" width="720px" />
                     </g>
                  </g>
               </g>
               <g id="bym5ry9" class="barLine">
                  <path d="M6580 1260 L6580 540" stroke="currentColor" stroke-width="27" />
               </g>
            </g>
            <g id="m2u13iv" class="measure">
               <g id="ssk00a" class="staff">
                  <path d="M6593 540 L8396 540" stroke="currentColor" stroke-width="13" />
                  <path d="M6593 720 L8396 720" stroke="currentColor" stroke-width="13" />
                  <path d="M6593 900 L8396 900" stroke="currentColor" stroke-width="13" />
                  <path d="M6593 1080 L8396 1080" stroke="currentColor" stroke-width="13" />
                  <path d="M6593 1260 L8396 1260" stroke="currentColor" stroke-width="13" />
                  <g id="ld6pblp" class="layer">
                     <g id="m44kr57" class="mRest">
                        <use xlink:href="#E4E3-pg4wvx" x="7373" y="720" height="720px" width="720px" />
                     </g>
                  </g>
               </g>
               <g id="bl6xpej" class="barLine">
                  <path d="M8383 1260 L8383 540" stroke="currentColor" stroke-width="27" />
               </g>
            </g>
            <g id="m2wr2pa" class="measure">
               <g id="sdde3ke" class="staff">
                  <path d="M8396 540 L10199 540" stroke="currentColor" stroke-width="13" />
                  <path d="M8396 720 L10199 720" stroke="currentColor" stroke-width="13" />
                  <path d="M8396 900 L10199 900" stroke="currentColor" stroke-width="13" />
                  <path d="M8396 1080 L10199 1080" stroke="currentColor" stroke-width="13" />
                  <path d="M8396 1260 L10199 1260" stroke="currentColor" stroke-width="13" />
                  <g id="l18xisa" class="layer">
                     <g id="mmht1j8" class="mRest">
                        <use xlink:href="#E4E3-pg4wvx" x="9176" y="720" height="720px" width="720px" />
                     </g>
                  </g>
               </g>
               <g id="blgp7w7" class="barLine">
                  <path d="M10186 1260 L10186 540" stroke="currentColor" stroke-width="27" />
               </g>
            </g>
            <g id="m59vbqp" class="measure">
               <g id="suq49jg" class="staff">
                  <path d="M10199 540 L12002 540" stroke="currentColor" stroke-width="13" />
                  <path d="M10199 720 L12002 720" stroke="currentColor" stroke-width="13" />
                  <path d="M10199 900 L12002 900" stroke="currentColor" stroke-width="13" />
                  <path d="M10199 1080 L12002 1080" stroke="currentColor" stroke-width="13" />
                  <path d="M10199 1260 L12002 1260" stroke="currentColor" stroke-width="13" />
                  <g id="l90bbkw" class="layer">
                     <g id="m7g2i4n" class="mRest">
                        <use xlink:href="#E4E3-pg4wvx" x="10979" y="720" height="720px" width="720px" />
                     </g>
                  </g>
               </g>
               <g id="bdf4mdu" class="barLine">
                  <path d="M11989 1260 L11989 540" stroke="currentColor" stroke-width="27" />
               </g>
            </g>
            <g id="sxo42vw" class="systemMilestoneEnd s5xk6j3" />
         </g>
         <g id="pkv2hoh" class="pageMilestoneEnd stqwxu7" />
         <g id="pxhcmw" class="pageMilestoneEnd m4hpv72" />
      </g>
   </svg>
</svg>
